<svg id="Layer_1" data-name="Layer 1" xmlns="http://www.w3.org/2000/svg" viewBox="0 0 357.9 390.59"><g id="stick"><path d="M180.18,88.59c-2-40.85-22.45-72-48.44-77.78-5.47-1.21-15-2.12-27.56,2.67" transform="translate(-0.14 -0.05)" style="fill:none;stroke:#654321;stroke-linecap:round;stroke-miterlimit:10;stroke-width:8px"/></g><g id="apple"><path d="M1.73,215.08c11.66,71.35,89.83,186.4,161.17,174.74s108.84-145.6,97.18-216.94A130.89,130.89,0,0,0,1.73,215.08Z" transform="translate(-0.14 -0.05)" style="fill:#ff0800"/><path d="M356.45,215.08c-11.65,71.35-89.83,186.4-161.17,174.74S86.44,244.22,98.1,172.88a130.89,130.89,0,0,1,258.35,42.2Z" transform="translate(-0.14 -0.05)" style="fill:#ff0800"/></g><g id="leaf"><path d="M234.71,47.82c-23.39,14.9-54.53,7.88-54.53,7.88S187,24.5,210.35,9.59s54.53-7.88,54.53-7.88S258.1,32.82,234.71,47.82Z" transform="translate(-0.14 -0.05)" style="fill:#3a5f0b"/></g></svg>