<svg id="autumn" xmlns="http://www.w3.org/2000/svg" viewBox="0 0 519.7 547.22"><defs><style>.cls-1,.cls-2{fill:#408b00;}.cls-1{opacity:0.5;isolation:isolate;}.cls-3{fill:#d38e10;stroke:#d75915;}.cls-3,.cls-4{stroke-miterlimit:10;stroke-width:12px;}.cls-4{fill:#40c300;stroke:#408b00;}.cls-5{fill:#d75915;}.cls-6{fill:none;}</style></defs><g id="Layer_2" data-name="Layer 2"><path class="cls-1" d="M12.87,271.11l261-261" transform="translate(-0.03 -0.02)"/><path class="cls-2" d="M-231.13,65.44" transform="translate(-0.03 -0.02)"/><path class="cls-3" d="M18.2,7.44h0A1008.78,1008.78,0,0,1,231.31,47.22c119.25,36,176.51,61.29,219.12,111.11,47.79,55.89,57.4,113.66,59.11,124.89,4.32,28.52,15.84,104.41-35.67,157.89-45.48,47.23-109.53,45.19-119.44,44.78-86.58-3.6-139.36-78.65-151.56-96-54.06-76.87-26-129.58-67.56-228C105.59,91.46,58.75,41.48,18.2,7.44Z" transform="translate(-0.03 -0.02)"/><path class="cls-4" d="M581.09,229.44" transform="translate(-0.03 -0.02)"/><path class="cls-4" d="M425.7,487.85" transform="translate(-0.03 -0.02)"/><path class="cls-5" d="M464.59,447.61a927.57,927.57,0,0,0-108.4-170.44C266.25,165.1,146.74,66.91,12,3.58h0c56.76,26.69,121.56,57,171.45,93.11A934.17,934.17,0,0,1,475.37,442.34Z" transform="translate(-0.03 -0.02)"/><path class="cls-5" d="M255.74,440.09a116.21,116.21,0,0,0,35.66.83c4.3-.58,11-1.73,34.84-10.33,30.19-10.9,45.28-16.34,59.5-22.34a85,85,0,0,1,21.5-6.33,115.55,115.55,0,0,1,17.83-1,165.67,165.67,0,0,1,17.67,1l7.83,13.83a98.63,98.63,0,0,0-31.33-3.5c-7.15.38-14.88,1.61-56.17,16.17-19.06,6.72-22.71,8.33-33.17,11.33a326.33,326.33,0,0,1-32.83,7.67,111.51,111.51,0,0,1-37.33-4Z" transform="translate(-0.03 -0.02)"/><path class="cls-5" d="M453.46,153.87a84.86,84.86,0,0,1-13.39,23.27c-2.06,2.54-5.43,6.37-20.45,18.25-19,15-28.52,22.55-38,29.28A62.31,62.31,0,0,0,369,236,85,85,0,0,0,361.39,247a119.09,119.09,0,0,0-6.24,11.76l6.1,10.61a71.52,71.52,0,0,1,9.93-21.56c3-4.45,6.87-8.92,32.65-29.62,11.9-9.56,14.39-11.26,20.47-16.77a241.26,241.26,0,0,0,17.9-18,81.17,81.17,0,0,0,11.94-25.62C453.89,156.48,453.67,155.17,453.46,153.87Z" transform="translate(-0.03 -0.02)"/><path class="cls-5" d="M500.22,231.33A66.52,66.52,0,0,1,487.88,253c-2,2.32-5.25,5.8-20.19,16.23-18.92,13.2-28.38,19.8-37.92,25.63a51.27,51.27,0,0,0-12.43,10,66,66,0,0,0-7.2,10.21,90.76,90.76,0,0,0-5.68,11l7.26,10.82a57,57,0,0,1,8.82-20.28c2.87-4.1,6.57-8.17,32.2-26.37,11.82-8.4,14.32-9.87,20.31-14.78a197.47,197.47,0,0,0,17.52-16.21,64.09,64.09,0,0,0,7.14-12.85,65.78,65.78,0,0,0,3.49-11.23C500.87,233.91,500.54,232.61,500.22,231.33Z" transform="translate(-0.03 -0.02)"/><path class="cls-5" d="M516.94,339a4.13,4.13,0,0,1-.15-.5c-2,1.48-4.36,3.15-7.1,5.07-18.92,13.2-28.38,19.8-37.92,25.63a51.51,51.51,0,0,0-12.43,10,66,66,0,0,0-7.2,10.21,93,93,0,0,0-5.68,11l7.26,10.82A56.68,56.68,0,0,1,462.54,391c2.87-4.1,6.57-8.17,32.2-26.38,11.82-8.4,14.32-9.87,20.31-14.78q2.12-1.74,4-3.39C518.37,343.94,517.84,341.42,516.94,339Z" transform="translate(-0.03 -0.02)"/><path class="cls-5" d="M361.72,91.38a67.56,67.56,0,0,1-11.61,20.3c-1.83,2.19-4.83,5.49-18.38,15.55C314.58,140,306,146.33,297.38,152a51,51,0,0,0-11.31,9.61,67.16,67.16,0,0,0-6.7,9.61A94.73,94.73,0,0,0,274,181.49q3,4.84,6.07,9.69a57.32,57.32,0,0,1,8.45-18.89c2.67-3.86,6.08-7.71,29.32-25.26,10.73-8.1,13-9.53,18.44-14.23a199.48,199.48,0,0,0,16-15.45,64.85,64.85,0,0,0,10.17-22.43C362.22,93.73,362,92.55,361.72,91.38Z" transform="translate(-0.03 -0.02)"/><path class="cls-5" d="M158.37,289.66a169.35,169.35,0,0,0,36.22.59C199,289.84,205.75,289,230,283c30.66-7.67,46-11.5,60.43-15.71a116.15,116.15,0,0,1,21.83-4.45,168.5,168.5,0,0,1,18.11-.71c7.29,0,13.42.36,17.94.71l8,9.72a142.06,142.06,0,0,0-31.82-2.46c-7.26.27-15.11,1.13-57,11.37-19.36,4.73-23.07,5.86-33.69,8-13.85,2.76-25.49,4.42-33.34,5.4a163.29,163.29,0,0,1-21.33-.47A156.92,156.92,0,0,1,162.51,292Z" transform="translate(-0.03 -0.02)"/><path class="cls-5" d="M141.37,196.23a91,91,0,0,0,26.39,2.83c3.22-.13,8.24-.51,26.44-5,23-5.73,34.55-8.59,45.44-11.89A65.74,65.74,0,0,1,256,179.09a89.24,89.24,0,0,1,13.28.42,129.43,129.43,0,0,1,13,1.82l5,10.19a76.88,76.88,0,0,0-23-4.43c-5.32-.19-11.12.18-42.61,7.78-14.53,3.5-17.33,4.4-25.26,5.85-10.35,1.88-19,2.81-24.8,3.3a87.45,87.45,0,0,1-27.44-5.17Z" transform="translate(-0.03 -0.02)"/><path class="cls-5" d="M186.87,366.61a163.08,163.08,0,0,0,40.88.78c4.92-.54,12.59-1.61,39.92-9.63,34.6-10.15,51.9-15.22,68.19-20.81a114.63,114.63,0,0,1,24.64-5.9,166.1,166.1,0,0,1,20.44-.93c8.22,0,15.14.47,20.25.93q4.49,6.45,9,12.89a137.17,137.17,0,0,0-35.91-3.26c-8.19.35-17,1.5-64.38,15.06-21.84,6.26-26,7.76-38,10.56-15.63,3.66-28.77,5.85-37.63,7.14a155.82,155.82,0,0,1-42.79-3.72Z" transform="translate(-0.03 -0.02)"/><path class="cls-2" d="M620.7,470.61" transform="translate(-0.03 -0.02)"/><line class="cls-6" x1="468.84" y1="442.09" x2="501.17" y2="505.42"/><path class="cls-5" d="M502.75,547.24l-13.38-41.75a187.1,187.1,0,0,0-7.25-19l-18.8-42.16,11-4.88,18.8,42.16a197.17,197.17,0,0,1,7.72,20.2l9.72,30.32a12,12,0,0,1-7.76,15.09Z" transform="translate(-0.03 -0.02)"/><path class="cls-5" d="M500.59,505.25a.45.45,0,1,0,.2-.61A.46.46,0,0,0,500.59,505.25Z" transform="translate(-0.03 -0.02)"/></g></svg>