<svg width="1162" height="724" viewBox="0 0 1162 724" fill="none" xmlns="http://www.w3.org/2000/svg">
<g id="orangepencil">
<path id="Vector" d="M942.742 717.452C940.995 715.202 939.696 716.362 939.696 716.362C939.302 717.482 939.18 718.679 939.339 719.855C939.516 720.615 939.886 721.317 940.412 721.893C940.938 722.469 941.603 722.901 942.344 723.146C943.685 722.839 944.391 719.59 942.742 717.452Z" fill="url(#paint0_linear)"/>
<g id="Group" style="mix-blend-mode:multiply" opacity="0.8">
<g id="Group_2" style="mix-blend-mode:multiply" opacity="0.8">
<path id="Vector_2" style="mix-blend-mode:multiply" opacity="0.8" d="M939.318 719.862C939.495 720.622 939.865 721.324 940.391 721.9C940.917 722.476 941.582 722.908 942.323 723.153C943.364 722.916 944.013 720.952 943.517 719.08C942.974 719.613 942.285 719.972 941.537 720.111C940.789 720.25 940.017 720.164 939.318 719.862Z" fill="url(#paint1_linear)"/>
</g>
</g>
<path id="Vector_3" d="M1161.99 612.056C1161.9 608.326 1161.36 604.678 1159.45 601.416C1158.25 599.361 1156.23 596.525 1154.15 595.281C1154.15 595.281 1145.46 590.069 1139.85 592.137L969.99 682.693C969.99 682.693 983.265 684.432 986.758 697.589C989.798 709.047 986.758 713.483 986.758 713.483L1157.93 622.725C1161.48 620.839 1162.06 615.515 1161.99 612.056Z" fill="url(#paint2_linear)"/>
<path id="Vector_4" d="M986.793 697.589C983.3 684.432 970.025 682.693 970.025 682.693C969.652 682.802 969.316 683.012 969.056 683.301C968.796 683.59 968.621 683.945 968.551 684.328C968.348 685.62 984.753 713.973 984.753 713.973C985.474 713.93 986.183 713.765 986.849 713.483C986.849 713.483 989.832 709.068 986.793 697.589Z" fill="url(#paint3_linear)"/>
<path id="Vector_5" d="M983.81 697.288C980.114 686.948 968.551 684.328 968.544 684.328L939.675 716.348C939.675 716.348 940.974 715.188 942.721 717.438C944.468 719.688 943.685 722.839 942.323 723.153C942.581 723.237 942.849 723.286 943.119 723.3C944.649 723.37 976.299 715.957 984.746 713.973C985.361 712.149 986.898 705.924 983.81 697.288Z" fill="url(#paint4_linear)"/>
<g id="Group_3">
<path id="Vector_6" style="mix-blend-mode:overlay" opacity="0.5" d="M972.575 683.294L1145.75 591.976C1143.81 591.488 1141.77 591.543 1139.85 592.137L969.99 682.693C970.844 682.833 971.687 683.034 972.512 683.294H972.575Z" fill="url(#paint5_linear)"/>
</g>
<g id="Group_4">
<path id="Vector_7" style="mix-blend-mode:multiply" opacity="0.8" d="M988.114 705.623C988.365 711.171 986.821 713.476 986.821 713.476L1157.93 622.725C1161.49 620.839 1162.07 615.515 1161.99 612.057L988.114 705.623Z" fill="url(#paint6_linear)"/>
</g>
<g id="Group_5">
<path id="Vector_8" style="mix-blend-mode:multiply" opacity="0.8" d="M988.114 705.63C986.632 707.726 985.661 706.811 985.661 706.811C985.761 709.233 985.451 711.654 984.746 713.973C985.468 713.93 986.176 713.765 986.842 713.483C986.842 713.483 988.365 711.164 988.114 705.63Z" fill="url(#paint7_linear)"/>
</g>
<g id="Group_6">
<path id="Vector_9" style="mix-blend-mode:multiply" opacity="0.8" d="M985.661 706.811L943.559 719.199C943.999 721.029 943.342 722.916 942.322 723.153C942.58 723.237 942.848 723.286 943.119 723.3C944.649 723.37 976.299 715.957 984.746 713.973C985.451 711.654 985.76 709.233 985.661 706.811Z" fill="url(#paint8_linear)"/>
</g>
<g id="Group_7">
<path id="Vector_10" opacity="0.4" d="M970.884 685.075C970.884 685.075 971.276 682.902 972.54 683.294C971.715 683.034 970.872 682.833 970.018 682.693C969.645 682.802 969.309 683.012 969.049 683.301C968.789 683.59 968.614 683.945 968.544 684.328C969.339 684.528 970.121 684.778 970.884 685.075V685.075Z" fill="url(#paint9_radial)"/>
</g>
<g id="Group_8">
<path id="Vector_11" style="mix-blend-mode:overlay" opacity="0.5" d="M970.885 685.075C970.123 684.779 969.344 684.529 968.551 684.328L939.675 716.348C939.95 716.144 940.283 716.034 940.625 716.034C940.967 716.034 941.3 716.144 941.575 716.348L941.813 716.145L970.885 685.075Z" fill="url(#paint10_linear)"/>
</g>
<g id="Group_9">
<path id="Vector_12" style="mix-blend-mode:overlay" opacity="0.5" d="M978.493 689.568L980.085 687.206L1155.84 596.658C1155.32 596.129 1154.75 595.66 1154.13 595.26C1153.17 594.711 1152.18 594.212 1151.17 593.765L977.591 685.494L976.012 687.688L942.741 717.452C943.077 717.891 943.328 718.389 943.482 718.919V718.919L978.493 689.568Z" fill="url(#paint11_linear)"/>
</g>
<path id="Vector_13" d="M994.919 669.131L990.028 671.73C995.213 673.736 1010.29 681.463 1007.41 702.689L1011.37 700.593C1014.6 679.765 1000.77 671.612 994.919 669.131Z" fill="black"/>
<path id="Vector_14" d="M1105.25 610.303L994.919 669.131C1000.77 671.612 1014.6 679.765 1011.38 700.572L1122.84 641.45C1126 619.553 1109.59 611.952 1105.25 610.303Z" fill="url(#paint12_linear)"/>
<path id="Vector_15" d="M1110.09 607.76L1105.25 610.338C1109.59 611.952 1126 619.588 1122.84 641.506L1126.84 639.41C1130.31 617.939 1115.31 609.856 1110.09 607.76Z" fill="black"/>
<g id="Group_10" opacity="0.6">
<g id="Vector_16" style="mix-blend-mode:screen" opacity="0.6">
<path d="M973.379 683.559C976.538 684.57 979.4 686.341 981.715 688.717C984.029 691.092 985.725 693.999 986.654 697.183C986.654 697.183 983.677 687.409 973.379 683.559Z" fill="#E4E3E4"/>
</g>
<g id="Vector_17" style="mix-blend-mode:screen" opacity="0.6">
<path d="M973.798 686.375C973.798 686.375 981.868 690.127 983.999 697.847C983.999 697.847 983.195 692.404 973.798 686.375Z" fill="#E4E3E4"/>
</g>
</g>
<g id="Group_11">
<path id="Vector_18" style="mix-blend-mode:screen" opacity="0.5" d="M993.242 672.394C993.242 672.394 998.238 674.078 1001.58 677.767C1001.58 677.767 1002.93 679.863 1005.66 678.179C1008.39 676.495 1116.5 620.636 1116.5 620.636C1116.5 620.636 1120.99 619.407 1119.81 616.235C1118.64 613.063 1111.95 608.891 1109.22 609.842C1106.48 610.792 994.772 670.578 994.772 670.578C994.772 670.578 991.768 671.793 993.242 672.394Z" fill="url(#paint13_linear)"/>
</g>
<path id="Vector_19" style="mix-blend-mode:multiply" d="M1011.44 689.414C1012.01 693.119 1012 696.894 1011.38 700.593L1122.84 641.471C1123.48 637.456 1123.37 633.357 1122.5 629.384L1011.44 689.414Z" fill="url(#paint14_linear)"/>
<g id="Vector_20" style="mix-blend-mode:screen" opacity="0.7">
<path d="M939.814 716.25C939.814 716.25 941.338 715.3 942.993 717.836C942.993 717.836 941.799 715.971 939.814 716.25Z" fill="#E4E3E4"/>
</g>
</g>
<g id="redpencil2">
<path id="Vector_21" d="M839.114 606.293C839.309 603.77 840.839 603.987 840.839 603.987C841.683 604.628 842.361 605.462 842.816 606.418C843.06 607.065 843.133 607.765 843.026 608.448C842.92 609.131 842.638 609.775 842.209 610.317C841.049 610.757 838.932 608.703 839.114 606.293Z" fill="url(#paint15_linear)"/>
<g id="Group_12" style="mix-blend-mode:multiply">
<g id="Group_13" style="mix-blend-mode:multiply">
<path id="Vector_22" style="mix-blend-mode:multiply" d="M842.831 606.418C843.075 607.065 843.147 607.765 843.041 608.448C842.934 609.131 842.652 609.775 842.223 610.317C841.336 610.652 839.897 609.528 839.352 607.9C840.013 608.027 840.698 607.955 841.318 607.691C841.938 607.427 842.465 606.984 842.831 606.418V606.418Z" fill="url(#paint16_linear)"/>
</g>
</g>
<g id="Vector_23" style="mix-blend-mode:screen" opacity="0.6">
<path d="M840.686 603.987C840.686 603.987 839.093 604.029 839.113 606.712C839.11 606.159 839.253 605.615 839.529 605.136C839.806 604.657 840.205 604.26 840.686 603.987Z" fill="#F8F8F7"/>
</g>
<path id="Vector_24" d="M625.277 635.707C623.516 632.912 622.125 629.943 621.944 626.624C621.832 624.528 621.944 621.433 622.859 619.491C622.859 619.491 626.744 611.372 631.942 610.156L801.937 594.003C801.937 594.003 792.966 601.793 796.823 613.237C800.183 623.208 804.585 625.017 804.585 625.017L633.507 641.59C629.951 641.932 626.939 638.285 625.277 635.707Z" fill="url(#paint17_linear)"/>
<path id="Vector_25" d="M796.787 613.182C792.931 601.737 801.902 593.947 801.902 593.947C802.232 593.847 802.583 593.84 802.917 593.926C803.251 594.012 803.555 594.189 803.795 594.436C804.578 595.288 806.317 624.304 806.317 624.304C805.769 624.621 805.172 624.843 804.55 624.961C804.55 624.961 800.148 623.131 796.787 613.182Z" fill="url(#paint18_radial)"/>
<path id="Vector_26" d="M805.906 617.779C806.157 621.58 806.318 624.304 806.318 624.304C805.77 624.621 805.172 624.843 804.55 624.961C804.55 624.961 801.609 623.746 798.702 617.856C801.069 617.306 803.527 617.28 805.906 617.779V617.779Z" fill="url(#paint19_linear)"/>
<path id="Vector_27" d="M798.849 611.505C796.516 602.038 803.789 594.436 803.796 594.436L840.826 603.987C840.826 603.987 839.296 603.77 839.1 606.293C838.918 608.703 841.035 610.757 842.195 610.317C842.048 610.511 841.874 610.683 841.678 610.827C840.581 611.624 813.528 621.636 806.304 624.305C804.984 623.25 800.792 619.4 798.849 611.505Z" fill="url(#paint20_linear)"/>
<g id="Group_14">
<path id="Vector_28" opacity="0.4" d="M800.309 595.645L627.463 612.874C628.662 611.555 630.198 610.589 631.906 610.079L801.902 593.926C801.339 594.45 800.814 595.012 800.33 595.61L800.309 595.645Z" fill="url(#paint21_linear)"/>
</g>
<g id="Group_15">
<path id="Vector_29" style="mix-blend-mode:multiply" opacity="0.8" d="M799.743 619.777C802.265 623.969 804.543 624.954 804.543 624.954L633.507 641.59C629.951 641.932 626.911 638.285 625.276 635.679L799.743 619.777Z" fill="url(#paint22_linear)"/>
</g>
<g id="Group_16">
<path id="Vector_30" style="mix-blend-mode:multiply" opacity="0.6" d="M799.75 619.784C801.881 620.623 802.14 619.456 802.14 619.456C803.256 621.297 804.673 622.939 806.332 624.312C805.783 624.628 805.186 624.85 804.564 624.968C804.564 624.968 802.307 624.004 799.75 619.784Z" fill="url(#paint23_linear)"/>
</g>
<g id="Group_17">
<path id="Vector_31" style="mix-blend-mode:multiply" d="M802.14 619.449L839.337 607.997C839.91 609.577 841.314 610.645 842.188 610.317C842.041 610.511 841.867 610.683 841.671 610.827C840.574 611.624 813.521 621.636 806.297 624.305C804.65 622.929 803.245 621.288 802.14 619.449V619.449Z" fill="url(#paint24_linear)"/>
</g>
<g id="Group_18">
<path id="Vector_32" opacity="0.4" d="M802.426 596.134C802.426 596.134 801.078 594.736 800.33 595.631C800.814 595.033 801.339 594.471 801.902 593.947C802.232 593.847 802.583 593.84 802.917 593.926C803.251 594.012 803.555 594.189 803.795 594.436C803.293 594.971 802.827 595.538 802.398 596.134H802.426Z" fill="url(#paint25_radial)"/>
</g>
<g id="Group_19">
<path id="Vector_33" opacity="0.4" d="M802.434 596.134C802.862 595.538 803.329 594.971 803.831 594.436L840.861 603.987C840.557 603.978 840.259 604.065 840.008 604.235C839.757 604.406 839.566 604.652 839.463 604.937L839.191 604.902L802.434 596.134Z" fill="url(#paint26_linear)"/>
</g>
<g id="Group_20">
<path id="Vector_34" style="mix-blend-mode:overlay" opacity="0.5" d="M799.003 603.183L796.669 602.212L622.266 621.293C622.393 620.653 622.592 620.03 622.859 619.435C623.298 618.557 623.784 617.704 624.313 616.878L797.675 599.732L799.911 600.577L839.114 606.293C839.083 606.779 839.142 607.267 839.289 607.732V607.732L799.003 603.183Z" fill="url(#paint27_linear)"/>
</g>
<path id="Vector_35" d="M776.84 596.106L781.731 595.645C778.873 599.669 771.509 612.762 784.022 627.085L780.075 627.47C767.485 613.608 773.717 600.808 776.84 596.106Z" fill="black"/>
<path id="Vector_36" d="M666.4 606.607L776.84 596.127C773.717 600.829 767.485 613.594 780.068 627.462L668.643 638.299C655.584 623.606 663.969 609.919 666.4 606.607Z" fill="url(#paint28_linear)"/>
<path id="Vector_37" d="M661.559 607.061L666.401 606.607C663.983 609.919 655.578 623.606 668.643 638.278L664.647 638.662C651.603 624.528 658.736 611.204 661.559 607.061Z" fill="black"/>
<g id="Group_21" opacity="0.6">
<g id="Vector_38" style="mix-blend-mode:screen" opacity="0.6">
<path d="M799.841 596.232C797.996 598.529 796.743 601.243 796.191 604.138C795.639 607.032 795.806 610.017 796.676 612.832C795.991 609.999 795.92 607.053 796.466 604.19C797.011 601.327 798.162 598.614 799.841 596.232V596.232Z" fill="#F8F8F7"/>
</g>
<g id="Vector_39" style="mix-blend-mode:screen" opacity="0.6">
<path d="M800.91 598.523C800.91 598.523 796.774 605.252 798.968 612.001C798.975 612.001 796.907 607.592 800.91 598.523Z" fill="#F8F8F7"/>
</g>
</g>
<g id="Group_22">
<path id="Vector_40" style="mix-blend-mode:screen" opacity="0.5" d="M779.95 596.93C778.182 599.317 776.971 602.07 776.408 604.986C776.408 604.986 776.449 607.208 773.613 607.292C770.776 607.376 663.424 618.988 663.424 618.988C663.424 618.988 659.505 620.266 658.813 617.353C658.121 614.439 661.042 608.067 663.529 607.431C666.017 606.796 777.945 596.329 777.945 596.329C777.945 596.329 780.718 595.763 779.95 596.93Z" fill="url(#paint29_linear)"/>
</g>
</g>
<g id="greenpencil2">
<path id="Vector_41" d="M297.235 702.598C297.983 699.88 299.61 700.453 299.61 700.453C300.397 701.335 300.962 702.391 301.259 703.534C301.382 704.295 301.308 705.075 301.043 705.799C300.779 706.523 300.334 707.167 299.75 707.671C298.381 707.901 296.515 705.204 297.235 702.598Z" fill="url(#paint30_linear)"/>
<g id="Group_23" style="mix-blend-mode:multiply" opacity="0.5">
<g id="Group_24" style="mix-blend-mode:multiply" opacity="0.5">
<path id="Vector_42" style="mix-blend-mode:multiply" opacity="0.5" d="M301.259 703.534C301.382 704.295 301.307 705.075 301.043 705.799C300.779 706.523 300.334 707.167 299.75 707.671C298.709 707.838 297.375 706.273 297.123 704.401C297.821 704.682 298.586 704.75 299.323 704.595C300.059 704.441 300.733 704.072 301.259 703.534V703.534Z" fill="url(#paint31_linear)"/>
</g>
</g>
<g id="Vector_43" style="mix-blend-mode:screen" opacity="0.6">
<path d="M299.442 700.418C299.442 700.418 297.689 700.118 297.137 703.066C297.165 703.066 297.521 700.914 299.442 700.418Z" fill="#E4E3E4"/>
</g>
<path id="Vector_44" d="M56.8827 688.75C55.5552 685.306 54.6679 681.763 55.1919 678.061C55.5203 675.727 56.3028 672.38 57.7351 670.452C57.7351 670.452 63.7297 662.403 69.6126 662.187L259.164 681.121C259.164 681.121 247.663 687.716 249.424 701.068C250.961 712.701 255.384 715.628 255.384 715.628L64.645 697.023C60.6555 696.603 58.1123 691.95 56.8827 688.75Z" fill="url(#paint32_linear)"/>
<path id="Vector_45" d="M249.424 701.033C247.663 687.681 259.163 681.121 259.163 681.121C259.545 681.082 259.93 681.149 260.276 681.314C260.622 681.479 260.916 681.736 261.126 682.057C261.825 683.161 257.465 715.293 257.465 715.293C256.791 715.523 256.082 715.636 255.369 715.628C255.369 715.628 250.961 712.666 249.424 701.033Z" fill="url(#paint33_linear)"/>
<path id="Vector_46" opacity="0.4" d="M258.416 708.027C257.872 712.219 257.466 715.258 257.466 715.258C256.792 715.488 256.083 715.601 255.37 715.593C255.37 715.593 252.415 713.63 250.479 706.56C253.2 706.467 255.909 706.967 258.416 708.027V708.027Z" fill="url(#paint34_radial)"/>
<path id="Vector_47" d="M252.037 699.636C251.527 688.778 261.12 682.029 261.12 682.022L299.603 700.453C299.603 700.453 297.975 699.88 297.228 702.598C296.529 705.204 298.373 707.901 299.743 707.677C299.53 707.854 299.295 708.002 299.044 708.118C297.647 708.76 265.906 713.896 257.431 715.258C256.229 713.812 252.449 708.705 252.037 699.636Z" fill="url(#paint35_linear)"/>
<g id="Group_25">
<path id="Vector_48" opacity="0.8" d="M257.054 682.602L64.1768 664.262C65.7691 663.076 67.6568 662.351 69.6334 662.166L259.164 681.121C258.43 681.57 257.729 682.072 257.067 682.623C257.067 682.623 257.061 682.588 257.054 682.602Z" fill="url(#paint36_linear)"/>
</g>
<g id="Group_26">
<path id="Vector_49" style="mix-blend-mode:multiply" opacity="0.8" d="M251.241 708.893C253.093 714.056 255.377 715.594 255.377 715.594L64.6387 696.988C60.6772 696.603 58.134 691.95 56.9043 688.75L251.241 708.893Z" fill="url(#paint37_linear)"/>
</g>
<g id="Group_27">
<path id="Vector_50" style="mix-blend-mode:multiply" opacity="0.6" d="M251.248 708.893C253.4 710.29 253.931 709.047 253.931 709.047C254.749 711.301 255.942 713.401 257.459 715.258C256.785 715.488 256.076 715.601 255.363 715.593C255.363 715.593 253.1 714.056 251.248 708.893Z" fill="url(#paint38_linear)"/>
</g>
<g id="Group_28">
<path id="Vector_51" style="mix-blend-mode:multiply" opacity="0.8" d="M253.938 709.068L297.165 704.519C297.451 706.371 298.758 707.845 299.785 707.677C299.572 707.854 299.337 708.002 299.086 708.118C297.689 708.76 265.948 713.896 257.473 715.258C255.955 713.408 254.76 711.315 253.938 709.068V709.068Z" fill="url(#paint39_linear)"/>
</g>
<g id="Group_29">
<path id="Vector_52" opacity="0.4" d="M259.261 683.594C259.261 683.594 258.094 681.757 257.081 682.588C257.743 682.038 258.443 681.536 259.177 681.086C259.559 681.047 259.943 681.114 260.29 681.279C260.636 681.444 260.93 681.701 261.14 682.022C260.491 682.51 259.871 683.035 259.282 683.594H259.261Z" fill="url(#paint40_radial)"/>
</g>
<g id="Group_30">
<path id="Vector_53" style="mix-blend-mode:overlay" opacity="0.2" d="M259.269 683.594C259.856 683.036 260.477 682.513 261.127 682.029L299.61 700.453C299.281 700.376 298.935 700.405 298.624 700.537C298.312 700.669 298.051 700.896 297.877 701.187L297.584 701.089L259.269 683.594Z" fill="url(#paint41_linear)"/>
</g>
<g id="Group_31">
<path id="Vector_54" style="mix-blend-mode:overlay" opacity="0.3" d="M254 690.574L251.652 689.009L56.6797 672.359C56.9587 671.686 57.3126 671.046 57.7347 670.452C58.4022 669.585 59.1159 668.755 59.8726 667.965L253.287 686.501L255.558 687.898L297.234 702.57C297.089 703.098 297.047 703.648 297.108 704.191V704.191L254 690.574Z" fill="url(#paint42_linear)"/>
</g>
<path id="Vector_55" d="M231.265 678.054L236.708 678.599C232.719 682.385 221.847 695.129 232.46 713.477L228.058 713.043C217.264 695.199 226.843 682.518 231.265 678.054Z" fill="black"/>
<path id="Vector_56" d="M108.137 665.75L231.265 678.026C226.843 682.497 217.292 695.171 228.058 713.015L103.785 700.928C92.6337 682.057 104.777 668.894 108.137 665.75Z" fill="url(#paint43_linear)"/>
<path id="Vector_57" d="M102.744 665.24L108.138 665.778C104.777 668.894 92.6341 682.057 103.785 700.928L99.3205 700.488C88.0927 682.204 98.7406 669.159 102.744 665.24Z" fill="black"/>
<g id="Group_32" opacity="0.6">
<g id="Vector_58" style="mix-blend-mode:screen" opacity="0.6">
<path d="M256.417 683.14C253.905 685.254 251.95 687.952 250.722 690.997C249.494 694.042 249.032 697.342 249.375 700.607C249.375 700.607 248.445 690.553 256.417 683.14Z" fill="#E4E3E4"/>
</g>
<g id="Vector_59" style="mix-blend-mode:screen" opacity="0.6">
<path d="M257.095 685.886C257.095 685.886 251.122 692.356 252.072 700.216C252.072 700.216 250.758 694.941 257.095 685.886Z" fill="#E4E3E4"/>
</g>
</g>
<g id="Group_33">
<path id="Vector_60" style="mix-blend-mode:screen" opacity="0.5" d="M234.032 680.422C234.032 680.422 230.099 683.846 228.443 688.485C228.443 688.485 228.017 690.916 224.873 690.392C221.729 689.868 101.752 679.493 101.752 679.493C101.752 679.493 97.1894 680.052 97.0706 676.698C96.9519 673.344 101.5 667.007 104.358 666.854C107.215 666.7 231.964 679.325 231.964 679.325C231.964 679.325 235.157 679.304 234.032 680.422Z" fill="url(#paint44_linear)"/>
</g>
<path id="Vector_61" style="mix-blend-mode:multiply" d="M223.804 702.836C224.669 706.444 226.108 709.891 228.066 713.043L103.785 700.928C101.686 697.499 100.246 693.707 99.5371 689.749L223.804 702.836Z" fill="url(#paint45_linear)"/>
</g>
<g id="pinkpencil">
<path id="Vector_62" d="M390.795 604.732C393.59 604.089 393.841 605.808 393.841 605.808C393.437 606.929 392.771 607.937 391.899 608.749C391.286 609.228 390.56 609.54 389.791 609.655C389.022 609.77 388.237 609.684 387.511 609.406C386.645 608.309 388.14 605.347 390.795 604.732Z" fill="url(#paint46_linear)"/>
<g id="Group_34" style="mix-blend-mode:multiply">
<g id="Group_35" style="mix-blend-mode:multiply">
<path id="Vector_63" style="mix-blend-mode:multiply" d="M391.899 608.749C391.286 609.228 390.56 609.54 389.792 609.655C389.023 609.77 388.237 609.684 387.511 609.406C386.848 608.561 387.581 606.611 389.146 605.508C389.23 606.26 389.537 606.971 390.028 607.549C390.518 608.126 391.17 608.544 391.899 608.749V608.749Z" fill="url(#paint47_linear)"/>
</g>
</g>
<g id="Vector_64" style="mix-blend-mode:screen" opacity="0.6">
<path d="M393.791 605.647C393.791 605.647 393.212 603.942 390.333 604.872C390.347 604.872 392.443 604.18 393.791 605.647Z" fill="#F8F8F7"/>
</g>
<path id="Vector_65" d="M287.37 385.11C289.787 382.28 292.498 379.793 296.033 378.472C298.255 377.641 301.623 376.719 303.998 377.075C303.998 377.075 314.017 378.514 317.05 383.643L391.529 560.659C391.529 560.659 380.154 553.673 369.171 561.637C359.599 568.624 359.138 573.92 359.138 573.92C359.138 573.92 283.89 396.149 283.8 395.932C282.234 392.236 285.127 387.765 287.37 385.11Z" fill="url(#paint48_linear)"/>
<path id="Vector_66" d="M369.171 561.624C380.154 553.638 391.528 560.645 391.528 560.645C391.749 560.964 391.877 561.338 391.898 561.726C391.919 562.113 391.832 562.498 391.647 562.839C390.99 563.964 360.437 575.59 360.437 575.59C359.912 575.107 359.472 574.537 359.138 573.906C359.138 573.906 359.606 568.582 369.171 561.624Z" fill="url(#paint49_radial)"/>
<path id="Vector_67" d="M367.291 572.956C363.295 574.5 360.43 575.59 360.43 575.59C359.905 575.107 359.465 574.537 359.131 573.906C359.131 573.906 359.445 570.35 364.79 565.243C366.172 567.603 367.025 570.234 367.291 572.956V572.956Z" fill="url(#paint50_linear)"/>
<path id="Vector_68" d="M371.666 563.265C381.042 557.585 391.641 562.839 391.648 562.839L393.842 605.808C393.842 605.808 393.562 604.089 390.796 604.732C388.141 605.347 386.645 608.309 387.512 609.406C387.263 609.31 387.028 609.181 386.813 609.022C385.583 608.114 365.748 582.472 360.459 575.59C361.123 573.802 363.841 568.023 371.666 563.265Z" fill="url(#paint51_linear)"/>
<g id="Group_36">
<path id="Vector_69" opacity="0.4" d="M389.174 559.506L312.585 379.793C314.397 380.638 315.941 381.965 317.049 383.629L391.528 560.645C390.78 560.218 390.003 559.844 389.202 559.527L389.174 559.506Z" fill="url(#paint52_linear)"/>
</g>
<g id="Group_37">
<path id="Vector_70" style="mix-blend-mode:multiply" opacity="0.8" d="M363.099 567.01C359.417 571.14 359.159 573.899 359.159 573.899C359.159 573.899 283.89 396.149 283.8 395.932C282.234 392.236 285.127 387.744 287.37 385.11L363.099 567.01Z" fill="url(#paint53_linear)"/>
</g>
<g id="Group_38">
<path id="Vector_71" style="mix-blend-mode:multiply" opacity="0.6" d="M363.1 567.017C362.918 569.588 364.26 569.47 364.26 569.47C362.66 571.281 361.376 573.348 360.459 575.583C359.933 575.1 359.494 574.53 359.159 573.899C359.159 573.899 359.397 571.147 363.1 567.017Z" fill="url(#paint54_linear)"/>
</g>
<g id="Group_39">
<path id="Vector_72" style="mix-blend-mode:multiply" d="M364.239 569.477L389.042 605.57C387.547 606.709 386.862 608.582 387.512 609.406C387.263 609.31 387.028 609.181 386.813 609.022C385.583 608.114 365.748 582.472 360.459 575.59C361.37 573.356 362.647 571.29 364.239 569.477V569.477Z" fill="url(#paint55_linear)"/>
</g>
<g id="Group_40">
<path id="Vector_73" opacity="0.4" d="M389.356 561.945C389.356 561.945 390.425 560.024 389.202 559.528C390.003 559.844 390.781 560.218 391.529 560.645C391.75 560.964 391.878 561.338 391.899 561.726C391.92 562.113 391.833 562.498 391.648 562.839C390.903 562.499 390.14 562.201 389.363 561.945H389.356Z" fill="url(#paint56_radial)"/>
</g>
<g id="Group_41">
<path id="Vector_74" opacity="0.4" d="M389.362 561.945C390.14 562.2 390.903 562.499 391.647 562.839L393.841 605.808C393.75 605.479 393.556 605.187 393.289 604.975C393.021 604.763 392.694 604.641 392.353 604.627L392.297 604.32L389.362 561.945Z" fill="url(#paint57_linear)"/>
</g>
<g id="Group_42">
<path id="Vector_75" style="mix-blend-mode:overlay" opacity="0.5" d="M380.644 560.638L380.895 557.802L301.798 377.047C302.529 376.963 303.267 376.963 303.999 377.047C305.086 377.222 306.164 377.455 307.227 377.746L383.899 558.004L383.746 560.694L390.795 604.711C390.258 604.849 389.751 605.086 389.3 605.41V605.41L380.644 560.638Z" fill="url(#paint58_linear)"/>
</g>
<path id="Vector_76" d="M380.79 534.487L382.928 539.573C377.653 537.862 361.123 534.354 349.986 552.597L348.246 548.46C358.859 530.295 374.691 532.705 380.79 534.487Z" fill="black"/>
<path id="Vector_77" d="M332.399 419.471L380.79 534.487C374.69 532.719 358.858 530.295 348.245 548.46C335.438 518.201 313.968 467.505 299.163 432.522C310.51 413.574 328.025 417.996 332.399 419.471Z" fill="url(#paint59_linear)"/>
<path id="Vector_78" d="M330.262 414.433L332.358 419.471C327.984 417.996 310.468 413.574 299.122 432.529C298.521 431.132 297.934 429.734 297.361 428.337C308.198 409.612 324.889 412.791 330.262 414.433Z" fill="black"/>
<g id="Group_43" opacity="0.6">
<g id="Vector_79" style="mix-blend-mode:screen" opacity="0.6">
<path d="M388.385 559.199C385.302 557.994 381.97 557.562 378.681 557.942C375.393 558.322 372.248 559.502 369.521 561.379C369.521 561.379 377.981 555.706 388.385 559.199Z" fill="#F8F8F7"/>
</g>
<g id="Vector_80" style="mix-blend-mode:screen" opacity="0.6">
<path d="M386.282 561.121C386.282 561.121 377.675 558.948 371.17 563.573C371.17 563.573 375.208 559.87 386.282 561.121Z" fill="#F8F8F7"/>
</g>
</g>
<g id="Group_44">
<path id="Vector_81" style="mix-blend-mode:screen" opacity="0.5" d="M380.944 538.057C380.944 538.057 376.018 536.22 371.107 536.967C371.107 536.967 368.738 537.75 367.69 534.717C366.642 531.685 318.084 420.393 318.084 420.393C318.084 420.393 315.394 416.613 318.287 414.894C321.179 413.176 329.004 414.161 330.52 416.62C332.037 419.079 380.895 535.682 380.895 535.682C380.895 535.682 382.46 538.518 380.944 538.057Z" fill="url(#paint60_linear)"/>
</g>
</g>
<g id="bluepencil">
<path id="Vector_82" d="M2.90269 487.238C0.883512 485.687 0.024137 486.972 0.024137 486.972C-0.0664676 488.037 0.0988266 489.108 0.506226 490.096C0.826726 490.714 1.30234 491.239 1.88652 491.619C2.47071 491.998 3.14344 492.22 3.83891 492.261C4.94981 491.689 4.83104 488.726 2.90269 487.238Z" fill="url(#paint61_linear)"/>
<g id="Group_45" style="mix-blend-mode:multiply">
<g id="Group_46" style="mix-blend-mode:multiply">
<path id="Vector_83" style="mix-blend-mode:multiply" d="M0.505859 490.096C0.82636 490.714 1.30197 491.239 1.88616 491.619C2.47034 491.998 3.14308 492.22 3.83855 492.261C4.68395 491.821 4.80971 489.984 3.95732 488.482C3.60734 489.063 3.09216 489.527 2.47746 489.814C1.86277 490.102 1.1764 490.2 0.505859 490.096V490.096Z" fill="url(#paint62_linear)"/>
</g>
</g>
<g id="Vector_84" style="mix-blend-mode:screen" opacity="0.6">
<path d="M0.12207 486.889C0.12207 486.889 1.22598 485.722 3.2242 487.545C3.2242 487.517 1.77793 486.19 0.12207 486.889Z" fill="#F8F8F7"/>
</g>
<path id="Vector_85" d="M168.818 346.923C167.909 343.723 166.624 340.69 164.234 338.301C162.739 336.792 160.357 334.808 158.282 334.186C158.282 334.186 149.59 331.629 145.209 334.675L18.707 451.074C18.707 451.074 30.5845 449.6 36.5512 460.157C41.7494 469.387 40.1424 473.893 40.1424 473.893L167.7 357.061C170.355 354.636 169.663 349.906 168.818 346.923Z" fill="url(#paint63_linear)"/>
<path id="Vector_86" d="M36.5586 460.185C30.5849 449.6 18.7144 451.102 18.7144 451.102C18.4174 451.281 18.1754 451.537 18.0152 451.844C17.8549 452.151 17.7825 452.497 17.8061 452.842C17.9179 454.002 38.466 474.836 38.466 474.836C39.0721 474.635 39.6409 474.335 40.1498 473.949C40.1498 473.949 41.7498 469.422 36.5586 460.185Z" fill="url(#paint64_radial)"/>
<path id="Vector_87" d="M33.8545 470.12C36.5304 472.866 38.4588 474.822 38.4588 474.822C39.0648 474.621 39.6337 474.321 40.1426 473.935C40.1426 473.935 41.2116 470.917 38.7452 464.776C36.7491 466.184 35.0808 468.007 33.8545 470.12V470.12Z" fill="url(#paint65_radial)"/>
<path id="Vector_88" d="M33.9033 460.597C28.3837 452.486 17.8337 452.814 17.8337 452.814L0.0244141 486.973C0.0244141 486.973 0.883789 485.687 2.90297 487.238C4.92214 488.789 4.95009 491.689 3.83919 492.262C4.07322 492.278 4.30837 492.261 4.53787 492.213C5.87234 491.933 31.5697 478.421 38.4307 474.809C38.5704 473.097 38.5075 467.368 33.9033 460.597Z" fill="url(#paint66_linear)"/>
<g id="Group_47">
<path id="Vector_89" opacity="0.4" d="M21.0476 451.019L150.275 333.18C148.484 333.196 146.732 333.703 145.209 334.647L18.707 451.074C19.4758 451.004 20.2486 450.988 21.0197 451.026L21.0476 451.019Z" fill="url(#paint67_linear)"/>
</g>
<g id="Group_48">
<path id="Vector_90" style="mix-blend-mode:multiply" opacity="0.8" d="M39.5 466.837C40.9602 471.567 40.1428 473.914 40.1428 473.914L167.7 357.06C170.355 354.636 169.664 349.906 168.818 346.923L39.5 466.837Z" fill="url(#paint68_linear)"/>
</g>
<g id="Group_49">
<path id="Vector_91" style="mix-blend-mode:multiply" d="M37.6409 468.416L4.02052 488.572C4.81003 490.054 4.67029 491.828 3.83887 492.261C4.0729 492.278 4.30805 492.261 4.53754 492.213C5.87202 491.933 31.5694 478.421 38.4304 474.809C38.5241 472.649 38.2572 470.488 37.6409 468.416Z" fill="url(#paint69_linear)"/>
</g>
<g id="Group_50">
<path id="Vector_92" opacity="0.4" d="M19.9922 452.933C19.9922 452.933 19.8384 450.977 21.0192 451.026C20.2481 450.988 19.4754 451.004 18.7066 451.074C18.4096 451.253 18.1676 451.509 18.0073 451.816C17.8471 452.123 17.7747 452.469 17.7983 452.814C18.5291 452.812 19.2594 452.854 19.9852 452.94L19.9922 452.933Z" fill="url(#paint70_radial)"/>
</g>
<g id="Group_51">
<path id="Vector_93" opacity="0.4" d="M19.9856 452.94C19.2599 452.854 18.5296 452.812 17.7988 452.814L0.0244141 486.973C0.220783 486.739 0.486343 486.574 0.782731 486.501C1.07912 486.428 1.39099 486.451 1.67329 486.567L1.827 486.344L19.9856 452.94Z" fill="url(#paint71_linear)"/>
</g>
<g id="Group_52">
<path id="Vector_94" style="mix-blend-mode:overlay" opacity="0.5" d="M27.5726 455.12L28.418 452.716L160.077 334.989C159.512 334.652 158.909 334.382 158.281 334.186C157.329 333.921 156.364 333.709 155.389 333.55L25.8818 451.794L25.0085 454.051L2.90234 487.238C3.29043 487.539 3.61764 487.911 3.86652 488.335V488.335L27.5726 455.12Z" fill="url(#paint72_linear)"/>
</g>
<path id="Vector_95" d="M37.1867 433.789L33.5605 437.129C38.4932 437.702 53.2493 441 55.5339 459.99L58.4754 457.293C56.5889 438.533 42.846 434.593 37.1867 433.789Z" fill="black"/>
<path id="Vector_96" d="M119.372 358.143L37.1865 433.789C42.7759 434.621 56.5888 438.561 58.4752 457.293L141.576 381.137C139.389 361.483 123.487 358.57 119.372 358.143Z" fill="url(#paint73_linear)"/>
<path id="Vector_97" d="M122.977 354.839L119.372 358.15C123.487 358.577 139.389 361.49 141.576 381.144L144.552 378.412C142.757 359.122 127.973 355.495 122.977 354.839Z" fill="black"/>
<g id="Vector_98" style="mix-blend-mode:screen" opacity="0.6">
<path d="M21.8018 451.067C24.7624 451.234 27.6372 452.123 30.1753 453.656C32.7133 455.189 34.8375 457.321 36.3622 459.864C34.7013 457.446 32.5432 455.41 30.0322 453.893C27.5211 452.376 24.7151 451.413 21.8018 451.067V451.067Z" fill="#F8F8F7"/>
</g>
<g id="Vector_99" style="mix-blend-mode:screen" opacity="0.6">
<path d="M22.8008 453.415C22.8008 453.415 30.619 454.812 34.1962 461.031C34.1962 461.038 32.2818 456.517 22.8008 453.415Z" fill="#F8F8F7"/>
</g>
<g id="Group_53">
<path id="Vector_100" style="mix-blend-mode:screen" opacity="0.5" d="M35.7337 436.619C38.7017 436.914 41.5662 437.869 44.1178 439.414C44.1178 439.414 45.7527 440.937 47.737 438.855C49.7212 436.773 130.656 364.236 130.656 364.236C130.656 364.236 134.247 362.14 132.535 359.688C130.824 357.235 124.081 355.104 121.929 356.536C119.778 357.969 36.621 434.725 36.621 434.725C36.621 434.725 34.3224 436.43 35.7337 436.619Z" fill="url(#paint74_linear)"/>
</g>
</g>
<g id="lightgreenpencil">
<path id="Vector_101" d="M882.247 447.337C879.899 445.772 879.04 447.267 879.04 447.267C879.021 448.448 879.285 449.617 879.809 450.676C880.211 451.336 880.777 451.88 881.451 452.257C882.126 452.634 882.886 452.831 883.658 452.828C884.839 452.102 884.49 448.832 882.247 447.337Z" fill="url(#paint75_linear)"/>
<g id="Group_54" style="mix-blend-mode:multiply" opacity="0.5">
<g id="Vector_102" style="mix-blend-mode:multiply" opacity="0.5">
<path d="M879.809 450.676C880.211 451.336 880.777 451.88 881.451 452.257C882.126 452.634 882.886 452.831 883.658 452.828C884.567 452.269 884.56 450.229 883.512 448.636C883.165 449.304 882.628 449.854 881.969 450.217C881.31 450.58 880.558 450.74 879.809 450.676V450.676Z" fill="#E8C926"/>
</g>
</g>
<g id="Vector_103" style="mix-blend-mode:screen" opacity="0.6">
<path d="M879.145 447.134C879.145 447.134 880.269 445.737 882.638 447.623C882.624 447.623 880.954 446.247 879.145 447.134Z" fill="#E4E3E4"/>
</g>
<path id="Vector_104" d="M1055.18 279.668C1053.93 276.175 1052.28 272.94 1049.46 270.473C1047.69 268.922 1044.91 266.896 1042.56 266.372C1042.56 266.372 1032.78 264.199 1028.14 267.895L897.023 406.15C897.023 406.15 910.047 403.627 917.446 414.883C923.895 424.699 922.455 429.807 922.455 429.807L1054.74 290.966C1057.45 288.087 1056.32 282.903 1055.18 279.668Z" fill="url(#paint76_linear)"/>
<path id="Vector_105" d="M917.418 414.883C910.019 403.627 896.995 406.15 896.995 406.15C896.682 406.371 896.435 406.675 896.282 407.027C896.13 407.38 896.077 407.767 896.129 408.148C896.339 409.419 920.632 430.911 920.632 430.911C921.288 430.646 921.895 430.273 922.427 429.807C922.427 429.807 923.867 424.734 917.418 414.883Z" fill="url(#paint77_linear)"/>
<path id="Vector_106" opacity="0.4" d="M915.189 426.062C918.354 428.892 920.639 430.911 920.639 430.911C921.296 430.646 921.903 430.273 922.435 429.807C922.435 429.807 923.385 426.39 920.22 419.781C918.108 421.485 916.391 423.628 915.189 426.062V426.062Z" fill="#F2D71A"/>
<path id="Vector_107" d="M914.526 415.54C907.812 406.981 896.13 408.141 896.13 408.148L879.04 447.274C879.04 447.274 879.899 445.779 882.247 447.344C884.594 448.909 884.839 452.109 883.644 452.835C883.914 452.833 884.181 452.796 884.441 452.723C885.901 452.311 913.303 435.431 920.618 430.918C920.625 429.017 920.129 422.68 914.526 415.54Z" fill="url(#paint78_linear)"/>
<g id="Group_55">
<path id="Vector_108" d="M899.588 405.919L1033.64 265.897C1031.66 266.055 1029.76 266.746 1028.14 267.895L897.023 406.15C897.872 406.015 898.729 405.941 899.588 405.926V405.919Z" fill="url(#paint79_linear)"/>
</g>
<g id="Group_56">
<path id="Vector_109" style="mix-blend-mode:multiply" opacity="0.8" d="M921.184 422.023C923.161 427.145 922.434 429.8 922.434 429.8L1054.71 290.959C1057.46 288.08 1056.34 282.896 1055.18 279.661L921.184 422.023Z" fill="url(#paint80_linear)"/>
</g>
<g id="Group_57">
<path id="Vector_110" style="mix-blend-mode:multiply" opacity="0.8" d="M921.177 422.03C920.479 424.476 919.249 423.903 919.249 423.903C920.101 426.138 920.573 428.499 920.646 430.89C921.303 430.625 921.91 430.252 922.442 429.786C922.442 429.786 923.155 427.152 921.177 422.03Z" fill="url(#paint81_linear)"/>
</g>
<g id="Group_58">
<path id="Vector_111" style="mix-blend-mode:multiply" opacity="0.8" d="M919.242 423.903L883.609 448.727C884.595 450.306 884.574 452.283 883.686 452.828C883.955 452.826 884.223 452.789 884.483 452.716C885.943 452.304 913.345 435.424 920.66 430.911C920.583 428.512 920.103 426.143 919.242 423.903Z" fill="url(#paint82_linear)"/>
</g>
<g id="Group_59">
<path id="Vector_112" opacity="0.4" d="M898.56 408.113C898.56 408.113 898.246 405.954 899.56 405.926C898.701 405.941 897.844 406.015 896.995 406.15C896.682 406.371 896.435 406.675 896.282 407.027C896.13 407.38 896.077 407.767 896.129 408.148C896.939 408.095 897.751 408.095 898.56 408.148V408.113Z" fill="url(#paint83_radial)"/>
</g>
<g id="Group_60">
<path id="Vector_113" style="mix-blend-mode:overlay" opacity="0.5" d="M898.561 408.113C897.751 408.06 896.939 408.06 896.13 408.113L879.04 447.239C879.239 446.964 879.521 446.76 879.843 446.656C880.166 446.552 880.513 446.553 880.836 446.659L880.989 446.4L898.561 408.113Z" fill="url(#paint84_linear)"/>
</g>
<g id="Group_61">
<path id="Vector_114" style="mix-blend-mode:overlay" opacity="0.5" d="M907.113 409.957L907.868 407.232L1044.61 267.134C1043.96 266.804 1043.27 266.548 1042.57 266.372C1041.49 266.154 1040.41 265.993 1039.32 265.89L904.996 406.408L904.2 408.965L882.247 447.337C882.696 447.645 883.086 448.03 883.4 448.475V448.475L907.113 409.957Z" fill="url(#paint85_linear)"/>
</g>
<path id="Vector_115" d="M916.14 385.608L912.374 389.577C917.873 389.835 934.438 392.372 938.4 413.206L941.453 409.999C937.96 389.437 922.421 386.105 916.14 385.608Z" fill="black"/>
<path id="Vector_116" d="M1005.07 291.86L1001.34 295.801C1005.92 295.961 1023.7 297.987 1027.63 319.556L1030.72 316.307C1027.26 295.123 1010.65 292.223 1005.07 291.86Z" fill="black"/>
<g id="Group_62" opacity="0.6">
<g id="Vector_117" style="mix-blend-mode:screen" opacity="0.6">
<path d="M900.427 405.912C903.714 405.869 906.962 406.633 909.886 408.137C912.81 409.641 915.319 411.84 917.195 414.541C917.195 414.541 911.305 406.31 900.427 405.912Z" fill="#E4E3E4"/>
</g>
<g id="Vector_118" style="mix-blend-mode:screen" opacity="0.6">
<path d="M901.705 408.427C901.705 408.427 910.453 409.426 914.882 416.001C914.882 416.001 912.395 411.145 901.705 408.427Z" fill="#E4E3E4"/>
</g>
</g>
<g id="Group_63">
<path id="Vector_119" style="mix-blend-mode:screen" opacity="0.5" d="M915.581 389.207C915.581 389.207 920.8 389.207 925.104 391.638C925.104 391.638 927.018 393.196 929.058 390.744C931.098 388.291 1015.15 302.012 1015.15 302.012C1015.15 302.012 1018.97 299.448 1016.88 296.835C1014.79 294.222 1007.19 292.405 1004.92 294.159C1002.65 295.912 916.454 387.006 916.454 387.006C916.454 387.006 914.016 389.102 915.581 389.207Z" fill="url(#paint86_linear)"/>
</g>
<path id="Vector_120" style="mix-blend-mode:multiply" d="M938.001 399.491C939.702 402.778 940.868 406.316 941.452 409.971L1027.63 319.528C1026.97 315.556 1025.57 311.741 1023.52 308.279L938.001 399.491Z" fill="url(#paint87_linear)"/>
</g>
<g id="yellowpencil">
<path id="Vector_121" d="M206.154 259.197C207.992 257.268 209.096 258.498 209.096 258.498C209.357 259.584 209.357 260.717 209.096 261.803C208.863 262.496 208.455 263.118 207.912 263.608C207.368 264.097 206.708 264.438 205.994 264.598C204.75 264.129 204.394 261.041 206.154 259.197Z" fill="url(#paint88_linear)"/>
<g id="Group_64" style="mix-blend-mode:multiply" opacity="0.5">
<g id="Vector_122" style="mix-blend-mode:multiply" opacity="0.5">
<path d="M209.089 261.775C208.857 262.468 208.449 263.09 207.905 263.58C207.362 264.069 206.701 264.41 205.987 264.57C205.037 264.248 204.59 262.362 205.254 260.678C205.712 261.22 206.322 261.614 207.005 261.809C207.688 262.005 208.413 261.993 209.089 261.775V261.775Z" fill="#E8C926"/>
</g>
</g>
<g id="Vector_123" style="mix-blend-mode:screen" opacity="0.6">
<path d="M208.971 258.365C208.971 258.365 207.644 257.331 205.862 259.539C205.862 259.539 207.148 257.918 208.971 258.365Z" fill="#E4E3E4"/>
</g>
<path id="Vector_124" d="M11.9856 140.408C12.4187 136.914 13.2571 133.61 15.3462 130.752C16.6597 128.949 18.8396 126.504 20.8587 125.54C20.8587 125.54 29.4525 121.502 34.469 123.961L184.021 224.277C184.021 224.277 171.494 224.647 167.001 236.56C163.088 246.942 165.478 251.351 165.478 251.351L14.7523 150.741C11.6292 148.638 11.5873 143.629 11.9856 140.408Z" fill="url(#paint89_linear)"/>
<path id="Vector_125" d="M167.001 236.56C171.494 224.682 184.021 224.277 184.021 224.277C184.357 224.414 184.648 224.641 184.863 224.933C185.077 225.225 185.207 225.571 185.237 225.933C185.307 227.155 167.358 252 167.358 252C166.698 251.895 166.062 251.675 165.478 251.351C165.478 251.351 163.089 246.942 167.001 236.56Z" fill="url(#paint90_linear)"/>
<path id="Vector_126" opacity="0.4" d="M171.403 246.404C169.069 249.667 167.385 251.993 167.385 251.993C166.726 251.888 166.09 251.668 165.506 251.344C165.506 251.344 163.913 248.395 165.506 241.646C167.793 242.786 169.805 244.409 171.403 246.404V246.404Z" fill="#F2D71A"/>
<path id="Vector_127" d="M169.803 236.56C174.198 227.281 185.237 225.933 185.237 225.933L209.131 258.47C209.131 258.47 208.028 257.268 206.19 259.169C204.352 261.069 204.793 264.102 206.022 264.521C205.775 264.58 205.521 264.601 205.268 264.584C203.835 264.507 175.071 254.62 167.392 251.972C166.973 250.254 166.114 244.308 169.803 236.56Z" fill="url(#paint91_linear)"/>
<g id="Group_65">
<path id="Vector_128" opacity="0.5" d="M181.583 224.598L28.999 123.248C30.8522 122.978 32.7439 123.22 34.4697 123.947L184.021 224.277C183.214 224.327 182.411 224.434 181.618 224.598H181.583Z" fill="url(#paint92_linear)"/>
</g>
<g id="Group_66">
<path id="Vector_129" style="mix-blend-mode:multiply" opacity="0.8" d="M165.01 243.917C164.248 249.052 165.471 251.344 165.471 251.344L14.7454 150.734C11.6223 148.638 11.5804 143.636 11.9507 140.415L165.01 243.917Z" fill="url(#paint93_linear)"/>
</g>
<g id="Group_67">
<path id="Vector_130" style="mix-blend-mode:multiply" opacity="0.8" d="M165.017 243.924C166.191 246.02 167.183 245.251 167.183 245.251C166.86 247.494 166.917 249.776 167.351 252C166.691 251.895 166.055 251.675 165.472 251.351C165.472 251.351 164.256 249.059 165.017 243.924Z" fill="url(#paint94_linear)"/>
</g>
<g id="Group_68">
<path id="Vector_131" style="mix-blend-mode:multiply" opacity="0.8" d="M167.211 245.251L205.233 260.755C204.646 262.418 205.079 264.248 206.009 264.549C205.762 264.608 205.507 264.629 205.254 264.612C203.822 264.535 175.057 254.648 167.379 252C166.945 249.776 166.888 247.494 167.211 245.251V245.251Z" fill="url(#paint95_linear)"/>
</g>
<g id="Group_69">
<path id="Vector_132" opacity="0.4" d="M182.987 226.408C182.987 226.408 182.827 224.354 181.59 224.598C182.382 224.434 183.186 224.327 183.993 224.277C184.329 224.414 184.62 224.641 184.835 224.933C185.05 225.225 185.179 225.571 185.209 225.933C184.45 226.049 183.699 226.21 182.959 226.415L182.987 226.408Z" fill="url(#paint96_radial)"/>
</g>
<g id="Group_70">
<path id="Vector_133" style="mix-blend-mode:overlay" opacity="0.5" d="M182.986 226.415C183.726 226.21 184.477 226.049 185.236 225.933L209.131 258.47C208.89 258.259 208.589 258.129 208.27 258.1C207.951 258.071 207.631 258.144 207.356 258.309L207.161 258.1L182.986 226.415Z" fill="url(#paint97_linear)"/>
</g>
<g id="Group_71">
<path id="Vector_134" style="mix-blend-mode:overlay" opacity="0.5" d="M175.49 229.88L174.197 227.526L19.1328 126.658C19.6637 126.221 20.2427 125.846 20.8585 125.54C21.8016 125.115 22.7672 124.741 23.7511 124.422L176.698 226.17L177.963 228.357L206.155 259.197C205.8 259.573 205.518 260.011 205.323 260.489V260.489L175.49 229.88Z" fill="url(#paint98_linear)"/>
</g>
<path id="Vector_135" d="M162.118 209.304L166.415 212.19C161.398 213.587 146.649 219.337 147.313 239.361L143.82 237.035C142.793 217.346 156.431 211.058 162.118 209.304Z" fill="black"/>
<path id="Vector_136" d="M64.9667 144.132L162.083 209.304C156.396 211.058 142.757 217.346 143.798 237.035L45.6413 171.485C44.7749 150.825 60.7746 145.236 64.9667 144.132Z" fill="url(#paint99_linear)"/>
<path id="Vector_137" d="M60.7044 141.281L64.9663 144.132C60.7742 145.229 44.7745 150.79 45.6479 171.485L42.1545 169.13C40.9178 148.883 55.639 142.769 60.7044 141.281Z" fill="black"/>
<g id="Group_72" opacity="0.6">
<g id="Vector_138" style="mix-blend-mode:screen" opacity="0.6">
<path d="M180.815 224.766C177.775 225.407 174.939 226.785 172.557 228.778C170.174 230.771 168.317 233.318 167.148 236.196C167.148 236.196 170.858 227.386 180.815 224.766Z" fill="#E4E3E4"/>
</g>
<g id="Vector_139" style="mix-blend-mode:screen" opacity="0.6">
<path d="M180.151 227.351C180.151 227.351 172.291 230.083 169.573 237.063C169.573 237.063 170.838 232.074 180.151 227.351Z" fill="#E4E3E4"/>
</g>
</g>
<g id="Group_73">
<path id="Vector_140" style="mix-blend-mode:screen" opacity="0.5" d="M163.376 212.497C160.34 213.259 157.513 214.692 155.103 216.689C155.103 216.689 153.657 218.527 151.268 216.689C148.878 214.852 53.5157 152.67 53.5157 152.67C53.5157 152.67 49.4564 151.104 50.8467 148.261C52.2371 145.417 58.8605 142.168 61.3269 143.314C63.7932 144.46 162.125 210.639 162.125 210.639C162.125 210.639 164.801 212.085 163.376 212.497Z" fill="url(#paint100_linear)"/>
</g>
<path id="Vector_141" style="mix-blend-mode:multiply" d="M144.854 226.631C143.965 230.023 143.628 233.536 143.855 237.035L45.6415 171.485C45.4299 167.687 45.9226 163.883 47.0947 160.264L144.854 226.631Z" fill="url(#paint101_linear)"/>
</g>
<g id="greenpencil">
<path id="Vector_142" d="M837.316 218.137C839.737 216.694 840.515 218.235 840.515 218.235C840.472 219.416 840.148 220.569 839.57 221.6C839.132 222.233 838.538 222.744 837.846 223.084C837.154 223.423 836.387 223.58 835.617 223.538C834.47 222.756 834.992 219.519 837.316 218.137Z" fill="url(#paint102_linear)"/>
<g id="Group_74" style="mix-blend-mode:multiply" opacity="0.5">
<g id="Group_75" style="mix-blend-mode:multiply" opacity="0.5">
<path id="Vector_143" style="mix-blend-mode:multiply" opacity="0.5" d="M839.571 221.6C839.132 222.234 838.539 222.744 837.847 223.084C837.155 223.423 836.387 223.58 835.618 223.538C834.75 222.938 834.872 220.885 835.987 219.36C836.296 220.046 836.801 220.625 837.439 221.024C838.077 221.423 838.819 221.623 839.571 221.6V221.6Z" fill="url(#paint103_linear)"/>
</g>
</g>
<g id="Vector_144" style="mix-blend-mode:screen" opacity="0.6">
<path d="M840.418 218.094C840.418 218.094 839.361 216.663 836.921 218.407C836.941 218.427 838.688 217.121 840.418 218.094Z" fill="#E4E3E4"/>
</g>
<path id="Vector_145" d="M673.52 41.6959C674.947 38.2918 676.76 35.122 679.703 32.8136C681.556 31.3576 684.438 29.4853 686.807 29.0861C686.807 29.0861 696.705 27.4314 701.099 31.3493L824.725 176.279C824.725 176.279 811.862 173.073 803.885 183.924C796.938 193.38 798.101 198.555 798.101 198.555L673.39 53.0392C670.803 49.9739 672.191 44.8559 673.52 41.6959Z" fill="url(#paint104_linear)"/>
<path id="Vector_146" d="M803.91 183.898C811.887 173.047 824.726 176.278 824.726 176.278C825.028 176.515 825.259 176.83 825.395 177.188C825.53 177.547 825.564 177.936 825.494 178.313C825.233 179.594 799.836 199.754 799.836 199.754C799.19 199.452 798.6 199.043 798.091 198.544C798.091 198.544 796.963 193.354 803.91 183.898Z" fill="url(#paint105_linear)"/>
<path id="Vector_147" opacity="0.4" d="M805.553 195.17C802.257 197.817 799.86 199.729 799.86 199.729C799.214 199.427 798.624 199.018 798.116 198.519C798.116 198.519 797.343 195.056 800.844 188.615C802.871 190.432 804.478 192.669 805.553 195.17V195.17Z" fill="url(#paint106_radial)"/>
<path id="Vector_148" d="M806.763 184.699C813.915 176.514 825.509 178.288 825.514 178.283L840.51 218.23C840.51 218.23 839.733 216.69 837.311 218.132C835.003 219.529 834.465 222.751 835.608 223.539C835.332 223.519 835.06 223.463 834.799 223.372C833.346 222.868 806.892 204.591 799.835 199.705C799.97 197.829 800.78 191.527 806.763 184.699Z" fill="url(#paint107_linear)"/>
<g id="Group_76">
<path id="Vector_149" opacity="0.8" d="M822.178 175.886L695.742 29.081C697.712 29.3285 699.575 30.1127 701.13 31.3479L824.726 176.278C823.885 176.095 823.032 175.972 822.174 175.91C822.174 175.91 822.193 175.88 822.178 175.886Z" fill="url(#paint108_linear)"/>
</g>
<g id="Group_77">
<path id="Vector_150" style="mix-blend-mode:multiply" opacity="0.8" d="M799.777 190.826C797.537 195.833 798.12 198.524 798.12 198.524L673.41 53.0084C670.818 49.9877 672.206 44.8697 673.535 41.7097L799.777 190.826Z" fill="url(#paint109_linear)"/>
</g>
<g id="Group_78">
<path id="Vector_151" style="mix-blend-mode:multiply" opacity="0.6" d="M799.782 190.831C800.367 193.329 801.611 192.8 801.611 192.8C800.64 194.992 800.046 197.333 799.855 199.724C799.209 199.422 798.619 199.013 798.111 198.514C798.111 198.514 797.542 195.838 799.782 190.831Z" fill="url(#paint110_linear)"/>
</g>
<g id="Group_79">
<path id="Vector_152" style="mix-blend-mode:multiply" opacity="0.8" d="M801.602 192.82L835.935 219.475C834.86 221.009 834.781 222.977 835.638 223.567C835.363 223.548 835.091 223.492 834.829 223.401C833.376 222.897 806.923 204.62 799.865 199.733C800.052 197.348 800.639 195.01 801.602 192.82V192.82Z" fill="url(#paint111_linear)"/>
</g>
<g id="Group_80">
<path id="Vector_153" opacity="0.4" d="M823.084 178.13C823.084 178.13 823.515 175.997 822.208 175.895C823.067 175.956 823.92 176.079 824.761 176.263C825.062 176.499 825.294 176.814 825.429 177.173C825.565 177.532 825.599 177.921 825.528 178.298C824.722 178.2 823.911 178.149 823.099 178.145L823.084 178.13Z" fill="url(#paint112_radial)"/>
</g>
<g id="Group_81">
<path id="Vector_154" style="mix-blend-mode:overlay" opacity="0.2" d="M823.089 178.135C823.9 178.139 824.709 178.192 825.514 178.293L840.515 218.235C840.331 217.951 840.062 217.733 839.746 217.612C839.43 217.492 839.083 217.475 838.757 217.564L838.613 217.291L823.089 178.135Z" fill="url(#paint113_linear)"/>
</g>
<g id="Group_82">
<path id="Vector_155" style="mix-blend-mode:overlay" opacity="0.3" d="M814.455 179.522L813.846 176.767L684.726 29.7308C685.394 29.4382 686.092 29.2217 686.808 29.0854C687.89 28.9224 688.98 28.8177 690.073 28.7718L816.762 176.09L817.432 178.671L837.336 218.117C836.866 218.397 836.454 218.765 836.122 219.199V219.199L814.455 179.522Z" fill="url(#paint114_linear)"/>
</g>
<path id="Vector_156" d="M806.725 154.745L810.274 158.908C804.774 158.877 788.106 160.541 783.056 181.126L780.18 177.765C784.751 157.417 800.443 154.903 806.725 154.745Z" fill="black"/>
<path id="Vector_157" d="M726.424 60.599L806.744 154.725C800.457 154.888 784.79 157.416 780.199 177.745L698.921 82.9616C703.946 61.6258 721.822 60.5397 726.424 60.599Z" fill="url(#paint115_linear)"/>
<path id="Vector_158" d="M722.886 56.4957L726.404 60.6192C721.822 60.5397 703.946 61.6258 698.921 82.9616L696.006 79.5522C700.569 58.5866 717.283 56.5507 722.886 56.4957Z" fill="black"/>
<g id="Group_83" opacity="0.6">
<g id="Vector_159" style="mix-blend-mode:screen" opacity="0.6">
<path d="M821.347 175.833C818.071 175.619 814.792 176.211 811.798 177.557C808.803 178.903 806.184 180.963 804.17 183.556C804.17 183.556 810.463 175.66 821.347 175.833Z" fill="#E4E3E4"/>
</g>
<g id="Vector_160" style="mix-blend-mode:screen" opacity="0.6">
<path d="M819.935 178.283C819.935 178.283 811.145 178.814 806.387 185.142C806.387 185.142 809.093 180.427 819.935 178.283Z" fill="#E4E3E4"/>
</g>
</g>
<g id="Group_84">
<path id="Vector_161" style="mix-blend-mode:screen" opacity="0.5" d="M807.081 158.37C807.081 158.37 801.872 158.115 797.465 160.315C797.465 160.315 795.474 161.774 793.568 159.219C791.663 156.663 712.299 66.0904 712.299 66.0904C712.299 66.0904 708.621 63.334 710.858 60.8325C713.095 58.331 720.764 56.9095 722.932 58.7776C725.1 60.6457 806.348 156.146 806.348 156.146C806.348 156.146 808.666 158.343 807.081 158.37Z" fill="url(#paint116_linear)"/>
</g>
<path id="Vector_162" style="mix-blend-mode:multiply" d="M784.18 167.455C782.305 170.657 780.956 174.14 780.185 177.77L698.921 82.9616C699.782 79.0339 701.369 75.3014 703.599 71.9555L784.18 167.455Z" fill="url(#paint117_linear)"/>
</g>
<g id="redpencil">
<path id="Vector_163" d="M395.414 190.916C393.048 190.022 392.594 191.499 392.594 191.499C392.815 192.535 393.282 193.503 393.955 194.321C394.437 194.817 395.039 195.18 395.703 195.373C396.367 195.567 397.07 195.586 397.743 195.427C398.634 194.564 397.673 191.775 395.414 190.916Z" fill="url(#paint118_linear)"/>
<g id="Group_85" style="mix-blend-mode:multiply">
<g id="Group_86" style="mix-blend-mode:multiply">
<path id="Vector_164" style="mix-blend-mode:multiply" d="M393.949 194.334C394.431 194.83 395.033 195.192 395.697 195.386C396.361 195.58 397.063 195.598 397.736 195.44C398.417 194.779 398.01 192.998 396.768 191.813C396.602 192.467 396.246 193.055 395.744 193.505C395.241 193.954 394.616 194.243 393.949 194.334V194.334Z" fill="url(#paint119_linear)"/>
</g>
</g>
<g id="Vector_165" style="mix-blend-mode:screen" opacity="0.6">
<path d="M392.659 191.36C392.659 191.36 393.374 189.935 395.794 191.094C395.295 190.855 394.742 190.754 394.191 190.801C393.64 190.848 393.111 191.041 392.659 191.36Z" fill="#F8F8F7"/>
</g>
<path id="Vector_166" d="M512.873 9.82194C511.091 7.04092 508.993 4.52092 506.066 2.94681C504.216 1.95529 501.366 0.741787 499.219 0.745358C499.219 0.745358 490.219 0.813668 486.911 5.0032L400.079 152.039C400.079 152.039 410.943 147.227 419.665 155.579C427.264 162.857 427.032 167.61 427.032 167.61L514.703 19.7718C516.523 16.6977 514.501 12.4224 512.873 9.82194Z" fill="url(#paint120_linear)"/>
<path id="Vector_167" d="M419.629 155.524C410.907 147.171 400.043 151.984 400.043 151.984C399.813 152.24 399.657 152.555 399.593 152.894C399.529 153.233 399.56 153.583 399.682 153.906C400.121 154.976 425.651 168.876 425.651 168.876C426.17 168.514 426.625 168.068 426.996 167.555C426.996 167.555 427.209 162.792 419.629 155.524Z" fill="url(#paint121_radial)"/>
<path id="Vector_168" d="M419.919 165.731C423.253 167.573 425.651 168.876 425.651 168.876C426.171 168.514 426.625 168.068 426.997 167.555C426.997 167.555 427.145 164.376 423.048 159.243C421.545 161.152 420.477 163.366 419.919 165.731V165.731Z" fill="url(#paint122_linear)"/>
<path id="Vector_169" d="M417.236 156.678C409.656 150.544 399.685 153.9 399.682 153.906L392.6 191.486C392.6 191.486 393.054 190.009 395.42 190.903C397.68 191.763 398.64 194.552 397.749 195.415C397.987 195.364 398.216 195.279 398.43 195.163C399.617 194.508 420.172 174.27 425.657 168.864C425.263 167.22 423.558 161.79 417.236 156.678Z" fill="url(#paint123_linear)"/>
<g id="Group_87">
<path id="Vector_170" opacity="0.4" d="M402.258 151.263L491.274 2.10325C489.571 2.62833 488.043 3.60887 486.856 4.93895L400.025 151.975C400.738 151.688 401.471 151.452 402.217 151.267L402.258 151.263Z" fill="url(#paint124_linear)"/>
</g>
<g id="Group_88">
<path id="Vector_171" style="mix-blend-mode:multiply" opacity="0.8" d="M424.344 161.001C427.068 165.065 426.993 167.546 426.993 167.546L514.702 19.7718C516.523 16.6977 514.512 12.3971 512.847 9.81011L424.344 161.001Z" fill="url(#paint125_linear)"/>
</g>
<g id="Group_89">
<path id="Vector_172" style="mix-blend-mode:multiply" opacity="0.6" d="M424.348 161.01C424.202 163.296 423.036 163.034 423.036 163.034C424.229 164.827 425.113 166.807 425.651 168.892C426.171 168.53 426.625 168.083 426.997 167.57C426.997 167.57 427.082 165.118 424.348 161.01Z" fill="url(#paint126_linear)"/>
</g>
<g id="Group_90">
<path id="Vector_173" style="mix-blend-mode:multiply" d="M423.03 163.031L396.863 191.842C398.049 193.032 398.42 194.757 397.752 195.408C397.99 195.357 398.22 195.273 398.433 195.157C399.62 194.502 420.175 174.264 425.66 168.857C425.114 166.782 424.225 164.813 423.03 163.031V163.031Z" fill="url(#paint127_linear)"/>
</g>
<g id="Group_91">
<path id="Vector_174" opacity="0.4" d="M401.8 153.387C401.8 153.387 401.108 151.573 402.235 151.276C401.489 151.46 400.756 151.697 400.043 151.984C399.812 152.24 399.657 152.555 399.593 152.894C399.529 153.233 399.56 153.583 399.682 153.906C400.379 153.679 401.091 153.497 401.812 153.362L401.8 153.387Z" fill="url(#paint128_radial)"/>
</g>
<g id="Group_92">
<path id="Vector_175" opacity="0.4" d="M401.798 153.394C401.077 153.529 400.365 153.71 399.667 153.937L392.585 191.518C392.705 191.239 392.911 191.006 393.172 190.851C393.433 190.696 393.736 190.628 394.039 190.656L394.123 190.395L401.798 153.394Z" fill="url(#paint129_linear)"/>
</g>
<g id="Group_93">
<path id="Vector_176" style="mix-blend-mode:overlay" opacity="0.5" d="M409.637 153.282L409.749 150.757L501.103 0.973422C500.47 0.816856 499.821 0.732388 499.169 0.721641C498.188 0.746381 497.209 0.822972 496.236 0.951092L407.077 150.615L406.892 152.998L395.414 190.916C395.868 191.094 396.285 191.355 396.643 191.685V191.685L409.637 153.282Z" fill="url(#paint130_linear)"/>
</g>
<path id="Vector_177" d="M412.644 130.213L410.149 134.444C415.006 133.567 429.988 132.462 437.639 149.874L439.664 146.463C432.463 129.177 418.228 129.383 412.644 130.213Z" fill="black"/>
<path id="Vector_178" d="M469.06 34.6912L412.662 130.221C418.245 129.391 432.449 129.171 439.659 146.454L496.799 50.1832C489.043 32.1204 473.091 33.8968 469.06 34.6912Z" fill="url(#paint131_linear)"/>
<path id="Vector_179" d="M471.529 30.5009L469.061 34.6913C473.086 33.9095 489.048 32.1141 496.781 50.1743L498.826 46.7195C491.571 28.9068 476.479 29.7053 471.529 30.5009Z" fill="black"/>
<g id="Group_94" opacity="0.6">
<g id="Vector_180" style="mix-blend-mode:screen" opacity="0.6">
<path d="M402.988 151.088C405.851 150.394 408.841 150.412 411.696 151.142C414.55 151.872 417.182 153.291 419.361 155.274C417.087 153.451 414.45 152.135 411.627 151.413C408.803 150.691 405.858 150.581 402.988 151.088V151.088Z" fill="#F8F8F7"/>
</g>
<g id="Vector_181" style="mix-blend-mode:screen" opacity="0.6">
<path d="M404.608 153.03C404.608 153.03 412.457 152.143 417.635 156.996C417.632 157.002 414.519 153.257 404.608 153.03Z" fill="#F8F8F7"/>
</g>
</g>
<g id="Group_95">
<path id="Vector_182" style="mix-blend-mode:screen" opacity="0.5" d="M412.069 133.378C414.98 132.79 417.987 132.864 420.866 133.592C420.866 133.592 422.86 134.574 424.14 132.042C425.421 129.509 481.533 37.2556 481.533 37.2556C481.533 37.2556 484.355 34.2503 482.011 32.3865C479.667 30.5228 472.658 30.4602 471.026 32.4419C469.394 34.4236 412.376 131.307 412.376 131.307C412.376 131.307 410.686 133.578 412.069 133.378Z" fill="url(#paint132_linear)"/>
</g>
</g>
<defs>
<linearGradient id="paint0_linear" x1="942.643" y1="727.752" x2="941.05" y2="716.048" gradientUnits="userSpaceOnUse">
<stop stop-color="#EB5B1E"/>
<stop offset="0.36" stop-color="#F59D17"/>
<stop offset="0.68" stop-color="#FCC40D"/>
<stop offset="0.93" stop-color="#FBBB10"/>
</linearGradient>
<linearGradient id="paint1_linear" x1="943.29" y1="724.102" x2="941.052" y2="718.408" gradientUnits="userSpaceOnUse">
<stop offset="0.37" stop-color="#C55E4A"/>
<stop offset="0.9" stop-color="white"/>
</linearGradient>
<linearGradient id="paint2_linear" x1="1074.13" y1="660.398" x2="1058.98" y2="630.467" gradientUnits="userSpaceOnUse">
<stop stop-color="#EB5B1E"/>
<stop offset="0.36" stop-color="#F59D17"/>
<stop offset="0.93" stop-color="#FBBB10"/>
</linearGradient>
<linearGradient id="paint3_linear" x1="59204.6" y1="-42566" x2="59529.7" y2="-43099.1" gradientUnits="userSpaceOnUse">
<stop stop-color="#EB5B1E"/>
<stop offset="0.36" stop-color="#F59D17"/>
<stop offset="0.68" stop-color="#FCC40D"/>
<stop offset="0.93" stop-color="#FBBB10"/>
</linearGradient>
<linearGradient id="paint4_linear" x1="137124" y1="-52093.2" x2="136156" y2="-53564.5" gradientUnits="userSpaceOnUse">
<stop stop-color="#EB5B1E"/>
<stop offset="0.36" stop-color="#F59D17"/>
<stop offset="0.68" stop-color="#FCC40D"/>
<stop offset="0.93" stop-color="#FBBB10"/>
</linearGradient>
<linearGradient id="paint5_linear" x1="550936" y1="-79455.3" x2="551148" y2="-78591.4" gradientUnits="userSpaceOnUse">
<stop stop-color="#EBEBEB"/>
<stop offset="0.9" stop-color="#EBEBEB"/>
</linearGradient>
<linearGradient id="paint6_linear" x1="546001" y1="-145105" x2="544879" y2="-148023" gradientUnits="userSpaceOnUse">
<stop offset="0.37" stop-color="#C55E4A"/>
<stop offset="0.9" stop-color="white"/>
</linearGradient>
<linearGradient id="paint7_linear" x1="11120.7" y1="-10617.3" x2="11098" y2="-10814.4" gradientUnits="userSpaceOnUse">
<stop offset="0.37" stop-color="#C55E4A"/>
<stop offset="0.9" stop-color="white"/>
</linearGradient>
<linearGradient id="paint8_linear" x1="129098" y1="-21575.3" x2="129074" y2="-21759.2" gradientUnits="userSpaceOnUse">
<stop offset="0.37" stop-color="#C55E4A"/>
<stop offset="0.9" stop-color="white"/>
</linearGradient>
<radialGradient id="paint9_radial" cx="0" cy="0" r="1" gradientUnits="userSpaceOnUse" gradientTransform="translate(11860.6 40.2921) rotate(5.72998) scale(35.4482 21.1325)">
<stop offset="0.28" stop-color="#EBEBEB"/>
<stop offset="0.9" stop-color="#EBEBEB"/>
</radialGradient>
<linearGradient id="paint10_linear" x1="956.521" y1="701.689" x2="954.886" y2="700.275" gradientUnits="userSpaceOnUse">
<stop offset="0.1" stop-color="#EBEBEB"/>
<stop offset="0.91" stop-color="#EBEBEB"/>
</linearGradient>
<linearGradient id="paint11_linear" x1="663570" y1="-117836" x2="667213" y2="-107191" gradientUnits="userSpaceOnUse">
<stop stop-color="#EBEBEB"/>
<stop offset="0.9" stop-color="#EBEBEB"/>
</linearGradient>
<linearGradient id="paint12_linear" x1="1070.4" y1="669.945" x2="1047.02" y2="628.024" gradientUnits="userSpaceOnUse">
<stop stop-color="#B94B16"/>
<stop offset="0.45" stop-color="#F07E20"/>
<stop offset="0.8" stop-color="#FFE100"/>
<stop offset="0.93" stop-color="#FBBB10"/>
</linearGradient>
<linearGradient id="paint13_linear" x1="397760" y1="-61387" x2="398357" y2="-59134.7" gradientUnits="userSpaceOnUse">
<stop stop-color="#EBEBEB"/>
<stop offset="0.9" stop-color="#EBEBEB"/>
</linearGradient>
<linearGradient id="paint14_linear" x1="354713" y1="-65267.2" x2="354218" y2="-66760" gradientUnits="userSpaceOnUse">
<stop offset="0.03" stop-color="#FFDE54"/>
<stop offset="0.89" stop-color="white"/>
</linearGradient>
<linearGradient id="paint15_linear" x1="-13858.6" y1="2636.98" x2="-13843" y2="2615.6" gradientUnits="userSpaceOnUse">
<stop stop-color="#5C0000"/>
<stop offset="0.65" stop-color="#BD0000"/>
<stop offset="0.91" stop-color="#EF0000"/>
</linearGradient>
<linearGradient id="paint16_linear" x1="-10934.7" y1="4918.94" x2="-10957.8" y2="4793.12" gradientUnits="userSpaceOnUse">
<stop stop-color="#5C0000"/>
<stop offset="0.65" stop-color="#BD0000"/>
<stop offset="0.91" stop-color="#EF0000"/>
</linearGradient>
<linearGradient id="paint17_linear" x1="-575592" y1="379297" x2="-576768" y2="377248" gradientUnits="userSpaceOnUse">
<stop stop-color="#5C0000"/>
<stop offset="0.65" stop-color="#BD0000"/>
<stop offset="0.91" stop-color="#EF0000"/>
</linearGradient>
<radialGradient id="paint18_radial" cx="0" cy="0" r="1" gradientUnits="userSpaceOnUse" gradientTransform="translate(-55763.8 -10830.1) rotate(140.711) scale(172.669 511.684)">
<stop stop-color="#5C0000"/>
<stop offset="0.65" stop-color="#BD0000"/>
<stop offset="0.91" stop-color="#EF0000"/>
</radialGradient>
<linearGradient id="paint19_linear" x1="-25411.9" y1="9757.84" x2="-25464.5" y2="9800.93" gradientUnits="userSpaceOnUse">
<stop stop-color="#5C0000"/>
<stop offset="0.65" stop-color="#BD0000"/>
<stop offset="0.91" stop-color="#EF0000"/>
</linearGradient>
<linearGradient id="paint20_linear" x1="-147897" y1="68115.2" x2="-148127" y2="66674.4" gradientUnits="userSpaceOnUse">
<stop stop-color="#5C0000"/>
<stop offset="0.65" stop-color="#BD0000"/>
<stop offset="0.91" stop-color="#EF0000"/>
</linearGradient>
<linearGradient id="paint21_linear" x1="-520190" y1="390287" x2="-520091" y2="390427" gradientUnits="userSpaceOnUse">
<stop offset="0.1" stop-color="white"/>
<stop offset="0.72" stop-color="white"/>
</linearGradient>
<linearGradient id="paint22_linear" x1="-541056" y1="402734" x2="-541421" y2="402202" gradientUnits="userSpaceOnUse">
<stop stop-color="#5C0000"/>
<stop offset="0.65" stop-color="#BD0000"/>
<stop offset="0.91" stop-color="#EF0000"/>
</linearGradient>
<linearGradient id="paint23_linear" x1="-20618" y1="9711.73" x2="-20635.9" y2="9726.37" gradientUnits="userSpaceOnUse">
<stop stop-color="#5C0000"/>
<stop offset="0.65" stop-color="#BD0000"/>
<stop offset="0.91" stop-color="#EF0000"/>
</linearGradient>
<linearGradient id="paint24_linear" x1="-124548" y1="74574.8" x2="-124684" y2="74342.7" gradientUnits="userSpaceOnUse">
<stop stop-color="#5C0000"/>
<stop offset="0.65" stop-color="#BD0000"/>
<stop offset="0.91" stop-color="#EF0000"/>
</linearGradient>
<radialGradient id="paint25_radial" cx="0" cy="0" r="1" gradientUnits="userSpaceOnUse" gradientTransform="translate(-8770.88 6089.72) rotate(140.71) scale(27.0989 17.7329)">
<stop offset="0.28" stop-color="white"/>
<stop offset="0.9" stop-color="white"/>
</radialGradient>
<linearGradient id="paint26_linear" x1="-114370" y1="76796.3" x2="-114387" y2="76743.5" gradientUnits="userSpaceOnUse">
<stop offset="0.28" stop-color="white"/>
<stop offset="0.9" stop-color="white"/>
</linearGradient>
<linearGradient id="paint27_linear" x1="-641532" y1="484351" x2="-640460" y2="485891" gradientUnits="userSpaceOnUse">
<stop stop-color="white"/>
<stop offset="0.9" stop-color="white"/>
</linearGradient>
<linearGradient id="paint28_linear" x1="-382855" y1="233153" x2="-384342" y2="230016" gradientUnits="userSpaceOnUse">
<stop stop-color="#5C0000"/>
<stop offset="0.65" stop-color="#BD0000"/>
<stop offset="0.91" stop-color="#EF0000"/>
</linearGradient>
<linearGradient id="paint29_linear" x1="-370042" y1="258972" x2="-369659" y2="259590" gradientUnits="userSpaceOnUse">
<stop stop-color="white"/>
<stop offset="0.9" stop-color="white"/>
</linearGradient>
<linearGradient id="paint30_linear" x1="308.328" y1="696.434" x2="307.594" y2="712.061" gradientUnits="userSpaceOnUse">
<stop stop-color="#72AFA3"/>
<stop offset="0.18" stop-color="#7CB5A7"/>
<stop offset="0.38" stop-color="#009A82"/>
<stop offset="0.9" stop-color="#046857"/>
</linearGradient>
<linearGradient id="paint31_linear" x1="308.134" y1="720.647" x2="307.879" y2="695.077" gradientUnits="userSpaceOnUse">
<stop stop-color="#376727"/>
<stop offset="0.37" stop-color="#478531"/>
<stop offset="0.9" stop-color="#98C604"/>
</linearGradient>
<linearGradient id="paint32_linear" x1="164.662" y1="700.409" x2="167.241" y2="667.375" gradientUnits="userSpaceOnUse">
<stop stop-color="#065F47"/>
<stop offset="0.51" stop-color="#009A82"/>
<stop offset="1" stop-color="#44A589"/>
</linearGradient>
<linearGradient id="paint33_linear" x1="55061.8" y1="-97470.5" x2="55660" y2="-96140.4" gradientUnits="userSpaceOnUse">
<stop stop-color="#72AFA3"/>
<stop offset="0.18" stop-color="#7CB5A7"/>
<stop offset="0.38" stop-color="#009A82"/>
<stop offset="0.9" stop-color="#046857"/>
</linearGradient>
<radialGradient id="paint34_radial" cx="0" cy="0" r="1" gradientUnits="userSpaceOnUse" gradientTransform="translate(260.329 705.665) rotate(151.894) scale(38.8318)">
<stop stop-color="#376727"/>
<stop offset="0.9" stop-color="#98C604"/>
</radialGradient>
<linearGradient id="paint35_linear" x1="217317" y1="-92947" x2="218319" y2="-91657.3" gradientUnits="userSpaceOnUse">
<stop stop-color="#72AFA3"/>
<stop offset="0.18" stop-color="#7CB5A7"/>
<stop offset="0.38" stop-color="#009A82"/>
<stop offset="0.9" stop-color="#046857"/>
</linearGradient>
<linearGradient id="paint36_linear" x1="-828024" y1="378430" x2="-827940" y2="378619" gradientUnits="userSpaceOnUse">
<stop offset="0.1" stop-color="#EBEBEB"/>
<stop offset="0.72" stop-color="#EBEBEB"/>
</linearGradient>
<linearGradient id="paint37_linear" x1="164.228" y1="712.984" x2="166.048" y2="694.066" gradientUnits="userSpaceOnUse">
<stop offset="0.37" stop-color="#007839"/>
<stop offset="0.9" stop-color="#98C604"/>
</linearGradient>
<linearGradient id="paint38_linear" x1="28827.3" y1="-18033.2" x2="28783.5" y2="-18180.6" gradientUnits="userSpaceOnUse">
<stop stop-color="#376727"/>
<stop offset="0.37" stop-color="#478531"/>
<stop offset="0.9" stop-color="#98C604"/>
</linearGradient>
<linearGradient id="paint39_linear" x1="209879" y1="-29172" x2="209861" y2="-29371.3" gradientUnits="userSpaceOnUse">
<stop offset="0.37" stop-color="#007839"/>
<stop offset="0.9" stop-color="#98C604"/>
</linearGradient>
<radialGradient id="paint40_radial" cx="0" cy="0" r="1" gradientUnits="userSpaceOnUse" gradientTransform="translate(-15652.9 4062.9) rotate(151.894) scale(35.5568 22.0632)">
<stop offset="0.28" stop-color="#EBEBEB"/>
<stop offset="0.9" stop-color="#EBEBEB"/>
</radialGradient>
<linearGradient id="paint41_linear" x1="-182985" y1="40598.8" x2="-182974" y2="40498.7" gradientUnits="userSpaceOnUse">
<stop stop-color="#EBEBEB"/>
<stop offset="0.9" stop-color="#EBEBEB"/>
</linearGradient>
<linearGradient id="paint42_linear" x1="-1.03133e+06" y1="435113" x2="-1.03005e+06" y2="438382" gradientUnits="userSpaceOnUse">
<stop stop-color="#EBEBEB"/>
<stop offset="0.9" stop-color="#EBEBEB"/>
</linearGradient>
<linearGradient id="paint43_linear" x1="171.767" y1="706.729" x2="175.935" y2="671.669" gradientUnits="userSpaceOnUse">
<stop offset="0.12" stop-color="#06692B"/>
<stop offset="0.76" stop-color="#009A82"/>
</linearGradient>
<linearGradient id="paint44_linear" x1="-593008" y1="242453" x2="-592705" y2="243229" gradientUnits="userSpaceOnUse">
<stop stop-color="#EBEBEB"/>
<stop offset="0.9" stop-color="#EBEBEB"/>
</linearGradient>
<linearGradient id="paint45_linear" x1="171.787" y1="710.701" x2="173.443" y2="697.141" gradientUnits="userSpaceOnUse">
<stop offset="0.03" stop-color="#646364"/>
<stop offset="0.89" stop-color="#EBEBEB"/>
</linearGradient>
<linearGradient id="paint46_linear" x1="403.361" y1="611.668" x2="408.272" y2="612.619" gradientUnits="userSpaceOnUse">
<stop stop-color="#7F0078"/>
<stop offset="0.65" stop-color="#C30078"/>
<stop offset="0.91" stop-color="#D40078"/>
</linearGradient>
<linearGradient id="paint47_linear" x1="20149.5" y1="-4441.54" x2="20081.8" y2="-4584.77" gradientUnits="userSpaceOnUse">
<stop stop-color="#7F0078"/>
<stop offset="0.65" stop-color="#C30078"/>
<stop offset="0.91" stop-color="#D40078"/>
</linearGradient>
<linearGradient id="paint48_linear" x1="480381" y1="-259911" x2="474846" y2="-264670" gradientUnits="userSpaceOnUse">
<stop stop-color="#7F0078"/>
<stop offset="0.65" stop-color="#C30078"/>
<stop offset="0.91" stop-color="#D40078"/>
</linearGradient>
<radialGradient id="paint49_radial" cx="0" cy="0" r="1" gradientUnits="userSpaceOnUse" gradientTransform="translate(-102900 -92938.1) rotate(-146.47) scale(607.103 329.617)">
<stop stop-color="#7F0078"/>
<stop offset="0.65" stop-color="#C30078"/>
<stop offset="0.91" stop-color="#D40078"/>
</radialGradient>
<linearGradient id="paint50_linear" x1="35531.5" y1="-12318.9" x2="35613.9" y2="-12318.9" gradientUnits="userSpaceOnUse">
<stop stop-color="#7F0078"/>
<stop offset="0.65" stop-color="#C30078"/>
<stop offset="0.91" stop-color="#D40078"/>
</linearGradient>
<linearGradient id="paint51_linear" x1="143886" y1="-59105.4" x2="142365" y2="-60322.2" gradientUnits="userSpaceOnUse">
<stop stop-color="#7F0078"/>
<stop offset="0.65" stop-color="#C30078"/>
<stop offset="0.91" stop-color="#D40078"/>
</linearGradient>
<linearGradient id="paint52_linear" x1="-151393" y1="-392483" x2="-152390" y2="-392498" gradientUnits="userSpaceOnUse">
<stop offset="0.1" stop-color="white"/>
<stop offset="0.72" stop-color="white"/>
</linearGradient>
<linearGradient id="paint53_linear" x1="354683" y1="-247212" x2="351882" y2="-248907" gradientUnits="userSpaceOnUse">
<stop stop-color="#7F0078"/>
<stop offset="0.65" stop-color="#C30078"/>
<stop offset="0.91" stop-color="#D40078"/>
</linearGradient>
<linearGradient id="paint54_linear" x1="22373.2" y1="-10083.9" x2="22393.4" y2="-10083.9" gradientUnits="userSpaceOnUse">
<stop stop-color="#7F0078"/>
<stop offset="0.65" stop-color="#C30078"/>
<stop offset="0.91" stop-color="#D40078"/>
</linearGradient>
<linearGradient id="paint55_linear" x1="123014" y1="-48209.8" x2="122698" y2="-48792.5" gradientUnits="userSpaceOnUse">
<stop stop-color="#7F0078"/>
<stop offset="0.65" stop-color="#C30078"/>
<stop offset="0.91" stop-color="#D40078"/>
</linearGradient>
<radialGradient id="paint56_radial" cx="0" cy="0" r="1" gradientUnits="userSpaceOnUse" gradientTransform="translate(-5484.34 -6681.18) rotate(-146.47) scale(23.7609 29.1495)">
<stop offset="0.28" stop-color="white"/>
<stop offset="0.9" stop-color="white"/>
</radialGradient>
<linearGradient id="paint57_linear" x1="16101.6" y1="-52864.3" x2="16119.1" y2="-52854.5" gradientUnits="userSpaceOnUse">
<stop offset="0.28" stop-color="white"/>
<stop offset="0.9" stop-color="white"/>
</linearGradient>
<linearGradient id="paint58_linear" x1="-150907" y1="-468328" x2="-160856" y2="-469550" gradientUnits="userSpaceOnUse">
<stop stop-color="white"/>
<stop offset="0.9" stop-color="white"/>
</linearGradient>
<linearGradient id="paint59_linear" x1="362301" y1="-170175" x2="356081" y2="-175755" gradientUnits="userSpaceOnUse">
<stop stop-color="#7F0078"/>
<stop offset="0.65" stop-color="#C30078"/>
<stop offset="0.91" stop-color="#D40078"/>
</linearGradient>
<linearGradient id="paint60_linear" x1="-140972" y1="-293577" x2="-143638" y2="-293414" gradientUnits="userSpaceOnUse">
<stop stop-color="white"/>
<stop offset="0.9" stop-color="white"/>
</linearGradient>
<linearGradient id="paint61_linear" x1="8620.94" y1="-12677.1" x2="8591.19" y2="-12681.9" gradientUnits="userSpaceOnUse">
<stop offset="0.12" stop-color="#243866"/>
<stop offset="0.54" stop-color="#0075AE"/>
<stop offset="0.9" stop-color="#4042A2"/>
</linearGradient>
<linearGradient id="paint62_linear" x1="8011.17" y1="-7672.11" x2="7938.66" y2="-7776.19" gradientUnits="userSpaceOnUse">
<stop stop-color="#293F71"/>
<stop offset="0.37" stop-color="#335192"/>
<stop offset="0.9" stop-color="#00B3DC"/>
</linearGradient>
<linearGradient id="paint63_linear" x1="376075" y1="-407601" x2="372153" y2="-412342" gradientUnits="userSpaceOnUse">
<stop stop-color="#2B2C6C"/>
<stop offset="0.65" stop-color="#007CB7"/>
<stop offset="0.91" stop-color="#006AAE"/>
</linearGradient>
<radialGradient id="paint64_radial" cx="0" cy="0" r="1" gradientUnits="userSpaceOnUse" gradientTransform="translate(51764.7 -63507.9) rotate(-8.81999) scale(1135.58 1197.28)">
<stop stop-color="#0E113C"/>
<stop offset="0.9" stop-color="#4042A2"/>
</radialGradient>
<radialGradient id="paint65_radial" cx="0" cy="0" r="1" gradientUnits="userSpaceOnUse" gradientTransform="translate(12714.5 -23883.7) rotate(-8.82) scale(327.819 505.263)">
<stop stop-color="#4042A2"/>
<stop offset="0.9" stop-color="#0E113C"/>
</radialGradient>
<linearGradient id="paint66_linear" x1="89134.7" y1="-106348" x2="87833.8" y2="-107436" gradientUnits="userSpaceOnUse">
<stop stop-color="#2B2C6C"/>
<stop offset="0.65" stop-color="#007CB7"/>
<stop offset="0.91" stop-color="#006AAE"/>
</linearGradient>
<linearGradient id="paint67_linear" x1="325259" y1="-346843" x2="325855" y2="-346138" gradientUnits="userSpaceOnUse">
<stop offset="0.1" stop-color="white"/>
<stop offset="0.72" stop-color="white"/>
</linearGradient>
<linearGradient id="paint68_linear" x1="322775" y1="-363843" x2="320626" y2="-366141" gradientUnits="userSpaceOnUse">
<stop stop-color="#293F71"/>
<stop offset="0.37" stop-color="#335192"/>
<stop offset="0.9" stop-color="#00B3DC"/>
</linearGradient>
<linearGradient id="paint69_linear" x1="84120.2" y1="-67916" x2="83963.2" y2="-68272.1" gradientUnits="userSpaceOnUse">
<stop stop-color="#293F71"/>
<stop offset="0.37" stop-color="#335192"/>
<stop offset="0.9" stop-color="#00B3DC"/>
</linearGradient>
<radialGradient id="paint70_radial" cx="0" cy="0" r="1" gradientUnits="userSpaceOnUse" gradientTransform="translate(6571.41 -3196.93) rotate(-8.81996) scale(25.5441 15.319)">
<stop offset="0.28" stop-color="white"/>
<stop offset="0.9" stop-color="white"/>
</radialGradient>
<linearGradient id="paint71_linear" x1="39983.2" y1="-86807.5" x2="39910.9" y2="-86825" gradientUnits="userSpaceOnUse">
<stop offset="0.28" stop-color="white"/>
<stop offset="0.9" stop-color="white"/>
</linearGradient>
<linearGradient id="paint72_linear" x1="379483" y1="-448167" x2="387328" y2="-440688" gradientUnits="userSpaceOnUse">
<stop stop-color="white"/>
<stop offset="0.9" stop-color="white"/>
</linearGradient>
<linearGradient id="paint73_linear" x1="258978" y1="-284213" x2="254200" y2="-289459" gradientUnits="userSpaceOnUse">
<stop stop-color="#2B2C6C"/>
<stop offset="0.65" stop-color="#007CB7"/>
<stop offset="0.91" stop-color="#006AAE"/>
</linearGradient>
<linearGradient id="paint74_linear" x1="241729" y1="-247797" x2="243203" y2="-246008" gradientUnits="userSpaceOnUse">
<stop stop-color="white"/>
<stop offset="0.9" stop-color="white"/>
</linearGradient>
<linearGradient id="paint75_linear" x1="883.472" y1="450.039" x2="878.568" y2="449.19" gradientUnits="userSpaceOnUse">
<stop offset="0.01" stop-color="#008800"/>
<stop offset="0.51" stop-color="#00B200"/>
<stop offset="1" stop-color="#00C900"/>
</linearGradient>
<linearGradient id="paint76_linear" x1="477247" y1="-383347" x2="472997" y2="-389810" gradientUnits="userSpaceOnUse">
<stop offset="0.01" stop-color="#008800"/>
<stop offset="0.51" stop-color="#00B200"/>
<stop offset="1" stop-color="#00C900"/>
</linearGradient>
<linearGradient id="paint77_linear" x1="76529.1" y1="-56489.7" x2="76581.8" y2="-57028.4" gradientUnits="userSpaceOnUse">
<stop offset="0.01" stop-color="#008800"/>
<stop offset="0.51" stop-color="#00B200"/>
<stop offset="1" stop-color="#00C900"/>
</linearGradient>
<linearGradient id="paint78_linear" x1="119309" y1="-99852.2" x2="118129" y2="-101263" gradientUnits="userSpaceOnUse">
<stop offset="0.01" stop-color="#008800"/>
<stop offset="0.51" stop-color="#00B200"/>
<stop offset="1" stop-color="#00C900"/>
</linearGradient>
<linearGradient id="paint79_linear" x1="321524" y1="-411131" x2="322387" y2="-410344" gradientUnits="userSpaceOnUse">
<stop offset="0.1" stop-color="#EBEBEB"/>
<stop offset="0.72" stop-color="#EBEBEB"/>
</linearGradient>
<linearGradient id="paint80_linear" x1="319073" y1="-426920" x2="316083" y2="-429508" gradientUnits="userSpaceOnUse">
<stop offset="0.37" stop-color="#D0B861"/>
<stop offset="0.9" stop-color="white"/>
</linearGradient>
<linearGradient id="paint81_linear" x1="5278.17" y1="-18964.1" x2="5242.95" y2="-19060.9" gradientUnits="userSpaceOnUse">
<stop offset="0.37" stop-color="#D0B861"/>
<stop offset="0.9" stop-color="white"/>
</linearGradient>
<linearGradient id="paint82_linear" x1="88949.8" y1="-83669.9" x2="88693.8" y2="-84120.9" gradientUnits="userSpaceOnUse">
<stop offset="0.37" stop-color="#D0B861"/>
<stop offset="0.9" stop-color="white"/>
</linearGradient>
<radialGradient id="paint83_radial" cx="0" cy="0" r="1" gradientUnits="userSpaceOnUse" gradientTransform="translate(8807.65 -4561.71) rotate(-12.7099) scale(30.293 19.5073)">
<stop offset="0.28" stop-color="#EBEBEB"/>
<stop offset="0.9" stop-color="#EBEBEB"/>
</radialGradient>
<linearGradient id="paint84_linear" x1="34680.1" y1="-96060.2" x2="34598.6" y2="-96069.7" gradientUnits="userSpaceOnUse">
<stop stop-color="#EBEBEB"/>
<stop offset="0.9" stop-color="#EBEBEB"/>
</linearGradient>
<linearGradient id="paint85_linear" x1="369288" y1="-524071" x2="380149" y2="-516175" gradientUnits="userSpaceOnUse">
<stop stop-color="#EBEBEB"/>
<stop offset="0.9" stop-color="#EBEBEB"/>
</linearGradient>
<linearGradient id="paint86_linear" x1="243694" y1="-292541" x2="245811" y2="-290521" gradientUnits="userSpaceOnUse">
<stop stop-color="#EBEBEB"/>
<stop offset="0.9" stop-color="#EBEBEB"/>
</linearGradient>
<linearGradient id="paint87_linear" x1="209151" y1="-287020" x2="207666" y2="-288213" gradientUnits="userSpaceOnUse">
<stop offset="0.03" stop-color="#FFDE54"/>
<stop offset="0.89" stop-color="white"/>
</linearGradient>
<linearGradient id="paint88_linear" x1="203.786" y1="263.927" x2="208.132" y2="262.117" gradientUnits="userSpaceOnUse">
<stop offset="0.01" stop-color="#F6E700"/>
<stop offset="0.77" stop-color="#E8C926"/>
</linearGradient>
<linearGradient id="paint89_linear" x1="87.4566" y1="195.855" x2="104.358" y2="169.396" gradientUnits="userSpaceOnUse">
<stop offset="0.01" stop-color="#F6D600"/>
<stop offset="0.52" stop-color="#EBEA8F"/>
<stop offset="0.82" stop-color="#F6F7E0"/>
<stop offset="0.99" stop-color="#FFF59B"/>
</linearGradient>
<linearGradient id="paint90_linear" x1="173.024" y1="237.147" x2="171.55" y2="222.942" gradientUnits="userSpaceOnUse">
<stop offset="0.01" stop-color="#F2D71A"/>
<stop offset="0.8" stop-color="#EBEA8F"/>
</linearGradient>
<linearGradient id="paint91_linear" x1="180.004" y1="260.133" x2="197.142" y2="238.069" gradientUnits="userSpaceOnUse">
<stop stop-color="#F6D800"/>
<stop offset="0.52" stop-color="#FFF48F"/>
<stop offset="0.99" stop-color="#E7F0D6"/>
</linearGradient>
<linearGradient id="paint92_linear" x1="106.482" y1="173.19" x2="103.366" y2="177.773" gradientUnits="userSpaceOnUse">
<stop offset="0.1" stop-color="#EBEBEB"/>
<stop offset="0.72" stop-color="#EBEBEB"/>
</linearGradient>
<linearGradient id="paint93_linear" x1="81.4761" y1="206.167" x2="91.4392" y2="191.174" gradientUnits="userSpaceOnUse">
<stop offset="0.37" stop-color="#D0B861"/>
<stop offset="0.9" stop-color="white"/>
</linearGradient>
<linearGradient id="paint94_linear" x1="8232.63" y1="-22470.4" x2="8219.52" y2="-22557.8" gradientUnits="userSpaceOnUse">
<stop offset="0.37" stop-color="#D0B861"/>
<stop offset="0.9" stop-color="white"/>
</linearGradient>
<linearGradient id="paint95_linear" x1="120931" y1="-53961.9" x2="120867" y2="-54292.5" gradientUnits="userSpaceOnUse">
<stop offset="0.37" stop-color="#D0B861"/>
<stop offset="0.9" stop-color="white"/>
</linearGradient>
<radialGradient id="paint96_radial" cx="0" cy="0" r="1" gradientUnits="userSpaceOnUse" gradientTransform="translate(179.892 230.53) rotate(180) scale(5.79905)">
<stop offset="0.28" stop-color="#EBEBEB"/>
<stop offset="0.9" stop-color="#EBEBEB"/>
</radialGradient>
<linearGradient id="paint97_linear" x1="193.124" y1="245.251" x2="195.094" y2="243.868" gradientUnits="userSpaceOnUse">
<stop stop-color="#EBEBEB"/>
<stop offset="0.9" stop-color="#EBEBEB"/>
</linearGradient>
<linearGradient id="paint98_linear" x1="594117" y1="-397934" x2="599520" y2="-388418" gradientUnits="userSpaceOnUse">
<stop stop-color="#EBEBEB"/>
<stop offset="0.9" stop-color="#EBEBEB"/>
</linearGradient>
<linearGradient id="paint99_linear" x1="90.5732" y1="204.309" x2="120.036" y2="162.046" gradientUnits="userSpaceOnUse">
<stop offset="0.01" stop-color="#E0C600"/>
<stop offset="0.51" stop-color="#FFF591"/>
<stop offset="1" stop-color="#EDE65C"/>
</linearGradient>
<linearGradient id="paint100_linear" x1="361927" y1="-217987" x2="362870" y2="-215910" gradientUnits="userSpaceOnUse">
<stop stop-color="#EBEBEB"/>
<stop offset="0.9" stop-color="#EBEBEB"/>
</linearGradient>
<linearGradient id="paint101_linear" x1="91.0276" y1="204.49" x2="98.4615" y2="193.898" gradientUnits="userSpaceOnUse">
<stop offset="0.03" stop-color="#FFDE54"/>
<stop offset="0.89" stop-color="white"/>
</linearGradient>
<linearGradient id="paint102_linear" x1="849.586" y1="221.373" x2="838.235" y2="232.138" gradientUnits="userSpaceOnUse">
<stop stop-color="#72AFA3"/>
<stop offset="0.18" stop-color="#7CB5A7"/>
<stop offset="0.38" stop-color="#009A82"/>
<stop offset="0.9" stop-color="#046857"/>
</linearGradient>
<linearGradient id="paint103_linear" x1="832.679" y1="238.705" x2="850.203" y2="220.083" gradientUnits="userSpaceOnUse">
<stop stop-color="#376727"/>
<stop offset="0.37" stop-color="#478531"/>
<stop offset="0.9" stop-color="#98C604"/>
</linearGradient>
<linearGradient id="paint104_linear" x1="743.196" y1="124.747" x2="767.933" y2="102.704" gradientUnits="userSpaceOnUse">
<stop stop-color="#065F47"/>
<stop offset="0.51" stop-color="#009A82"/>
<stop offset="1" stop-color="#44A589"/>
</linearGradient>
<linearGradient id="paint105_linear" x1="108332" y1="-32675.8" x2="107842" y2="-31301.9" gradientUnits="userSpaceOnUse">
<stop stop-color="#72AFA3"/>
<stop offset="0.18" stop-color="#7CB5A7"/>
<stop offset="0.38" stop-color="#009A82"/>
<stop offset="0.9" stop-color="#046857"/>
</linearGradient>
<radialGradient id="paint106_radial" cx="0" cy="0" r="1" gradientUnits="userSpaceOnUse" gradientTransform="translate(808.569 194.791) rotate(-164.275) scale(38.8318)">
<stop stop-color="#376727"/>
<stop offset="0.9" stop-color="#98C604"/>
</radialGradient>
<linearGradient id="paint107_linear" x1="222247" y1="82955.3" x2="222077" y2="84579.7" gradientUnits="userSpaceOnUse">
<stop stop-color="#72AFA3"/>
<stop offset="0.18" stop-color="#7CB5A7"/>
<stop offset="0.38" stop-color="#009A82"/>
<stop offset="0.9" stop-color="#046857"/>
</linearGradient>
<linearGradient id="paint108_linear" x1="-858289" y1="-300938" x2="-858359" y2="-300744" gradientUnits="userSpaceOnUse">
<stop offset="0.1" stop-color="#EBEBEB"/>
<stop offset="0.72" stop-color="#EBEBEB"/>
</linearGradient>
<linearGradient id="paint109_linear" x1="734.174" y1="133.517" x2="748.588" y2="121.131" gradientUnits="userSpaceOnUse">
<stop offset="0.37" stop-color="#007839"/>
<stop offset="0.9" stop-color="#98C604"/>
</linearGradient>
<linearGradient id="paint110_linear" x1="34393.6" y1="6460.58" x2="34464.1" y2="6323.97" gradientUnits="userSpaceOnUse">
<stop stop-color="#376727"/>
<stop offset="0.37" stop-color="#478531"/>
<stop offset="0.9" stop-color="#98C604"/>
</linearGradient>
<linearGradient id="paint111_linear" x1="172715" y1="123810" x2="172840" y2="123654" gradientUnits="userSpaceOnUse">
<stop offset="0.37" stop-color="#007839"/>
<stop offset="0.9" stop-color="#98C604"/>
</linearGradient>
<radialGradient id="paint112_radial" cx="0" cy="0" r="1" gradientUnits="userSpaceOnUse" gradientTransform="translate(-12996 -8403.88) rotate(-164.275) scale(35.5568 22.0632)">
<stop offset="0.28" stop-color="#EBEBEB"/>
<stop offset="0.9" stop-color="#EBEBEB"/>
</radialGradient>
<linearGradient id="paint113_linear" x1="-159009" y1="-97930.8" x2="-158932" y2="-97995.8" gradientUnits="userSpaceOnUse">
<stop stop-color="#EBEBEB"/>
<stop offset="0.9" stop-color="#EBEBEB"/>
</linearGradient>
<linearGradient id="paint114_linear" x1="-1.0442e+06" y1="-400845" x2="-1.04554e+06" y2="-397600" gradientUnits="userSpaceOnUse">
<stop stop-color="#EBEBEB"/>
<stop offset="0.9" stop-color="#EBEBEB"/>
</linearGradient>
<linearGradient id="paint115_linear" x1="743.946" y1="134.226" x2="771.232" y2="111.821" gradientUnits="userSpaceOnUse">
<stop offset="0.12" stop-color="#06692B"/>
<stop offset="0.76" stop-color="#009A82"/>
</linearGradient>
<linearGradient id="paint116_linear" x1="-594584" y1="-236273" x2="-594903" y2="-235504" gradientUnits="userSpaceOnUse">
<stop stop-color="#EBEBEB"/>
<stop offset="0.9" stop-color="#EBEBEB"/>
</linearGradient>
<linearGradient id="paint117_linear" x1="741.209" y1="137.105" x2="751.794" y2="128.471" gradientUnits="userSpaceOnUse">
<stop offset="0.03" stop-color="#646364"/>
<stop offset="0.89" stop-color="#EBEBEB"/>
</linearGradient>
<linearGradient id="paint118_linear" x1="8476.84" y1="-12252.5" x2="8450.84" y2="-12247.4" gradientUnits="userSpaceOnUse">
<stop stop-color="#5C0000"/>
<stop offset="0.65" stop-color="#BD0000"/>
<stop offset="0.91" stop-color="#EF0000"/>
</linearGradient>
<linearGradient id="paint119_linear" x1="9300.76" y1="-8636.16" x2="9196.65" y2="-8710.49" gradientUnits="userSpaceOnUse">
<stop stop-color="#5C0000"/>
<stop offset="0.65" stop-color="#BD0000"/>
<stop offset="0.91" stop-color="#EF0000"/>
</linearGradient>
<linearGradient id="paint120_linear" x1="588072" y1="-360802" x2="586716" y2="-362737" gradientUnits="userSpaceOnUse">
<stop stop-color="#5C0000"/>
<stop offset="0.65" stop-color="#BD0000"/>
<stop offset="0.91" stop-color="#EF0000"/>
</linearGradient>
<radialGradient id="paint121_radial" cx="0" cy="0" r="1" gradientUnits="userSpaceOnUse" gradientTransform="translate(14084.8 -55909.7) rotate(-25.575) scale(172.669 511.684)">
<stop stop-color="#5C0000"/>
<stop offset="0.65" stop-color="#BD0000"/>
<stop offset="0.91" stop-color="#EF0000"/>
</radialGradient>
<linearGradient id="paint122_linear" x1="19830.8" y1="-19687" x2="19892.1" y2="-19716.4" gradientUnits="userSpaceOnUse">
<stop stop-color="#5C0000"/>
<stop offset="0.65" stop-color="#BD0000"/>
<stop offset="0.91" stop-color="#EF0000"/>
</linearGradient>
<linearGradient id="paint123_linear" x1="124689" y1="-105786" x2="123482" y2="-106605" gradientUnits="userSpaceOnUse">
<stop stop-color="#5C0000"/>
<stop offset="0.65" stop-color="#BD0000"/>
<stop offset="0.91" stop-color="#EF0000"/>
</linearGradient>
<linearGradient id="paint124_linear" x1="574488" y1="-305978" x2="574574" y2="-305829" gradientUnits="userSpaceOnUse">
<stop offset="0.1" stop-color="white"/>
<stop offset="0.72" stop-color="white"/>
</linearGradient>
<linearGradient id="paint125_linear" x1="594620" y1="-319581" x2="594294" y2="-320137" gradientUnits="userSpaceOnUse">
<stop stop-color="#5C0000"/>
<stop offset="0.65" stop-color="#BD0000"/>
<stop offset="0.91" stop-color="#EF0000"/>
</linearGradient>
<linearGradient id="paint126_linear" x1="17752.8" y1="-15366.7" x2="17773.6" y2="-15376.7" gradientUnits="userSpaceOnUse">
<stop stop-color="#5C0000"/>
<stop offset="0.65" stop-color="#BD0000"/>
<stop offset="0.91" stop-color="#EF0000"/>
</linearGradient>
<linearGradient id="paint127_linear" x1="120619" y1="-81904" x2="120467" y2="-82125.5" gradientUnits="userSpaceOnUse">
<stop stop-color="#5C0000"/>
<stop offset="0.65" stop-color="#BD0000"/>
<stop offset="0.91" stop-color="#EF0000"/>
</linearGradient>
<radialGradient id="paint128_radial" cx="0" cy="0" r="1" gradientUnits="userSpaceOnUse" gradientTransform="translate(9441.55 -6179.91) rotate(-25.5748) scale(27.0989 17.7329)">
<stop offset="0.28" stop-color="white"/>
<stop offset="0.9" stop-color="white"/>
</radialGradient>
<linearGradient id="paint129_linear" x1="118307" y1="-71745.9" x2="118267" y2="-71783.8" gradientUnits="userSpaceOnUse">
<stop offset="0.28" stop-color="white"/>
<stop offset="0.9" stop-color="white"/>
</linearGradient>
<linearGradient id="paint130_linear" x1="711187" y1="-375875" x2="712125" y2="-374250" gradientUnits="userSpaceOnUse">
<stop stop-color="white"/>
<stop offset="0.9" stop-color="white"/>
</linearGradient>
<linearGradient id="paint131_linear" x1="373900" y1="-248392" x2="371692" y2="-251071" gradientUnits="userSpaceOnUse">
<stop stop-color="#5C0000"/>
<stop offset="0.65" stop-color="#BD0000"/>
<stop offset="0.91" stop-color="#EF0000"/>
</linearGradient>
<linearGradient id="paint132_linear" x1="391832" y1="-225826" x2="392228" y2="-225217" gradientUnits="userSpaceOnUse">
<stop stop-color="white"/>
<stop offset="0.9" stop-color="white"/>
</linearGradient>
</defs>
</svg>
