<svg width="834" height="1194" viewBox="0 0 834 1194" fill="none" xmlns="http://www.w3.org/2000/svg">
<g id="iPad Pro 11&#34; - 1">
<g id="orangepencil">
<path id="Vector" d="M571.471 1134.81C569.724 1132.56 568.425 1133.72 568.425 1133.72C568.031 1134.84 567.909 1136.03 568.068 1137.21C568.245 1137.97 568.615 1138.67 569.141 1139.25C569.667 1139.82 570.332 1140.25 571.073 1140.5C572.414 1140.19 573.12 1136.94 571.471 1134.81Z" fill="url(#paint0_linear)"/>
<g id="Group" style="mix-blend-mode:multiply" opacity="0.8">
<g id="Group 2" style="mix-blend-mode:multiply" opacity="0.8">
<path id="Vector 2" style="mix-blend-mode:multiply" opacity="0.8" d="M568.047 1137.22C568.224 1137.98 568.594 1138.68 569.12 1139.25C569.646 1139.83 570.311 1140.26 571.052 1140.51C572.093 1140.27 572.742 1138.31 572.246 1136.43C571.703 1136.97 571.014 1137.33 570.266 1137.46C569.518 1137.6 568.746 1137.52 568.047 1137.22Z" fill="url(#paint1_linear)"/>
</g>
</g>
<path id="Vector 3" d="M790.719 1029.41C790.629 1025.68 790.089 1022.03 788.179 1018.77C786.979 1016.71 784.959 1013.88 782.879 1012.63C782.879 1012.63 774.189 1007.42 768.579 1009.49L598.719 1100.05C598.719 1100.05 611.994 1101.79 615.487 1114.94C618.527 1126.4 615.487 1130.84 615.487 1130.84L786.659 1040.08C790.209 1038.19 790.789 1032.87 790.719 1029.41Z" fill="url(#paint2_linear)"/>
<path id="Vector 4" d="M615.522 1114.94C612.029 1101.79 598.754 1100.05 598.754 1100.05C598.381 1100.16 598.045 1100.37 597.785 1100.65C597.525 1100.94 597.35 1101.3 597.28 1101.68C597.077 1102.97 613.482 1131.33 613.482 1131.33C614.203 1131.28 614.912 1131.12 615.578 1130.84C615.578 1130.84 618.561 1126.42 615.522 1114.94Z" fill="url(#paint3_linear)"/>
<path id="Vector 5" d="M612.539 1114.64C608.843 1104.3 597.28 1101.68 597.273 1101.68L568.404 1133.7C568.404 1133.7 569.703 1132.54 571.45 1134.79C573.197 1137.04 572.414 1140.19 571.052 1140.51C571.31 1140.59 571.578 1140.64 571.848 1140.65C573.378 1140.72 605.028 1133.31 613.475 1131.33C614.09 1129.5 615.627 1123.28 612.539 1114.64Z" fill="url(#paint4_linear)"/>
<g id="Group 3">
<path id="Vector 6" style="mix-blend-mode:overlay" opacity="0.5" d="M601.304 1100.65L774.479 1009.33C772.539 1008.84 770.499 1008.9 768.579 1009.49L598.719 1100.05C599.573 1100.19 600.416 1100.39 601.241 1100.65H601.304Z" fill="url(#paint5_linear)"/>
</g>
<g id="Group 4">
<path id="Vector 7" style="mix-blend-mode:multiply" opacity="0.8" d="M616.843 1122.98C617.094 1128.52 615.55 1130.83 615.55 1130.83L786.659 1040.08C790.219 1038.19 790.799 1032.87 790.719 1029.41L616.843 1122.98Z" fill="url(#paint6_linear)"/>
</g>
<g id="Group 5">
<path id="Vector 8" style="mix-blend-mode:multiply" opacity="0.8" d="M616.843 1122.98C615.361 1125.08 614.39 1124.16 614.39 1124.16C614.49 1126.59 614.18 1129.01 613.475 1131.33C614.197 1131.28 614.905 1131.12 615.571 1130.84C615.571 1130.84 617.094 1128.52 616.843 1122.98Z" fill="url(#paint7_linear)"/>
</g>
<g id="Group 6">
<path id="Vector 9" style="mix-blend-mode:multiply" opacity="0.8" d="M614.39 1124.16L572.288 1136.55C572.728 1138.38 572.071 1140.27 571.051 1140.51C571.309 1140.59 571.577 1140.64 571.848 1140.65C573.378 1140.72 605.028 1133.31 613.475 1131.33C614.18 1129.01 614.489 1126.59 614.39 1124.16Z" fill="url(#paint8_linear)"/>
</g>
<g id="Group 7">
<path id="Vector 10" opacity="0.4" d="M599.613 1102.43C599.613 1102.43 600.005 1100.26 601.269 1100.65C600.444 1100.39 599.601 1100.19 598.747 1100.05C598.374 1100.16 598.038 1100.37 597.778 1100.65C597.518 1100.94 597.343 1101.3 597.273 1101.68C598.068 1101.88 598.85 1102.13 599.613 1102.43Z" fill="url(#paint9_radial)"/>
</g>
<g id="Group 8">
<path id="Vector 11" style="mix-blend-mode:overlay" opacity="0.5" d="M599.614 1102.43C598.852 1102.13 598.073 1101.88 597.28 1101.68L568.404 1133.7C568.679 1133.5 569.012 1133.39 569.354 1133.39C569.696 1133.39 570.029 1133.5 570.304 1133.7L570.542 1133.5L599.614 1102.43Z" fill="url(#paint10_linear)"/>
</g>
<g id="Group 9">
<path id="Vector 12" style="mix-blend-mode:overlay" opacity="0.5" d="M607.222 1106.92L608.814 1104.56L784.569 1014.01C784.049 1013.48 783.479 1013.01 782.859 1012.61C781.899 1012.06 780.909 1011.57 779.899 1011.12L606.32 1102.85L604.741 1105.04L571.47 1134.81C571.806 1135.24 572.057 1135.74 572.211 1136.27L607.222 1106.92Z" fill="url(#paint11_linear)"/>
</g>
<path id="Vector 13" d="M623.648 1086.48L618.757 1089.08C623.942 1091.09 639.019 1098.82 636.139 1120.04L640.099 1117.95C643.329 1097.12 629.499 1088.97 623.648 1086.48Z" fill="black"/>
<path id="Vector 14" d="M733.979 1027.66L623.648 1086.48C629.499 1088.97 643.329 1097.12 640.109 1117.93L751.569 1058.8C754.729 1036.91 738.319 1029.31 733.979 1027.66Z" fill="url(#paint12_linear)"/>
<path id="Vector 15" d="M738.819 1025.11L733.979 1027.69C738.319 1029.31 754.729 1036.94 751.569 1058.86L755.569 1056.76C759.039 1035.29 744.039 1027.21 738.819 1025.11Z" fill="black"/>
<g id="Group 10" opacity="0.6">
<g id="Vector 16" style="mix-blend-mode:screen" opacity="0.6">
<g id="Vector_2" style="mix-blend-mode:screen" opacity="0.6">
<path d="M602.108 1100.91C605.267 1101.92 608.129 1103.69 610.444 1106.07C612.758 1108.45 614.454 1111.35 615.383 1114.54C615.383 1114.54 612.406 1104.76 602.108 1100.91Z" fill="#E4E3E4"/>
</g>
</g>
<g id="Vector 17" style="mix-blend-mode:screen" opacity="0.6">
<g id="Vector_3" style="mix-blend-mode:screen" opacity="0.6">
<path d="M602.527 1103.73C602.527 1103.73 610.597 1107.48 612.728 1115.2C612.728 1115.2 611.924 1109.76 602.527 1103.73Z" fill="#E4E3E4"/>
</g>
</g>
</g>
<g id="Group 11">
<path id="Vector 18" style="mix-blend-mode:screen" opacity="0.5" d="M621.971 1089.75C621.971 1089.75 626.967 1091.43 630.309 1095.12C630.309 1095.12 631.659 1097.22 634.389 1095.53C637.119 1093.85 745.229 1037.99 745.229 1037.99C745.229 1037.99 749.719 1036.76 748.539 1033.59C747.369 1030.42 740.679 1026.24 737.949 1027.2C735.209 1028.15 623.501 1087.93 623.501 1087.93C623.501 1087.93 620.497 1089.15 621.971 1089.75Z" fill="url(#paint13_linear)"/>
</g>
<path id="Vector 19" style="mix-blend-mode:multiply" d="M640.169 1106.77C640.739 1110.47 640.729 1114.25 640.109 1117.95L751.569 1058.82C752.209 1054.81 752.099 1050.71 751.229 1046.74L640.169 1106.77Z" fill="url(#paint14_linear)"/>
<g id="Vector 20" style="mix-blend-mode:screen" opacity="0.7">
<g id="Vector_4" style="mix-blend-mode:screen" opacity="0.7">
<path d="M568.543 1133.6C568.543 1133.6 570.067 1132.65 571.722 1135.19C571.722 1135.19 570.528 1133.32 568.543 1133.6Z" fill="#E4E3E4"/>
</g>
</g>
</g>
<g id="redpencil2">
<path id="Vector 21" d="M744.206 757.427C744.401 754.904 745.931 755.121 745.931 755.121C746.775 755.762 747.453 756.596 747.908 757.552C748.152 758.199 748.225 758.899 748.118 759.582C748.012 760.265 747.73 760.909 747.301 761.451C746.141 761.891 744.024 759.837 744.206 757.427Z" fill="url(#paint15_linear)"/>
<g id="Group 12" style="mix-blend-mode:multiply">
<g id="Group 13" style="mix-blend-mode:multiply">
<path id="Vector 22" style="mix-blend-mode:multiply" d="M747.923 757.552C748.167 758.199 748.239 758.899 748.133 759.582C748.026 760.265 747.744 760.909 747.315 761.451C746.428 761.786 744.989 760.662 744.444 759.034C745.105 759.161 745.79 759.089 746.41 758.825C747.03 758.561 747.557 758.118 747.923 757.552Z" fill="url(#paint16_linear)"/>
</g>
</g>
<g id="Vector 23" style="mix-blend-mode:screen" opacity="0.6">
<g id="Vector_5" style="mix-blend-mode:screen" opacity="0.6">
<path d="M745.778 755.121C745.778 755.121 744.185 755.163 744.205 757.846C744.202 757.293 744.345 756.749 744.621 756.27C744.898 755.791 745.297 755.394 745.778 755.121Z" fill="#F8F8F7"/>
</g>
</g>
<path id="Vector 24" d="M530.369 786.841C528.608 784.046 527.217 781.077 527.036 777.758C526.924 775.662 527.036 772.567 527.951 770.625C527.951 770.625 531.836 762.506 537.034 761.29L707.029 745.137C707.029 745.137 698.058 752.927 701.915 764.371C705.275 774.342 709.677 776.151 709.677 776.151L538.599 792.724C535.043 793.066 532.031 789.419 530.369 786.841Z" fill="url(#paint17_linear)"/>
<path id="Vector 25" d="M701.879 764.316C698.023 752.871 706.994 745.081 706.994 745.081C707.324 744.981 707.675 744.974 708.009 745.06C708.343 745.146 708.647 745.323 708.887 745.57C709.67 746.422 711.409 775.438 711.409 775.438C710.861 775.755 710.264 775.977 709.642 776.095C709.642 776.095 705.24 774.265 701.879 764.316Z" fill="url(#paint18_radial)"/>
<path id="Vector 26" d="M710.998 768.913C711.249 772.714 711.41 775.438 711.41 775.438C710.862 775.755 710.264 775.977 709.642 776.095C709.642 776.095 706.701 774.88 703.794 768.99C706.161 768.44 708.619 768.414 710.998 768.913Z" fill="url(#paint19_linear)"/>
<path id="Vector 27" d="M703.941 762.639C701.608 753.172 708.881 745.57 708.888 745.57L745.918 755.121C745.918 755.121 744.388 754.904 744.192 757.427C744.01 759.837 746.127 761.891 747.287 761.451C747.14 761.645 746.966 761.817 746.77 761.961C745.673 762.758 718.62 772.77 711.396 775.439C710.076 774.384 705.884 770.534 703.941 762.639Z" fill="url(#paint20_linear)"/>
<g id="Group 14">
<path id="Vector 28" opacity="0.4" d="M705.401 746.779L532.555 764.008C533.754 762.689 535.29 761.723 536.998 761.213L706.994 745.06C706.431 745.584 705.906 746.146 705.422 746.744L705.401 746.779Z" fill="url(#paint21_linear)"/>
</g>
<g id="Group 15">
<path id="Vector 29" style="mix-blend-mode:multiply" opacity="0.8" d="M704.835 770.911C707.357 775.103 709.635 776.088 709.635 776.088L538.599 792.724C535.043 793.066 532.003 789.419 530.368 786.813L704.835 770.911Z" fill="url(#paint22_linear)"/>
</g>
<g id="Group 16">
<path id="Vector 30" style="mix-blend-mode:multiply" opacity="0.6" d="M704.842 770.918C706.973 771.757 707.232 770.59 707.232 770.59C708.348 772.431 709.765 774.073 711.424 775.446C710.875 775.762 710.278 775.984 709.656 776.102C709.656 776.102 707.399 775.138 704.842 770.918Z" fill="url(#paint23_linear)"/>
</g>
<g id="Group 17">
<path id="Vector 31" style="mix-blend-mode:multiply" d="M707.232 770.583L744.429 759.131C745.002 760.711 746.406 761.779 747.28 761.451C747.133 761.645 746.959 761.817 746.763 761.961C745.666 762.758 718.613 772.77 711.389 775.439C709.742 774.063 708.337 772.422 707.232 770.583Z" fill="url(#paint24_linear)"/>
</g>
<g id="Group 18">
<path id="Vector 32" opacity="0.4" d="M707.518 747.268C707.518 747.268 706.17 745.87 705.422 746.765C705.906 746.167 706.431 745.605 706.994 745.081C707.324 744.981 707.675 744.974 708.009 745.06C708.343 745.146 708.647 745.323 708.887 745.57C708.385 746.105 707.919 746.672 707.49 747.268H707.518Z" fill="url(#paint25_radial)"/>
</g>
<g id="Group 19">
<path id="Vector 33" opacity="0.4" d="M707.526 747.268C707.954 746.672 708.421 746.105 708.923 745.57L745.953 755.121C745.649 755.112 745.351 755.199 745.1 755.369C744.849 755.54 744.658 755.786 744.555 756.071L744.283 756.036L707.526 747.268Z" fill="url(#paint26_linear)"/>
</g>
<g id="Group 20">
<path id="Vector 34" style="mix-blend-mode:overlay" opacity="0.5" d="M704.095 754.317L701.761 753.346L527.358 772.427C527.485 771.787 527.684 771.164 527.951 770.569C528.39 769.691 528.876 768.838 529.405 768.012L702.767 750.866L705.003 751.711L744.206 757.427C744.175 757.913 744.234 758.401 744.381 758.866L704.095 754.317Z" fill="url(#paint27_linear)"/>
</g>
<path id="Vector 35" d="M681.932 747.24L686.823 746.779C683.965 750.803 676.601 763.896 689.114 778.219L685.167 778.604C672.577 764.742 678.809 751.942 681.932 747.24Z" fill="black"/>
<path id="Vector 36" d="M571.492 757.741L681.932 747.261C678.809 751.963 672.577 764.728 685.16 778.596L573.735 789.433C560.676 774.74 569.061 761.053 571.492 757.741Z" fill="url(#paint28_linear)"/>
<path id="Vector 37" d="M566.651 758.195L571.493 757.741C569.075 761.053 560.67 774.74 573.735 789.412L569.739 789.796C556.695 775.662 563.828 762.338 566.651 758.195Z" fill="black"/>
<g id="Group 21" opacity="0.6">
<g id="Vector 38" style="mix-blend-mode:screen" opacity="0.6">
<g id="Vector_6" style="mix-blend-mode:screen" opacity="0.6">
<path d="M704.933 747.366C703.088 749.663 701.835 752.377 701.283 755.272C700.731 758.166 700.898 761.151 701.768 763.966C701.083 761.133 701.012 758.187 701.558 755.324C702.103 752.461 703.254 749.748 704.933 747.366Z" fill="#F8F8F7"/>
</g>
</g>
<g id="Vector 39" style="mix-blend-mode:screen" opacity="0.6">
<g id="Vector_7" style="mix-blend-mode:screen" opacity="0.6">
<path d="M706.002 749.657C706.002 749.657 701.866 756.386 704.06 763.135C704.067 763.135 701.999 758.726 706.002 749.657Z" fill="#F8F8F7"/>
</g>
</g>
</g>
<g id="Group 22">
<path id="Vector 40" style="mix-blend-mode:screen" opacity="0.5" d="M685.042 748.064C683.274 750.451 682.063 753.204 681.5 756.12C681.5 756.12 681.541 758.342 678.705 758.426C675.868 758.51 568.516 770.122 568.516 770.122C568.516 770.122 564.597 771.4 563.905 768.487C563.213 765.573 566.134 759.201 568.621 758.565C571.109 757.93 683.037 747.463 683.037 747.463C683.037 747.463 685.81 746.897 685.042 748.064Z" fill="url(#paint29_linear)"/>
</g>
</g>
<g id="greenpencil2">
<path id="Vector 41" d="M292.196 1079.43C292.944 1076.71 294.571 1077.29 294.571 1077.29C295.358 1078.17 295.923 1079.22 296.22 1080.37C296.343 1081.13 296.269 1081.91 296.004 1082.63C295.74 1083.36 295.295 1084 294.711 1084.5C293.342 1084.73 291.476 1082.04 292.196 1079.43Z" fill="url(#paint30_linear)"/>
<g id="Group 23" style="mix-blend-mode:multiply" opacity="0.5">
<g id="Group 24" style="mix-blend-mode:multiply" opacity="0.5">
<path id="Vector 42" style="mix-blend-mode:multiply" opacity="0.5" d="M296.22 1080.37C296.343 1081.13 296.268 1081.91 296.004 1082.63C295.74 1083.36 295.295 1084 294.711 1084.51C293.67 1084.67 292.336 1083.11 292.084 1081.23C292.782 1081.52 293.547 1081.58 294.284 1081.43C295.02 1081.27 295.694 1080.91 296.22 1080.37Z" fill="url(#paint31_linear)"/>
</g>
</g>
<g id="Vector 43" style="mix-blend-mode:screen" opacity="0.6">
<g id="Vector_8" style="mix-blend-mode:screen" opacity="0.6">
<path d="M294.403 1077.25C294.403 1077.25 292.65 1076.95 292.098 1079.9C292.126 1079.9 292.482 1077.75 294.403 1077.25Z" fill="#E4E3E4"/>
</g>
</g>
<path id="Vector 44" d="M51.8436 1065.58C50.5161 1062.14 49.6288 1058.6 50.1528 1054.89C50.4812 1052.56 51.2637 1049.21 52.696 1047.29C52.696 1047.29 58.6906 1039.24 64.5735 1039.02L254.125 1057.95C254.125 1057.95 242.624 1064.55 244.385 1077.9C245.922 1089.53 250.345 1092.46 250.345 1092.46L59.6059 1073.86C55.6164 1073.44 53.0732 1068.78 51.8436 1065.58Z" fill="url(#paint32_linear)"/>
<path id="Vector 45" d="M244.385 1077.87C242.624 1064.52 254.124 1057.95 254.124 1057.95C254.506 1057.92 254.891 1057.98 255.237 1058.15C255.583 1058.31 255.877 1058.57 256.087 1058.89C256.786 1059.99 252.426 1092.13 252.426 1092.13C251.752 1092.36 251.043 1092.47 250.33 1092.46C250.33 1092.46 245.922 1089.5 244.385 1077.87Z" fill="url(#paint33_linear)"/>
<path id="Vector 46" opacity="0.4" d="M253.377 1084.86C252.833 1089.05 252.427 1092.09 252.427 1092.09C251.753 1092.32 251.044 1092.44 250.331 1092.43C250.331 1092.43 247.376 1090.46 245.44 1083.39C248.161 1083.3 250.87 1083.8 253.377 1084.86Z" fill="url(#paint34_radial)"/>
<path id="Vector 47" d="M246.998 1076.47C246.488 1065.61 256.081 1058.86 256.081 1058.86L294.564 1077.29C294.564 1077.29 292.936 1076.71 292.189 1079.43C291.49 1082.04 293.334 1084.73 294.704 1084.51C294.491 1084.69 294.256 1084.84 294.005 1084.95C292.608 1085.59 260.867 1090.73 252.392 1092.09C251.19 1090.65 247.41 1085.54 246.998 1076.47Z" fill="url(#paint35_linear)"/>
<g id="Group 25">
<path id="Vector 48" opacity="0.8" d="M252.015 1059.44L59.1377 1041.1C60.73 1039.91 62.6177 1039.19 64.5943 1039L254.125 1057.95C253.391 1058.4 252.69 1058.91 252.028 1059.46C252.028 1059.46 252.022 1059.42 252.015 1059.44Z" fill="url(#paint36_linear)"/>
</g>
<g id="Group 26">
<path id="Vector 49" style="mix-blend-mode:multiply" opacity="0.8" d="M246.202 1085.73C248.054 1090.89 250.338 1092.43 250.338 1092.43L59.5996 1073.82C55.6381 1073.44 53.0949 1068.78 51.8652 1065.58L246.202 1085.73Z" fill="url(#paint37_linear)"/>
</g>
<g id="Group 27">
<path id="Vector 50" style="mix-blend-mode:multiply" opacity="0.6" d="M246.209 1085.73C248.361 1087.12 248.892 1085.88 248.892 1085.88C249.71 1088.13 250.903 1090.23 252.42 1092.09C251.746 1092.32 251.037 1092.44 250.324 1092.43C250.324 1092.43 248.061 1090.89 246.209 1085.73Z" fill="url(#paint38_linear)"/>
</g>
<g id="Group 28">
<path id="Vector 51" style="mix-blend-mode:multiply" opacity="0.8" d="M248.899 1085.9L292.126 1081.35C292.412 1083.2 293.719 1084.68 294.746 1084.51C294.533 1084.69 294.298 1084.84 294.047 1084.95C292.65 1085.59 260.909 1090.73 252.434 1092.09C250.916 1090.24 249.721 1088.15 248.899 1085.9Z" fill="url(#paint39_linear)"/>
</g>
<g id="Group 29">
<path id="Vector 52" opacity="0.4" d="M254.222 1060.43C254.222 1060.43 253.055 1058.59 252.042 1059.42C252.704 1058.87 253.404 1058.37 254.138 1057.92C254.52 1057.88 254.904 1057.95 255.251 1058.11C255.597 1058.28 255.891 1058.53 256.101 1058.86C255.452 1059.34 254.832 1059.87 254.243 1060.43H254.222Z" fill="url(#paint40_radial)"/>
</g>
<g id="Group 30">
<path id="Vector 53" style="mix-blend-mode:overlay" opacity="0.2" d="M254.23 1060.43C254.817 1059.87 255.438 1059.35 256.088 1058.86L294.571 1077.29C294.242 1077.21 293.896 1077.24 293.585 1077.37C293.273 1077.5 293.012 1077.73 292.838 1078.02L292.545 1077.92L254.23 1060.43Z" fill="url(#paint41_linear)"/>
</g>
<g id="Group 31">
<path id="Vector 54" style="mix-blend-mode:overlay" opacity="0.3" d="M248.961 1067.41L246.613 1065.84L51.6406 1049.19C51.9196 1048.52 52.2735 1047.88 52.6956 1047.29C53.3631 1046.42 54.0768 1045.59 54.8335 1044.8L248.248 1063.33L250.519 1064.73L292.195 1079.4C292.05 1079.93 292.008 1080.48 292.069 1081.02L248.961 1067.41Z" fill="url(#paint42_linear)"/>
</g>
<path id="Vector 55" d="M226.226 1054.89L231.669 1055.43C227.68 1059.22 216.808 1071.96 227.421 1090.31L223.019 1089.88C212.225 1072.03 221.804 1059.35 226.226 1054.89Z" fill="black"/>
<path id="Vector 56" d="M103.098 1042.58L226.226 1054.86C221.804 1059.33 212.253 1072 223.019 1089.85L98.7459 1077.76C87.5946 1058.89 99.7379 1045.73 103.098 1042.58Z" fill="url(#paint43_linear)"/>
<path id="Vector 57" d="M97.7049 1042.07L103.099 1042.61C99.7379 1045.73 87.595 1058.89 98.7459 1077.76L94.2814 1077.32C83.0536 1059.04 93.7015 1045.99 97.7049 1042.07Z" fill="black"/>
<g id="Group 32" opacity="0.6">
<g id="Vector 58" style="mix-blend-mode:screen" opacity="0.6">
<g id="Vector_9" style="mix-blend-mode:screen" opacity="0.6">
<path d="M251.378 1059.97C248.866 1062.09 246.911 1064.79 245.683 1067.83C244.455 1070.88 243.993 1074.18 244.336 1077.44C244.336 1077.44 243.406 1067.39 251.378 1059.97Z" fill="#E4E3E4"/>
</g>
</g>
<g id="Vector 59" style="mix-blend-mode:screen" opacity="0.6">
<g id="Vector_10" style="mix-blend-mode:screen" opacity="0.6">
<path d="M252.056 1062.72C252.056 1062.72 246.083 1069.19 247.033 1077.05C247.033 1077.05 245.719 1071.77 252.056 1062.72Z" fill="#E4E3E4"/>
</g>
</g>
</g>
<g id="Group 33">
<path id="Vector 60" style="mix-blend-mode:screen" opacity="0.5" d="M228.993 1057.26C228.993 1057.26 225.06 1060.68 223.404 1065.32C223.404 1065.32 222.978 1067.75 219.834 1067.23C216.69 1066.7 96.7129 1056.33 96.7129 1056.33C96.7129 1056.33 92.1503 1056.89 92.0315 1053.53C91.9128 1050.18 96.4609 1043.84 99.3189 1043.69C102.176 1043.53 226.925 1056.16 226.925 1056.16C226.925 1056.16 230.118 1056.14 228.993 1057.26Z" fill="url(#paint44_linear)"/>
</g>
<path id="Vector 61" style="mix-blend-mode:multiply" d="M218.765 1079.67C219.63 1083.28 221.069 1086.73 223.027 1089.88L98.7459 1077.76C96.6469 1074.33 95.2069 1070.54 94.498 1066.58L218.765 1079.67Z" fill="url(#paint45_linear)"/>
</g>
<g id="pinkpencil">
<path id="Vector 62" d="M444.44 972.748C447.235 972.105 447.486 973.824 447.486 973.824C447.082 974.945 446.416 975.953 445.544 976.765C444.931 977.244 444.205 977.556 443.436 977.671C442.667 977.786 441.882 977.7 441.156 977.422C440.29 976.325 441.785 973.363 444.44 972.748Z" fill="url(#paint46_linear)"/>
<g id="Group 34" style="mix-blend-mode:multiply">
<g id="Group 35" style="mix-blend-mode:multiply">
<path id="Vector 63" style="mix-blend-mode:multiply" d="M445.544 976.765C444.931 977.244 444.205 977.556 443.437 977.671C442.668 977.786 441.882 977.7 441.156 977.422C440.493 976.577 441.226 974.627 442.791 973.524C442.875 974.276 443.182 974.987 443.673 975.565C444.163 976.142 444.815 976.56 445.544 976.765Z" fill="url(#paint47_linear)"/>
</g>
</g>
<g id="Vector 64" style="mix-blend-mode:screen" opacity="0.6">
<g id="Vector_11" style="mix-blend-mode:screen" opacity="0.6">
<path d="M447.436 973.663C447.436 973.663 446.857 971.958 443.978 972.888C443.992 972.888 446.088 972.196 447.436 973.663Z" fill="#F8F8F7"/>
</g>
</g>
<path id="Vector 65" d="M341.015 753.126C343.432 750.296 346.143 747.809 349.678 746.488C351.9 745.657 355.268 744.735 357.643 745.091C357.643 745.091 367.662 746.53 370.695 751.659L445.174 928.675C445.174 928.675 433.799 921.689 422.816 929.653C413.244 936.64 412.783 941.936 412.783 941.936C412.783 941.936 337.535 764.165 337.445 763.948C335.879 760.252 338.772 755.781 341.015 753.126Z" fill="url(#paint48_linear)"/>
<path id="Vector 66" d="M422.816 929.64C433.799 921.654 445.173 928.661 445.173 928.661C445.394 928.98 445.522 929.354 445.543 929.742C445.564 930.129 445.477 930.514 445.292 930.855C444.635 931.98 414.082 943.606 414.082 943.606C413.557 943.123 413.117 942.553 412.783 941.922C412.783 941.922 413.251 936.598 422.816 929.64Z" fill="url(#paint49_radial)"/>
<path id="Vector 67" d="M420.936 940.972C416.94 942.516 414.075 943.606 414.075 943.606C413.55 943.123 413.11 942.553 412.776 941.922C412.776 941.922 413.09 938.366 418.435 933.259C419.817 935.619 420.67 938.25 420.936 940.972Z" fill="url(#paint50_linear)"/>
<path id="Vector 68" d="M425.311 931.281C434.687 925.601 445.286 930.855 445.293 930.855L447.487 973.824C447.487 973.824 447.207 972.105 444.441 972.748C441.786 973.363 440.29 976.325 441.157 977.422C440.908 977.326 440.673 977.197 440.458 977.038C439.228 976.13 419.393 950.488 414.104 943.606C414.768 941.818 417.486 936.039 425.311 931.281Z" fill="url(#paint51_linear)"/>
<g id="Group 36">
<path id="Vector 69" opacity="0.4" d="M442.819 927.522L366.23 747.809C368.042 748.654 369.586 749.981 370.694 751.645L445.173 928.661C444.425 928.234 443.648 927.86 442.847 927.543L442.819 927.522Z" fill="url(#paint52_linear)"/>
</g>
<g id="Group 37">
<path id="Vector 70" style="mix-blend-mode:multiply" opacity="0.8" d="M416.744 935.026C413.062 939.156 412.804 941.915 412.804 941.915C412.804 941.915 337.535 764.165 337.445 763.948C335.879 760.252 338.772 755.76 341.015 753.126L416.744 935.026Z" fill="url(#paint53_linear)"/>
</g>
<g id="Group 38">
<path id="Vector 71" style="mix-blend-mode:multiply" opacity="0.6" d="M416.745 935.033C416.563 937.604 417.905 937.486 417.905 937.486C416.305 939.297 415.021 941.364 414.104 943.599C413.578 943.116 413.139 942.546 412.804 941.915C412.804 941.915 413.042 939.163 416.745 935.033Z" fill="url(#paint54_linear)"/>
</g>
<g id="Group 39">
<path id="Vector 72" style="mix-blend-mode:multiply" d="M417.884 937.493L442.687 973.586C441.192 974.725 440.507 976.598 441.157 977.422C440.908 977.326 440.673 977.197 440.458 977.038C439.228 976.13 419.393 950.488 414.104 943.606C415.015 941.372 416.292 939.306 417.884 937.493Z" fill="url(#paint55_linear)"/>
</g>
<g id="Group 40">
<path id="Vector 73" opacity="0.4" d="M443.001 929.961C443.001 929.961 444.07 928.04 442.847 927.544C443.648 927.86 444.426 928.234 445.174 928.661C445.395 928.98 445.523 929.354 445.544 929.742C445.565 930.129 445.478 930.514 445.293 930.855C444.548 930.515 443.785 930.217 443.008 929.961H443.001Z" fill="url(#paint56_radial)"/>
</g>
<g id="Group 41">
<path id="Vector 74" opacity="0.4" d="M443.007 929.961C443.785 930.216 444.548 930.515 445.292 930.855L447.486 973.824C447.395 973.495 447.201 973.203 446.934 972.991C446.666 972.779 446.339 972.657 445.998 972.643L445.942 972.336L443.007 929.961Z" fill="url(#paint57_linear)"/>
</g>
<g id="Group 42">
<path id="Vector 75" style="mix-blend-mode:overlay" opacity="0.5" d="M434.289 928.654L434.54 925.818L355.443 745.063C356.174 744.979 356.912 744.979 357.644 745.063C358.731 745.238 359.809 745.471 360.872 745.762L437.544 926.02L437.391 928.71L444.44 972.727C443.903 972.865 443.396 973.102 442.945 973.426L434.289 928.654Z" fill="url(#paint58_linear)"/>
</g>
<path id="Vector 76" d="M434.435 902.503L436.573 907.589C431.298 905.878 414.768 902.37 403.631 920.613L401.891 916.476C412.504 898.311 428.336 900.721 434.435 902.503Z" fill="black"/>
<path id="Vector 77" d="M386.044 787.487L434.435 902.503C428.335 900.735 412.503 898.311 401.89 916.476C389.083 886.217 367.613 835.521 352.808 800.538C364.155 781.59 381.67 786.012 386.044 787.487Z" fill="url(#paint59_linear)"/>
<path id="Vector 78" d="M383.907 782.449L386.003 787.487C381.629 786.012 364.113 781.59 352.767 800.545C352.166 799.148 351.579 797.75 351.006 796.353C361.843 777.628 378.534 780.807 383.907 782.449Z" fill="black"/>
<g id="Group 43" opacity="0.6">
<g id="Vector 79" style="mix-blend-mode:screen" opacity="0.6">
<g id="Vector_12" style="mix-blend-mode:screen" opacity="0.6">
<path d="M442.03 927.215C438.947 926.01 435.615 925.578 432.326 925.958C429.038 926.338 425.893 927.518 423.166 929.395C423.166 929.395 431.626 923.722 442.03 927.215Z" fill="#F8F8F7"/>
</g>
</g>
<g id="Vector 80" style="mix-blend-mode:screen" opacity="0.6">
<g id="Vector_13" style="mix-blend-mode:screen" opacity="0.6">
<path d="M439.927 929.137C439.927 929.137 431.32 926.964 424.815 931.589C424.815 931.589 428.853 927.886 439.927 929.137Z" fill="#F8F8F7"/>
</g>
</g>
</g>
<g id="Group 44">
<path id="Vector 81" style="mix-blend-mode:screen" opacity="0.5" d="M434.589 906.073C434.589 906.073 429.663 904.236 424.752 904.983C424.752 904.983 422.383 905.766 421.335 902.733C420.287 899.701 371.729 788.409 371.729 788.409C371.729 788.409 369.039 784.629 371.932 782.91C374.824 781.192 382.649 782.177 384.165 784.636C385.682 787.095 434.54 903.698 434.54 903.698C434.54 903.698 436.105 906.534 434.589 906.073Z" fill="url(#paint60_linear)"/>
</g>
</g>
<g id="bluepencil">
<path id="Vector 82" d="M125.903 702.058C123.884 700.507 123.024 701.792 123.024 701.792C122.934 702.857 123.099 703.928 123.506 704.916C123.827 705.534 124.302 706.059 124.887 706.439C125.471 706.818 126.143 707.04 126.839 707.081C127.95 706.509 127.831 703.546 125.903 702.058Z" fill="url(#paint61_linear)"/>
<g id="Group 45" style="mix-blend-mode:multiply">
<g id="Group 46" style="mix-blend-mode:multiply">
<path id="Vector 83" style="mix-blend-mode:multiply" d="M123.506 704.916C123.826 705.534 124.302 706.059 124.886 706.439C125.47 706.818 126.143 707.04 126.839 707.081C127.684 706.641 127.81 704.804 126.957 703.302C126.607 703.883 126.092 704.347 125.477 704.634C124.863 704.922 124.176 705.02 123.506 704.916Z" fill="url(#paint62_linear)"/>
</g>
</g>
<g id="Vector 84" style="mix-blend-mode:screen" opacity="0.6">
<g id="Vector_14" style="mix-blend-mode:screen" opacity="0.6">
<path d="M123.122 701.709C123.122 701.709 124.226 700.542 126.224 702.365C126.224 702.337 124.778 701.01 123.122 701.709Z" fill="#F8F8F7"/>
</g>
</g>
<path id="Vector 85" d="M291.818 561.743C290.909 558.543 289.624 555.51 287.234 553.121C285.739 551.612 283.357 549.628 281.282 549.006C281.282 549.006 272.59 546.449 268.209 549.495L141.707 665.894C141.707 665.894 153.585 664.42 159.551 674.977C164.749 684.207 163.142 688.713 163.142 688.713L290.7 571.881C293.355 569.456 292.663 564.726 291.818 561.743Z" fill="url(#paint63_linear)"/>
<path id="Vector 86" d="M159.559 675.005C153.585 664.42 141.714 665.922 141.714 665.922C141.417 666.101 141.175 666.357 141.015 666.664C140.855 666.971 140.783 667.317 140.806 667.662C140.918 668.822 161.466 689.656 161.466 689.656C162.072 689.455 162.641 689.155 163.15 688.769C163.15 688.769 164.75 684.242 159.559 675.005Z" fill="url(#paint64_radial)"/>
<path id="Vector 87" d="M156.854 684.94C159.53 687.686 161.459 689.642 161.459 689.642C162.065 689.441 162.634 689.141 163.143 688.755C163.143 688.755 164.212 685.737 161.745 679.596C159.749 681.004 158.081 682.827 156.854 684.94Z" fill="url(#paint65_radial)"/>
<path id="Vector 88" d="M156.903 675.417C151.384 667.306 140.834 667.634 140.834 667.634L123.024 701.793C123.024 701.793 123.884 700.507 125.903 702.058C127.922 703.609 127.95 706.509 126.839 707.082C127.073 707.098 127.308 707.081 127.538 707.033C128.872 706.753 154.57 693.241 161.431 689.629C161.57 687.917 161.508 682.188 156.903 675.417Z" fill="url(#paint66_linear)"/>
<g id="Group 47">
<path id="Vector 89" opacity="0.4" d="M144.048 665.839L273.275 548C271.484 548.016 269.732 548.523 268.209 549.467L141.707 665.894C142.476 665.824 143.249 665.808 144.02 665.846L144.048 665.839Z" fill="url(#paint67_linear)"/>
</g>
<g id="Group 48">
<path id="Vector 90" style="mix-blend-mode:multiply" opacity="0.8" d="M162.5 681.657C163.96 686.387 163.143 688.734 163.143 688.734L290.7 571.88C293.355 569.456 292.664 564.726 291.818 561.743L162.5 681.657Z" fill="url(#paint68_linear)"/>
</g>
<g id="Group 49">
<path id="Vector 91" style="mix-blend-mode:multiply" d="M160.641 683.236L127.021 703.392C127.81 704.874 127.67 706.648 126.839 707.081C127.073 707.098 127.308 707.081 127.538 707.033C128.872 706.753 154.569 693.241 161.43 689.629C161.524 687.469 161.257 685.308 160.641 683.236Z" fill="url(#paint69_linear)"/>
</g>
<g id="Group 50">
<path id="Vector 92" opacity="0.4" d="M142.992 667.753C142.992 667.753 142.838 665.797 144.019 665.846C143.248 665.808 142.475 665.824 141.707 665.894C141.41 666.073 141.168 666.329 141.007 666.636C140.847 666.943 140.775 667.289 140.798 667.634C141.529 667.632 142.259 667.674 142.985 667.76L142.992 667.753Z" fill="url(#paint70_radial)"/>
</g>
<g id="Group 51">
<path id="Vector 93" opacity="0.4" d="M142.986 667.76C142.26 667.674 141.53 667.632 140.799 667.634L123.024 701.793C123.221 701.559 123.486 701.394 123.783 701.321C124.079 701.248 124.391 701.271 124.673 701.387L124.827 701.164L142.986 667.76Z" fill="url(#paint71_linear)"/>
</g>
<g id="Group 52">
<path id="Vector 94" style="mix-blend-mode:overlay" opacity="0.5" d="M150.573 669.94L151.418 667.536L283.077 549.809C282.512 549.472 281.909 549.202 281.281 549.006C280.329 548.741 279.364 548.529 278.389 548.37L148.882 666.614L148.009 668.871L125.902 702.058C126.29 702.359 126.618 702.731 126.867 703.155L150.573 669.94Z" fill="url(#paint72_linear)"/>
</g>
<path id="Vector 95" d="M160.187 648.609L156.561 651.949C161.493 652.522 176.249 655.82 178.534 674.81L181.475 672.113C179.589 653.353 165.846 649.413 160.187 648.609Z" fill="black"/>
<path id="Vector 96" d="M242.372 572.963L160.187 648.609C165.776 649.441 179.589 653.381 181.475 672.113L264.576 595.957C262.389 576.303 246.487 573.39 242.372 572.963Z" fill="url(#paint73_linear)"/>
<path id="Vector 97" d="M245.977 569.659L242.372 572.97C246.487 573.397 262.389 576.31 264.576 595.964L267.552 593.232C265.757 573.942 250.973 570.315 245.977 569.659Z" fill="black"/>
<g id="Vector 98" style="mix-blend-mode:screen" opacity="0.6">
<g id="Vector_15" style="mix-blend-mode:screen" opacity="0.6">
<path d="M144.802 665.887C147.762 666.054 150.637 666.943 153.175 668.476C155.713 670.009 157.838 672.141 159.362 674.684C157.701 672.266 155.543 670.23 153.032 668.713C150.521 667.196 147.715 666.233 144.802 665.887Z" fill="#F8F8F7"/>
</g>
</g>
<g id="Vector 99" style="mix-blend-mode:screen" opacity="0.6">
<g id="Vector_16" style="mix-blend-mode:screen" opacity="0.6">
<path d="M145.801 668.235C145.801 668.235 153.619 669.632 157.196 675.851C157.196 675.858 155.282 671.337 145.801 668.235Z" fill="#F8F8F7"/>
</g>
</g>
<g id="Group 53">
<path id="Vector 100" style="mix-blend-mode:screen" opacity="0.5" d="M158.734 651.439C161.702 651.734 164.566 652.689 167.118 654.234C167.118 654.234 168.753 655.757 170.737 653.675C172.721 651.593 253.656 579.056 253.656 579.056C253.656 579.056 257.247 576.96 255.535 574.508C253.824 572.055 247.081 569.924 244.929 571.356C242.778 572.789 159.621 649.545 159.621 649.545C159.621 649.545 157.322 651.25 158.734 651.439Z" fill="url(#paint74_linear)"/>
</g>
</g>
<g id="lightgreenpencil">
<path id="Vector 101" d="M641.208 539.6C638.86 538.035 638.001 539.53 638.001 539.53C637.982 540.711 638.246 541.88 638.77 542.939C639.172 543.599 639.738 544.143 640.412 544.52C641.087 544.897 641.847 545.094 642.619 545.091C643.8 544.365 643.451 541.095 641.208 539.6Z" fill="url(#paint75_linear)"/>
<g id="Group 54" style="mix-blend-mode:multiply" opacity="0.5">
<g id="Vector 102" style="mix-blend-mode:multiply" opacity="0.5">
<g id="Vector_17" style="mix-blend-mode:multiply" opacity="0.5">
<path d="M638.77 542.939C639.172 543.599 639.738 544.143 640.412 544.52C641.087 544.897 641.847 545.094 642.619 545.091C643.528 544.532 643.521 542.492 642.473 540.899C642.126 541.567 641.589 542.117 640.93 542.48C640.271 542.843 639.519 543.003 638.77 542.939Z" fill="#E8C926"/>
</g>
</g>
</g>
<g id="Vector 103" style="mix-blend-mode:screen" opacity="0.6">
<g id="Vector_18" style="mix-blend-mode:screen" opacity="0.6">
<path d="M638.106 539.397C638.106 539.397 639.23 538 641.599 539.886C641.585 539.886 639.915 538.51 638.106 539.397Z" fill="#E4E3E4"/>
</g>
</g>
<path id="Vector 104" d="M814.141 371.931C812.891 368.438 811.241 365.203 808.421 362.736C806.651 361.185 803.871 359.159 801.521 358.635C801.521 358.635 791.741 356.462 787.101 360.158L655.984 498.413C655.984 498.413 669.008 495.89 676.407 507.146C682.856 516.962 681.416 522.07 681.416 522.07L813.701 383.229C816.411 380.35 815.281 375.166 814.141 371.931Z" fill="url(#paint76_linear)"/>
<path id="Vector 105" d="M676.379 507.146C668.98 495.89 655.956 498.413 655.956 498.413C655.643 498.634 655.396 498.938 655.243 499.29C655.091 499.643 655.038 500.03 655.09 500.411C655.3 501.682 679.593 523.174 679.593 523.174C680.249 522.909 680.856 522.536 681.388 522.07C681.388 522.07 682.828 516.997 676.379 507.146Z" fill="url(#paint77_linear)"/>
<path id="Vector 106" opacity="0.4" d="M674.15 518.325C677.315 521.155 679.6 523.174 679.6 523.174C680.257 522.909 680.864 522.536 681.396 522.07C681.396 522.07 682.346 518.653 679.181 512.044C677.069 513.748 675.352 515.891 674.15 518.325Z" fill="#F2D71A"/>
<path id="Vector 107" d="M673.487 507.803C666.773 499.244 655.091 500.404 655.091 500.411L638.001 539.537C638.001 539.537 638.86 538.042 641.208 539.607C643.555 541.172 643.8 544.372 642.605 545.098C642.875 545.096 643.142 545.059 643.402 544.986C644.862 544.574 672.264 527.694 679.579 523.181C679.586 521.28 679.09 514.943 673.487 507.803Z" fill="url(#paint78_linear)"/>
<g id="Group 55">
<path id="Vector 108" d="M658.549 498.182L792.601 358.16C790.621 358.318 788.721 359.009 787.101 360.158L655.984 498.413C656.833 498.278 657.69 498.204 658.549 498.189V498.182Z" fill="url(#paint79_linear)"/>
</g>
<g id="Group 56">
<path id="Vector 109" style="mix-blend-mode:multiply" opacity="0.8" d="M680.145 514.286C682.122 519.408 681.395 522.063 681.395 522.063L813.671 383.222C816.421 380.343 815.301 375.159 814.141 371.924L680.145 514.286Z" fill="url(#paint80_linear)"/>
</g>
<g id="Group 57">
<path id="Vector 110" style="mix-blend-mode:multiply" opacity="0.8" d="M680.138 514.293C679.44 516.739 678.21 516.166 678.21 516.166C679.062 518.401 679.534 520.762 679.607 523.153C680.264 522.888 680.871 522.515 681.403 522.049C681.403 522.049 682.116 519.415 680.138 514.293Z" fill="url(#paint81_linear)"/>
</g>
<g id="Group 58">
<path id="Vector 111" style="mix-blend-mode:multiply" opacity="0.8" d="M678.203 516.166L642.57 540.99C643.556 542.569 643.535 544.546 642.647 545.091C642.916 545.089 643.184 545.052 643.444 544.979C644.904 544.567 672.306 527.687 679.621 523.174C679.544 520.775 679.064 518.406 678.203 516.166Z" fill="url(#paint82_linear)"/>
</g>
<g id="Group 59">
<path id="Vector 112" opacity="0.4" d="M657.521 500.376C657.521 500.376 657.207 498.217 658.521 498.189C657.662 498.204 656.805 498.278 655.956 498.413C655.643 498.634 655.396 498.938 655.243 499.29C655.091 499.643 655.038 500.03 655.09 500.411C655.9 500.358 656.712 500.358 657.521 500.411V500.376Z" fill="url(#paint83_radial)"/>
</g>
<g id="Group 60">
<path id="Vector 113" style="mix-blend-mode:overlay" opacity="0.5" d="M657.522 500.376C656.712 500.323 655.9 500.323 655.091 500.376L638.001 539.502C638.2 539.227 638.482 539.023 638.804 538.919C639.127 538.815 639.474 538.816 639.797 538.922L639.95 538.663L657.522 500.376Z" fill="url(#paint84_linear)"/>
</g>
<g id="Group 61">
<path id="Vector 114" style="mix-blend-mode:overlay" opacity="0.5" d="M666.074 502.22L666.829 499.495L803.571 359.397C802.921 359.067 802.231 358.811 801.531 358.635C800.451 358.417 799.371 358.256 798.281 358.153L663.957 498.671L663.161 501.228L641.208 539.6C641.657 539.908 642.047 540.293 642.361 540.738L666.074 502.22Z" fill="url(#paint85_linear)"/>
</g>
<path id="Vector 115" d="M675.101 477.871L671.335 481.84C676.834 482.098 693.399 484.635 697.361 505.469L700.414 502.262C696.921 481.7 681.382 478.368 675.101 477.871Z" fill="black"/>
<path id="Vector 116" d="M764.031 384.123L760.301 388.064C764.881 388.224 782.661 390.25 786.591 411.819L789.681 408.57C786.221 387.386 769.611 384.486 764.031 384.123Z" fill="black"/>
<g id="Group 62" opacity="0.6">
<g id="Vector 117" style="mix-blend-mode:screen" opacity="0.6">
<g id="Vector_19" style="mix-blend-mode:screen" opacity="0.6">
<path d="M659.388 498.175C662.675 498.132 665.923 498.896 668.847 500.4C671.771 501.904 674.28 504.103 676.156 506.804C676.156 506.804 670.266 498.573 659.388 498.175Z" fill="#E4E3E4"/>
</g>
</g>
<g id="Vector 118" style="mix-blend-mode:screen" opacity="0.6">
<g id="Vector_20" style="mix-blend-mode:screen" opacity="0.6">
<path d="M660.666 500.69C660.666 500.69 669.414 501.689 673.843 508.264C673.843 508.264 671.356 503.408 660.666 500.69Z" fill="#E4E3E4"/>
</g>
</g>
</g>
<g id="Group 63">
<path id="Vector 119" style="mix-blend-mode:screen" opacity="0.5" d="M674.542 481.47C674.542 481.47 679.761 481.47 684.065 483.901C684.065 483.901 685.979 485.459 688.019 483.007C690.059 480.554 774.111 394.275 774.111 394.275C774.111 394.275 777.931 391.711 775.841 389.098C773.751 386.485 766.151 384.668 763.881 386.422C761.611 388.175 675.415 479.269 675.415 479.269C675.415 479.269 672.977 481.365 674.542 481.47Z" fill="url(#paint86_linear)"/>
</g>
<path id="Vector 120" style="mix-blend-mode:multiply" d="M696.962 491.754C698.663 495.041 699.829 498.579 700.413 502.234L786.591 411.791C785.931 407.819 784.531 404.004 782.481 400.542L696.962 491.754Z" fill="url(#paint87_linear)"/>
</g>
<g id="yellowpencil">
<path id="Vector 121" d="M239.362 457.056C241.2 455.127 242.304 456.357 242.304 456.357C242.565 457.443 242.565 458.576 242.304 459.662C242.071 460.355 241.663 460.977 241.12 461.467C240.576 461.956 239.916 462.297 239.202 462.457C237.958 461.988 237.602 458.9 239.362 457.056Z" fill="url(#paint88_linear)"/>
<g id="Group 64" style="mix-blend-mode:multiply" opacity="0.5">
<g id="Vector 122" style="mix-blend-mode:multiply" opacity="0.5">
<g id="Vector_21" style="mix-blend-mode:multiply" opacity="0.5">
<path d="M242.297 459.634C242.065 460.327 241.657 460.949 241.113 461.439C240.57 461.928 239.909 462.269 239.195 462.429C238.245 462.107 237.798 460.221 238.462 458.537C238.92 459.079 239.53 459.473 240.213 459.668C240.896 459.864 241.621 459.852 242.297 459.634Z" fill="#E8C926"/>
</g>
</g>
</g>
<g id="Vector 123" style="mix-blend-mode:screen" opacity="0.6">
<g id="Vector_22" style="mix-blend-mode:screen" opacity="0.6">
<path d="M242.179 456.224C242.179 456.224 240.852 455.19 239.07 457.398C239.07 457.398 240.356 455.777 242.179 456.224Z" fill="#E4E3E4"/>
</g>
</g>
<path id="Vector 124" d="M45.1936 338.267C45.6267 334.773 46.4651 331.469 48.5542 328.611C49.8677 326.808 52.0476 324.363 54.0667 323.399C54.0667 323.399 62.6605 319.361 67.677 321.82L217.229 422.136C217.229 422.136 204.702 422.506 200.209 434.419C196.296 444.801 198.686 449.21 198.686 449.21L47.9603 348.6C44.8372 346.497 44.7953 341.488 45.1936 338.267Z" fill="url(#paint89_linear)"/>
<path id="Vector 125" d="M200.209 434.419C204.702 422.541 217.229 422.136 217.229 422.136C217.565 422.273 217.856 422.5 218.071 422.792C218.285 423.084 218.415 423.43 218.445 423.792C218.515 425.014 200.566 449.859 200.566 449.859C199.906 449.754 199.27 449.534 198.686 449.21C198.686 449.21 196.297 444.801 200.209 434.419Z" fill="url(#paint90_linear)"/>
<path id="Vector 126" opacity="0.4" d="M204.611 444.263C202.277 447.526 200.593 449.852 200.593 449.852C199.934 449.747 199.298 449.527 198.714 449.203C198.714 449.203 197.121 446.254 198.714 439.505C201.001 440.645 203.013 442.268 204.611 444.263Z" fill="#F2D71A"/>
<path id="Vector 127" d="M203.011 434.419C207.406 425.14 218.445 423.792 218.445 423.792L242.339 456.329C242.339 456.329 241.236 455.127 239.398 457.028C237.56 458.928 238.001 461.961 239.23 462.38C238.983 462.439 238.729 462.46 238.476 462.443C237.043 462.366 208.279 452.479 200.6 449.831C200.181 448.113 199.322 442.167 203.011 434.419Z" fill="url(#paint91_linear)"/>
<g id="Group 65">
<path id="Vector 128" opacity="0.5" d="M214.791 422.457L62.207 321.107C64.0602 320.837 65.9519 321.079 67.6777 321.806L217.229 422.136C216.422 422.186 215.619 422.293 214.826 422.457H214.791Z" fill="url(#paint92_linear)"/>
</g>
<g id="Group 66">
<path id="Vector 129" style="mix-blend-mode:multiply" opacity="0.8" d="M198.218 441.776C197.456 446.911 198.679 449.203 198.679 449.203L47.9534 348.593C44.8303 346.497 44.7884 341.495 45.1587 338.274L198.218 441.776Z" fill="url(#paint93_linear)"/>
</g>
<g id="Group 67">
<path id="Vector 130" style="mix-blend-mode:multiply" opacity="0.8" d="M198.225 441.783C199.399 443.879 200.391 443.11 200.391 443.11C200.068 445.353 200.125 447.635 200.559 449.859C199.899 449.754 199.263 449.534 198.68 449.21C198.68 449.21 197.464 446.918 198.225 441.783Z" fill="url(#paint94_linear)"/>
</g>
<g id="Group 68">
<path id="Vector 131" style="mix-blend-mode:multiply" opacity="0.8" d="M200.419 443.11L238.441 458.614C237.854 460.277 238.287 462.107 239.217 462.408C238.97 462.467 238.715 462.488 238.462 462.471C237.03 462.394 208.265 452.507 200.587 449.859C200.153 447.635 200.096 445.353 200.419 443.11Z" fill="url(#paint95_linear)"/>
</g>
<g id="Group 69">
<path id="Vector 132" opacity="0.4" d="M216.195 424.267C216.195 424.267 216.035 422.213 214.798 422.457C215.59 422.293 216.394 422.186 217.201 422.136C217.537 422.273 217.828 422.5 218.043 422.792C218.258 423.084 218.387 423.43 218.417 423.792C217.658 423.908 216.907 424.069 216.167 424.274L216.195 424.267Z" fill="url(#paint96_radial)"/>
</g>
<g id="Group 70">
<path id="Vector 133" style="mix-blend-mode:overlay" opacity="0.5" d="M216.194 424.274C216.934 424.069 217.685 423.908 218.444 423.792L242.339 456.329C242.098 456.118 241.797 455.988 241.478 455.959C241.159 455.93 240.839 456.003 240.564 456.168L240.369 455.959L216.194 424.274Z" fill="url(#paint97_linear)"/>
</g>
<g id="Group 71">
<path id="Vector 134" style="mix-blend-mode:overlay" opacity="0.5" d="M208.698 427.739L207.405 425.385L52.3408 324.517C52.8717 324.08 53.4507 323.705 54.0665 323.399C55.0096 322.974 55.9752 322.6 56.9591 322.281L209.906 424.029L211.171 426.216L239.363 457.056C239.008 457.432 238.726 457.87 238.531 458.348L208.698 427.739Z" fill="url(#paint98_linear)"/>
</g>
<path id="Vector 135" d="M195.326 407.163L199.623 410.049C194.606 411.446 179.857 417.196 180.521 437.22L177.028 434.894C176.001 415.205 189.639 408.917 195.326 407.163Z" fill="black"/>
<path id="Vector 136" d="M98.1747 341.991L195.291 407.163C189.604 408.917 175.965 415.205 177.006 434.894L78.8493 369.344C77.9829 348.684 93.9826 343.095 98.1747 341.991Z" fill="url(#paint99_linear)"/>
<path id="Vector 137" d="M93.9124 339.14L98.1743 341.991C93.9822 343.088 77.9825 348.649 78.8559 369.344L75.3625 366.989C74.1258 346.742 88.847 340.628 93.9124 339.14Z" fill="black"/>
<g id="Group 72" opacity="0.6">
<g id="Vector 138" style="mix-blend-mode:screen" opacity="0.6">
<g id="Vector_23" style="mix-blend-mode:screen" opacity="0.6">
<path d="M214.023 422.625C210.983 423.266 208.147 424.644 205.765 426.637C203.382 428.63 201.525 431.177 200.356 434.055C200.356 434.055 204.066 425.245 214.023 422.625Z" fill="#E4E3E4"/>
</g>
</g>
<g id="Vector 139" style="mix-blend-mode:screen" opacity="0.6">
<g id="Vector_24" style="mix-blend-mode:screen" opacity="0.6">
<path d="M213.359 425.21C213.359 425.21 205.499 427.942 202.781 434.922C202.781 434.922 204.046 429.933 213.359 425.21Z" fill="#E4E3E4"/>
</g>
</g>
</g>
<g id="Group 73">
<path id="Vector 140" style="mix-blend-mode:screen" opacity="0.5" d="M196.584 410.356C193.548 411.118 190.721 412.551 188.311 414.548C188.311 414.548 186.865 416.386 184.476 414.548C182.086 412.711 86.7237 350.529 86.7237 350.529C86.7237 350.529 82.6644 348.963 84.0547 346.12C85.4451 343.276 92.0685 340.027 94.5349 341.173C97.0012 342.319 195.333 408.498 195.333 408.498C195.333 408.498 198.009 409.944 196.584 410.356Z" fill="url(#paint100_linear)"/>
</g>
<path id="Vector 141" style="mix-blend-mode:multiply" d="M178.062 424.49C177.173 427.882 176.836 431.395 177.063 434.894L78.8495 369.344C78.6379 365.546 79.1306 361.742 80.3027 358.123L178.062 424.49Z" fill="url(#paint101_linear)"/>
</g>
<g id="greenpencil">
<path id="Vector 142" d="M673.316 280.415C675.737 278.972 676.515 280.513 676.515 280.513C676.472 281.694 676.148 282.847 675.57 283.878C675.132 284.511 674.538 285.022 673.846 285.362C673.154 285.701 672.387 285.858 671.617 285.816C670.47 285.034 670.992 281.797 673.316 280.415Z" fill="url(#paint102_linear)"/>
<g id="Group 74" style="mix-blend-mode:multiply" opacity="0.5">
<g id="Group 75" style="mix-blend-mode:multiply" opacity="0.5">
<path id="Vector 143" style="mix-blend-mode:multiply" opacity="0.5" d="M675.571 283.878C675.132 284.512 674.539 285.022 673.847 285.362C673.155 285.701 672.387 285.858 671.618 285.816C670.75 285.216 670.872 283.163 671.987 281.638C672.296 282.324 672.801 282.903 673.439 283.302C674.077 283.701 674.819 283.901 675.571 283.878Z" fill="url(#paint103_linear)"/>
</g>
</g>
<g id="Vector 144" style="mix-blend-mode:screen" opacity="0.6">
<g id="Vector_25" style="mix-blend-mode:screen" opacity="0.6">
<path d="M676.418 280.372C676.418 280.372 675.361 278.941 672.921 280.685C672.941 280.705 674.688 279.399 676.418 280.372Z" fill="#E4E3E4"/>
</g>
</g>
<path id="Vector 145" d="M509.52 103.974C510.947 100.57 512.76 97.4004 515.703 95.092C517.556 93.636 520.438 91.7637 522.807 91.3645C522.807 91.3645 532.705 89.7098 537.099 93.6277L660.725 238.557C660.725 238.557 647.862 235.351 639.885 246.202C632.938 255.658 634.101 260.833 634.101 260.833L509.39 115.318C506.803 112.252 508.191 107.134 509.52 103.974Z" fill="url(#paint104_linear)"/>
<path id="Vector 146" d="M639.91 246.176C647.887 235.325 660.726 238.556 660.726 238.556C661.028 238.793 661.259 239.108 661.395 239.466C661.53 239.825 661.564 240.214 661.494 240.591C661.233 241.872 635.836 262.032 635.836 262.032C635.19 261.73 634.6 261.321 634.091 260.822C634.091 260.822 632.963 255.632 639.91 246.176Z" fill="url(#paint105_linear)"/>
<path id="Vector 147" opacity="0.4" d="M641.553 257.448C638.257 260.095 635.86 262.007 635.86 262.007C635.214 261.705 634.624 261.296 634.116 260.797C634.116 260.797 633.343 257.334 636.844 250.893C638.871 252.71 640.478 254.947 641.553 257.448Z" fill="url(#paint106_radial)"/>
<path id="Vector 148" d="M642.763 246.977C649.915 238.792 661.509 240.566 661.514 240.561L676.51 280.508C676.51 280.508 675.733 278.968 673.311 280.41C671.003 281.807 670.465 285.029 671.608 285.817C671.332 285.797 671.06 285.741 670.799 285.65C669.346 285.146 642.892 266.869 635.835 261.983C635.97 260.107 636.78 253.805 642.763 246.977Z" fill="url(#paint107_linear)"/>
<g id="Group 76">
<path id="Vector 149" opacity="0.8" d="M658.178 238.164L531.742 91.3594C533.712 91.6069 535.575 92.3911 537.13 93.6263L660.726 238.556C659.885 238.373 659.032 238.25 658.174 238.188C658.174 238.188 658.193 238.158 658.178 238.164Z" fill="url(#paint108_linear)"/>
</g>
<g id="Group 77">
<path id="Vector 150" style="mix-blend-mode:multiply" opacity="0.8" d="M635.777 253.104C633.537 258.111 634.12 260.802 634.12 260.802L509.41 115.287C506.818 112.266 508.206 107.148 509.535 103.988L635.777 253.104Z" fill="url(#paint109_linear)"/>
</g>
<g id="Group 78">
<path id="Vector 151" style="mix-blend-mode:multiply" opacity="0.6" d="M635.782 253.109C636.367 255.607 637.611 255.078 637.611 255.078C636.64 257.27 636.046 259.611 635.855 262.002C635.209 261.7 634.619 261.291 634.111 260.792C634.111 260.792 633.542 258.116 635.782 253.109Z" fill="url(#paint110_linear)"/>
</g>
<g id="Group 79">
<path id="Vector 152" style="mix-blend-mode:multiply" opacity="0.8" d="M637.602 255.098L671.935 281.753C670.86 283.287 670.781 285.255 671.638 285.845C671.363 285.826 671.091 285.77 670.829 285.679C669.376 285.175 642.923 266.898 635.865 262.011C636.052 259.626 636.639 257.288 637.602 255.098Z" fill="url(#paint111_linear)"/>
</g>
<g id="Group 80">
<path id="Vector 153" opacity="0.4" d="M659.084 240.408C659.084 240.408 659.515 238.275 658.208 238.173C659.067 238.234 659.92 238.357 660.761 238.541C661.062 238.777 661.294 239.092 661.429 239.451C661.565 239.81 661.599 240.199 661.528 240.576C660.722 240.478 659.911 240.427 659.099 240.423L659.084 240.408Z" fill="url(#paint112_radial)"/>
</g>
<g id="Group 81">
<path id="Vector 154" style="mix-blend-mode:overlay" opacity="0.2" d="M659.089 240.413C659.9 240.417 660.709 240.47 661.514 240.571L676.515 280.513C676.331 280.229 676.062 280.011 675.746 279.89C675.43 279.77 675.083 279.753 674.757 279.842L674.613 279.569L659.089 240.413Z" fill="url(#paint113_linear)"/>
</g>
<g id="Group 82">
<path id="Vector 155" style="mix-blend-mode:overlay" opacity="0.3" d="M650.455 241.8L649.846 239.045L520.726 92.0092C521.394 91.7166 522.092 91.5001 522.808 91.3638C523.89 91.2008 524.98 91.0961 526.073 91.0502L652.762 238.368L653.432 240.949L673.336 280.395C672.866 280.675 672.454 281.043 672.122 281.477L650.455 241.8Z" fill="url(#paint114_linear)"/>
</g>
<path id="Vector 156" d="M642.725 217.023L646.274 221.186C640.774 221.155 624.106 222.819 619.056 243.404L616.18 240.043C620.751 219.695 636.443 217.181 642.725 217.023Z" fill="black"/>
<path id="Vector 157" d="M562.424 122.877L642.744 217.003C636.457 217.166 620.79 219.694 616.199 240.023L534.921 145.24C539.946 123.904 557.822 122.818 562.424 122.877Z" fill="url(#paint115_linear)"/>
<path id="Vector 158" d="M558.886 118.774L562.404 122.898C557.822 122.818 539.946 123.904 534.921 145.24L532.006 141.831C536.569 120.865 553.283 118.829 558.886 118.774Z" fill="black"/>
<g id="Group 83" opacity="0.6">
<g id="Vector 159" style="mix-blend-mode:screen" opacity="0.6">
<g id="Vector_26" style="mix-blend-mode:screen" opacity="0.6">
<path d="M657.347 238.111C654.071 237.897 650.792 238.489 647.798 239.835C644.803 241.181 642.184 243.241 640.17 245.834C640.17 245.834 646.463 237.938 657.347 238.111Z" fill="#E4E3E4"/>
</g>
</g>
<g id="Vector 160" style="mix-blend-mode:screen" opacity="0.6">
<g id="Vector_27" style="mix-blend-mode:screen" opacity="0.6">
<path d="M655.935 240.561C655.935 240.561 647.145 241.092 642.387 247.42C642.387 247.42 645.093 242.705 655.935 240.561Z" fill="#E4E3E4"/>
</g>
</g>
</g>
<g id="Group 84">
<path id="Vector 161" style="mix-blend-mode:screen" opacity="0.5" d="M643.081 220.648C643.081 220.648 637.872 220.393 633.465 222.593C633.465 222.593 631.474 224.052 629.568 221.497C627.663 218.941 548.299 128.369 548.299 128.369C548.299 128.369 544.621 125.612 546.858 123.111C549.095 120.609 556.764 119.188 558.932 121.056C561.1 122.924 642.348 218.424 642.348 218.424C642.348 218.424 644.666 220.621 643.081 220.648Z" fill="url(#paint116_linear)"/>
</g>
<path id="Vector 162" style="mix-blend-mode:multiply" d="M620.18 229.733C618.305 232.935 616.956 236.418 616.185 240.048L534.921 145.24C535.782 141.312 537.369 137.58 539.599 134.234L620.18 229.733Z" fill="url(#paint117_linear)"/>
</g>
<g id="redpencil">
<path id="Vector 163" d="M231.414 253.194C229.048 252.3 228.594 253.777 228.594 253.777C228.815 254.813 229.282 255.781 229.955 256.599C230.437 257.095 231.039 257.458 231.703 257.651C232.367 257.845 233.07 257.864 233.743 257.705C234.634 256.842 233.673 254.053 231.414 253.194Z" fill="url(#paint118_linear)"/>
<g id="Group 85" style="mix-blend-mode:multiply">
<g id="Group 86" style="mix-blend-mode:multiply">
<path id="Vector 164" style="mix-blend-mode:multiply" d="M229.949 256.612C230.431 257.108 231.033 257.47 231.697 257.664C232.361 257.858 233.063 257.876 233.736 257.718C234.417 257.057 234.01 255.276 232.768 254.091C232.602 254.745 232.246 255.333 231.744 255.783C231.241 256.232 230.616 256.521 229.949 256.612Z" fill="url(#paint119_linear)"/>
</g>
</g>
<g id="Vector 165" style="mix-blend-mode:screen" opacity="0.6">
<g id="Vector_28" style="mix-blend-mode:screen" opacity="0.6">
<path d="M228.659 253.638C228.659 253.638 229.374 252.213 231.794 253.372C231.295 253.133 230.742 253.032 230.191 253.079C229.64 253.126 229.111 253.319 228.659 253.638Z" fill="#F8F8F7"/>
</g>
</g>
<path id="Vector 166" d="M348.873 72.1003C347.091 69.3193 344.993 66.7993 342.066 65.2251C340.216 64.2336 337.366 63.0201 335.219 63.0237C335.219 63.0237 326.219 63.092 322.911 67.2815L236.079 214.317C236.079 214.317 246.943 209.505 255.665 217.857C263.264 225.135 263.032 229.888 263.032 229.888L350.703 82.0501C352.523 78.976 350.501 74.7007 348.873 72.1003Z" fill="url(#paint120_linear)"/>
<path id="Vector 167" d="M255.629 217.802C246.907 209.449 236.043 214.262 236.043 214.262C235.813 214.518 235.657 214.833 235.593 215.172C235.529 215.511 235.56 215.861 235.682 216.184C236.121 217.254 261.651 231.154 261.651 231.154C262.17 230.792 262.625 230.346 262.996 229.833C262.996 229.833 263.209 225.07 255.629 217.802Z" fill="url(#paint121_radial)"/>
<path id="Vector 168" d="M255.919 228.009C259.253 229.851 261.651 231.154 261.651 231.154C262.171 230.792 262.625 230.346 262.997 229.833C262.997 229.833 263.145 226.654 259.048 221.521C257.545 223.43 256.477 225.644 255.919 228.009Z" fill="url(#paint122_linear)"/>
<path id="Vector 169" d="M253.236 218.956C245.656 212.822 235.685 216.178 235.682 216.184L228.6 253.764C228.6 253.764 229.054 252.287 231.42 253.181C233.68 254.041 234.64 256.83 233.749 257.693C233.987 257.642 234.216 257.557 234.43 257.441C235.617 256.786 256.172 236.548 261.657 231.142C261.263 229.498 259.558 224.068 253.236 218.956Z" fill="url(#paint123_linear)"/>
<g id="Group 87">
<path id="Vector 170" opacity="0.4" d="M238.258 213.541L327.274 64.3816C325.571 64.9067 324.043 65.8872 322.856 67.2173L236.025 214.253C236.738 213.966 237.471 213.73 238.217 213.545L238.258 213.541Z" fill="url(#paint124_linear)"/>
</g>
<g id="Group 88">
<path id="Vector 171" style="mix-blend-mode:multiply" opacity="0.8" d="M260.344 223.279C263.068 227.343 262.993 229.824 262.993 229.824L350.702 82.0501C352.523 78.976 350.512 74.6754 348.847 72.0884L260.344 223.279Z" fill="url(#paint125_linear)"/>
</g>
<g id="Group 89">
<path id="Vector 172" style="mix-blend-mode:multiply" opacity="0.6" d="M260.348 223.288C260.202 225.574 259.036 225.312 259.036 225.312C260.229 227.105 261.113 229.085 261.651 231.17C262.171 230.808 262.625 230.361 262.997 229.848C262.997 229.848 263.082 227.396 260.348 223.288Z" fill="url(#paint126_linear)"/>
</g>
<g id="Group 90">
<path id="Vector 173" style="mix-blend-mode:multiply" d="M259.03 225.309L232.863 254.12C234.049 255.31 234.42 257.035 233.752 257.686C233.99 257.635 234.22 257.551 234.433 257.435C235.62 256.78 256.175 236.542 261.66 231.135C261.114 229.06 260.225 227.091 259.03 225.309Z" fill="url(#paint127_linear)"/>
</g>
<g id="Group 91">
<path id="Vector 174" opacity="0.4" d="M237.8 215.665C237.8 215.665 237.108 213.851 238.235 213.554C237.489 213.738 236.756 213.975 236.043 214.262C235.812 214.518 235.657 214.833 235.593 215.172C235.529 215.511 235.56 215.861 235.682 216.184C236.379 215.957 237.091 215.775 237.812 215.64L237.8 215.665Z" fill="url(#paint128_radial)"/>
</g>
<g id="Group 92">
<path id="Vector 175" opacity="0.4" d="M237.798 215.672C237.077 215.807 236.365 215.988 235.667 216.215L228.585 253.796C228.705 253.517 228.911 253.284 229.172 253.129C229.433 252.974 229.736 252.906 230.039 252.934L230.123 252.673L237.798 215.672Z" fill="url(#paint129_linear)"/>
</g>
<g id="Group 93">
<path id="Vector 176" style="mix-blend-mode:overlay" opacity="0.5" d="M245.637 215.56L245.749 213.035L337.103 63.2518C336.47 63.0952 335.821 63.0107 335.169 63C334.188 63.0247 333.209 63.1013 332.236 63.2295L243.077 212.893L242.892 215.276L231.414 253.194C231.868 253.372 232.285 253.633 232.643 253.963L245.637 215.56Z" fill="url(#paint130_linear)"/>
</g>
<path id="Vector 177" d="M248.644 192.491L246.149 196.722C251.006 195.845 265.988 194.74 273.639 212.152L275.664 208.741C268.463 191.455 254.228 191.661 248.644 192.491Z" fill="black"/>
<path id="Vector 178" d="M305.06 96.9696L248.662 192.499C254.245 191.669 268.449 191.449 275.659 208.732L332.799 112.462C325.043 94.3988 309.091 96.1752 305.06 96.9696Z" fill="url(#paint131_linear)"/>
<path id="Vector 179" d="M307.529 92.7793L305.061 96.9697C309.086 96.1879 325.048 94.3925 332.781 112.453L334.826 108.998C327.571 91.1852 312.479 91.9837 307.529 92.7793Z" fill="black"/>
<g id="Group 94" opacity="0.6">
<g id="Vector 180" style="mix-blend-mode:screen" opacity="0.6">
<g id="Vector_29" style="mix-blend-mode:screen" opacity="0.6">
<path d="M238.988 213.366C241.851 212.672 244.841 212.69 247.696 213.42C250.55 214.15 253.182 215.569 255.361 217.552C253.087 215.729 250.45 214.413 247.627 213.691C244.803 212.969 241.858 212.859 238.988 213.366Z" fill="#F8F8F7"/>
</g>
</g>
<g id="Vector 181" style="mix-blend-mode:screen" opacity="0.6">
<g id="Vector_30" style="mix-blend-mode:screen" opacity="0.6">
<path d="M240.608 215.308C240.608 215.308 248.457 214.421 253.635 219.274C253.632 219.28 250.519 215.535 240.608 215.308Z" fill="#F8F8F7"/>
</g>
</g>
</g>
<g id="Group 95">
<path id="Vector 182" style="mix-blend-mode:screen" opacity="0.5" d="M248.069 195.656C250.98 195.068 253.987 195.142 256.866 195.87C256.866 195.87 258.86 196.852 260.14 194.32C261.421 191.787 317.533 99.5339 317.533 99.5339C317.533 99.5339 320.355 96.5286 318.011 94.6648C315.667 92.8011 308.658 92.7385 307.026 94.7202C305.394 96.7019 248.376 193.585 248.376 193.585C248.376 193.585 246.686 195.856 248.069 195.656Z" fill="url(#paint132_linear)"/>
</g>
</g>
</g>
<defs>
<linearGradient id="paint0_linear" x1="571.372" y1="1145.11" x2="569.779" y2="1133.4" gradientUnits="userSpaceOnUse">
<stop stop-color="#EB5B1E"/>
<stop offset="0.36" stop-color="#F59D17"/>
<stop offset="0.68" stop-color="#FCC40D"/>
<stop offset="0.93" stop-color="#FBBB10"/>
</linearGradient>
<linearGradient id="paint1_linear" x1="572.019" y1="1141.46" x2="569.781" y2="1135.76" gradientUnits="userSpaceOnUse">
<stop offset="0.37" stop-color="#C55E4A"/>
<stop offset="0.9" stop-color="white"/>
</linearGradient>
<linearGradient id="paint2_linear" x1="702.859" y1="1077.75" x2="687.709" y2="1047.82" gradientUnits="userSpaceOnUse">
<stop stop-color="#EB5B1E"/>
<stop offset="0.36" stop-color="#F59D17"/>
<stop offset="0.93" stop-color="#FBBB10"/>
</linearGradient>
<linearGradient id="paint3_linear" x1="58833.3" y1="-42148.7" x2="59158.4" y2="-42681.8" gradientUnits="userSpaceOnUse">
<stop stop-color="#EB5B1E"/>
<stop offset="0.36" stop-color="#F59D17"/>
<stop offset="0.68" stop-color="#FCC40D"/>
<stop offset="0.93" stop-color="#FBBB10"/>
</linearGradient>
<linearGradient id="paint4_linear" x1="136753" y1="-51675.8" x2="135785" y2="-53147.1" gradientUnits="userSpaceOnUse">
<stop stop-color="#EB5B1E"/>
<stop offset="0.36" stop-color="#F59D17"/>
<stop offset="0.68" stop-color="#FCC40D"/>
<stop offset="0.93" stop-color="#FBBB10"/>
</linearGradient>
<linearGradient id="paint5_linear" x1="550565" y1="-79037.9" x2="550777" y2="-78174" gradientUnits="userSpaceOnUse">
<stop stop-color="#EBEBEB"/>
<stop offset="0.9" stop-color="#EBEBEB"/>
</linearGradient>
<linearGradient id="paint6_linear" x1="545630" y1="-144688" x2="544508" y2="-147606" gradientUnits="userSpaceOnUse">
<stop offset="0.37" stop-color="#C55E4A"/>
<stop offset="0.9" stop-color="white"/>
</linearGradient>
<linearGradient id="paint7_linear" x1="10749.6" y1="-10200" x2="10726.9" y2="-10397.1" gradientUnits="userSpaceOnUse">
<stop offset="0.37" stop-color="#C55E4A"/>
<stop offset="0.9" stop-color="white"/>
</linearGradient>
<linearGradient id="paint8_linear" x1="128727" y1="-21158" x2="128703" y2="-21341.9" gradientUnits="userSpaceOnUse">
<stop offset="0.37" stop-color="#C55E4A"/>
<stop offset="0.9" stop-color="white"/>
</linearGradient>
<radialGradient id="paint9_radial" cx="0" cy="0" r="1" gradientUnits="userSpaceOnUse" gradientTransform="translate(11489.3 457.64) rotate(5.73007) scale(35.448 21.1327)">
<stop offset="0.28" stop-color="#EBEBEB"/>
<stop offset="0.9" stop-color="#EBEBEB"/>
</radialGradient>
<linearGradient id="paint10_linear" x1="585.25" y1="1119.04" x2="583.615" y2="1117.63" gradientUnits="userSpaceOnUse">
<stop offset="0.1" stop-color="#EBEBEB"/>
<stop offset="0.91" stop-color="#EBEBEB"/>
</linearGradient>
<linearGradient id="paint11_linear" x1="663199" y1="-117419" x2="666842" y2="-106774" gradientUnits="userSpaceOnUse">
<stop stop-color="#EBEBEB"/>
<stop offset="0.9" stop-color="#EBEBEB"/>
</linearGradient>
<linearGradient id="paint12_linear" x1="699.129" y1="1087.3" x2="675.749" y2="1045.38" gradientUnits="userSpaceOnUse">
<stop stop-color="#B94B16"/>
<stop offset="0.45" stop-color="#F07E20"/>
<stop offset="0.8" stop-color="#FFE100"/>
<stop offset="0.93" stop-color="#FBBB10"/>
</linearGradient>
<linearGradient id="paint13_linear" x1="397389" y1="-60969.7" x2="397986" y2="-58717.4" gradientUnits="userSpaceOnUse">
<stop stop-color="#EBEBEB"/>
<stop offset="0.9" stop-color="#EBEBEB"/>
</linearGradient>
<linearGradient id="paint14_linear" x1="354342" y1="-64849.9" x2="353847" y2="-66342.7" gradientUnits="userSpaceOnUse">
<stop offset="0.03" stop-color="#FFDE54"/>
<stop offset="0.89" stop-color="white"/>
</linearGradient>
<linearGradient id="paint15_linear" x1="-13953.4" y1="2788.12" x2="-13937.8" y2="2766.74" gradientUnits="userSpaceOnUse">
<stop stop-color="#5C0000"/>
<stop offset="0.65" stop-color="#BD0000"/>
<stop offset="0.91" stop-color="#EF0000"/>
</linearGradient>
<linearGradient id="paint16_linear" x1="-11029.7" y1="5070.06" x2="-11052.8" y2="4944.24" gradientUnits="userSpaceOnUse">
<stop stop-color="#5C0000"/>
<stop offset="0.65" stop-color="#BD0000"/>
<stop offset="0.91" stop-color="#EF0000"/>
</linearGradient>
<linearGradient id="paint17_linear" x1="-575687" y1="379448" x2="-576863" y2="377399" gradientUnits="userSpaceOnUse">
<stop stop-color="#5C0000"/>
<stop offset="0.65" stop-color="#BD0000"/>
<stop offset="0.91" stop-color="#EF0000"/>
</linearGradient>
<radialGradient id="paint18_radial" cx="0" cy="0" r="1" gradientUnits="userSpaceOnUse" gradientTransform="translate(-55858.9 -10679) rotate(140.711) scale(172.669 511.684)">
<stop stop-color="#5C0000"/>
<stop offset="0.65" stop-color="#BD0000"/>
<stop offset="0.91" stop-color="#EF0000"/>
</radialGradient>
<linearGradient id="paint19_linear" x1="-25506.7" y1="9908.97" x2="-25559.3" y2="9952.06" gradientUnits="userSpaceOnUse">
<stop stop-color="#5C0000"/>
<stop offset="0.65" stop-color="#BD0000"/>
<stop offset="0.91" stop-color="#EF0000"/>
</linearGradient>
<linearGradient id="paint20_linear" x1="-147992" y1="68266.4" x2="-148222" y2="66825.6" gradientUnits="userSpaceOnUse">
<stop stop-color="#5C0000"/>
<stop offset="0.65" stop-color="#BD0000"/>
<stop offset="0.91" stop-color="#EF0000"/>
</linearGradient>
<linearGradient id="paint21_linear" x1="-520285" y1="390438" x2="-520186" y2="390578" gradientUnits="userSpaceOnUse">
<stop offset="0.1" stop-color="white"/>
<stop offset="0.72" stop-color="white"/>
</linearGradient>
<linearGradient id="paint22_linear" x1="-541151" y1="402886" x2="-541516" y2="402354" gradientUnits="userSpaceOnUse">
<stop stop-color="#5C0000"/>
<stop offset="0.65" stop-color="#BD0000"/>
<stop offset="0.91" stop-color="#EF0000"/>
</linearGradient>
<linearGradient id="paint23_linear" x1="-20712.8" y1="9862.9" x2="-20730.7" y2="9877.54" gradientUnits="userSpaceOnUse">
<stop stop-color="#5C0000"/>
<stop offset="0.65" stop-color="#BD0000"/>
<stop offset="0.91" stop-color="#EF0000"/>
</linearGradient>
<linearGradient id="paint24_linear" x1="-124643" y1="74725.9" x2="-124779" y2="74493.8" gradientUnits="userSpaceOnUse">
<stop stop-color="#5C0000"/>
<stop offset="0.65" stop-color="#BD0000"/>
<stop offset="0.91" stop-color="#EF0000"/>
</linearGradient>
<radialGradient id="paint25_radial" cx="0" cy="0" r="1" gradientUnits="userSpaceOnUse" gradientTransform="translate(-8865.69 6240.73) rotate(140.71) scale(27.0985 17.7326)">
<stop offset="0.28" stop-color="white"/>
<stop offset="0.9" stop-color="white"/>
</radialGradient>
<linearGradient id="paint26_linear" x1="-114465" y1="76947.7" x2="-114482" y2="76894.9" gradientUnits="userSpaceOnUse">
<stop offset="0.28" stop-color="white"/>
<stop offset="0.9" stop-color="white"/>
</linearGradient>
<linearGradient id="paint27_linear" x1="-641627" y1="484503" x2="-640555" y2="486043" gradientUnits="userSpaceOnUse">
<stop stop-color="white"/>
<stop offset="0.9" stop-color="white"/>
</linearGradient>
<linearGradient id="paint28_linear" x1="-382950" y1="233304" x2="-384437" y2="230167" gradientUnits="userSpaceOnUse">
<stop stop-color="#5C0000"/>
<stop offset="0.65" stop-color="#BD0000"/>
<stop offset="0.91" stop-color="#EF0000"/>
</linearGradient>
<linearGradient id="paint29_linear" x1="-370137" y1="259123" x2="-369754" y2="259741" gradientUnits="userSpaceOnUse">
<stop stop-color="white"/>
<stop offset="0.9" stop-color="white"/>
</linearGradient>
<linearGradient id="paint30_linear" x1="303.289" y1="1073.27" x2="302.555" y2="1088.89" gradientUnits="userSpaceOnUse">
<stop stop-color="#72AFA3"/>
<stop offset="0.18" stop-color="#7CB5A7"/>
<stop offset="0.38" stop-color="#009A82"/>
<stop offset="0.9" stop-color="#046857"/>
</linearGradient>
<linearGradient id="paint31_linear" x1="303.095" y1="1097.48" x2="302.84" y2="1071.91" gradientUnits="userSpaceOnUse">
<stop stop-color="#376727"/>
<stop offset="0.37" stop-color="#478531"/>
<stop offset="0.9" stop-color="#98C604"/>
</linearGradient>
<linearGradient id="paint32_linear" x1="159.623" y1="1077.24" x2="162.202" y2="1044.21" gradientUnits="userSpaceOnUse">
<stop stop-color="#065F47"/>
<stop offset="0.51" stop-color="#009A82"/>
<stop offset="1" stop-color="#44A589"/>
</linearGradient>
<linearGradient id="paint33_linear" x1="55056.8" y1="-97093.7" x2="55655" y2="-95763.6" gradientUnits="userSpaceOnUse">
<stop stop-color="#72AFA3"/>
<stop offset="0.18" stop-color="#7CB5A7"/>
<stop offset="0.38" stop-color="#009A82"/>
<stop offset="0.9" stop-color="#046857"/>
</linearGradient>
<radialGradient id="paint34_radial" cx="0" cy="0" r="1" gradientUnits="userSpaceOnUse" gradientTransform="translate(255.29 1082.5) rotate(151.894) scale(38.8317)">
<stop stop-color="#376727"/>
<stop offset="0.9" stop-color="#98C604"/>
</radialGradient>
<linearGradient id="paint35_linear" x1="217312" y1="-92570.2" x2="218314" y2="-91280.5" gradientUnits="userSpaceOnUse">
<stop stop-color="#72AFA3"/>
<stop offset="0.18" stop-color="#7CB5A7"/>
<stop offset="0.38" stop-color="#009A82"/>
<stop offset="0.9" stop-color="#046857"/>
</linearGradient>
<linearGradient id="paint36_linear" x1="-828029" y1="378806" x2="-827945" y2="378995" gradientUnits="userSpaceOnUse">
<stop offset="0.1" stop-color="#EBEBEB"/>
<stop offset="0.72" stop-color="#EBEBEB"/>
</linearGradient>
<linearGradient id="paint37_linear" x1="159.189" y1="1089.82" x2="161.009" y2="1070.9" gradientUnits="userSpaceOnUse">
<stop offset="0.37" stop-color="#007839"/>
<stop offset="0.9" stop-color="#98C604"/>
</linearGradient>
<linearGradient id="paint38_linear" x1="28822.3" y1="-17656.4" x2="28778.5" y2="-17803.8" gradientUnits="userSpaceOnUse">
<stop stop-color="#376727"/>
<stop offset="0.37" stop-color="#478531"/>
<stop offset="0.9" stop-color="#98C604"/>
</linearGradient>
<linearGradient id="paint39_linear" x1="209874" y1="-28795.2" x2="209856" y2="-28994.5" gradientUnits="userSpaceOnUse">
<stop offset="0.37" stop-color="#007839"/>
<stop offset="0.9" stop-color="#98C604"/>
</linearGradient>
<radialGradient id="paint40_radial" cx="0" cy="0" r="1" gradientUnits="userSpaceOnUse" gradientTransform="translate(-15658 4439.73) rotate(151.894) scale(35.5569 22.0632)">
<stop offset="0.28" stop-color="#EBEBEB"/>
<stop offset="0.9" stop-color="#EBEBEB"/>
</radialGradient>
<linearGradient id="paint41_linear" x1="-182990" y1="40975.7" x2="-182979" y2="40875.6" gradientUnits="userSpaceOnUse">
<stop stop-color="#EBEBEB"/>
<stop offset="0.9" stop-color="#EBEBEB"/>
</linearGradient>
<linearGradient id="paint42_linear" x1="-1.03134e+06" y1="435489" x2="-1.03006e+06" y2="438758" gradientUnits="userSpaceOnUse">
<stop stop-color="#EBEBEB"/>
<stop offset="0.9" stop-color="#EBEBEB"/>
</linearGradient>
<linearGradient id="paint43_linear" x1="166.728" y1="1083.56" x2="170.896" y2="1048.5" gradientUnits="userSpaceOnUse">
<stop offset="0.12" stop-color="#06692B"/>
<stop offset="0.76" stop-color="#009A82"/>
</linearGradient>
<linearGradient id="paint44_linear" x1="-593013" y1="242830" x2="-592710" y2="243606" gradientUnits="userSpaceOnUse">
<stop stop-color="#EBEBEB"/>
<stop offset="0.9" stop-color="#EBEBEB"/>
</linearGradient>
<linearGradient id="paint45_linear" x1="166.748" y1="1087.54" x2="168.404" y2="1073.98" gradientUnits="userSpaceOnUse">
<stop offset="0.03" stop-color="#646364"/>
<stop offset="0.89" stop-color="#EBEBEB"/>
</linearGradient>
<linearGradient id="paint46_linear" x1="457.006" y1="979.684" x2="461.917" y2="980.635" gradientUnits="userSpaceOnUse">
<stop stop-color="#7F0078"/>
<stop offset="0.65" stop-color="#C30078"/>
<stop offset="0.91" stop-color="#D40078"/>
</linearGradient>
<linearGradient id="paint47_linear" x1="20203.1" y1="-4073.56" x2="20135.4" y2="-4216.79" gradientUnits="userSpaceOnUse">
<stop stop-color="#7F0078"/>
<stop offset="0.65" stop-color="#C30078"/>
<stop offset="0.91" stop-color="#D40078"/>
</linearGradient>
<linearGradient id="paint48_linear" x1="480435" y1="-259543" x2="474900" y2="-264302" gradientUnits="userSpaceOnUse">
<stop stop-color="#7F0078"/>
<stop offset="0.65" stop-color="#C30078"/>
<stop offset="0.91" stop-color="#D40078"/>
</linearGradient>
<radialGradient id="paint49_radial" cx="0" cy="0" r="1" gradientUnits="userSpaceOnUse" gradientTransform="translate(-102846 -92570.1) rotate(-146.47) scale(607.103 329.617)">
<stop stop-color="#7F0078"/>
<stop offset="0.65" stop-color="#C30078"/>
<stop offset="0.91" stop-color="#D40078"/>
</radialGradient>
<linearGradient id="paint50_linear" x1="35585" y1="-11950.9" x2="35667.4" y2="-11950.9" gradientUnits="userSpaceOnUse">
<stop stop-color="#7F0078"/>
<stop offset="0.65" stop-color="#C30078"/>
<stop offset="0.91" stop-color="#D40078"/>
</linearGradient>
<linearGradient id="paint51_linear" x1="143940" y1="-58737.4" x2="142419" y2="-59954.2" gradientUnits="userSpaceOnUse">
<stop stop-color="#7F0078"/>
<stop offset="0.65" stop-color="#C30078"/>
<stop offset="0.91" stop-color="#D40078"/>
</linearGradient>
<linearGradient id="paint52_linear" x1="-151339" y1="-392115" x2="-152336" y2="-392130" gradientUnits="userSpaceOnUse">
<stop offset="0.1" stop-color="white"/>
<stop offset="0.72" stop-color="white"/>
</linearGradient>
<linearGradient id="paint53_linear" x1="354737" y1="-246844" x2="351936" y2="-248539" gradientUnits="userSpaceOnUse">
<stop stop-color="#7F0078"/>
<stop offset="0.65" stop-color="#C30078"/>
<stop offset="0.91" stop-color="#D40078"/>
</linearGradient>
<linearGradient id="paint54_linear" x1="22426.9" y1="-9715.86" x2="22447.1" y2="-9715.86" gradientUnits="userSpaceOnUse">
<stop stop-color="#7F0078"/>
<stop offset="0.65" stop-color="#C30078"/>
<stop offset="0.91" stop-color="#D40078"/>
</linearGradient>
<linearGradient id="paint55_linear" x1="123068" y1="-47841.8" x2="122752" y2="-48424.5" gradientUnits="userSpaceOnUse">
<stop stop-color="#7F0078"/>
<stop offset="0.65" stop-color="#C30078"/>
<stop offset="0.91" stop-color="#D40078"/>
</linearGradient>
<radialGradient id="paint56_radial" cx="0" cy="0" r="1" gradientUnits="userSpaceOnUse" gradientTransform="translate(-5430.68 -6313.11) rotate(-146.47) scale(23.7608 29.1493)">
<stop offset="0.28" stop-color="white"/>
<stop offset="0.9" stop-color="white"/>
</radialGradient>
<linearGradient id="paint57_linear" x1="16155.3" y1="-52496.3" x2="16172.8" y2="-52486.5" gradientUnits="userSpaceOnUse">
<stop offset="0.28" stop-color="white"/>
<stop offset="0.9" stop-color="white"/>
</linearGradient>
<linearGradient id="paint58_linear" x1="-150853" y1="-467960" x2="-160802" y2="-469182" gradientUnits="userSpaceOnUse">
<stop stop-color="white"/>
<stop offset="0.9" stop-color="white"/>
</linearGradient>
<linearGradient id="paint59_linear" x1="362355" y1="-169807" x2="356135" y2="-175387" gradientUnits="userSpaceOnUse">
<stop stop-color="#7F0078"/>
<stop offset="0.65" stop-color="#C30078"/>
<stop offset="0.91" stop-color="#D40078"/>
</linearGradient>
<linearGradient id="paint60_linear" x1="-140918" y1="-293209" x2="-143584" y2="-293046" gradientUnits="userSpaceOnUse">
<stop stop-color="white"/>
<stop offset="0.9" stop-color="white"/>
</linearGradient>
<linearGradient id="paint61_linear" x1="8743.94" y1="-12462.2" x2="8714.19" y2="-12467" gradientUnits="userSpaceOnUse">
<stop offset="0.12" stop-color="#243866"/>
<stop offset="0.54" stop-color="#0075AE"/>
<stop offset="0.9" stop-color="#4042A2"/>
</linearGradient>
<linearGradient id="paint62_linear" x1="8134.17" y1="-7457.27" x2="8061.66" y2="-7561.35" gradientUnits="userSpaceOnUse">
<stop stop-color="#293F71"/>
<stop offset="0.37" stop-color="#335192"/>
<stop offset="0.9" stop-color="#00B3DC"/>
</linearGradient>
<linearGradient id="paint63_linear" x1="376198" y1="-407386" x2="372276" y2="-412127" gradientUnits="userSpaceOnUse">
<stop stop-color="#2B2C6C"/>
<stop offset="0.65" stop-color="#007CB7"/>
<stop offset="0.91" stop-color="#006AAE"/>
</linearGradient>
<radialGradient id="paint64_radial" cx="0" cy="0" r="1" gradientUnits="userSpaceOnUse" gradientTransform="translate(51887.7 -63293.1) rotate(-8.81999) scale(1135.58 1197.28)">
<stop stop-color="#0E113C"/>
<stop offset="0.9" stop-color="#4042A2"/>
</radialGradient>
<radialGradient id="paint65_radial" cx="0" cy="0" r="1" gradientUnits="userSpaceOnUse" gradientTransform="translate(12837.5 -23668.9) rotate(-8.81999) scale(327.819 505.263)">
<stop stop-color="#4042A2"/>
<stop offset="0.9" stop-color="#0E113C"/>
</radialGradient>
<linearGradient id="paint66_linear" x1="89257.7" y1="-106133" x2="87956.8" y2="-107221" gradientUnits="userSpaceOnUse">
<stop stop-color="#2B2C6C"/>
<stop offset="0.65" stop-color="#007CB7"/>
<stop offset="0.91" stop-color="#006AAE"/>
</linearGradient>
<linearGradient id="paint67_linear" x1="325382" y1="-346628" x2="325978" y2="-345923" gradientUnits="userSpaceOnUse">
<stop offset="0.1" stop-color="white"/>
<stop offset="0.72" stop-color="white"/>
</linearGradient>
<linearGradient id="paint68_linear" x1="322898" y1="-363628" x2="320749" y2="-365926" gradientUnits="userSpaceOnUse">
<stop stop-color="#293F71"/>
<stop offset="0.37" stop-color="#335192"/>
<stop offset="0.9" stop-color="#00B3DC"/>
</linearGradient>
<linearGradient id="paint69_linear" x1="84243.2" y1="-67701.2" x2="84086.2" y2="-68057.3" gradientUnits="userSpaceOnUse">
<stop stop-color="#293F71"/>
<stop offset="0.37" stop-color="#335192"/>
<stop offset="0.9" stop-color="#00B3DC"/>
</linearGradient>
<radialGradient id="paint70_radial" cx="0" cy="0" r="1" gradientUnits="userSpaceOnUse" gradientTransform="translate(6694.41 -2982.11) rotate(-8.81996) scale(25.5441 15.319)">
<stop offset="0.28" stop-color="white"/>
<stop offset="0.9" stop-color="white"/>
</radialGradient>
<linearGradient id="paint71_linear" x1="40106.2" y1="-86592.7" x2="40033.9" y2="-86610.2" gradientUnits="userSpaceOnUse">
<stop offset="0.28" stop-color="white"/>
<stop offset="0.9" stop-color="white"/>
</linearGradient>
<linearGradient id="paint72_linear" x1="379606" y1="-447952" x2="387451" y2="-440473" gradientUnits="userSpaceOnUse">
<stop stop-color="white"/>
<stop offset="0.9" stop-color="white"/>
</linearGradient>
<linearGradient id="paint73_linear" x1="259101" y1="-283998" x2="254323" y2="-289244" gradientUnits="userSpaceOnUse">
<stop stop-color="#2B2C6C"/>
<stop offset="0.65" stop-color="#007CB7"/>
<stop offset="0.91" stop-color="#006AAE"/>
</linearGradient>
<linearGradient id="paint74_linear" x1="241852" y1="-247582" x2="243326" y2="-245793" gradientUnits="userSpaceOnUse">
<stop stop-color="white"/>
<stop offset="0.9" stop-color="white"/>
</linearGradient>
<linearGradient id="paint75_linear" x1="642.433" y1="542.302" x2="637.529" y2="541.453" gradientUnits="userSpaceOnUse">
<stop offset="0.01" stop-color="#008800"/>
<stop offset="0.51" stop-color="#00B200"/>
<stop offset="1" stop-color="#00C900"/>
</linearGradient>
<linearGradient id="paint76_linear" x1="477006" y1="-383255" x2="472756" y2="-389718" gradientUnits="userSpaceOnUse">
<stop offset="0.01" stop-color="#008800"/>
<stop offset="0.51" stop-color="#00B200"/>
<stop offset="1" stop-color="#00C900"/>
</linearGradient>
<linearGradient id="paint77_linear" x1="76288" y1="-56397.5" x2="76340.7" y2="-56936.2" gradientUnits="userSpaceOnUse">
<stop offset="0.01" stop-color="#008800"/>
<stop offset="0.51" stop-color="#00B200"/>
<stop offset="1" stop-color="#00C900"/>
</linearGradient>
<linearGradient id="paint78_linear" x1="119068" y1="-99759.9" x2="117888" y2="-101171" gradientUnits="userSpaceOnUse">
<stop offset="0.01" stop-color="#008800"/>
<stop offset="0.51" stop-color="#00B200"/>
<stop offset="1" stop-color="#00C900"/>
</linearGradient>
<linearGradient id="paint79_linear" x1="321283" y1="-411039" x2="322146" y2="-410252" gradientUnits="userSpaceOnUse">
<stop offset="0.1" stop-color="#EBEBEB"/>
<stop offset="0.72" stop-color="#EBEBEB"/>
</linearGradient>
<linearGradient id="paint80_linear" x1="318832" y1="-426828" x2="315842" y2="-429416" gradientUnits="userSpaceOnUse">
<stop offset="0.37" stop-color="#D0B861"/>
<stop offset="0.9" stop-color="white"/>
</linearGradient>
<linearGradient id="paint81_linear" x1="5037.11" y1="-18871.9" x2="5001.89" y2="-18968.7" gradientUnits="userSpaceOnUse">
<stop offset="0.37" stop-color="#D0B861"/>
<stop offset="0.9" stop-color="white"/>
</linearGradient>
<linearGradient id="paint82_linear" x1="88708.7" y1="-83577.6" x2="88452.7" y2="-84028.6" gradientUnits="userSpaceOnUse">
<stop offset="0.37" stop-color="#D0B861"/>
<stop offset="0.9" stop-color="white"/>
</linearGradient>
<radialGradient id="paint83_radial" cx="0" cy="0" r="1" gradientUnits="userSpaceOnUse" gradientTransform="translate(8566.56 -4469.48) rotate(-12.7101) scale(30.2928 19.5074)">
<stop offset="0.28" stop-color="#EBEBEB"/>
<stop offset="0.9" stop-color="#EBEBEB"/>
</radialGradient>
<linearGradient id="paint84_linear" x1="34439.1" y1="-95967.9" x2="34357.6" y2="-95977.4" gradientUnits="userSpaceOnUse">
<stop stop-color="#EBEBEB"/>
<stop offset="0.9" stop-color="#EBEBEB"/>
</linearGradient>
<linearGradient id="paint85_linear" x1="369047" y1="-523979" x2="379908" y2="-516083" gradientUnits="userSpaceOnUse">
<stop stop-color="#EBEBEB"/>
<stop offset="0.9" stop-color="#EBEBEB"/>
</linearGradient>
<linearGradient id="paint86_linear" x1="243453" y1="-292449" x2="245570" y2="-290429" gradientUnits="userSpaceOnUse">
<stop stop-color="#EBEBEB"/>
<stop offset="0.9" stop-color="#EBEBEB"/>
</linearGradient>
<linearGradient id="paint87_linear" x1="208910" y1="-286928" x2="207425" y2="-288121" gradientUnits="userSpaceOnUse">
<stop offset="0.03" stop-color="#FFDE54"/>
<stop offset="0.89" stop-color="white"/>
</linearGradient>
<linearGradient id="paint88_linear" x1="236.994" y1="461.786" x2="241.34" y2="459.976" gradientUnits="userSpaceOnUse">
<stop offset="0.01" stop-color="#F6E700"/>
<stop offset="0.77" stop-color="#E8C926"/>
</linearGradient>
<linearGradient id="paint89_linear" x1="120.665" y1="393.714" x2="137.566" y2="367.255" gradientUnits="userSpaceOnUse">
<stop offset="0.01" stop-color="#F6D600"/>
<stop offset="0.52" stop-color="#EBEA8F"/>
<stop offset="0.82" stop-color="#F6F7E0"/>
<stop offset="0.99" stop-color="#FFF59B"/>
</linearGradient>
<linearGradient id="paint90_linear" x1="206.232" y1="435.006" x2="204.758" y2="420.801" gradientUnits="userSpaceOnUse">
<stop offset="0.01" stop-color="#F2D71A"/>
<stop offset="0.8" stop-color="#EBEA8F"/>
</linearGradient>
<linearGradient id="paint91_linear" x1="213.212" y1="457.992" x2="230.35" y2="435.928" gradientUnits="userSpaceOnUse">
<stop stop-color="#F6D800"/>
<stop offset="0.52" stop-color="#FFF48F"/>
<stop offset="0.99" stop-color="#E7F0D6"/>
</linearGradient>
<linearGradient id="paint92_linear" x1="139.69" y1="371.049" x2="136.574" y2="375.632" gradientUnits="userSpaceOnUse">
<stop offset="0.1" stop-color="#EBEBEB"/>
<stop offset="0.72" stop-color="#EBEBEB"/>
</linearGradient>
<linearGradient id="paint93_linear" x1="114.684" y1="404.026" x2="124.647" y2="389.033" gradientUnits="userSpaceOnUse">
<stop offset="0.37" stop-color="#D0B861"/>
<stop offset="0.9" stop-color="white"/>
</linearGradient>
<linearGradient id="paint94_linear" x1="8265.84" y1="-22272.6" x2="8252.73" y2="-22360" gradientUnits="userSpaceOnUse">
<stop offset="0.37" stop-color="#D0B861"/>
<stop offset="0.9" stop-color="white"/>
</linearGradient>
<linearGradient id="paint95_linear" x1="120964" y1="-53764" x2="120900" y2="-54094.6" gradientUnits="userSpaceOnUse">
<stop offset="0.37" stop-color="#D0B861"/>
<stop offset="0.9" stop-color="white"/>
</linearGradient>
<radialGradient id="paint96_radial" cx="0" cy="0" r="1" gradientUnits="userSpaceOnUse" gradientTransform="translate(213.1 428.389) rotate(180) scale(5.79906)">
<stop offset="0.28" stop-color="#EBEBEB"/>
<stop offset="0.9" stop-color="#EBEBEB"/>
</radialGradient>
<linearGradient id="paint97_linear" x1="226.332" y1="443.11" x2="228.302" y2="441.727" gradientUnits="userSpaceOnUse">
<stop stop-color="#EBEBEB"/>
<stop offset="0.9" stop-color="#EBEBEB"/>
</linearGradient>
<linearGradient id="paint98_linear" x1="594150" y1="-397736" x2="599553" y2="-388220" gradientUnits="userSpaceOnUse">
<stop stop-color="#EBEBEB"/>
<stop offset="0.9" stop-color="#EBEBEB"/>
</linearGradient>
<linearGradient id="paint99_linear" x1="123.781" y1="402.168" x2="153.244" y2="359.905" gradientUnits="userSpaceOnUse">
<stop offset="0.01" stop-color="#E0C600"/>
<stop offset="0.51" stop-color="#FFF591"/>
<stop offset="1" stop-color="#EDE65C"/>
</linearGradient>
<linearGradient id="paint100_linear" x1="361960" y1="-217789" x2="362903" y2="-215712" gradientUnits="userSpaceOnUse">
<stop stop-color="#EBEBEB"/>
<stop offset="0.9" stop-color="#EBEBEB"/>
</linearGradient>
<linearGradient id="paint101_linear" x1="124.236" y1="402.349" x2="131.67" y2="391.757" gradientUnits="userSpaceOnUse">
<stop offset="0.03" stop-color="#FFDE54"/>
<stop offset="0.89" stop-color="white"/>
</linearGradient>
<linearGradient id="paint102_linear" x1="685.586" y1="283.651" x2="674.235" y2="294.416" gradientUnits="userSpaceOnUse">
<stop stop-color="#72AFA3"/>
<stop offset="0.18" stop-color="#7CB5A7"/>
<stop offset="0.38" stop-color="#009A82"/>
<stop offset="0.9" stop-color="#046857"/>
</linearGradient>
<linearGradient id="paint103_linear" x1="668.679" y1="300.983" x2="686.203" y2="282.361" gradientUnits="userSpaceOnUse">
<stop stop-color="#376727"/>
<stop offset="0.37" stop-color="#478531"/>
<stop offset="0.9" stop-color="#98C604"/>
</linearGradient>
<linearGradient id="paint104_linear" x1="579.196" y1="187.025" x2="603.933" y2="164.982" gradientUnits="userSpaceOnUse">
<stop stop-color="#065F47"/>
<stop offset="0.51" stop-color="#009A82"/>
<stop offset="1" stop-color="#44A589"/>
</linearGradient>
<linearGradient id="paint105_linear" x1="108168" y1="-32613.5" x2="107678" y2="-31239.6" gradientUnits="userSpaceOnUse">
<stop stop-color="#72AFA3"/>
<stop offset="0.18" stop-color="#7CB5A7"/>
<stop offset="0.38" stop-color="#009A82"/>
<stop offset="0.9" stop-color="#046857"/>
</linearGradient>
<radialGradient id="paint106_radial" cx="0" cy="0" r="1" gradientUnits="userSpaceOnUse" gradientTransform="translate(644.569 257.069) rotate(-164.275) scale(38.8316 38.8318)">
<stop stop-color="#376727"/>
<stop offset="0.9" stop-color="#98C604"/>
</radialGradient>
<linearGradient id="paint107_linear" x1="222083" y1="83017.6" x2="221913" y2="84642" gradientUnits="userSpaceOnUse">
<stop stop-color="#72AFA3"/>
<stop offset="0.18" stop-color="#7CB5A7"/>
<stop offset="0.38" stop-color="#009A82"/>
<stop offset="0.9" stop-color="#046857"/>
</linearGradient>
<linearGradient id="paint108_linear" x1="-858453" y1="-300876" x2="-858523" y2="-300682" gradientUnits="userSpaceOnUse">
<stop offset="0.1" stop-color="#EBEBEB"/>
<stop offset="0.72" stop-color="#EBEBEB"/>
</linearGradient>
<linearGradient id="paint109_linear" x1="570.174" y1="195.795" x2="584.588" y2="183.409" gradientUnits="userSpaceOnUse">
<stop offset="0.37" stop-color="#007839"/>
<stop offset="0.9" stop-color="#98C604"/>
</linearGradient>
<linearGradient id="paint110_linear" x1="34229.7" y1="6522.86" x2="34300.2" y2="6386.25" gradientUnits="userSpaceOnUse">
<stop stop-color="#376727"/>
<stop offset="0.37" stop-color="#478531"/>
<stop offset="0.9" stop-color="#98C604"/>
</linearGradient>
<linearGradient id="paint111_linear" x1="172551" y1="123872" x2="172676" y2="123716" gradientUnits="userSpaceOnUse">
<stop offset="0.37" stop-color="#007839"/>
<stop offset="0.9" stop-color="#98C604"/>
</linearGradient>
<radialGradient id="paint112_radial" cx="0" cy="0" r="1" gradientUnits="userSpaceOnUse" gradientTransform="translate(-13160 -8341.6) rotate(-164.275) scale(35.5569 22.0632)">
<stop offset="0.28" stop-color="#EBEBEB"/>
<stop offset="0.9" stop-color="#EBEBEB"/>
</radialGradient>
<linearGradient id="paint113_linear" x1="-159173" y1="-97868.5" x2="-159096" y2="-97933.5" gradientUnits="userSpaceOnUse">
<stop stop-color="#EBEBEB"/>
<stop offset="0.9" stop-color="#EBEBEB"/>
</linearGradient>
<linearGradient id="paint114_linear" x1="-1.04436e+06" y1="-400783" x2="-1.0457e+06" y2="-397538" gradientUnits="userSpaceOnUse">
<stop stop-color="#EBEBEB"/>
<stop offset="0.9" stop-color="#EBEBEB"/>
</linearGradient>
<linearGradient id="paint115_linear" x1="579.946" y1="196.504" x2="607.232" y2="174.099" gradientUnits="userSpaceOnUse">
<stop offset="0.12" stop-color="#06692B"/>
<stop offset="0.76" stop-color="#009A82"/>
</linearGradient>
<linearGradient id="paint116_linear" x1="-594748" y1="-236211" x2="-595067" y2="-235442" gradientUnits="userSpaceOnUse">
<stop stop-color="#EBEBEB"/>
<stop offset="0.9" stop-color="#EBEBEB"/>
</linearGradient>
<linearGradient id="paint117_linear" x1="577.209" y1="199.383" x2="587.794" y2="190.749" gradientUnits="userSpaceOnUse">
<stop offset="0.03" stop-color="#646364"/>
<stop offset="0.89" stop-color="#EBEBEB"/>
</linearGradient>
<linearGradient id="paint118_linear" x1="8312.86" y1="-12190.2" x2="8286.86" y2="-12185.1" gradientUnits="userSpaceOnUse">
<stop stop-color="#5C0000"/>
<stop offset="0.65" stop-color="#BD0000"/>
<stop offset="0.91" stop-color="#EF0000"/>
</linearGradient>
<linearGradient id="paint119_linear" x1="9136.74" y1="-8573.88" x2="9032.63" y2="-8648.21" gradientUnits="userSpaceOnUse">
<stop stop-color="#5C0000"/>
<stop offset="0.65" stop-color="#BD0000"/>
<stop offset="0.91" stop-color="#EF0000"/>
</linearGradient>
<linearGradient id="paint120_linear" x1="587908" y1="-360740" x2="586552" y2="-362675" gradientUnits="userSpaceOnUse">
<stop stop-color="#5C0000"/>
<stop offset="0.65" stop-color="#BD0000"/>
<stop offset="0.91" stop-color="#EF0000"/>
</linearGradient>
<radialGradient id="paint121_radial" cx="0" cy="0" r="1" gradientUnits="userSpaceOnUse" gradientTransform="translate(13920.8 -55847.4) rotate(-25.575) scale(172.669 511.684)">
<stop stop-color="#5C0000"/>
<stop offset="0.65" stop-color="#BD0000"/>
<stop offset="0.91" stop-color="#EF0000"/>
</radialGradient>
<linearGradient id="paint122_linear" x1="19666.8" y1="-19624.7" x2="19728.1" y2="-19654.1" gradientUnits="userSpaceOnUse">
<stop stop-color="#5C0000"/>
<stop offset="0.65" stop-color="#BD0000"/>
<stop offset="0.91" stop-color="#EF0000"/>
</linearGradient>
<linearGradient id="paint123_linear" x1="124525" y1="-105724" x2="123318" y2="-106543" gradientUnits="userSpaceOnUse">
<stop stop-color="#5C0000"/>
<stop offset="0.65" stop-color="#BD0000"/>
<stop offset="0.91" stop-color="#EF0000"/>
</linearGradient>
<linearGradient id="paint124_linear" x1="574324" y1="-305916" x2="574410" y2="-305767" gradientUnits="userSpaceOnUse">
<stop offset="0.1" stop-color="white"/>
<stop offset="0.72" stop-color="white"/>
</linearGradient>
<linearGradient id="paint125_linear" x1="594456" y1="-319519" x2="594130" y2="-320075" gradientUnits="userSpaceOnUse">
<stop stop-color="#5C0000"/>
<stop offset="0.65" stop-color="#BD0000"/>
<stop offset="0.91" stop-color="#EF0000"/>
</linearGradient>
<linearGradient id="paint126_linear" x1="17588.8" y1="-15304.4" x2="17609.6" y2="-15314.4" gradientUnits="userSpaceOnUse">
<stop stop-color="#5C0000"/>
<stop offset="0.65" stop-color="#BD0000"/>
<stop offset="0.91" stop-color="#EF0000"/>
</linearGradient>
<linearGradient id="paint127_linear" x1="120455" y1="-81841.7" x2="120303" y2="-82063.2" gradientUnits="userSpaceOnUse">
<stop stop-color="#5C0000"/>
<stop offset="0.65" stop-color="#BD0000"/>
<stop offset="0.91" stop-color="#EF0000"/>
</linearGradient>
<radialGradient id="paint128_radial" cx="0" cy="0" r="1" gradientUnits="userSpaceOnUse" gradientTransform="translate(9277.53 -6117.64) rotate(-25.5749) scale(27.0989 17.7329)">
<stop offset="0.28" stop-color="white"/>
<stop offset="0.9" stop-color="white"/>
</radialGradient>
<linearGradient id="paint129_linear" x1="118143" y1="-71683.6" x2="118103" y2="-71721.5" gradientUnits="userSpaceOnUse">
<stop offset="0.28" stop-color="white"/>
<stop offset="0.9" stop-color="white"/>
</linearGradient>
<linearGradient id="paint130_linear" x1="711023" y1="-375813" x2="711961" y2="-374188" gradientUnits="userSpaceOnUse">
<stop stop-color="white"/>
<stop offset="0.9" stop-color="white"/>
</linearGradient>
<linearGradient id="paint131_linear" x1="373736" y1="-248330" x2="371528" y2="-251009" gradientUnits="userSpaceOnUse">
<stop stop-color="#5C0000"/>
<stop offset="0.65" stop-color="#BD0000"/>
<stop offset="0.91" stop-color="#EF0000"/>
</linearGradient>
<linearGradient id="paint132_linear" x1="391668" y1="-225764" x2="392064" y2="-225155" gradientUnits="userSpaceOnUse">
<stop stop-color="white"/>
<stop offset="0.9" stop-color="white"/>
</linearGradient>
</defs>
</svg>
