<svg width="414" height="896" viewBox="0 0 414 896" fill="none" xmlns="http://www.w3.org/2000/svg">
<g id="mobile">
<g id="yellowpencil">
<path id="Vector 121" d="M216.362 513.056C218.2 511.127 219.304 512.357 219.304 512.357C219.565 513.443 219.565 514.576 219.304 515.662C219.071 516.355 218.663 516.977 218.12 517.467C217.576 517.956 216.916 518.297 216.202 518.457C214.958 517.988 214.602 514.9 216.362 513.056Z" fill="url(#paint0_linear)"/>
<g id="Group 64" style="mix-blend-mode:multiply" opacity="0.5">
<g id="Vector 122" style="mix-blend-mode:multiply" opacity="0.5">
<g id="Vector" style="mix-blend-mode:multiply" opacity="0.5">
<path d="M219.297 515.634C219.065 516.327 218.657 516.949 218.113 517.439C217.57 517.928 216.909 518.269 216.195 518.429C215.245 518.107 214.798 516.221 215.462 514.537C215.92 515.079 216.53 515.473 217.213 515.668C217.896 515.864 218.621 515.852 219.297 515.634Z" fill="#E8C926"/>
</g>
</g>
</g>
<g id="Vector 123" style="mix-blend-mode:screen" opacity="0.6">
<g id="Vector_2" style="mix-blend-mode:screen" opacity="0.6">
<path d="M219.179 512.224C219.179 512.224 217.852 511.19 216.07 513.398C216.07 513.398 217.356 511.777 219.179 512.224Z" fill="#E4E3E4"/>
</g>
</g>
<path id="Vector 124" d="M22.1937 394.267C22.6268 390.773 23.4652 387.469 25.5543 384.611C26.8678 382.808 29.0477 380.363 31.0668 379.399C31.0668 379.399 39.6606 375.361 44.6771 377.82L194.229 478.136C194.229 478.136 181.702 478.506 177.209 490.419C173.296 500.801 175.686 505.21 175.686 505.21L24.9604 404.6C21.8373 402.497 21.7954 397.488 22.1937 394.267Z" fill="url(#paint1_linear)"/>
<path id="Vector 125" d="M177.209 490.419C181.702 478.541 194.229 478.136 194.229 478.136C194.565 478.273 194.856 478.5 195.071 478.792C195.285 479.084 195.415 479.43 195.445 479.792C195.515 481.014 177.566 505.859 177.566 505.859C176.906 505.754 176.27 505.534 175.686 505.21C175.686 505.21 173.297 500.801 177.209 490.419Z" fill="url(#paint2_linear)"/>
<path id="Vector 126" opacity="0.4" d="M181.611 500.263C179.277 503.526 177.593 505.852 177.593 505.852C176.934 505.747 176.298 505.527 175.714 505.203C175.714 505.203 174.121 502.254 175.714 495.505C178.001 496.645 180.013 498.268 181.611 500.263Z" fill="#F2D71A"/>
<path id="Vector 127" d="M180.011 490.419C184.406 481.14 195.445 479.792 195.445 479.792L219.339 512.329C219.339 512.329 218.236 511.127 216.398 513.028C214.56 514.928 215.001 517.961 216.23 518.38C215.983 518.439 215.729 518.46 215.476 518.443C214.043 518.366 185.279 508.479 177.6 505.831C177.181 504.113 176.322 498.167 180.011 490.419Z" fill="url(#paint3_linear)"/>
<g id="Group 65">
<path id="Vector 128" opacity="0.5" d="M191.791 478.457L39.207 377.107C41.0602 376.837 42.9519 377.079 44.6777 377.806L194.229 478.136C193.422 478.186 192.619 478.293 191.826 478.457H191.791Z" fill="url(#paint4_linear)"/>
</g>
<g id="Group 66">
<path id="Vector 129" style="mix-blend-mode:multiply" opacity="0.8" d="M175.218 497.776C174.456 502.911 175.679 505.203 175.679 505.203L24.9534 404.593C21.8303 402.497 21.7884 397.495 22.1587 394.274L175.218 497.776Z" fill="url(#paint5_linear)"/>
</g>
<g id="Group 67">
<path id="Vector 130" style="mix-blend-mode:multiply" opacity="0.8" d="M175.225 497.783C176.399 499.879 177.391 499.11 177.391 499.11C177.068 501.353 177.125 503.635 177.559 505.859C176.899 505.754 176.263 505.534 175.68 505.21C175.68 505.21 174.464 502.918 175.225 497.783Z" fill="url(#paint6_linear)"/>
</g>
<g id="Group 68">
<path id="Vector 131" style="mix-blend-mode:multiply" opacity="0.8" d="M177.419 499.11L215.441 514.614C214.854 516.277 215.287 518.107 216.217 518.408C215.97 518.467 215.715 518.488 215.462 518.471C214.03 518.394 185.265 508.507 177.587 505.859C177.153 503.635 177.096 501.353 177.419 499.11Z" fill="url(#paint7_linear)"/>
</g>
<g id="Group 69">
<path id="Vector 132" opacity="0.4" d="M193.195 480.267C193.195 480.267 193.035 478.213 191.798 478.457C192.59 478.293 193.394 478.186 194.201 478.136C194.537 478.273 194.828 478.5 195.043 478.792C195.258 479.084 195.387 479.43 195.417 479.792C194.658 479.908 193.907 480.069 193.167 480.274L193.195 480.267Z" fill="url(#paint8_radial)"/>
</g>
<g id="Group 70">
<path id="Vector 133" style="mix-blend-mode:overlay" opacity="0.5" d="M193.194 480.274C193.934 480.069 194.685 479.908 195.444 479.792L219.339 512.329C219.098 512.118 218.797 511.988 218.478 511.959C218.159 511.93 217.839 512.003 217.564 512.168L217.369 511.959L193.194 480.274Z" fill="url(#paint9_linear)"/>
</g>
<g id="Group 71">
<path id="Vector 134" style="mix-blend-mode:overlay" opacity="0.5" d="M185.698 483.739L184.405 481.385L29.3408 380.517C29.8717 380.08 30.4507 379.705 31.0665 379.399C32.0096 378.974 32.9752 378.6 33.9591 378.281L186.906 480.029L188.171 482.216L216.363 513.056C216.008 513.432 215.726 513.87 215.531 514.348L185.698 483.739Z" fill="url(#paint10_linear)"/>
</g>
<path id="Vector 135" d="M172.326 463.163L176.623 466.049C171.606 467.446 156.857 473.196 157.521 493.22L154.028 490.894C153.001 471.205 166.639 464.917 172.326 463.163Z" fill="black"/>
<path id="Vector 136" d="M75.1747 397.991L172.291 463.163C166.604 464.917 152.965 471.205 154.006 490.894L55.8493 425.344C54.9829 404.684 70.9826 399.095 75.1747 397.991Z" fill="url(#paint11_linear)"/>
<path id="Vector 137" d="M70.9124 395.14L75.1743 397.991C70.9822 399.088 54.9825 404.649 55.8559 425.344L52.3625 422.989C51.1258 402.742 65.847 396.628 70.9124 395.14Z" fill="black"/>
<g id="Group 72" opacity="0.6">
<g id="Vector 138" style="mix-blend-mode:screen" opacity="0.6">
<g id="Vector_3" style="mix-blend-mode:screen" opacity="0.6">
<path d="M191.023 478.625C187.983 479.266 185.147 480.644 182.765 482.637C180.382 484.63 178.525 487.177 177.356 490.055C177.356 490.055 181.066 481.245 191.023 478.625Z" fill="#E4E3E4"/>
</g>
</g>
<g id="Vector 139" style="mix-blend-mode:screen" opacity="0.6">
<g id="Vector_4" style="mix-blend-mode:screen" opacity="0.6">
<path d="M190.359 481.21C190.359 481.21 182.499 483.942 179.781 490.922C179.781 490.922 181.046 485.933 190.359 481.21Z" fill="#E4E3E4"/>
</g>
</g>
</g>
<g id="Group 73">
<path id="Vector 140" style="mix-blend-mode:screen" opacity="0.5" d="M173.584 466.356C170.548 467.118 167.721 468.551 165.311 470.548C165.311 470.548 163.865 472.386 161.476 470.548C159.086 468.711 63.7238 406.529 63.7238 406.529C63.7238 406.529 59.6645 404.963 61.0548 402.12C62.4452 399.276 69.0686 396.027 71.535 397.173C74.0013 398.319 172.333 464.498 172.333 464.498C172.333 464.498 175.009 465.944 173.584 466.356Z" fill="url(#paint12_linear)"/>
</g>
<path id="Vector 141" style="mix-blend-mode:multiply" d="M155.062 480.49C154.173 483.882 153.836 487.395 154.063 490.894L55.8495 425.344C55.6379 421.546 56.1306 417.742 57.3027 414.123L155.062 480.49Z" fill="url(#paint13_linear)"/>
</g>
<g id="bluepencil">
<path id="Vector 82" d="M221.903 711.058C219.884 709.507 219.024 710.792 219.024 710.792C218.934 711.857 219.099 712.928 219.506 713.916C219.827 714.534 220.302 715.059 220.887 715.439C221.471 715.818 222.143 716.04 222.839 716.081C223.95 715.509 223.831 712.546 221.903 711.058Z" fill="url(#paint14_linear)"/>
<g id="Group 45" style="mix-blend-mode:multiply">
<g id="Group 46" style="mix-blend-mode:multiply">
<path id="Vector 83" style="mix-blend-mode:multiply" d="M219.506 713.916C219.826 714.534 220.302 715.059 220.886 715.439C221.47 715.818 222.143 716.04 222.839 716.081C223.684 715.641 223.81 713.804 222.957 712.302C222.607 712.883 222.092 713.347 221.477 713.634C220.863 713.922 220.176 714.02 219.506 713.916Z" fill="url(#paint15_linear)"/>
</g>
</g>
<g id="Vector 84" style="mix-blend-mode:screen" opacity="0.6">
<g id="Vector_5" style="mix-blend-mode:screen" opacity="0.6">
<path d="M219.122 710.709C219.122 710.709 220.226 709.542 222.224 711.365C222.224 711.337 220.778 710.01 219.122 710.709Z" fill="#F8F8F7"/>
</g>
</g>
<path id="Vector 85" d="M387.818 570.743C386.909 567.543 385.624 564.51 383.234 562.121C381.739 560.612 379.357 558.628 377.282 558.006C377.282 558.006 368.59 555.449 364.209 558.495L237.707 674.894C237.707 674.894 249.585 673.42 255.551 683.977C260.749 693.207 259.142 697.713 259.142 697.713L386.7 580.881C389.355 578.456 388.663 573.726 387.818 570.743Z" fill="url(#paint16_linear)"/>
<path id="Vector 86" d="M255.559 684.005C249.585 673.42 237.714 674.922 237.714 674.922C237.417 675.101 237.175 675.357 237.015 675.664C236.855 675.971 236.782 676.317 236.806 676.662C236.918 677.822 257.466 698.656 257.466 698.656C258.072 698.455 258.641 698.155 259.15 697.769C259.15 697.769 260.75 693.242 255.559 684.005Z" fill="url(#paint17_radial)"/>
<path id="Vector 87" d="M252.854 693.94C255.53 696.686 257.459 698.642 257.459 698.642C258.065 698.441 258.634 698.141 259.143 697.755C259.143 697.755 260.212 694.737 257.745 688.596C255.749 690.004 254.081 691.827 252.854 693.94Z" fill="url(#paint18_radial)"/>
<path id="Vector 88" d="M252.903 684.417C247.384 676.306 236.834 676.634 236.834 676.634L219.024 710.793C219.024 710.793 219.884 709.507 221.903 711.058C223.922 712.609 223.95 715.509 222.839 716.082C223.073 716.098 223.308 716.081 223.538 716.033C224.872 715.753 250.57 702.241 257.431 698.629C257.57 696.917 257.508 691.188 252.903 684.417Z" fill="url(#paint19_linear)"/>
<g id="Group 47">
<path id="Vector 89" opacity="0.4" d="M240.048 674.839L369.275 557C367.484 557.016 365.732 557.523 364.209 558.467L237.707 674.894C238.476 674.824 239.249 674.808 240.02 674.846L240.048 674.839Z" fill="url(#paint20_linear)"/>
</g>
<g id="Group 48">
<path id="Vector 90" style="mix-blend-mode:multiply" opacity="0.8" d="M258.5 690.657C259.96 695.387 259.143 697.734 259.143 697.734L386.7 580.88C389.355 578.456 388.664 573.726 387.818 570.743L258.5 690.657Z" fill="url(#paint21_linear)"/>
</g>
<g id="Group 49">
<path id="Vector 91" style="mix-blend-mode:multiply" d="M256.641 692.236L223.021 712.392C223.81 713.874 223.67 715.648 222.839 716.081C223.073 716.098 223.308 716.081 223.538 716.033C224.872 715.753 250.569 702.241 257.43 698.629C257.524 696.469 257.257 694.308 256.641 692.236Z" fill="url(#paint22_linear)"/>
</g>
<g id="Group 50">
<path id="Vector 92" opacity="0.4" d="M238.992 676.753C238.992 676.753 238.838 674.797 240.019 674.846C239.248 674.808 238.475 674.824 237.707 674.894C237.41 675.073 237.168 675.329 237.007 675.636C236.847 675.943 236.775 676.289 236.798 676.634C237.529 676.632 238.259 676.674 238.985 676.76L238.992 676.753Z" fill="url(#paint23_radial)"/>
</g>
<g id="Group 51">
<path id="Vector 93" opacity="0.4" d="M238.986 676.76C238.26 676.674 237.53 676.632 236.799 676.634L219.024 710.793C219.221 710.559 219.486 710.394 219.783 710.321C220.079 710.248 220.391 710.271 220.673 710.387L220.827 710.164L238.986 676.76Z" fill="url(#paint24_linear)"/>
</g>
<g id="Group 52">
<path id="Vector 94" style="mix-blend-mode:overlay" opacity="0.5" d="M246.573 678.94L247.418 676.536L379.077 558.809C378.512 558.472 377.909 558.202 377.281 558.006C376.329 557.741 375.364 557.529 374.389 557.37L244.882 675.614L244.009 677.871L221.902 711.058C222.29 711.359 222.618 711.731 222.867 712.155L246.573 678.94Z" fill="url(#paint25_linear)"/>
</g>
<path id="Vector 95" d="M256.187 657.609L252.56 660.949C257.493 661.522 272.249 664.82 274.534 683.81L277.475 681.113C275.589 662.353 261.846 658.413 256.187 657.609Z" fill="black"/>
<path id="Vector 96" d="M338.372 581.963L256.186 657.609C261.776 658.441 275.589 662.381 277.475 681.113L360.576 604.957C358.389 585.303 342.487 582.39 338.372 581.963Z" fill="url(#paint26_linear)"/>
<path id="Vector 97" d="M341.977 578.659L338.372 581.97C342.487 582.397 358.389 585.31 360.576 604.964L363.552 602.232C361.757 582.942 346.973 579.315 341.977 578.659Z" fill="black"/>
<g id="Vector 98" style="mix-blend-mode:screen" opacity="0.6">
<g id="Vector_6" style="mix-blend-mode:screen" opacity="0.6">
<path d="M240.802 674.887C243.762 675.054 246.637 675.943 249.175 677.476C251.713 679.009 253.837 681.141 255.362 683.684C253.701 681.266 251.543 679.23 249.032 677.713C246.521 676.196 243.715 675.233 240.802 674.887Z" fill="#F8F8F7"/>
</g>
</g>
<g id="Vector 99" style="mix-blend-mode:screen" opacity="0.6">
<g id="Vector_7" style="mix-blend-mode:screen" opacity="0.6">
<path d="M241.801 677.235C241.801 677.235 249.619 678.632 253.196 684.851C253.196 684.858 251.282 680.337 241.801 677.235Z" fill="#F8F8F7"/>
</g>
</g>
<g id="Group 53">
<path id="Vector 100" style="mix-blend-mode:screen" opacity="0.5" d="M254.734 660.439C257.702 660.734 260.566 661.689 263.118 663.234C263.118 663.234 264.753 664.757 266.737 662.675C268.721 660.593 349.656 588.056 349.656 588.056C349.656 588.056 353.247 585.96 351.535 583.508C349.824 581.055 343.081 578.924 340.929 580.356C338.778 581.789 255.621 658.545 255.621 658.545C255.621 658.545 253.322 660.25 254.734 660.439Z" fill="url(#paint27_linear)"/>
</g>
</g>
<g id="greenpencil2">
<path id="Vector 41" d="M272.196 806.432C272.944 803.714 274.571 804.287 274.571 804.287C275.358 805.169 275.923 806.225 276.22 807.368C276.343 808.129 276.269 808.909 276.004 809.633C275.74 810.357 275.295 811.001 274.711 811.505C273.342 811.735 271.476 809.038 272.196 806.432Z" fill="url(#paint28_linear)"/>
<g id="Group 23" style="mix-blend-mode:multiply" opacity="0.5">
<g id="Group 24" style="mix-blend-mode:multiply" opacity="0.5">
<path id="Vector 42" style="mix-blend-mode:multiply" opacity="0.5" d="M276.22 807.368C276.343 808.129 276.268 808.909 276.004 809.633C275.74 810.357 275.295 811.001 274.711 811.505C273.67 811.672 272.336 810.107 272.084 808.235C272.782 808.516 273.547 808.584 274.284 808.429C275.02 808.275 275.694 807.906 276.22 807.368Z" fill="url(#paint29_linear)"/>
</g>
</g>
<g id="Vector 43" style="mix-blend-mode:screen" opacity="0.6">
<g id="Vector_8" style="mix-blend-mode:screen" opacity="0.6">
<path d="M274.403 804.252C274.403 804.252 272.65 803.952 272.098 806.9C272.126 806.9 272.482 804.748 274.403 804.252Z" fill="#E4E3E4"/>
</g>
</g>
<path id="Vector 44" d="M31.8436 792.584C30.5161 789.14 29.6288 785.597 30.1528 781.895C30.4812 779.561 31.2637 776.214 32.696 774.286C32.696 774.286 38.6906 766.237 44.5735 766.021L234.125 784.955C234.125 784.955 222.624 791.55 224.385 804.902C225.922 816.535 230.345 819.462 230.345 819.462L39.6059 800.857C35.6164 800.437 33.0732 795.784 31.8436 792.584Z" fill="url(#paint30_linear)"/>
<path id="Vector 45" d="M224.385 804.867C222.624 791.515 234.124 784.955 234.124 784.955C234.506 784.916 234.891 784.983 235.237 785.148C235.583 785.313 235.877 785.57 236.087 785.891C236.786 786.995 232.426 819.127 232.426 819.127C231.752 819.357 231.043 819.47 230.33 819.462C230.33 819.462 225.922 816.5 224.385 804.867Z" fill="url(#paint31_linear)"/>
<path id="Vector 46" opacity="0.4" d="M233.377 811.861C232.833 816.053 232.427 819.092 232.427 819.092C231.753 819.322 231.044 819.435 230.331 819.427C230.331 819.427 227.376 817.464 225.44 810.394C228.161 810.301 230.87 810.801 233.377 811.861Z" fill="url(#paint32_radial)"/>
<path id="Vector 47" d="M226.998 803.47C226.488 792.612 236.081 785.863 236.081 785.856L274.564 804.287C274.564 804.287 272.936 803.714 272.189 806.432C271.49 809.038 273.334 811.735 274.704 811.511C274.491 811.688 274.256 811.836 274.005 811.952C272.608 812.594 240.867 817.73 232.392 819.092C231.19 817.646 227.41 812.539 226.998 803.47Z" fill="url(#paint33_linear)"/>
<g id="Group 25">
<path id="Vector 48" opacity="0.8" d="M232.015 786.436L39.1377 768.096C40.73 766.91 42.6177 766.185 44.5943 766L234.125 784.955C233.391 785.404 232.69 785.906 232.028 786.457C232.028 786.457 232.022 786.422 232.015 786.436Z" fill="url(#paint34_linear)"/>
</g>
<g id="Group 26">
<path id="Vector 49" style="mix-blend-mode:multiply" opacity="0.8" d="M226.202 812.727C228.054 817.89 230.338 819.428 230.338 819.428L39.5996 800.822C35.6381 800.437 33.0949 795.784 31.8652 792.584L226.202 812.727Z" fill="url(#paint35_linear)"/>
</g>
<g id="Group 27">
<path id="Vector 50" style="mix-blend-mode:multiply" opacity="0.6" d="M226.209 812.727C228.361 814.124 228.892 812.881 228.892 812.881C229.71 815.135 230.903 817.235 232.42 819.092C231.746 819.322 231.037 819.435 230.324 819.427C230.324 819.427 228.061 817.89 226.209 812.727Z" fill="url(#paint36_linear)"/>
</g>
<g id="Group 28">
<path id="Vector 51" style="mix-blend-mode:multiply" opacity="0.8" d="M228.899 812.902L272.126 808.353C272.412 810.205 273.719 811.679 274.746 811.511C274.533 811.688 274.298 811.836 274.047 811.952C272.65 812.594 240.909 817.73 232.434 819.092C230.916 817.242 229.721 815.149 228.899 812.902Z" fill="url(#paint37_linear)"/>
</g>
<g id="Group 29">
<path id="Vector 52" opacity="0.4" d="M234.222 787.428C234.222 787.428 233.055 785.591 232.042 786.422C232.704 785.872 233.404 785.37 234.138 784.92C234.52 784.881 234.904 784.948 235.251 785.113C235.597 785.278 235.891 785.535 236.101 785.856C235.452 786.344 234.832 786.869 234.243 787.428H234.222Z" fill="url(#paint38_radial)"/>
</g>
<g id="Group 30">
<path id="Vector 53" style="mix-blend-mode:overlay" opacity="0.2" d="M234.23 787.428C234.817 786.87 235.438 786.347 236.088 785.863L274.571 804.287C274.242 804.21 273.896 804.239 273.585 804.371C273.273 804.503 273.012 804.73 272.838 805.021L272.545 804.923L234.23 787.428Z" fill="url(#paint39_linear)"/>
</g>
<g id="Group 31">
<path id="Vector 54" style="mix-blend-mode:overlay" opacity="0.3" d="M228.961 794.408L226.613 792.843L31.6406 776.193C31.9196 775.52 32.2735 774.88 32.6956 774.286C33.3631 773.419 34.0768 772.589 34.8335 771.799L228.248 790.335L230.519 791.732L272.195 806.404C272.05 806.932 272.008 807.482 272.069 808.025L228.961 794.408Z" fill="url(#paint40_linear)"/>
</g>
<path id="Vector 55" d="M206.226 781.888L211.669 782.433C207.68 786.219 196.808 798.963 207.421 817.311L203.019 816.877C192.225 799.033 201.804 786.352 206.226 781.888Z" fill="black"/>
<path id="Vector 56" d="M83.0979 769.584L206.226 781.86C201.804 786.331 192.253 799.005 203.019 816.849L78.7459 804.762C67.5946 785.891 79.7379 772.728 83.0979 769.584Z" fill="url(#paint41_linear)"/>
<path id="Vector 57" d="M77.7049 769.074L83.0989 769.612C79.7379 772.728 67.595 785.891 78.7459 804.762L74.2814 804.322C63.0536 786.038 73.7015 772.993 77.7049 769.074Z" fill="black"/>
<g id="Group 32" opacity="0.6">
<g id="Vector 58" style="mix-blend-mode:screen" opacity="0.6">
<g id="Vector_9" style="mix-blend-mode:screen" opacity="0.6">
<path d="M231.378 786.974C228.866 789.088 226.911 791.786 225.683 794.831C224.455 797.876 223.993 801.176 224.336 804.441C224.336 804.441 223.406 794.387 231.378 786.974Z" fill="#E4E3E4"/>
</g>
</g>
<g id="Vector 59" style="mix-blend-mode:screen" opacity="0.6">
<g id="Vector_10" style="mix-blend-mode:screen" opacity="0.6">
<path d="M232.056 789.72C232.056 789.72 226.083 796.19 227.033 804.05C227.033 804.05 225.719 798.775 232.056 789.72Z" fill="#E4E3E4"/>
</g>
</g>
</g>
<g id="Group 33">
<path id="Vector 60" style="mix-blend-mode:screen" opacity="0.5" d="M208.993 784.256C208.993 784.256 205.06 787.68 203.404 792.319C203.404 792.319 202.978 794.75 199.834 794.226C196.69 793.702 76.7129 783.327 76.7129 783.327C76.7129 783.327 72.1503 783.886 72.0315 780.532C71.9128 777.178 76.4609 770.841 79.3189 770.688C82.1759 770.534 206.925 783.159 206.925 783.159C206.925 783.159 210.118 783.138 208.993 784.256Z" fill="url(#paint42_linear)"/>
</g>
<path id="Vector 61" style="mix-blend-mode:multiply" d="M198.765 806.67C199.63 810.278 201.069 813.725 203.027 816.877L78.7459 804.762C76.6469 801.333 75.2069 797.541 74.498 793.583L198.765 806.67Z" fill="url(#paint43_linear)"/>
</g>
<g id="pinkpencil">
<path id="Vector 62" d="M124.44 257.748C127.235 257.105 127.486 258.824 127.486 258.824C127.082 259.945 126.416 260.953 125.544 261.765C124.931 262.244 124.205 262.556 123.436 262.671C122.667 262.786 121.882 262.7 121.156 262.422C120.29 261.325 121.785 258.363 124.44 257.748Z" fill="url(#paint44_linear)"/>
<g id="Group 34" style="mix-blend-mode:multiply">
<g id="Group 35" style="mix-blend-mode:multiply">
<path id="Vector 63" style="mix-blend-mode:multiply" d="M125.544 261.765C124.931 262.244 124.205 262.556 123.437 262.671C122.668 262.786 121.882 262.7 121.156 262.422C120.493 261.577 121.226 259.627 122.791 258.524C122.875 259.276 123.182 259.987 123.673 260.565C124.163 261.142 124.815 261.56 125.544 261.765Z" fill="url(#paint45_linear)"/>
</g>
</g>
<g id="Vector 64" style="mix-blend-mode:screen" opacity="0.6">
<g id="Vector_11" style="mix-blend-mode:screen" opacity="0.6">
<path d="M127.436 258.663C127.436 258.663 126.857 256.958 123.978 257.888C123.992 257.888 126.088 257.196 127.436 258.663Z" fill="#F8F8F7"/>
</g>
</g>
<path id="Vector 65" d="M21.0154 38.126C23.4324 35.296 26.1434 32.809 29.6784 31.488C31.9004 30.657 35.2684 29.735 37.6434 30.091C37.6434 30.091 47.6624 31.53 50.6954 36.659L125.174 213.675C125.174 213.675 113.799 206.689 102.816 214.653C93.2444 221.64 92.7834 226.936 92.7834 226.936C92.7834 226.936 17.5354 49.165 17.4454 48.948C15.8794 45.252 18.7724 40.781 21.0154 38.126Z" fill="url(#paint46_linear)"/>
<path id="Vector 66" d="M102.816 214.64C113.799 206.654 125.173 213.661 125.173 213.661C125.394 213.98 125.522 214.354 125.543 214.742C125.564 215.129 125.477 215.514 125.292 215.855C124.635 216.98 94.0825 228.606 94.0825 228.606C93.5575 228.123 93.1174 227.553 92.7834 226.922C92.7834 226.922 93.2514 221.598 102.816 214.64Z" fill="url(#paint47_radial)"/>
<path id="Vector 67" d="M100.936 225.972C96.9405 227.516 94.0755 228.606 94.0755 228.606C93.5505 228.123 93.1105 227.553 92.7765 226.922C92.7765 226.922 93.0905 223.366 98.4355 218.259C99.8175 220.619 100.67 223.25 100.936 225.972Z" fill="url(#paint48_linear)"/>
<path id="Vector 68" d="M105.311 216.281C114.687 210.601 125.286 215.855 125.293 215.855L127.487 258.824C127.487 258.824 127.207 257.105 124.441 257.748C121.786 258.363 120.29 261.325 121.157 262.422C120.908 262.326 120.673 262.197 120.458 262.038C119.228 261.13 99.3935 235.488 94.1045 228.606C94.7685 226.818 97.4865 221.039 105.311 216.281Z" fill="url(#paint49_linear)"/>
<g id="Group 36">
<path id="Vector 69" opacity="0.4" d="M122.819 212.522L46.2305 32.809C48.0425 33.654 49.5865 34.981 50.6945 36.645L125.173 213.661C124.425 213.234 123.648 212.86 122.847 212.543L122.819 212.522Z" fill="url(#paint50_linear)"/>
</g>
<g id="Group 37">
<path id="Vector 70" style="mix-blend-mode:multiply" opacity="0.8" d="M96.7444 220.026C93.0624 224.156 92.8044 226.915 92.8044 226.915C92.8044 226.915 17.5354 49.165 17.4454 48.948C15.8794 45.252 18.7724 40.76 21.0154 38.126L96.7444 220.026Z" fill="url(#paint51_linear)"/>
</g>
<g id="Group 38">
<path id="Vector 71" style="mix-blend-mode:multiply" opacity="0.6" d="M96.7455 220.033C96.5635 222.604 97.9055 222.486 97.9055 222.486C96.3055 224.297 95.0215 226.364 94.1045 228.599C93.5785 228.116 93.1394 227.546 92.8044 226.915C92.8044 226.915 93.0425 224.163 96.7455 220.033Z" fill="url(#paint52_linear)"/>
</g>
<g id="Group 39">
<path id="Vector 72" style="mix-blend-mode:multiply" d="M97.8845 222.493L122.687 258.586C121.192 259.725 120.507 261.598 121.157 262.422C120.908 262.326 120.673 262.197 120.458 262.038C119.228 261.13 99.3935 235.488 94.1045 228.606C95.0155 226.372 96.2925 224.306 97.8845 222.493Z" fill="url(#paint53_linear)"/>
</g>
<g id="Group 40">
<path id="Vector 73" opacity="0.4" d="M123.001 214.961C123.001 214.961 124.07 213.04 122.847 212.544C123.648 212.86 124.426 213.234 125.174 213.661C125.395 213.98 125.523 214.354 125.544 214.742C125.565 215.129 125.478 215.514 125.293 215.855C124.548 215.515 123.785 215.217 123.008 214.961H123.001Z" fill="url(#paint54_radial)"/>
</g>
<g id="Group 41">
<path id="Vector 74" opacity="0.4" d="M123.007 214.961C123.785 215.216 124.548 215.515 125.292 215.855L127.486 258.824C127.395 258.495 127.201 258.203 126.934 257.991C126.666 257.779 126.339 257.657 125.998 257.643L125.942 257.336L123.007 214.961Z" fill="url(#paint55_linear)"/>
</g>
<g id="Group 42">
<path id="Vector 75" style="mix-blend-mode:overlay" opacity="0.5" d="M114.289 213.654L114.54 210.818L35.4435 30.063C36.1745 29.979 36.9125 29.979 37.6445 30.063C38.7315 30.238 39.8095 30.471 40.8725 30.762L117.544 211.02L117.391 213.71L124.44 257.727C123.903 257.865 123.396 258.102 122.945 258.426L114.289 213.654Z" fill="url(#paint56_linear)"/>
</g>
<path id="Vector 76" d="M114.435 187.503L116.573 192.589C111.298 190.878 94.7685 187.37 83.6315 205.613L81.8915 201.476C92.5045 183.311 108.336 185.721 114.435 187.503Z" fill="black"/>
<path id="Vector 77" d="M66.0445 72.487L114.435 187.503C108.335 185.735 92.5035 183.311 81.8905 201.476C69.0835 171.217 47.6135 120.521 32.8085 85.538C44.1555 66.59 61.6705 71.012 66.0445 72.487Z" fill="url(#paint57_linear)"/>
<path id="Vector 78" d="M63.9075 67.449L66.0035 72.487C61.6295 71.012 44.1135 66.59 32.7675 85.545C32.1665 84.148 31.5795 82.75 31.0065 81.353C41.8435 62.628 58.5345 65.807 63.9075 67.449Z" fill="black"/>
<g id="Group 43" opacity="0.6">
<g id="Vector 79" style="mix-blend-mode:screen" opacity="0.6">
<g id="Vector_12" style="mix-blend-mode:screen" opacity="0.6">
<path d="M122.03 212.215C118.947 211.01 115.615 210.578 112.326 210.958C109.038 211.338 105.893 212.518 103.166 214.395C103.166 214.395 111.626 208.722 122.03 212.215Z" fill="#F8F8F7"/>
</g>
</g>
<g id="Vector 80" style="mix-blend-mode:screen" opacity="0.6">
<g id="Vector_13" style="mix-blend-mode:screen" opacity="0.6">
<path d="M119.927 214.137C119.927 214.137 111.32 211.964 104.815 216.589C104.815 216.589 108.853 212.886 119.927 214.137Z" fill="#F8F8F7"/>
</g>
</g>
</g>
<g id="Group 44">
<path id="Vector 81" style="mix-blend-mode:screen" opacity="0.5" d="M114.589 191.073C114.589 191.073 109.663 189.236 104.752 189.983C104.752 189.983 102.383 190.766 101.335 187.733C100.287 184.701 51.7294 73.409 51.7294 73.409C51.7294 73.409 49.0394 69.629 51.9324 67.91C54.8244 66.192 62.6494 67.177 64.1654 69.636C65.6824 72.095 114.54 188.698 114.54 188.698C114.54 188.698 116.105 191.534 114.589 191.073Z" fill="url(#paint58_linear)"/>
</g>
</g>
<g id="redpencil">
<path id="Vector 163" d="M256.829 320.194C254.463 319.3 254.009 320.777 254.009 320.777C254.23 321.813 254.697 322.781 255.37 323.599C255.852 324.095 256.454 324.458 257.118 324.651C257.782 324.845 258.485 324.864 259.158 324.705C260.049 323.842 259.088 321.053 256.829 320.194Z" fill="url(#paint59_linear)"/>
<g id="Group 85" style="mix-blend-mode:multiply">
<g id="Group 86" style="mix-blend-mode:multiply">
<path id="Vector 164" style="mix-blend-mode:multiply" d="M255.364 323.612C255.846 324.108 256.448 324.47 257.112 324.664C257.776 324.858 258.478 324.876 259.151 324.718C259.832 324.057 259.425 322.276 258.183 321.091C258.017 321.745 257.661 322.333 257.159 322.783C256.656 323.232 256.031 323.521 255.364 323.612Z" fill="url(#paint60_linear)"/>
</g>
</g>
<g id="Vector 165" style="mix-blend-mode:screen" opacity="0.6">
<g id="Vector_14" style="mix-blend-mode:screen" opacity="0.6">
<path d="M254.074 320.638C254.074 320.638 254.789 319.213 257.209 320.372C256.71 320.133 256.157 320.032 255.606 320.079C255.055 320.126 254.526 320.319 254.074 320.638Z" fill="#F8F8F7"/>
</g>
</g>
<path id="Vector 166" d="M374.288 139.1C372.506 136.319 370.408 133.799 367.481 132.225C365.631 131.234 362.781 130.02 360.634 130.024C360.634 130.024 351.634 130.092 348.326 134.282L261.494 281.317C261.494 281.317 272.358 276.505 281.08 284.857C288.679 292.135 288.447 296.888 288.447 296.888L376.118 149.05C377.938 145.976 375.916 141.701 374.288 139.1Z" fill="url(#paint61_linear)"/>
<path id="Vector 167" d="M281.044 284.802C272.322 276.449 261.458 281.262 261.458 281.262C261.228 281.518 261.072 281.833 261.008 282.172C260.944 282.511 260.975 282.861 261.097 283.184C261.536 284.254 287.066 298.154 287.066 298.154C287.585 297.792 288.04 297.346 288.411 296.833C288.411 296.833 288.624 292.07 281.044 284.802Z" fill="url(#paint62_radial)"/>
<path id="Vector 168" d="M281.334 295.009C284.668 296.851 287.066 298.154 287.066 298.154C287.586 297.792 288.04 297.346 288.412 296.833C288.412 296.833 288.56 293.654 284.463 288.521C282.96 290.43 281.892 292.644 281.334 295.009Z" fill="url(#paint63_linear)"/>
<path id="Vector 169" d="M278.651 285.956C271.071 279.822 261.1 283.178 261.097 283.184L254.015 320.764C254.015 320.764 254.469 319.287 256.835 320.181C259.095 321.041 260.055 323.83 259.164 324.693C259.402 324.642 259.631 324.557 259.845 324.441C261.032 323.786 281.587 303.548 287.072 298.142C286.678 296.498 284.973 291.068 278.651 285.956Z" fill="url(#paint64_linear)"/>
<g id="Group 87">
<path id="Vector 170" opacity="0.4" d="M263.673 280.541L352.689 131.382C350.986 131.907 349.458 132.887 348.271 134.217L261.44 281.253C262.153 280.966 262.886 280.73 263.632 280.545L263.673 280.541Z" fill="url(#paint65_linear)"/>
</g>
<g id="Group 88">
<path id="Vector 171" style="mix-blend-mode:multiply" opacity="0.8" d="M285.759 290.279C288.483 294.343 288.408 296.824 288.408 296.824L376.117 149.05C377.938 145.976 375.927 141.675 374.262 139.088L285.759 290.279Z" fill="url(#paint66_linear)"/>
</g>
<g id="Group 89">
<path id="Vector 172" style="mix-blend-mode:multiply" opacity="0.6" d="M285.763 290.288C285.617 292.574 284.451 292.312 284.451 292.312C285.644 294.105 286.528 296.085 287.066 298.17C287.586 297.808 288.04 297.361 288.412 296.848C288.412 296.848 288.497 294.396 285.763 290.288Z" fill="url(#paint67_linear)"/>
</g>
<g id="Group 90">
<path id="Vector 173" style="mix-blend-mode:multiply" d="M284.445 292.309L258.278 321.12C259.464 322.31 259.835 324.035 259.167 324.686C259.405 324.635 259.635 324.551 259.848 324.435C261.035 323.78 281.59 303.542 287.075 298.135C286.529 296.06 285.64 294.091 284.445 292.309Z" fill="url(#paint68_linear)"/>
</g>
<g id="Group 91">
<path id="Vector 174" opacity="0.4" d="M263.215 282.665C263.215 282.665 262.523 280.851 263.65 280.554C262.904 280.738 262.171 280.975 261.458 281.262C261.227 281.518 261.072 281.833 261.008 282.172C260.944 282.511 260.975 282.861 261.097 283.184C261.794 282.957 262.506 282.775 263.227 282.64L263.215 282.665Z" fill="url(#paint69_radial)"/>
</g>
<g id="Group 92">
<path id="Vector 175" opacity="0.4" d="M263.213 282.672C262.492 282.807 261.78 282.988 261.082 283.215L254 320.796C254.12 320.517 254.326 320.284 254.587 320.129C254.848 319.974 255.151 319.906 255.454 319.934L255.538 319.673L263.213 282.672Z" fill="url(#paint70_linear)"/>
</g>
<g id="Group 93">
<path id="Vector 176" style="mix-blend-mode:overlay" opacity="0.5" d="M271.052 282.56L271.164 280.035L362.518 130.252C361.885 130.095 361.236 130.011 360.584 130C359.603 130.025 358.624 130.101 357.651 130.229L268.492 279.893L268.307 282.276L256.829 320.194C257.283 320.372 257.7 320.633 258.058 320.963L271.052 282.56Z" fill="url(#paint71_linear)"/>
</g>
<path id="Vector 177" d="M274.059 259.491L271.564 263.722C276.421 262.845 291.403 261.74 299.054 279.152L301.079 275.741C293.878 258.455 279.643 258.661 274.059 259.491Z" fill="black"/>
<path id="Vector 178" d="M330.475 163.97L274.077 259.499C279.66 258.669 293.864 258.449 301.074 275.732L358.214 179.462C350.458 161.399 334.506 163.175 330.475 163.97Z" fill="url(#paint72_linear)"/>
<path id="Vector 179" d="M332.944 159.779L330.476 163.97C334.501 163.188 350.463 161.392 358.196 179.453L360.241 175.998C352.986 158.185 337.894 158.984 332.944 159.779Z" fill="black"/>
<g id="Group 94" opacity="0.6">
<g id="Vector 180" style="mix-blend-mode:screen" opacity="0.6">
<g id="Vector_15" style="mix-blend-mode:screen" opacity="0.6">
<path d="M264.403 280.366C267.266 279.672 270.256 279.69 273.111 280.42C275.965 281.15 278.597 282.569 280.776 284.552C278.502 282.729 275.865 281.413 273.042 280.691C270.218 279.969 267.273 279.859 264.403 280.366Z" fill="#F8F8F7"/>
</g>
</g>
<g id="Vector 181" style="mix-blend-mode:screen" opacity="0.6">
<g id="Vector_16" style="mix-blend-mode:screen" opacity="0.6">
<path d="M266.023 282.308C266.023 282.308 273.872 281.421 279.05 286.274C279.047 286.28 275.934 282.535 266.023 282.308Z" fill="#F8F8F7"/>
</g>
</g>
</g>
<g id="Group 95">
<path id="Vector 182" style="mix-blend-mode:screen" opacity="0.5" d="M273.484 262.656C276.395 262.068 279.402 262.142 282.281 262.87C282.281 262.87 284.275 263.852 285.555 261.32C286.836 258.787 342.948 166.534 342.948 166.534C342.948 166.534 345.77 163.529 343.426 161.665C341.082 159.801 334.073 159.739 332.441 161.72C330.809 163.702 273.791 260.585 273.791 260.585C273.791 260.585 272.101 262.856 273.484 262.656Z" fill="url(#paint73_linear)"/>
</g>
</g>
</g>
<defs>
<linearGradient id="paint0_linear" x1="213.994" y1="517.786" x2="218.34" y2="515.976" gradientUnits="userSpaceOnUse">
<stop offset="0.01" stop-color="#F6E700"/>
<stop offset="0.77" stop-color="#E8C926"/>
</linearGradient>
<linearGradient id="paint1_linear" x1="97.6646" y1="449.714" x2="114.566" y2="423.255" gradientUnits="userSpaceOnUse">
<stop offset="0.01" stop-color="#F6D600"/>
<stop offset="0.52" stop-color="#EBEA8F"/>
<stop offset="0.82" stop-color="#F6F7E0"/>
<stop offset="0.99" stop-color="#FFF59B"/>
</linearGradient>
<linearGradient id="paint2_linear" x1="183.232" y1="491.006" x2="181.758" y2="476.801" gradientUnits="userSpaceOnUse">
<stop offset="0.01" stop-color="#F2D71A"/>
<stop offset="0.8" stop-color="#EBEA8F"/>
</linearGradient>
<linearGradient id="paint3_linear" x1="190.212" y1="513.992" x2="207.35" y2="491.928" gradientUnits="userSpaceOnUse">
<stop stop-color="#F6D800"/>
<stop offset="0.52" stop-color="#FFF48F"/>
<stop offset="0.99" stop-color="#E7F0D6"/>
</linearGradient>
<linearGradient id="paint4_linear" x1="116.69" y1="427.049" x2="113.574" y2="431.632" gradientUnits="userSpaceOnUse">
<stop offset="0.1" stop-color="#EBEBEB"/>
<stop offset="0.72" stop-color="#EBEBEB"/>
</linearGradient>
<linearGradient id="paint5_linear" x1="91.6841" y1="460.026" x2="101.647" y2="445.033" gradientUnits="userSpaceOnUse">
<stop offset="0.37" stop-color="#D0B861"/>
<stop offset="0.9" stop-color="white"/>
</linearGradient>
<linearGradient id="paint6_linear" x1="8242.84" y1="-22216.6" x2="8229.73" y2="-22304" gradientUnits="userSpaceOnUse">
<stop offset="0.37" stop-color="#D0B861"/>
<stop offset="0.9" stop-color="white"/>
</linearGradient>
<linearGradient id="paint7_linear" x1="120941" y1="-53708" x2="120877" y2="-54038.6" gradientUnits="userSpaceOnUse">
<stop offset="0.37" stop-color="#D0B861"/>
<stop offset="0.9" stop-color="white"/>
</linearGradient>
<radialGradient id="paint8_radial" cx="0" cy="0" r="1" gradientUnits="userSpaceOnUse" gradientTransform="translate(190.1 484.389) rotate(180) scale(5.79906)">
<stop offset="0.28" stop-color="#EBEBEB"/>
<stop offset="0.9" stop-color="#EBEBEB"/>
</radialGradient>
<linearGradient id="paint9_linear" x1="203.332" y1="499.11" x2="205.302" y2="497.727" gradientUnits="userSpaceOnUse">
<stop stop-color="#EBEBEB"/>
<stop offset="0.9" stop-color="#EBEBEB"/>
</linearGradient>
<linearGradient id="paint10_linear" x1="594127" y1="-397680" x2="599530" y2="-388164" gradientUnits="userSpaceOnUse">
<stop stop-color="#EBEBEB"/>
<stop offset="0.9" stop-color="#EBEBEB"/>
</linearGradient>
<linearGradient id="paint11_linear" x1="100.781" y1="458.168" x2="130.244" y2="415.905" gradientUnits="userSpaceOnUse">
<stop offset="0.01" stop-color="#E0C600"/>
<stop offset="0.51" stop-color="#FFF591"/>
<stop offset="1" stop-color="#EDE65C"/>
</linearGradient>
<linearGradient id="paint12_linear" x1="361937" y1="-217733" x2="362880" y2="-215656" gradientUnits="userSpaceOnUse">
<stop stop-color="#EBEBEB"/>
<stop offset="0.9" stop-color="#EBEBEB"/>
</linearGradient>
<linearGradient id="paint13_linear" x1="101.236" y1="458.349" x2="108.67" y2="447.757" gradientUnits="userSpaceOnUse">
<stop offset="0.03" stop-color="#FFDE54"/>
<stop offset="0.89" stop-color="white"/>
</linearGradient>
<linearGradient id="paint14_linear" x1="8839.94" y1="-12453.2" x2="8810.19" y2="-12458" gradientUnits="userSpaceOnUse">
<stop offset="0.12" stop-color="#243866"/>
<stop offset="0.54" stop-color="#0075AE"/>
<stop offset="0.9" stop-color="#4042A2"/>
</linearGradient>
<linearGradient id="paint15_linear" x1="8230.17" y1="-7448.27" x2="8157.66" y2="-7552.35" gradientUnits="userSpaceOnUse">
<stop stop-color="#293F71"/>
<stop offset="0.37" stop-color="#335192"/>
<stop offset="0.9" stop-color="#00B3DC"/>
</linearGradient>
<linearGradient id="paint16_linear" x1="376294" y1="-407377" x2="372372" y2="-412118" gradientUnits="userSpaceOnUse">
<stop stop-color="#2B2C6C"/>
<stop offset="0.65" stop-color="#007CB7"/>
<stop offset="0.91" stop-color="#006AAE"/>
</linearGradient>
<radialGradient id="paint17_radial" cx="0" cy="0" r="1" gradientUnits="userSpaceOnUse" gradientTransform="translate(51983.7 -63284.1) rotate(-8.81999) scale(1135.58 1197.28)">
<stop stop-color="#0E113C"/>
<stop offset="0.9" stop-color="#4042A2"/>
</radialGradient>
<radialGradient id="paint18_radial" cx="0" cy="0" r="1" gradientUnits="userSpaceOnUse" gradientTransform="translate(12933.5 -23659.9) rotate(-8.81999) scale(327.819 505.263)">
<stop stop-color="#4042A2"/>
<stop offset="0.9" stop-color="#0E113C"/>
</radialGradient>
<linearGradient id="paint19_linear" x1="89353.7" y1="-106124" x2="88052.8" y2="-107212" gradientUnits="userSpaceOnUse">
<stop stop-color="#2B2C6C"/>
<stop offset="0.65" stop-color="#007CB7"/>
<stop offset="0.91" stop-color="#006AAE"/>
</linearGradient>
<linearGradient id="paint20_linear" x1="325478" y1="-346619" x2="326074" y2="-345914" gradientUnits="userSpaceOnUse">
<stop offset="0.1" stop-color="white"/>
<stop offset="0.72" stop-color="white"/>
</linearGradient>
<linearGradient id="paint21_linear" x1="322994" y1="-363619" x2="320845" y2="-365917" gradientUnits="userSpaceOnUse">
<stop stop-color="#293F71"/>
<stop offset="0.37" stop-color="#335192"/>
<stop offset="0.9" stop-color="#00B3DC"/>
</linearGradient>
<linearGradient id="paint22_linear" x1="84339.2" y1="-67692.2" x2="84182.2" y2="-68048.3" gradientUnits="userSpaceOnUse">
<stop stop-color="#293F71"/>
<stop offset="0.37" stop-color="#335192"/>
<stop offset="0.9" stop-color="#00B3DC"/>
</linearGradient>
<radialGradient id="paint23_radial" cx="0" cy="0" r="1" gradientUnits="userSpaceOnUse" gradientTransform="translate(6790.41 -2973.11) rotate(-8.81996) scale(25.5441 15.319)">
<stop offset="0.28" stop-color="white"/>
<stop offset="0.9" stop-color="white"/>
</radialGradient>
<linearGradient id="paint24_linear" x1="40202.2" y1="-86583.7" x2="40129.9" y2="-86601.2" gradientUnits="userSpaceOnUse">
<stop offset="0.28" stop-color="white"/>
<stop offset="0.9" stop-color="white"/>
</linearGradient>
<linearGradient id="paint25_linear" x1="379702" y1="-447943" x2="387547" y2="-440464" gradientUnits="userSpaceOnUse">
<stop stop-color="white"/>
<stop offset="0.9" stop-color="white"/>
</linearGradient>
<linearGradient id="paint26_linear" x1="259197" y1="-283989" x2="254419" y2="-289235" gradientUnits="userSpaceOnUse">
<stop stop-color="#2B2C6C"/>
<stop offset="0.65" stop-color="#007CB7"/>
<stop offset="0.91" stop-color="#006AAE"/>
</linearGradient>
<linearGradient id="paint27_linear" x1="241948" y1="-247573" x2="243422" y2="-245784" gradientUnits="userSpaceOnUse">
<stop stop-color="white"/>
<stop offset="0.9" stop-color="white"/>
</linearGradient>
<linearGradient id="paint28_linear" x1="283.289" y1="800.268" x2="282.555" y2="815.895" gradientUnits="userSpaceOnUse">
<stop stop-color="#72AFA3"/>
<stop offset="0.18" stop-color="#7CB5A7"/>
<stop offset="0.38" stop-color="#009A82"/>
<stop offset="0.9" stop-color="#046857"/>
</linearGradient>
<linearGradient id="paint29_linear" x1="283.095" y1="824.481" x2="282.84" y2="798.911" gradientUnits="userSpaceOnUse">
<stop stop-color="#376727"/>
<stop offset="0.37" stop-color="#478531"/>
<stop offset="0.9" stop-color="#98C604"/>
</linearGradient>
<linearGradient id="paint30_linear" x1="139.623" y1="804.243" x2="142.202" y2="771.209" gradientUnits="userSpaceOnUse">
<stop stop-color="#065F47"/>
<stop offset="0.51" stop-color="#009A82"/>
<stop offset="1" stop-color="#44A589"/>
</linearGradient>
<linearGradient id="paint31_linear" x1="55036.8" y1="-97366.7" x2="55635" y2="-96036.6" gradientUnits="userSpaceOnUse">
<stop stop-color="#72AFA3"/>
<stop offset="0.18" stop-color="#7CB5A7"/>
<stop offset="0.38" stop-color="#009A82"/>
<stop offset="0.9" stop-color="#046857"/>
</linearGradient>
<radialGradient id="paint32_radial" cx="0" cy="0" r="1" gradientUnits="userSpaceOnUse" gradientTransform="translate(235.29 809.499) rotate(151.894) scale(38.8317)">
<stop stop-color="#376727"/>
<stop offset="0.9" stop-color="#98C604"/>
</radialGradient>
<linearGradient id="paint33_linear" x1="217292" y1="-92843.2" x2="218294" y2="-91553.5" gradientUnits="userSpaceOnUse">
<stop stop-color="#72AFA3"/>
<stop offset="0.18" stop-color="#7CB5A7"/>
<stop offset="0.38" stop-color="#009A82"/>
<stop offset="0.9" stop-color="#046857"/>
</linearGradient>
<linearGradient id="paint34_linear" x1="-828049" y1="378533" x2="-827965" y2="378722" gradientUnits="userSpaceOnUse">
<stop offset="0.1" stop-color="#EBEBEB"/>
<stop offset="0.72" stop-color="#EBEBEB"/>
</linearGradient>
<linearGradient id="paint35_linear" x1="139.189" y1="816.818" x2="141.009" y2="797.9" gradientUnits="userSpaceOnUse">
<stop offset="0.37" stop-color="#007839"/>
<stop offset="0.9" stop-color="#98C604"/>
</linearGradient>
<linearGradient id="paint36_linear" x1="28802.3" y1="-17929.4" x2="28758.5" y2="-18076.8" gradientUnits="userSpaceOnUse">
<stop stop-color="#376727"/>
<stop offset="0.37" stop-color="#478531"/>
<stop offset="0.9" stop-color="#98C604"/>
</linearGradient>
<linearGradient id="paint37_linear" x1="209854" y1="-29068.2" x2="209836" y2="-29267.5" gradientUnits="userSpaceOnUse">
<stop offset="0.37" stop-color="#007839"/>
<stop offset="0.9" stop-color="#98C604"/>
</linearGradient>
<radialGradient id="paint38_radial" cx="0" cy="0" r="1" gradientUnits="userSpaceOnUse" gradientTransform="translate(-15678 4166.73) rotate(151.894) scale(35.5569 22.0632)">
<stop offset="0.28" stop-color="#EBEBEB"/>
<stop offset="0.9" stop-color="#EBEBEB"/>
</radialGradient>
<linearGradient id="paint39_linear" x1="-183010" y1="40702.7" x2="-182999" y2="40602.6" gradientUnits="userSpaceOnUse">
<stop stop-color="#EBEBEB"/>
<stop offset="0.9" stop-color="#EBEBEB"/>
</linearGradient>
<linearGradient id="paint40_linear" x1="-1.03136e+06" y1="435216" x2="-1.03008e+06" y2="438485" gradientUnits="userSpaceOnUse">
<stop stop-color="#EBEBEB"/>
<stop offset="0.9" stop-color="#EBEBEB"/>
</linearGradient>
<linearGradient id="paint41_linear" x1="146.728" y1="810.563" x2="150.896" y2="775.503" gradientUnits="userSpaceOnUse">
<stop offset="0.12" stop-color="#06692B"/>
<stop offset="0.76" stop-color="#009A82"/>
</linearGradient>
<linearGradient id="paint42_linear" x1="-593033" y1="242557" x2="-592730" y2="243333" gradientUnits="userSpaceOnUse">
<stop stop-color="#EBEBEB"/>
<stop offset="0.9" stop-color="#EBEBEB"/>
</linearGradient>
<linearGradient id="paint43_linear" x1="146.748" y1="814.535" x2="148.404" y2="800.975" gradientUnits="userSpaceOnUse">
<stop offset="0.03" stop-color="#646364"/>
<stop offset="0.89" stop-color="#EBEBEB"/>
</linearGradient>
<linearGradient id="paint44_linear" x1="137.006" y1="264.684" x2="141.917" y2="265.635" gradientUnits="userSpaceOnUse">
<stop stop-color="#7F0078"/>
<stop offset="0.65" stop-color="#C30078"/>
<stop offset="0.91" stop-color="#D40078"/>
</linearGradient>
<linearGradient id="paint45_linear" x1="19883.1" y1="-4788.56" x2="19815.4" y2="-4931.79" gradientUnits="userSpaceOnUse">
<stop stop-color="#7F0078"/>
<stop offset="0.65" stop-color="#C30078"/>
<stop offset="0.91" stop-color="#D40078"/>
</linearGradient>
<linearGradient id="paint46_linear" x1="480115" y1="-260258" x2="474580" y2="-265017" gradientUnits="userSpaceOnUse">
<stop stop-color="#7F0078"/>
<stop offset="0.65" stop-color="#C30078"/>
<stop offset="0.91" stop-color="#D40078"/>
</linearGradient>
<radialGradient id="paint47_radial" cx="0" cy="0" r="1" gradientUnits="userSpaceOnUse" gradientTransform="translate(-103166 -93285.1) rotate(-146.47) scale(607.103 329.617)">
<stop stop-color="#7F0078"/>
<stop offset="0.65" stop-color="#C30078"/>
<stop offset="0.91" stop-color="#D40078"/>
</radialGradient>
<linearGradient id="paint48_linear" x1="35265" y1="-12665.9" x2="35347.4" y2="-12665.9" gradientUnits="userSpaceOnUse">
<stop stop-color="#7F0078"/>
<stop offset="0.65" stop-color="#C30078"/>
<stop offset="0.91" stop-color="#D40078"/>
</linearGradient>
<linearGradient id="paint49_linear" x1="143620" y1="-59452.4" x2="142099" y2="-60669.2" gradientUnits="userSpaceOnUse">
<stop stop-color="#7F0078"/>
<stop offset="0.65" stop-color="#C30078"/>
<stop offset="0.91" stop-color="#D40078"/>
</linearGradient>
<linearGradient id="paint50_linear" x1="-151659" y1="-392830" x2="-152656" y2="-392845" gradientUnits="userSpaceOnUse">
<stop offset="0.1" stop-color="white"/>
<stop offset="0.72" stop-color="white"/>
</linearGradient>
<linearGradient id="paint51_linear" x1="354417" y1="-247559" x2="351616" y2="-249254" gradientUnits="userSpaceOnUse">
<stop stop-color="#7F0078"/>
<stop offset="0.65" stop-color="#C30078"/>
<stop offset="0.91" stop-color="#D40078"/>
</linearGradient>
<linearGradient id="paint52_linear" x1="22106.9" y1="-10430.9" x2="22127.1" y2="-10430.9" gradientUnits="userSpaceOnUse">
<stop stop-color="#7F0078"/>
<stop offset="0.65" stop-color="#C30078"/>
<stop offset="0.91" stop-color="#D40078"/>
</linearGradient>
<linearGradient id="paint53_linear" x1="122748" y1="-48556.8" x2="122432" y2="-49139.5" gradientUnits="userSpaceOnUse">
<stop stop-color="#7F0078"/>
<stop offset="0.65" stop-color="#C30078"/>
<stop offset="0.91" stop-color="#D40078"/>
</linearGradient>
<radialGradient id="paint54_radial" cx="0" cy="0" r="1" gradientUnits="userSpaceOnUse" gradientTransform="translate(-5750.68 -7028.11) rotate(-146.47) scale(23.7608 29.1493)">
<stop offset="0.28" stop-color="white"/>
<stop offset="0.9" stop-color="white"/>
</radialGradient>
<linearGradient id="paint55_linear" x1="15835.3" y1="-53211.3" x2="15852.8" y2="-53201.5" gradientUnits="userSpaceOnUse">
<stop offset="0.28" stop-color="white"/>
<stop offset="0.9" stop-color="white"/>
</linearGradient>
<linearGradient id="paint56_linear" x1="-151173" y1="-468675" x2="-161122" y2="-469897" gradientUnits="userSpaceOnUse">
<stop stop-color="white"/>
<stop offset="0.9" stop-color="white"/>
</linearGradient>
<linearGradient id="paint57_linear" x1="362035" y1="-170522" x2="355815" y2="-176102" gradientUnits="userSpaceOnUse">
<stop stop-color="#7F0078"/>
<stop offset="0.65" stop-color="#C30078"/>
<stop offset="0.91" stop-color="#D40078"/>
</linearGradient>
<linearGradient id="paint58_linear" x1="-141238" y1="-293924" x2="-143904" y2="-293761" gradientUnits="userSpaceOnUse">
<stop stop-color="white"/>
<stop offset="0.9" stop-color="white"/>
</linearGradient>
<linearGradient id="paint59_linear" x1="8338.28" y1="-12123.2" x2="8312.28" y2="-12118.1" gradientUnits="userSpaceOnUse">
<stop stop-color="#5C0000"/>
<stop offset="0.65" stop-color="#BD0000"/>
<stop offset="0.91" stop-color="#EF0000"/>
</linearGradient>
<linearGradient id="paint60_linear" x1="9162.15" y1="-8506.88" x2="9058.04" y2="-8581.21" gradientUnits="userSpaceOnUse">
<stop stop-color="#5C0000"/>
<stop offset="0.65" stop-color="#BD0000"/>
<stop offset="0.91" stop-color="#EF0000"/>
</linearGradient>
<linearGradient id="paint61_linear" x1="587933" y1="-360673" x2="586577" y2="-362608" gradientUnits="userSpaceOnUse">
<stop stop-color="#5C0000"/>
<stop offset="0.65" stop-color="#BD0000"/>
<stop offset="0.91" stop-color="#EF0000"/>
</linearGradient>
<radialGradient id="paint62_radial" cx="0" cy="0" r="1" gradientUnits="userSpaceOnUse" gradientTransform="translate(13946.2 -55780.4) rotate(-25.575) scale(172.669 511.684)">
<stop stop-color="#5C0000"/>
<stop offset="0.65" stop-color="#BD0000"/>
<stop offset="0.91" stop-color="#EF0000"/>
</radialGradient>
<linearGradient id="paint63_linear" x1="19692.2" y1="-19557.7" x2="19753.5" y2="-19587.1" gradientUnits="userSpaceOnUse">
<stop stop-color="#5C0000"/>
<stop offset="0.65" stop-color="#BD0000"/>
<stop offset="0.91" stop-color="#EF0000"/>
</linearGradient>
<linearGradient id="paint64_linear" x1="124550" y1="-105657" x2="123343" y2="-106476" gradientUnits="userSpaceOnUse">
<stop stop-color="#5C0000"/>
<stop offset="0.65" stop-color="#BD0000"/>
<stop offset="0.91" stop-color="#EF0000"/>
</linearGradient>
<linearGradient id="paint65_linear" x1="574349" y1="-305849" x2="574435" y2="-305700" gradientUnits="userSpaceOnUse">
<stop offset="0.1" stop-color="white"/>
<stop offset="0.72" stop-color="white"/>
</linearGradient>
<linearGradient id="paint66_linear" x1="594482" y1="-319452" x2="594156" y2="-320008" gradientUnits="userSpaceOnUse">
<stop stop-color="#5C0000"/>
<stop offset="0.65" stop-color="#BD0000"/>
<stop offset="0.91" stop-color="#EF0000"/>
</linearGradient>
<linearGradient id="paint67_linear" x1="17614.2" y1="-15237.4" x2="17635" y2="-15247.4" gradientUnits="userSpaceOnUse">
<stop stop-color="#5C0000"/>
<stop offset="0.65" stop-color="#BD0000"/>
<stop offset="0.91" stop-color="#EF0000"/>
</linearGradient>
<linearGradient id="paint68_linear" x1="120480" y1="-81774.7" x2="120328" y2="-81996.2" gradientUnits="userSpaceOnUse">
<stop stop-color="#5C0000"/>
<stop offset="0.65" stop-color="#BD0000"/>
<stop offset="0.91" stop-color="#EF0000"/>
</linearGradient>
<radialGradient id="paint69_radial" cx="0" cy="0" r="1" gradientUnits="userSpaceOnUse" gradientTransform="translate(9302.94 -6050.64) rotate(-25.5749) scale(27.0989 17.7329)">
<stop offset="0.28" stop-color="white"/>
<stop offset="0.9" stop-color="white"/>
</radialGradient>
<linearGradient id="paint70_linear" x1="118169" y1="-71616.6" x2="118129" y2="-71654.5" gradientUnits="userSpaceOnUse">
<stop offset="0.28" stop-color="white"/>
<stop offset="0.9" stop-color="white"/>
</linearGradient>
<linearGradient id="paint71_linear" x1="711048" y1="-375746" x2="711986" y2="-374121" gradientUnits="userSpaceOnUse">
<stop stop-color="white"/>
<stop offset="0.9" stop-color="white"/>
</linearGradient>
<linearGradient id="paint72_linear" x1="373762" y1="-248263" x2="371554" y2="-250942" gradientUnits="userSpaceOnUse">
<stop stop-color="#5C0000"/>
<stop offset="0.65" stop-color="#BD0000"/>
<stop offset="0.91" stop-color="#EF0000"/>
</linearGradient>
<linearGradient id="paint73_linear" x1="391693" y1="-225697" x2="392089" y2="-225088" gradientUnits="userSpaceOnUse">
<stop stop-color="white"/>
<stop offset="0.9" stop-color="white"/>
</linearGradient>
</defs>
</svg>
