<svg width="834" height="1194" viewBox="0 0 834 1194" fill="none" xmlns="http://www.w3.org/2000/svg">
<g id="fallenpencilstablet" clip-path="url(#clip0)">
<g id="1pinkcrayon">
<path id="Vector" d="M501.995 840.276C505.204 839.712 505.415 841.691 505.415 841.691C504.895 842.954 504.081 844.075 503.039 844.958C502.307 845.466 501.456 845.776 500.569 845.859C499.682 845.942 498.788 845.795 497.974 845.432C497.03 844.1 498.953 840.821 501.995 840.276Z" fill="#D40078"/>
<path id="Vector_2" d="M397.35 582.317C400.285 579.222 403.545 576.551 407.676 575.254C410.276 574.44 414.161 573.595 416.884 574.133C416.884 574.133 428.272 576.411 431.418 582.469L505.573 789.826C505.573 789.826 492.985 781.079 479.907 789.533C468.51 796.907 467.655 802.974 467.655 802.974C467.655 802.974 392.705 594.753 392.573 594.48C391.002 590.145 394.616 585.192 397.35 582.317Z" fill="#D40078"/>
<path id="Vector_3" d="M479.938 789.547C493.009 781.089 505.604 789.84 505.604 789.84C505.834 790.22 505.955 790.656 505.953 791.1C505.952 791.544 505.828 791.979 505.595 792.357C504.776 793.602 469.061 804.995 469.061 804.995C468.491 804.41 468.026 803.731 467.686 802.988C467.686 802.988 468.541 796.921 479.938 789.547Z" fill="#D40078"/>
<path id="Vector_4" d="M482.696 791.594C493.777 785.677 505.595 792.357 505.595 792.357L505.408 841.707C505.408 841.707 505.191 839.743 501.988 840.292C498.786 840.84 497.023 844.116 497.936 845.434C497.65 845.309 497.383 845.144 497.143 844.944C495.769 843.824 474.717 813.216 469.054 805.011C469.959 803.001 473.431 796.529 482.696 791.594Z" fill="#D40078"/>
<path id="Vector_5" style="mix-blend-mode:multiply" opacity="0.8" d="M472.628 795.343C468.142 799.836 467.682 802.977 467.682 802.977C467.682 802.977 392.705 594.753 392.573 594.48C391.018 590.151 394.616 585.192 397.35 582.317L472.628 795.343Z" fill="#D8C3AD"/>
<path id="Vector_6" style="mix-blend-mode:multiply" opacity="0.8" d="M473.839 798.25L499.918 841.153C498.132 842.364 497.243 844.465 497.929 845.449C497.643 845.325 497.376 845.16 497.136 844.96C495.762 843.84 474.71 813.231 469.047 805.027C470.252 802.514 471.872 800.223 473.839 798.25V798.25Z" fill="#D8C3AD"/>
<path id="Vector_7" style="mix-blend-mode:overlay" opacity="0.5" d="M493.141 789.151L493.628 785.929L414.394 573.997C415.232 573.962 416.072 574.019 416.897 574.167C418.133 574.436 419.354 574.771 420.553 575.173L497.025 786.382L496.687 789.455L501.995 840.276C501.375 840.386 500.781 840.612 500.244 840.942V840.942L493.141 789.151Z" fill="white"/>
<path id="Vector_8" d="M494.945 759.193L497.076 765.158C491.143 762.857 472.437 757.818 458.539 777.995L456.807 773.178C470.092 753.057 488.077 756.788 494.945 759.193Z" fill="black"/>
<path id="Vector_9" d="M444.636 618.578L446.749 624.479C441.834 622.516 422.043 616.381 407.873 637.344L406.119 632.471C419.654 611.676 438.573 616.361 444.636 618.578Z" fill="black"/>
</g>
<g id="1darkgreencrayon">
<path id="Vector_10" d="M376.514 947.605C377.205 944.42 379.117 944.973 379.117 944.973C380.09 945.931 380.819 947.109 381.244 948.407C381.437 949.276 381.403 950.181 381.144 951.034C380.886 951.887 380.412 952.659 379.769 953.275C378.179 953.646 375.869 950.627 376.514 947.605Z" fill="#057744"/>
<path id="Vector_11" d="M98.1387 947.034C96.3818 943.148 95.141 939.119 95.5005 934.805C95.7293 932.09 96.4143 928.174 97.9414 925.856C97.9414 925.856 104.353 916.173 111.15 915.548L331.155 925.231C331.155 925.231 318.301 933.581 321.187 948.884C323.709 962.223 329.003 965.307 329.003 965.307C329.003 965.307 107.898 956.033 107.595 956.052C102.988 955.869 99.7674 950.652 98.1387 947.034Z" fill="#057744"/>
<path id="Vector_12" d="M321.212 948.86C318.319 933.563 331.18 925.207 331.18 925.207C331.618 925.138 332.068 925.191 332.478 925.36C332.889 925.529 333.245 925.809 333.508 926.167C334.35 927.396 331.406 964.769 331.406 964.769C330.648 965.075 329.844 965.249 329.028 965.283C329.028 965.283 323.734 962.199 321.212 948.86Z" fill="#057744"/>
<path id="Vector_13" d="M324.15 947.081C322.858 934.586 333.508 926.167 333.508 926.167L379.129 944.986C379.129 944.986 377.229 944.445 376.526 947.617C375.824 950.789 378.191 953.659 379.756 953.312C379.533 953.529 379.279 953.714 379.003 953.86C377.448 954.709 341.154 962.637 331.418 964.781C329.899 963.183 325.218 957.524 324.15 947.081Z" fill="#057744"/>
<path id="Vector_14" style="mix-blend-mode:multiply" opacity="0.8" d="M323.816 957.819C326.282 963.67 329.016 965.282 329.016 965.282C329.016 965.282 107.898 956.033 107.595 956.052C103 955.857 99.7673 950.652 98.1386 947.034L323.816 957.819Z" fill="#D8C3AD"/>
<path id="Vector_15" style="mix-blend-mode:multiply" opacity="0.8" d="M326.965 957.796L376.541 949.859C376.988 951.97 378.597 953.587 379.768 953.324C379.544 953.542 379.291 953.726 379.015 953.873C377.459 954.722 341.166 962.649 331.429 964.793C329.558 962.728 328.049 960.363 326.965 957.796V957.796Z" fill="#D8C3AD"/>
<path id="Vector_16" style="mix-blend-mode:overlay" opacity="0.5" d="M325.834 936.487L323.035 934.818L96.8748 928.109C97.1586 927.32 97.5285 926.565 97.9778 925.857C98.6934 924.814 99.4654 923.81 100.29 922.852L324.737 931.845L327.454 933.318L376.514 947.605C376.382 948.22 376.367 948.856 376.47 949.477V949.477L325.834 936.487Z" fill="white"/>
<path id="Vector_17" d="M298.777 923.498L305.105 923.778C300.734 928.403 289 943.818 302.432 964.309L297.317 964.093C283.706 944.191 293.956 928.949 298.777 923.498Z" fill="black"/>
<path id="Vector_18" d="M149.577 916.952L155.839 917.225C152.165 921.034 139.007 937.041 153.063 958.081L147.888 957.863C133.748 937.475 145.233 921.729 149.577 916.952Z" fill="black"/>
</g>
<g id="1darkgreencrayon2">
<path id="Vector_19" d="M740.946 573.399C743.941 572.114 744.599 573.992 744.599 573.992C744.383 575.341 743.847 576.618 743.036 577.717C742.439 578.379 741.682 578.876 740.838 579.16C739.993 579.444 739.089 579.506 738.214 579.339C736.99 578.259 738.11 574.626 740.946 573.399Z" fill="#057744"/>
<path id="Vector_20" d="M579.962 346.292C582.108 342.607 584.67 339.26 588.393 337.051C590.738 335.663 594.326 333.949 597.099 333.849C597.099 333.849 608.707 333.456 613.157 338.632L732.865 523.471C732.865 523.471 718.608 517.842 707.816 529.069C698.412 538.86 698.97 544.961 698.97 544.961C698.97 544.961 578.29 359.462 578.099 359.226C575.576 355.367 577.959 349.717 579.962 346.292Z" fill="#057744"/>
<path id="Vector_21" d="M707.849 529.075C718.633 517.847 732.899 523.478 732.899 523.478C733.21 523.795 733.427 524.192 733.528 524.624C733.628 525.057 733.607 525.509 733.467 525.93C732.955 527.33 700.802 546.606 700.802 546.606C700.113 546.167 699.505 545.612 699.004 544.967C699.004 544.967 698.446 538.866 707.849 529.075Z" fill="#057744"/>
<path id="Vector_22" d="M711.003 530.437C720.433 522.137 733.467 525.931 733.467 525.931L744.596 574.009C744.596 574.009 743.935 572.148 740.943 573.416C737.951 574.684 736.987 578.276 738.177 579.35C737.87 579.294 737.573 579.194 737.294 579.055C735.7 578.28 708.192 553.311 700.799 546.623C701.219 544.459 703.115 537.363 711.003 530.437Z" fill="#057744"/>
<path id="Vector_23" style="mix-blend-mode:multiply" opacity="0.8" d="M702.062 536.393C698.726 541.795 698.997 544.957 698.997 544.957C698.997 544.957 578.29 359.462 578.099 359.226C575.593 355.37 577.959 349.717 579.962 346.292L702.062 536.393Z" fill="#D8C3AD"/>
<path id="Vector_24" style="mix-blend-mode:multiply" opacity="0.8" d="M703.907 538.945L739.125 574.728C737.665 576.316 737.28 578.565 738.174 579.366C737.867 579.31 737.569 579.211 737.29 579.071C735.696 578.296 708.189 553.328 700.796 546.64C701.393 543.918 702.445 541.317 703.907 538.945V538.945Z" fill="#D8C3AD"/>
<path id="Vector_25" style="mix-blend-mode:overlay" opacity="0.5" d="M720.61 525.664L720.346 522.417L594.645 334.287C595.452 334.061 596.282 333.924 597.12 333.879C598.385 333.857 599.65 333.904 600.909 334.02L723.755 522.078L724.131 525.147L740.946 573.399C740.368 573.648 739.841 574.004 739.395 574.448V574.448L720.61 525.664Z" fill="white"/>
<path id="Vector_26" d="M715.499 496.09L718.941 501.407C712.638 500.529 693.275 499.911 684.372 522.737L681.582 518.445C689.901 495.814 708.262 495.324 715.499 496.09Z" fill="black"/>
<path id="Vector_27" d="M634.3 370.75L637.709 376.009C632.475 375.225 611.804 373.79 602.817 397.443L599.992 393.101C608.401 369.757 627.889 369.981 634.3 370.75Z" fill="black"/>
</g>
<g id="1yellowcrayon">
<path id="Vector_28" d="M294.214 285.635C296.463 283.276 297.806 284.745 297.806 284.745C298.138 286.07 298.147 287.455 297.833 288.784C297.545 289.627 297.044 290.382 296.379 290.975C295.714 291.568 294.907 291.98 294.037 292.171C292.487 291.659 292.089 287.878 294.214 285.635Z" fill="#EFE35E"/>
<path id="Vector_29" d="M56.9174 140.089C57.4429 135.857 58.4829 131.772 61.038 128.277C62.6482 126.079 65.2734 123.093 67.7846 121.911C67.7846 121.911 78.3031 116.987 84.4298 119.996L267.158 242.903C267.158 242.903 251.836 243.331 246.326 257.896C241.528 270.595 244.439 275.986 244.439 275.986C244.439 275.986 60.5571 152.855 60.2891 152.714C56.4521 150.156 56.4222 144.026 56.9174 140.089Z" fill="#EFE35E"/>
<path id="Vector_30" d="M246.359 257.889C251.861 243.326 267.192 242.895 267.192 242.895C267.602 243.065 267.958 243.344 268.221 243.703C268.483 244.061 268.641 244.485 268.679 244.927C268.757 246.416 246.77 276.779 246.77 276.779C245.964 276.645 245.187 276.375 244.472 275.978C244.472 275.978 241.561 270.588 246.359 257.889Z" fill="#EFE35E"/>
<path id="Vector_31" d="M249.794 257.901C255.202 246.563 268.679 244.927 268.679 244.927L297.81 284.762C297.81 284.762 296.47 283.31 294.218 285.652C291.966 287.993 292.491 291.676 294.007 292.195C293.703 292.264 293.39 292.29 293.079 292.271C291.309 292.185 256.201 280.039 246.774 276.795C246.31 274.64 245.264 267.371 249.794 257.901Z" fill="#EFE35E"/>
<path id="Vector_32" style="mix-blend-mode:multiply" opacity="0.8" d="M243.914 266.893C242.97 273.171 244.462 275.972 244.462 275.972C244.462 275.972 60.557 152.855 60.289 152.714C56.4687 150.153 56.4222 144.026 56.9174 140.089L243.914 266.893Z" fill="#D8C3AD"/>
<path id="Vector_33" style="mix-blend-mode:multiply" opacity="0.8" d="M246.613 268.514L293.062 287.573C292.344 289.607 292.874 291.827 294.011 292.212C293.707 292.281 293.394 292.307 293.082 292.288C291.312 292.202 256.205 280.056 246.777 276.812C246.256 274.075 246.201 271.269 246.613 268.514V268.514Z" fill="#D8C3AD"/>
<path id="Vector_34" style="mix-blend-mode:overlay" opacity="0.5" d="M256.751 249.737L255.232 246.854L65.6999 123.278C66.3534 122.753 67.0628 122.301 67.8153 121.93C68.9696 121.413 70.1512 120.959 71.355 120.571L258.234 245.203L259.786 247.877L294.214 285.635C293.78 286.091 293.436 286.626 293.2 287.21V287.21L256.751 249.737Z" fill="white"/>
<path id="Vector_35" d="M240.427 224.552L245.682 228.088C239.541 229.758 221.494 236.801 222.28 261.289L218.027 258.439C216.781 234.36 233.472 226.692 240.427 224.552Z" fill="black"/>
<path id="Vector_36" d="M116.495 141.218L121.698 144.714C116.577 146.051 97.0055 152.856 98.0388 178.138L93.7353 175.256C92.2911 150.486 110.299 143.031 116.495 141.218Z" fill="black"/>
</g>
<g id="1orangecrayon2">
<path id="Vector_37" d="M601.652 939.122C598.923 937.342 597.951 939.079 597.951 939.079C597.932 940.444 598.24 941.795 598.85 943.016C599.324 943.771 599.984 944.391 600.767 944.816C601.55 945.241 602.43 945.458 603.321 945.444C604.713 944.591 604.234 940.819 601.652 939.122Z" fill="#F7A516"/>
<path id="Vector_38" d="M799.31 743.101C797.83 739.101 795.882 735.364 792.594 732.547C790.523 730.775 787.284 728.471 784.569 727.895C784.569 727.895 773.202 725.511 767.928 729.843L618.202 891.33C618.202 891.33 633.215 888.238 641.915 901.154C649.494 912.416 647.894 918.331 647.894 918.331C647.894 918.331 798.691 756.362 798.919 756.162C802.069 752.794 800.694 746.82 799.31 743.101Z" fill="#F7A516"/>
<path id="Vector_39" d="M641.881 901.154C633.19 888.238 618.168 891.33 618.168 891.33C617.807 891.589 617.525 891.943 617.351 892.352C617.178 892.761 617.121 893.209 617.186 893.649C617.45 895.115 645.807 919.636 645.807 919.636C646.561 919.322 647.255 918.88 647.86 918.331C647.86 918.331 649.46 912.417 641.881 901.154Z" fill="#F7A516"/>
<path id="Vector_40" d="M638.54 901.953C630.679 892.155 617.186 893.649 617.186 893.649L597.951 939.096C597.951 939.096 598.923 937.376 601.652 939.14C604.38 940.903 604.713 944.608 603.355 945.461C603.667 945.458 603.978 945.412 604.277 945.322C605.98 944.833 637.373 924.97 645.807 919.653C645.765 917.449 645.118 910.133 638.54 901.953Z" fill="#F7A516"/>
<path id="Vector_41" style="mix-blend-mode:multiply" opacity="0.8" d="M646.323 909.359C648.68 915.254 647.868 918.322 647.868 918.322C647.868 918.322 798.691 756.362 798.919 756.162C802.052 752.794 800.694 746.82 799.31 743.101L646.323 909.359Z" fill="#D8C3AD"/>
<path id="Vector_42" style="mix-blend-mode:multiply" opacity="0.8" d="M644.066 911.555L603.217 940.745C604.382 942.561 604.374 944.843 603.356 945.478C603.668 945.475 603.978 945.429 604.277 945.339C605.98 944.85 637.373 924.987 645.807 919.67C645.687 916.886 645.099 914.143 644.066 911.555V911.555Z" fill="#D8C3AD"/>
<path id="Vector_43" style="mix-blend-mode:overlay" opacity="0.5" d="M629.898 895.599L630.716 892.445L786.911 728.748C786.155 728.386 785.361 728.109 784.544 727.921C783.301 727.681 782.047 727.51 780.786 727.408L627.416 891.525L626.518 894.483L601.652 939.122C602.179 939.467 602.636 939.909 602.999 940.423V940.423L629.898 895.599Z" fill="white"/>
<path id="Vector_44" d="M640.021 867.345L635.715 871.991C642.075 872.21 661.256 874.932 666.099 898.95L669.586 895.202C665.284 871.477 647.281 867.835 640.021 867.345Z" fill="black"/>
<path id="Vector_45" d="M741.574 757.844L737.311 762.438C742.602 762.567 763.212 764.709 767.996 789.556L771.525 785.765C767.258 761.323 748.021 758.19 741.574 757.844Z" fill="black"/>
</g>
<g id="1redcrayon2">
<path id="Vector_46" d="M585.811 1072.55C585.718 1069.3 587.707 1069.38 587.707 1069.38C588.881 1070.07 589.872 1071.04 590.595 1072.2C590.991 1073 591.174 1073.89 591.127 1074.78C591.081 1075.67 590.806 1076.53 590.329 1077.28C588.874 1078.02 585.908 1075.64 585.811 1072.55Z" fill="#ED0000"/>
<path id="Vector_47" d="M315.404 1138.69C312.767 1135.33 310.597 1131.72 309.913 1127.45C309.485 1124.76 309.212 1120.79 310.139 1118.17C310.139 1118.17 314.044 1107.24 320.494 1105L536.412 1061.7C536.412 1061.7 525.932 1072.88 532.401 1087.05C538.045 1099.4 543.923 1101.12 543.923 1101.12C543.923 1101.12 327.034 1145.09 326.745 1145.18C322.228 1146.1 317.852 1141.81 315.404 1138.69Z" fill="#ED0000"/>
<path id="Vector_48" d="M532.419 1087.02C525.946 1072.86 536.431 1061.67 536.431 1061.67C536.84 1061.5 537.289 1061.44 537.728 1061.51C538.167 1061.57 538.58 1061.76 538.92 1062.04C540.033 1063.04 546.127 1100.02 546.127 1100.02C545.465 1100.5 544.726 1100.87 543.942 1101.09C543.942 1101.09 538.063 1099.37 532.419 1087.02Z" fill="#ED0000"/>
<path id="Vector_49" d="M534.845 1084.59C530.597 1072.77 538.921 1062.04 538.921 1062.04L587.721 1069.39C587.721 1069.39 585.747 1069.32 585.825 1072.56C585.904 1075.81 588.889 1078.03 590.325 1077.32C590.16 1077.58 589.958 1077.82 589.726 1078.03C588.419 1079.23 555.081 1095.62 546.142 1100.03C544.284 1098.85 538.384 1094.47 534.845 1084.59Z" fill="#ED0000"/>
<path id="Vector_50" style="mix-blend-mode:multiply" opacity="0.8" d="M537.094 1095.1C540.889 1100.19 543.93 1101.1 543.93 1101.1C543.93 1101.1 327.034 1145.09 326.745 1145.18C322.237 1146.09 317.852 1141.81 315.404 1138.69L537.094 1095.1Z" fill="#D8C3AD"/>
<path id="Vector_51" style="mix-blend-mode:multiply" opacity="0.8" d="M540.146 1094.32L586.377 1074.74C587.316 1076.68 589.266 1077.86 590.34 1077.33C590.175 1077.59 589.973 1077.83 589.74 1078.04C588.433 1079.24 555.095 1095.63 546.156 1100.04C543.845 1098.49 541.813 1096.55 540.146 1094.32V1094.32Z" fill="#D8C3AD"/>
<path id="Vector_52" style="mix-blend-mode:overlay" opacity="0.5" d="M533.942 1073.9L530.825 1072.95L309.643 1120.62C309.73 1119.78 309.908 1118.96 310.174 1118.16C310.619 1116.98 311.128 1115.82 311.7 1114.69L531.765 1069.66L534.757 1070.44L585.811 1072.55C585.829 1073.18 585.967 1073.8 586.216 1074.38V1074.38L533.942 1073.9Z" fill="white"/>
<path id="Vector_53" d="M504.562 1067.77L510.773 1066.53C507.637 1072.07 499.938 1089.84 517.887 1106.52L512.869 1107.54C494.887 1091.47 501.187 1074.22 504.562 1067.77Z" fill="black"/>
<path id="Vector_54" d="M358.138 1097.16L364.283 1095.92C361.628 1100.5 352.688 1119.2 371.375 1136.26L366.299 1137.28C347.686 1120.88 355.065 1102.84 358.138 1097.16Z" fill="black"/>
</g>
<g id="1redcrayon">
<path id="Vector_55" d="M393.899 390.56C390.961 389.151 390.224 391 390.224 391C390.383 392.356 390.865 393.654 391.629 394.786C392.197 395.473 392.933 396.001 393.764 396.321C394.596 396.64 395.496 396.74 396.378 396.61C397.647 395.583 396.681 391.906 393.899 390.56Z" fill="#ED0000"/>
<path id="Vector_56" d="M564.308 170.437C562.318 166.665 559.899 163.213 556.273 160.849C553.988 159.363 550.476 157.5 547.709 157.283C547.709 157.283 536.129 156.402 531.464 161.385L404.076 341.018C404.076 341.018 418.557 335.994 428.867 347.666C437.85 357.844 437.035 363.916 437.035 363.916C437.035 363.916 565.423 183.665 565.623 183.438C568.307 179.688 566.164 173.944 564.308 170.437Z" fill="#ED0000"/>
<path id="Vector_57" d="M428.833 347.67C418.532 335.998 404.042 341.022 404.042 341.022C403.718 341.326 403.484 341.713 403.365 342.141C403.247 342.57 403.249 343.022 403.37 343.449C403.824 344.869 435.136 365.482 435.136 365.482C435.842 365.072 436.473 364.544 437.001 363.921C437.001 363.921 437.816 357.848 428.833 347.67Z" fill="#ED0000"/>
<path id="Vector_58" d="M425.625 348.898C416.554 340.208 403.37 343.449 403.37 343.449L390.226 391.017C390.226 391.017 390.966 389.185 393.901 390.577C396.837 391.97 397.649 395.6 396.414 396.623C396.724 396.579 397.025 396.493 397.31 396.365C398.935 395.658 427.47 371.87 435.138 365.499C434.809 363.32 433.214 356.15 425.625 348.898Z" fill="#ED0000"/>
<path id="Vector_59" style="mix-blend-mode:multiply" opacity="0.8" d="M434.307 355.225C437.413 360.763 437.009 363.911 437.009 363.911C437.009 363.911 565.423 183.665 565.623 183.438C568.29 179.69 566.164 173.944 564.308 170.437L434.307 355.225Z" fill="#D8C3AD"/>
<path id="Vector_60" style="mix-blend-mode:multiply" opacity="0.8" d="M432.356 357.697L395.662 391.965C397.054 393.613 397.344 395.877 396.417 396.639C396.726 396.596 397.027 396.51 397.312 396.382C398.937 395.675 427.472 371.887 435.141 365.516C434.659 362.772 433.718 360.128 432.356 357.697V357.697Z" fill="#D8C3AD"/>
<path id="Vector_61" style="mix-blend-mode:overlay" opacity="0.5" d="M416.228 343.725L416.628 340.491L550.143 157.824C549.346 157.564 548.522 157.392 547.687 157.312C546.425 157.237 545.159 157.231 543.896 157.293L413.236 340.009L412.732 343.06L393.899 390.56C394.466 390.834 394.977 391.211 395.405 391.674V391.674L416.228 343.725Z" fill="white"/>
<path id="Vector_62" d="M422.58 314.392L418.917 319.56C425.251 318.947 444.623 319.146 452.557 342.326L455.525 338.156C448.167 315.195 429.842 313.932 422.58 314.392Z" fill="black"/>
<path id="Vector_63" d="M508.987 192.584L505.359 197.695C510.622 197.132 531.335 196.569 539.318 220.579L542.323 216.36C534.905 192.683 515.424 192.086 508.987 192.584Z" fill="black"/>
</g>
<g id="1darkbluecrayon2">
<path id="Vector_64" d="M57.0982 675.582C54.7537 673.318 53.4722 674.841 53.4722 674.841C53.1959 676.179 53.2442 677.563 53.6131 678.878C53.9363 679.708 54.468 680.441 55.157 681.007C55.8459 681.572 56.6689 681.95 57.5464 682.105C59.0741 681.529 59.3149 677.735 57.0982 675.582Z" fill="#2B2C6C"/>
<path id="Vector_65" d="M288.153 520.318C287.453 516.111 286.244 512.073 283.546 508.687C281.846 506.557 279.1 503.683 276.541 502.606C276.541 502.606 265.828 498.123 259.831 501.383L82.3581 631.764C82.3581 631.764 97.685 631.556 103.795 645.88C109.116 658.369 106.43 663.876 106.43 663.876C106.43 663.876 285.046 533.224 285.308 533.071C289.036 530.357 288.811 524.23 288.153 520.318Z" fill="#2B2C6C"/>
<path id="Vector_66" d="M103.761 645.874C97.6597 631.552 82.3244 631.758 82.3244 631.758C81.9213 631.944 81.5772 632.238 81.33 632.607C81.0828 632.976 80.942 633.406 80.9231 633.85C80.9063 635.34 104.134 664.765 104.134 664.765C104.934 664.598 105.699 664.296 106.397 663.87C106.397 663.87 109.082 658.363 103.761 645.874Z" fill="#2B2C6C"/>
<path id="Vector_67" d="M100.33 646.029C94.456 634.925 80.9231 633.85 80.9231 633.85L53.4692 674.858C53.4692 674.858 54.7476 673.352 57.0952 675.598C59.4427 677.845 59.0711 681.546 57.5771 682.128C57.8841 682.184 58.1975 682.197 58.508 682.165C60.2732 682.006 94.8468 668.414 104.131 664.782C104.505 662.609 105.249 655.302 100.33 646.029Z" fill="#2B2C6C"/>
<path id="Vector_68" style="mix-blend-mode:multiply" opacity="0.8" d="M106.578 654.769C107.782 661.003 106.407 663.863 106.407 663.863C106.407 663.863 285.046 533.224 285.308 533.071C289.019 530.354 288.811 524.23 288.153 520.317L106.578 654.769Z" fill="#D8C3AD"/>
<path id="Vector_69" style="mix-blend-mode:multiply" opacity="0.8" d="M103.948 656.5L58.3294 677.47C59.132 679.473 58.6938 681.712 57.5741 682.144C57.881 682.201 58.1944 682.213 58.505 682.182C60.2701 682.022 94.8437 668.43 104.128 664.798C104.535 662.042 104.474 659.237 103.948 656.5V656.5Z" fill="#D8C3AD"/>
<path id="Vector_70" style="mix-blend-mode:overlay" opacity="0.5" d="M93.0396 638.16L94.4381 635.217L278.681 503.886C278.006 503.387 277.279 502.965 276.512 502.626C275.337 502.157 274.137 501.753 272.918 501.415L91.3703 633.692L89.9309 636.428L57.0983 675.582C57.5509 676.02 57.9168 676.539 58.1768 677.113V677.113L93.0396 638.16Z" fill="white"/>
<path id="Vector_71" d="M108.305 612.32L103.201 616.071C109.406 617.485 127.73 623.773 127.961 648.273L132.091 645.249C132.338 621.139 115.343 614.17 108.305 612.32Z" fill="black"/>
<path id="Vector_72" d="M228.673 523.917L223.621 527.626C228.793 528.749 248.629 534.737 248.646 560.04L252.826 556.981C253.241 532.173 234.94 525.472 228.673 523.917Z" fill="black"/>
</g>
</g>
<defs>
<clipPath id="clip0">
<rect width="834" height="1194" fill="white"/>
</clipPath>
</defs>
</svg>
