<svg width="414" height="896" viewBox="0 0 414 896" fill="none" xmlns="http://www.w3.org/2000/svg">
<g id="fallenpencilsmobile" clip-path="url(#clip0)">
<g id="1pinkcrayon">
<path id="Vector" d="M335.193 535.45C337.249 535.089 337.383 536.357 337.383 536.357C337.051 537.166 336.529 537.884 335.862 538.45C335.392 538.775 334.847 538.974 334.279 539.027C333.711 539.08 333.138 538.986 332.617 538.753C332.012 537.9 333.244 535.799 335.193 535.45Z" fill="#D40078"/>
<path id="Vector_2" d="M268.149 370.182C270.029 368.199 272.118 366.488 274.765 365.657C276.431 365.136 278.919 364.594 280.664 364.939C280.664 364.939 287.96 366.398 289.976 370.279L337.485 503.128C337.485 503.128 329.42 497.524 321.042 502.94C313.74 507.665 313.192 511.552 313.192 511.552C313.192 511.552 265.173 378.149 265.089 377.974C264.082 375.197 266.397 372.024 268.149 370.182Z" fill="#D40078"/>
<path id="Vector_3" d="M321.062 502.949C329.435 497.531 337.505 503.137 337.505 503.137C337.652 503.38 337.73 503.66 337.729 503.944C337.728 504.229 337.648 504.507 337.499 504.75C336.974 505.547 314.092 512.847 314.092 512.847C313.727 512.471 313.43 512.037 313.212 511.561C313.212 511.561 313.76 507.674 321.062 502.949Z" fill="#D40078"/>
<path id="Vector_4" d="M322.828 504.261C329.928 500.47 337.499 504.75 337.499 504.75L337.379 536.367C337.379 536.367 337.24 535.109 335.188 535.46C333.136 535.812 332.007 537.91 332.592 538.755C332.409 538.675 332.238 538.569 332.084 538.441C331.204 537.724 317.717 518.113 314.088 512.857C314.668 511.569 316.892 507.422 322.828 504.261Z" fill="#D40078"/>
<path id="Vector_5" style="mix-blend-mode:multiply" opacity="0.8" d="M316.378 506.663C313.504 509.541 313.209 511.553 313.209 511.553C313.209 511.553 265.173 378.149 265.089 377.974C264.092 375.201 266.397 372.024 268.149 370.182L316.378 506.663Z" fill="#D8C3AD"/>
<path id="Vector_6" style="mix-blend-mode:multiply" opacity="0.8" d="M317.154 508.525L333.862 536.012C332.718 536.788 332.148 538.134 332.588 538.765C332.404 538.685 332.233 538.579 332.08 538.451C331.2 537.734 317.712 518.123 314.084 512.867C314.856 511.257 315.894 509.789 317.154 508.525V508.525Z" fill="#D8C3AD"/>
<path id="Vector_7" style="mix-blend-mode:overlay" opacity="0.5" d="M329.52 502.696L329.832 500.632L279.069 364.852C279.606 364.829 280.144 364.865 280.672 364.961C281.464 365.133 282.246 365.348 283.015 365.605L332.008 500.921L331.792 502.89L335.193 535.45C334.795 535.521 334.415 535.665 334.071 535.877V535.877L329.52 502.696Z" fill="white"/>
<path id="Vector_8" d="M330.676 483.502L332.041 487.324C328.24 485.85 316.255 482.621 307.351 495.548L306.242 492.462C314.753 479.571 326.275 481.962 330.676 483.502Z" fill="black"/>
<path id="Vector_9" d="M298.444 393.413L299.798 397.194C296.649 395.936 283.969 392.006 274.891 405.437L273.767 402.314C282.439 388.991 294.559 391.993 298.444 393.413Z" fill="black"/>
</g>
<g id="1darkgreencrayon">
<path id="Vector_10" d="M254.8 604.213C255.242 602.173 256.467 602.527 256.467 602.527C257.091 603.141 257.558 603.895 257.83 604.727C257.954 605.284 257.932 605.864 257.767 606.41C257.601 606.957 257.298 607.451 256.885 607.846C255.867 608.084 254.387 606.149 254.8 604.213Z" fill="#057744"/>
<path id="Vector_11" d="M76.4515 603.847C75.3258 601.358 74.5309 598.777 74.7612 596.013C74.9078 594.273 75.3467 591.764 76.3251 590.279C76.3251 590.279 80.433 584.075 84.7878 583.675L225.74 589.879C225.74 589.879 217.504 595.229 219.353 605.033C220.969 613.578 224.361 615.554 224.361 615.554C224.361 615.554 82.7038 609.613 82.51 609.625C79.558 609.508 77.4949 606.165 76.4515 603.847Z" fill="#057744"/>
<path id="Vector_12" d="M219.369 605.018C217.516 595.217 225.755 589.864 225.755 589.864C226.036 589.819 226.324 589.853 226.587 589.962C226.85 590.07 227.078 590.249 227.247 590.478C227.787 591.266 225.9 615.21 225.9 615.21C225.415 615.406 224.9 615.517 224.377 615.539C224.377 615.539 220.985 613.563 219.369 605.018Z" fill="#057744"/>
<path id="Vector_13" d="M221.251 603.877C220.424 595.872 227.247 590.478 227.247 590.478L256.475 602.535C256.475 602.535 255.258 602.189 254.808 604.221C254.358 606.253 255.874 608.092 256.877 607.869C256.734 608.009 256.571 608.127 256.395 608.221C255.398 608.765 232.146 613.844 225.908 615.218C224.934 614.194 221.936 610.568 221.251 603.877Z" fill="#057744"/>
<path id="Vector_14" style="mix-blend-mode:multiply" opacity="0.8" d="M221.038 610.757C222.618 614.505 224.369 615.539 224.369 615.539C224.369 615.539 82.7037 609.613 82.5099 609.625C79.5658 609.5 77.4948 606.165 76.4514 603.847L221.038 610.757Z" fill="#D8C3AD"/>
<path id="Vector_15" style="mix-blend-mode:multiply" opacity="0.8" d="M223.055 610.742L254.817 605.658C255.104 607.01 256.135 608.046 256.885 607.877C256.741 608.017 256.579 608.135 256.402 608.229C255.406 608.773 232.153 613.852 225.915 615.225C224.717 613.902 223.75 612.387 223.055 610.742V610.742Z" fill="#D8C3AD"/>
<path id="Vector_16" style="mix-blend-mode:overlay" opacity="0.5" d="M222.33 597.09L220.537 596.021L75.6417 591.723C75.8235 591.217 76.0605 590.733 76.3483 590.28C76.8068 589.611 77.3014 588.969 77.8299 588.354L221.627 594.116L223.369 595.06L254.8 604.213C254.715 604.608 254.705 605.015 254.771 605.413V605.413L222.33 597.09Z" fill="white"/>
<path id="Vector_17" d="M204.996 588.769L209.05 588.948C206.249 591.911 198.732 601.787 207.337 614.915L204.06 614.777C195.34 602.026 201.907 592.261 204.996 588.769Z" fill="black"/>
<path id="Vector_18" d="M109.407 584.575L113.419 584.75C111.065 587.19 102.635 597.445 111.64 610.925L108.325 610.786C99.2654 597.723 106.624 587.635 109.407 584.575Z" fill="black"/>
</g>
<g id="1yellowcrayon">
<path id="Vector_19" d="M202.072 180.105C203.513 178.594 204.374 179.535 204.374 179.535C204.586 180.383 204.592 181.271 204.391 182.122C204.206 182.662 203.885 183.146 203.459 183.526C203.033 183.906 202.516 184.17 201.959 184.292C200.966 183.964 200.711 181.542 202.072 180.105Z" fill="#EFE35E"/>
<path id="Vector_20" d="M50.0419 86.8569C50.3786 84.1453 51.0449 81.5284 52.6819 79.2893C53.7135 77.8809 55.3954 75.9682 57.0043 75.2106C57.0043 75.2106 63.7432 72.0561 67.6684 73.984L184.738 152.727C184.738 152.727 174.922 153.002 171.391 162.333C168.317 170.469 170.183 173.923 170.183 173.923C170.183 173.923 52.3738 95.036 52.2021 94.9454C49.7438 93.3069 49.7247 89.379 50.0419 86.8569Z" fill="#EFE35E"/>
<path id="Vector_21" d="M171.413 162.329C174.938 152.998 184.76 152.723 184.76 152.723C185.023 152.831 185.251 153.01 185.419 153.24C185.587 153.469 185.688 153.741 185.712 154.024C185.763 154.978 171.676 174.431 171.676 174.431C171.16 174.345 170.662 174.172 170.204 173.918C170.204 173.918 168.339 170.464 171.413 162.329Z" fill="#EFE35E"/>
<path id="Vector_22" d="M173.613 162.336C177.078 155.072 185.712 154.024 185.712 154.024L204.376 179.545C204.376 179.545 203.518 178.615 202.075 180.116C200.632 181.616 200.968 183.975 201.94 184.308C201.745 184.352 201.545 184.368 201.345 184.356C200.211 184.301 177.718 176.52 171.678 174.441C171.381 173.061 170.711 168.403 173.613 162.336Z" fill="#EFE35E"/>
<path id="Vector_23" style="mix-blend-mode:multiply" opacity="0.8" d="M169.846 168.097C169.241 172.119 170.197 173.914 170.197 173.914C170.197 173.914 52.3738 95.036 52.2021 94.9453C49.7545 93.3045 49.7247 89.379 50.0419 86.8569L169.846 168.097Z" fill="#D8C3AD"/>
<path id="Vector_24" style="mix-blend-mode:multiply" opacity="0.8" d="M171.576 169.136L201.334 181.347C200.874 182.65 201.214 184.072 201.942 184.318C201.747 184.363 201.547 184.379 201.347 184.367C200.213 184.312 177.721 176.53 171.681 174.452C171.347 172.698 171.312 170.901 171.576 169.136V169.136Z" fill="#D8C3AD"/>
<path id="Vector_25" style="mix-blend-mode:overlay" opacity="0.5" d="M178.071 157.105L177.097 155.259L55.6687 76.0867C56.0874 75.75 56.5419 75.4604 57.024 75.2231C57.7635 74.8917 58.5205 74.6008 59.2918 74.3519L179.021 154.201L180.015 155.914L202.072 180.105C201.794 180.397 201.574 180.74 201.423 181.114V181.114L178.071 157.105Z" fill="white"/>
<path id="Vector_26" d="M167.612 140.97L170.979 143.236C167.045 144.306 155.482 148.818 155.986 164.507L153.261 162.681C152.463 147.254 163.156 142.341 167.612 140.97Z" fill="black"/>
<path id="Vector_27" d="M88.2121 87.5804L91.5451 89.8201C88.2642 90.6763 75.7254 95.0366 76.3874 111.234L73.6303 109.388C72.705 93.518 84.2422 88.7421 88.2121 87.5804Z" fill="black"/>
</g>
<g id="1redcrayon">
<path id="Vector_28" d="M265.938 247.328C264.056 246.425 263.584 247.609 263.584 247.609C263.685 248.478 263.994 249.31 264.484 250.036C264.848 250.475 265.319 250.814 265.852 251.018C266.385 251.223 266.962 251.287 267.526 251.204C268.339 250.546 267.72 248.19 265.938 247.328Z" fill="#ED0000"/>
<path id="Vector_29" d="M375.115 106.3C373.84 103.884 372.291 101.672 369.967 100.157C368.504 99.2052 366.254 98.0118 364.481 97.8727C364.481 97.8727 357.061 97.3081 354.073 100.501L272.458 215.587C272.458 215.587 281.736 212.369 288.341 219.846C294.096 226.367 293.574 230.258 293.574 230.258C293.574 230.258 375.829 114.775 375.958 114.63C377.677 112.227 376.304 108.547 375.115 106.3Z" fill="#ED0000"/>
<path id="Vector_30" d="M288.32 219.849C281.72 212.371 272.436 215.59 272.436 215.59C272.229 215.785 272.079 216.033 272.003 216.307C271.927 216.581 271.928 216.871 272.006 217.145C272.297 218.055 292.358 231.261 292.358 231.261C292.81 230.998 293.214 230.66 293.553 230.261C293.553 230.261 294.075 226.37 288.32 219.849Z" fill="#ED0000"/>
<path id="Vector_31" d="M286.264 220.636C280.452 215.069 272.006 217.145 272.006 217.145L263.585 247.62C263.585 247.62 264.059 246.447 265.939 247.339C267.82 248.231 268.341 250.557 267.55 251.212C267.748 251.184 267.941 251.129 268.123 251.047C269.165 250.594 287.446 235.354 292.359 231.272C292.148 229.875 291.126 225.282 286.264 220.636Z" fill="#ED0000"/>
<path id="Vector_32" style="mix-blend-mode:multiply" opacity="0.8" d="M291.827 224.69C293.816 228.238 293.557 230.254 293.557 230.254C293.557 230.254 375.829 114.775 375.958 114.63C377.666 112.229 376.304 108.547 375.115 106.3L291.827 224.69Z" fill="#D8C3AD"/>
<path id="Vector_33" style="mix-blend-mode:multiply" opacity="0.8" d="M290.577 226.273L267.068 248.228C267.96 249.284 268.145 250.734 267.551 251.223C267.749 251.195 267.942 251.14 268.125 251.058C269.166 250.605 287.448 235.364 292.361 231.283C292.052 229.525 291.449 227.831 290.577 226.273V226.273Z" fill="#D8C3AD"/>
<path id="Vector_34" style="mix-blend-mode:overlay" opacity="0.5" d="M280.244 217.322L280.5 215.25L366.04 98.2193C365.529 98.0526 365.002 97.9426 364.467 97.8914C363.658 97.8432 362.847 97.8392 362.037 97.8794L278.327 214.941L278.004 216.895L265.938 247.328C266.302 247.503 266.629 247.745 266.903 248.042V248.042L280.244 217.322Z" fill="white"/>
<path id="Vector_35" d="M284.313 198.529L281.967 201.84C286.025 201.447 298.436 201.574 303.519 216.426L305.421 213.754C300.706 199.043 288.966 198.234 284.313 198.529Z" fill="black"/>
<path id="Vector_36" d="M339.672 120.489L337.348 123.763C340.72 123.403 353.99 123.042 359.105 138.425L361.03 135.722C356.277 120.553 343.797 120.17 339.672 120.489Z" fill="black"/>
</g>
<g id="1redcrayon_2">
<path id="Vector_37" d="M146.063 819.883C144.648 818.348 143.772 819.274 143.772 819.274C143.545 820.119 143.524 821.006 143.711 821.861C143.886 822.404 144.199 822.893 144.619 823.28C145.038 823.667 145.55 823.94 146.106 824.072C147.104 823.761 147.4 821.343 146.063 819.883Z" fill="#ED0000"/>
<path id="Vector_38" d="M299.646 729.215C299.355 726.498 298.733 723.871 297.134 721.604C296.127 720.178 294.477 718.238 292.881 717.453C292.881 717.453 286.197 714.185 282.239 716.047L163.857 792.802C163.857 792.802 173.667 793.242 177.04 802.632C179.976 810.819 178.053 814.24 178.053 814.24C178.053 814.24 297.177 737.354 297.35 737.266C299.835 735.669 299.921 731.742 299.646 729.215Z" fill="#ED0000"/>
<path id="Vector_39" d="M177.018 802.627C173.651 793.238 163.835 792.797 163.835 792.797C163.571 792.901 163.34 793.076 163.168 793.303C162.996 793.53 162.89 793.799 162.861 794.082C162.795 795.035 176.551 814.723 176.551 814.723C177.069 814.646 177.569 814.481 178.031 814.235C178.031 814.235 179.955 810.813 177.018 802.627Z" fill="#ED0000"/>
<path id="Vector_40" d="M174.818 802.598C171.476 795.276 162.861 794.083 162.861 794.083L143.769 819.285C143.769 819.285 144.643 818.369 146.06 819.894C147.478 821.418 147.102 823.771 146.125 824.088C146.319 824.135 146.519 824.155 146.719 824.146C147.854 824.11 170.474 816.709 176.548 814.734C176.869 813.358 177.618 808.713 174.818 802.598Z" fill="#ED0000"/>
<path id="Vector_41" style="mix-blend-mode:multiply" opacity="0.8" d="M178.488 808.421C179.024 812.453 178.038 814.231 178.038 814.231C178.038 814.231 297.177 737.354 297.35 737.266C299.825 735.667 299.921 731.742 299.646 729.215L178.488 808.421Z" fill="#D8C3AD"/>
<path id="Vector_42" style="mix-blend-mode:multiply" opacity="0.8" d="M176.741 809.43L146.78 821.137C147.218 822.448 146.854 823.864 146.122 824.098C146.316 824.146 146.516 824.166 146.716 824.157C147.851 824.121 170.472 816.72 176.546 814.744C176.909 812.996 176.975 811.2 176.741 809.43V809.43Z" fill="#D8C3AD"/>
<path id="Vector_43" style="mix-blend-mode:overlay" opacity="0.5" d="M170.449 797.292L171.454 795.462L294.202 718.352C293.789 718.008 293.34 717.71 292.862 717.465C292.128 717.121 291.376 716.818 290.609 716.556L169.549 794.372L168.526 796.068L146.063 819.883C146.336 820.18 146.551 820.526 146.696 820.903V820.903L170.449 797.292Z" fill="white"/>
<path id="Vector_44" d="M181.179 781.336L177.774 783.544C181.69 784.68 193.175 789.387 192.407 805.065L195.161 803.286C196.22 787.875 185.611 782.782 181.179 781.336Z" fill="black"/>
<path id="Vector_45" d="M261.469 729.294L258.099 731.477C261.365 732.389 273.828 736.96 272.893 753.144L275.681 751.344C276.874 735.493 265.419 730.523 261.469 729.294Z" fill="black"/>
</g>
<g id="1darkbluecrayon2">
<path id="Vector_46" d="M50.1578 429.934C48.6557 428.484 47.8347 429.46 47.8347 429.46C47.6577 430.317 47.6886 431.204 47.925 432.046C48.132 432.578 48.4727 433.048 48.9141 433.41C49.3555 433.772 49.8827 434.014 50.445 434.113C51.4237 433.745 51.578 431.314 50.1578 429.934Z" fill="#2B2C6C"/>
<path id="Vector_47" d="M198.189 330.46C197.74 327.765 196.966 325.178 195.238 323.009C194.149 321.644 192.389 319.803 190.75 319.113C190.75 319.113 183.886 316.241 180.044 318.33L66.3412 401.862C66.3412 401.862 76.1608 401.728 80.0753 410.906C83.4841 418.907 81.7637 422.435 81.7637 422.435C81.7637 422.435 196.199 338.729 196.367 338.631C198.755 336.892 198.611 332.967 198.189 330.46Z" fill="#2B2C6C"/>
<path id="Vector_48" d="M80.0538 410.902C76.1446 401.726 66.3196 401.858 66.3196 401.858C66.0614 401.977 65.8409 402.165 65.6826 402.402C65.5242 402.638 65.434 402.913 65.4218 403.198C65.4111 404.153 80.2928 423.004 80.2928 423.004C80.8052 422.898 81.2954 422.704 81.7422 422.431C81.7422 422.431 83.4626 418.903 80.0538 410.902Z" fill="#2B2C6C"/>
<path id="Vector_49" d="M77.8555 411.001C74.0921 403.887 65.4219 403.198 65.4219 403.198L47.8328 429.471C47.8328 429.471 48.6519 428.506 50.1559 429.945C51.6599 431.384 51.4218 433.756 50.4646 434.128C50.6613 434.164 50.8621 434.172 51.061 434.152C52.192 434.05 74.3424 425.342 80.2909 423.015C80.5306 421.623 81.0069 416.942 77.8555 411.001Z" fill="#2B2C6C"/>
<path id="Vector_50" style="mix-blend-mode:multiply" opacity="0.8" d="M81.8583 416.6C82.6295 420.594 81.7485 422.427 81.7485 422.427C81.7485 422.427 196.199 338.729 196.367 338.631C198.744 336.89 198.611 332.967 198.189 330.46L81.8583 416.6Z" fill="#D8C3AD"/>
<path id="Vector_51" style="mix-blend-mode:multiply" opacity="0.8" d="M80.1732 417.709L50.9466 431.144C51.4608 432.428 51.18 433.862 50.4627 434.139C50.6593 434.175 50.8601 434.183 51.0591 434.163C52.19 434.061 74.3405 425.353 80.2889 423.026C80.5495 421.26 80.5104 419.462 80.1732 417.709V417.709Z" fill="#D8C3AD"/>
<path id="Vector_52" style="mix-blend-mode:overlay" opacity="0.5" d="M73.1846 405.959L74.0806 404.074L192.121 319.933C191.688 319.614 191.222 319.343 190.731 319.126C189.978 318.826 189.21 318.566 188.429 318.35L72.1152 403.097L71.1929 404.849L50.1579 429.934C50.4479 430.215 50.6823 430.548 50.8489 430.915V430.915L73.1846 405.959Z" fill="white"/>
<path id="Vector_53" d="M82.965 389.404L79.695 391.808C83.6704 392.713 95.4101 396.742 95.5578 412.438L98.2042 410.501C98.3619 395.054 87.474 390.589 82.965 389.404Z" fill="black"/>
<path id="Vector_54" d="M160.082 332.767L156.845 335.143C160.158 335.862 172.867 339.698 172.878 355.909L175.556 353.95C175.822 338.056 164.097 333.763 160.082 332.767Z" fill="black"/>
</g>
</g>
<defs>
<clipPath id="clip0">
<rect width="414" height="896" fill="white"/>
</clipPath>
</defs>
</svg>
