<svg width="1440" height="1024" viewBox="0 0 1440 1024" fill="none" xmlns="http://www.w3.org/2000/svg">
<g id="fallenpencilsdesktop" clip-path="url(#clip0)">
<g id="1orangecrayon">
<path id="Vector" d="M1107.22 944.533C1105.07 942.083 1103.67 943.493 1103.67 943.493C1103.28 944.803 1103.21 946.186 1103.47 947.528C1103.72 948.382 1104.19 949.157 1104.83 949.778C1105.47 950.398 1106.26 950.844 1107.12 951.071C1108.69 950.625 1109.25 946.864 1107.22 944.533Z" fill="#F7A516"/>
<path id="Vector_2" d="M1350.42 809.087C1350.08 804.837 1349.21 800.712 1346.8 797.113C1345.29 794.849 1342.79 791.756 1340.33 790.469C1340.33 790.469 1330.03 785.107 1323.78 787.856L1136.05 902.976C1136.05 902.976 1151.34 904.048 1156.23 918.832C1160.49 931.721 1157.36 936.985 1157.36 936.985C1157.36 936.985 1346.25 821.69 1346.52 821.56C1350.46 819.166 1350.75 813.041 1350.42 809.087Z" fill="#F7A516"/>
<path id="Vector_3" d="M1156.2 918.823C1151.31 904.041 1136.01 902.967 1136.01 902.967C1135.6 903.119 1135.23 903.383 1134.95 903.73C1134.67 904.077 1134.5 904.494 1134.44 904.935C1134.3 906.419 1154.99 937.679 1154.99 937.679C1155.8 937.579 1156.59 937.341 1157.32 936.976C1157.32 936.976 1160.46 931.712 1156.2 918.823Z" fill="#F7A516"/>
<path id="Vector_4" d="M1152.77 918.691C1147.84 907.135 1134.44 904.935 1134.44 904.935L1103.66 943.51C1103.66 943.51 1105.06 942.116 1107.21 944.55C1109.37 946.984 1108.69 950.642 1107.15 951.097C1107.45 951.178 1107.76 951.217 1108.07 951.212C1109.85 951.2 1145.43 940.54 1154.99 937.695C1155.54 935.561 1156.89 928.342 1152.77 918.691Z" fill="#F7A516"/>
<path id="Vector_5" style="mix-blend-mode:multiply" opacity="0.8" d="M1158.26 927.921C1158.94 934.234 1157.33 936.97 1157.33 936.97C1157.33 936.97 1346.25 821.69 1346.52 821.56C1350.45 819.161 1350.75 813.041 1350.42 809.087L1158.26 927.921Z" fill="#D8C3AD"/>
<path id="Vector_6" style="mix-blend-mode:multiply" opacity="0.8" d="M1155.5 929.427L1108.29 946.518C1108.92 948.581 1108.3 950.776 1107.15 951.113C1107.45 951.195 1107.76 951.234 1108.07 951.228C1109.84 951.216 1145.43 940.556 1154.98 937.712C1155.62 934.999 1155.79 932.198 1155.5 929.427V929.427Z" fill="#D8C3AD"/>
<path id="Vector_7" style="mix-blend-mode:overlay" opacity="0.5" d="M1146.16 910.241L1147.8 907.425L1342.35 791.923C1341.72 791.37 1341.03 790.888 1340.3 790.487C1339.17 789.921 1338 789.418 1336.82 788.979L1144.87 905.649L1143.2 908.255L1107.22 944.533C1107.63 945.008 1107.95 945.556 1108.17 946.149V946.149L1146.16 910.241Z" fill="white"/>
<path id="Vector_8" d="M1163.53 885.765L1158.13 889.077C1164.19 891.003 1181.93 898.798 1180.11 923.232L1184.48 920.563C1186.74 896.558 1170.38 888.195 1163.53 885.765Z" fill="black"/>
<path id="Vector_9" d="M1290.85 807.712L1285.5 810.986C1290.57 812.537 1309.83 820.159 1307.74 845.375L1312.16 842.676C1314.64 817.989 1296.96 809.784 1290.85 807.712Z" fill="black"/>
</g>
<g id="1darkbluecrayon">
<path id="Vector_10" d="M1113.1 262.582C1110.75 260.318 1109.47 261.841 1109.47 261.841C1109.2 263.179 1109.24 264.563 1109.61 265.878C1109.94 266.708 1110.47 267.442 1111.16 268.007C1111.85 268.572 1112.67 268.95 1113.55 269.105C1115.07 268.529 1115.31 264.735 1113.1 262.582Z" fill="#2B2C6C"/>
<path id="Vector_11" d="M1344.15 107.318C1343.45 103.111 1342.24 99.0726 1339.55 95.6866C1337.85 93.557 1335.1 90.6832 1332.54 89.6058C1332.54 89.6058 1321.83 85.1227 1315.83 88.3834L1138.36 218.764C1138.36 218.764 1153.69 218.556 1159.79 232.88C1165.12 245.369 1162.43 250.876 1162.43 250.876C1162.43 250.876 1341.05 120.224 1341.31 120.071C1345.04 117.357 1344.81 111.23 1344.15 107.318Z" fill="#2B2C6C"/>
<path id="Vector_12" d="M1159.76 232.874C1153.66 218.552 1138.32 218.758 1138.32 218.758C1137.92 218.944 1137.58 219.238 1137.33 219.607C1137.08 219.976 1136.94 220.406 1136.92 220.85C1136.91 222.34 1160.13 251.765 1160.13 251.765C1160.93 251.598 1161.7 251.296 1162.4 250.87C1162.4 250.87 1165.08 245.363 1159.76 232.874Z" fill="#2B2C6C"/>
<path id="Vector_13" d="M1156.33 233.029C1150.46 221.925 1136.92 220.85 1136.92 220.85L1109.47 261.858C1109.47 261.858 1110.75 260.352 1113.1 262.598C1115.44 264.845 1115.07 268.546 1113.58 269.128C1113.88 269.184 1114.2 269.197 1114.51 269.165C1116.27 269.006 1150.85 255.414 1160.13 251.782C1160.51 249.609 1161.25 242.302 1156.33 233.029Z" fill="#2B2C6C"/>
<path id="Vector_14" style="mix-blend-mode:multiply" opacity="0.8" d="M1162.58 241.769C1163.78 248.003 1162.41 250.863 1162.41 250.863C1162.41 250.863 1341.05 120.224 1341.31 120.071C1345.02 117.354 1344.81 111.23 1344.15 107.317L1162.58 241.769Z" fill="#D8C3AD"/>
<path id="Vector_15" style="mix-blend-mode:multiply" opacity="0.8" d="M1159.95 243.5L1114.33 264.47C1115.13 266.473 1114.69 268.712 1113.57 269.144C1113.88 269.201 1114.19 269.213 1114.5 269.182C1116.27 269.022 1150.84 255.43 1160.13 251.798C1160.54 249.042 1160.47 246.237 1159.95 243.5V243.5Z" fill="#D8C3AD"/>
<path id="Vector_16" style="mix-blend-mode:overlay" opacity="0.5" d="M1149.04 225.16L1150.44 222.217L1334.68 90.8855C1334.01 90.3875 1333.28 89.9652 1332.51 89.6264C1331.34 89.1574 1330.14 88.7529 1328.92 88.4146L1147.37 220.692L1145.93 223.428L1113.1 262.582C1113.55 263.02 1113.92 263.539 1114.18 264.113V264.113L1149.04 225.16Z" fill="white"/>
<path id="Vector_17" d="M1164.31 199.32L1159.2 203.071C1165.41 204.485 1183.73 210.773 1183.96 235.273L1188.09 232.249C1188.34 208.139 1171.34 201.17 1164.31 199.32Z" fill="black"/>
<path id="Vector_18" d="M1284.67 110.917L1279.62 114.626C1284.79 115.749 1304.63 121.737 1304.65 147.04L1308.83 143.981C1309.24 119.173 1290.94 112.472 1284.67 110.917Z" fill="black"/>
</g>
<g id="1pinkcrayon">
<path id="Vector_19" d="M531.995 805.276C535.204 804.712 535.415 806.691 535.415 806.691C534.895 807.954 534.081 809.075 533.039 809.958C532.307 810.466 531.456 810.776 530.569 810.859C529.682 810.942 528.788 810.795 527.974 810.432C527.03 809.1 528.953 805.821 531.995 805.276Z" fill="#D40078"/>
<path id="Vector_20" d="M427.35 547.317C430.285 544.222 433.545 541.551 437.676 540.254C440.276 539.44 444.161 538.595 446.884 539.133C446.884 539.133 458.272 541.411 461.418 547.469L535.573 754.826C535.573 754.826 522.985 746.079 509.907 754.533C498.51 761.907 497.655 767.974 497.655 767.974C497.655 767.974 422.705 559.753 422.573 559.48C421.002 555.145 424.616 550.192 427.35 547.317Z" fill="#D40078"/>
<path id="Vector_21" d="M509.938 754.547C523.009 746.089 535.604 754.84 535.604 754.84C535.834 755.22 535.955 755.656 535.953 756.1C535.952 756.544 535.828 756.979 535.595 757.357C534.776 758.602 499.061 769.995 499.061 769.995C498.491 769.41 498.026 768.731 497.686 767.988C497.686 767.988 498.541 761.921 509.938 754.547Z" fill="#D40078"/>
<path id="Vector_22" d="M512.696 756.594C523.777 750.677 535.595 757.357 535.595 757.357L535.408 806.707C535.408 806.707 535.191 804.743 531.988 805.292C528.786 805.84 527.023 809.116 527.936 810.434C527.65 810.309 527.383 810.144 527.143 809.944C525.769 808.824 504.717 778.216 499.054 770.011C499.959 768.001 503.431 761.529 512.696 756.594Z" fill="#D40078"/>
<path id="Vector_23" style="mix-blend-mode:multiply" opacity="0.8" d="M502.628 760.343C498.142 764.836 497.682 767.977 497.682 767.977C497.682 767.977 422.705 559.753 422.573 559.48C421.018 555.151 424.616 550.192 427.35 547.317L502.628 760.343Z" fill="#D8C3AD"/>
<path id="Vector_24" style="mix-blend-mode:multiply" opacity="0.8" d="M503.839 763.25L529.918 806.153C528.132 807.364 527.243 809.465 527.929 810.449C527.643 810.325 527.376 810.16 527.136 809.96C525.762 808.84 504.71 778.231 499.047 770.027C500.252 767.514 501.872 765.223 503.839 763.25V763.25Z" fill="#D8C3AD"/>
<path id="Vector_25" style="mix-blend-mode:overlay" opacity="0.5" d="M523.141 754.151L523.628 750.929L444.394 538.997C445.232 538.962 446.072 539.019 446.897 539.167C448.133 539.436 449.354 539.771 450.553 540.173L527.025 751.382L526.687 754.455L531.995 805.276C531.375 805.386 530.781 805.612 530.244 805.942V805.942L523.141 754.151Z" fill="white"/>
<path id="Vector_26" d="M524.945 724.193L527.076 730.158C521.143 727.857 502.437 722.818 488.539 742.995L486.807 738.178C500.092 718.057 518.077 721.789 524.945 724.193Z" fill="black"/>
<path id="Vector_27" d="M474.636 583.578L476.749 589.479C471.834 587.516 452.043 581.381 437.873 602.344L436.119 597.471C449.654 576.676 468.573 581.361 474.636 583.578Z" fill="black"/>
</g>
<g id="1darkgreencrayon">
<path id="Vector_28" d="M406.514 912.605C407.205 909.42 409.117 909.973 409.117 909.973C410.09 910.931 410.819 912.108 411.244 913.407C411.437 914.276 411.403 915.181 411.144 916.034C410.886 916.887 410.412 917.659 409.769 918.275C408.179 918.646 405.869 915.627 406.514 912.605Z" fill="#057744"/>
<path id="Vector_29" d="M128.139 912.034C126.382 908.148 125.141 904.12 125.5 899.805C125.729 897.09 126.414 893.174 127.941 890.856C127.941 890.856 134.353 881.173 141.15 880.548L361.155 890.231C361.155 890.231 348.301 898.581 351.187 913.884C353.709 927.223 359.003 930.307 359.003 930.307C359.003 930.307 137.898 921.033 137.595 921.052C132.988 920.869 129.767 915.652 128.139 912.034Z" fill="#057744"/>
<path id="Vector_30" d="M351.212 913.86C348.319 898.563 361.18 890.207 361.18 890.207C361.618 890.138 362.068 890.191 362.478 890.36C362.889 890.529 363.245 890.809 363.508 891.167C364.35 892.396 361.406 929.768 361.406 929.768C360.648 930.075 359.844 930.249 359.028 930.283C359.028 930.283 353.734 927.199 351.212 913.86Z" fill="#057744"/>
<path id="Vector_31" d="M354.15 912.081C352.858 899.586 363.508 891.167 363.508 891.167L409.129 909.986C409.129 909.986 407.229 909.445 406.526 912.617C405.824 915.789 408.191 918.659 409.756 918.312C409.533 918.529 409.279 918.714 409.003 918.86C407.448 919.709 371.154 927.637 361.418 929.781C359.899 928.183 355.218 922.524 354.15 912.081Z" fill="#057744"/>
<path id="Vector_32" style="mix-blend-mode:multiply" opacity="0.8" d="M353.816 922.819C356.282 928.67 359.016 930.282 359.016 930.282C359.016 930.282 137.898 921.033 137.595 921.052C133 920.857 129.767 915.652 128.139 912.034L353.816 922.819Z" fill="#D8C3AD"/>
<path id="Vector_33" style="mix-blend-mode:multiply" opacity="0.8" d="M356.965 922.796L406.541 914.859C406.988 916.97 408.597 918.587 409.768 918.324C409.544 918.542 409.291 918.726 409.015 918.873C407.459 919.722 371.166 927.649 361.429 929.793C359.558 927.728 358.049 925.363 356.965 922.796V922.796Z" fill="#D8C3AD"/>
<path id="Vector_34" style="mix-blend-mode:overlay" opacity="0.5" d="M355.834 901.487L353.035 899.818L126.875 893.109C127.159 892.32 127.529 891.565 127.978 890.857C128.693 889.814 129.465 888.81 130.29 887.851L354.737 896.845L357.454 898.318L406.514 912.605C406.382 913.22 406.367 913.856 406.47 914.477V914.477L355.834 901.487Z" fill="white"/>
<path id="Vector_35" d="M328.777 888.498L335.105 888.778C330.734 893.403 319 908.818 332.432 929.31L327.317 929.093C313.706 909.191 323.956 893.949 328.777 888.498Z" fill="black"/>
<path id="Vector_36" d="M179.577 881.952L185.839 882.225C182.165 886.034 169.007 902.041 183.063 923.081L177.888 922.863C163.748 902.475 175.233 886.729 179.577 881.952Z" fill="black"/>
</g>
<g id="1darkgreencrayon2">
<path id="Vector_37" d="M958.946 358.399C961.941 357.114 962.599 358.992 962.599 358.992C962.383 360.341 961.847 361.618 961.036 362.717C960.439 363.379 959.682 363.876 958.838 364.16C957.993 364.444 957.089 364.506 956.214 364.339C954.99 363.259 956.11 359.626 958.946 358.399Z" fill="#057744"/>
<path id="Vector_38" d="M797.962 131.292C800.108 127.607 802.67 124.26 806.393 122.051C808.738 120.662 812.325 118.949 815.099 118.849C815.099 118.849 826.707 118.456 831.157 123.632L950.865 308.471C950.865 308.471 936.608 302.842 925.816 314.069C916.412 323.86 916.97 329.961 916.97 329.961C916.97 329.961 796.29 144.462 796.099 144.226C793.576 140.366 795.959 134.717 797.962 131.292Z" fill="#057744"/>
<path id="Vector_39" d="M925.849 314.075C936.633 302.847 950.899 308.478 950.899 308.478C951.21 308.795 951.427 309.192 951.528 309.624C951.628 310.057 951.607 310.509 951.467 310.93C950.955 312.33 918.802 331.606 918.802 331.606C918.113 331.167 917.505 330.612 917.004 329.967C917.004 329.967 916.446 323.866 925.849 314.075Z" fill="#057744"/>
<path id="Vector_40" d="M929.003 315.437C938.433 307.137 951.467 310.93 951.467 310.93L962.596 359.009C962.596 359.009 961.935 357.148 958.943 358.416C955.951 359.684 954.987 363.276 956.177 364.35C955.87 364.294 955.573 364.194 955.294 364.055C953.7 363.28 926.192 338.311 918.799 331.623C919.219 329.459 921.115 322.363 929.003 315.437Z" fill="#057744"/>
<path id="Vector_41" style="mix-blend-mode:multiply" opacity="0.8" d="M920.062 321.393C916.726 326.795 916.997 329.957 916.997 329.957C916.997 329.957 796.29 144.462 796.099 144.226C793.593 140.369 795.959 134.717 797.962 131.292L920.062 321.393Z" fill="#D8C3AD"/>
<path id="Vector_42" style="mix-blend-mode:multiply" opacity="0.8" d="M921.907 323.945L957.125 359.728C955.665 361.316 955.28 363.565 956.174 364.366C955.867 364.31 955.569 364.211 955.29 364.071C953.696 363.296 926.189 338.328 918.796 331.64C919.393 328.918 920.445 326.317 921.907 323.945V323.945Z" fill="#D8C3AD"/>
<path id="Vector_43" style="mix-blend-mode:overlay" opacity="0.5" d="M938.61 310.664L938.346 307.417L812.645 119.287C813.452 119.061 814.282 118.924 815.12 118.879C816.385 118.857 817.65 118.904 818.909 119.02L941.755 307.078L942.131 310.147L958.946 358.399C958.368 358.648 957.841 359.004 957.395 359.448V359.448L938.61 310.664Z" fill="white"/>
<path id="Vector_44" d="M933.499 281.09L936.941 286.407C930.638 285.529 911.275 284.911 902.372 307.737L899.582 303.445C907.901 280.814 926.262 280.324 933.499 281.09Z" fill="black"/>
<path id="Vector_45" d="M852.3 155.75L855.709 161.009C850.475 160.225 829.804 158.79 820.816 182.443L817.992 178.101C826.401 154.757 845.889 154.981 852.3 155.75Z" fill="black"/>
</g>
<g id="1yellowcrayon">
<path id="Vector_46" d="M324.214 250.635C326.463 248.276 327.806 249.745 327.806 249.745C328.138 251.07 328.147 252.455 327.833 253.784C327.545 254.627 327.044 255.382 326.379 255.975C325.714 256.568 324.907 256.98 324.037 257.171C322.487 256.659 322.089 252.878 324.214 250.635Z" fill="#EFE35E"/>
<path id="Vector_47" d="M86.9174 105.089C87.4429 100.857 88.4829 96.772 91.038 93.277C92.6482 91.0787 95.2734 88.0934 97.7846 86.9108C97.7846 86.9108 108.303 81.9872 114.43 84.9963L297.158 207.903C297.158 207.903 281.836 208.331 276.326 222.896C271.528 235.595 274.439 240.986 274.439 240.986C274.439 240.986 90.5571 117.855 90.2891 117.714C86.4521 115.156 86.4222 109.026 86.9174 105.089Z" fill="#EFE35E"/>
<path id="Vector_48" d="M276.359 222.889C281.861 208.326 297.192 207.895 297.192 207.895C297.602 208.065 297.958 208.344 298.221 208.703C298.483 209.061 298.641 209.485 298.679 209.927C298.757 211.416 276.77 241.779 276.77 241.779C275.964 241.645 275.187 241.375 274.472 240.978C274.472 240.978 271.561 235.588 276.359 222.889Z" fill="#EFE35E"/>
<path id="Vector_49" d="M279.794 222.901C285.202 211.563 298.679 209.927 298.679 209.927L327.81 249.762C327.81 249.762 326.47 248.31 324.218 250.652C321.966 252.993 322.49 256.676 324.007 257.195C323.703 257.264 323.39 257.29 323.079 257.271C321.308 257.185 286.201 245.039 276.774 241.795C276.31 239.64 275.264 232.371 279.794 222.901Z" fill="#EFE35E"/>
<path id="Vector_50" style="mix-blend-mode:multiply" opacity="0.8" d="M273.914 231.893C272.97 238.171 274.462 240.972 274.462 240.972C274.462 240.972 90.557 117.855 90.289 117.714C86.4687 115.153 86.4222 109.026 86.9174 105.089L273.914 231.893Z" fill="#D8C3AD"/>
<path id="Vector_51" style="mix-blend-mode:multiply" opacity="0.8" d="M276.613 233.514L323.062 252.573C322.344 254.607 322.874 256.827 324.011 257.212C323.707 257.281 323.394 257.307 323.082 257.288C321.312 257.202 286.205 245.056 276.777 241.812C276.256 239.075 276.201 236.269 276.613 233.514V233.514Z" fill="#D8C3AD"/>
<path id="Vector_52" style="mix-blend-mode:overlay" opacity="0.5" d="M286.751 214.737L285.232 211.854L95.6999 88.2784C96.3534 87.7527 97.0628 87.3007 97.8152 86.9303C98.9696 86.413 100.151 85.9591 101.355 85.5705L288.234 210.203L289.786 212.877L324.214 250.635C323.78 251.091 323.436 251.626 323.2 252.21V252.21L286.751 214.737Z" fill="white"/>
<path id="Vector_53" d="M270.427 189.552L275.682 193.088C269.541 194.758 251.494 201.801 252.28 226.289L248.027 223.439C246.781 199.36 263.472 191.692 270.427 189.552Z" fill="black"/>
<path id="Vector_54" d="M146.495 106.218L151.698 109.714C146.577 111.051 127.005 117.856 128.039 143.138L123.735 140.256C122.291 115.486 140.299 108.031 146.495 106.218Z" fill="black"/>
</g>
<g id="1greencrayon">
<path id="Vector_55" d="M1104.73 661.122C1101.79 659.727 1101.06 661.58 1101.06 661.58C1101.23 662.935 1101.72 664.231 1102.49 665.359C1103.06 666.043 1103.8 666.568 1104.63 666.883C1105.46 667.198 1106.36 667.293 1107.24 667.159C1108.51 666.126 1107.52 662.454 1104.73 661.122Z" fill="#008800"/>
<path id="Vector_56" d="M1274.03 440.143C1272.02 436.381 1269.59 432.941 1265.95 430.595C1263.66 429.121 1260.14 427.276 1257.37 427.073C1257.37 427.073 1245.78 426.25 1241.14 431.256L1114.66 611.529C1114.66 611.529 1129.12 606.432 1139.49 618.052C1148.52 628.184 1147.74 634.261 1147.74 634.261C1147.74 634.261 1275.21 453.365 1275.41 453.137C1278.08 449.373 1275.91 443.64 1274.03 440.143Z" fill="#008800"/>
<path id="Vector_57" d="M1139.45 618.057C1129.09 606.436 1114.63 611.534 1114.63 611.534C1114.31 611.839 1114.07 612.227 1113.96 612.656C1113.84 613.085 1113.85 613.537 1113.97 613.964C1114.43 615.381 1145.84 635.837 1145.84 635.837C1146.55 635.423 1147.18 634.892 1147.7 634.266C1147.7 634.266 1148.49 628.189 1139.45 618.057Z" fill="#008800"/>
<path id="Vector_58" d="M1136.25 619.3C1127.14 610.656 1113.97 613.964 1113.97 613.964L1101.06 661.597C1101.06 661.597 1101.79 659.761 1104.74 661.139C1107.68 662.517 1108.51 666.143 1107.28 667.171C1107.59 667.127 1107.89 667.039 1108.18 666.909C1109.8 666.194 1138.21 642.263 1145.85 635.854C1145.51 633.675 1143.88 626.514 1136.25 619.3Z" fill="#008800"/>
<path id="Vector_59" style="mix-blend-mode:multiply" opacity="0.8" d="M1144.96 625.584C1148.1 631.106 1147.71 634.256 1147.71 634.256C1147.71 634.256 1275.21 453.365 1275.41 453.137C1278.06 449.376 1275.91 443.64 1274.03 440.143L1144.96 625.584Z" fill="#D8C3AD"/>
<path id="Vector_60" style="mix-blend-mode:multiply" opacity="0.8" d="M1143.03 628.065L1106.51 662.518C1107.91 664.159 1108.21 666.421 1107.28 667.188C1107.59 667.144 1107.89 667.055 1108.18 666.926C1109.8 666.211 1138.21 642.28 1145.85 635.87C1145.35 633.128 1144.4 630.49 1143.03 628.065V628.065Z" fill="#D8C3AD"/>
<path id="Vector_61" style="mix-blend-mode:overlay" opacity="0.5" d="M1126.83 614.175L1127.21 610.939L1259.8 427.601C1259.01 427.345 1258.18 427.178 1257.35 427.102C1256.08 427.033 1254.82 427.033 1253.55 427.102L1123.82 610.474L1123.33 613.527L1104.73 661.122C1105.3 661.392 1105.82 661.768 1106.25 662.228V662.228L1126.83 614.175Z" fill="white"/>
<path id="Vector_62" d="M1133.03 584.81L1129.4 589.996C1135.73 589.352 1155.1 589.453 1163.15 612.593L1166.1 608.407C1158.62 585.484 1140.29 584.313 1133.03 584.81Z" fill="black"/>
<path id="Vector_63" d="M1218.82 462.568L1215.22 467.697C1220.48 467.108 1241.19 466.44 1249.3 490.41L1252.28 486.176C1244.74 462.537 1225.26 462.038 1218.82 462.568Z" fill="black"/>
</g>
<g id="1orangecrayon2">
<path id="Vector_64" d="M643.652 632.122C640.923 630.342 639.951 632.079 639.951 632.079C639.932 633.444 640.24 634.795 640.85 636.016C641.324 636.771 641.984 637.391 642.767 637.816C643.55 638.241 644.43 638.458 645.321 638.444C646.713 637.591 646.234 633.819 643.652 632.122Z" fill="#F7A516"/>
<path id="Vector_65" d="M841.31 436.101C839.83 432.101 837.882 428.364 834.594 425.547C832.523 423.775 829.284 421.471 826.569 420.895C826.569 420.895 815.202 418.511 809.928 422.843L660.202 584.33C660.202 584.33 675.215 581.238 683.915 594.154C691.494 605.416 689.894 611.331 689.894 611.331C689.894 611.331 840.691 449.362 840.919 449.163C844.069 445.794 842.694 439.82 841.31 436.101Z" fill="#F7A516"/>
<path id="Vector_66" d="M683.881 594.154C675.19 581.238 660.168 584.33 660.168 584.33C659.807 584.589 659.525 584.943 659.351 585.352C659.178 585.761 659.121 586.209 659.186 586.649C659.45 588.116 687.807 612.636 687.807 612.636C688.561 612.322 689.255 611.88 689.86 611.331C689.86 611.331 691.459 605.417 683.881 594.154Z" fill="#F7A516"/>
<path id="Vector_67" d="M680.54 594.953C672.679 585.155 659.186 586.649 659.186 586.649L639.951 632.096C639.951 632.096 640.923 630.376 643.652 632.14C646.38 633.903 646.713 637.608 645.355 638.461C645.667 638.459 645.978 638.412 646.277 638.322C647.98 637.833 679.373 617.97 687.807 612.653C687.765 610.449 687.118 603.133 680.54 594.953Z" fill="#F7A516"/>
<path id="Vector_68" style="mix-blend-mode:multiply" opacity="0.8" d="M688.323 602.359C690.68 608.254 689.868 611.322 689.868 611.322C689.868 611.322 840.691 449.362 840.919 449.162C844.052 445.794 842.694 439.82 841.31 436.101L688.323 602.359Z" fill="#D8C3AD"/>
<path id="Vector_69" style="mix-blend-mode:multiply" opacity="0.8" d="M686.066 604.555L645.217 633.745C646.382 635.561 646.374 637.843 645.355 638.478C645.668 638.476 645.978 638.429 646.277 638.339C647.98 637.85 679.373 617.987 687.807 612.67C687.687 609.887 687.099 607.143 686.066 604.555V604.555Z" fill="#D8C3AD"/>
<path id="Vector_70" style="mix-blend-mode:overlay" opacity="0.5" d="M671.898 588.599L672.716 585.445L828.911 421.748C828.155 421.386 827.361 421.109 826.544 420.92C825.301 420.681 824.047 420.51 822.786 420.407L669.416 584.525L668.518 587.483L643.652 632.122C644.179 632.467 644.636 632.909 644.999 633.423V633.423L671.898 588.599Z" fill="white"/>
<path id="Vector_71" d="M682.021 560.345L677.715 564.991C684.075 565.21 703.256 567.933 708.099 591.95L711.586 588.202C707.284 564.477 689.281 560.835 682.021 560.345Z" fill="black"/>
<path id="Vector_72" d="M783.574 450.844L779.311 455.439C784.602 455.567 805.212 457.71 809.996 482.556L813.525 478.765C809.258 454.323 790.021 451.19 783.574 450.844Z" fill="black"/>
</g>
<g id="1redcrayon2">
<path id="Vector_73" d="M903.811 821.555C903.718 818.297 905.707 818.376 905.707 818.376C906.881 819.073 907.872 820.042 908.595 821.2C908.991 821.999 909.174 822.885 909.127 823.775C909.081 824.665 908.806 825.528 908.329 826.281C906.874 827.022 903.908 824.643 903.811 821.555Z" fill="#ED0000"/>
<path id="Vector_74" d="M633.404 887.687C630.767 884.335 628.597 880.721 627.913 876.446C627.485 873.755 627.212 869.789 628.139 867.173C628.139 867.173 632.044 856.236 638.494 854.001L854.412 810.699C854.412 810.699 843.932 821.885 850.401 836.051C856.045 848.397 861.923 850.123 861.923 850.123C861.923 850.123 645.034 894.087 644.745 894.177C640.228 895.103 635.852 890.809 633.404 887.687Z" fill="#ED0000"/>
<path id="Vector_75" d="M850.419 836.022C843.946 821.863 854.431 810.67 854.431 810.67C854.84 810.498 855.289 810.441 855.728 810.507C856.167 810.573 856.58 810.759 856.92 811.044C858.033 812.035 864.127 849.025 864.127 849.025C863.465 849.504 862.726 849.865 861.942 850.094C861.942 850.094 856.063 848.368 850.419 836.022Z" fill="#ED0000"/>
<path id="Vector_76" d="M852.845 833.59C848.597 821.769 856.921 811.044 856.921 811.044L905.721 818.386C905.721 818.386 903.747 818.316 903.825 821.564C903.904 824.812 906.889 827.031 908.325 826.319C908.16 826.584 907.958 826.824 907.726 827.032C906.419 828.229 873.081 844.62 864.142 849.034C862.284 847.847 856.384 843.473 852.845 833.59Z" fill="#ED0000"/>
<path id="Vector_77" style="mix-blend-mode:multiply" opacity="0.8" d="M855.094 844.096C858.889 849.185 861.93 850.096 861.93 850.096C861.93 850.096 645.034 894.087 644.745 894.177C640.237 895.089 635.852 890.809 633.404 887.687L855.094 844.096Z" fill="#D8C3AD"/>
<path id="Vector_78" style="mix-blend-mode:multiply" opacity="0.8" d="M858.146 843.319L904.377 823.737C905.316 825.68 907.266 826.864 908.34 826.328C908.175 826.593 907.973 826.833 907.74 827.041C906.433 828.238 873.095 844.629 864.156 849.043C861.845 847.487 859.813 845.551 858.146 843.319V843.319Z" fill="#D8C3AD"/>
<path id="Vector_79" style="mix-blend-mode:overlay" opacity="0.5" d="M851.942 822.901L848.825 821.952L627.643 869.616C627.73 868.782 627.908 867.96 628.174 867.165C628.619 865.981 629.128 864.822 629.7 863.693L849.765 818.657L852.757 819.437L903.811 821.555C903.829 822.184 903.967 822.805 904.216 823.383V823.383L851.942 822.901Z" fill="white"/>
<path id="Vector_80" d="M822.562 816.772L828.773 815.528C825.637 821.066 817.938 838.843 835.887 855.52L830.869 856.535C812.887 840.473 819.187 823.22 822.562 816.772Z" fill="black"/>
<path id="Vector_81" d="M676.138 846.159L682.283 844.924C679.628 849.502 670.688 868.195 689.375 885.255L684.299 886.284C665.686 869.876 673.065 851.837 676.138 846.159Z" fill="black"/>
</g>
<g id="1redcrayon">
<path id="Vector_82" d="M423.899 355.56C420.961 354.15 420.224 355.999 420.224 355.999C420.383 357.356 420.865 358.654 421.629 359.786C422.197 360.473 422.933 361.001 423.764 361.321C424.596 361.64 425.496 361.74 426.378 361.61C427.647 360.583 426.681 356.906 423.899 355.56Z" fill="#ED0000"/>
<path id="Vector_83" d="M594.308 135.437C592.318 131.665 589.899 128.213 586.273 125.849C583.988 124.363 580.476 122.5 577.709 122.283C577.709 122.283 566.129 121.402 561.464 126.385L434.076 306.018C434.076 306.018 448.557 300.994 458.867 312.666C467.85 322.844 467.035 328.916 467.035 328.916C467.035 328.916 595.423 148.665 595.623 148.438C598.307 144.688 596.164 138.944 594.308 135.437Z" fill="#ED0000"/>
<path id="Vector_84" d="M458.833 312.67C448.532 300.998 434.042 306.022 434.042 306.022C433.718 306.326 433.484 306.713 433.365 307.141C433.247 307.57 433.249 308.022 433.37 308.449C433.824 309.869 465.136 330.482 465.136 330.482C465.842 330.072 466.473 329.544 467.001 328.921C467.001 328.921 467.816 322.848 458.833 312.67Z" fill="#ED0000"/>
<path id="Vector_85" d="M455.625 313.898C446.554 305.208 433.37 308.449 433.37 308.449L420.226 356.017C420.226 356.017 420.966 354.185 423.901 355.577C426.837 356.97 427.649 360.6 426.414 361.623C426.724 361.58 427.025 361.493 427.31 361.365C428.935 360.658 457.47 336.87 465.138 330.5C464.809 328.32 463.214 321.15 455.625 313.898Z" fill="#ED0000"/>
<path id="Vector_86" style="mix-blend-mode:multiply" opacity="0.8" d="M464.307 320.226C467.413 325.763 467.009 328.911 467.009 328.911C467.009 328.911 595.423 148.665 595.623 148.438C598.29 144.69 596.164 138.944 594.308 135.437L464.307 320.226Z" fill="#D8C3AD"/>
<path id="Vector_87" style="mix-blend-mode:multiply" opacity="0.8" d="M462.356 322.697L425.662 356.965C427.054 358.613 427.344 360.877 426.417 361.639C426.726 361.596 427.027 361.51 427.312 361.382C428.937 360.675 457.472 336.887 465.141 330.516C464.659 327.772 463.717 325.128 462.356 322.697V322.697Z" fill="#D8C3AD"/>
<path id="Vector_88" style="mix-blend-mode:overlay" opacity="0.5" d="M446.228 308.725L446.628 305.491L580.143 122.824C579.346 122.564 578.522 122.392 577.687 122.312C576.425 122.237 575.159 122.231 573.896 122.293L443.236 305.009L442.732 308.06L423.899 355.56C424.466 355.833 424.977 356.211 425.405 356.674V356.674L446.228 308.725Z" fill="white"/>
<path id="Vector_89" d="M452.58 279.392L448.917 284.56C455.251 283.947 474.623 284.146 482.557 307.326L485.525 303.156C478.167 280.195 459.842 278.932 452.58 279.392Z" fill="black"/>
<path id="Vector_90" d="M538.987 157.584L535.359 162.695C540.622 162.132 561.335 161.569 569.318 185.579L572.323 181.36C564.905 157.683 545.424 157.086 538.987 157.584Z" fill="black"/>
</g>
<g id="1darkbluecrayon2">
<path id="Vector_91" d="M87.0982 640.582C84.7537 638.318 83.4722 639.841 83.4722 639.841C83.1959 641.179 83.2442 642.563 83.6131 643.878C83.9363 644.708 84.468 645.442 85.157 646.007C85.8459 646.572 86.6689 646.95 87.5465 647.105C89.0741 646.529 89.3149 642.735 87.0982 640.582Z" fill="#2B2C6C"/>
<path id="Vector_92" d="M318.153 485.318C317.453 481.111 316.244 477.073 313.546 473.687C311.846 471.557 309.1 468.683 306.541 467.606C306.541 467.606 295.828 463.123 289.831 466.383L112.358 596.764C112.358 596.764 127.685 596.556 133.795 610.88C139.116 623.369 136.43 628.876 136.43 628.876C136.43 628.876 315.046 498.224 315.308 498.071C319.036 495.357 318.811 489.23 318.153 485.318Z" fill="#2B2C6C"/>
<path id="Vector_93" d="M133.761 610.874C127.66 596.552 112.324 596.758 112.324 596.758C111.921 596.944 111.577 597.238 111.33 597.607C111.083 597.976 110.942 598.406 110.923 598.85C110.906 600.34 134.134 629.765 134.134 629.765C134.934 629.598 135.699 629.296 136.397 628.87C136.397 628.87 139.082 623.363 133.761 610.874Z" fill="#2B2C6C"/>
<path id="Vector_94" d="M130.33 611.029C124.456 599.925 110.923 598.85 110.923 598.85L83.4692 639.858C83.4692 639.858 84.7477 638.352 87.0952 640.599C89.4427 642.845 89.0711 646.546 87.5771 647.128C87.8841 647.184 88.1975 647.197 88.508 647.165C90.2732 647.006 124.847 633.414 134.131 629.782C134.506 627.609 135.249 620.302 130.33 611.029Z" fill="#2B2C6C"/>
<path id="Vector_95" style="mix-blend-mode:multiply" opacity="0.8" d="M136.578 619.769C137.782 626.003 136.407 628.863 136.407 628.863C136.407 628.863 315.046 498.224 315.308 498.071C319.019 495.354 318.811 489.23 318.153 485.318L136.578 619.769Z" fill="#D8C3AD"/>
<path id="Vector_96" style="mix-blend-mode:multiply" opacity="0.8" d="M133.948 621.5L88.3294 642.47C89.132 644.473 88.6938 646.712 87.5741 647.144C87.8811 647.201 88.1945 647.213 88.505 647.182C90.2702 647.022 124.844 633.43 134.128 629.798C134.535 627.042 134.474 624.237 133.948 621.5V621.5Z" fill="#D8C3AD"/>
<path id="Vector_97" style="mix-blend-mode:overlay" opacity="0.5" d="M123.04 603.16L124.438 600.217L308.681 468.886C308.006 468.388 307.279 467.965 306.512 467.626C305.337 467.157 304.137 466.753 302.918 466.415L121.37 598.692L119.931 601.428L87.0983 640.582C87.5509 641.02 87.9168 641.539 88.1768 642.113V642.113L123.04 603.16Z" fill="white"/>
<path id="Vector_98" d="M138.305 577.32L133.201 581.071C139.406 582.485 157.73 588.773 157.961 613.273L162.091 610.249C162.338 586.139 145.343 579.17 138.305 577.32Z" fill="black"/>
<path id="Vector_99" d="M258.673 488.917L253.621 492.626C258.793 493.749 278.629 499.737 278.646 525.04L282.826 521.982C283.241 497.173 264.94 490.472 258.673 488.917Z" fill="black"/>
</g>
</g>
<defs>
<clipPath id="clip0">
<rect width="1440" height="1024" fill="white"/>
</clipPath>
</defs>
</svg>
