<svg id="Layer_1" data-name="Layer 1" xmlns="http://www.w3.org/2000/svg" viewBox="0 0 1920 1080"><defs><style>.cls-1{fill:#b59674;}.cls-2{fill:#887157;}.cls-3{fill:#27282d;}.cls-4{fill:#c4a380;}</style></defs><path class="cls-1" d="M772.59,338.34c20.3,8.4,24.63,34.72,26,56.65q2,32.31,4,64.63c.75,11.95,1.56,24.19,6.37,35.15s14.47,21.19,26.42,21.82c51.21,2.68,126.24-120.73,138-136.49,17.33-23.18,29.84-49.52,42.24-75.66l28.53-60.19c7.49-15.81,20.37-34.46,37.43-30.61,10.4,2.35,17.2,13.09,18.33,23.69s-2.21,21.13-5.68,31.21a986.48,986.48,0,0,1-60.06,138.12c-3.18,6-6.55,12.87-10.15,20.13,16.58-16.69,32.06-31,38-38.93,17.33-23.18,29.84-49.52,42.24-75.66l28.53-60.2c7.49-15.8,20.37-34.45,37.43-30.6,10.4,2.35,17.21,13.09,18.33,23.69s-2.21,21.13-5.68,31.21a986.48,986.48,0,0,1-60.06,138.12c-11.73,22.26-26,55.4-45.41,81.35,17.41-14.24,33.29-26.27,39.76-33.32,19.55-21.33,34.64-46.29,49.58-71.07l34.41-57c9-15,23.71-32.25,40.31-26.71,10.11,3.38,15.81,14.74,15.87,25.41s-4.32,20.8-8.78,30.48c-21,45.65-92.66,175-107.84,195.27,1.46,1.76-1.4-1.81,0,0,12.64-10.15,23.3-18.61,28.31-24.07,19.56-21.33,34.64-46.29,49.59-71.06l34.41-57c9-15,23.71-32.24,40.3-26.7,10.11,3.37,15.81,14.74,15.87,25.4s-4.32,20.8-8.78,30.48c-21,45.65-53.8,122.49-80.37,165.14C1133.6,739.71,981.83,894.39,956,917c-47.94,42-210.47,143-266.86,96.63-92-75.67,16.48-292.91,29.73-295.82-9.3-9.38-15.83-21.61-20.2-34.2-10.33-29.78-10-62.11-8.18-93.58,3.49-61.16,12-121.91,20.45-182.59,2.49-17.78,5.23-36.25,15.29-51.12S756,331.47,772.59,338.34Z"/><path class="cls-2" d="M1064.09,238.21l-28.54,60.19c-12.39,26.15-24.91,52.49-42.23,75.67-11.69,15.63-85.58,137.12-136.75,136.51C903.93,483.42,957.9,395.15,967.75,382c17.33-23.18,29.84-49.52,42.23-75.67l28.53-60.19c7.5-15.8,20.37-34.45,37.44-30.6a19.72,19.72,0,0,1,2.51.78C1072.52,222.4,1067.68,230.63,1064.09,238.21Z"/><path class="cls-2" d="M1221.09,328.32l-34.41,57a658.43,658.43,0,0,1-49.59,71.07c-45.89,57.37-59,48.68-67.22,43.25,7.57-10.14,13-4.77,48-42.57,16.55-19.64,30-41.8,43.25-63.83l34.41-57c9-15,23.69-32.23,40.27-26.72C1230,314.84,1225,321.79,1221.09,328.32Z"/><path class="cls-2" d="M1152.73,246q-14.26,30.11-28.54,60.19c-12.39,26.15-24.9,52.49-42.23,75.67-6,7.95-52.93,62.51-62.53,47.9,3.61-7.27,16.29-16.81,21.2-21.54,10.87-10.5,23.75-27.48,28.65-37.56,11.08-18.07,20.25-37.36,29.34-56.55q14.28-30.09,28.54-60.19c7.49-15.8,20.36-34.45,37.43-30.6a21.43,21.43,0,0,1,2.51.77C1161.16,230.16,1156.32,238.39,1152.73,246Z"/><path class="cls-3" d="M1160.66,552.74l0,0C1159.94,551.87,1160.3,552.3,1160.66,552.74Z"/><path class="cls-2" d="M1273,400.6l-34.41,57c-14.94,24.77-30,49.73-49.59,71.06-5,5.46-15.65,13.91-28.28,24-5.73,5.57-25.59,7.94-25.6,7.94,6.23-8.31,47.48-42.82,65.26-74.43,4.28-6.86,8.47-13.79,12.64-20.7l34.41-57c9-15,23.69-32.22,40.28-26.71C1281.89,387.12,1276.89,394.08,1273,400.6Z"/><path class="cls-3" d="M1160.64,552.77l0,0C1161,553.2,1161.37,553.65,1160.64,552.77Z"/><path class="cls-2" d="M761.83,338.12a48.89,48.89,0,0,0-11.92,12.18c-10.06,14.87-12.8,33.34-15.29,51.12-8.47,60.67-17,121.43-20.45,182.59-1.8,31.47-2.15,63.8,8.18,93.58,4.37,12.59,10.9,24.82,20.2,34.2C502,1025.34,914.3,969.68,953.55,917.32c-40,42.42-71,62.63-99.5,90.07-86.16,83-239.46-4.6-278.22-107.07C556.67,849.67,671.11,767.11,717,719.71c-9.3-9.38-15.83-21.61-20.2-34.2-10.33-29.78-10-62.11-8.18-93.58,3.49-61.16,12-121.92,20.45-182.59,2.49-17.78,5.23-36.25,15.29-51.12C732.66,345.94,747.55,337,761.83,338.12Z"/><path class="cls-4" d="M1171.22,634.15c-23.53,21.48-43.17,46.83-65.29,69.77s-47.61,43.93-78,53.47c-9.92,3.11-20.81,4.92-30.63,1.48C984,754.24,975.45,740.74,972.85,727s-.23-28,2.42-41.79,5.59-27.79,4.1-41.76c-1.69-15.74-8.91-30.37-17.33-43.78-9.76-15.54-21.34-30.1-28.58-47-4-9.32-6.62-19.33-6.63-29.47a43.83,43.83,0,0,1,4.2-19.68c7.84-15.7,27.23-23.27,44.64-21.08s32.88,12.45,45.45,24.7,22.86,26.61,34.64,39.62a229.2,229.2,0,0,0,46.12,39.06c22.41,14.38,40.63,13.5,66,14.06C1195.71,600.48,1186.43,620.26,1171.22,634.15Z"/><path class="cls-4" d="M949.39,844.24c-17.4,13-42.33,15.12-61.65,5.16-28.49-14.68-40.51-49.79-66.66-68.32-9.2-6.52-19.82-10.73-29.39-16.68s-18.49-14.35-21.09-25.32c-2.68-11.32,1.79-22.94,3.33-34.47,3-22.74-5.44-45.21-12.43-67.06s-12.53-46-4-67.28c2.54-6.33,6.43-12.35,12.16-16,13.63-8.83,32.69-1.34,43.11,11.11,12.74,15.23,16.68,35.88,26.64,53a85.5,85.5,0,0,0,38.43,34.73c21.35,9.64,45.89,12.07,61.44,31.66,9.71,12.23,9.17,25.92,11.4,40.59C956.91,766.53,995.08,810,949.39,844.24Z"/></svg>