<svg width="1920" height="1080" viewBox="0 0 1920 1080" fill="none" xmlns="http://www.w3.org/2000/svg">
<g id="glovewithcrayons-01 1" clip-path="url(#clip0)">
<g id="hand">
<path id="Vector" d="M772.59 338.34C792.89 346.74 797.22 373.06 798.59 394.99C799.923 416.53 801.257 438.073 802.59 459.62C803.34 471.57 804.15 483.81 808.96 494.77C813.77 505.73 823.43 515.96 835.38 516.59C886.59 519.27 961.62 395.86 973.38 380.1C990.71 356.92 1003.22 330.58 1015.62 304.44L1044.15 244.25C1051.64 228.44 1064.52 209.79 1081.58 213.64C1091.98 215.99 1098.78 226.73 1099.91 237.33C1101.04 247.93 1097.7 258.46 1094.23 268.54C1077.76 316.043 1057.68 362.218 1034.17 406.66C1030.99 412.66 1027.62 419.53 1024.02 426.79C1040.6 410.1 1056.08 395.79 1062.02 387.86C1079.35 364.68 1091.86 338.34 1104.26 312.2L1132.79 252C1140.28 236.2 1153.16 217.55 1170.22 221.4C1180.62 223.75 1187.43 234.49 1188.55 245.09C1189.67 255.69 1186.34 266.22 1182.87 276.3C1166.4 323.803 1146.32 369.978 1122.81 414.42C1111.08 436.68 1096.81 469.82 1077.4 495.77C1094.81 481.53 1110.69 469.5 1117.16 462.45C1136.71 441.12 1151.8 416.16 1166.74 391.38L1201.15 334.38C1210.15 319.38 1224.86 302.13 1241.46 307.67C1251.57 311.05 1257.27 322.41 1257.33 333.08C1257.39 343.75 1253.01 353.88 1248.55 363.56C1227.55 409.21 1155.89 538.56 1140.71 558.83C1142.17 560.59 1139.31 557.02 1140.71 558.83C1153.35 548.68 1164.01 540.22 1169.02 534.76C1188.58 513.43 1203.66 488.47 1218.61 463.7L1253.02 406.7C1262.02 391.7 1276.73 374.46 1293.32 380C1303.43 383.37 1309.13 394.74 1309.19 405.4C1309.25 416.06 1304.87 426.2 1300.41 435.88C1279.41 481.53 1246.61 558.37 1220.04 601.02C1133.6 739.71 981.83 894.39 956 917C908.06 959 745.53 1060 689.14 1013.63C597.14 937.96 705.62 720.72 718.87 717.81C709.57 708.43 703.04 696.2 698.67 683.61C688.34 653.83 688.67 621.5 690.49 590.03C693.98 528.87 702.49 468.12 710.94 407.44C713.43 389.66 716.17 371.19 726.23 356.32C736.29 341.45 756 331.47 772.59 338.34Z" fill="#B59674"/>
<path id="Vector_2" d="M1064.09 238.21L1035.55 298.4C1023.16 324.55 1010.64 350.89 993.32 374.07C981.63 389.7 907.74 511.19 856.57 510.58C903.93 483.42 957.9 395.15 967.75 382C985.08 358.82 997.59 332.48 1009.98 306.33L1038.51 246.14C1046.01 230.34 1058.88 211.69 1075.95 215.54C1076.8 215.744 1077.64 216.004 1078.46 216.32C1072.52 222.4 1067.68 230.63 1064.09 238.21Z" fill="#887157"/>
<path id="Vector_3" d="M1221.09 328.32L1186.68 385.32C1171.73 410.073 1155.16 433.815 1137.09 456.39C1091.2 513.76 1078.09 505.07 1069.87 499.64C1077.44 489.5 1082.87 494.87 1117.87 457.07C1134.42 437.43 1147.87 415.27 1161.12 393.24L1195.53 336.24C1204.53 321.24 1219.22 304.01 1235.8 309.52C1230 314.84 1225 321.79 1221.09 328.32Z" fill="#887157"/>
<path id="Vector_4" d="M1152.73 246C1143.22 266.073 1133.71 286.137 1124.19 306.19C1111.8 332.34 1099.29 358.68 1081.96 381.86C1075.96 389.81 1029.03 444.37 1019.43 429.76C1023.04 422.49 1035.72 412.95 1040.63 408.22C1051.5 397.72 1064.38 380.74 1069.28 370.66C1080.36 352.59 1089.53 333.3 1098.62 314.11C1108.14 294.05 1117.65 273.987 1127.16 253.92C1134.65 238.12 1147.52 219.47 1164.59 223.32C1165.44 223.525 1166.28 223.782 1167.1 224.09C1161.16 230.16 1156.32 238.39 1152.73 246Z" fill="#887157"/>
<path id="Vector_5" d="M1160.66 552.74C1159.94 551.87 1160.3 552.3 1160.66 552.74V552.74Z" fill="#27282D"/>
<path id="Vector_6" d="M1273 400.6L1238.59 457.6C1223.65 482.37 1208.59 507.33 1189 528.66C1184 534.12 1173.35 542.57 1160.72 552.66C1154.99 558.23 1135.13 560.6 1135.12 560.6C1141.35 552.29 1182.6 517.78 1200.38 486.17C1204.66 479.31 1208.85 472.38 1213.02 465.47L1247.43 408.47C1256.43 393.47 1271.12 376.25 1287.71 381.76C1281.89 387.12 1276.89 394.08 1273 400.6Z" fill="#887157"/>
<path id="Vector_7" d="M1160.64 552.77C1161 553.2 1161.37 553.65 1160.64 552.77V552.77Z" fill="#27282D"/>
<path id="Vector_8" d="M761.83 338.12C757.174 341.451 753.14 345.573 749.91 350.3C739.85 365.17 737.11 383.64 734.62 401.42C726.15 462.09 717.62 522.85 714.17 584.01C712.37 615.48 712.02 647.81 722.35 677.59C726.72 690.18 733.25 702.41 742.55 711.79C502 1025.34 914.3 969.68 953.55 917.32C913.55 959.74 882.55 979.95 854.05 1007.39C767.89 1090.39 614.59 1002.79 575.83 900.32C556.67 849.67 671.11 767.11 717 719.71C707.7 710.33 701.17 698.1 696.8 685.51C686.47 655.73 686.8 623.4 688.62 591.93C692.11 530.77 700.62 470.01 709.07 409.34C711.56 391.56 714.3 373.09 724.36 358.22C732.66 345.94 747.55 337 761.83 338.12Z" fill="#887157"/>
<path id="Vector_9" d="M1171.22 634.15C1147.69 655.63 1128.05 680.98 1105.93 703.92C1083.81 726.86 1058.32 747.85 1027.93 757.39C1018.01 760.5 1007.12 762.31 997.3 758.87C984 754.24 975.45 740.74 972.85 727C970.25 713.26 972.62 699 975.27 685.21C977.92 671.42 980.86 657.42 979.37 643.45C977.68 627.71 970.46 613.08 962.04 599.67C952.28 584.13 940.7 569.57 933.46 552.67C929.46 543.35 926.84 533.34 926.83 523.2C926.685 516.403 928.123 509.665 931.03 503.52C938.87 487.82 958.26 480.25 975.67 482.44C993.08 484.63 1008.55 494.89 1021.12 507.14C1033.69 519.39 1043.98 533.75 1055.76 546.76C1069.34 561.759 1084.85 574.893 1101.88 585.82C1124.29 600.2 1142.51 599.32 1167.88 599.88C1195.71 600.48 1186.43 620.26 1171.22 634.15Z" fill="#C4A380"/>
<path id="Vector_10" d="M949.39 844.24C931.99 857.24 907.06 859.36 887.74 849.4C859.25 834.72 847.23 799.61 821.08 781.08C811.88 774.56 801.26 770.35 791.69 764.4C782.12 758.45 773.2 750.05 770.6 739.08C767.92 727.76 772.39 716.14 773.93 704.61C776.93 681.87 768.49 659.4 761.5 637.55C754.51 615.7 748.97 591.55 757.5 570.27C760.04 563.94 763.93 557.92 769.66 554.27C783.29 545.44 802.35 552.93 812.77 565.38C825.51 580.61 829.45 601.26 839.41 618.38C848.321 633.652 861.747 645.785 877.84 653.11C899.19 662.75 923.73 665.18 939.28 684.77C948.99 697 948.45 710.69 950.68 725.36C956.91 766.53 995.08 810 949.39 844.24Z" fill="#C4A380"/>
</g>
<g id="redpencil">
<path id="Vector_11" d="M1050.57 654.81C1050.84 651.2 1053.03 651.51 1053.03 651.51C1054.24 652.429 1055.21 653.621 1055.87 654.99C1056.22 655.917 1056.32 656.917 1056.17 657.894C1056.01 658.871 1055.61 659.793 1055 660.57C1053.34 661.2 1050.31 658.26 1050.57 654.81Z" fill="url(#paint0_linear)"/>
<g id="Group" style="mix-blend-mode:multiply">
<g id="Group_2" style="mix-blend-mode:multiply">
<path id="Vector_12" style="mix-blend-mode:multiply" d="M1055.87 655C1056.22 655.927 1056.32 656.927 1056.17 657.904C1056.01 658.881 1055.61 659.803 1055 660.58C1053.72 661.06 1051.66 659.45 1050.88 657.12C1051.83 657.302 1052.81 657.198 1053.7 656.82C1054.59 656.443 1055.34 655.809 1055.87 655V655Z" fill="url(#paint1_linear)"/>
</g>
</g>
<path id="Vector_13" style="mix-blend-mode:screen" opacity="0.6" d="M1052.82 651.51C1052.82 651.51 1050.53 651.57 1050.56 655.41C1050.56 654.618 1050.77 653.84 1051.16 653.154C1051.56 652.469 1052.13 651.902 1052.82 651.51V651.51Z" fill="url(#paint2_linear)"/>
<path id="Vector_14" d="M744.5 696.87C741.98 692.87 740 688.62 739.74 683.87C739.57 680.87 739.74 676.44 741.05 673.66C741.05 673.66 746.61 662.04 753.99 660.3L997.31 637.18C997.31 637.18 984.47 648.33 989.99 664.71C994.8 678.98 1001.09 681.56 1001.09 681.56L756.28 705.33C751.2 705.82 746.85 700.6 744.5 696.87Z" fill="url(#paint3_linear)"/>
<path id="Vector_15" d="M990 664.67C984.48 648.29 997.32 637.14 997.32 637.14C997.792 636.997 998.295 636.986 998.773 637.11C999.251 637.233 999.686 637.486 1000.03 637.84C1001.14 639.06 1003.64 680.59 1003.64 680.59C1002.85 681.042 1001.99 681.356 1001.1 681.52C1001.1 681.52 994.8 678.94 990 664.67Z" fill="url(#paint4_linear)"/>
<path id="Vector_16" d="M1003 671.25C1003.36 676.69 1003.59 680.59 1003.59 680.59C1002.8 681.042 1001.94 681.356 1001.05 681.52C1001.05 681.52 996.85 679.79 992.68 671.36C996.071 670.573 999.593 670.536 1003 671.25V671.25Z" fill="url(#paint5_linear)"/>
<path id="Vector_17" d="M992.93 662.27C989.6 648.72 1000.01 637.84 1000.02 637.84L1053.02 651.51C1053.02 651.51 1050.83 651.2 1050.56 654.81C1050.3 658.26 1053.33 661.2 1054.99 660.57C1054.78 660.847 1054.53 661.093 1054.25 661.3C1052.68 662.44 1013.96 676.77 1003.62 680.59C1001.72 679.08 995.72 673.57 992.93 662.27Z" fill="url(#paint6_linear)"/>
<g id="Group_3">
<path id="Vector_18" opacity="0.4" d="M995 639.57L747.6 664.23C749.316 662.342 751.515 660.959 753.96 660.23L997.28 637.11C996.475 637.86 995.723 638.665 995.03 639.52L995 639.57Z" fill="url(#paint7_linear)"/>
</g>
<g id="Group_4">
<path id="Vector_19" style="mix-blend-mode:multiply" opacity="0.8" d="M994.22 674.11C997.84 680.11 1001.09 681.51 1001.09 681.51L756.28 705.33C751.2 705.82 746.85 700.6 744.5 696.87L994.22 674.11Z" fill="url(#paint8_linear)"/>
</g>
<g id="Group_5">
<path id="Vector_20" style="mix-blend-mode:multiply" opacity="0.6" d="M994.22 674.12C997.22 675.32 997.65 673.65 997.65 673.65C999.243 676.303 1001.27 678.67 1003.65 680.65C1002.86 681.102 1002 681.416 1001.11 681.58C1001.11 681.58 997.84 680.16 994.22 674.12Z" fill="url(#paint9_linear)"/>
</g>
<g id="Group_6">
<path id="Vector_21" style="mix-blend-mode:multiply" d="M997.65 673.64L1050.92 657.25C1051.74 659.51 1053.75 661.04 1055 660.57C1054.79 660.847 1054.54 661.093 1054.26 661.3C1052.69 662.44 1013.97 676.77 1003.63 680.59C1001.26 678.623 999.242 676.274 997.65 673.64V673.64Z" fill="url(#paint10_linear)"/>
</g>
<g id="Group_7">
<path id="Vector_22" opacity="0.4" d="M998.06 640.27C998.06 640.27 996.13 638.27 995.06 639.55C995.753 638.695 996.505 637.89 997.31 637.14C997.782 636.997 998.285 636.986 998.763 637.11C999.241 637.233 999.676 637.486 1000.02 637.84C999.303 638.607 998.635 639.419 998.02 640.27H998.06Z" fill="url(#paint11_linear)"/>
</g>
<g id="Group_8">
<path id="Vector_23" opacity="0.4" d="M998.06 640.27C998.675 639.419 999.343 638.607 1000.06 637.84L1053.06 651.51C1052.63 651.497 1052.2 651.621 1051.84 651.866C1051.48 652.11 1051.21 652.461 1051.06 652.87H1050.68L998.06 640.27Z" fill="url(#paint12_linear)"/>
</g>
<g id="Group_9">
<path id="Vector_24" style="mix-blend-mode:overlay" opacity="0.5" d="M993.16 650.36L989.81 649L740.2 676.28C740.378 675.363 740.663 674.47 741.05 673.62C741.678 672.364 742.373 671.143 743.13 669.96L991.25 645.42L994.46 646.63L1050.57 654.81C1050.53 655.506 1050.61 656.205 1050.82 656.87V656.87L993.16 650.36Z" fill="url(#paint13_linear)"/>
</g>
<path id="Vector_25" d="M961.44 640.23L968.44 639.57C964.36 645.33 953.82 664.07 971.73 684.57L966.07 685.12C948 665.28 957 647 961.44 640.23Z" fill="black"/>
<path id="Vector_26" d="M803.36 655.26L961.44 640.26C956.97 646.99 948.04 665.26 966.05 685.11L806.57 700.59C787.87 679.59 799.9 660 803.36 655.26Z" fill="url(#paint14_linear)"/>
<path id="Vector_27" d="M796.43 655.91L803.36 655.26C799.9 660 787.87 679.59 806.57 700.59L800.85 701.14C782.18 680.9 792.39 661.84 796.43 655.91Z" fill="black"/>
<g id="Group_10" opacity="0.6">
<path id="Vector_28" style="mix-blend-mode:screen" opacity="0.6" d="M994.36 640.41C991.719 643.696 989.925 647.58 989.135 651.721C988.346 655.861 988.584 660.133 989.83 664.16C988.85 660.107 988.748 655.891 989.529 651.796C990.31 647.7 991.957 643.818 994.36 640.41V640.41Z" fill="url(#paint15_linear)"/>
<path id="Vector_29" style="mix-blend-mode:screen" opacity="0.6" d="M995.89 643.69C995.89 643.69 990 653.32 993.12 663C993.12 663 990.16 656.67 995.89 643.69Z" fill="url(#paint16_linear)"/>
</g>
<g id="Group_11">
<path id="Vector_30" style="mix-blend-mode:screen" opacity="0.5" d="M965.84 641.41C963.314 644.828 961.585 648.767 960.78 652.94C960.78 652.94 960.83 656.12 956.78 656.24C952.73 656.36 799 673 799 673C799 673 793.4 674.83 792.41 670.66C791.42 666.49 795.59 657.37 799.16 656.46C802.73 655.55 963 640.55 963 640.55C963 640.55 967 639.74 965.84 641.41Z" fill="url(#paint17_linear)"/>
</g>
</g>
<g id="orangepencil">
<path id="Vector_31" d="M972.4 600.91C969.9 597.69 968.04 599.35 968.04 599.35C967.479 600.953 967.304 602.666 967.53 604.35C967.782 605.437 968.31 606.441 969.064 607.264C969.817 608.087 970.77 608.702 971.83 609.05C973.78 608.64 974.79 604 972.4 600.91Z" fill="url(#paint18_linear)"/>
<g id="Group_12" style="mix-blend-mode:multiply" opacity="0.8">
<g id="Group_13" style="mix-blend-mode:multiply" opacity="0.8">
<path id="Vector_32" style="mix-blend-mode:multiply" opacity="0.8" d="M967.53 604.39C967.782 605.477 968.31 606.481 969.064 607.304C969.817 608.127 970.77 608.742 971.83 609.09C973.32 608.75 974.25 605.94 973.54 603.27C972.761 604.03 971.775 604.543 970.705 604.742C969.635 604.941 968.53 604.819 967.53 604.39V604.39Z" fill="url(#paint19_linear)"/>
</g>
</g>
<path id="Vector_33" d="M1286.23 450.08C1286.1 444.75 1285.34 439.53 1282.6 434.86C1280.88 431.92 1277.99 427.86 1275.02 426.08C1275.02 426.08 1262.57 418.61 1254.55 421.57L1011.47 551.18C1011.47 551.18 1030.47 553.68 1035.47 572.5C1039.83 588.9 1035.47 595.25 1035.47 595.25L1280.37 465.36C1285.51 462.66 1286.34 455 1286.23 450.08Z" fill="url(#paint20_linear)"/>
<path id="Vector_34" d="M1035.47 572.5C1030.47 553.68 1011.47 551.18 1011.47 551.18C1010.94 551.336 1010.46 551.637 1010.08 552.051C1009.71 552.464 1009.46 552.973 1009.36 553.52C1009.07 555.37 1032.55 595.95 1032.55 595.95C1033.58 595.889 1034.6 595.652 1035.55 595.25C1035.55 595.25 1039.83 588.9 1035.47 572.5Z" fill="url(#paint21_linear)"/>
<path id="Vector_35" d="M1031.21 572.08C1025.92 557.27 1009.37 553.52 1009.36 553.52L968 599.35C968 599.35 969.86 597.69 972.36 600.91C974.86 604.13 973.74 608.64 971.79 609.09C972.159 609.213 972.542 609.287 972.93 609.31C975.12 609.4 1020.42 598.79 1032.51 595.95C1033.41 593.34 1035.63 584.43 1031.21 572.08Z" fill="url(#paint22_linear)"/>
<g id="Group_14">
<path id="Vector_36" style="mix-blend-mode:overlay" opacity="0.5" d="M1015.13 552.05L1263 421.34C1260.22 420.645 1257.3 420.725 1254.56 421.57L1011.47 551.18C1012.69 551.387 1013.9 551.674 1015.08 552.04L1015.13 552.05Z" fill="url(#paint23_linear)"/>
</g>
<g id="Group_15">
<path id="Vector_37" style="mix-blend-mode:multiply" opacity="0.8" d="M1037.37 584C1037.73 591.93 1035.52 595.23 1035.52 595.23L1280.42 465.34C1285.51 462.64 1286.34 455.02 1286.23 450.06L1037.37 584Z" fill="url(#paint24_linear)"/>
</g>
<g id="Group_16">
<path id="Vector_38" style="mix-blend-mode:multiply" opacity="0.8" d="M1037.37 584C1035.25 587 1033.86 585.68 1033.86 585.68C1034 589.146 1033.56 592.611 1032.55 595.93C1033.58 595.869 1034.6 595.632 1035.55 595.23C1035.55 595.23 1037.73 592 1037.37 584Z" fill="url(#paint25_linear)"/>
</g>
<g id="Group_17">
<path id="Vector_39" style="mix-blend-mode:multiply" opacity="0.8" d="M1033.86 585.7L973.6 603.43C974.23 606.06 973.29 608.75 971.83 609.09C972.199 609.213 972.582 609.287 972.97 609.31C975.16 609.4 1020.46 598.79 1032.55 595.95C1033.56 592.631 1034 589.166 1033.86 585.7V585.7Z" fill="url(#paint26_linear)"/>
</g>
<g id="Group_18">
<path id="Vector_40" opacity="0.4" d="M1012.71 554.59C1012.71 554.59 1013.27 551.49 1015.08 552.04C1013.9 551.674 1012.69 551.387 1011.47 551.18C1010.94 551.336 1010.46 551.637 1010.08 552.051C1009.71 552.464 1009.46 552.973 1009.36 553.52C1010.5 553.813 1011.61 554.17 1012.71 554.59V554.59Z" fill="url(#paint27_radial)"/>
</g>
<g id="Group_19">
<path id="Vector_41" style="mix-blend-mode:overlay" opacity="0.5" d="M1012.71 554.59C1011.62 554.171 1010.5 553.814 1009.37 553.52L968 599.35C968.394 599.061 968.871 598.905 969.36 598.905C969.849 598.905 970.326 599.061 970.72 599.35L971.05 599.07L1012.71 554.59Z" fill="url(#paint28_linear)"/>
</g>
<g id="Group_20">
<path id="Vector_42" style="mix-blend-mode:overlay" opacity="0.5" d="M1023.6 561L1025.88 557.61L1277.47 428.02C1276.73 427.26 1275.91 426.589 1275.02 426.02C1273.65 425.227 1272.24 424.51 1270.79 423.87L1022.31 555.2L1020.05 558.33L972.4 600.91C972.878 601.54 973.237 602.251 973.46 603.01V603.01L1023.6 561Z" fill="url(#paint29_linear)"/>
</g>
<path id="Vector_43" d="M1047.11 531.77L1040.11 535.5C1047.53 538.36 1069.11 549.42 1064.99 579.8L1070.65 576.8C1075.28 547 1055.49 535.32 1047.11 531.77Z" fill="black"/>
<path id="Vector_44" d="M1205 447.58L1047.08 531.77C1055.46 535.32 1075.25 546.99 1070.64 576.77L1230.17 492.15C1234.72 460.81 1211.23 449.89 1205 447.58Z" fill="url(#paint30_linear)"/>
<path id="Vector_45" d="M1212 443.88L1205.08 447.58C1211.28 449.89 1234.77 460.81 1230.25 492.18L1235.98 489.18C1240.89 458.5 1219.43 446.93 1212 443.88Z" fill="black"/>
<g id="Group_21" opacity="0.6">
<g id="Vector_46" style="mix-blend-mode:screen" opacity="0.6">
<path d="M1016.28 552.42C1020.8 553.872 1024.9 556.409 1028.21 559.811C1031.52 563.212 1033.95 567.373 1035.28 571.93C1035.28 571.93 1031 558 1016.28 552.42Z" fill="#E4E3E4"/>
</g>
<g id="Vector_47" style="mix-blend-mode:screen" opacity="0.6">
<path d="M1016.88 556.46C1016.88 556.46 1028.43 561.83 1031.48 572.87C1031.48 572.87 1030.33 565.09 1016.88 556.46Z" fill="#E4E3E4"/>
</g>
</g>
<g id="Group_22">
<path id="Vector_48" style="mix-blend-mode:screen" opacity="0.5" d="M1044.71 536.45C1044.71 536.45 1051.86 538.85 1056.65 544.14C1056.65 544.14 1058.56 547.14 1062.48 544.72C1066.4 542.3 1221.13 462.37 1221.13 462.37C1221.13 462.37 1227.55 460.6 1225.87 456.07C1224.19 451.54 1214.61 445.55 1210.7 446.92C1206.79 448.29 1046.9 533.84 1046.9 533.84C1046.9 533.84 1042.6 535.59 1044.71 536.45Z" fill="url(#paint31_linear)"/>
</g>
<path id="Vector_49" style="mix-blend-mode:multiply" d="M1070.75 560.81C1071.57 566.114 1071.55 571.515 1070.67 576.81L1230.2 492.19C1231.12 486.444 1230.95 480.577 1229.72 474.89L1070.75 560.81Z" fill="url(#paint32_linear)"/>
<g id="Vector_50" style="mix-blend-mode:screen" opacity="0.7">
<path d="M968.24 599.22C968.24 599.22 970.42 597.85 972.78 601.48C972.78 601.48 971.08 598.82 968.24 599.22Z" fill="#E4E3E4"/>
</g>
</g>
<g id="yellowpencil">
<path id="Vector_51" d="M967.181 618.724C969.821 615.964 971.391 617.724 971.391 617.724C971.77 619.278 971.77 620.9 971.391 622.454C971.059 623.447 970.476 624.338 969.698 625.039C968.92 625.74 967.974 626.227 966.951 626.454C965.171 625.784 964.671 621.374 967.181 618.724Z" fill="url(#paint33_linear)"/>
<g id="Group_23" style="mix-blend-mode:multiply" opacity="0.5">
<g id="Vector_52" style="mix-blend-mode:multiply" opacity="0.5">
<path d="M971.391 622.414C971.059 623.407 970.476 624.298 969.698 624.999C968.92 625.7 967.974 626.187 966.951 626.414C965.591 625.954 964.951 623.254 965.901 620.834C966.557 621.612 967.429 622.178 968.406 622.459C969.384 622.741 970.423 622.725 971.391 622.414Z" fill="#E8C926"/>
</g>
</g>
<g id="Vector_53" style="mix-blend-mode:screen" opacity="0.6">
<path d="M971.221 617.544C971.221 617.544 969.321 616.064 966.771 619.224C966.741 619.224 968.611 616.894 971.221 617.544Z" fill="#E4E3E4"/>
</g>
<path id="Vector_54" d="M689.281 448.714C689.891 443.764 691.101 438.974 694.091 434.884C695.971 432.314 699.041 428.814 701.981 427.434C701.981 427.434 714.271 421.654 721.461 425.164L935.461 568.754C935.461 568.754 917.531 569.274 911.101 586.324C905.501 601.194 908.911 607.504 908.911 607.504L693.191 463.504C688.741 460.494 688.741 453.324 689.281 448.714Z" fill="url(#paint34_linear)"/>
<path id="Vector_55" d="M911.151 586.324C917.581 569.274 935.511 568.754 935.511 568.754C935.991 568.952 936.406 569.278 936.713 569.696C937.02 570.114 937.206 570.608 937.251 571.124C937.341 572.874 911.661 608.434 911.661 608.434C910.716 608.278 909.803 607.963 908.961 607.504C908.961 607.504 905.551 601.194 911.151 586.324Z" fill="url(#paint35_linear)"/>
<path id="Vector_56" opacity="0.4" d="M917.411 600.414C914.071 605.094 911.661 608.414 911.661 608.414C910.716 608.258 909.803 607.943 908.961 607.484C908.961 607.484 906.691 603.254 908.911 593.594C912.205 595.226 915.105 597.553 917.411 600.414V600.414Z" fill="#F2D71A"/>
<path id="Vector_57" d="M915.161 586.334C921.481 573.054 937.251 571.124 937.251 571.124L971.391 617.684C971.391 617.684 969.821 615.964 967.181 618.684C964.541 621.404 965.181 625.744 966.951 626.354C966.594 626.434 966.227 626.464 965.861 626.444C963.861 626.334 922.651 612.184 911.661 608.444C911.101 605.974 909.881 597.424 915.161 586.334Z" fill="url(#paint36_linear)"/>
<g id="Group_24">
<path id="Vector_58" opacity="0.5" d="M932.021 569.214L713.621 424.154C716.277 423.767 718.988 424.113 721.461 425.154L935.461 568.744C934.302 568.814 933.15 568.965 932.011 569.194L932.021 569.214Z" fill="url(#paint37_linear)"/>
</g>
<g id="Group_25">
<path id="Vector_59" style="mix-blend-mode:multiply" opacity="0.8" d="M908.291 596.864C907.211 604.214 908.951 607.494 908.951 607.494L693.231 463.494C688.761 460.494 688.691 453.334 689.231 448.724L908.291 596.864Z" fill="url(#paint38_linear)"/>
</g>
<g id="Group_26">
<path id="Vector_60" style="mix-blend-mode:multiply" opacity="0.8" d="M908.301 596.874C909.991 599.874 911.411 598.774 911.411 598.774C910.951 601.986 911.036 605.251 911.661 608.434C910.716 608.278 909.803 607.963 908.961 607.504C908.961 607.504 907.221 604.224 908.301 596.874Z" fill="url(#paint39_linear)"/>
</g>
<g id="Group_27">
<path id="Vector_61" style="mix-blend-mode:multiply" opacity="0.8" d="M911.411 598.774L965.841 620.974C965.001 623.364 965.621 625.974 966.951 626.414C966.594 626.494 966.227 626.524 965.861 626.504C963.861 626.394 922.651 612.244 911.661 608.504C911.028 605.299 910.943 602.008 911.411 598.774V598.774Z" fill="url(#paint40_linear)"/>
</g>
<g id="Group_28">
<path id="Vector_62" opacity="0.4" d="M934.031 571.804C934.031 571.804 933.801 568.864 932.031 569.204C933.17 568.975 934.322 568.824 935.481 568.754C935.961 568.952 936.377 569.278 936.683 569.696C936.99 570.114 937.176 570.608 937.221 571.124C936.136 571.29 935.061 571.517 934.001 571.804H934.031Z" fill="url(#paint41_radial)"/>
</g>
<g id="Group_29">
<path id="Vector_63" style="mix-blend-mode:overlay" opacity="0.5" d="M934.031 571.804C935.091 571.517 936.166 571.29 937.251 571.124L971.391 617.684C971.05 617.381 970.62 617.195 970.164 617.153C969.709 617.112 969.252 617.217 968.861 617.454L968.571 617.154L934.031 571.804Z" fill="url(#paint42_linear)"/>
</g>
<g id="Group_30">
<path id="Vector_64" style="mix-blend-mode:overlay" opacity="0.5" d="M923.291 576.774L921.491 573.404L699.491 429.034C700.255 428.409 701.087 427.872 701.971 427.434C703.32 426.824 704.702 426.289 706.111 425.834L925.031 571.464L926.841 574.594L967.181 618.724C966.681 619.269 966.281 619.899 966.001 620.584V620.584L923.291 576.774Z" fill="url(#paint43_linear)"/>
</g>
<path id="Vector_65" d="M904.161 547.314L910.311 551.444C903.131 553.444 882.011 561.674 882.971 590.344L877.971 587.014C876.501 558.834 896.021 549.834 904.161 547.314Z" fill="black"/>
<path id="Vector_66" d="M765.101 454.044L904.161 547.314C896.021 549.834 876.501 558.834 877.991 587.014L737.461 493.194C736.211 463.564 759.111 455.614 765.101 454.044Z" fill="url(#paint44_linear)"/>
<path id="Vector_67" d="M759.011 449.974L765.101 454.064C759.101 455.634 736.211 463.584 737.461 493.214L732.461 489.844C730.741 460.834 751.741 452.084 759.011 449.974Z" fill="black"/>
<g id="Group_31" opacity="0.6">
<g id="Vector_68" style="mix-blend-mode:screen" opacity="0.6">
<path d="M930.911 569.454C926.562 570.374 922.504 572.346 919.094 575.198C915.684 578.05 913.025 581.696 911.351 585.814C911.351 585.814 916.671 573.204 930.911 569.454Z" fill="#E4E3E4"/>
</g>
<g id="Vector_69" style="mix-blend-mode:screen" opacity="0.6">
<path d="M929.971 573.154C929.971 573.154 918.721 577.054 914.831 587.044C914.831 587.044 916.631 579.914 929.971 573.154Z" fill="#E4E3E4"/>
</g>
</g>
<g id="Group_32">
<path id="Vector_70" style="mix-blend-mode:screen" opacity="0.5" d="M905.961 551.894C901.617 552.987 897.571 555.037 894.121 557.894C894.121 557.894 892.051 560.524 888.631 557.894C885.211 555.264 748.741 466.294 748.741 466.294C748.741 466.294 742.941 464.044 744.921 459.984C746.901 455.924 756.401 451.264 759.921 452.894C763.441 454.524 904.201 549.264 904.201 549.264C904.201 549.264 908.001 551.294 905.961 551.894Z" fill="url(#paint45_linear)"/>
</g>
<path id="Vector_71" style="mix-blend-mode:multiply" d="M879.421 572.114C878.146 576.972 877.663 582.003 877.991 587.014L737.461 493.194C737.154 487.758 737.859 482.313 739.541 477.134L879.421 572.114Z" fill="url(#paint46_linear)"/>
</g>
<g id="greenpencil">
<path id="Vector_72" d="M1146 151.08C1142.83 148.96 1141.67 150.98 1141.67 150.98C1141.63 152.578 1141.97 154.162 1142.67 155.6C1143.21 156.489 1143.98 157.223 1144.89 157.731C1145.8 158.239 1146.83 158.504 1147.87 158.5C1149.51 157.52 1149 153.1 1146 151.08Z" fill="url(#paint47_linear)"/>
<g id="Group_33" style="mix-blend-mode:multiply" opacity="0.5">
<g id="Vector_73" style="mix-blend-mode:multiply" opacity="0.5">
<path d="M1142.71 155.6C1143.25 156.489 1144.02 157.223 1144.93 157.731C1145.84 158.239 1146.87 158.504 1147.91 158.5C1149.14 157.75 1149.13 154.99 1147.71 152.83C1147.24 153.735 1146.52 154.481 1145.63 154.974C1144.74 155.467 1143.72 155.685 1142.71 155.6V155.6Z" fill="#E8C926"/>
</g>
</g>
<g id="Vector_74" style="mix-blend-mode:screen" opacity="0.6">
<path d="M1141.81 150.8C1141.81 150.8 1143.33 148.94 1146.52 151.47C1146.52 151.47 1144.21 149.6 1141.81 150.8Z" fill="#E4E3E4"/>
</g>
<path id="Vector_75" d="M1379.9 -75.7C1378.22 -80.4 1375.99 -84.8 1372.18 -88.14C1369.78 -90.24 1366.02 -92.98 1362.85 -93.69C1362.85 -93.69 1349.58 -96.63 1343.35 -91.63L1166 95.37C1166 95.37 1183.61 91.95 1193.62 107.18C1202.34 120.46 1200.39 127.36 1200.39 127.36C1200.39 127.36 1379 -60.19 1379.27 -60.42C1383 -64.32 1381.47 -71.33 1379.9 -75.7Z" fill="url(#paint48_linear)"/>
<path id="Vector_76" d="M1193.58 107.18C1183.57 92 1166 95.37 1166 95.37C1165.57 95.6683 1165.24 96.078 1165.03 96.5543C1164.82 97.0306 1164.75 97.555 1164.82 98.07C1165.11 99.79 1197.97 128.86 1197.97 128.86C1198.86 128.502 1199.67 127.995 1200.39 127.36C1200.39 127.36 1202.3 120.46 1193.58 107.18Z" fill="url(#paint49_linear)"/>
<path id="Vector_77" opacity="0.4" d="M1190.56 122.3C1194.84 126.13 1197.93 128.86 1197.93 128.86C1198.82 128.502 1199.64 127.995 1200.35 127.36C1200.35 127.36 1201.64 122.74 1197.35 113.81C1194.49 116.109 1192.17 119.007 1190.56 122.3V122.3Z" fill="#F2D71A"/>
<path id="Vector_78" d="M1189.66 108.07C1180.59 96.5 1164.78 98.07 1164.78 98.07L1141.67 151C1141.67 151 1142.83 149 1146 151.1C1149.17 153.2 1149.51 157.54 1147.91 158.52C1148.28 158.521 1148.64 158.471 1148.99 158.37C1150.99 157.82 1187.99 134.99 1197.93 128.88C1197.91 126.3 1197.25 117.73 1189.66 108.07Z" fill="url(#paint50_linear)"/>
<g id="Group_34">
<path id="Vector_79" d="M1169.46 95.05L1350.77 -94.33C1348.1 -94.1231 1345.53 -93.1894 1343.35 -91.63L1166 95.37C1167.14 95.1854 1168.3 95.0818 1169.46 95.06V95.05Z" fill="url(#paint51_linear)"/>
</g>
<g id="Group_35">
<path id="Vector_80" style="mix-blend-mode:multiply" opacity="0.8" d="M1198.67 116.84C1201.35 123.77 1200.36 127.35 1200.36 127.35C1200.36 127.35 1379 -60.19 1379.27 -60.42C1382.98 -64.32 1381.47 -71.33 1379.9 -75.7L1198.67 116.84Z" fill="url(#paint52_linear)"/>
</g>
<g id="Group_36">
<path id="Vector_81" style="mix-blend-mode:multiply" opacity="0.8" d="M1198.66 116.85C1197.66 120.16 1196.05 119.38 1196.05 119.38C1197.21 122.412 1197.84 125.617 1197.94 128.86C1198.83 128.502 1199.65 127.995 1200.36 127.36C1200.36 127.36 1201.34 123.78 1198.66 116.85Z" fill="url(#paint53_linear)"/>
</g>
<g id="Group_37">
<path id="Vector_82" style="mix-blend-mode:multiply" opacity="0.8" d="M1196 119.38L1147.81 153C1149.15 155.14 1149.11 157.81 1147.91 158.54C1148.28 158.541 1148.64 158.491 1148.99 158.39C1150.99 157.84 1187.99 135.01 1197.93 128.9C1197.83 125.641 1197.17 122.422 1196 119.38V119.38Z" fill="url(#paint54_linear)"/>
</g>
<g id="Group_38">
<path id="Vector_83" opacity="0.4" d="M1168.07 98C1168.07 98 1167.65 95.08 1169.42 95C1168.26 95.0218 1167.1 95.1254 1165.96 95.31C1165.53 95.6083 1165.2 96.018 1164.99 96.4943C1164.78 96.9706 1164.71 97.495 1164.78 98.01C1165.88 97.944 1166.97 97.944 1168.07 98.01V98Z" fill="url(#paint55_radial)"/>
</g>
<g id="Group_39">
<path id="Vector_84" style="mix-blend-mode:overlay" opacity="0.5" d="M1168.07 98C1166.97 97.934 1165.88 97.934 1164.78 98L1141.67 151C1141.94 150.63 1142.32 150.354 1142.75 150.214C1143.19 150.074 1143.66 150.076 1144.09 150.22L1144.3 149.87L1168.07 98Z" fill="url(#paint56_linear)"/>
</g>
<g id="Group_40">
<path id="Vector_85" style="mix-blend-mode:overlay" opacity="0.5" d="M1179.63 100.52L1180.63 96.84L1365.58 -92.66C1364.7 -93.0936 1363.77 -93.429 1362.82 -93.66C1361.37 -93.9564 1359.9 -94.1734 1358.43 -94.31L1176.78 95.72L1175.69 99.17L1146 151.08C1146.61 151.491 1147.14 152.013 1147.56 152.62V152.62L1179.63 100.52Z" fill="url(#paint57_linear)"/>
</g>
<path id="Vector_86" d="M1191.85 67.59L1186.75 72.97C1194.19 73.31 1216.6 76.75 1221.95 104.97L1226.08 100.63C1221.36 72.76 1200.34 68.26 1191.85 67.59Z" fill="black"/>
<g id="Group_41" opacity="0.6">
<g id="Vector_87" style="mix-blend-mode:screen" opacity="0.6">
<path d="M1170.6 95.05C1175.05 94.9922 1179.44 96.0259 1183.39 98.0606C1187.34 100.095 1190.73 103.069 1193.27 106.72C1193.27 106.72 1185.31 95.59 1170.6 95.05Z" fill="#E4E3E4"/>
</g>
<g id="Vector_88" style="mix-blend-mode:screen" opacity="0.6">
<path d="M1172.32 98.45C1172.32 98.45 1184.16 99.8 1190.14 108.69C1190.14 108.69 1186.82 102.13 1172.32 98.45Z" fill="#E4E3E4"/>
</g>
</g>
<g id="Group_42">
<path id="Vector_89" style="mix-blend-mode:screen" opacity="0.5" d="M1191.1 72.45C1195.59 72.5667 1200 73.6911 1204 75.74C1204 75.74 1206.6 77.85 1209.35 74.54C1212.1 71.23 1325.76 -45.53 1325.76 -45.53C1325.76 -45.53 1330.93 -48.99 1328.11 -52.53C1325.29 -56.07 1315 -58.53 1311.93 -56.16C1308.86 -53.79 1192.28 69.49 1192.28 69.49C1192.28 69.49 1189 72.31 1191.1 72.45Z" fill="url(#paint58_linear)"/>
</g>
<path id="Vector_90" style="mix-blend-mode:multiply" d="M1221.42 86.36C1223.72 90.8203 1225.3 95.6213 1226.08 100.58L1342.64 -21.75C1341.75 -27.1335 1339.87 -32.3048 1337.09 -37L1221.42 86.36Z" fill="url(#paint59_linear)"/>
</g>
<g id="pinkpencil">
<path id="Vector_91" d="M772.14 228C776.14 227.08 776.5 229.54 776.5 229.54C775.923 231.143 774.974 232.586 773.73 233.75C772.851 234.434 771.81 234.88 770.708 235.045C769.606 235.209 768.481 235.087 767.44 234.69C766.21 233.16 768.35 228.92 772.14 228Z" fill="url(#paint60_linear)"/>
<g id="Group_43" style="mix-blend-mode:multiply">
<g id="Group_44" style="mix-blend-mode:multiply">
<path id="Vector_92" style="mix-blend-mode:multiply" d="M773.73 233.79C772.851 234.474 771.81 234.92 770.708 235.085C769.606 235.249 768.481 235.127 767.44 234.73C766.44 233.52 767.54 230.73 769.78 229.15C769.901 230.229 770.342 231.247 771.046 232.074C771.75 232.9 772.684 233.498 773.73 233.79V233.79Z" fill="url(#paint61_linear)"/>
</g>
</g>
<g id="Vector_93" style="mix-blend-mode:screen" opacity="0.6">
<path d="M776.43 229.34C776.43 229.34 775.6 226.91 771.48 228.24C771.48 228.24 774.48 227.25 776.43 229.34Z" fill="#F8F8F7"/>
</g>
<path id="Vector_94" d="M624.12 -86.3C627.57 -90.3 631.45 -93.91 636.51 -95.8C639.69 -96.99 644.51 -98.31 647.91 -97.8C647.91 -97.8 662.25 -95.74 666.59 -88.4L773.2 164.94C773.2 164.94 756.91 154.94 741.2 166.34C727.5 176.34 726.84 183.92 726.84 183.92C726.84 183.92 619.13 -70.49 619 -70.81C616.76 -76.1 620.91 -82.53 624.12 -86.3Z" fill="url(#paint62_linear)"/>
<path id="Vector_95" d="M741.19 166.34C756.91 154.91 773.19 164.94 773.19 164.94C773.505 165.397 773.686 165.933 773.714 166.487C773.743 167.042 773.616 167.593 773.35 168.08C772.41 169.69 728.68 186.33 728.68 186.33C727.93 185.636 727.302 184.821 726.82 183.92C726.82 183.92 727.49 176.3 741.19 166.34Z" fill="url(#paint63_radial)"/>
<path id="Vector_96" d="M738.51 182.56C732.8 184.77 728.69 186.33 728.69 186.33C727.94 185.636 727.312 184.821 726.83 183.92C726.83 183.92 727.28 178.82 734.93 171.52C736.908 174.898 738.129 178.664 738.51 182.56Z" fill="url(#paint64_linear)"/>
<path id="Vector_97" d="M744.76 168.69C758.18 160.56 773.35 168.08 773.36 168.08L776.5 229.58C776.5 229.58 776.1 227.12 772.14 228.04C768.35 228.92 766.21 233.16 767.44 234.73C767.083 234.593 766.747 234.408 766.44 234.18C764.68 232.88 736.29 196.18 728.72 186.33C729.67 183.77 733.56 175.48 744.76 168.69Z" fill="url(#paint65_linear)"/>
<g id="Group_45">
<path id="Vector_98" opacity="0.4" d="M769.82 163.31L660.2 -93.91C662.795 -92.7038 665.007 -90.8038 666.59 -88.42L773.2 164.94C772.125 164.33 771.009 163.795 769.86 163.34L769.82 163.31Z" fill="url(#paint66_linear)"/>
</g>
<g id="Group_46">
<path id="Vector_99" style="mix-blend-mode:multiply" opacity="0.8" d="M732.48 174.05C727.22 179.96 726.84 183.91 726.84 183.91C726.84 183.91 619.13 -70.49 619 -70.81C616.76 -76.1 620.91 -82.53 624.12 -86.3L732.48 174.05Z" fill="url(#paint67_linear)"/>
</g>
<g id="Group_47">
<path id="Vector_100" style="mix-blend-mode:multiply" opacity="0.6" d="M732.47 174.06C732.21 177.74 734.13 177.57 734.13 177.57C731.839 180.161 730 183.119 728.69 186.32C727.94 185.626 727.312 184.811 726.83 183.91C726.83 183.91 727.21 180 732.47 174.06Z" fill="url(#paint68_linear)"/>
</g>
<g id="Group_48">
<path id="Vector_101" style="mix-blend-mode:multiply" d="M734.13 177.58L769.63 229.24C767.49 230.87 766.51 233.55 767.44 234.73C767.083 234.593 766.747 234.408 766.44 234.18C764.68 232.88 736.29 196.18 728.72 186.33C730.021 183.131 731.85 180.173 734.13 177.58V177.58Z" fill="url(#paint69_linear)"/>
</g>
<g id="Group_49">
<path id="Vector_102" opacity="0.4" d="M770.09 166.79C770.09 166.79 771.61 164.05 769.86 163.34C771.009 163.795 772.125 164.33 773.2 164.94C773.515 165.397 773.696 165.933 773.724 166.487C773.753 167.042 773.626 167.593 773.36 168.08C772.295 167.593 771.203 167.166 770.09 166.8V166.79Z" fill="url(#paint70_radial)"/>
</g>
<g id="Group_50">
<path id="Vector_103" opacity="0.4" d="M770.09 166.8C771.203 167.166 772.295 167.593 773.36 168.08L776.5 229.58C776.373 229.109 776.098 228.692 775.717 228.388C775.336 228.084 774.867 227.909 774.38 227.89L774.3 227.45L770.09 166.8Z" fill="url(#paint71_linear)"/>
</g>
<g id="Group_51">
<path id="Vector_104" style="mix-blend-mode:overlay" opacity="0.5" d="M757.61 164.93L757.98 160.87L644.76 -97.84C645.806 -97.9655 646.864 -97.9655 647.91 -97.84C649.467 -97.5909 651.009 -97.257 652.53 -96.84L762.28 161.16L762.05 165.01L772.14 228.01C771.37 228.205 770.644 228.545 770 229.01V229.01L757.61 164.93Z" fill="url(#paint72_linear)"/>
</g>
<path id="Vector_105" d="M757.82 127.48L760.88 134.76C753.33 132.3 729.67 127.29 713.73 153.4L711.24 147.51C726.43 121.53 749.1 125 757.82 127.48Z" fill="black"/>
<path id="Vector_106" d="M688.56 -37.12L757.82 127.48C749.1 124.95 726.43 121.48 711.24 147.48C692.91 104.2 662.19 31.64 641 -18.43C657.24 -45.56 682.3 -39.24 688.56 -37.12Z" fill="url(#paint73_linear)"/>
<g id="Group_52" opacity="0.6">
<g id="Vector_107" style="mix-blend-mode:screen" opacity="0.6">
<path d="M768.69 162.87C764.277 161.145 759.509 160.527 754.802 161.071C750.095 161.615 745.593 163.304 741.69 165.99C741.69 165.99 753.8 157.87 768.69 162.87Z" fill="#F8F8F7"/>
</g>
<g id="Vector_108" style="mix-blend-mode:screen" opacity="0.6">
<path d="M765.69 165.62C765.69 165.62 753.36 162.51 744.05 169.13C744.05 169.13 749.84 163.83 765.69 165.62Z" fill="#F8F8F7"/>
</g>
</g>
<g id="Group_53">
<path id="Vector_109" style="mix-blend-mode:screen" opacity="0.5" d="M758 132.61C758 132.61 751 130 744 131.05C744 131.05 740.61 132.17 739.11 127.83C737.61 123.49 668.11 -35.8 668.11 -35.8C668.11 -35.8 664.26 -41.21 668.4 -43.67C672.54 -46.13 683.74 -44.67 685.91 -41.2C688.08 -37.73 758 129.21 758 129.21C758 129.21 760.21 133.27 758 132.61Z" fill="url(#paint74_linear)"/>
</g>
</g>
</g>
<defs>
<linearGradient id="paint0_linear" x1="1073.4" y1="657.194" x2="1076.41" y2="651.584" gradientUnits="userSpaceOnUse">
<stop stop-color="#5C0000"/>
<stop offset="0.65" stop-color="#BD0000"/>
<stop offset="0.91" stop-color="#EF0000"/>
</linearGradient>
<linearGradient id="paint1_linear" x1="20898.9" y1="-8839.82" x2="20810" y2="-9001.01" gradientUnits="userSpaceOnUse">
<stop stop-color="#5C0000"/>
<stop offset="0.65" stop-color="#BD0000"/>
<stop offset="0.91" stop-color="#EF0000"/>
</linearGradient>
<linearGradient id="paint2_linear" x1="3425.01" y1="3199.98" x2="3430.12" y2="3199.98" gradientUnits="userSpaceOnUse">
<stop stop-color="#5C0000"/>
<stop offset="0.65" stop-color="#BD0000"/>
<stop offset="0.91" stop-color="#EF0000"/>
</linearGradient>
<linearGradient id="paint3_linear" x1="1.00969e+06" y1="-120874" x2="1.00914e+06" y2="-124228" gradientUnits="userSpaceOnUse">
<stop stop-color="#5C0000"/>
<stop offset="0.65" stop-color="#BD0000"/>
<stop offset="0.91" stop-color="#EF0000"/>
</linearGradient>
<linearGradient id="paint4_linear" x1="56962.7" y1="-76155.4" x2="57380" y2="-76155.4" gradientUnits="userSpaceOnUse">
<stop stop-color="#5C0000"/>
<stop offset="0.65" stop-color="#BD0000"/>
<stop offset="0.91" stop-color="#EF0000"/>
</linearGradient>
<linearGradient id="paint5_linear" x1="41859.4" y1="-17805" x2="41957.3" y2="-17805" gradientUnits="userSpaceOnUse">
<stop stop-color="#5C0000"/>
<stop offset="0.65" stop-color="#BD0000"/>
<stop offset="0.91" stop-color="#EF0000"/>
</linearGradient>
<linearGradient id="paint6_linear" x1="235323" y1="-71800.3" x2="234266" y2="-73613.6" gradientUnits="userSpaceOnUse">
<stop stop-color="#5C0000"/>
<stop offset="0.65" stop-color="#BD0000"/>
<stop offset="0.91" stop-color="#EF0000"/>
</linearGradient>
<linearGradient id="paint7_linear" x1="957387" y1="-48633.4" x2="957405" y2="-48387.5" gradientUnits="userSpaceOnUse">
<stop stop-color="#5C0000"/>
<stop offset="0.65" stop-color="#BD0000"/>
<stop offset="0.91" stop-color="#EF0000"/>
</linearGradient>
<linearGradient id="paint8_linear" x1="992480" y1="-54736.6" x2="992402" y2="-55660.8" gradientUnits="userSpaceOnUse">
<stop stop-color="#5C0000"/>
<stop offset="0.65" stop-color="#BD0000"/>
<stop offset="0.91" stop-color="#EF0000"/>
</linearGradient>
<linearGradient id="paint9_linear" x1="36368.6" y1="-12906.4" x2="36401.9" y2="-12906.4" gradientUnits="userSpaceOnUse">
<stop stop-color="#5C0000"/>
<stop offset="0.65" stop-color="#BD0000"/>
<stop offset="0.91" stop-color="#EF0000"/>
</linearGradient>
<linearGradient id="paint10_linear" x1="214856" y1="-38860.2" x2="214796" y2="-39242.5" gradientUnits="userSpaceOnUse">
<stop stop-color="#5C0000"/>
<stop offset="0.65" stop-color="#BD0000"/>
<stop offset="0.91" stop-color="#EF0000"/>
</linearGradient>
<linearGradient id="paint11_linear" x1="19481.1" y1="-5020.92" x2="19505.5" y2="-5020.92" gradientUnits="userSpaceOnUse">
<stop stop-color="#5C0000"/>
<stop offset="0.65" stop-color="#BD0000"/>
<stop offset="0.91" stop-color="#EF0000"/>
</linearGradient>
<linearGradient id="paint12_linear" x1="205261" y1="-25197.8" x2="205232" y2="-25272.1" gradientUnits="userSpaceOnUse">
<stop stop-color="#5C0000"/>
<stop offset="0.65" stop-color="#BD0000"/>
<stop offset="0.91" stop-color="#EF0000"/>
</linearGradient>
<linearGradient id="paint13_linear" x1="1.18273e+06" y1="-55303.5" x2="1.18294e+06" y2="-52612" gradientUnits="userSpaceOnUse">
<stop stop-color="#5C0000"/>
<stop offset="0.65" stop-color="#BD0000"/>
<stop offset="0.91" stop-color="#EF0000"/>
</linearGradient>
<linearGradient id="paint14_linear" x1="655263" y1="-106094" x2="654063" y2="-110940" gradientUnits="userSpaceOnUse">
<stop stop-color="#5C0000"/>
<stop offset="0.65" stop-color="#BD0000"/>
<stop offset="0.91" stop-color="#EF0000"/>
</linearGradient>
<linearGradient id="paint15_linear" x1="6604.86" y1="16132.3" x2="6637.3" y2="16132.3" gradientUnits="userSpaceOnUse">
<stop stop-color="#5C0000"/>
<stop offset="0.65" stop-color="#BD0000"/>
<stop offset="0.91" stop-color="#EF0000"/>
</linearGradient>
<linearGradient id="paint16_linear" x1="4645.08" y1="13259.7" x2="4658.67" y2="13259.7" gradientUnits="userSpaceOnUse">
<stop stop-color="#5C0000"/>
<stop offset="0.65" stop-color="#BD0000"/>
<stop offset="0.91" stop-color="#EF0000"/>
</linearGradient>
<linearGradient id="paint17_linear" x1="665089" y1="-59459.5" x2="665225" y2="-58422.4" gradientUnits="userSpaceOnUse">
<stop stop-color="#5C0000"/>
<stop offset="0.65" stop-color="#BD0000"/>
<stop offset="0.91" stop-color="#EF0000"/>
</linearGradient>
<linearGradient id="paint18_linear" x1="972.27" y1="615.662" x2="969.991" y2="598.911" gradientUnits="userSpaceOnUse">
<stop stop-color="#EB5B1E"/>
<stop offset="0.36" stop-color="#F59D17"/>
<stop offset="0.68" stop-color="#FCC40D"/>
<stop offset="0.93" stop-color="#FBBB10"/>
</linearGradient>
<linearGradient id="paint19_linear" x1="973.196" y1="610.439" x2="969.993" y2="602.288" gradientUnits="userSpaceOnUse">
<stop offset="0.37" stop-color="#C55E4A"/>
<stop offset="0.9" stop-color="white"/>
</linearGradient>
<linearGradient id="paint20_linear" x1="1160.46" y1="519.26" x2="1138.78" y2="476.421" gradientUnits="userSpaceOnUse">
<stop stop-color="#EB5B1E"/>
<stop offset="0.36" stop-color="#F59D17"/>
<stop offset="0.93" stop-color="#FBBB10"/>
</linearGradient>
<linearGradient id="paint21_linear" x1="71383" y1="-74752" x2="71848.8" y2="-75515.3" gradientUnits="userSpaceOnUse">
<stop stop-color="#EB5B1E"/>
<stop offset="0.36" stop-color="#F59D17"/>
<stop offset="0.68" stop-color="#FCC40D"/>
<stop offset="0.93" stop-color="#FBBB10"/>
</linearGradient>
<linearGradient id="paint22_linear" x1="165488" y1="-91700.6" x2="164102" y2="-93807.7" gradientUnits="userSpaceOnUse">
<stop stop-color="#EB5B1E"/>
<stop offset="0.36" stop-color="#F59D17"/>
<stop offset="0.68" stop-color="#FCC40D"/>
<stop offset="0.93" stop-color="#FBBB10"/>
</linearGradient>
<linearGradient id="paint23_linear" x1="1135.81" y1="483.42" x2="1139.87" y2="490.903" gradientUnits="userSpaceOnUse">
<stop stop-color="#EBEBEB"/>
<stop offset="0.9" stop-color="#EBEBEB"/>
</linearGradient>
<linearGradient id="paint24_linear" x1="665040" y1="-251585" x2="663434" y2="-255761" gradientUnits="userSpaceOnUse">
<stop offset="0.37" stop-color="#C55E4A"/>
<stop offset="0.9" stop-color="white"/>
</linearGradient>
<linearGradient id="paint25_linear" x1="13290.7" y1="-19180.1" x2="13258.3" y2="-19462" gradientUnits="userSpaceOnUse">
<stop offset="0.37" stop-color="#C55E4A"/>
<stop offset="0.9" stop-color="white"/>
</linearGradient>
<linearGradient id="paint26_linear" x1="155680" y1="-38387.8" x2="155645" y2="-38651" gradientUnits="userSpaceOnUse">
<stop offset="0.37" stop-color="#C55E4A"/>
<stop offset="0.9" stop-color="white"/>
</linearGradient>
<radialGradient id="paint27_radial" cx="0" cy="0" r="1" gradientUnits="userSpaceOnUse" gradientTransform="translate(1014.46 557.916) rotate(5.73003) scale(8.87005)">
<stop offset="0.28" stop-color="#EBEBEB"/>
<stop offset="0.9" stop-color="#EBEBEB"/>
</radialGradient>
<linearGradient id="paint28_linear" x1="992.133" y1="578.359" x2="989.793" y2="576.345" gradientUnits="userSpaceOnUse">
<stop offset="0.1" stop-color="#EBEBEB"/>
<stop offset="0.91" stop-color="#EBEBEB"/>
</linearGradient>
<linearGradient id="paint29_linear" x1="788245" y1="-318865" x2="794956" y2="-304223" gradientUnits="userSpaceOnUse">
<stop stop-color="#EBEBEB"/>
<stop offset="0.9" stop-color="#EBEBEB"/>
</linearGradient>
<linearGradient id="paint30_linear" x1="1155.12" y1="532.925" x2="1121.67" y2="472.925" gradientUnits="userSpaceOnUse">
<stop stop-color="#B94B16"/>
<stop offset="0.45" stop-color="#F07E20"/>
<stop offset="0.8" stop-color="#FFE100"/>
<stop offset="0.93" stop-color="#FBBB10"/>
</linearGradient>
<linearGradient id="paint31_linear" x1="474499" y1="-176463" x2="475670" y2="-173343" gradientUnits="userSpaceOnUse">
<stop stop-color="#EBEBEB"/>
<stop offset="0.9" stop-color="#EBEBEB"/>
</linearGradient>
<linearGradient id="paint32_linear" x1="1153.71" y1="531.869" x2="1144.01" y2="514.604" gradientUnits="userSpaceOnUse">
<stop offset="0.03" stop-color="#FFDE54"/>
<stop offset="0.89" stop-color="white"/>
</linearGradient>
<linearGradient id="paint33_linear" x1="964.091" y1="624.874" x2="970.311" y2="622.294" gradientUnits="userSpaceOnUse">
<stop offset="0.01" stop-color="#F6E700"/>
<stop offset="0.77" stop-color="#E8C926"/>
</linearGradient>
<linearGradient id="paint34_linear" x1="797.581" y1="527.444" x2="821.781" y2="489.584" gradientUnits="userSpaceOnUse">
<stop offset="0.01" stop-color="#F6D600"/>
<stop offset="0.52" stop-color="#EBEA8F"/>
<stop offset="0.82" stop-color="#F6F7E0"/>
<stop offset="0.99" stop-color="#FFF59B"/>
</linearGradient>
<linearGradient id="paint35_linear" x1="920.051" y1="586.544" x2="917.951" y2="566.224" gradientUnits="userSpaceOnUse">
<stop offset="0.01" stop-color="#F2D71A"/>
<stop offset="0.8" stop-color="#EBEA8F"/>
</linearGradient>
<linearGradient id="paint36_linear" x1="930.051" y1="619.444" x2="954.581" y2="587.874" gradientUnits="userSpaceOnUse">
<stop stop-color="#F6D800"/>
<stop offset="0.52" stop-color="#FFF48F"/>
<stop offset="0.99" stop-color="#E7F0D6"/>
</linearGradient>
<linearGradient id="paint37_linear" x1="824.821" y1="495.004" x2="820.361" y2="501.564" gradientUnits="userSpaceOnUse">
<stop offset="0.1" stop-color="#EBEBEB"/>
<stop offset="0.72" stop-color="#EBEBEB"/>
</linearGradient>
<linearGradient id="paint38_linear" x1="789.031" y1="542.214" x2="803.291" y2="520.754" gradientUnits="userSpaceOnUse">
<stop offset="0.37" stop-color="#D0B861"/>
<stop offset="0.9" stop-color="white"/>
</linearGradient>
<linearGradient id="paint39_linear" x1="10023.4" y1="-28144.7" x2="10004.7" y2="-28269.9" gradientUnits="userSpaceOnUse">
<stop offset="0.37" stop-color="#D0B861"/>
<stop offset="0.9" stop-color="white"/>
</linearGradient>
<linearGradient id="paint40_linear" x1="136553" y1="-67993.3" x2="136461" y2="-68466.8" gradientUnits="userSpaceOnUse">
<stop offset="0.37" stop-color="#D0B861"/>
<stop offset="0.9" stop-color="white"/>
</linearGradient>
<radialGradient id="paint41_radial" cx="0" cy="0" r="1" gradientUnits="userSpaceOnUse" gradientTransform="translate(-10241.2 -4025.87) rotate(180) scale(43.077 25.3149)">
<stop offset="0.28" stop-color="#EBEBEB"/>
<stop offset="0.9" stop-color="#EBEBEB"/>
</radialGradient>
<linearGradient id="paint42_linear" x1="-87779" y1="-112746" x2="-87659.1" y2="-112813" gradientUnits="userSpaceOnUse">
<stop stop-color="#EBEBEB"/>
<stop offset="0.9" stop-color="#EBEBEB"/>
</linearGradient>
<linearGradient id="paint43_linear" x1="-669189" y1="-502716" x2="-676921" y2="-489099" gradientUnits="userSpaceOnUse">
<stop stop-color="#EBEBEB"/>
<stop offset="0.9" stop-color="#EBEBEB"/>
</linearGradient>
<linearGradient id="paint44_linear" x1="802.051" y1="539.554" x2="844.221" y2="479.054" gradientUnits="userSpaceOnUse">
<stop offset="0.01" stop-color="#E0C600"/>
<stop offset="0.51" stop-color="#FFF591"/>
<stop offset="1" stop-color="#EDE65C"/>
</linearGradient>
<linearGradient id="paint45_linear" x1="-407223" y1="-273863" x2="-408572" y2="-270891" gradientUnits="userSpaceOnUse">
<stop stop-color="#EBEBEB"/>
<stop offset="0.9" stop-color="#EBEBEB"/>
</linearGradient>
<linearGradient id="paint46_linear" x1="-360931" y1="-277566" x2="-359888" y2="-279487" gradientUnits="userSpaceOnUse">
<stop offset="0.03" stop-color="#FFDE54"/>
<stop offset="0.89" stop-color="white"/>
</linearGradient>
<linearGradient id="paint47_linear" x1="1147.67" y1="154.747" x2="1141.03" y2="153.591" gradientUnits="userSpaceOnUse">
<stop offset="0.01" stop-color="#008800"/>
<stop offset="0.51" stop-color="#00B200"/>
<stop offset="1" stop-color="#00C900"/>
</linearGradient>
<linearGradient id="paint48_linear" x1="617534" y1="-623656" x2="612102" y2="-631917" gradientUnits="userSpaceOnUse">
<stop offset="0.01" stop-color="#008800"/>
<stop offset="0.51" stop-color="#00B200"/>
<stop offset="1" stop-color="#00C900"/>
</linearGradient>
<linearGradient id="paint49_linear" x1="99060.4" y1="-92908.7" x2="99127.6" y2="-93596.8" gradientUnits="userSpaceOnUse">
<stop offset="0.01" stop-color="#008800"/>
<stop offset="0.51" stop-color="#00B200"/>
<stop offset="1" stop-color="#00C900"/>
</linearGradient>
<linearGradient id="paint50_linear" x1="154539" y1="-164399" x2="153030" y2="-166203" gradientUnits="userSpaceOnUse">
<stop offset="0.01" stop-color="#008800"/>
<stop offset="0.51" stop-color="#00B200"/>
<stop offset="1" stop-color="#00C900"/>
</linearGradient>
<linearGradient id="paint51_linear" x1="392010" y1="-638071" x2="393113" y2="-637066" gradientUnits="userSpaceOnUse">
<stop offset="0.1" stop-color="#EBEBEB"/>
<stop offset="0.72" stop-color="#EBEBEB"/>
</linearGradient>
<linearGradient id="paint52_linear" x1="387049" y1="-666008" x2="383227" y2="-669316" gradientUnits="userSpaceOnUse">
<stop offset="0.37" stop-color="#D0B861"/>
<stop offset="0.9" stop-color="white"/>
</linearGradient>
<linearGradient id="paint53_linear" x1="5137.11" y1="-31397.9" x2="5092.21" y2="-31521.9" gradientUnits="userSpaceOnUse">
<stop offset="0.37" stop-color="#D0B861"/>
<stop offset="0.9" stop-color="white"/>
</linearGradient>
<linearGradient id="paint54_linear" x1="110067" y1="-130380" x2="109739" y2="-130957" gradientUnits="userSpaceOnUse">
<stop offset="0.37" stop-color="#D0B861"/>
<stop offset="0.9" stop-color="white"/>
</linearGradient>
<radialGradient id="paint55_radial" cx="0" cy="0" r="1" gradientUnits="userSpaceOnUse" gradientTransform="translate(10858 -7674.66) rotate(-12.7099) scale(38.7276 24.983)">
<stop offset="0.28" stop-color="#EBEBEB"/>
<stop offset="0.9" stop-color="#EBEBEB"/>
</radialGradient>
<linearGradient id="paint56_linear" x1="38014.7" y1="-154248" x2="37910.4" y2="-154260" gradientUnits="userSpaceOnUse">
<stop stop-color="#EBEBEB"/>
<stop offset="0.9" stop-color="#EBEBEB"/>
</linearGradient>
<linearGradient id="paint57_linear" x1="446660" y1="-816148" x2="460541" y2="-806056" gradientUnits="userSpaceOnUse">
<stop stop-color="#EBEBEB"/>
<stop offset="0.9" stop-color="#EBEBEB"/>
</linearGradient>
<linearGradient id="paint58_linear" x1="298331" y1="-453330" x2="301038" y2="-450749" gradientUnits="userSpaceOnUse">
<stop stop-color="#EBEBEB"/>
<stop offset="0.9" stop-color="#EBEBEB"/>
</linearGradient>
<linearGradient id="paint59_linear" x1="253092" y1="-448493" x2="251193" y2="-450017" gradientUnits="userSpaceOnUse">
<stop offset="0.03" stop-color="#FFDE54"/>
<stop offset="0.89" stop-color="white"/>
</linearGradient>
<linearGradient id="paint60_linear" x1="790.529" y1="241.148" x2="797.558" y2="242.509" gradientUnits="userSpaceOnUse">
<stop stop-color="#7F0078"/>
<stop offset="0.65" stop-color="#C30078"/>
<stop offset="0.91" stop-color="#D40078"/>
</linearGradient>
<linearGradient id="paint61_linear" x1="29893.2" y1="-10783.5" x2="29796.7" y2="-10988.7" gradientUnits="userSpaceOnUse">
<stop stop-color="#7F0078"/>
<stop offset="0.65" stop-color="#C30078"/>
<stop offset="0.91" stop-color="#D40078"/>
</linearGradient>
<linearGradient id="paint62_linear" x1="704270" y1="-550494" x2="696346" y2="-557309" gradientUnits="userSpaceOnUse">
<stop stop-color="#7F0078"/>
<stop offset="0.65" stop-color="#C30078"/>
<stop offset="0.91" stop-color="#D40078"/>
</linearGradient>
<radialGradient id="paint63_radial" cx="0" cy="0" r="1" gradientUnits="userSpaceOnUse" gradientTransform="translate(-142532 -149790) rotate(-146.47) scale(869.014 471.773)">
<stop stop-color="#7F0078"/>
<stop offset="0.65" stop-color="#C30078"/>
<stop offset="0.91" stop-color="#D40078"/>
</radialGradient>
<linearGradient id="paint64_linear" x1="52309.8" y1="-27616.6" x2="52427.7" y2="-27616.6" gradientUnits="userSpaceOnUse">
<stop stop-color="#7F0078"/>
<stop offset="0.65" stop-color="#C30078"/>
<stop offset="0.91" stop-color="#D40078"/>
</linearGradient>
<linearGradient id="paint65_linear" x1="211232" y1="-129300" x2="209056" y2="-131042" gradientUnits="userSpaceOnUse">
<stop stop-color="#7F0078"/>
<stop offset="0.65" stop-color="#C30078"/>
<stop offset="0.91" stop-color="#D40078"/>
</linearGradient>
<linearGradient id="paint66_linear" x1="743.429" y1="44.4933" x2="735.615" y2="47.6881" gradientUnits="userSpaceOnUse">
<stop offset="0.1" stop-color="white"/>
<stop offset="0.72" stop-color="white"/>
</linearGradient>
<linearGradient id="paint67_linear" x1="519899" y1="-525010" x2="515890" y2="-527437" gradientUnits="userSpaceOnUse">
<stop stop-color="#7F0078"/>
<stop offset="0.65" stop-color="#C30078"/>
<stop offset="0.91" stop-color="#D40078"/>
</linearGradient>
<linearGradient id="paint68_linear" x1="33010.8" y1="-22808.3" x2="33039.8" y2="-22808.3" gradientUnits="userSpaceOnUse">
<stop stop-color="#7F0078"/>
<stop offset="0.65" stop-color="#C30078"/>
<stop offset="0.91" stop-color="#D40078"/>
</linearGradient>
<linearGradient id="paint69_linear" x1="180629" y1="-105710" x2="180177" y2="-106543" gradientUnits="userSpaceOnUse">
<stop stop-color="#7F0078"/>
<stop offset="0.65" stop-color="#C30078"/>
<stop offset="0.91" stop-color="#D40078"/>
</linearGradient>
<radialGradient id="paint70_radial" cx="0" cy="0" r="1" gradientUnits="userSpaceOnUse" gradientTransform="translate(788.298 178.776) rotate(-146.47) scale(8.80195)">
<stop offset="0.28" stop-color="white"/>
<stop offset="0.9" stop-color="white"/>
</radialGradient>
<linearGradient id="paint71_linear" x1="44335.2" y1="-109606" x2="44360.2" y2="-109592" gradientUnits="userSpaceOnUse">
<stop offset="0.28" stop-color="white"/>
<stop offset="0.9" stop-color="white"/>
</linearGradient>
<linearGradient id="paint72_linear" x1="765.549" y1="64.2155" x2="692.099" y2="88.7881" gradientUnits="userSpaceOnUse">
<stop stop-color="white"/>
<stop offset="0.9" stop-color="white"/>
</linearGradient>
<linearGradient id="paint73_linear" x1="531139" y1="-362064" x2="522238" y2="-370052" gradientUnits="userSpaceOnUse">
<stop stop-color="#7F0078"/>
<stop offset="0.65" stop-color="#C30078"/>
<stop offset="0.91" stop-color="#D40078"/>
</linearGradient>
<linearGradient id="paint74_linear" x1="417154" y1="-354131" x2="420219" y2="-351819" gradientUnits="userSpaceOnUse">
<stop stop-color="white"/>
<stop offset="0.9" stop-color="white"/>
</linearGradient>
<clipPath id="clip0">
<rect width="1920" height="1080" fill="white"/>
</clipPath>
</defs>
</svg>
