<svg width="834" height="1194" viewBox="0 0 834 1194" fill="none" xmlns="http://www.w3.org/2000/svg">
<g id="handwithcrayontablet">
<g id="Group">
<g id="hand">
<path id="Vector" d="M279.559 610.874C294.596 617.193 297.803 636.992 298.818 653.489C299.806 669.692 300.793 685.898 301.781 702.107C302.337 711.096 302.937 720.304 306.5 728.548C310.063 736.793 317.218 744.488 326.07 744.962C364.003 746.978 419.581 654.143 428.292 642.288C441.129 624.851 450.396 605.037 459.581 585.373L480.714 540.095C486.262 528.202 495.803 514.173 508.44 517.069C516.144 518.837 521.181 526.916 522.018 534.89C522.855 542.864 520.381 550.785 517.81 558.367C505.61 594.102 490.737 628.836 473.322 662.268C470.966 666.781 468.47 671.949 465.803 677.41C478.084 664.855 489.551 654.091 493.951 648.125C506.788 630.688 516.055 610.874 525.24 591.21L546.373 545.925C551.921 534.04 561.462 520.01 574.099 522.906C581.803 524.674 586.847 532.753 587.677 540.727C588.507 548.701 586.04 556.622 583.47 564.205C571.269 599.939 556.396 634.674 538.981 668.105C530.292 684.85 519.721 709.78 505.344 729.3C518.24 718.588 530.003 709.539 534.796 704.236C549.277 688.19 560.455 669.414 571.521 650.773L597.01 607.895C603.677 596.612 614.573 583.635 626.869 587.803C634.358 590.345 638.581 598.891 638.625 606.917C638.669 614.944 635.425 622.564 632.121 629.846C616.566 664.186 563.484 761.489 552.24 776.737C553.321 778.061 551.203 775.376 552.24 776.737C561.603 769.102 569.499 762.738 573.21 758.631C587.699 742.585 598.869 723.809 609.944 705.176L635.432 662.298C642.099 651.014 652.995 638.045 665.284 642.213C672.773 644.748 676.995 653.301 677.04 661.32C677.084 669.339 673.84 676.967 670.536 684.248C654.981 718.588 630.684 776.391 611.003 808.474C546.973 912.804 434.551 1029.16 415.418 1046.17C379.907 1077.76 259.514 1153.74 217.744 1118.86C149.596 1061.94 229.952 898.518 239.766 896.329C232.877 889.273 228.04 880.073 224.803 870.603C217.152 848.201 217.396 823.881 218.744 800.207C221.329 754.2 227.633 708.501 233.892 662.854C235.737 649.48 237.766 635.586 245.218 624.4C252.67 613.214 267.27 605.706 279.559 610.874Z" fill="#B59674"/>
<path id="Vector_2" d="M495.484 535.552L474.344 580.829C465.166 600.501 455.892 620.315 443.062 637.752C434.403 649.51 379.67 740.9 341.766 740.441C376.848 720.01 416.825 653.609 424.122 643.717C436.959 626.28 446.225 606.466 455.403 586.795L476.536 541.517C482.092 529.631 491.625 515.602 504.27 518.498C504.901 518.652 505.523 518.848 506.129 519.085C501.729 523.659 498.144 529.85 495.484 535.552Z" fill="#887157"/>
<path id="Vector_3" d="M611.781 603.337L586.292 646.215C575.217 664.835 562.946 682.695 549.558 699.677C515.566 742.833 505.855 736.296 499.766 732.212C505.373 724.584 509.396 728.623 535.321 700.189C547.581 685.414 557.544 668.745 567.358 652.173L592.847 609.294C599.514 598.011 610.395 585.05 622.677 589.194C618.381 593.196 614.677 598.425 611.781 603.337Z" fill="#887157"/>
<path id="Vector_4" d="M561.144 541.412C554.102 556.512 547.055 571.604 540.003 586.689C530.825 606.361 521.558 626.175 508.721 643.612C504.277 649.592 469.514 690.635 462.403 679.645C465.077 674.176 474.47 666.999 478.107 663.441C486.159 655.543 495.699 642.769 499.329 635.187C507.536 621.594 514.329 607.083 521.062 592.647C528.114 577.557 535.161 562.465 542.203 547.369C547.751 535.484 557.284 521.455 569.929 524.351C570.56 524.505 571.181 524.698 571.788 524.93C567.388 529.496 563.803 535.687 561.144 541.412Z" fill="#887157"/>
<path id="Vector_5" d="M567.018 772.157C566.484 771.501 566.751 771.825 567.018 772.157V772.157Z" fill="#27282D"/>
<path id="Vector_6" d="M650.232 657.709L624.743 700.587C613.677 719.22 602.521 737.996 588.01 754.042C584.307 758.149 576.418 764.506 567.062 772.096C562.818 776.286 548.107 778.069 548.099 778.069C552.714 771.817 583.27 745.857 596.44 722.079C599.61 716.918 602.714 711.705 605.803 706.507L631.292 663.629C637.958 652.346 648.84 639.392 661.129 643.537C656.817 647.569 653.114 652.804 650.232 657.709Z" fill="#887157"/>
<path id="Vector_7" d="M567.003 772.179C567.27 772.503 567.545 772.842 567.003 772.179V772.179Z" fill="#27282D"/>
<path id="Vector_8" d="M271.589 610.709C268.14 613.214 265.151 616.316 262.759 619.871C255.307 631.057 253.277 644.951 251.433 658.326C245.159 703.965 238.84 749.671 236.285 795.679C234.952 819.352 234.692 843.672 242.344 866.074C245.581 875.545 250.418 884.745 257.307 891.801C79.1222 1127.67 384.529 1085.8 413.603 1046.41C383.974 1078.32 361.011 1093.52 339.9 1114.17C276.077 1176.6 162.522 1110.7 133.811 1033.62C119.618 995.521 204.389 933.415 238.381 897.759C231.492 890.703 226.655 881.503 223.418 872.032C215.766 849.63 216.011 825.31 217.359 801.637C219.944 755.629 226.248 709.923 232.507 664.284C234.352 650.909 236.381 637.015 243.833 625.829C249.981 616.591 261.011 609.866 271.589 610.709Z" fill="#887157"/>
<path id="Vector_9" d="M410.522 991.436C397.633 1001.22 379.166 1002.81 364.855 995.318C343.751 984.275 334.848 957.863 315.477 943.924C308.663 939.019 300.796 935.852 293.707 931.377C286.618 926.901 280.011 920.582 278.085 912.33C276.1 903.814 279.411 895.073 280.551 886.4C282.774 869.294 276.522 852.391 271.344 835.954C266.166 819.517 262.063 801.351 268.381 785.343C270.263 780.581 273.144 776.053 277.389 773.307C287.485 766.665 301.603 772.299 309.322 781.664C318.759 793.121 321.677 808.655 329.055 821.533C335.656 833.022 345.601 842.149 357.522 847.659C373.337 854.911 391.514 856.739 403.033 871.475C410.225 880.675 409.825 890.973 411.477 902.009C416.092 932.979 444.366 965.679 410.522 991.436Z" fill="#C4A380"/>
<path id="Vector_10" d="M574.84 833.396C557.41 849.555 542.862 868.624 526.477 885.881C510.092 903.137 491.21 918.927 468.699 926.103C461.351 928.443 453.285 929.804 446.01 927.217C436.159 923.734 429.825 913.578 427.899 903.243C425.973 892.907 427.729 882.18 429.692 871.806C431.655 861.433 433.833 850.901 432.729 840.392C431.477 828.552 426.129 817.547 419.892 807.459C412.662 795.769 404.085 784.816 398.722 772.103C395.759 765.092 393.818 757.562 393.811 749.935C393.703 744.822 394.768 739.753 396.922 735.13C402.729 723.32 417.092 717.626 429.988 719.273C442.885 720.92 454.344 728.639 463.655 737.854C472.966 747.069 480.588 757.871 489.314 767.658C499.375 778.94 510.862 788.82 523.477 797.04C540.077 807.858 553.573 807.196 572.366 807.617C592.981 808.068 586.107 822.948 574.84 833.396Z" fill="#C4A380"/>
</g>
<g id="redcrayon">
<path id="Vector_11" d="M360.285 888.055C360.485 885.339 362.107 885.572 362.107 885.572C363.003 886.263 363.724 887.161 364.211 888.19C364.467 888.887 364.543 889.639 364.43 890.375C364.317 891.11 364.019 891.803 363.566 892.388C362.337 892.862 360.092 890.65 360.285 888.055Z" fill="url(#paint0_linear)"/>
<g id="Group_2" style="mix-blend-mode:multiply">
<g id="Group_3" style="mix-blend-mode:multiply">
<path id="Vector_12" style="mix-blend-mode:multiply" d="M364.211 888.198C364.467 888.895 364.543 889.647 364.43 890.382C364.317 891.117 364.019 891.811 363.566 892.395C362.618 892.756 361.092 891.545 360.514 889.793C361.217 889.93 361.943 889.851 362.602 889.567C363.26 889.283 363.82 888.806 364.211 888.198Z" fill="url(#paint1_linear)"/>
</g>
</g>
<path id="Vector_13" style="mix-blend-mode:screen" opacity="0.6" d="M361.951 885.572C361.951 885.572 360.255 885.617 360.277 888.506C360.275 887.91 360.429 887.325 360.723 886.809C361.018 886.294 361.441 885.867 361.951 885.572V885.572Z" fill="url(#paint2_linear)"/>
<path id="Vector_14" d="M133.567 919.694C131.7 916.686 130.233 913.488 130.041 909.915C129.915 907.659 130.041 904.326 131.011 902.235C131.011 902.235 135.129 893.494 140.596 892.185L320.833 874.793C320.833 874.793 311.322 883.18 315.411 895.502C318.974 906.237 323.633 908.178 323.633 908.178L142.292 926.059C138.53 926.427 135.307 922.5 133.567 919.694Z" fill="url(#paint3_linear)"/>
<path id="Vector_15" d="M315.418 895.472C311.329 883.15 320.84 874.763 320.84 874.763C321.19 874.655 321.563 874.647 321.917 874.74C322.271 874.833 322.593 875.023 322.848 875.289C323.67 876.207 325.522 907.448 325.522 907.448C324.938 907.788 324.302 908.024 323.64 908.147C323.64 908.147 318.974 906.206 315.418 895.472Z" fill="url(#paint4_linear)"/>
<path id="Vector_16" d="M325.048 900.422C325.314 904.514 325.485 907.448 325.485 907.448C324.901 907.788 324.265 908.024 323.603 908.147C323.603 908.147 320.492 906.846 317.403 900.505C319.915 899.913 322.524 899.885 325.048 900.422Z" fill="url(#paint5_linear)"/>
<path id="Vector_17" d="M317.588 893.667C315.122 883.474 322.833 875.289 322.84 875.289L362.1 885.572C362.1 885.572 360.477 885.339 360.277 888.055C360.085 890.65 362.329 892.862 363.559 892.388C363.403 892.596 363.218 892.781 363.011 892.937C361.848 893.794 333.166 904.574 325.507 907.448C324.1 906.312 319.655 902.167 317.588 893.667Z" fill="url(#paint6_linear)"/>
<g id="Group_4">
<path id="Vector_18" opacity="0.4" d="M319.122 876.591L135.863 895.141C137.134 893.721 138.763 892.68 140.574 892.132L320.811 874.74C320.214 875.304 319.657 875.91 319.144 876.553L319.122 876.591Z" fill="url(#paint7_linear)"/>
</g>
<g id="Group_5">
<path id="Vector_19" style="mix-blend-mode:multiply" opacity="0.8" d="M318.544 902.573C321.225 907.087 323.633 908.14 323.633 908.14L142.292 926.058C138.53 926.427 135.307 922.5 133.567 919.694L318.544 902.573Z" fill="url(#paint8_linear)"/>
</g>
<g id="Group_6">
<path id="Vector_20" style="mix-blend-mode:multiply" opacity="0.6" d="M318.544 902.581C320.766 903.483 321.085 902.227 321.085 902.227C322.265 904.223 323.767 906.003 325.529 907.493C324.946 907.833 324.309 908.069 323.648 908.192C323.648 908.192 321.225 907.124 318.544 902.581Z" fill="url(#paint9_linear)"/>
</g>
<g id="Group_7">
<path id="Vector_21" style="mix-blend-mode:multiply" d="M321.085 902.22L360.544 889.89C361.151 891.59 362.64 892.741 363.566 892.388C363.41 892.596 363.226 892.781 363.018 892.937C361.855 893.794 333.174 904.574 325.514 907.448C323.761 905.968 322.264 904.201 321.085 902.22V902.22Z" fill="url(#paint10_linear)"/>
</g>
<g id="Group_8">
<path id="Vector_22" opacity="0.4" d="M321.388 877.117C321.388 877.117 319.959 875.613 319.166 876.575C319.679 875.932 320.236 875.327 320.833 874.763C321.183 874.655 321.555 874.647 321.909 874.74C322.263 874.833 322.585 875.023 322.84 875.289C322.309 875.866 321.814 876.477 321.359 877.117H321.388Z" fill="url(#paint11_linear)"/>
</g>
<g id="Group_9">
<path id="Vector_23" opacity="0.4" d="M321.388 877.117C321.844 876.477 322.339 875.866 322.87 875.289L362.129 885.572C361.807 885.563 361.491 885.656 361.225 885.84C360.959 886.024 360.757 886.288 360.648 886.595H360.366L321.388 877.117Z" fill="url(#paint12_linear)"/>
</g>
<g id="Group_10">
<path id="Vector_24" style="mix-blend-mode:overlay" opacity="0.5" d="M317.759 884.707L315.277 883.684L130.381 904.205C130.513 903.516 130.724 902.844 131.011 902.204C131.476 901.26 131.991 900.341 132.552 899.451L316.344 880.991L318.722 881.901L360.285 888.055C360.251 888.578 360.314 889.104 360.47 889.604V889.604L317.759 884.707Z" fill="url(#paint13_linear)"/>
</g>
<path id="Vector_25" d="M294.263 877.087L299.448 876.591C296.425 880.924 288.618 895.021 301.885 910.442L297.692 910.855C284.307 895.931 290.974 882.18 294.263 877.087Z" fill="black"/>
<path id="Vector_26" d="M177.166 888.393L294.263 877.109C290.951 882.172 284.337 895.916 297.677 910.848L179.544 922.493C165.692 906.695 174.603 891.959 177.166 888.393Z" fill="url(#paint14_linear)"/>
<path id="Vector_27" d="M172.033 888.882L177.166 888.393C174.603 891.959 165.692 906.696 179.544 922.493L175.307 922.906C161.478 907.681 169.041 893.343 172.033 888.882Z" fill="black"/>
<g id="Group_11" opacity="0.6">
<path id="Vector_28" style="mix-blend-mode:screen" opacity="0.6" d="M318.648 877.222C316.692 879.694 315.363 882.616 314.778 885.731C314.193 888.846 314.369 892.059 315.292 895.088C314.567 892.039 314.491 888.868 315.069 885.787C315.648 882.706 316.868 879.786 318.648 877.222Z" fill="url(#paint15_linear)"/>
<path id="Vector_29" style="mix-blend-mode:screen" opacity="0.6" d="M319.781 879.69C319.781 879.69 315.418 886.934 317.729 894.216C317.729 894.216 315.537 889.454 319.781 879.69Z" fill="url(#paint16_linear)"/>
</g>
<g id="Group_12">
<path id="Vector_30" style="mix-blend-mode:screen" opacity="0.5" d="M297.522 877.975C295.651 880.546 294.37 883.509 293.774 886.648C293.774 886.648 293.811 889.04 290.811 889.13C287.811 889.221 173.937 901.738 173.937 901.738C173.937 901.738 169.789 903.115 169.055 899.978C168.322 896.841 171.411 889.98 174.055 889.296C176.7 888.611 295.418 877.328 295.418 877.328C295.418 877.328 298.381 876.718 297.522 877.975Z" fill="url(#paint17_linear)"/>
</g>
</g>
<g id="orangecrayon">
<path id="Vector_31" d="M467.566 812.905C465.714 810.483 464.336 811.732 464.336 811.732C463.921 812.938 463.791 814.226 463.959 815.493C464.145 816.311 464.537 817.066 465.095 817.685C465.653 818.304 466.358 818.767 467.144 819.029C468.588 818.72 469.336 815.23 467.566 812.905Z" fill="url(#paint18_linear)"/>
<g id="Group_13" style="mix-blend-mode:multiply" opacity="0.8">
<g id="Group_14" style="mix-blend-mode:multiply" opacity="0.8">
<path id="Vector_32" style="mix-blend-mode:multiply" opacity="0.8" d="M463.959 815.523C464.145 816.341 464.537 817.096 465.095 817.715C465.653 818.334 466.358 818.797 467.144 819.059C468.247 818.803 468.936 816.689 468.41 814.681C467.834 815.252 467.103 815.638 466.31 815.788C465.518 815.938 464.699 815.846 463.959 815.523V815.523Z" fill="url(#paint19_linear)"/>
</g>
</g>
<path id="Vector_33" d="M700.032 699.444C699.936 695.434 699.373 691.508 697.343 687.995C696.069 685.783 693.929 682.729 691.729 681.39C691.729 681.39 682.506 675.771 676.566 677.997L496.507 775.496C496.507 775.496 510.581 777.377 514.284 791.534C517.514 803.871 514.284 808.648 514.284 808.648L695.691 710.938C699.499 708.907 700.114 703.145 700.032 699.444Z" fill="url(#paint20_linear)"/>
<path id="Vector_34" d="M514.284 791.534C510.581 777.377 496.507 775.496 496.507 775.496C496.111 775.613 495.755 775.84 495.479 776.151C495.203 776.462 495.018 776.845 494.944 777.256C494.729 778.648 512.121 809.174 512.121 809.174C512.886 809.128 513.638 808.95 514.344 808.648C514.344 808.648 517.514 803.871 514.284 791.534Z" fill="url(#paint21_linear)"/>
<path id="Vector_35" d="M511.129 791.218C507.21 780.077 494.951 777.256 494.944 777.256L464.307 811.732C464.307 811.732 465.684 810.483 467.536 812.905C469.388 815.327 468.559 818.72 467.114 819.059C467.387 819.151 467.671 819.207 467.959 819.224C469.581 819.292 503.136 811.31 512.092 809.174C512.758 807.211 514.403 800.508 511.129 791.218Z" fill="url(#paint22_linear)"/>
<g id="Group_15">
<path id="Vector_36" style="mix-blend-mode:overlay" opacity="0.5" d="M499.218 776.15L682.825 677.824C680.764 677.301 678.602 677.361 676.573 677.997L496.507 775.496C497.411 775.652 498.304 775.868 499.181 776.143L499.218 776.15Z" fill="url(#paint23_linear)"/>
</g>
<g id="Group_16">
<path id="Vector_37" style="mix-blend-mode:multiply" opacity="0.8" d="M515.692 800.185C515.958 806.15 514.321 808.632 514.321 808.632L695.729 710.923C699.499 708.892 700.114 703.16 700.032 699.429L515.692 800.185Z" fill="url(#paint24_linear)"/>
</g>
<g id="Group_17">
<path id="Vector_38" style="mix-blend-mode:multiply" opacity="0.8" d="M515.692 800.185C514.121 802.441 513.092 801.448 513.092 801.448C513.197 804.056 512.869 806.662 512.121 809.159C512.886 809.113 513.638 808.935 514.344 808.632C514.344 808.632 515.958 806.203 515.692 800.185Z" fill="url(#paint25_linear)"/>
</g>
<g id="Group_18">
<path id="Vector_39" style="mix-blend-mode:multiply" opacity="0.8" d="M513.092 801.464L468.455 814.801C468.921 816.779 468.225 818.803 467.144 819.059C467.417 819.151 467.701 819.207 467.988 819.224C469.61 819.292 503.166 811.31 512.121 809.174C512.869 806.677 513.197 804.071 513.092 801.464Z" fill="url(#paint26_linear)"/>
</g>
<g id="Group_19">
<path id="Vector_40" opacity="0.4" d="M497.425 778.061C497.425 778.061 497.84 775.729 499.181 776.143C498.304 775.868 497.411 775.652 496.507 775.496C496.111 775.613 495.755 775.84 495.479 776.151C495.203 776.462 495.018 776.845 494.944 777.256C495.785 777.476 496.614 777.745 497.425 778.061V778.061Z" fill="url(#paint27_radial)"/>
</g>
<g id="Group_20">
<path id="Vector_41" style="mix-blend-mode:overlay" opacity="0.5" d="M497.425 778.061C496.616 777.746 495.79 777.477 494.951 777.256L464.307 811.732C464.599 811.514 464.952 811.397 465.314 811.397C465.676 811.397 466.029 811.514 466.322 811.732L466.566 811.521L497.425 778.061Z" fill="url(#paint28_linear)"/>
</g>
<g id="Group_21">
<path id="Vector_42" style="mix-blend-mode:overlay" opacity="0.5" d="M505.492 782.883L507.181 780.333L693.543 682.849C692.998 682.278 692.389 681.773 691.729 681.345C690.714 680.748 689.668 680.209 688.595 679.727L504.536 778.52L502.862 780.875L467.566 812.905C467.92 813.379 468.186 813.914 468.351 814.485L505.492 782.883Z" fill="url(#paint29_linear)"/>
</g>
<path id="Vector_43" d="M522.907 760.895L517.721 763.701C523.218 765.852 539.203 774.172 536.151 797.025L540.344 794.769C543.773 772.352 529.114 763.565 522.907 760.895Z" fill="black"/>
<path id="Vector_44" d="M639.862 697.563L522.884 760.895C529.092 763.565 543.751 772.344 540.336 794.746L658.506 731.091C661.877 707.515 644.477 699.301 639.862 697.563Z" fill="url(#paint30_linear)"/>
<path id="Vector_45" d="M645.047 694.78L639.921 697.563C644.514 699.301 661.914 707.515 658.566 731.113L662.81 728.857C666.447 705.778 650.551 697.074 645.047 694.78Z" fill="black"/>
<g id="Group_22" opacity="0.6">
<g id="Vector_46" style="mix-blend-mode:screen" opacity="0.6">
<path d="M500.07 776.429C503.418 777.521 506.452 779.43 508.905 781.988C511.359 784.547 513.157 787.677 514.144 791.105C514.144 791.105 510.973 780.626 500.07 776.429Z" fill="#E4E3E4"/>
</g>
<g id="Vector_47" style="mix-blend-mode:screen" opacity="0.6">
<path d="M500.514 779.468C500.514 779.468 509.07 783.507 511.329 791.812C511.329 791.812 510.477 785.96 500.514 779.468Z" fill="#E4E3E4"/>
</g>
</g>
<g id="Group_23">
<path id="Vector_48" style="mix-blend-mode:screen" opacity="0.5" d="M521.129 764.415C521.129 764.415 526.425 766.221 529.973 770.2C529.973 770.2 531.388 772.457 534.292 770.636C537.195 768.816 651.81 708.689 651.81 708.689C651.81 708.689 656.566 707.357 655.321 703.95C654.077 700.542 646.98 696.036 644.084 697.067C641.188 698.097 522.751 762.452 522.751 762.452C522.751 762.452 519.566 763.768 521.129 764.415Z" fill="url(#paint31_linear)"/>
</g>
<path id="Vector_49" style="mix-blend-mode:multiply" d="M540.418 782.74C541.029 786.73 541.009 790.793 540.358 794.776L658.529 731.121C659.206 726.798 659.086 722.385 658.173 718.107L540.418 782.74Z" fill="url(#paint32_linear)"/>
<g id="Vector_50" style="mix-blend-mode:screen" opacity="0.7">
<path d="M464.484 811.634C464.484 811.634 466.099 810.603 467.847 813.334C467.847 813.334 466.588 811.333 464.484 811.634Z" fill="#E4E3E4"/>
</g>
</g>
<g id="yellowcrayon">
<path id="Vector_51" d="M411.299 805.262C413.255 803.186 414.418 804.51 414.418 804.51C414.698 805.679 414.698 806.899 414.418 808.068C414.172 808.815 413.74 809.485 413.163 810.012C412.587 810.54 411.886 810.906 411.129 811.077C409.81 810.573 409.44 807.256 411.299 805.262Z" fill="url(#paint33_linear)"/>
<g id="Group_24" style="mix-blend-mode:multiply" opacity="0.5">
<g id="Vector_52" style="mix-blend-mode:multiply" opacity="0.5">
<path d="M414.418 808.038C414.172 808.785 413.74 809.455 413.163 809.982C412.587 810.509 411.886 810.876 411.129 811.047C410.122 810.701 409.647 808.67 410.351 806.85C410.837 807.435 411.482 807.86 412.207 808.072C412.931 808.284 413.7 808.272 414.418 808.038V808.038Z" fill="#E8C926"/>
</g>
</g>
<g id="Vector_53" style="mix-blend-mode:screen" opacity="0.6">
<path d="M414.292 804.375C414.292 804.375 412.885 803.261 410.996 805.638C410.973 805.638 412.359 803.886 414.292 804.375Z" fill="#E4E3E4"/>
</g>
<path id="Vector_54" d="M205.449 677.374C205.9 673.65 206.797 670.047 209.012 666.97C210.404 665.037 212.678 662.404 214.856 661.366C214.856 661.366 223.96 657.018 229.286 659.658L387.804 767.673C387.804 767.673 374.522 768.064 369.759 780.89C365.611 792.076 368.137 796.823 368.137 796.823L208.345 688.499C205.049 686.235 205.049 680.841 205.449 677.374Z" fill="url(#paint34_linear)"/>
<path id="Vector_55" d="M369.796 780.89C374.559 768.064 387.84 767.673 387.84 767.673C388.195 767.821 388.503 768.066 388.73 768.381C388.958 768.695 389.096 769.067 389.129 769.455C389.196 770.772 370.174 797.522 370.174 797.522C369.473 797.404 368.797 797.167 368.173 796.822C368.173 796.822 365.648 792.075 369.796 780.89Z" fill="url(#paint35_linear)"/>
<path id="Vector_56" opacity="0.4" d="M374.433 791.489C371.959 795.009 370.174 797.507 370.174 797.507C369.473 797.389 368.797 797.152 368.174 796.807C368.174 796.807 366.492 793.625 368.136 786.358C370.576 787.586 372.724 789.336 374.433 791.489Z" fill="#F2D71A"/>
<path id="Vector_57" d="M372.766 780.897C377.448 770.907 389.129 769.455 389.129 769.455L414.418 804.48C414.418 804.48 413.255 803.186 411.299 805.232C409.344 807.278 409.818 810.543 411.129 811.002C410.864 811.062 410.593 811.085 410.322 811.07C408.84 810.987 378.314 800.343 370.174 797.529C369.759 795.671 368.855 789.24 372.766 780.897Z" fill="url(#paint36_linear)"/>
<g id="Group_25">
<path id="Vector_58" opacity="0.5" d="M385.255 768.019L223.477 658.898C225.445 658.606 227.453 658.866 229.285 659.65L387.803 767.665C386.945 767.718 386.091 767.831 385.248 768.004L385.255 768.019Z" fill="url(#paint37_linear)"/>
</g>
<g id="Group_26">
<path id="Vector_59" style="mix-blend-mode:multiply" opacity="0.8" d="M367.677 788.818C366.877 794.347 368.166 796.815 368.166 796.815L208.374 688.491C205.063 686.234 205.011 680.848 205.411 677.38L367.677 788.818Z" fill="url(#paint38_linear)"/>
</g>
<g id="Group_27">
<path id="Vector_60" style="mix-blend-mode:multiply" opacity="0.8" d="M367.685 788.826C368.936 791.083 369.988 790.255 369.988 790.255C369.647 792.671 369.71 795.127 370.174 797.522C369.473 797.404 368.797 797.167 368.173 796.822C368.173 796.822 366.885 794.355 367.685 788.826Z" fill="url(#paint39_linear)"/>
</g>
<g id="Group_28">
<path id="Vector_61" style="mix-blend-mode:multiply" opacity="0.8" d="M369.988 790.255L410.307 806.955C409.685 808.753 410.144 810.716 411.129 811.047C410.864 811.107 410.593 811.13 410.322 811.115C408.84 811.032 378.314 800.388 370.174 797.574C369.704 795.163 369.642 792.688 369.988 790.255V790.255Z" fill="url(#paint40_linear)"/>
</g>
<g id="Group_29">
<path id="Vector_62" opacity="0.4" d="M386.744 769.967C386.744 769.967 386.573 767.755 385.262 768.011C386.106 767.838 386.959 767.725 387.818 767.673C388.173 767.821 388.481 768.066 388.708 768.381C388.936 768.695 389.073 769.067 389.107 769.455C388.303 769.58 387.507 769.751 386.722 769.967H386.744Z" fill="url(#paint41_radial)"/>
</g>
<g id="Group_30">
<path id="Vector_63" style="mix-blend-mode:overlay" opacity="0.5" d="M386.744 769.967C387.529 769.751 388.325 769.58 389.129 769.455L414.418 804.48C414.165 804.252 413.846 804.112 413.509 804.081C413.172 804.049 412.833 804.129 412.544 804.307L412.329 804.081L386.744 769.967Z" fill="url(#paint42_linear)"/>
</g>
<g id="Group_31">
<path id="Vector_64" style="mix-blend-mode:overlay" opacity="0.5" d="M378.788 773.706L377.455 771.171L213.011 662.569C213.576 662.098 214.192 661.694 214.848 661.365C215.847 660.906 216.871 660.504 217.914 660.161L380.077 769.711L381.418 772.066L411.299 805.262C410.928 805.672 410.633 806.146 410.425 806.662V806.662L378.788 773.706Z" fill="url(#paint43_linear)"/>
</g>
<path id="Vector_65" d="M364.618 751.544L369.173 754.651C363.855 756.156 348.211 762.347 348.922 783.914L345.218 781.409C344.129 760.21 358.588 753.44 364.618 751.544Z" fill="black"/>
<path id="Vector_66" d="M261.611 681.382L364.618 751.544C358.588 753.44 344.129 760.21 345.233 781.409L241.137 710.833C240.211 688.544 257.174 682.563 261.611 681.382Z" fill="url(#paint44_linear)"/>
<path id="Vector_67" d="M257.1 678.321L261.611 681.397C257.166 682.578 240.211 688.559 241.137 710.848L237.433 708.313C236.159 686.49 251.714 679.908 257.1 678.321Z" fill="black"/>
<g id="Group_32" opacity="0.6">
<g id="Vector_68" style="mix-blend-mode:screen" opacity="0.6">
<path d="M384.433 768.199C381.211 768.891 378.205 770.374 375.679 772.52C373.153 774.666 371.184 777.408 369.944 780.506C369.944 780.506 373.885 771.02 384.433 768.199Z" fill="#E4E3E4"/>
</g>
<g id="Vector_69" style="mix-blend-mode:screen" opacity="0.6">
<path d="M383.736 770.982C383.736 770.982 375.403 773.916 372.522 781.431C372.522 781.431 373.855 776.068 383.736 770.982Z" fill="#E4E3E4"/>
</g>
</g>
<g id="Group_33">
<path id="Vector_70" style="mix-blend-mode:screen" opacity="0.5" d="M365.951 754.99C362.733 755.811 359.737 757.354 357.181 759.503C357.181 759.503 355.648 761.482 353.114 759.503C350.581 757.525 249.492 690.597 249.492 690.597C249.492 690.597 245.196 688.905 246.663 685.851C248.129 682.797 255.166 679.291 257.774 680.517C260.381 681.743 364.648 753.011 364.648 753.011C364.648 753.011 367.462 754.538 365.951 754.99Z" fill="url(#paint45_linear)"/>
</g>
<path id="Vector_71" style="mix-blend-mode:multiply" d="M346.292 770.2C345.347 773.854 344.989 777.639 345.233 781.409L241.137 710.833C240.909 706.744 241.431 702.647 242.677 698.752L346.292 770.2Z" fill="url(#paint46_linear)"/>
</g>
<g id="greencrayon">
<path id="Vector_72" d="M529.492 558.773C527.144 557.179 526.284 558.698 526.284 558.698C526.254 559.9 526.508 561.092 527.025 562.174C527.429 562.843 527.995 563.395 528.67 563.777C529.344 564.159 530.104 564.358 530.877 564.355C532.092 563.618 531.714 560.293 529.492 558.773Z" fill="url(#paint47_linear)"/>
<g id="Group_34" style="mix-blend-mode:multiply" opacity="0.5">
<g id="Vector_73" style="mix-blend-mode:multiply" opacity="0.5">
<path d="M527.055 562.174C527.458 562.843 528.025 563.395 528.699 563.777C529.374 564.159 530.134 564.358 530.907 564.355C531.818 563.791 531.81 561.715 530.758 560.09C530.414 560.771 529.877 561.332 529.218 561.703C528.559 562.074 527.806 562.238 527.055 562.174V562.174Z" fill="#E8C926"/>
</g>
</g>
<g id="Vector_74" style="mix-blend-mode:screen" opacity="0.6">
<path d="M526.388 558.563C526.388 558.563 527.514 557.164 529.877 559.067C529.877 559.067 528.166 557.66 526.388 558.563Z" fill="#E4E3E4"/>
</g>
<path id="Vector_75" d="M702.751 388.179C701.506 384.643 699.854 381.333 697.032 378.821C695.255 377.241 692.469 375.18 690.121 374.646C690.121 374.646 680.292 372.434 675.677 376.196L544.307 516.866C544.307 516.866 557.351 514.293 564.766 525.75C571.225 535.74 569.781 540.93 569.781 540.93C569.781 540.93 702.084 399.846 702.284 399.673C705.047 396.739 703.914 391.466 702.751 388.179Z" fill="url(#paint48_linear)"/>
<path id="Vector_76" d="M564.736 525.75C557.329 514.293 544.277 516.866 544.277 516.866C543.962 517.09 543.713 517.398 543.559 517.757C543.405 518.115 543.351 518.509 543.403 518.897C543.618 520.191 567.958 542.059 567.958 542.059C568.615 541.789 569.221 541.408 569.751 540.93C569.751 540.93 571.195 535.74 564.736 525.75Z" fill="url(#paint49_linear)"/>
<path id="Vector_77" opacity="0.4" d="M562.499 537.124C565.67 540.005 567.958 542.059 567.958 542.059C568.615 541.789 569.221 541.408 569.751 540.93C569.751 540.93 570.707 537.455 567.529 530.737C565.412 532.467 563.695 534.647 562.499 537.124V537.124Z" fill="#F2D71A"/>
<path id="Vector_78" d="M561.833 526.419C555.114 517.716 543.403 518.897 543.403 518.897L526.284 558.713C526.284 558.713 527.144 557.209 529.492 558.789C531.84 560.368 532.092 563.633 530.907 564.37C531.177 564.371 531.447 564.333 531.707 564.257C533.188 563.844 560.596 546.67 567.958 542.074C567.944 540.133 567.455 533.686 561.833 526.419Z" fill="url(#paint50_linear)"/>
<g id="Group_35">
<path id="Vector_79" d="M546.87 516.625L681.173 374.165C679.193 374.32 677.292 375.023 675.677 376.196L544.307 516.866C545.154 516.727 546.011 516.649 546.87 516.633V516.625Z" fill="url(#paint51_linear)"/>
</g>
<g id="Group_36">
<path id="Vector_80" style="mix-blend-mode:multiply" opacity="0.8" d="M568.507 533.017C570.492 538.23 569.758 540.923 569.758 540.923C569.758 540.923 702.084 399.846 702.284 399.673C705.032 396.739 703.914 391.466 702.751 388.179L568.507 533.017Z" fill="url(#paint52_linear)"/>
</g>
<g id="Group_37">
<path id="Vector_81" style="mix-blend-mode:multiply" opacity="0.8" d="M568.499 533.024C567.758 535.514 566.566 534.927 566.566 534.927C567.422 537.208 567.895 539.619 567.966 542.059C568.622 541.789 569.229 541.408 569.758 540.93C569.758 540.93 570.484 538.237 568.499 533.024Z" fill="url(#paint53_linear)"/>
</g>
<g id="Group_38">
<path id="Vector_82" style="mix-blend-mode:multiply" opacity="0.8" d="M566.529 534.927L530.833 560.218C531.825 561.828 531.796 563.836 530.907 564.385C531.177 564.386 531.447 564.348 531.707 564.272C533.188 563.859 560.595 546.685 567.958 542.089C567.882 539.637 567.398 537.216 566.529 534.927V534.927Z" fill="url(#paint54_linear)"/>
</g>
<g id="Group_39">
<path id="Vector_83" opacity="0.4" d="M545.84 518.844C545.84 518.844 545.529 516.648 546.84 516.588C545.981 516.604 545.125 516.682 544.277 516.821C543.962 517.045 543.713 517.353 543.559 517.712C543.405 518.07 543.351 518.464 543.403 518.852C544.214 518.802 545.028 518.802 545.84 518.852V518.844Z" fill="url(#paint55_radial)"/>
</g>
<g id="Group_40">
<path id="Vector_84" style="mix-blend-mode:overlay" opacity="0.5" d="M545.84 518.844C545.028 518.795 544.215 518.795 543.403 518.844L526.284 558.713C526.483 558.435 526.764 558.228 527.086 558.122C527.408 558.017 527.756 558.018 528.077 558.127L528.233 557.863L545.84 518.844Z" fill="url(#paint56_linear)"/>
</g>
<g id="Group_41">
<path id="Vector_85" style="mix-blend-mode:overlay" opacity="0.5" d="M554.403 520.74L555.144 517.972L692.143 375.421C691.491 375.095 690.805 374.842 690.099 374.669C689.025 374.446 687.939 374.282 686.847 374.18L552.292 517.129L551.484 519.724L529.492 558.774C529.945 559.082 530.337 559.475 530.647 559.932V559.932L554.403 520.74Z" fill="url(#paint57_linear)"/>
</g>
<path id="Vector_86" d="M563.455 495.968L559.677 500.015C565.188 500.271 581.788 502.859 585.751 524.05L588.81 520.785C585.314 499.858 569.744 496.472 563.455 495.968Z" fill="black"/>
<path id="Vector_87" d="M652.558 400.583L648.817 404.585C653.403 404.751 671.247 406.842 675.151 428.763L678.247 425.46C674.788 403.901 658.143 400.952 652.558 400.583Z" fill="black"/>
<g id="Group_42" opacity="0.6">
<g id="Vector_88" style="mix-blend-mode:screen" opacity="0.6">
<path d="M547.714 516.625C551.007 516.582 554.259 517.359 557.187 518.89C560.115 520.42 562.628 522.657 564.507 525.404C564.507 525.404 558.61 517.031 547.714 516.625Z" fill="#E4E3E4"/>
</g>
<g id="Vector_89" style="mix-blend-mode:screen" opacity="0.6">
<path d="M548.988 519.183C548.988 519.183 557.758 520.198 562.188 526.886C562.188 526.886 559.729 521.951 548.988 519.183Z" fill="#E4E3E4"/>
</g>
</g>
<g id="Group_43">
<path id="Vector_90" style="mix-blend-mode:screen" opacity="0.5" d="M562.899 499.624C566.219 499.716 569.477 500.561 572.432 502.099C572.432 502.099 574.358 503.686 576.395 501.197C578.432 498.707 662.647 410.874 662.647 410.874C662.647 410.874 666.477 408.271 664.388 405.609C662.299 402.946 654.677 401.095 652.403 402.878C650.129 404.661 563.773 497.39 563.773 497.39C563.773 497.39 561.344 499.519 562.899 499.624Z" fill="url(#paint58_linear)"/>
</g>
<path id="Vector_91" style="mix-blend-mode:multiply" d="M585.358 510.088C587.065 513.443 588.23 517.055 588.81 520.785L675.151 428.763C674.493 424.713 673.099 420.823 671.04 417.291L585.358 510.088Z" fill="url(#paint59_linear)"/>
</g>
<g id="pinkcrayon">
<path id="Vector_92" d="M367.374 631.681C370.337 630.989 370.603 632.84 370.603 632.84C370.176 634.046 369.472 635.131 368.551 636.007C367.9 636.521 367.129 636.857 366.313 636.981C365.497 637.105 364.663 637.013 363.892 636.714C362.981 635.563 364.566 632.373 367.374 631.681Z" fill="url(#paint60_linear)"/>
<g id="Group_44" style="mix-blend-mode:multiply">
<g id="Group_45" style="mix-blend-mode:multiply">
<path id="Vector_93" style="mix-blend-mode:multiply" d="M368.551 636.037C367.9 636.551 367.129 636.887 366.313 637.011C365.497 637.135 364.663 637.043 363.892 636.744C363.151 635.834 363.966 633.735 365.625 632.546C365.715 633.358 366.042 634.124 366.563 634.746C367.084 635.368 367.777 635.817 368.551 636.037V636.037Z" fill="url(#paint61_linear)"/>
</g>
</g>
<g id="Vector_94" style="mix-blend-mode:screen" opacity="0.6">
<path d="M370.551 632.689C370.551 632.689 369.936 630.861 366.885 631.862C366.885 631.862 369.107 631.117 370.551 632.689Z" fill="#F8F8F7"/>
</g>
<path id="Vector_95" d="M257.729 395.251C260.285 392.204 263.159 389.526 266.907 388.105C269.263 387.209 272.833 386.217 275.351 386.6C275.351 386.6 285.974 388.15 289.189 393.671L368.159 584.246C368.159 584.246 356.092 576.723 344.455 585.299C334.307 592.821 333.818 598.523 333.818 598.523C333.818 598.523 254.033 407.144 253.937 406.903C252.277 402.924 255.352 398.087 257.729 395.251Z" fill="url(#paint62_linear)"/>
<path id="Vector_96" d="M344.448 585.298C356.092 576.7 368.151 584.245 368.151 584.245C368.384 584.589 368.519 584.992 368.54 585.409C368.561 585.826 368.467 586.24 368.27 586.607C367.574 587.818 335.181 600.335 335.181 600.335C334.626 599.813 334.16 599.2 333.803 598.522C333.803 598.522 334.3 592.79 344.448 585.298Z" fill="url(#paint63_radial)"/>
<path id="Vector_97" d="M342.463 597.499C338.233 599.162 335.188 600.335 335.188 600.335C334.633 599.813 334.168 599.2 333.811 598.522C333.811 598.522 334.144 594.686 339.811 589.194C341.276 591.735 342.18 594.569 342.463 597.499V597.499Z" fill="url(#paint64_linear)"/>
<path id="Vector_98" d="M347.092 587.065C357.033 580.95 368.27 586.607 368.277 586.607L370.603 632.87C370.603 632.87 370.307 631.019 367.374 631.711C364.566 632.373 362.981 635.563 363.892 636.744C363.628 636.64 363.379 636.501 363.151 636.33C361.848 635.352 340.818 607.745 335.211 600.335C335.914 598.409 338.796 592.173 347.092 587.065Z" fill="url(#paint65_linear)"/>
<g id="Group_46">
<path id="Vector_99" opacity="0.4" d="M365.655 583.018L284.455 389.525C286.378 390.433 288.016 391.862 289.189 393.655L368.159 584.245C367.363 583.786 366.536 583.383 365.685 583.041L365.655 583.018Z" fill="url(#paint66_linear)"/>
</g>
<g id="Group_47">
<path id="Vector_100" style="mix-blend-mode:multiply" opacity="0.8" d="M337.996 591.098C334.099 595.543 333.818 598.515 333.818 598.515C333.818 598.515 254.033 407.143 253.937 406.902C252.277 402.923 255.351 398.086 257.729 395.25L337.996 591.098Z" fill="url(#paint67_linear)"/>
</g>
<g id="Group_48">
<path id="Vector_101" style="mix-blend-mode:multiply" opacity="0.6" d="M337.988 591.105C337.796 593.873 339.218 593.745 339.218 593.745C337.521 595.695 336.159 597.92 335.188 600.328C334.633 599.805 334.168 599.192 333.811 598.515C333.811 598.515 334.092 595.573 337.988 591.105Z" fill="url(#paint68_linear)"/>
</g>
<g id="Group_49">
<path id="Vector_102" style="mix-blend-mode:multiply" d="M339.218 593.753L365.514 632.614C363.929 633.84 363.203 635.856 363.892 636.744C363.628 636.641 363.379 636.501 363.151 636.33C361.848 635.352 340.818 607.745 335.211 600.335C336.174 597.929 337.529 595.704 339.218 593.753Z" fill="url(#paint69_linear)"/>
</g>
<g id="Group_50">
<path id="Vector_103" opacity="0.4" d="M365.855 585.636C365.855 585.636 366.981 583.575 365.685 583.041C366.536 583.383 367.363 583.786 368.159 584.245C368.392 584.589 368.526 584.992 368.547 585.409C368.568 585.826 368.475 586.24 368.277 586.607C367.488 586.24 366.679 585.919 365.855 585.644V585.636Z" fill="url(#paint70_radial)"/>
</g>
<g id="Group_51">
<path id="Vector_104" opacity="0.4" d="M365.855 585.644C366.679 585.919 367.488 586.24 368.277 586.607L370.603 632.87C370.509 632.516 370.306 632.202 370.023 631.973C369.741 631.744 369.394 631.613 369.033 631.599L368.974 631.268L365.855 585.644Z" fill="url(#paint71_linear)"/>
</g>
<g id="Group_52">
<path id="Vector_105" style="mix-blend-mode:overlay" opacity="0.5" d="M356.611 584.237L356.885 581.183L273.018 386.569C273.793 386.475 274.576 386.475 275.351 386.569C276.505 386.756 277.647 387.008 278.774 387.321L360.07 581.401L359.899 584.297L367.374 631.689C366.803 631.836 366.265 632.091 365.788 632.441V632.441L356.611 584.237Z" fill="url(#paint72_linear)"/>
</g>
<path id="Vector_106" d="M356.766 556.065L359.033 561.542C353.44 559.691 335.914 555.922 324.107 575.564L322.263 571.133C333.514 551.59 350.307 554.2 356.766 556.065Z" fill="black"/>
<path id="Vector_107" d="M305.463 432.246L356.766 556.065C350.307 554.162 333.514 551.552 322.262 571.11C308.685 538.531 285.966 483.947 270.226 446.282C282.263 425.897 300.825 430.651 305.463 432.246Z" fill="url(#paint73_linear)"/>
<g id="Group_53">
<path id="Vector_108" style="mix-blend-mode:screen" opacity="0.5" d="M356.899 559.924C356.899 559.924 351.714 557.961 346.529 558.751C346.529 558.751 344.018 559.593 342.907 556.329C341.796 553.064 290.314 433.238 290.314 433.238C290.314 433.238 287.463 429.169 290.529 427.318C293.596 425.468 301.892 426.566 303.5 429.176C305.107 431.787 356.899 557.367 356.899 557.367C356.899 557.367 358.536 560.421 356.899 559.924Z" fill="url(#paint74_linear)"/>
</g>
<path id="Vector_109" d="M303.218 426.822L305.44 432.245C300.803 430.651 282.24 425.897 270.203 446.305C269.566 444.8 268.944 443.296 268.337 441.791C279.803 421.631 297.5 425.054 303.218 426.822Z" fill="black"/>
<g id="Group_54" opacity="0.6">
<g id="Vector_110" style="mix-blend-mode:screen" opacity="0.6">
<path d="M364.818 582.687C361.549 581.39 358.017 580.925 354.531 581.334C351.044 581.743 347.709 583.014 344.818 585.034C344.818 585.034 353.788 578.926 364.818 582.687Z" fill="#F8F8F7"/>
</g>
<g id="Vector_111" style="mix-blend-mode:screen" opacity="0.6">
<path d="M362.596 584.756C362.596 584.756 353.462 582.417 346.566 587.396C346.566 587.396 350.855 583.41 362.596 584.756Z" fill="#F8F8F7"/>
</g>
</g>
</g>
</g>
</g>
<defs>
<linearGradient id="paint0_linear" x1="377.875" y1="889.782" x2="380.151" y2="885.596" gradientUnits="userSpaceOnUse">
<stop stop-color="#5C0000"/>
<stop offset="0.65" stop-color="#BD0000"/>
<stop offset="0.91" stop-color="#EF0000"/>
</linearGradient>
<linearGradient id="paint1_linear" x1="15712.4" y1="-6538.02" x2="15645" y2="-6658.4" gradientUnits="userSpaceOnUse">
<stop stop-color="#5C0000"/>
<stop offset="0.65" stop-color="#BD0000"/>
<stop offset="0.91" stop-color="#EF0000"/>
</linearGradient>
<linearGradient id="paint2_linear" x1="1836.27" y1="2955.21" x2="1840.05" y2="2955.21" gradientUnits="userSpaceOnUse">
<stop stop-color="#5C0000"/>
<stop offset="0.65" stop-color="#BD0000"/>
<stop offset="0.91" stop-color="#EF0000"/>
</linearGradient>
<linearGradient id="paint3_linear" x1="779220" y1="-93947.3" x2="778793" y2="-96468.6" gradientUnits="userSpaceOnUse">
<stop stop-color="#5C0000"/>
<stop offset="0.65" stop-color="#BD0000"/>
<stop offset="0.91" stop-color="#EF0000"/>
</linearGradient>
<linearGradient id="paint4_linear" x1="43598.9" y1="-59121.1" x2="43907.9" y2="-59121.1" gradientUnits="userSpaceOnUse">
<stop stop-color="#5C0000"/>
<stop offset="0.65" stop-color="#BD0000"/>
<stop offset="0.91" stop-color="#EF0000"/>
</linearGradient>
<linearGradient id="paint5_linear" x1="31912.8" y1="-13538.3" x2="31985.4" y2="-13538.3" gradientUnits="userSpaceOnUse">
<stop stop-color="#5C0000"/>
<stop offset="0.65" stop-color="#BD0000"/>
<stop offset="0.91" stop-color="#EF0000"/>
</linearGradient>
<linearGradient id="paint6_linear" x1="181505" y1="-55757.9" x2="180704" y2="-57111.1" gradientUnits="userSpaceOnUse">
<stop stop-color="#5C0000"/>
<stop offset="0.65" stop-color="#BD0000"/>
<stop offset="0.91" stop-color="#EF0000"/>
</linearGradient>
<linearGradient id="paint7_linear" x1="739051" y1="-37547.6" x2="739065" y2="-37362.5" gradientUnits="userSpaceOnUse">
<stop stop-color="#5C0000"/>
<stop offset="0.65" stop-color="#BD0000"/>
<stop offset="0.91" stop-color="#EF0000"/>
</linearGradient>
<linearGradient id="paint8_linear" x1="765884" y1="-42345.7" x2="765824" y2="-43040.8" gradientUnits="userSpaceOnUse">
<stop stop-color="#5C0000"/>
<stop offset="0.65" stop-color="#BD0000"/>
<stop offset="0.91" stop-color="#EF0000"/>
</linearGradient>
<linearGradient id="paint9_linear" x1="27665.9" y1="-9710.61" x2="27690.6" y2="-9710.61" gradientUnits="userSpaceOnUse">
<stop stop-color="#5C0000"/>
<stop offset="0.65" stop-color="#BD0000"/>
<stop offset="0.91" stop-color="#EF0000"/>
</linearGradient>
<linearGradient id="paint10_linear" x1="165693" y1="-30006.3" x2="165647" y2="-30293.7" gradientUnits="userSpaceOnUse">
<stop stop-color="#5C0000"/>
<stop offset="0.65" stop-color="#BD0000"/>
<stop offset="0.91" stop-color="#EF0000"/>
</linearGradient>
<linearGradient id="paint11_linear" x1="14614.3" y1="-3544.11" x2="14632.4" y2="-3544.11" gradientUnits="userSpaceOnUse">
<stop stop-color="#5C0000"/>
<stop offset="0.65" stop-color="#BD0000"/>
<stop offset="0.91" stop-color="#EF0000"/>
</linearGradient>
<linearGradient id="paint12_linear" x1="158300" y1="-19312.5" x2="158278" y2="-19368.2" gradientUnits="userSpaceOnUse">
<stop stop-color="#5C0000"/>
<stop offset="0.65" stop-color="#BD0000"/>
<stop offset="0.91" stop-color="#EF0000"/>
</linearGradient>
<linearGradient id="paint13_linear" x1="913368" y1="-42752.3" x2="913527" y2="-40728.3" gradientUnits="userSpaceOnUse">
<stop stop-color="#5C0000"/>
<stop offset="0.65" stop-color="#BD0000"/>
<stop offset="0.91" stop-color="#EF0000"/>
</linearGradient>
<linearGradient id="paint14_linear" x1="505551" y1="-82436.3" x2="504635" y2="-86074.5" gradientUnits="userSpaceOnUse">
<stop stop-color="#5C0000"/>
<stop offset="0.65" stop-color="#BD0000"/>
<stop offset="0.91" stop-color="#EF0000"/>
</linearGradient>
<linearGradient id="paint15_linear" x1="3763.44" y1="13460" x2="3787.46" y2="13460" gradientUnits="userSpaceOnUse">
<stop stop-color="#5C0000"/>
<stop offset="0.65" stop-color="#BD0000"/>
<stop offset="0.91" stop-color="#EF0000"/>
</linearGradient>
<linearGradient id="paint16_linear" x1="2562" y1="11125.4" x2="2572.06" y2="11125.4" gradientUnits="userSpaceOnUse">
<stop stop-color="#5C0000"/>
<stop offset="0.65" stop-color="#BD0000"/>
<stop offset="0.91" stop-color="#EF0000"/>
</linearGradient>
<linearGradient id="paint17_linear" x1="513326" y1="-45988.4" x2="513430" y2="-45208.2" gradientUnits="userSpaceOnUse">
<stop stop-color="#5C0000"/>
<stop offset="0.65" stop-color="#BD0000"/>
<stop offset="0.91" stop-color="#EF0000"/>
</linearGradient>
<linearGradient id="paint18_linear" x1="467.47" y1="824.004" x2="465.73" y2="811.41" gradientUnits="userSpaceOnUse">
<stop stop-color="#EB5B1E"/>
<stop offset="0.36" stop-color="#F59D17"/>
<stop offset="0.68" stop-color="#FCC40D"/>
<stop offset="0.93" stop-color="#FBBB10"/>
</linearGradient>
<linearGradient id="paint19_linear" x1="468.156" y1="820.074" x2="465.72" y2="813.969" gradientUnits="userSpaceOnUse">
<stop offset="0.37" stop-color="#C55E4A"/>
<stop offset="0.9" stop-color="white"/>
</linearGradient>
<linearGradient id="paint20_linear" x1="606.873" y1="751.485" x2="590.415" y2="719.465" gradientUnits="userSpaceOnUse">
<stop stop-color="#EB5B1E"/>
<stop offset="0.36" stop-color="#F59D17"/>
<stop offset="0.93" stop-color="#FBBB10"/>
</linearGradient>
<linearGradient id="paint21_linear" x1="53753.4" y1="-55851.9" x2="54105.9" y2="-56421.1" gradientUnits="userSpaceOnUse">
<stop stop-color="#EB5B1E"/>
<stop offset="0.36" stop-color="#F59D17"/>
<stop offset="0.68" stop-color="#FCC40D"/>
<stop offset="0.93" stop-color="#FBBB10"/>
</linearGradient>
<linearGradient id="paint22_linear" x1="124982" y1="-68596.7" x2="123933" y2="-70166.5" gradientUnits="userSpaceOnUse">
<stop stop-color="#EB5B1E"/>
<stop offset="0.36" stop-color="#F59D17"/>
<stop offset="0.68" stop-color="#FCC40D"/>
<stop offset="0.93" stop-color="#FBBB10"/>
</linearGradient>
<linearGradient id="paint23_linear" x1="588.611" y1="724.524" x2="591.693" y2="730.114" gradientUnits="userSpaceOnUse">
<stop stop-color="#EBEBEB"/>
<stop offset="0.9" stop-color="#EBEBEB"/>
</linearGradient>
<linearGradient id="paint24_linear" x1="502460" y1="-188830" x2="501237" y2="-191960" gradientUnits="userSpaceOnUse">
<stop offset="0.37" stop-color="#C55E4A"/>
<stop offset="0.9" stop-color="white"/>
</linearGradient>
<linearGradient id="paint25_linear" x1="9787.81" y1="-14062.2" x2="9763.04" y2="-14274" gradientUnits="userSpaceOnUse">
<stop offset="0.37" stop-color="#C55E4A"/>
<stop offset="0.9" stop-color="white"/>
</linearGradient>
<linearGradient id="paint26_linear" x1="117563" y1="-28505.9" x2="117536" y2="-28703.8" gradientUnits="userSpaceOnUse">
<stop offset="0.37" stop-color="#C55E4A"/>
<stop offset="0.9" stop-color="white"/>
</linearGradient>
<radialGradient id="paint27_radial" cx="0" cy="0" r="1" gradientUnits="userSpaceOnUse" gradientTransform="translate(498.719 780.564) rotate(5.8185) scale(6.57135 6.67146)">
<stop offset="0.28" stop-color="#EBEBEB"/>
<stop offset="0.9" stop-color="#EBEBEB"/>
</radialGradient>
<linearGradient id="paint28_linear" x1="482.184" y1="795.942" x2="480.428" y2="794.447" gradientUnits="userSpaceOnUse">
<stop offset="0.1" stop-color="#EBEBEB"/>
<stop offset="0.91" stop-color="#EBEBEB"/>
</linearGradient>
<linearGradient id="paint29_linear" x1="595909" y1="-239426" x2="601008" y2="-228471" gradientUnits="userSpaceOnUse">
<stop stop-color="#EBEBEB"/>
<stop offset="0.9" stop-color="#EBEBEB"/>
</linearGradient>
<linearGradient id="paint30_linear" x1="602.924" y1="761.766" x2="577.547" y2="716.963" gradientUnits="userSpaceOnUse">
<stop stop-color="#B94B16"/>
<stop offset="0.45" stop-color="#F07E20"/>
<stop offset="0.8" stop-color="#FFE100"/>
<stop offset="0.93" stop-color="#FBBB10"/>
</linearGradient>
<linearGradient id="paint31_linear" x1="358552" y1="-132341" x2="359444" y2="-130002" gradientUnits="userSpaceOnUse">
<stop stop-color="#EBEBEB"/>
<stop offset="0.9" stop-color="#EBEBEB"/>
</linearGradient>
<linearGradient id="paint32_linear" x1="601.871" y1="760.97" x2="594.513" y2="748.08" gradientUnits="userSpaceOnUse">
<stop offset="0.03" stop-color="#FFDE54"/>
<stop offset="0.89" stop-color="white"/>
</linearGradient>
<linearGradient id="paint33_linear" x1="408.996" y1="809.934" x2="413.624" y2="808.044" gradientUnits="userSpaceOnUse">
<stop offset="0.01" stop-color="#F6E700"/>
<stop offset="0.77" stop-color="#E8C926"/>
</linearGradient>
<linearGradient id="paint34_linear" x1="285.663" y1="736.643" x2="303.977" y2="708.419" gradientUnits="userSpaceOnUse">
<stop offset="0.01" stop-color="#F6D600"/>
<stop offset="0.52" stop-color="#EBEA8F"/>
<stop offset="0.82" stop-color="#F6F7E0"/>
<stop offset="0.99" stop-color="#FFF59B"/>
</linearGradient>
<linearGradient id="paint35_linear" x1="376.381" y1="781.1" x2="374.77" y2="765.82" gradientUnits="userSpaceOnUse">
<stop offset="0.01" stop-color="#F2D71A"/>
<stop offset="0.8" stop-color="#EBEA8F"/>
</linearGradient>
<linearGradient id="paint36_linear" x1="383.781" y1="805.849" x2="402.302" y2="782.377" gradientUnits="userSpaceOnUse">
<stop stop-color="#F6D800"/>
<stop offset="0.52" stop-color="#FFF48F"/>
<stop offset="0.99" stop-color="#E7F0D6"/>
</linearGradient>
<linearGradient id="paint37_linear" x1="305.833" y1="712.239" x2="302.459" y2="717.126" gradientUnits="userSpaceOnUse">
<stop offset="0.1" stop-color="#EBEBEB"/>
<stop offset="0.72" stop-color="#EBEBEB"/>
</linearGradient>
<linearGradient id="paint38_linear" x1="279.322" y1="747.753" x2="290.112" y2="731.763" gradientUnits="userSpaceOnUse">
<stop offset="0.37" stop-color="#D0B861"/>
<stop offset="0.9" stop-color="white"/>
</linearGradient>
<linearGradient id="paint39_linear" x1="7298.45" y1="-20996.7" x2="7284.18" y2="-21090.7" gradientUnits="userSpaceOnUse">
<stop offset="0.37" stop-color="#D0B861"/>
<stop offset="0.9" stop-color="white"/>
</linearGradient>
<linearGradient id="paint40_linear" x1="103534" y1="-51203.1" x2="103464" y2="-51558.9" gradientUnits="userSpaceOnUse">
<stop offset="0.37" stop-color="#D0B861"/>
<stop offset="0.9" stop-color="white"/>
</linearGradient>
<radialGradient id="paint41_radial" cx="0" cy="0" r="1" gradientUnits="userSpaceOnUse" gradientTransform="translate(-8044.86 -2732.08) rotate(180) scale(31.9088 19.0431)">
<stop offset="0.28" stop-color="#EBEBEB"/>
<stop offset="0.9" stop-color="#EBEBEB"/>
</radialGradient>
<linearGradient id="paint42_linear" x1="-67029.3" y1="-85136.1" x2="-66940.1" y2="-85185.8" gradientUnits="userSpaceOnUse">
<stop stop-color="#EBEBEB"/>
<stop offset="0.9" stop-color="#EBEBEB"/>
</linearGradient>
<linearGradient id="paint43_linear" x1="-508794" y1="-380601" x2="-514658" y2="-370435" gradientUnits="userSpaceOnUse">
<stop stop-color="#EBEBEB"/>
<stop offset="0.9" stop-color="#EBEBEB"/>
</linearGradient>
<linearGradient id="paint44_linear" x1="288.966" y1="745.752" x2="320.855" y2="700.702" gradientUnits="userSpaceOnUse">
<stop offset="0.01" stop-color="#E0C600"/>
<stop offset="0.51" stop-color="#FFF591"/>
<stop offset="1" stop-color="#EDE65C"/>
</linearGradient>
<linearGradient id="paint45_linear" x1="-309660" y1="-207191" x2="-310685" y2="-204966" gradientUnits="userSpaceOnUse">
<stop stop-color="#EBEBEB"/>
<stop offset="0.9" stop-color="#EBEBEB"/>
</linearGradient>
<linearGradient id="paint46_linear" x1="-274405" y1="-210024" x2="-273614" y2="-211458" gradientUnits="userSpaceOnUse">
<stop offset="0.03" stop-color="#FFDE54"/>
<stop offset="0.89" stop-color="white"/>
</linearGradient>
<linearGradient id="paint47_linear" x1="530.731" y1="561.526" x2="525.812" y2="560.688" gradientUnits="userSpaceOnUse">
<stop offset="0.01" stop-color="#008800"/>
<stop offset="0.51" stop-color="#00B200"/>
<stop offset="1" stop-color="#00C900"/>
</linearGradient>
<linearGradient id="paint48_linear" x1="447358" y1="-450805" x2="443248" y2="-456961" gradientUnits="userSpaceOnUse">
<stop offset="0.01" stop-color="#008800"/>
<stop offset="0.51" stop-color="#00B200"/>
<stop offset="1" stop-color="#00C900"/>
</linearGradient>
<linearGradient id="paint49_linear" x1="71457.6" y1="-66738.8" x2="71509.2" y2="-67256.4" gradientUnits="userSpaceOnUse">
<stop offset="0.01" stop-color="#008800"/>
<stop offset="0.51" stop-color="#00B200"/>
<stop offset="1" stop-color="#00C900"/>
</linearGradient>
<linearGradient id="paint50_linear" x1="111608" y1="-118343" x2="110470" y2="-119684" gradientUnits="userSpaceOnUse">
<stop offset="0.01" stop-color="#008800"/>
<stop offset="0.51" stop-color="#00B200"/>
<stop offset="1" stop-color="#00C900"/>
</linearGradient>
<linearGradient id="paint51_linear" x1="285237" y1="-462749" x2="286065" y2="-462007" gradientUnits="userSpaceOnUse">
<stop offset="0.1" stop-color="#EBEBEB"/>
<stop offset="0.72" stop-color="#EBEBEB"/>
</linearGradient>
<linearGradient id="paint52_linear" x1="281878" y1="-482733" x2="279009" y2="-485178" gradientUnits="userSpaceOnUse">
<stop offset="0.37" stop-color="#D0B861"/>
<stop offset="0.9" stop-color="white"/>
</linearGradient>
<linearGradient id="paint53_linear" x1="3517.62" y1="-22180.1" x2="3483.25" y2="-22272.9" gradientUnits="userSpaceOnUse">
<stop offset="0.37" stop-color="#D0B861"/>
<stop offset="0.9" stop-color="white"/>
</linearGradient>
<linearGradient id="paint54_linear" x1="79703.4" y1="-94042.4" x2="79455.1" y2="-94473.3" gradientUnits="userSpaceOnUse">
<stop offset="0.37" stop-color="#D0B861"/>
<stop offset="0.9" stop-color="white"/>
</linearGradient>
<radialGradient id="paint55_radial" cx="0" cy="0" r="1" gradientUnits="userSpaceOnUse" gradientTransform="translate(7590.15 -5040.4) rotate(-12.9008) scale(28.7088 18.7791)">
<stop offset="0.28" stop-color="#EBEBEB"/>
<stop offset="0.9" stop-color="#EBEBEB"/>
</radialGradient>
<linearGradient id="paint56_linear" x1="27621" y1="-111144" x2="27543.6" y2="-111153" gradientUnits="userSpaceOnUse">
<stop stop-color="#EBEBEB"/>
<stop offset="0.9" stop-color="#EBEBEB"/>
</linearGradient>
<linearGradient id="paint57_linear" x1="325181" y1="-591854" x2="335572" y2="-584416" gradientUnits="userSpaceOnUse">
<stop stop-color="#EBEBEB"/>
<stop offset="0.9" stop-color="#EBEBEB"/>
</linearGradient>
<linearGradient id="paint58_linear" x1="216904" y1="-328667" x2="218938" y2="-326755" gradientUnits="userSpaceOnUse">
<stop stop-color="#EBEBEB"/>
<stop offset="0.9" stop-color="#EBEBEB"/>
</linearGradient>
<linearGradient id="paint59_linear" x1="184229" y1="-324882" x2="182806" y2="-326007" gradientUnits="userSpaceOnUse">
<stop offset="0.03" stop-color="#FFDE54"/>
<stop offset="0.89" stop-color="white"/>
</linearGradient>
<linearGradient id="paint60_linear" x1="380.361" y1="641.356" x2="385.564" y2="642.352" gradientUnits="userSpaceOnUse">
<stop stop-color="#7F0078"/>
<stop offset="0.65" stop-color="#C30078"/>
<stop offset="0.91" stop-color="#D40078"/>
</linearGradient>
<linearGradient id="paint61_linear" x1="21073.5" y1="-7426.87" x2="21000.2" y2="-7580.41" gradientUnits="userSpaceOnUse">
<stop stop-color="#7F0078"/>
<stop offset="0.65" stop-color="#C30078"/>
<stop offset="0.91" stop-color="#D40078"/>
</linearGradient>
<linearGradient id="paint62_linear" x1="501369" y1="-403098" x2="495423" y2="-408134" gradientUnits="userSpaceOnUse">
<stop stop-color="#7F0078"/>
<stop offset="0.65" stop-color="#C30078"/>
<stop offset="0.91" stop-color="#D40078"/>
</linearGradient>
<radialGradient id="paint63_radial" cx="0" cy="0" r="1" gradientUnits="userSpaceOnUse" gradientTransform="translate(-101463 -108094) rotate(-146.062) scale(646.781 353.206)">
<stop stop-color="#7F0078"/>
<stop offset="0.65" stop-color="#C30078"/>
<stop offset="0.91" stop-color="#D40078"/>
</radialGradient>
<linearGradient id="paint64_linear" x1="37026.7" y1="-19760" x2="37114" y2="-19760" gradientUnits="userSpaceOnUse">
<stop stop-color="#7F0078"/>
<stop offset="0.65" stop-color="#C30078"/>
<stop offset="0.91" stop-color="#D40078"/>
</linearGradient>
<linearGradient id="paint65_linear" x1="150059" y1="-94191.7" x2="148428" y2="-95478" gradientUnits="userSpaceOnUse">
<stop stop-color="#7F0078"/>
<stop offset="0.65" stop-color="#C30078"/>
<stop offset="0.91" stop-color="#D40078"/>
</linearGradient>
<linearGradient id="paint66_linear" x1="345.463" y1="493.425" x2="339.655" y2="495.77" gradientUnits="userSpaceOnUse">
<stop offset="0.1" stop-color="white"/>
<stop offset="0.72" stop-color="white"/>
</linearGradient>
<linearGradient id="paint67_linear" x1="370087" y1="-384363" x2="367093" y2="-386147" gradientUnits="userSpaceOnUse">
<stop stop-color="#7F0078"/>
<stop offset="0.65" stop-color="#C30078"/>
<stop offset="0.91" stop-color="#D40078"/>
</linearGradient>
<linearGradient id="paint68_linear" x1="23299.9" y1="-16238.4" x2="23321.4" y2="-16238.4" gradientUnits="userSpaceOnUse">
<stop stop-color="#7F0078"/>
<stop offset="0.65" stop-color="#C30078"/>
<stop offset="0.91" stop-color="#D40078"/>
</linearGradient>
<linearGradient id="paint69_linear" x1="128282" y1="-76920.6" x2="127939" y2="-77543.1" gradientUnits="userSpaceOnUse">
<stop stop-color="#7F0078"/>
<stop offset="0.65" stop-color="#C30078"/>
<stop offset="0.91" stop-color="#D40078"/>
</linearGradient>
<radialGradient id="paint70_radial" cx="0" cy="0" r="1" gradientUnits="userSpaceOnUse" gradientTransform="translate(378.698 594.439) rotate(-146.062) scale(6.55102 6.58981)">
<stop offset="0.28" stop-color="white"/>
<stop offset="0.9" stop-color="white"/>
</radialGradient>
<linearGradient id="paint71_linear" x1="31836.9" y1="-79642.5" x2="31855.5" y2="-79632.1" gradientUnits="userSpaceOnUse">
<stop offset="0.28" stop-color="white"/>
<stop offset="0.9" stop-color="white"/>
</linearGradient>
<linearGradient id="paint72_linear" x1="361.848" y1="508.261" x2="307.278" y2="526.233" gradientUnits="userSpaceOnUse">
<stop stop-color="white"/>
<stop offset="0.9" stop-color="white"/>
</linearGradient>
<linearGradient id="paint73_linear" x1="378094" y1="-264913" x2="371409" y2="-270819" gradientUnits="userSpaceOnUse">
<stop stop-color="#7F0078"/>
<stop offset="0.65" stop-color="#C30078"/>
<stop offset="0.91" stop-color="#D40078"/>
</linearGradient>
<linearGradient id="paint74_linear" x1="296786" y1="-259287" x2="299082" y2="-257582" gradientUnits="userSpaceOnUse">
<stop stop-color="white"/>
<stop offset="0.9" stop-color="white"/>
</linearGradient>
</defs>
</svg>
