<svg width="834" height="1194" viewBox="0 0 834 1194" fill="none" xmlns="http://www.w3.org/2000/svg">
<g id="handwithcrayontablet">
<g id="hand">
<path id="Vector" d="M261.291 484.948C274.997 490.619 277.92 508.389 278.845 523.196C279.745 537.739 280.646 552.284 281.546 566.831C282.052 574.899 282.599 583.163 285.847 590.563C289.094 597.963 295.616 604.87 303.684 605.295C338.259 607.105 388.917 523.783 396.857 513.142C408.557 497.492 417.003 479.708 425.375 462.06L444.638 421.422C449.695 410.748 458.391 398.156 469.909 400.755C476.931 402.342 481.522 409.593 482.285 416.75C483.048 423.906 480.793 431.016 478.45 437.821C467.329 469.894 453.773 501.069 437.9 531.075C435.753 535.126 433.477 539.764 431.047 544.666C442.241 533.397 452.692 523.736 456.703 518.382C468.403 502.731 476.85 484.948 485.222 467.299L504.484 426.654C509.541 415.987 518.237 403.395 529.755 405.994C536.777 407.581 541.375 414.832 542.131 421.989C542.887 429.146 540.639 436.255 538.296 443.061C527.176 475.133 513.619 506.308 497.746 536.314C489.826 551.343 480.192 573.718 467.087 591.238C478.841 581.624 489.563 573.502 493.931 568.742C507.131 554.341 517.319 537.489 527.406 520.758L550.638 482.274C556.715 472.147 566.646 460.5 577.854 464.241C584.68 466.523 588.528 474.192 588.569 481.396C588.609 488.6 585.652 495.44 582.641 501.975C568.462 532.796 520.08 620.129 509.831 633.814C510.817 635.002 508.886 632.592 509.831 633.814C518.365 626.961 525.563 621.249 528.945 617.563C542.151 603.162 552.333 586.31 562.426 569.586L585.659 531.102C591.735 520.974 601.667 509.335 612.868 513.075C619.694 515.35 623.542 523.027 623.582 530.224C623.623 537.421 620.666 544.267 617.655 550.803C603.476 581.624 581.331 633.503 563.392 662.299C505.031 755.937 402.562 860.371 385.122 875.636C352.755 903.993 243.021 972.185 204.949 940.877C142.834 889.788 216.075 743.116 225.021 741.151C218.742 734.818 214.334 726.561 211.383 718.061C204.409 697.954 204.631 676.126 205.86 654.879C208.217 613.586 213.962 572.57 219.667 531.601C221.348 519.597 223.198 507.127 229.991 497.087C236.783 487.047 250.09 480.309 261.291 484.948Z" fill="#B59674"/>
<path id="Vector_2" d="M458.101 417.344L438.831 457.982C430.466 475.637 422.013 493.421 410.319 509.071C402.427 519.624 352.539 601.649 317.991 601.237C349.967 582.9 386.405 523.304 393.056 514.425C404.756 498.775 413.202 480.991 421.568 463.336L440.83 422.698C445.894 412.03 454.583 399.439 466.108 402.038C466.684 402.176 467.25 402.352 467.803 402.565C463.792 406.67 460.524 412.226 458.101 417.344Z" fill="#887157"/>
<path id="Vector_3" d="M564.101 478.183L540.869 516.667C530.774 533.379 519.589 549.409 507.387 564.651C476.404 603.385 467.553 597.517 462.003 593.851C467.114 587.005 470.78 590.631 494.411 565.11C505.585 551.849 514.666 536.888 523.611 522.014L546.844 483.53C552.92 473.402 562.838 461.769 574.032 465.49C570.117 469.081 566.741 473.774 564.101 478.183Z" fill="#887157"/>
<path id="Vector_4" d="M517.947 422.603C511.528 436.156 505.105 449.702 498.678 463.241C490.312 480.897 481.866 498.68 470.166 514.331C466.115 519.698 434.429 556.535 427.948 546.671C430.385 541.763 438.946 535.321 442.261 532.128C449.6 525.039 458.296 513.575 461.605 506.769C469.085 494.569 475.277 481.545 481.414 468.589C487.841 455.045 494.264 441.499 500.683 427.951C505.74 417.283 514.429 404.691 525.954 407.291C526.529 407.429 527.095 407.603 527.649 407.811C523.638 411.909 520.371 417.465 517.947 422.603Z" fill="#887157"/>
<path id="Vector_5" d="M523.302 629.703C522.814 629.114 523.058 629.405 523.302 629.703V629.703Z" fill="#27282D"/>
<path id="Vector_6" d="M599.148 526.983L575.916 565.468C565.829 582.191 555.661 599.043 542.435 613.444C539.059 617.131 531.869 622.836 523.341 629.648C519.473 633.409 506.064 635.009 506.057 635.009C510.263 629.398 538.114 606.099 550.118 584.757C553.008 580.125 555.837 575.446 558.652 570.781L581.885 532.297C587.961 522.169 597.879 510.543 609.08 514.263C605.151 517.882 601.775 522.581 599.148 526.983Z" fill="#887157"/>
<path id="Vector_7" d="M523.287 629.723C523.531 630.014 523.781 630.318 523.287 629.723V629.723Z" fill="#27282D"/>
<path id="Vector_8" d="M254.026 484.799C250.883 487.048 248.159 489.831 245.978 493.023C239.186 503.062 237.336 515.533 235.655 527.537C229.937 568.499 224.177 609.522 221.848 650.815C220.633 672.062 220.397 693.89 227.371 713.996C230.321 722.496 234.73 730.754 241.009 737.087C78.5992 948.783 356.968 911.204 383.468 875.853C356.462 904.493 335.532 918.138 316.29 936.664C258.118 992.703 154.616 933.559 128.446 864.375C115.51 830.178 192.776 774.437 223.759 742.434C217.48 736.101 213.071 727.844 210.121 719.343C203.146 699.237 203.369 677.409 204.598 656.162C206.954 614.869 212.7 573.846 218.405 532.884C220.086 520.88 221.936 508.41 228.728 498.37C234.332 490.079 244.385 484.043 254.026 484.799Z" fill="#887157"/>
<path id="Vector_9" d="M380.66 826.512C368.912 835.289 352.08 836.72 339.036 829.996C319.801 820.084 311.685 796.379 294.03 783.869C287.818 779.467 280.648 776.624 274.187 772.607C267.725 768.59 261.703 762.918 259.947 755.512C258.138 747.869 261.156 740.024 262.196 732.239C264.221 716.886 258.523 701.715 253.804 686.963C249.084 672.21 245.344 655.905 251.103 641.538C252.818 637.264 255.444 633.2 259.313 630.735C268.515 624.774 281.384 629.831 288.419 638.236C297.021 648.519 299.681 662.461 306.405 674.02C312.422 684.331 321.486 692.523 332.352 697.468C346.766 703.977 363.335 705.617 373.834 718.844C380.39 727.101 380.025 736.344 381.531 746.249C385.737 774.045 411.508 803.394 380.66 826.512Z" fill="#C4A380"/>
<path id="Vector_10" d="M530.431 684.667C514.544 699.17 501.284 716.285 486.349 731.773C471.415 747.261 454.205 761.433 433.687 767.874C426.989 769.974 419.637 771.196 413.006 768.873C404.027 765.747 398.254 756.633 396.499 747.356C394.743 738.079 396.344 728.451 398.133 719.141C399.922 709.83 401.907 700.378 400.901 690.946C399.76 680.319 394.885 670.441 389.2 661.388C382.611 650.896 374.792 641.065 369.904 629.655C367.204 623.363 365.435 616.604 365.428 609.758C365.33 605.169 366.301 600.62 368.264 596.471C373.557 585.871 386.648 580.76 398.403 582.238C410.157 583.717 420.602 590.644 429.089 598.915C437.576 607.186 444.523 616.881 452.476 625.665C461.646 635.791 472.117 644.659 483.615 652.037C498.745 661.745 511.047 661.151 528.175 661.529C546.965 661.934 540.7 675.289 530.431 684.667Z" fill="#C4A380"/>
</g>
<g id="orangecrayon">
<path id="Vector_11" d="M457.016 684.561C455.319 682.625 454.21 683.739 454.21 683.739C453.904 684.774 453.851 685.867 454.054 686.927C454.254 687.602 454.624 688.215 455.13 688.705C455.635 689.195 456.258 689.547 456.939 689.727C458.18 689.374 458.619 686.403 457.016 684.561Z" fill="#F7A516"/>
<path id="Vector_12" d="M649.184 577.538C648.909 574.179 648.224 570.92 646.323 568.076C645.125 566.287 643.151 563.843 641.208 562.826C641.208 562.826 633.068 558.59 628.131 560.762L479.794 651.724C479.794 651.724 491.876 652.571 495.743 664.253C499.109 674.437 496.632 678.596 496.632 678.596C496.632 678.596 645.886 587.496 646.103 587.393C649.217 585.501 649.444 580.662 649.184 577.538Z" fill="#F7A516"/>
<path id="Vector_13" d="M495.717 664.246C491.857 652.566 479.768 651.718 479.768 651.718C479.438 651.838 479.148 652.046 478.929 652.321C478.71 652.595 478.571 652.924 478.527 653.272C478.415 654.445 494.765 679.145 494.765 679.145C495.406 679.066 496.028 678.878 496.605 678.589C496.605 678.589 499.083 674.43 495.717 664.246Z" fill="#F7A516"/>
<path id="Vector_14" d="M493.005 664.141C489.112 655.011 478.527 653.272 478.527 653.272L454.206 683.752C454.206 683.752 455.312 682.651 457.012 684.574C458.713 686.498 458.176 689.387 456.961 689.747C457.199 689.812 457.445 689.842 457.692 689.838C459.092 689.829 487.212 681.406 494.762 679.158C495.2 677.472 496.267 671.767 493.005 664.141Z" fill="#F7A516"/>
<path id="Vector_15" style="mix-blend-mode:multiply" opacity="0.8" d="M497.348 671.435C497.885 676.423 496.614 678.585 496.614 678.585C496.614 678.585 645.886 587.496 646.103 587.393C649.204 585.498 649.444 580.662 649.184 577.538L497.348 671.435Z" fill="#D8C3AD"/>
<path id="Vector_16" style="mix-blend-mode:multiply" opacity="0.8" d="M495.163 672.625L457.861 686.13C458.361 687.759 457.868 689.494 456.958 689.76C457.196 689.825 457.442 689.855 457.688 689.851C459.089 689.842 487.208 681.419 494.758 679.171C495.26 677.027 495.397 674.814 495.163 672.625V672.625Z" fill="#D8C3AD"/>
<path id="Vector_17" style="mix-blend-mode:overlay" opacity="0.5" d="M487.783 657.465L489.078 655.24L642.808 563.975C642.31 563.538 641.765 563.158 641.183 562.841C640.289 562.394 639.371 561.996 638.434 561.65L486.763 653.836L485.449 655.896L457.016 684.561C457.343 684.936 457.597 685.369 457.764 685.838V685.838L487.783 657.465Z" fill="white"/>
<path id="Vector_18" d="M501.507 638.125L497.241 640.742C502.033 642.264 516.047 648.424 514.613 667.73L518.065 665.621C519.848 646.653 506.926 640.045 501.507 638.125Z" fill="black"/>
<path id="Vector_19" d="M602.112 576.451L597.889 579.038C601.887 580.264 617.112 586.286 615.457 606.211L618.95 604.078C620.913 584.572 606.944 578.089 602.112 576.451Z" fill="black"/>
</g>
<g id="greencrayon">
<path id="Vector_20" d="M552.236 443.907C549.909 442.804 549.334 444.268 549.334 444.268C549.465 445.34 549.851 446.364 550.46 447.255C550.911 447.795 551.495 448.21 552.153 448.459C552.812 448.708 553.523 448.783 554.219 448.677C555.218 447.86 554.44 444.959 552.236 443.907Z" fill="#008800"/>
<path id="Vector_21" d="M686.007 269.299C684.42 266.327 682.495 263.609 679.62 261.755C677.809 260.59 675.027 259.132 672.84 258.972C672.84 258.972 663.686 258.321 660.02 262.277L560.08 404.72C560.08 404.72 571.503 400.693 579.695 409.874C586.834 417.881 586.214 422.682 586.214 422.682C586.214 422.682 686.941 279.747 687.099 279.567C689.204 276.593 687.488 272.062 686.007 269.299Z" fill="#008800"/>
<path id="Vector_22" d="M579.669 409.878C571.483 400.696 560.053 404.724 560.053 404.724C559.799 404.966 559.615 405.273 559.523 405.611C559.432 405.95 559.435 406.307 559.533 406.644C559.897 407.764 584.72 423.927 584.72 423.927C585.276 423.601 585.773 423.181 586.187 422.686C586.187 422.686 586.807 417.885 579.669 409.878Z" fill="#008800"/>
<path id="Vector_23" d="M577.139 410.861C569.936 404.031 559.533 406.644 559.533 406.644L549.336 444.282C549.336 444.282 549.913 442.831 552.238 443.92C554.563 445.009 555.22 447.874 554.248 448.687C554.492 448.651 554.73 448.582 554.955 448.48C556.236 447.914 578.688 429.005 584.722 423.941C584.453 422.22 583.164 416.561 577.139 410.861Z" fill="#008800"/>
<path id="Vector_24" style="mix-blend-mode:multiply" opacity="0.8" d="M584.024 415.826C586.5 420.189 586.193 422.678 586.193 422.678C586.193 422.678 686.941 279.747 687.099 279.567C689.19 276.595 687.488 272.063 686.007 269.299L584.024 415.826Z" fill="#D8C3AD"/>
<path id="Vector_25" style="mix-blend-mode:multiply" opacity="0.8" d="M582.492 417.787L553.635 445.01C554.742 446.307 554.979 448.094 554.25 448.7C554.494 448.665 554.732 448.595 554.957 448.493C556.238 447.928 578.69 429.018 584.724 423.954C584.332 421.788 583.578 419.703 582.492 417.787V417.787Z" fill="#D8C3AD"/>
<path id="Vector_26" style="mix-blend-mode:overlay" opacity="0.5" d="M569.693 406.811L569.997 404.254L674.765 259.389C674.134 259.187 673.483 259.055 672.823 258.995C671.825 258.94 670.824 258.94 669.826 258.995L567.315 403.887L566.928 406.299L552.236 443.907C552.686 444.12 553.091 444.417 553.431 444.781V444.781L569.693 406.811Z" fill="white"/>
<path id="Vector_27" d="M574.595 383.609L571.722 387.707C576.724 387.197 592.032 387.277 598.393 405.561L600.721 402.254C594.816 384.141 580.332 383.216 574.595 383.609Z" fill="black"/>
<path id="Vector_28" d="M642.384 287.018L639.538 291.071C643.694 290.606 660.058 290.078 666.462 309.018L668.819 305.673C662.863 286.994 647.469 286.6 642.384 287.018Z" fill="black"/>
</g>
<g id="pinkcrayon">
<path id="Vector_29" d="M354.113 451.93C356.649 451.484 356.815 453.048 356.815 453.048C356.405 454.046 355.761 454.931 354.939 455.63C354.36 456.031 353.687 456.276 352.986 456.341C352.285 456.407 351.579 456.291 350.936 456.004C350.19 454.952 351.71 452.36 354.113 451.93Z" fill="#D40078"/>
<path id="Vector_30" d="M271.428 248.103C273.746 245.657 276.323 243.547 279.587 242.522C281.642 241.879 284.711 241.211 286.863 241.636C286.863 241.636 295.861 243.436 298.347 248.223L356.94 412.067C356.94 412.067 346.994 405.155 336.661 411.835C327.655 417.662 326.979 422.456 326.979 422.456C326.979 422.456 267.757 257.929 267.653 257.713C266.412 254.288 269.267 250.374 271.428 248.103Z" fill="#D40078"/>
<path id="Vector_31" d="M336.685 411.846C347.013 405.163 356.965 412.077 356.965 412.077C357.147 412.378 357.242 412.722 357.241 413.073C357.24 413.424 357.142 413.768 356.958 414.067C356.31 415.05 328.09 424.053 328.09 424.053C327.64 423.59 327.273 423.054 327.004 422.467C327.004 422.467 327.68 417.673 336.685 411.846Z" fill="#D40078"/>
<path id="Vector_32" d="M338.864 413.464C347.62 408.789 356.958 414.067 356.958 414.067L356.81 453.061C356.81 453.061 356.638 451.509 354.108 451.942C351.577 452.376 350.185 454.964 350.906 456.005C350.68 455.907 350.469 455.776 350.28 455.619C349.194 454.734 332.56 430.548 328.085 424.065C328.8 422.477 331.543 417.363 338.864 413.464Z" fill="#D40078"/>
<path id="Vector_33" style="mix-blend-mode:multiply" opacity="0.8" d="M330.909 416.426C327.365 419.976 327.001 422.458 327.001 422.458C327.001 422.458 267.757 257.929 267.653 257.713C266.424 254.293 269.267 250.374 271.428 248.103L330.909 416.426Z" fill="#D8C3AD"/>
<path id="Vector_34" style="mix-blend-mode:multiply" opacity="0.8" d="M331.866 418.723L352.472 452.623C351.061 453.58 350.358 455.24 350.9 456.018C350.674 455.919 350.464 455.789 350.274 455.631C349.189 454.746 332.554 430.561 328.079 424.077C329.031 422.092 330.311 420.282 331.866 418.723V418.723Z" fill="#D8C3AD"/>
<path id="Vector_35" style="mix-blend-mode:overlay" opacity="0.5" d="M347.117 411.534L347.502 408.988L284.895 241.529C285.558 241.501 286.221 241.546 286.873 241.663C287.85 241.875 288.814 242.141 289.762 242.458L350.186 409.345L349.919 411.773L354.113 451.93C353.623 452.017 353.154 452.195 352.73 452.456V452.456L347.117 411.534Z" fill="white"/>
<path id="Vector_36" d="M348.543 387.862L350.227 392.575C345.538 390.757 330.758 386.775 319.776 402.719L318.408 398.912C328.905 383.014 343.116 385.962 348.543 387.862Z" fill="black"/>
<path id="Vector_37" d="M308.791 276.754L310.461 281.417C306.577 279.866 290.939 275.018 279.742 291.583L278.357 287.732C289.051 271.301 304 275.002 308.791 276.754Z" fill="black"/>
</g>
<g id="yellowcrayon">
<path id="Vector_38" d="M354.287 592.071C356.063 590.207 357.125 591.368 357.125 591.368C357.387 592.414 357.394 593.509 357.146 594.559C356.918 595.225 356.522 595.821 355.997 596.29C355.472 596.759 354.834 597.084 354.146 597.235C352.922 596.831 352.607 593.843 354.287 592.071Z" fill="#EFE35E"/>
<path id="Vector_39" d="M166.786 477.067C167.201 473.723 168.023 470.495 170.042 467.734C171.314 465.997 173.388 463.638 175.372 462.704C175.372 462.704 183.684 458.813 188.525 461.191L332.908 558.306C332.908 558.306 320.801 558.644 316.447 570.153C312.656 580.187 314.956 584.446 314.956 584.446C314.956 584.446 169.662 487.155 169.45 487.043C166.418 485.022 166.394 480.178 166.786 477.067Z" fill="#EFE35E"/>
<path id="Vector_40" d="M316.474 570.147C320.821 558.64 332.935 558.3 332.935 558.3C333.259 558.434 333.54 558.654 333.748 558.938C333.955 559.221 334.08 559.556 334.11 559.905C334.172 561.081 316.798 585.073 316.798 585.073C316.161 584.967 315.547 584.754 314.983 584.441C314.983 584.441 312.682 580.181 316.474 570.147Z" fill="#EFE35E"/>
<path id="Vector_41" d="M319.188 570.157C323.461 561.198 334.11 559.906 334.11 559.906L357.128 591.381C357.128 591.381 356.069 590.234 354.29 592.084C352.51 593.934 352.925 596.844 354.123 597.254C353.883 597.309 353.636 597.329 353.389 597.314C351.991 597.246 324.25 587.649 316.801 585.086C316.435 583.383 315.608 577.639 319.188 570.157Z" fill="#EFE35E"/>
<path id="Vector_42" style="mix-blend-mode:multiply" opacity="0.8" d="M314.541 577.261C313.795 582.222 314.975 584.435 314.975 584.435C314.975 584.435 169.662 487.155 169.45 487.043C166.431 485.019 166.394 480.178 166.786 477.067L314.541 577.261Z" fill="#D8C3AD"/>
<path id="Vector_43" style="mix-blend-mode:multiply" opacity="0.8" d="M316.675 578.542L353.376 593.602C352.808 595.21 353.228 596.963 354.126 597.267C353.885 597.322 353.638 597.342 353.392 597.328C351.993 597.26 324.253 587.662 316.804 585.099C316.393 582.936 316.349 580.72 316.675 578.542V578.542Z" fill="#D8C3AD"/>
<path id="Vector_44" style="mix-blend-mode:overlay" opacity="0.5" d="M324.685 563.705L323.485 561.428L173.725 463.784C174.242 463.369 174.802 463.012 175.397 462.719C176.309 462.31 177.242 461.952 178.194 461.645L325.857 560.123L327.083 562.236L354.287 592.071C353.944 592.431 353.672 592.854 353.485 593.315V593.315L324.685 563.705Z" fill="white"/>
<path id="Vector_45" d="M311.786 543.806L315.939 546.6C311.086 547.919 296.826 553.484 297.447 572.834L294.087 570.582C293.103 551.556 306.291 545.497 311.786 543.806Z" fill="black"/>
<path id="Vector_46" d="M213.861 477.959L217.972 480.722C213.926 481.778 198.461 487.155 199.278 507.132L195.877 504.854C194.736 485.282 208.965 479.392 213.861 477.959Z" fill="black"/>
</g>
<g id="redcrayon">
<path id="Vector_47" d="M382.439 668.669C382.366 666.095 383.937 666.158 383.937 666.158C384.865 666.708 385.648 667.473 386.219 668.389C386.532 669.02 386.677 669.72 386.64 670.423C386.603 671.127 386.386 671.808 386.009 672.403C384.86 672.989 382.516 671.109 382.439 668.669Z" fill="#ED0000"/>
<path id="Vector_48" d="M168.776 720.924C166.693 718.275 164.978 715.42 164.437 712.042C164.099 709.915 163.883 706.782 164.616 704.714C164.616 704.714 167.702 696.072 172.798 694.307L343.407 660.091C343.407 660.091 335.126 668.93 340.237 680.123C344.697 689.878 349.342 691.242 349.342 691.242C349.342 691.242 177.966 725.98 177.738 726.052C174.168 726.784 170.71 723.391 168.776 720.924Z" fill="#ED0000"/>
<path id="Vector_49" d="M340.251 680.1C335.137 668.913 343.421 660.068 343.421 660.068C343.745 659.932 344.099 659.888 344.446 659.94C344.793 659.992 345.119 660.138 345.389 660.364C346.268 661.147 351.083 690.375 351.083 690.375C350.56 690.753 349.976 691.038 349.356 691.219C349.356 691.219 344.711 689.855 340.251 680.1Z" fill="#ED0000"/>
<path id="Vector_50" d="M342.168 678.179C338.812 668.838 345.389 660.364 345.389 660.364L383.949 666.165C383.949 666.165 382.389 666.11 382.451 668.676C382.512 671.243 384.871 672.996 386.006 672.433C385.876 672.643 385.716 672.832 385.533 672.997C384.5 673.943 358.158 686.894 351.094 690.382C349.627 689.444 344.964 685.988 342.168 678.179Z" fill="#ED0000"/>
<path id="Vector_51" style="mix-blend-mode:multiply" opacity="0.8" d="M343.945 686.48C346.944 690.501 349.347 691.221 349.347 691.221C349.347 691.221 177.966 725.98 177.738 726.052C174.175 726.772 170.71 723.391 168.776 720.924L343.945 686.48Z" fill="#D8C3AD"/>
<path id="Vector_52" style="mix-blend-mode:multiply" opacity="0.8" d="M346.357 685.866L382.886 670.393C383.629 671.928 385.169 672.864 386.018 672.441C385.887 672.65 385.728 672.84 385.544 673.004C384.511 673.95 358.169 686.901 351.106 690.389C349.28 689.159 347.674 687.63 346.357 685.866V685.866Z" fill="#D8C3AD"/>
<path id="Vector_53" style="mix-blend-mode:overlay" opacity="0.5" d="M341.455 669.733L338.992 668.983L164.224 706.645C164.293 705.986 164.433 705.336 164.644 704.708C164.996 703.772 165.398 702.857 165.849 701.965L339.735 666.38L342.098 666.996L382.439 668.669C382.454 669.166 382.562 669.657 382.759 670.114V670.114L341.455 669.733Z" fill="white"/>
<path id="Vector_54" d="M318.24 664.89L323.148 663.907C320.67 668.283 314.586 682.329 328.769 695.507L324.804 696.309C310.596 683.617 315.574 669.984 318.24 664.89Z" fill="black"/>
<path id="Vector_55" d="M202.543 688.11L207.398 687.134C205.3 690.752 198.236 705.522 213.002 719.002L208.991 719.815C194.284 706.85 200.114 692.596 202.543 688.11Z" fill="black"/>
</g>
</g>
</svg>
