<svg width="1440" height="1024" viewBox="0 0 1440 1024" fill="none" xmlns="http://www.w3.org/2000/svg">
<g id="handwithcrayondesktop">
<g id="Group">
<g id="hand">
<path id="Vector" d="M561.521 347.062C578.867 354.24 582.567 376.73 583.737 395.468C584.877 413.873 586.016 432.281 587.155 450.692C587.796 460.903 588.488 471.362 592.598 480.727C596.708 490.092 604.962 498.833 615.173 499.371C658.931 501.661 723.041 396.211 733.09 382.745C747.898 362.938 758.587 340.432 769.183 318.096L793.561 266.666C799.961 253.156 810.966 237.221 825.543 240.51C834.43 242.518 840.24 251.695 841.206 260.753C842.171 269.81 839.318 278.808 836.352 287.421C822.279 328.011 805.122 367.465 785.033 405.44C782.316 410.567 779.436 416.437 776.36 422.64C790.527 408.379 803.755 396.152 808.83 389.376C823.638 369.569 834.327 347.062 844.923 324.727L869.301 273.288C875.701 259.787 886.706 243.851 901.284 247.141C910.17 249.149 915.989 258.326 916.946 267.383C917.903 276.441 915.058 285.438 912.093 294.051C898.019 334.641 880.862 374.096 860.773 412.07C850.75 431.091 838.557 459.408 821.972 481.581C836.848 469.414 850.417 459.135 855.946 453.111C872.65 434.885 885.544 413.557 898.31 392.383L927.712 343.679C935.403 330.862 947.972 316.122 962.156 320.856C970.795 323.744 975.665 333.451 975.716 342.568C975.768 351.685 972.025 360.341 968.214 368.612C950.27 407.619 889.039 518.144 876.068 535.464C877.316 536.968 874.872 533.918 876.068 535.464C886.869 526.791 895.977 519.563 900.258 514.897C916.972 496.671 929.857 475.344 942.631 454.179L972.034 405.474C979.724 392.657 992.293 377.926 1006.47 382.66C1015.11 385.539 1019.98 395.254 1020.03 404.363C1020.08 413.472 1016.34 422.136 1012.53 430.407C994.583 469.414 966.556 535.071 943.853 571.514C869.993 690.02 740.31 822.19 718.239 841.509C677.276 877.397 538.399 963.698 490.216 924.076C411.605 859.419 504.298 673.794 515.619 671.308C507.673 663.293 502.093 652.843 498.359 642.085C489.532 616.639 489.814 589.014 491.369 562.124C494.352 509.864 501.623 457.955 508.843 406.106C510.971 390.914 513.312 375.132 521.908 362.426C530.504 349.72 547.346 341.192 561.521 347.062Z" fill="#B59674"/>
<path id="Vector_2" d="M810.599 261.505L786.212 312.935C775.626 335.279 764.928 357.786 750.128 377.593C740.139 390.948 677.003 494.757 633.28 494.236C673.747 471.029 719.863 395.605 728.279 384.369C743.087 364.562 753.777 342.055 764.364 319.711L788.742 268.28C795.15 254.78 806.147 238.844 820.733 242.134C821.462 242.308 822.178 242.531 822.878 242.8C817.802 247.995 813.666 255.028 810.599 261.505Z" fill="#887157"/>
<path id="Vector_3" d="M944.75 338.501L915.348 387.205C902.573 408.356 888.418 428.643 872.975 447.932C833.763 496.953 822.561 489.528 815.538 484.888C822.006 476.224 826.646 480.812 856.552 448.514C870.694 431.732 882.186 412.797 893.508 393.973L922.91 345.268C930.6 332.451 943.153 317.729 957.32 322.437C952.364 326.982 948.091 332.921 944.75 338.501Z" fill="#887157"/>
<path id="Vector_4" d="M886.339 268.161C878.216 285.313 870.087 302.456 861.952 319.591C851.366 341.936 840.676 364.442 825.868 384.249C820.741 391.042 780.641 437.662 772.438 425.178C775.523 418.966 786.358 410.814 790.553 406.773C799.841 397.801 810.847 383.292 815.034 374.679C824.501 359.239 832.337 342.756 840.104 326.359C848.238 309.218 856.367 292.075 864.49 274.928C870.89 261.428 881.887 245.492 896.473 248.781C897.201 248.957 897.917 249.176 898.618 249.439C893.542 254.626 889.406 261.658 886.339 268.161Z" fill="#887157"/>
<path id="Vector_5" d="M893.116 530.261C892.499 529.516 892.807 529.885 893.116 530.261V530.261Z" fill="#27282D"/>
<path id="Vector_6" d="M989.106 400.262L959.704 448.966C946.938 470.132 934.07 491.459 917.331 509.685C913.058 514.35 903.958 521.571 893.166 530.192C888.27 534.952 871.3 536.977 871.292 536.977C876.615 529.876 911.862 500.388 927.054 473.379C930.711 467.517 934.292 461.595 937.855 455.691L967.257 406.986C974.947 394.169 987.499 379.455 1001.68 384.163C996.702 388.743 992.43 394.691 989.106 400.262Z" fill="#887157"/>
<path id="Vector_7" d="M893.098 530.286C893.406 530.654 893.723 531.04 893.098 530.286V530.286Z" fill="#27282D"/>
<path id="Vector_8" d="M552.327 346.874C548.349 349.721 544.902 353.243 542.142 357.282C533.546 369.988 531.205 385.77 529.077 400.962C521.84 452.803 514.551 504.72 511.603 556.98C510.065 583.87 509.766 611.495 518.593 636.941C522.327 647.699 527.906 658.149 535.853 666.164C330.311 934.082 682.608 886.523 716.146 841.783C681.967 878.029 655.479 895.298 631.126 918.745C557.505 989.665 426.515 914.814 393.396 827.257C377.024 783.978 474.81 713.433 514.021 672.931C506.075 664.916 500.495 654.466 496.761 643.708C487.934 618.262 488.216 590.637 489.772 563.747C492.754 511.488 500.025 459.57 507.245 407.73C509.373 392.537 511.714 376.755 520.31 364.049C527.402 353.556 540.125 345.917 552.327 346.874Z" fill="#887157"/>
<path id="Vector_9" d="M712.591 779.338C697.724 790.446 676.422 792.258 659.913 783.747C635.57 771.204 625.299 741.203 602.954 725.37C595.093 719.799 586.019 716.201 577.842 711.117C569.664 706.033 562.043 698.856 559.821 689.482C557.531 679.81 561.35 669.881 562.666 660.029C565.23 640.598 558.018 621.398 552.045 602.728C546.073 584.058 541.339 563.422 548.627 545.239C550.798 539.831 554.122 534.687 559.018 531.568C570.664 524.023 586.95 530.423 595.854 541.061C606.74 554.075 610.106 571.719 618.617 586.348C626.231 599.397 637.703 609.765 651.454 616.023C669.697 624.261 690.666 626.337 703.953 643.076C712.25 653.526 711.788 665.224 713.694 677.759C719.017 712.937 751.632 750.081 712.591 779.338Z" fill="#C4A380"/>
<path id="Vector_10" d="M902.138 599.823C882.032 618.177 865.251 639.838 846.35 659.439C827.449 679.041 805.669 696.976 779.701 705.127C771.225 707.785 761.92 709.331 753.529 706.392C742.164 702.436 734.859 690.901 732.637 679.16C730.416 667.42 732.441 655.235 734.705 643.452C736.969 631.669 739.481 619.706 738.208 607.769C736.764 594.32 730.595 581.819 723.4 570.361C715.061 557.082 705.166 544.641 698.98 530.201C695.562 522.237 693.323 513.684 693.315 505.02C693.19 499.212 694.419 493.455 696.903 488.204C703.602 474.788 720.17 468.32 735.047 470.191C749.923 472.063 763.142 480.83 773.882 491.297C784.623 501.764 793.415 514.034 803.481 525.151C815.086 537.967 828.338 549.189 842.889 558.526C862.038 570.814 877.606 570.062 899.284 570.54C923.064 571.053 915.134 587.954 902.138 599.823Z" fill="#C4A380"/>
</g>
<g id="redcrayon">
<path id="Vector_11" d="M654.641 661.908C654.872 658.824 656.743 659.089 656.743 659.089C657.776 659.874 658.608 660.893 659.17 662.062C659.466 662.854 659.553 663.708 659.423 664.544C659.292 665.379 658.949 666.166 658.427 666.83C657.008 667.369 654.419 664.856 654.641 661.908Z" fill="url(#paint0_linear)"/>
<g id="Group_2" style="mix-blend-mode:multiply">
<g id="Group_3" style="mix-blend-mode:multiply">
<path id="Vector_12" style="mix-blend-mode:multiply" d="M659.17 662.071C659.466 662.862 659.553 663.717 659.423 664.552C659.292 665.387 658.949 666.175 658.427 666.839C657.333 667.249 655.573 665.873 654.906 663.882C655.716 664.038 656.555 663.949 657.314 663.626C658.074 663.304 658.72 662.762 659.17 662.071Z" fill="url(#paint1_linear)"/>
</g>
</g>
<path id="Vector_13" style="mix-blend-mode:screen" opacity="0.6" d="M656.564 659.089C656.564 659.089 654.607 659.14 654.633 662.421C654.631 661.744 654.808 661.079 655.147 660.494C655.487 659.908 655.976 659.423 656.564 659.089V659.089Z" fill="url(#paint2_linear)"/>
<path id="Vector_14" d="M393.114 697.848C390.961 694.43 389.269 690.798 389.047 686.74C388.902 684.176 389.047 680.391 390.166 678.015C390.166 678.015 394.917 668.087 401.223 666.6L609.132 646.844C609.132 646.844 598.161 656.372 602.878 670.368C606.988 682.561 612.362 684.766 612.362 684.766L403.18 705.077C398.839 705.495 395.122 701.035 393.114 697.848Z" fill="url(#paint3_linear)"/>
<path id="Vector_15" d="M602.886 670.333C598.169 656.337 609.141 646.81 609.141 646.81C609.545 646.688 609.974 646.679 610.383 646.784C610.791 646.89 611.163 647.106 611.456 647.408C612.405 648.451 614.541 683.937 614.541 683.937C613.868 684.323 613.134 684.592 612.371 684.731C612.371 684.731 606.988 682.527 602.886 670.333Z" fill="url(#paint4_linear)"/>
<path id="Vector_16" d="M613.994 675.956C614.302 680.604 614.498 683.937 614.498 683.937C613.825 684.323 613.091 684.592 612.328 684.731C612.328 684.731 608.739 683.253 605.176 676.05C608.074 675.378 611.083 675.346 613.994 675.956Z" fill="url(#paint5_linear)"/>
<path id="Vector_17" d="M605.39 668.283C602.544 656.705 611.439 647.408 611.448 647.408L656.735 659.089C656.735 659.089 654.863 658.824 654.633 661.908C654.411 664.856 657 667.369 658.418 666.83C658.238 667.067 658.025 667.277 657.786 667.454C656.444 668.428 623.359 680.673 614.524 683.937C612.901 682.646 607.774 677.938 605.39 668.283Z" fill="url(#paint6_linear)"/>
<g id="Group_4">
<path id="Vector_18" opacity="0.4" d="M607.158 648.886L395.763 669.958C397.229 668.344 399.108 667.163 401.197 666.54L609.107 646.784C608.418 647.425 607.776 648.113 607.184 648.844L607.158 648.886Z" fill="url(#paint7_linear)"/>
</g>
<g id="Group_5">
<path id="Vector_19" style="mix-blend-mode:multiply" opacity="0.8" d="M606.492 678.4C609.585 683.526 612.362 684.723 612.362 684.723L403.18 705.076C398.839 705.495 395.122 701.035 393.114 697.847L606.492 678.4Z" fill="url(#paint8_linear)"/>
</g>
<g id="Group_6">
<path id="Vector_20" style="mix-blend-mode:multiply" opacity="0.6" d="M606.492 678.408C609.055 679.434 609.423 678.007 609.423 678.007C610.784 680.274 612.517 682.296 614.55 683.988C613.877 684.374 613.143 684.643 612.379 684.783C612.379 684.783 609.585 683.569 606.492 678.408Z" fill="url(#paint9_linear)"/>
</g>
<g id="Group_7">
<path id="Vector_21" style="mix-blend-mode:multiply" d="M609.423 677.998L654.94 663.993C655.641 665.924 657.358 667.232 658.427 666.83C658.247 667.067 658.034 667.277 657.794 667.454C656.453 668.428 623.368 680.673 614.533 683.937C612.51 682.256 610.783 680.249 609.423 677.998V677.998Z" fill="url(#paint10_linear)"/>
</g>
<g id="Group_8">
<path id="Vector_22" opacity="0.4" d="M609.773 649.484C609.773 649.484 608.124 647.776 607.21 648.869C607.802 648.139 608.444 647.451 609.132 646.81C609.536 646.688 609.966 646.679 610.374 646.784C610.782 646.89 611.154 647.106 611.448 647.408C610.835 648.064 610.265 648.757 609.739 649.484H609.773Z" fill="url(#paint11_linear)"/>
</g>
<g id="Group_9">
<path id="Vector_23" opacity="0.4" d="M609.773 649.485C610.299 648.757 610.869 648.064 611.482 647.408L656.769 659.089C656.398 659.078 656.033 659.184 655.726 659.393C655.419 659.601 655.186 659.902 655.06 660.251H654.735L609.773 649.485Z" fill="url(#paint12_linear)"/>
</g>
<g id="Group_10">
<path id="Vector_24" style="mix-blend-mode:overlay" opacity="0.5" d="M605.586 658.106L602.724 656.944L389.44 680.254C389.592 679.47 389.835 678.707 390.166 677.981C390.703 676.908 391.296 675.864 391.943 674.854L603.954 653.885L606.697 654.919L654.641 661.908C654.603 662.503 654.675 663.1 654.855 663.669V663.669L605.586 658.106Z" fill="url(#paint13_linear)"/>
</g>
<path id="Vector_25" d="M578.482 649.45L584.464 648.886C580.978 653.808 571.971 669.821 587.275 687.337L582.439 687.807C566.998 670.855 574.689 655.235 578.482 649.45Z" fill="black"/>
<path id="Vector_26" d="M443.408 662.293L578.482 649.476C574.663 655.227 567.033 670.838 582.422 687.799L446.151 701.026C430.172 683.082 440.452 666.343 443.408 662.293Z" fill="url(#paint14_linear)"/>
<path id="Vector_27" d="M437.487 662.848L443.408 662.293C440.452 666.343 430.172 683.082 446.151 701.026L441.263 701.496C425.31 684.202 434.035 667.915 437.487 662.848Z" fill="black"/>
<g id="Group_11" opacity="0.6">
<path id="Vector_28" style="mix-blend-mode:screen" opacity="0.6" d="M606.612 649.604C604.355 652.412 602.822 655.73 602.147 659.269C601.473 662.807 601.676 666.457 602.741 669.898C601.904 666.435 601.816 662.833 602.484 659.333C603.151 655.833 604.559 652.516 606.612 649.604Z" fill="url(#paint15_linear)"/>
<path id="Vector_29" style="mix-blend-mode:screen" opacity="0.6" d="M607.919 652.407C607.919 652.407 602.886 660.635 605.552 668.907C605.552 668.907 603.023 663.498 607.919 652.407Z" fill="url(#paint16_linear)"/>
</g>
<g id="Group_12">
<path id="Vector_30" style="mix-blend-mode:screen" opacity="0.5" d="M582.242 650.459C580.084 653.379 578.607 656.745 577.919 660.311C577.919 660.311 577.961 663.028 574.501 663.13C571.04 663.233 439.683 677.451 439.683 677.451C439.683 677.451 434.898 679.015 434.052 675.452C433.206 671.889 436.769 664.096 439.819 663.318C442.87 662.541 579.815 649.724 579.815 649.724C579.815 649.724 583.233 649.032 582.242 650.459Z" fill="url(#paint17_linear)"/>
</g>
</g>
<g id="orangecrayon">
<path id="Vector_31" d="M778.394 576.547C776.258 573.796 774.668 575.214 774.668 575.214C774.189 576.584 774.04 578.048 774.233 579.486C774.448 580.415 774.9 581.273 775.543 581.976C776.187 582.68 777.001 583.205 777.907 583.502C779.573 583.152 780.436 579.187 778.394 576.547Z" fill="url(#paint18_linear)"/>
<g id="Group_13" style="mix-blend-mode:multiply" opacity="0.8">
<g id="Group_14" style="mix-blend-mode:multiply" opacity="0.8">
<path id="Vector_32" style="mix-blend-mode:multiply" opacity="0.8" d="M774.233 579.521C774.448 580.449 774.9 581.307 775.543 582.01C776.187 582.714 777.001 583.24 777.907 583.537C779.18 583.246 779.975 580.845 779.368 578.564C778.703 579.213 777.86 579.651 776.946 579.821C776.031 579.992 775.087 579.887 774.233 579.521V579.521Z" fill="url(#paint19_linear)"/>
</g>
</g>
<path id="Vector_33" d="M1046.55 447.668C1046.44 443.113 1045.79 438.653 1043.45 434.663C1041.98 432.15 1039.51 428.681 1036.97 427.16C1036.97 427.16 1026.34 420.777 1019.48 423.307L811.778 534.054C811.778 534.054 828.013 536.191 832.285 552.272C836.011 566.285 832.285 571.711 832.285 571.711L1041.54 460.724C1045.94 458.417 1046.65 451.872 1046.55 447.668Z" fill="url(#paint20_linear)"/>
<path id="Vector_34" d="M832.285 552.272C828.013 536.191 811.778 534.054 811.778 534.054C811.322 534.188 810.911 534.445 810.593 534.798C810.274 535.151 810.061 535.586 809.975 536.054C809.727 537.635 829.79 572.309 829.79 572.309C830.673 572.257 831.539 572.055 832.354 571.711C832.354 571.711 836.011 566.285 832.285 552.272Z" fill="url(#paint21_linear)"/>
<path id="Vector_35" d="M828.645 551.913C824.125 539.258 809.984 536.054 809.975 536.054L774.634 575.214C774.634 575.214 776.224 573.796 778.36 576.547C780.496 579.298 779.539 583.152 777.873 583.537C778.188 583.642 778.515 583.705 778.847 583.725C780.718 583.801 819.426 574.736 829.756 572.309C830.525 570.079 832.422 562.465 828.645 551.913Z" fill="url(#paint22_linear)"/>
<g id="Group_15">
<path id="Vector_36" style="mix-blend-mode:overlay" opacity="0.5" d="M814.905 534.798L1026.7 423.11C1024.33 422.516 1021.83 422.584 1019.49 423.307L811.778 534.054C812.821 534.231 813.852 534.477 814.863 534.789L814.905 534.798Z" fill="url(#paint23_linear)"/>
</g>
<g id="Group_16">
<path id="Vector_37" style="mix-blend-mode:multiply" opacity="0.8" d="M833.909 562.098C834.216 568.874 832.328 571.694 832.328 571.694L1041.59 460.707C1045.94 458.4 1046.65 451.889 1046.55 447.65L833.909 562.098Z" fill="url(#paint24_linear)"/>
</g>
<g id="Group_17">
<path id="Vector_38" style="mix-blend-mode:multiply" opacity="0.8" d="M833.909 562.098C832.097 564.661 830.91 563.533 830.91 563.533C831.031 566.495 830.652 569.456 829.79 572.292C830.673 572.24 831.539 572.037 832.354 571.694C832.354 571.694 834.216 568.934 833.909 562.098Z" fill="url(#paint25_linear)"/>
</g>
<g id="Group_18">
<path id="Vector_39" style="mix-blend-mode:multiply" opacity="0.8" d="M830.91 563.551L779.419 578.7C779.958 580.948 779.154 583.246 777.907 583.537C778.222 583.642 778.549 583.705 778.881 583.725C780.752 583.801 819.46 574.736 829.79 572.309C830.652 569.473 831.031 566.512 830.91 563.551Z" fill="url(#paint26_linear)"/>
</g>
<g id="Group_19">
<path id="Vector_40" opacity="0.4" d="M812.838 536.968C812.838 536.968 813.316 534.319 814.863 534.789C813.852 534.477 812.821 534.231 811.778 534.054C811.322 534.188 810.911 534.445 810.593 534.798C810.274 535.151 810.061 535.586 809.975 536.054C810.946 536.304 811.902 536.609 812.838 536.968V536.968Z" fill="url(#paint27_radial)"/>
</g>
<g id="Group_20">
<path id="Vector_41" style="mix-blend-mode:overlay" opacity="0.5" d="M812.838 536.968C811.904 536.61 810.951 536.305 809.984 536.054L774.634 575.214C774.971 574.967 775.378 574.834 775.796 574.834C776.214 574.834 776.621 574.967 776.958 575.214L777.24 574.975L812.838 536.968Z" fill="url(#paint28_linear)"/>
</g>
<g id="Group_21">
<path id="Vector_42" style="mix-blend-mode:overlay" opacity="0.5" d="M822.143 542.445L824.091 539.549L1039.07 428.818C1038.44 428.169 1037.74 427.595 1036.97 427.109C1035.8 426.432 1034.6 425.818 1033.36 425.272L821.041 537.489L819.109 540.164L778.394 576.547C778.802 577.085 779.109 577.693 779.3 578.341L822.143 542.445Z" fill="url(#paint29_linear)"/>
</g>
<path id="Vector_43" d="M842.231 517.469L836.25 520.656C842.59 523.1 861.03 532.55 857.509 558.509L862.345 555.946C866.302 530.483 849.392 520.502 842.231 517.469Z" fill="black"/>
<path id="Vector_44" d="M977.143 445.531L842.206 517.469C849.366 520.502 866.276 530.474 862.337 555.92L998.65 483.615C1002.54 456.836 982.467 447.505 977.143 445.531Z" fill="url(#paint30_linear)"/>
<path id="Vector_45" d="M983.125 442.37L977.212 445.531C982.509 447.505 1002.58 456.836 998.719 483.641L1003.61 481.077C1007.81 454.862 989.473 444.976 983.125 442.37Z" fill="black"/>
<g id="Group_22" opacity="0.6">
<g id="Vector_46" style="mix-blend-mode:screen" opacity="0.6">
<path d="M815.888 535.114C819.75 536.354 823.25 538.523 826.08 541.429C828.91 544.335 830.985 547.891 832.123 551.785C832.123 551.785 828.466 539.882 815.888 535.114Z" fill="#E4E3E4"/>
</g>
<g id="Vector_47" style="mix-blend-mode:screen" opacity="0.6">
<path d="M816.401 538.566C816.401 538.566 826.27 543.154 828.876 552.588C828.876 552.588 827.893 545.94 816.401 538.566Z" fill="#E4E3E4"/>
</g>
</g>
<g id="Group_23">
<path id="Vector_48" style="mix-blend-mode:screen" opacity="0.5" d="M840.18 521.468C840.18 521.468 846.29 523.519 850.383 528.039C850.383 528.039 852.015 530.602 855.364 528.534C858.714 526.467 990.926 458.169 990.926 458.169C990.926 458.169 996.412 456.657 994.976 452.786C993.541 448.915 985.355 443.797 982.014 444.967C978.673 446.138 842.052 519.238 842.052 519.238C842.052 519.238 838.378 520.733 840.18 521.468Z" fill="url(#paint31_linear)"/>
</g>
<path id="Vector_49" style="mix-blend-mode:multiply" d="M862.431 542.283C863.136 546.815 863.113 551.43 862.363 555.954L998.676 483.649C999.458 478.739 999.319 473.726 998.266 468.867L862.431 542.283Z" fill="url(#paint32_linear)"/>
<g id="Vector_50" style="mix-blend-mode:screen" opacity="0.7">
<path d="M774.839 575.103C774.839 575.103 776.702 573.932 778.719 577.034C778.719 577.034 777.266 574.761 774.839 575.103Z" fill="#E4E3E4"/>
</g>
</g>
<g id="yellowcrayon">
<path id="Vector_51" d="M713.489 567.866C715.744 565.507 717.086 567.011 717.086 567.011C717.409 568.339 717.409 569.725 717.086 571.053C716.802 571.901 716.303 572.662 715.639 573.261C714.974 573.86 714.165 574.277 713.292 574.471C711.771 573.898 711.344 570.13 713.489 567.866Z" fill="url(#paint33_linear)"/>
<g id="Group_24" style="mix-blend-mode:multiply" opacity="0.5">
<g id="Vector_52" style="mix-blend-mode:multiply" opacity="0.5">
<path d="M717.086 571.019C716.802 571.867 716.303 572.628 715.639 573.227C714.974 573.826 714.165 574.242 713.292 574.437C712.13 574.043 711.583 571.736 712.395 569.669C712.955 570.333 713.7 570.817 714.535 571.057C715.37 571.297 716.258 571.284 717.086 571.019V571.019Z" fill="#E8C926"/>
</g>
</g>
<g id="Vector_53" style="mix-blend-mode:screen" opacity="0.6">
<path d="M716.941 566.857C716.941 566.857 715.317 565.593 713.138 568.293C713.113 568.293 714.71 566.302 716.941 566.857Z" fill="#E4E3E4"/>
</g>
<path id="Vector_54" d="M476.033 422.598C476.554 418.369 477.588 414.276 480.143 410.781C481.749 408.585 484.372 405.594 486.884 404.415C486.884 404.415 497.386 399.476 503.529 402.475L686.386 525.169C686.386 525.169 671.065 525.613 665.571 540.182C660.786 552.888 663.699 558.279 663.699 558.279L479.374 435.236C475.571 432.664 475.571 426.537 476.033 422.598Z" fill="url(#paint34_linear)"/>
<path id="Vector_55" d="M665.613 540.181C671.107 525.612 686.428 525.168 686.428 525.168C686.837 525.337 687.192 525.615 687.455 525.972C687.717 526.329 687.876 526.752 687.914 527.193C687.991 528.688 666.048 559.073 666.048 559.073C665.24 558.939 664.46 558.671 663.741 558.279C663.741 558.279 660.828 552.887 665.613 540.181Z" fill="url(#paint35_linear)"/>
<path id="Vector_56" opacity="0.4" d="M670.962 552.22C668.108 556.219 666.048 559.056 666.048 559.056C665.24 558.922 664.46 558.654 663.741 558.261C663.741 558.261 661.802 554.647 663.699 546.393C666.513 547.787 668.991 549.775 670.962 552.22Z" fill="#F2D71A"/>
<path id="Vector_57" d="M669.039 540.189C674.439 528.842 687.914 527.193 687.914 527.193L717.086 566.977C717.086 566.977 715.744 565.507 713.489 567.831C711.233 570.156 711.78 573.864 713.292 574.385C712.987 574.453 712.673 574.479 712.361 574.462C710.652 574.368 675.439 562.277 666.048 559.082C665.57 556.971 664.527 549.665 669.039 540.189Z" fill="url(#paint36_linear)"/>
<g id="Group_25">
<path id="Vector_58" opacity="0.5" d="M683.445 525.561L496.829 401.612C499.099 401.281 501.415 401.576 503.529 402.466L686.385 525.159C685.394 525.219 684.409 525.348 683.437 525.544L683.445 525.561Z" fill="url(#paint37_linear)"/>
</g>
<g id="Group_26">
<path id="Vector_59" style="mix-blend-mode:multiply" opacity="0.8" d="M663.169 549.187C662.246 555.467 663.733 558.27 663.733 558.27L479.407 435.227C475.587 432.663 475.528 426.545 475.989 422.606L663.169 549.187Z" fill="url(#paint38_linear)"/>
</g>
<g id="Group_27">
<path id="Vector_60" style="mix-blend-mode:multiply" opacity="0.8" d="M663.177 549.196C664.621 551.759 665.835 550.819 665.835 550.819C665.442 553.563 665.514 556.353 666.048 559.073C665.24 558.939 664.46 558.671 663.741 558.279C663.741 558.279 662.255 555.476 663.177 549.196Z" fill="url(#paint39_linear)"/>
</g>
<g id="Group_28">
<path id="Vector_61" style="mix-blend-mode:multiply" opacity="0.8" d="M665.835 550.819L712.344 569.788C711.626 571.83 712.156 574.061 713.292 574.437C712.987 574.505 712.673 574.531 712.361 574.513C710.652 574.419 675.439 562.329 666.048 559.133C665.507 556.394 665.435 553.582 665.835 550.819V550.819Z" fill="url(#paint40_linear)"/>
</g>
<g id="Group_29">
<path id="Vector_62" opacity="0.4" d="M685.163 527.774C685.163 527.774 684.966 525.262 683.454 525.552C684.426 525.356 685.412 525.228 686.402 525.168C686.811 525.337 687.167 525.615 687.429 525.972C687.691 526.329 687.85 526.752 687.889 527.193C686.961 527.335 686.043 527.529 685.137 527.774H685.163Z" fill="url(#paint41_radial)"/>
</g>
<g id="Group_30">
<path id="Vector_63" style="mix-blend-mode:overlay" opacity="0.5" d="M685.163 527.774C686.068 527.529 686.987 527.335 687.914 527.193L717.086 566.977C716.794 566.718 716.426 566.559 716.037 566.523C715.648 566.488 715.258 566.578 714.924 566.78L714.676 566.524L685.163 527.774Z" fill="url(#paint42_linear)"/>
</g>
<g id="Group_31">
<path id="Vector_64" style="mix-blend-mode:overlay" opacity="0.5" d="M675.986 532.021L674.448 529.141L484.756 405.782C485.408 405.247 486.119 404.788 486.875 404.414C488.027 403.892 489.208 403.436 490.412 403.047L677.473 527.483L679.019 530.158L713.489 567.866C713.061 568.331 712.719 568.87 712.48 569.455V569.455L675.986 532.021Z" fill="url(#paint43_linear)"/>
</g>
<path id="Vector_65" d="M659.64 506.848L664.895 510.377C658.76 512.086 640.713 519.118 641.534 543.616L637.261 540.77C636.005 516.692 652.685 509.001 659.64 506.848Z" fill="black"/>
<path id="Vector_66" d="M540.818 427.152L659.64 506.848C652.685 509.001 636.005 516.692 637.278 540.77L517.2 460.604C516.132 435.286 535.699 428.493 540.818 427.152Z" fill="url(#paint44_linear)"/>
<path id="Vector_67" d="M535.614 423.674L540.818 427.169C535.691 428.51 516.132 435.303 517.2 460.621L512.928 457.742C511.458 432.954 529.402 425.477 535.614 423.674Z" fill="black"/>
<g id="Group_32" opacity="0.6">
<g id="Vector_68" style="mix-blend-mode:screen" opacity="0.6">
<path d="M682.497 525.766C678.78 526.551 675.313 528.237 672.399 530.674C669.485 533.111 667.214 536.226 665.784 539.745C665.784 539.745 670.329 528.97 682.497 525.766Z" fill="#E4E3E4"/>
</g>
<g id="Vector_69" style="mix-blend-mode:screen" opacity="0.6">
<path d="M681.694 528.928C681.694 528.928 672.081 532.26 668.757 540.796C668.757 540.796 670.295 534.704 681.694 528.928Z" fill="#E4E3E4"/>
</g>
</g>
<g id="Group_33">
<path id="Vector_70" style="mix-blend-mode:screen" opacity="0.5" d="M661.178 510.762C657.466 511.695 654.009 513.447 651.061 515.888C651.061 515.888 649.292 518.136 646.37 515.888C643.448 513.641 526.838 437.619 526.838 437.619C526.838 437.619 521.883 435.696 523.574 432.227C525.266 428.758 533.384 424.776 536.391 426.169C539.399 427.562 659.674 508.514 659.674 508.514C659.674 508.514 662.921 510.249 661.178 510.762Z" fill="url(#paint45_linear)"/>
</g>
<path id="Vector_71" style="mix-blend-mode:multiply" d="M638.5 528.039C637.41 532.189 636.998 536.488 637.278 540.77L517.2 460.604C516.937 455.959 517.54 451.306 518.977 446.881L638.5 528.039Z" fill="url(#paint46_linear)"/>
</g>
<g id="greencrayon">
<path id="Vector_72" d="M849.827 287.882C847.119 286.07 846.128 287.797 846.128 287.797C846.093 289.162 846.386 290.515 846.982 291.744C847.447 292.504 848.101 293.131 848.879 293.565C849.657 293.999 850.534 294.226 851.425 294.222C852.827 293.385 852.391 289.608 849.827 287.882Z" fill="url(#paint47_linear)"/>
<g id="Group_34" style="mix-blend-mode:multiply" opacity="0.5">
<g id="Vector_73" style="mix-blend-mode:multiply" opacity="0.5">
<path d="M847.016 291.744C847.482 292.504 848.135 293.131 848.913 293.565C849.692 293.999 850.568 294.226 851.46 294.222C852.511 293.581 852.502 291.223 851.289 289.377C850.891 290.15 850.272 290.788 849.512 291.209C848.751 291.631 847.883 291.817 847.016 291.744V291.744Z" fill="#E8C926"/>
</g>
</g>
<g id="Vector_74" style="mix-blend-mode:screen" opacity="0.6">
<path d="M846.247 287.643C846.247 287.643 847.546 286.053 850.272 288.215C850.272 288.215 848.298 286.617 846.247 287.643Z" fill="#E4E3E4"/>
</g>
<path id="Vector_75" d="M1049.69 94.1056C1048.25 90.0896 1046.35 86.33 1043.09 83.476C1041.04 81.6817 1037.83 79.3404 1035.12 78.7337C1035.12 78.7337 1023.78 76.2216 1018.46 80.4939L866.917 240.28C866.917 240.28 881.964 237.357 890.517 250.371C897.968 261.718 896.302 267.614 896.302 267.614C896.302 267.614 1048.92 107.358 1049.15 107.162C1052.34 103.829 1051.03 97.8396 1049.69 94.1056Z" fill="url(#paint48_linear)"/>
<path id="Vector_76" d="M890.483 250.371C881.938 237.357 866.883 240.28 866.883 240.28C866.519 240.534 866.232 240.885 866.055 241.291C865.877 241.698 865.814 242.147 865.874 242.587C866.122 244.056 894.2 268.896 894.2 268.896C894.958 268.59 895.657 268.156 896.268 267.614C896.268 267.614 897.934 261.718 890.483 250.371Z" fill="url(#paint49_linear)"/>
<path id="Vector_77" opacity="0.4" d="M887.903 263.29C891.56 266.563 894.2 268.896 894.2 268.896C894.958 268.59 895.657 268.156 896.268 267.614C896.268 267.614 897.37 263.666 893.704 256.036C891.263 258 889.282 260.477 887.903 263.29V263.29Z" fill="#F2D71A"/>
<path id="Vector_78" d="M887.134 251.131C879.384 241.245 865.874 242.587 865.874 242.587L846.128 287.814C846.128 287.814 847.119 286.105 849.827 287.899C852.536 289.693 852.827 293.402 851.46 294.239C851.772 294.24 852.082 294.197 852.382 294.111C854.091 293.641 885.707 274.134 894.2 268.913C894.183 266.708 893.619 259.385 887.134 251.131Z" fill="url(#paint50_linear)"/>
<g id="Group_35">
<path id="Vector_79" d="M869.873 240.006L1024.8 78.1869C1022.51 78.3637 1020.32 79.1615 1018.46 80.494L866.917 240.28C867.895 240.122 868.883 240.033 869.873 240.015V240.006Z" fill="url(#paint51_linear)"/>
</g>
<g id="Group_36">
<path id="Vector_80" style="mix-blend-mode:multiply" opacity="0.8" d="M894.832 258.625C897.122 264.546 896.276 267.605 896.276 267.605C896.276 267.605 1048.92 107.358 1049.15 107.162C1052.32 103.829 1051.03 97.8396 1049.69 94.1056L894.832 258.625Z" fill="url(#paint52_linear)"/>
</g>
<g id="Group_37">
<path id="Vector_81" style="mix-blend-mode:multiply" opacity="0.8" d="M894.824 258.634C893.969 261.462 892.594 260.795 892.594 260.795C893.581 263.386 894.127 266.124 894.209 268.896C894.966 268.59 895.665 268.156 896.276 267.614C896.276 267.614 897.114 264.555 894.824 258.634Z" fill="url(#paint53_linear)"/>
</g>
<g id="Group_38">
<path id="Vector_82" style="mix-blend-mode:multiply" opacity="0.8" d="M892.551 260.795L851.374 289.523C852.519 291.351 852.485 293.633 851.46 294.256C851.772 294.257 852.082 294.214 852.382 294.128C854.091 293.658 885.707 274.151 894.2 268.93C894.112 266.145 893.554 263.395 892.551 260.795V260.795Z" fill="url(#paint54_linear)"/>
</g>
<g id="Group_39">
<path id="Vector_83" opacity="0.4" d="M868.686 242.527C868.686 242.527 868.327 240.032 869.839 239.963C868.849 239.982 867.861 240.07 866.883 240.228C866.519 240.483 866.232 240.833 866.055 241.24C865.877 241.647 865.814 242.095 865.874 242.535C866.811 242.479 867.749 242.479 868.686 242.535V242.527Z" fill="url(#paint55_radial)"/>
</g>
<g id="Group_40">
<path id="Vector_84" style="mix-blend-mode:overlay" opacity="0.5" d="M868.686 242.527C867.749 242.47 866.811 242.47 865.874 242.527L846.128 287.814C846.357 287.497 846.681 287.262 847.052 287.142C847.424 287.022 847.825 287.024 848.195 287.147L848.375 286.848L868.686 242.527Z" fill="url(#paint56_linear)"/>
</g>
<g id="Group_41">
<path id="Vector_85" style="mix-blend-mode:overlay" opacity="0.5" d="M878.563 244.68L879.418 241.536L1037.45 79.6139C1036.7 79.2433 1035.91 78.9568 1035.09 78.7594C1033.85 78.5061 1032.6 78.3207 1031.34 78.204L876.128 240.579L875.197 243.527L849.827 287.882C850.351 288.233 850.803 288.679 851.161 289.198V289.198L878.563 244.68Z" fill="url(#paint57_linear)"/>
</g>
<path id="Vector_86" d="M889.005 216.542L884.647 221.139C891.004 221.43 910.153 224.369 914.724 248.44L918.253 244.731C914.22 220.96 896.259 217.115 889.005 216.542Z" fill="black"/>
<path id="Vector_87" d="M991.789 108.196L987.474 112.742C992.763 112.93 1013.35 115.305 1017.85 140.204L1021.42 136.453C1017.43 111.964 998.232 108.614 991.789 108.196Z" fill="black"/>
<g id="Group_42" opacity="0.6">
<g id="Vector_88" style="mix-blend-mode:screen" opacity="0.6">
<path d="M870.847 240.006C874.646 239.957 878.398 240.84 881.775 242.579C885.152 244.317 888.052 246.858 890.218 249.978C890.218 249.978 883.417 240.468 870.847 240.006Z" fill="#E4E3E4"/>
</g>
<g id="Vector_89" style="mix-blend-mode:screen" opacity="0.6">
<path d="M872.317 242.911C872.317 242.911 882.434 244.065 887.544 251.661C887.544 251.661 884.707 246.056 872.317 242.911Z" fill="#E4E3E4"/>
</g>
</g>
<g id="Group_43">
<path id="Vector_90" style="mix-blend-mode:screen" opacity="0.5" d="M888.364 220.695C892.194 220.799 895.951 221.759 899.361 223.506C899.361 223.506 901.583 225.309 903.932 222.481C906.282 219.653 1003.43 119.885 1003.43 119.885C1003.43 119.885 1007.84 116.929 1005.43 113.904C1003.03 110.879 994.233 108.777 991.609 110.802C988.986 112.827 889.372 218.157 889.372 218.157C889.372 218.157 886.57 220.576 888.364 220.695Z" fill="url(#paint58_linear)"/>
</g>
<path id="Vector_91" style="mix-blend-mode:multiply" d="M914.272 232.581C916.24 236.392 917.584 240.494 918.253 244.731L1017.85 140.204C1017.09 135.604 1015.48 131.185 1013.11 127.174L914.272 232.581Z" fill="url(#paint59_linear)"/>
</g>
<g id="pinkcrayon">
<path id="Vector_92" d="M662.819 370.697C666.236 369.911 666.544 372.013 666.544 372.013C666.051 373.382 665.24 374.615 664.177 375.61C663.426 376.195 662.537 376.576 661.595 376.717C660.654 376.857 659.692 376.753 658.803 376.413C657.752 375.106 659.58 371.483 662.819 370.697Z" fill="url(#paint60_linear)"/>
<g id="Group_44" style="mix-blend-mode:multiply">
<g id="Group_45" style="mix-blend-mode:multiply">
<path id="Vector_93" style="mix-blend-mode:multiply" d="M664.177 375.644C663.426 376.229 662.537 376.61 661.595 376.751C660.654 376.891 659.692 376.787 658.803 376.448C657.948 375.414 658.888 373.03 660.802 371.68C660.906 372.602 661.282 373.471 661.884 374.178C662.485 374.884 663.284 375.395 664.177 375.644V375.644Z" fill="url(#paint61_linear)"/>
</g>
</g>
<g id="Vector_94" style="mix-blend-mode:screen" opacity="0.6">
<path d="M666.484 371.842C666.484 371.842 665.775 369.766 662.255 370.902C662.255 370.902 664.818 370.056 666.484 371.842Z" fill="#F8F8F7"/>
</g>
<path id="Vector_95" d="M536.34 102.139C539.288 98.6779 542.603 95.636 546.927 94.0211C549.644 93.0043 553.763 91.8764 556.668 92.3122C556.668 92.3122 568.921 94.0724 572.629 100.344L663.724 316.815C663.724 316.815 649.805 308.271 636.381 318.011C624.675 326.556 624.111 333.033 624.111 333.033C624.111 333.033 532.076 115.648 531.965 115.374C530.051 110.854 533.597 105.36 536.34 102.139Z" fill="url(#paint62_linear)"/>
<path id="Vector_96" d="M636.373 318.01C649.805 308.244 663.716 316.814 663.716 316.814C663.984 317.205 664.14 317.663 664.164 318.136C664.188 318.61 664.08 319.081 663.852 319.497C663.049 320.873 625.683 335.091 625.683 335.091C625.043 334.498 624.506 333.802 624.094 333.032C624.094 333.032 624.667 326.521 636.373 318.01Z" fill="url(#paint63_radial)"/>
<path id="Vector_97" d="M634.083 331.87C629.204 333.758 625.692 335.091 625.692 335.091C625.051 334.498 624.514 333.802 624.103 333.032C624.103 333.032 624.487 328.674 631.024 322.437C632.714 325.323 633.757 328.541 634.083 331.87V331.87Z" fill="url(#paint64_linear)"/>
<path id="Vector_98" d="M639.423 320.019C650.89 313.072 663.852 319.497 663.861 319.497L666.544 372.047C666.544 372.047 666.202 369.945 662.819 370.731C659.58 371.483 657.752 375.106 658.803 376.448C658.498 376.33 658.21 376.172 657.948 375.978C656.444 374.867 632.186 343.508 625.717 335.091C626.529 332.904 629.853 325.82 639.423 320.019Z" fill="url(#paint65_linear)"/>
<g id="Group_46">
<path id="Vector_99" opacity="0.4" d="M660.836 315.422L567.169 95.6351C569.387 96.6659 571.276 98.2893 572.629 100.326L663.724 316.814C662.806 316.293 661.852 315.836 660.87 315.447L660.836 315.422Z" fill="url(#paint66_linear)"/>
</g>
<g id="Group_47">
<path id="Vector_100" style="mix-blend-mode:multiply" opacity="0.8" d="M628.93 324.598C624.436 329.648 624.111 333.024 624.111 333.024C624.111 333.024 532.076 115.647 531.965 115.373C530.051 110.853 533.597 105.359 536.34 102.138L628.93 324.598Z" fill="url(#paint67_linear)"/>
</g>
<g id="Group_48">
<path id="Vector_101" style="mix-blend-mode:multiply" opacity="0.6" d="M628.922 324.607C628.7 327.751 630.34 327.606 630.34 327.606C628.383 329.82 626.811 332.348 625.692 335.083C625.051 334.489 624.514 333.793 624.103 333.024C624.103 333.024 624.427 329.683 628.922 324.607Z" fill="url(#paint68_linear)"/>
</g>
<g id="Group_49">
<path id="Vector_102" style="mix-blend-mode:multiply" d="M630.34 327.615L660.674 371.757C658.845 373.149 658.008 375.439 658.803 376.448C658.498 376.33 658.21 376.172 657.948 375.978C656.444 374.867 632.186 343.508 625.717 335.091C626.829 332.358 628.392 329.831 630.34 327.615Z" fill="url(#paint69_linear)"/>
</g>
<g id="Group_50">
<path id="Vector_103" opacity="0.4" d="M661.067 318.395C661.067 318.395 662.366 316.054 660.87 315.447C661.852 315.836 662.806 316.293 663.724 316.814C663.993 317.205 664.148 317.663 664.172 318.136C664.196 318.61 664.089 319.081 663.861 319.497C662.951 319.081 662.018 318.716 661.067 318.404V318.395Z" fill="url(#paint70_radial)"/>
</g>
<g id="Group_51">
<path id="Vector_104" opacity="0.4" d="M661.067 318.404C662.018 318.716 662.951 319.081 663.861 319.497L666.544 372.047C666.435 371.645 666.201 371.288 665.875 371.028C665.549 370.768 665.149 370.62 664.733 370.603L664.664 370.227L661.067 318.404Z" fill="url(#paint71_linear)"/>
</g>
<g id="Group_52">
<path id="Vector_105" style="mix-blend-mode:overlay" opacity="0.5" d="M650.403 316.806L650.719 313.337L553.976 92.277C554.87 92.1698 555.774 92.1698 556.668 92.277C557.998 92.4899 559.316 92.7752 560.616 93.1315L654.393 313.584L654.197 316.874L662.819 370.706C662.161 370.873 661.54 371.162 660.99 371.56V371.56L650.403 316.806Z" fill="url(#paint72_linear)"/>
</g>
<path id="Vector_106" d="M650.583 284.806L653.197 291.026C646.746 288.924 626.529 284.644 612.909 306.954L610.781 301.921C623.761 279.722 643.132 282.687 650.583 284.806Z" fill="black"/>
<path id="Vector_107" d="M591.402 144.16L650.583 284.806C643.132 282.644 623.761 279.679 610.781 301.895C595.119 264.888 568.912 202.888 550.755 160.105C564.64 136.949 586.053 142.349 591.402 144.16Z" fill="url(#paint73_linear)"/>
<g id="Group_53">
<path id="Vector_108" style="mix-blend-mode:screen" opacity="0.5" d="M650.736 289.189C650.736 289.189 644.755 286.959 638.774 287.856C638.774 287.856 635.877 288.813 634.595 285.105C633.314 281.397 573.928 145.288 573.928 145.288C573.928 145.288 570.638 140.666 574.176 138.564C577.713 136.462 587.283 137.709 589.138 140.674C590.992 143.639 650.736 286.284 650.736 286.284C650.736 286.284 652.625 289.753 650.736 289.189Z" fill="url(#paint74_linear)"/>
</g>
<path id="Vector_109" d="M588.813 138L591.376 144.16C586.027 142.349 564.614 136.949 550.729 160.13C549.995 158.421 549.277 156.713 548.576 155.004C561.803 132.104 582.217 135.992 588.813 138Z" fill="black"/>
<g id="Group_54" opacity="0.6">
<g id="Vector_110" style="mix-blend-mode:screen" opacity="0.6">
<path d="M659.871 315.045C656.1 313.571 652.025 313.044 648.004 313.508C643.982 313.973 640.135 315.416 636.8 317.711C636.8 317.711 647.148 310.773 659.871 315.045Z" fill="#F8F8F7"/>
</g>
<g id="Vector_111" style="mix-blend-mode:screen" opacity="0.6">
<path d="M657.307 317.395C657.307 317.395 646.772 314.738 638.816 320.394C638.816 320.394 643.764 315.866 657.307 317.395Z" fill="#F8F8F7"/>
</g>
</g>
</g>
</g>
</g>
<defs>
<linearGradient id="paint0_linear" x1="674.933" y1="663.87" x2="677.496" y2="659.082" gradientUnits="userSpaceOnUse">
<stop stop-color="#5C0000"/>
<stop offset="0.65" stop-color="#BD0000"/>
<stop offset="0.91" stop-color="#EF0000"/>
</linearGradient>
<linearGradient id="paint1_linear" x1="18363.8" y1="-7773.28" x2="18287.9" y2="-7911.02" gradientUnits="userSpaceOnUse">
<stop stop-color="#5C0000"/>
<stop offset="0.65" stop-color="#BD0000"/>
<stop offset="0.91" stop-color="#EF0000"/>
</linearGradient>
<linearGradient id="paint2_linear" x1="2357.24" y1="3009.96" x2="2361.6" y2="3009.96" gradientUnits="userSpaceOnUse">
<stop stop-color="#5C0000"/>
<stop offset="0.65" stop-color="#BD0000"/>
<stop offset="0.91" stop-color="#EF0000"/>
</linearGradient>
<linearGradient id="paint3_linear" x1="899096" y1="-107060" x2="898618" y2="-109927" gradientUnits="userSpaceOnUse">
<stop stop-color="#5C0000"/>
<stop offset="0.65" stop-color="#BD0000"/>
<stop offset="0.91" stop-color="#EF0000"/>
</linearGradient>
<linearGradient id="paint4_linear" x1="50531.9" y1="-67501.8" x2="50888.3" y2="-67501.8" gradientUnits="userSpaceOnUse">
<stop stop-color="#5C0000"/>
<stop offset="0.65" stop-color="#BD0000"/>
<stop offset="0.91" stop-color="#EF0000"/>
</linearGradient>
<linearGradient id="paint5_linear" x1="37051.6" y1="-15724.8" x2="37135.3" y2="-15724.8" gradientUnits="userSpaceOnUse">
<stop stop-color="#5C0000"/>
<stop offset="0.65" stop-color="#BD0000"/>
<stop offset="0.91" stop-color="#EF0000"/>
</linearGradient>
<linearGradient id="paint6_linear" x1="209611" y1="-63681.5" x2="208708" y2="-65230.8" gradientUnits="userSpaceOnUse">
<stop stop-color="#5C0000"/>
<stop offset="0.65" stop-color="#BD0000"/>
<stop offset="0.91" stop-color="#EF0000"/>
</linearGradient>
<linearGradient id="paint7_linear" x1="852759" y1="-42996.7" x2="852775" y2="-42786.4" gradientUnits="userSpaceOnUse">
<stop stop-color="#5C0000"/>
<stop offset="0.65" stop-color="#BD0000"/>
<stop offset="0.91" stop-color="#EF0000"/>
</linearGradient>
<linearGradient id="paint8_linear" x1="883713" y1="-48446.8" x2="883646" y2="-49236.5" gradientUnits="userSpaceOnUse">
<stop stop-color="#5C0000"/>
<stop offset="0.65" stop-color="#BD0000"/>
<stop offset="0.91" stop-color="#EF0000"/>
</linearGradient>
<linearGradient id="paint9_linear" x1="32152.6" y1="-11377" x2="32181.1" y2="-11377" gradientUnits="userSpaceOnUse">
<stop stop-color="#5C0000"/>
<stop offset="0.65" stop-color="#BD0000"/>
<stop offset="0.91" stop-color="#EF0000"/>
</linearGradient>
<linearGradient id="paint10_linear" x1="191372" y1="-34430.7" x2="191320" y2="-34757.3" gradientUnits="userSpaceOnUse">
<stop stop-color="#5C0000"/>
<stop offset="0.65" stop-color="#BD0000"/>
<stop offset="0.91" stop-color="#EF0000"/>
</linearGradient>
<linearGradient id="paint11_linear" x1="17097.1" y1="-4372.53" x2="17118" y2="-4372.53" gradientUnits="userSpaceOnUse">
<stop stop-color="#5C0000"/>
<stop offset="0.65" stop-color="#BD0000"/>
<stop offset="0.91" stop-color="#EF0000"/>
</linearGradient>
<linearGradient id="paint12_linear" x1="182843" y1="-22283.6" x2="182819" y2="-22347.2" gradientUnits="userSpaceOnUse">
<stop stop-color="#5C0000"/>
<stop offset="0.65" stop-color="#BD0000"/>
<stop offset="0.91" stop-color="#EF0000"/>
</linearGradient>
<linearGradient id="paint13_linear" x1="1.05384e+06" y1="-48908.6" x2="1.05402e+06" y2="-46609.2" gradientUnits="userSpaceOnUse">
<stop stop-color="#5C0000"/>
<stop offset="0.65" stop-color="#BD0000"/>
<stop offset="0.91" stop-color="#EF0000"/>
</linearGradient>
<linearGradient id="paint14_linear" x1="583409" y1="-93985.2" x2="582383" y2="-98125.3" gradientUnits="userSpaceOnUse">
<stop stop-color="#5C0000"/>
<stop offset="0.65" stop-color="#BD0000"/>
<stop offset="0.91" stop-color="#EF0000"/>
</linearGradient>
<linearGradient id="paint15_linear" x1="4580.29" y1="14942.2" x2="4608.01" y2="14942.2" gradientUnits="userSpaceOnUse">
<stop stop-color="#5C0000"/>
<stop offset="0.65" stop-color="#BD0000"/>
<stop offset="0.91" stop-color="#EF0000"/>
</linearGradient>
<linearGradient id="paint16_linear" x1="3194.4" y1="12290.4" x2="3206.01" y2="12290.4" gradientUnits="userSpaceOnUse">
<stop stop-color="#5C0000"/>
<stop offset="0.65" stop-color="#BD0000"/>
<stop offset="0.91" stop-color="#EF0000"/>
</linearGradient>
<linearGradient id="paint17_linear" x1="592378" y1="-52584.5" x2="592495" y2="-51697.8" gradientUnits="userSpaceOnUse">
<stop stop-color="#5C0000"/>
<stop offset="0.65" stop-color="#BD0000"/>
<stop offset="0.91" stop-color="#EF0000"/>
</linearGradient>
<linearGradient id="paint18_linear" x1="778.283" y1="589.154" x2="776.336" y2="574.84" gradientUnits="userSpaceOnUse">
<stop stop-color="#EB5B1E"/>
<stop offset="0.36" stop-color="#F59D17"/>
<stop offset="0.68" stop-color="#FCC40D"/>
<stop offset="0.93" stop-color="#FBBB10"/>
</linearGradient>
<linearGradient id="paint19_linear" x1="779.074" y1="584.69" x2="776.338" y2="577.726" gradientUnits="userSpaceOnUse">
<stop offset="0.37" stop-color="#C55E4A"/>
<stop offset="0.9" stop-color="white"/>
</linearGradient>
<linearGradient id="paint20_linear" x1="939.09" y1="506.781" x2="920.564" y2="470.177" gradientUnits="userSpaceOnUse">
<stop stop-color="#EB5B1E"/>
<stop offset="0.36" stop-color="#F59D17"/>
<stop offset="0.93" stop-color="#FBBB10"/>
</linearGradient>
<linearGradient id="paint21_linear" x1="62245.4" y1="-63788.3" x2="62643" y2="-64440.4" gradientUnits="userSpaceOnUse">
<stop stop-color="#EB5B1E"/>
<stop offset="0.36" stop-color="#F59D17"/>
<stop offset="0.68" stop-color="#FCC40D"/>
<stop offset="0.93" stop-color="#FBBB10"/>
</linearGradient>
<linearGradient id="paint22_linear" x1="144410" y1="-78265" x2="143225" y2="-80065" gradientUnits="userSpaceOnUse">
<stop stop-color="#EB5B1E"/>
<stop offset="0.36" stop-color="#F59D17"/>
<stop offset="0.68" stop-color="#FCC40D"/>
<stop offset="0.93" stop-color="#FBBB10"/>
</linearGradient>
<linearGradient id="paint23_linear" x1="918.023" y1="476.156" x2="921.495" y2="482.55" gradientUnits="userSpaceOnUse">
<stop stop-color="#EBEBEB"/>
<stop offset="0.9" stop-color="#EBEBEB"/>
</linearGradient>
<linearGradient id="paint24_linear" x1="579844" y1="-214837" x2="578471" y2="-218406" gradientUnits="userSpaceOnUse">
<stop offset="0.37" stop-color="#C55E4A"/>
<stop offset="0.9" stop-color="white"/>
</linearGradient>
<linearGradient id="paint25_linear" x1="11529.6" y1="-16319.9" x2="11501.9" y2="-16560.6" gradientUnits="userSpaceOnUse">
<stop offset="0.37" stop-color="#C55E4A"/>
<stop offset="0.9" stop-color="white"/>
</linearGradient>
<linearGradient id="paint26_linear" x1="135852" y1="-32726.3" x2="135822" y2="-32951.3" gradientUnits="userSpaceOnUse">
<stop offset="0.37" stop-color="#C55E4A"/>
<stop offset="0.9" stop-color="white"/>
</linearGradient>
<radialGradient id="paint27_radial" cx="0" cy="0" r="1" gradientUnits="userSpaceOnUse" gradientTransform="translate(814.33 539.811) rotate(5.73009) scale(7.5791 7.57921)">
<stop offset="0.28" stop-color="#EBEBEB"/>
<stop offset="0.9" stop-color="#EBEBEB"/>
</radialGradient>
<linearGradient id="paint28_linear" x1="795.256" y1="557.279" x2="793.257" y2="555.55" gradientUnits="userSpaceOnUse">
<stop offset="0.1" stop-color="#EBEBEB"/>
<stop offset="0.91" stop-color="#EBEBEB"/>
</linearGradient>
<linearGradient id="paint29_linear" x1="687640" y1="-272308" x2="693374" y2="-259797" gradientUnits="userSpaceOnUse">
<stop stop-color="#EBEBEB"/>
<stop offset="0.9" stop-color="#EBEBEB"/>
</linearGradient>
<linearGradient id="paint30_linear" x1="934.535" y1="518.458" x2="905.938" y2="467.189" gradientUnits="userSpaceOnUse">
<stop stop-color="#B94B16"/>
<stop offset="0.45" stop-color="#F07E20"/>
<stop offset="0.8" stop-color="#FFE100"/>
<stop offset="0.93" stop-color="#FBBB10"/>
</linearGradient>
<linearGradient id="paint31_linear" x1="413842" y1="-150671" x2="414843" y2="-148004" gradientUnits="userSpaceOnUse">
<stop stop-color="#EBEBEB"/>
<stop offset="0.9" stop-color="#EBEBEB"/>
</linearGradient>
<linearGradient id="paint32_linear" x1="933.32" y1="517.555" x2="925.028" y2="502.802" gradientUnits="userSpaceOnUse">
<stop offset="0.03" stop-color="#FFDE54"/>
<stop offset="0.89" stop-color="white"/>
</linearGradient>
<linearGradient id="paint33_linear" x1="710.831" y1="573.172" x2="716.146" y2="570.967" gradientUnits="userSpaceOnUse">
<stop offset="0.01" stop-color="#F6E700"/>
<stop offset="0.77" stop-color="#E8C926"/>
</linearGradient>
<linearGradient id="paint34_linear" x1="568.563" y1="489.922" x2="589.233" y2="457.572" gradientUnits="userSpaceOnUse">
<stop offset="0.01" stop-color="#F6D600"/>
<stop offset="0.52" stop-color="#EBEA8F"/>
<stop offset="0.82" stop-color="#F6F7E0"/>
<stop offset="0.99" stop-color="#FFF59B"/>
</linearGradient>
<linearGradient id="paint35_linear" x1="673.209" y1="540.42" x2="671.406" y2="523.057" gradientUnits="userSpaceOnUse">
<stop offset="0.01" stop-color="#F2D71A"/>
<stop offset="0.8" stop-color="#EBEA8F"/>
</linearGradient>
<linearGradient id="paint36_linear" x1="681.745" y1="568.532" x2="702.705" y2="541.557" gradientUnits="userSpaceOnUse">
<stop stop-color="#F6D800"/>
<stop offset="0.52" stop-color="#FFF48F"/>
<stop offset="0.99" stop-color="#E7F0D6"/>
</linearGradient>
<linearGradient id="paint37_linear" x1="591.829" y1="462.202" x2="588.018" y2="467.807" gradientUnits="userSpaceOnUse">
<stop offset="0.1" stop-color="#EBEBEB"/>
<stop offset="0.72" stop-color="#EBEBEB"/>
</linearGradient>
<linearGradient id="paint38_linear" x1="561.248" y1="502.542" x2="573.433" y2="484.205" gradientUnits="userSpaceOnUse">
<stop offset="0.37" stop-color="#D0B861"/>
<stop offset="0.9" stop-color="white"/>
</linearGradient>
<linearGradient id="paint39_linear" x1="8658.06" y1="-24196.7" x2="8642.08" y2="-24303.6" gradientUnits="userSpaceOnUse">
<stop offset="0.37" stop-color="#D0B861"/>
<stop offset="0.9" stop-color="white"/>
</linearGradient>
<linearGradient id="paint40_linear" x1="119669" y1="-58507.8" x2="119591" y2="-58912.4" gradientUnits="userSpaceOnUse">
<stop offset="0.37" stop-color="#D0B861"/>
<stop offset="0.9" stop-color="white"/>
</linearGradient>
<radialGradient id="paint41_radial" cx="0" cy="0" r="1" gradientUnits="userSpaceOnUse" gradientTransform="translate(-9040.98 -3450.16) rotate(180) scale(36.808 21.6308)">
<stop offset="0.28" stop-color="#EBEBEB"/>
<stop offset="0.9" stop-color="#EBEBEB"/>
</radialGradient>
<linearGradient id="paint42_linear" x1="-77081.5" y1="-97051.8" x2="-76979.4" y2="-97109.6" gradientUnits="userSpaceOnUse">
<stop stop-color="#EBEBEB"/>
<stop offset="0.9" stop-color="#EBEBEB"/>
</linearGradient>
<linearGradient id="paint43_linear" x1="-586672" y1="-432667" x2="-593281" y2="-421031" gradientUnits="userSpaceOnUse">
<stop stop-color="#EBEBEB"/>
<stop offset="0.9" stop-color="#EBEBEB"/>
</linearGradient>
<linearGradient id="paint44_linear" x1="572.373" y1="500.269" x2="608.406" y2="448.573" gradientUnits="userSpaceOnUse">
<stop offset="0.01" stop-color="#E0C600"/>
<stop offset="0.51" stop-color="#FFF591"/>
<stop offset="1" stop-color="#EDE65C"/>
</linearGradient>
<linearGradient id="paint45_linear" x1="-356964" y1="-235692" x2="-358117" y2="-233152" gradientUnits="userSpaceOnUse">
<stop stop-color="#EBEBEB"/>
<stop offset="0.9" stop-color="#EBEBEB"/>
</linearGradient>
<linearGradient id="paint46_linear" x1="-316296" y1="-238911" x2="-315405" y2="-240551" gradientUnits="userSpaceOnUse">
<stop offset="0.03" stop-color="#FFDE54"/>
<stop offset="0.89" stop-color="white"/>
</linearGradient>
<linearGradient id="paint47_linear" x1="851.257" y1="291.009" x2="845.587" y2="290.028" gradientUnits="userSpaceOnUse">
<stop offset="0.01" stop-color="#008800"/>
<stop offset="0.51" stop-color="#00B200"/>
<stop offset="1" stop-color="#00C900"/>
</linearGradient>
<linearGradient id="paint48_linear" x1="516282" y1="-512411" x2="511641" y2="-519470" gradientUnits="userSpaceOnUse">
<stop offset="0.01" stop-color="#008800"/>
<stop offset="0.51" stop-color="#00B200"/>
<stop offset="1" stop-color="#00C900"/>
</linearGradient>
<linearGradient id="paint49_linear" x1="82667.9" y1="-76154.6" x2="82725.6" y2="-76742.7" gradientUnits="userSpaceOnUse">
<stop offset="0.01" stop-color="#008800"/>
<stop offset="0.51" stop-color="#00B200"/>
<stop offset="1" stop-color="#00C900"/>
</linearGradient>
<linearGradient id="paint50_linear" x1="128983" y1="-134772" x2="127694" y2="-136314" gradientUnits="userSpaceOnUse">
<stop offset="0.01" stop-color="#008800"/>
<stop offset="0.51" stop-color="#00B200"/>
<stop offset="1" stop-color="#00C900"/>
</linearGradient>
<linearGradient id="paint51_linear" x1="329270" y1="-525978" x2="330211" y2="-525120" gradientUnits="userSpaceOnUse">
<stop offset="0.1" stop-color="#EBEBEB"/>
<stop offset="0.72" stop-color="#EBEBEB"/>
</linearGradient>
<linearGradient id="paint52_linear" x1="325394" y1="-548678" x2="322129" y2="-551504" gradientUnits="userSpaceOnUse">
<stop offset="0.37" stop-color="#D0B861"/>
<stop offset="0.9" stop-color="white"/>
</linearGradient>
<linearGradient id="paint53_linear" x1="4296.74" y1="-25540.9" x2="4258.15" y2="-25646.7" gradientUnits="userSpaceOnUse">
<stop offset="0.37" stop-color="#D0B861"/>
<stop offset="0.9" stop-color="white"/>
</linearGradient>
<linearGradient id="paint54_linear" x1="92179.6" y1="-107168" x2="91899.8" y2="-107662" gradientUnits="userSpaceOnUse">
<stop offset="0.37" stop-color="#D0B861"/>
<stop offset="0.9" stop-color="white"/>
</linearGradient>
<radialGradient id="paint55_radial" cx="0" cy="0" r="1" gradientUnits="userSpaceOnUse" gradientTransform="translate(8994.54 -6072.15) rotate(-12.7099) scale(33.0915 21.3472)">
<stop offset="0.28" stop-color="#EBEBEB"/>
<stop offset="0.9" stop-color="#EBEBEB"/>
</radialGradient>
<linearGradient id="paint56_linear" x1="32100.8" y1="-126594" x2="32011.5" y2="-126604" gradientUnits="userSpaceOnUse">
<stop stop-color="#EBEBEB"/>
<stop offset="0.9" stop-color="#EBEBEB"/>
</linearGradient>
<linearGradient id="paint57_linear" x1="375347" y1="-672626" x2="387207" y2="-664004" gradientUnits="userSpaceOnUse">
<stop stop-color="#EBEBEB"/>
<stop offset="0.9" stop-color="#EBEBEB"/>
</linearGradient>
<linearGradient id="paint58_linear" x1="250445" y1="-373675" x2="252757" y2="-371469" gradientUnits="userSpaceOnUse">
<stop stop-color="#EBEBEB"/>
<stop offset="0.9" stop-color="#EBEBEB"/>
</linearGradient>
<linearGradient id="paint59_linear" x1="212754" y1="-369376" x2="211131" y2="-370678" gradientUnits="userSpaceOnUse">
<stop offset="0.03" stop-color="#FFDE54"/>
<stop offset="0.89" stop-color="white"/>
</linearGradient>
<linearGradient id="paint60_linear" x1="677.8" y1="381.686" x2="683.795" y2="382.852" gradientUnits="userSpaceOnUse">
<stop stop-color="#7F0078"/>
<stop offset="0.65" stop-color="#C30078"/>
<stop offset="0.91" stop-color="#D40078"/>
</linearGradient>
<linearGradient id="paint61_linear" x1="24548" y1="-8782.92" x2="24465.6" y2="-8958.31" gradientUnits="userSpaceOnUse">
<stop stop-color="#7F0078"/>
<stop offset="0.65" stop-color="#C30078"/>
<stop offset="0.91" stop-color="#D40078"/>
</linearGradient>
<linearGradient id="paint62_linear" x1="578586" y1="-458221" x2="571815" y2="-464044" gradientUnits="userSpaceOnUse">
<stop stop-color="#7F0078"/>
<stop offset="0.65" stop-color="#C30078"/>
<stop offset="0.91" stop-color="#D40078"/>
</linearGradient>
<radialGradient id="paint63_radial" cx="0" cy="0" r="1" gradientUnits="userSpaceOnUse" gradientTransform="translate(-116802 -123129) rotate(-146.47) scale(742.545 403.115)">
<stop stop-color="#7F0078"/>
<stop offset="0.65" stop-color="#C30078"/>
<stop offset="0.91" stop-color="#D40078"/>
</radialGradient>
<linearGradient id="paint64_linear" x1="42950.6" y1="-22792" x2="43051.4" y2="-22792" gradientUnits="userSpaceOnUse">
<stop stop-color="#7F0078"/>
<stop offset="0.65" stop-color="#C30078"/>
<stop offset="0.91" stop-color="#D40078"/>
</linearGradient>
<linearGradient id="paint65_linear" x1="173337" y1="-107338" x2="171478" y2="-108827" gradientUnits="userSpaceOnUse">
<stop stop-color="#7F0078"/>
<stop offset="0.65" stop-color="#C30078"/>
<stop offset="0.91" stop-color="#D40078"/>
</linearGradient>
<linearGradient id="paint66_linear" x1="637.544" y1="213.654" x2="630.873" y2="216.388" gradientUnits="userSpaceOnUse">
<stop offset="0.1" stop-color="white"/>
<stop offset="0.72" stop-color="white"/>
</linearGradient>
<linearGradient id="paint67_linear" x1="427147" y1="-436940" x2="423721" y2="-439013" gradientUnits="userSpaceOnUse">
<stop stop-color="#7F0078"/>
<stop offset="0.65" stop-color="#C30078"/>
<stop offset="0.91" stop-color="#D40078"/>
</linearGradient>
<linearGradient id="paint68_linear" x1="27116.3" y1="-18791.8" x2="27141.1" y2="-18791.8" gradientUnits="userSpaceOnUse">
<stop stop-color="#7F0078"/>
<stop offset="0.65" stop-color="#C30078"/>
<stop offset="0.91" stop-color="#D40078"/>
</linearGradient>
<linearGradient id="paint69_linear" x1="148217" y1="-87720" x2="147831" y2="-88432.1" gradientUnits="userSpaceOnUse">
<stop stop-color="#7F0078"/>
<stop offset="0.65" stop-color="#C30078"/>
<stop offset="0.91" stop-color="#D40078"/>
</linearGradient>
<radialGradient id="paint70_radial" cx="0" cy="0" r="1" gradientUnits="userSpaceOnUse" gradientTransform="translate(675.882 328.394) rotate(-146.47) scale(7.52098)">
<stop offset="0.28" stop-color="white"/>
<stop offset="0.9" stop-color="white"/>
</radialGradient>
<linearGradient id="paint71_linear" x1="36964" y1="-90811.7" x2="36985.3" y2="-90799.7" gradientUnits="userSpaceOnUse">
<stop offset="0.28" stop-color="white"/>
<stop offset="0.9" stop-color="white"/>
</linearGradient>
<linearGradient id="paint72_linear" x1="656.444" y1="230.506" x2="593.688" y2="251.495" gradientUnits="userSpaceOnUse">
<stop stop-color="white"/>
<stop offset="0.9" stop-color="white"/>
</linearGradient>
<linearGradient id="paint73_linear" x1="436383" y1="-301258" x2="428776" y2="-308084" gradientUnits="userSpaceOnUse">
<stop stop-color="#7F0078"/>
<stop offset="0.65" stop-color="#C30078"/>
<stop offset="0.91" stop-color="#D40078"/>
</linearGradient>
<linearGradient id="paint74_linear" x1="342592" y1="-294867" x2="345211" y2="-292893" gradientUnits="userSpaceOnUse">
<stop stop-color="white"/>
<stop offset="0.9" stop-color="white"/>
</linearGradient>
</defs>
</svg>
