<svg width="414" height="896" viewBox="0 0 414 896" fill="none" xmlns="http://www.w3.org/2000/svg">
<g id="handwithcrayonmobile">
<g id="hand">
<path id="Vector" d="M105.561 374.321C114.498 378.018 116.404 389.605 117.007 399.259C117.594 408.742 118.181 418.225 118.768 427.711C119.098 432.971 119.455 438.36 121.572 443.185C123.69 448.009 127.942 452.513 133.203 452.79C155.747 453.97 188.777 399.642 193.954 392.704C201.583 382.5 207.09 370.904 212.549 359.397L225.108 332.9C228.406 325.94 234.076 317.73 241.586 319.425C246.164 320.459 249.158 325.187 249.655 329.854C250.153 334.52 248.682 339.156 247.155 343.593C239.904 364.505 231.065 384.832 220.715 404.397C219.315 407.038 217.831 410.062 216.247 413.258C223.545 405.911 230.36 399.611 232.975 396.12C240.604 385.916 246.111 374.321 251.57 362.813L264.13 336.312C267.427 329.356 273.097 321.146 280.607 322.841C285.186 323.875 288.183 328.603 288.677 333.27C289.17 337.936 287.704 342.572 286.176 347.009C278.925 367.921 270.086 388.248 259.736 407.813C254.572 417.612 248.29 432.201 239.746 443.625C247.41 437.356 254.401 432.06 257.249 428.957C265.855 419.567 272.498 408.579 279.075 397.67L294.223 372.577C298.185 365.974 304.661 358.38 311.969 360.819C316.419 362.307 318.929 367.308 318.955 372.005C318.981 376.702 317.053 381.162 315.09 385.423C305.845 405.519 274.299 462.462 267.616 471.385C268.259 472.16 267 470.589 267.616 471.385C273.181 466.917 277.873 463.193 280.079 460.789C288.69 451.399 295.328 440.411 301.91 429.507L317.058 404.414C321.02 397.811 327.495 390.221 334.799 392.66C339.249 394.144 341.759 399.149 341.785 403.842C341.811 408.535 339.883 412.999 337.92 417.26C328.675 437.356 314.236 471.183 302.539 489.958C264.486 551.013 197.674 619.107 186.303 629.06C165.198 647.549 93.6489 692.012 68.8247 671.599C28.3242 638.287 76.0796 542.653 81.9125 541.372C77.8185 537.243 74.9438 531.859 73.02 526.316C68.4725 513.207 68.6178 498.974 69.419 485.12C70.9554 458.196 74.7017 431.453 78.4216 404.74C79.5177 396.913 80.7239 388.782 85.1526 382.236C89.5812 375.69 98.258 371.296 105.561 374.321Z" fill="#B59674"/>
<path id="Vector_2" d="M233.886 330.241L221.322 356.738C215.868 368.25 210.356 379.845 202.732 390.05C197.586 396.93 165.057 450.413 142.531 450.145C163.38 438.188 187.139 399.33 191.475 393.541C199.104 383.336 204.612 371.741 210.066 360.229L222.625 333.732C225.927 326.776 231.593 318.566 239.107 320.261C239.483 320.351 239.852 320.466 240.212 320.605C237.597 323.281 235.467 326.904 233.886 330.241Z" fill="#887157"/>
<path id="Vector_3" d="M303.001 369.91L287.853 395.002C281.271 405.899 273.979 416.351 266.023 426.289C245.821 451.544 240.049 447.719 236.431 445.329C239.763 440.865 242.154 443.229 257.562 426.588C264.847 417.942 270.768 408.187 276.601 398.489L291.749 373.396C295.711 366.793 302.178 359.208 309.477 361.633C306.924 363.975 304.723 367.035 303.001 369.91Z" fill="#887157"/>
<path id="Vector_4" d="M272.908 333.67C268.723 342.507 264.535 351.339 260.344 360.167C254.889 371.679 249.382 383.275 241.753 393.479C239.112 396.979 218.452 420.997 214.226 414.566C215.815 411.365 221.397 407.166 223.559 405.083C228.344 400.461 234.014 392.986 236.171 388.549C241.049 380.594 245.086 372.102 249.087 363.654C253.278 354.823 257.466 345.991 261.651 337.157C264.949 330.201 270.614 321.991 278.129 323.686C278.504 323.776 278.873 323.89 279.234 324.025C276.619 326.697 274.488 330.32 272.908 333.67Z" fill="#887157"/>
<path id="Vector_5" d="M276.399 468.705C276.081 468.321 276.24 468.511 276.399 468.705V468.705Z" fill="#27282D"/>
<path id="Vector_6" d="M325.853 401.729L310.705 426.822C304.128 437.726 297.499 448.714 288.875 458.104C286.674 460.507 281.985 464.227 276.425 468.669C273.903 471.121 265.16 472.165 265.155 472.165C267.898 468.506 286.057 453.314 293.884 439.399C295.769 436.379 297.613 433.328 299.449 430.286L314.597 405.193C318.559 398.59 325.026 391.009 332.329 393.435C329.767 395.795 327.566 398.859 325.853 401.729Z" fill="#887157"/>
<path id="Vector_7" d="M276.39 468.718C276.549 468.907 276.712 469.106 276.39 468.718V468.718Z" fill="#27282D"/>
<path id="Vector_8" d="M100.825 374.224C98.775 375.69 96.9988 377.505 95.5771 379.586C91.1484 386.132 89.9422 394.263 88.8461 402.09C85.1174 428.798 81.3623 455.546 79.8435 482.47C79.0511 496.324 78.897 510.556 83.4445 523.666C85.3683 529.209 88.2429 534.593 92.337 538.722C-13.5586 676.754 167.945 652.251 185.224 629.201C167.615 647.875 153.968 656.772 141.422 668.852C103.492 705.39 36.0061 666.827 18.943 621.717C10.5084 599.42 60.8875 563.075 81.0893 542.208C76.9953 538.079 74.1206 532.695 72.1968 527.153C67.6493 514.043 67.7946 499.811 68.5958 485.957C70.1322 459.033 73.8785 432.285 77.5984 405.576C78.6945 397.749 79.9007 389.618 84.3294 383.072C87.9832 377.666 94.5381 373.731 100.825 374.224Z" fill="#887157"/>
<path id="Vector_9" d="M183.393 597.029C175.733 602.752 164.758 603.686 156.253 599.301C143.711 592.838 138.42 577.382 126.908 569.225C122.858 566.355 118.183 564.501 113.97 561.882C109.757 559.263 105.83 555.565 104.685 550.736C103.506 545.752 105.473 540.637 106.151 535.561C107.472 525.55 103.756 515.659 100.679 506.04C97.6021 496.421 95.1633 485.789 98.9184 476.421C100.037 473.635 101.749 470.985 104.271 469.378C110.272 465.491 118.662 468.788 123.25 474.269C128.858 480.973 130.592 490.064 134.977 497.601C138.9 504.324 144.81 509.665 151.895 512.89C161.294 517.133 172.097 518.203 178.942 526.827C183.217 532.211 182.979 538.238 183.961 544.696C186.703 562.82 203.507 581.956 183.393 597.029Z" fill="#C4A380"/>
<path id="Vector_10" d="M281.047 504.543C270.689 513.999 262.043 525.159 252.305 535.257C242.568 545.356 231.346 554.596 217.968 558.796C213.601 560.165 208.807 560.962 204.484 559.448C198.629 557.409 194.865 551.466 193.72 545.418C192.576 539.369 193.619 533.091 194.786 527.021C195.952 520.95 197.247 514.787 196.591 508.637C195.847 501.708 192.668 495.267 188.962 489.364C184.665 482.523 179.567 476.113 176.38 468.674C174.619 464.571 173.466 460.164 173.461 455.7C173.397 452.708 174.03 449.742 175.31 447.037C178.762 440.125 187.298 436.793 194.962 437.757C202.626 438.721 209.436 443.238 214.97 448.63C220.504 454.023 225.034 460.345 230.219 466.072C236.198 472.675 243.025 478.457 250.522 483.267C260.388 489.597 268.409 489.21 279.577 489.457C291.829 489.721 287.743 498.428 281.047 504.543Z" fill="#C4A380"/>
</g>
<g id="orangecrayon">
<path id="Vector_11" d="M233.179 504.474C232.073 503.211 231.349 503.938 231.349 503.938C231.15 504.613 231.115 505.325 231.248 506.016C231.378 506.457 231.62 506.856 231.949 507.176C232.279 507.495 232.685 507.725 233.129 507.842C233.938 507.612 234.225 505.675 233.179 504.474Z" fill="#F7A516"/>
<path id="Vector_12" d="M358.478 434.692C358.299 432.502 357.852 430.377 356.612 428.523C355.831 427.356 354.544 425.763 353.277 425.1C353.277 425.1 347.97 422.337 344.751 423.754L248.031 483.063C248.031 483.063 255.909 483.616 258.43 491.232C260.625 497.873 259.01 500.585 259.01 500.585C259.01 500.585 356.328 441.185 356.469 441.118C358.499 439.884 358.647 436.729 358.478 434.692Z" fill="#F7A516"/>
<path id="Vector_13" d="M258.413 491.228C255.896 483.612 248.014 483.059 248.014 483.059C247.799 483.137 247.61 483.273 247.467 483.452C247.324 483.631 247.233 483.846 247.205 484.073C247.132 484.837 257.793 500.942 257.793 500.942C258.21 500.891 258.616 500.769 258.993 500.58C258.993 500.58 260.608 497.868 258.413 491.228Z" fill="#F7A516"/>
<path id="Vector_14" d="M256.645 491.16C254.106 485.206 247.205 484.073 247.205 484.073L231.347 503.947C231.347 503.947 232.068 503.228 233.177 504.482C234.286 505.737 233.936 507.621 233.144 507.855C233.299 507.897 233.459 507.917 233.62 507.914C234.533 507.908 252.868 502.416 257.79 500.951C258.076 499.851 258.772 496.132 256.645 491.16Z" fill="#F7A516"/>
<path id="Vector_15" style="mix-blend-mode:multiply" opacity="0.8" d="M259.477 495.915C259.827 499.167 258.998 500.577 258.998 500.577C258.998 500.577 356.328 441.185 356.469 441.118C358.491 439.882 358.647 436.729 358.478 434.692L259.477 495.915Z" fill="#D8C3AD"/>
<path id="Vector_16" style="mix-blend-mode:multiply" opacity="0.8" d="M258.052 496.691L233.73 505.496C234.056 506.559 233.735 507.69 233.141 507.864C233.297 507.906 233.457 507.926 233.618 507.923C234.531 507.917 252.865 502.425 257.788 500.959C258.115 499.561 258.205 498.119 258.052 496.691V496.691Z" fill="#D8C3AD"/>
<path id="Vector_17" style="mix-blend-mode:overlay" opacity="0.5" d="M253.24 486.806L254.085 485.355L354.321 425.849C353.996 425.564 353.64 425.316 353.261 425.109C352.678 424.818 352.08 424.558 351.469 424.332L252.575 484.441L251.719 485.783L233.179 504.474C233.393 504.718 233.558 505.001 233.667 505.306V505.306L253.24 486.806Z" fill="white"/>
<path id="Vector_18" d="M262.188 474.196L259.407 475.903C262.532 476.895 271.669 480.911 270.734 493.499L272.985 492.124C274.148 479.757 265.722 475.448 262.188 474.196Z" fill="black"/>
<path id="Vector_19" d="M327.786 433.983L325.032 435.67C327.639 436.469 337.566 440.396 336.487 453.387L338.764 451.997C340.044 439.278 330.936 435.051 327.786 433.983Z" fill="black"/>
</g>
<g id="greencrayon">
<path id="Vector_20" d="M295.265 347.561C293.748 346.842 293.373 347.796 293.373 347.796C293.459 348.495 293.71 349.163 294.107 349.744C294.401 350.096 294.782 350.366 295.211 350.529C295.641 350.691 296.105 350.74 296.558 350.671C297.209 350.139 296.702 348.247 295.265 347.561Z" fill="#008800"/>
<path id="Vector_21" d="M382.488 233.712C381.453 231.774 380.198 230.002 378.323 228.793C377.142 228.033 375.328 227.083 373.902 226.978C373.902 226.978 367.934 226.554 365.543 229.133L300.38 322.01C300.38 322.01 307.828 319.384 313.169 325.371C317.824 330.591 317.42 333.722 317.42 333.722C317.42 333.722 383.096 240.524 383.199 240.407C384.572 238.468 383.453 235.514 382.488 233.712Z" fill="#008800"/>
<path id="Vector_22" d="M313.152 325.373C307.815 319.386 300.362 322.013 300.362 322.013C300.196 322.17 300.077 322.37 300.017 322.591C299.957 322.812 299.959 323.045 300.023 323.265C300.26 323.995 316.445 334.534 316.445 334.534C316.808 334.321 317.132 334.047 317.402 333.724C317.402 333.724 317.806 330.594 313.152 325.373Z" fill="#008800"/>
<path id="Vector_23" d="M311.502 326.014C306.806 321.561 300.023 323.265 300.023 323.265L293.375 347.805C293.375 347.805 293.751 346.859 295.267 347.569C296.783 348.279 297.211 350.147 296.577 350.677C296.736 350.654 296.891 350.609 297.038 350.542C297.873 350.174 312.512 337.844 316.447 334.542C316.271 333.42 315.431 329.731 311.502 326.014Z" fill="#008800"/>
<path id="Vector_24" style="mix-blend-mode:multiply" opacity="0.8" d="M315.992 329.251C317.606 332.096 317.406 333.719 317.406 333.719C317.406 333.719 383.096 240.524 383.199 240.407C384.563 238.469 383.453 235.514 382.488 233.712L315.992 329.251Z" fill="#D8C3AD"/>
<path id="Vector_25" style="mix-blend-mode:multiply" opacity="0.8" d="M314.993 330.53L296.177 348.28C296.899 349.125 297.054 350.291 296.578 350.686C296.738 350.663 296.893 350.618 297.039 350.551C297.875 350.182 312.514 337.853 316.448 334.551C316.193 333.138 315.701 331.779 314.993 330.53V330.53Z" fill="#D8C3AD"/>
<path id="Vector_26" style="mix-blend-mode:overlay" opacity="0.5" d="M306.648 323.373L306.846 321.706L375.157 227.251C374.746 227.119 374.321 227.032 373.891 226.993C373.24 226.958 372.588 226.958 371.937 226.993L305.097 321.467L304.845 323.04L295.265 347.561C295.558 347.7 295.823 347.893 296.044 348.131V348.131L306.648 323.373Z" fill="white"/>
<path id="Vector_27" d="M309.844 308.245L307.97 310.917C311.232 310.585 321.213 310.637 325.36 322.558L326.879 320.402C323.028 308.592 313.584 307.989 309.844 308.245Z" fill="black"/>
<path id="Vector_28" d="M354.044 245.265L352.188 247.908C354.898 247.604 365.568 247.26 369.743 259.61L371.28 257.428C367.397 245.249 357.359 244.992 354.044 245.265Z" fill="black"/>
</g>
<g id="pinkcrayon">
<path id="Vector_29" d="M166.084 352.792C167.737 352.501 167.846 353.521 167.846 353.521C167.578 354.172 167.159 354.749 166.622 355.204C166.245 355.466 165.806 355.626 165.349 355.668C164.892 355.711 164.432 355.635 164.012 355.448C163.526 354.762 164.517 353.073 166.084 352.792Z" fill="#D40078"/>
<path id="Vector_30" d="M112.171 219.891C113.683 218.297 115.363 216.921 117.491 216.253C118.83 215.833 120.832 215.398 122.235 215.675C122.235 215.675 128.102 216.849 129.723 219.97L167.927 326.8C167.927 326.8 161.442 322.294 154.704 326.649C148.833 330.449 148.392 333.574 148.392 333.574C148.392 333.574 109.777 226.298 109.71 226.158C108.9 223.924 110.762 221.372 112.171 219.891Z" fill="#D40078"/>
<path id="Vector_31" d="M154.72 326.656C161.454 322.299 167.943 326.807 167.943 326.807C168.062 327.003 168.124 327.228 168.123 327.456C168.123 327.685 168.059 327.909 167.939 328.104C167.516 328.746 149.116 334.615 149.116 334.615C148.823 334.314 148.583 333.964 148.408 333.581C148.408 333.581 148.849 330.456 154.72 326.656Z" fill="#D40078"/>
<path id="Vector_32" d="M156.141 327.711C161.85 324.663 167.939 328.104 167.939 328.104L167.842 353.529C167.842 353.529 167.73 352.518 166.08 352.8C164.43 353.083 163.522 354.77 163.993 355.449C163.845 355.385 163.708 355.3 163.584 355.197C162.876 354.62 152.03 338.851 149.113 334.624C149.579 333.588 151.368 330.253 156.141 327.711Z" fill="#D40078"/>
<path id="Vector_33" style="mix-blend-mode:multiply" opacity="0.8" d="M150.954 329.643C148.643 331.958 148.406 333.575 148.406 333.575C148.406 333.575 109.777 226.298 109.71 226.158C108.908 223.928 110.762 221.372 112.171 219.891L150.954 329.643Z" fill="#D8C3AD"/>
<path id="Vector_34" style="mix-blend-mode:multiply" opacity="0.8" d="M151.578 331.14L165.014 353.244C164.094 353.868 163.635 354.95 163.989 355.457C163.842 355.393 163.704 355.308 163.581 355.205C162.873 354.628 152.027 338.859 149.109 334.632C149.73 333.337 150.564 332.157 151.578 331.14V331.14Z" fill="#D8C3AD"/>
<path id="Vector_35" style="mix-blend-mode:overlay" opacity="0.5" d="M161.522 326.453L161.774 324.793L120.952 215.605C121.384 215.587 121.816 215.616 122.241 215.693C122.878 215.831 123.507 216.004 124.125 216.211L163.523 325.026L163.349 326.609L166.084 352.792C165.764 352.849 165.458 352.965 165.182 353.135V353.135L161.522 326.453Z" fill="white"/>
<path id="Vector_36" d="M162.452 311.018L163.55 314.091C160.493 312.906 150.856 310.31 143.695 320.705L142.803 318.223C149.647 307.857 158.913 309.779 162.452 311.018Z" fill="black"/>
<path id="Vector_37" d="M136.533 238.573L137.621 241.613C135.089 240.602 124.892 237.441 117.592 248.241L116.689 245.731C123.662 235.017 133.409 237.431 136.533 238.573Z" fill="black"/>
</g>
<g id="yellowcrayon">
<path id="Vector_38" d="M166.197 444.168C167.355 442.953 168.048 443.709 168.048 443.709C168.218 444.392 168.223 445.105 168.061 445.79C167.913 446.224 167.655 446.613 167.312 446.919C166.97 447.224 166.554 447.437 166.106 447.535C165.307 447.271 165.102 445.323 166.197 444.168Z" fill="#EFE35E"/>
<path id="Vector_39" d="M43.9413 369.182C44.212 367.002 44.7478 364.897 46.0642 363.097C46.8938 361.964 48.2463 360.426 49.5401 359.817C49.5401 359.817 54.9592 357.28 58.1157 358.83L152.258 422.152C152.258 422.152 144.364 422.373 141.525 429.877C139.053 436.419 140.553 439.196 140.553 439.196C140.553 439.196 45.8164 375.759 45.6784 375.687C43.7015 374.369 43.6861 371.21 43.9413 369.182Z" fill="#EFE35E"/>
<path id="Vector_40" d="M141.542 429.873C144.377 422.37 152.275 422.148 152.275 422.148C152.486 422.236 152.67 422.379 152.805 422.564C152.94 422.749 153.022 422.967 153.041 423.195C153.081 423.962 141.753 439.605 141.753 439.605C141.338 439.536 140.938 439.397 140.57 439.193C140.57 439.193 139.07 436.415 141.542 429.873Z" fill="#EFE35E"/>
<path id="Vector_41" d="M143.311 429.879C146.098 424.038 153.041 423.195 153.041 423.195L168.05 443.718C168.05 443.718 167.359 442.97 166.199 444.176C165.038 445.383 165.309 447.28 166.09 447.547C165.933 447.583 165.772 447.596 165.612 447.587C164.7 447.542 146.612 441.285 141.755 439.613C141.516 438.503 140.977 434.758 143.311 429.879Z" fill="#EFE35E"/>
<path id="Vector_42" style="mix-blend-mode:multiply" opacity="0.8" d="M140.282 434.512C139.796 437.746 140.565 439.189 140.565 439.189C140.565 439.189 45.8165 375.759 45.6784 375.687C43.7102 374.367 43.6862 371.21 43.9413 369.182L140.282 434.512Z" fill="#D8C3AD"/>
<path id="Vector_43" style="mix-blend-mode:multiply" opacity="0.8" d="M141.673 435.347L165.603 445.166C165.233 446.214 165.507 447.358 166.092 447.556C165.935 447.592 165.774 447.605 165.614 447.595C164.702 447.551 146.614 441.293 141.757 439.622C141.489 438.212 141.46 436.766 141.673 435.347V435.347Z" fill="#D8C3AD"/>
<path id="Vector_44" style="mix-blend-mode:overlay" opacity="0.5" d="M146.896 425.673L146.113 424.188L48.4661 360.521C48.8027 360.251 49.1682 360.018 49.5559 359.827C50.1506 359.56 50.7594 359.326 51.3796 359.126L147.66 423.337L148.459 424.715L166.197 444.168C165.973 444.403 165.796 444.678 165.674 444.979V444.979L146.896 425.673Z" fill="white"/>
<path id="Vector_45" d="M138.486 412.698L141.193 414.52C138.029 415.38 128.731 419.008 129.136 431.625L126.945 430.156C126.303 417.751 134.902 413.8 138.486 412.698Z" fill="black"/>
<path id="Vector_46" d="M74.6359 369.764L77.3162 371.565C74.6778 372.254 64.5947 375.76 65.1271 388.785L62.9099 387.3C62.1658 374.539 71.4435 370.698 74.6359 369.764Z" fill="black"/>
</g>
<g id="redcrayon">
<path id="Vector_47" d="M184.553 494.112C184.505 492.433 185.53 492.474 185.53 492.474C186.135 492.833 186.645 493.332 187.018 493.929C187.222 494.34 187.316 494.797 187.292 495.256C187.268 495.714 187.127 496.159 186.881 496.546C186.131 496.928 184.603 495.703 184.553 494.112Z" fill="#ED0000"/>
<path id="Vector_48" d="M45.2391 528.183C43.8807 526.456 42.7629 524.594 42.4102 522.392C42.1896 521.005 42.0489 518.962 42.5267 517.614C42.5267 517.614 44.5388 511.979 47.8617 510.828L159.103 488.519C159.103 488.519 153.704 494.282 157.036 501.58C159.944 507.941 162.973 508.83 162.973 508.83C162.973 508.83 51.2312 531.48 51.0823 531.527C48.7549 532.004 46.5003 529.792 45.2391 528.183Z" fill="#ED0000"/>
<path id="Vector_49" d="M157.046 501.565C153.711 494.27 159.112 488.504 159.112 488.504C159.323 488.415 159.555 488.386 159.781 488.42C160.007 488.454 160.22 488.549 160.395 488.696C160.968 489.207 164.108 508.264 164.108 508.264C163.767 508.511 163.386 508.697 162.982 508.815C162.982 508.815 159.953 507.926 157.046 501.565Z" fill="#ED0000"/>
<path id="Vector_50" d="M158.296 500.312C156.107 494.222 160.395 488.696 160.395 488.696L185.537 492.479C185.537 492.479 184.52 492.443 184.561 494.116C184.601 495.79 186.139 496.933 186.879 496.566C186.794 496.703 186.69 496.826 186.57 496.933C185.897 497.55 168.721 505.995 164.116 508.269C163.158 507.657 160.119 505.404 158.296 500.312Z" fill="#ED0000"/>
<path id="Vector_51" style="mix-blend-mode:multiply" opacity="0.8" d="M159.454 505.725C161.41 508.347 162.976 508.816 162.976 508.816C162.976 508.816 51.2312 531.48 51.0822 531.527C48.7596 531.996 46.5003 529.792 45.2391 528.183L159.454 505.725Z" fill="#D8C3AD"/>
<path id="Vector_52" style="mix-blend-mode:multiply" opacity="0.8" d="M161.026 505.324L184.845 495.236C185.329 496.237 186.333 496.847 186.886 496.571C186.801 496.707 186.697 496.831 186.578 496.938C185.904 497.555 168.728 506 164.123 508.274C162.932 507.472 161.885 506.475 161.026 505.324V505.324Z" fill="#D8C3AD"/>
<path id="Vector_53" style="mix-blend-mode:overlay" opacity="0.5" d="M157.83 494.805L156.224 494.316L42.2712 518.873C42.3158 518.443 42.4076 518.02 42.5449 517.61C42.7741 517 43.0365 516.403 43.3308 515.821L156.709 492.619L158.25 493.021L184.553 494.112C184.563 494.436 184.633 494.756 184.762 495.054V495.054L157.83 494.805Z" fill="white"/>
<path id="Vector_54" d="M142.694 491.648L145.894 491.007C144.278 493.86 140.311 503.019 149.559 511.611L146.974 512.134C137.709 503.858 140.955 494.969 142.694 491.648Z" fill="black"/>
<path id="Vector_55" d="M67.2559 506.788L70.4217 506.151C69.054 508.51 64.4481 518.141 74.0757 526.93L71.4603 527.46C61.8711 519.007 65.6726 509.713 67.2559 506.788Z" fill="black"/>
</g>
</g>
</svg>
