<svg width="414" height="896" viewBox="0 0 414 896" fill="none" xmlns="http://www.w3.org/2000/svg">
<g id="handwithcrayonmobile">
<g id="Group">
<g id="hand">
<path id="Vector" d="M127.983 509.099C136.628 512.676 138.472 523.885 139.056 533.224C139.624 542.397 140.191 551.571 140.759 560.747C141.079 565.836 141.424 571.049 143.472 575.716C145.52 580.384 149.634 584.74 154.723 585.008C176.531 586.15 208.484 533.594 213.492 526.883C220.872 517.011 226.2 505.794 231.48 494.662L243.63 469.029C246.82 462.297 252.305 454.354 259.57 455.994C263.999 456.995 266.895 461.568 267.376 466.083C267.857 470.597 266.435 475.081 264.957 479.374C257.943 499.603 249.392 519.267 239.38 538.194C238.026 540.749 236.591 543.674 235.057 546.766C242.118 539.658 248.711 533.564 251.24 530.187C258.62 520.316 263.948 509.099 269.229 497.967L281.378 472.33C284.568 465.601 290.053 457.659 297.318 459.299C301.747 460.299 304.647 464.873 305.124 469.387C305.601 473.901 304.183 478.386 302.705 482.678C295.691 502.908 287.14 522.572 277.128 541.498C272.133 550.978 266.056 565.091 257.79 576.142C265.204 570.078 271.967 564.955 274.722 561.952C283.048 552.869 289.474 542.239 295.836 531.686L310.49 507.412C314.323 501.024 320.587 493.678 327.657 496.038C331.962 497.477 334.389 502.315 334.415 506.859C334.441 511.403 332.575 515.717 330.676 519.839C321.733 539.279 291.216 594.365 284.751 602.997C285.373 603.746 284.155 602.226 284.751 602.997C290.134 598.674 294.674 595.071 296.807 592.746C305.137 583.663 311.559 573.033 317.926 562.485L332.58 538.211C336.412 531.823 342.677 524.481 349.742 526.84C354.047 528.275 356.475 533.117 356.5 537.657C356.526 542.197 354.66 546.515 352.761 550.637C343.818 570.078 329.85 602.801 318.535 620.964C281.723 680.026 217.09 745.899 206.09 755.527C185.675 773.413 116.46 816.425 92.4453 796.678C53.2661 764.453 99.4634 671.939 105.106 670.7C101.146 666.705 98.3647 661.497 96.5037 656.136C92.1046 643.453 92.2451 629.685 93.0202 616.284C94.5064 590.238 98.1305 564.367 101.729 538.526C102.789 530.954 103.956 523.088 108.24 516.756C112.525 510.423 120.918 506.173 127.983 509.099Z" fill="#B59674"/>
<path id="Vector_2" d="M252.122 466.457L239.968 492.09C234.691 503.226 229.359 514.443 221.984 524.315C217.005 530.971 185.538 582.709 163.747 582.449C183.916 570.883 206.9 533.292 211.094 527.692C218.474 517.82 223.802 506.603 229.078 495.467L241.228 469.834C244.422 463.106 249.903 455.163 257.172 456.803C257.536 456.89 257.893 457.001 258.241 457.135C255.712 459.724 253.651 463.229 252.122 466.457Z" fill="#887157"/>
<path id="Vector_3" d="M318.982 504.832L304.328 529.106C297.961 539.647 290.906 549.758 283.21 559.372C263.667 583.803 258.084 580.102 254.583 577.79C257.807 573.472 260.119 575.759 275.025 559.661C282.073 551.297 287.8 541.86 293.443 532.478L308.097 508.204C311.93 501.816 318.186 494.479 325.246 496.825C322.776 499.091 320.647 502.051 318.982 504.832Z" fill="#887157"/>
<path id="Vector_4" d="M289.87 469.775C285.821 478.323 281.77 486.867 277.716 495.407C272.44 506.544 267.112 517.761 259.732 527.632C257.177 531.018 237.191 554.253 233.103 548.031C234.64 544.935 240.04 540.872 242.131 538.858C246.76 534.386 252.245 527.155 254.332 522.863C259.05 515.167 262.956 506.952 266.827 498.78C270.881 490.237 274.932 481.693 278.981 473.148C282.17 466.419 287.651 458.477 294.921 460.116C295.283 460.204 295.64 460.313 295.99 460.444C293.46 463.029 291.399 466.534 289.87 469.775Z" fill="#887157"/>
<path id="Vector_5" d="M293.248 600.404C292.94 600.032 293.094 600.216 293.248 600.404V600.404Z" fill="#27282D"/>
<path id="Vector_6" d="M341.088 535.613L326.434 559.887C320.072 570.435 313.659 581.065 305.316 590.148C303.187 592.474 298.651 596.072 293.273 600.369C290.832 602.741 282.375 603.75 282.371 603.75C285.024 600.212 302.59 585.515 310.162 572.054C311.985 569.132 313.769 566.181 315.545 563.238L330.199 538.964C334.032 532.576 340.288 525.243 347.353 527.59C344.874 529.872 342.745 532.836 341.088 535.613Z" fill="#887157"/>
<path id="Vector_7" d="M293.239 600.416C293.392 600.6 293.55 600.792 293.239 600.416V600.416Z" fill="#27282D"/>
<path id="Vector_8" d="M123.401 509.005C121.418 510.423 119.7 512.179 118.325 514.192C114.041 520.525 112.874 528.39 111.813 535.962C108.206 561.799 104.574 587.674 103.105 613.72C102.338 627.122 102.189 640.89 106.588 653.572C108.449 658.934 111.23 664.142 115.19 668.136C12.7497 801.665 188.332 777.962 205.047 755.664C188.013 773.729 174.811 782.335 162.674 794.021C125.982 829.367 60.6974 792.062 44.191 748.424C36.0315 726.854 84.767 691.695 104.31 671.509C100.349 667.515 97.5684 662.306 95.7074 656.945C91.3082 644.263 91.4488 630.495 92.2238 617.093C93.7101 591.047 97.3341 565.172 100.933 539.335C101.993 531.763 103.16 523.897 107.444 517.565C110.979 512.335 117.32 508.528 123.401 509.005Z" fill="#887157"/>
<path id="Vector_9" d="M203.276 724.542C195.866 730.078 185.249 730.981 177.021 726.739C164.888 720.487 159.77 705.535 148.633 697.644C144.715 694.868 140.193 693.075 136.117 690.541C132.042 688.007 128.243 684.43 127.136 679.758C125.995 674.937 127.898 669.989 128.554 665.079C129.832 655.395 126.237 645.825 123.261 636.52C120.284 627.215 117.924 616.931 121.557 607.869C122.639 605.173 124.295 602.609 126.736 601.055C132.54 597.294 140.657 600.484 145.094 605.786C150.52 612.272 152.198 621.066 156.439 628.357C160.234 634.86 165.952 640.028 172.805 643.147C181.897 647.252 192.348 648.287 198.97 656.63C203.105 661.838 202.875 667.668 203.825 673.915C206.478 691.448 222.733 709.96 203.276 724.542Z" fill="#C4A380"/>
<path id="Vector_10" d="M297.744 635.073C287.724 644.22 279.36 655.016 269.94 664.785C260.52 674.554 249.665 683.493 236.723 687.556C232.498 688.88 227.86 689.651 223.678 688.186C218.015 686.214 214.373 680.465 213.266 674.614C212.159 668.762 213.168 662.69 214.297 656.817C215.425 650.944 216.677 644.982 216.043 639.033C215.323 632.33 212.248 626.1 208.663 620.389C204.506 613.771 199.575 607.57 196.492 600.373C194.788 596.404 193.672 592.142 193.668 587.823C193.606 584.929 194.219 582.059 195.457 579.442C198.795 572.756 207.053 569.533 214.467 570.465C221.881 571.398 228.469 575.767 233.822 580.984C239.176 586.201 243.558 592.316 248.574 597.857C254.358 604.244 260.963 609.837 268.215 614.491C277.759 620.615 285.518 620.24 296.322 620.478C308.173 620.734 304.221 629.157 297.744 635.073Z" fill="#C4A380"/>
</g>
<g id="redcrayon">
<path id="Vector_11" d="M174.394 666.016C174.509 664.478 175.441 664.61 175.441 664.61C175.956 665.002 176.371 665.51 176.651 666.092C176.798 666.487 176.842 666.913 176.777 667.329C176.712 667.745 176.541 668.138 176.28 668.469C175.573 668.737 174.283 667.485 174.394 666.016Z" fill="url(#paint0_linear)"/>
<g id="Group_2" style="mix-blend-mode:multiply">
<g id="Group_3" style="mix-blend-mode:multiply">
<path id="Vector_12" style="mix-blend-mode:multiply" d="M176.651 666.097C176.798 666.491 176.842 666.917 176.777 667.333C176.712 667.749 176.541 668.142 176.28 668.473C175.735 668.677 174.858 667.992 174.526 666.999C174.929 667.077 175.347 667.033 175.726 666.872C176.104 666.711 176.426 666.441 176.651 666.097Z" fill="url(#paint1_linear)"/>
</g>
</g>
<path id="Vector_13" style="mix-blend-mode:screen" opacity="0.6" d="M175.352 664.61C175.352 664.61 174.377 664.636 174.389 666.271C174.388 665.934 174.477 665.602 174.646 665.31C174.815 665.019 175.059 664.777 175.352 664.61V664.61Z" fill="url(#paint2_linear)"/>
<path id="Vector_14" d="M44.0504 683.927C42.9773 682.224 42.1341 680.414 42.0233 678.391C41.9509 677.114 42.0233 675.227 42.5812 674.043C42.5812 674.043 44.949 669.095 48.0919 668.354L151.712 658.508C151.712 658.508 146.244 663.256 148.595 670.232C150.643 676.309 153.322 677.408 153.322 677.408L49.0671 687.53C46.9037 687.739 45.0512 685.516 44.0504 683.927Z" fill="url(#paint3_linear)"/>
<path id="Vector_15" d="M148.599 670.215C146.248 663.239 151.717 658.491 151.717 658.491C151.918 658.43 152.132 658.425 152.335 658.478C152.539 658.53 152.724 658.638 152.871 658.789C153.343 659.308 154.408 676.994 154.408 676.994C154.072 677.187 153.707 677.321 153.326 677.39C153.326 677.39 150.643 676.292 148.599 670.215Z" fill="url(#paint4_linear)"/>
<path id="Vector_16" d="M154.135 673.017C154.289 675.334 154.387 676.994 154.387 676.994C154.051 677.187 153.685 677.321 153.305 677.39C153.305 677.39 151.516 676.654 149.741 673.064C151.185 672.729 152.684 672.713 154.135 673.017Z" fill="url(#paint5_linear)"/>
<path id="Vector_17" d="M149.847 669.193C148.429 663.422 152.862 658.789 152.866 658.789L175.437 664.61C175.437 664.61 174.504 664.478 174.389 666.016C174.279 667.485 175.569 668.737 176.276 668.469C176.186 668.587 176.08 668.691 175.961 668.779C175.292 669.265 158.803 675.368 154.399 676.994C153.59 676.351 151.035 674.005 149.847 669.193Z" fill="url(#paint6_linear)"/>
<g id="Group_4">
<path id="Vector_18" opacity="0.4" d="M150.729 659.526L45.3706 670.027C46.1014 669.223 47.0379 668.634 48.0791 668.324L151.7 658.478C151.357 658.797 151.036 659.14 150.741 659.504L150.729 659.526Z" fill="url(#paint7_linear)"/>
</g>
<g id="Group_5">
<path id="Vector_19" style="mix-blend-mode:multiply" opacity="0.8" d="M150.396 674.235C151.938 676.79 153.322 677.386 153.322 677.386L49.0671 687.53C46.9037 687.739 45.0512 685.516 44.0504 683.927L150.396 674.235Z" fill="url(#paint8_linear)"/>
</g>
<g id="Group_6">
<path id="Vector_20" style="mix-blend-mode:multiply" opacity="0.6" d="M150.396 674.239C151.674 674.75 151.857 674.039 151.857 674.039C152.536 675.169 153.399 676.177 154.412 677.02C154.077 677.212 153.711 677.346 153.331 677.416C153.331 677.416 151.938 676.811 150.396 674.239Z" fill="url(#paint9_linear)"/>
</g>
<g id="Group_7">
<path id="Vector_21" style="mix-blend-mode:multiply" d="M151.857 674.035L174.543 667.055C174.892 668.017 175.748 668.669 176.28 668.469C176.191 668.587 176.084 668.691 175.965 668.779C175.296 669.265 158.807 675.367 154.404 676.994C153.396 676.157 152.535 675.156 151.857 674.035V674.035Z" fill="url(#paint10_linear)"/>
</g>
<g id="Group_8">
<path id="Vector_22" opacity="0.4" d="M152.032 659.824C152.032 659.824 151.21 658.972 150.754 659.517C151.049 659.153 151.369 658.81 151.712 658.491C151.913 658.43 152.128 658.425 152.331 658.478C152.535 658.53 152.72 658.638 152.866 658.789C152.561 659.116 152.277 659.461 152.015 659.824H152.032Z" fill="url(#paint11_linear)"/>
</g>
<g id="Group_9">
<path id="Vector_23" opacity="0.4" d="M152.032 659.824C152.294 659.461 152.578 659.116 152.883 658.789L175.454 664.61C175.269 664.605 175.087 664.658 174.934 664.762C174.781 664.866 174.665 665.015 174.602 665.189H174.44L152.032 659.824Z" fill="url(#paint12_linear)"/>
</g>
<g id="Group_10">
<path id="Vector_24" style="mix-blend-mode:overlay" opacity="0.5" d="M149.945 664.121L148.518 663.541L42.2192 675.159C42.2948 674.768 42.4163 674.388 42.5812 674.026C42.8488 673.491 43.1445 672.971 43.467 672.467L149.132 662.017L150.499 662.532L174.394 666.016C174.375 666.312 174.411 666.61 174.5 666.893V666.893L149.945 664.121Z" fill="url(#paint13_linear)"/>
</g>
<path id="Vector_25" d="M136.437 659.807L139.418 659.526C137.68 661.978 133.192 669.959 140.819 678.689L138.408 678.923C130.713 670.474 134.546 662.69 136.437 659.807Z" fill="black"/>
<path id="Vector_26" d="M69.1166 666.207L136.437 659.819C134.533 662.685 130.73 670.466 138.4 678.919L70.4836 685.512C62.52 676.568 67.6431 668.226 69.1166 666.207Z" fill="url(#paint14_linear)"/>
<path id="Vector_27" d="M66.1654 666.484L69.1166 666.207C67.6431 668.226 62.52 676.568 70.4836 685.512L68.0477 685.746C60.0969 677.126 64.4449 669.009 66.1654 666.484Z" fill="black"/>
<g id="Group_11" opacity="0.6">
<path id="Vector_28" style="mix-blend-mode:screen" opacity="0.6" d="M150.456 659.883C149.331 661.283 148.567 662.936 148.231 664.7C147.895 666.463 147.996 668.282 148.527 669.997C148.11 668.271 148.066 666.476 148.399 664.732C148.731 662.988 149.433 661.334 150.456 659.883Z" fill="url(#paint15_linear)"/>
<path id="Vector_29" style="mix-blend-mode:screen" opacity="0.6" d="M151.108 661.28C151.108 661.28 148.599 665.381 149.928 669.504C149.928 669.504 148.667 666.808 151.108 661.28Z" fill="url(#paint16_linear)"/>
</g>
<g id="Group_12">
<path id="Vector_30" style="mix-blend-mode:screen" opacity="0.5" d="M138.31 660.309C137.235 661.764 136.499 663.442 136.156 665.219C136.156 665.219 136.177 666.573 134.452 666.625C132.727 666.676 67.2598 673.762 67.2598 673.762C67.2598 673.762 64.875 674.541 64.4534 672.765C64.0318 670.99 65.8076 667.106 67.328 666.718C68.8483 666.331 137.101 659.943 137.101 659.943C137.101 659.943 138.804 659.598 138.31 660.309Z" fill="url(#paint17_linear)"/>
</g>
</g>
<g id="orangecrayon">
<path id="Vector_31" d="M236.071 623.472C235.006 622.101 234.214 622.808 234.214 622.808C233.975 623.49 233.901 624.22 233.997 624.937C234.105 625.4 234.329 625.827 234.65 626.178C234.971 626.528 235.377 626.79 235.828 626.939C236.659 626.764 237.089 624.788 236.071 623.472Z" fill="url(#paint18_linear)"/>
<g id="Group_13" style="mix-blend-mode:multiply" opacity="0.8">
<g id="Group_14" style="mix-blend-mode:multiply" opacity="0.8">
<path id="Vector_32" style="mix-blend-mode:multiply" opacity="0.8" d="M233.997 624.954C234.105 625.417 234.329 625.844 234.65 626.195C234.971 626.546 235.377 626.808 235.828 626.956C236.463 626.811 236.859 625.614 236.557 624.477C236.225 624.801 235.805 625.019 235.349 625.104C234.894 625.189 234.423 625.137 233.997 624.954V624.954Z" fill="url(#paint19_linear)"/>
</g>
</g>
<path id="Vector_33" d="M369.719 559.239C369.664 556.97 369.34 554.747 368.173 552.758C367.441 551.506 366.21 549.777 364.945 549.019C364.945 549.019 359.643 545.838 356.228 547.098L252.709 602.294C252.709 602.294 260.801 603.359 262.93 611.373C264.787 618.357 262.93 621.062 262.93 621.062L367.223 565.747C369.412 564.597 369.766 561.335 369.719 559.239Z" fill="url(#paint20_linear)"/>
<path id="Vector_34" d="M262.93 611.373C260.801 603.359 252.709 602.294 252.709 602.294C252.482 602.36 252.277 602.489 252.119 602.665C251.96 602.841 251.854 603.057 251.811 603.29C251.687 604.078 261.687 621.36 261.687 621.36C262.126 621.334 262.558 621.233 262.964 621.062C262.964 621.062 264.787 618.357 262.93 611.373Z" fill="url(#paint21_linear)"/>
<path id="Vector_35" d="M261.116 611.195C258.863 604.888 251.815 603.291 251.811 603.291L234.197 622.808C234.197 622.808 234.989 622.101 236.054 623.472C237.119 624.843 236.642 626.764 235.811 626.956C235.968 627.008 236.132 627.039 236.297 627.049C237.229 627.088 256.521 622.569 261.67 621.36C262.053 620.248 262.998 616.454 261.116 611.195Z" fill="url(#paint22_linear)"/>
<g id="Group_15">
<path id="Vector_36" style="mix-blend-mode:overlay" opacity="0.5" d="M254.268 602.665L359.826 547C358.642 546.704 357.399 546.738 356.232 547.098L252.709 602.294C253.229 602.382 253.743 602.504 254.247 602.66L254.268 602.665Z" fill="url(#paint23_linear)"/>
</g>
<g id="Group_16">
<path id="Vector_37" style="mix-blend-mode:multiply" opacity="0.8" d="M263.739 616.271C263.893 619.648 262.951 621.053 262.951 621.053L367.245 565.738C369.412 564.588 369.766 561.343 369.719 559.231L263.739 616.271Z" fill="url(#paint24_linear)"/>
</g>
<g id="Group_17">
<path id="Vector_38" style="mix-blend-mode:multiply" opacity="0.8" d="M263.739 616.271C262.836 617.548 262.244 616.986 262.244 616.986C262.305 618.462 262.116 619.938 261.687 621.351C262.126 621.325 262.558 621.224 262.964 621.053C262.964 621.053 263.893 619.678 263.739 616.271Z" fill="url(#paint25_linear)"/>
</g>
<g id="Group_18">
<path id="Vector_39" style="mix-blend-mode:multiply" opacity="0.8" d="M262.244 616.995L236.582 624.545C236.85 625.665 236.45 626.811 235.828 626.956C235.985 627.008 236.149 627.039 236.314 627.049C237.246 627.088 256.538 622.569 261.687 621.36C262.116 619.946 262.305 618.471 262.244 616.995Z" fill="url(#paint26_linear)"/>
</g>
<g id="Group_19">
<path id="Vector_40" opacity="0.4" d="M253.237 603.746C253.237 603.746 253.476 602.426 254.247 602.66C253.743 602.504 253.229 602.382 252.709 602.294C252.482 602.36 252.277 602.489 252.119 602.665C251.96 602.841 251.853 603.057 251.811 603.29C252.295 603.415 252.771 603.567 253.237 603.746V603.746Z" fill="url(#paint27_radial)"/>
</g>
<g id="Group_20">
<path id="Vector_41" style="mix-blend-mode:overlay" opacity="0.5" d="M253.237 603.746C252.772 603.568 252.297 603.416 251.815 603.291L234.197 622.808C234.365 622.685 234.568 622.618 234.776 622.618C234.985 622.618 235.188 622.685 235.356 622.808L235.496 622.688L253.237 603.746Z" fill="url(#paint28_linear)"/>
</g>
<g id="Group_21">
<path id="Vector_42" style="mix-blend-mode:overlay" opacity="0.5" d="M257.875 606.476L258.846 605.032L365.988 549.845C365.675 549.521 365.325 549.236 364.945 548.993C364.362 548.656 363.76 548.35 363.144 548.078L257.326 604.006L256.363 605.339L236.071 623.472C236.275 623.74 236.428 624.043 236.522 624.366L257.875 606.476Z" fill="url(#paint29_linear)"/>
</g>
<path id="Vector_43" d="M267.887 594.028L264.906 595.617C268.066 596.834 277.256 601.545 275.502 614.482L277.912 613.205C279.884 600.514 271.456 595.54 267.887 594.028Z" fill="black"/>
<path id="Vector_44" d="M335.126 558.175L267.874 594.028C271.443 595.54 279.871 600.51 277.908 613.192L345.845 577.155C347.783 563.809 337.779 559.159 335.126 558.175Z" fill="url(#paint30_linear)"/>
<path id="Vector_45" d="M338.107 556.599L335.16 558.175C337.801 559.159 347.804 563.809 345.879 577.168L348.319 575.891C350.41 562.825 341.271 557.898 338.107 556.599Z" fill="black"/>
<g id="Group_22" opacity="0.6">
<g id="Vector_46" style="mix-blend-mode:screen" opacity="0.6">
<path d="M254.758 602.822C256.683 603.44 258.427 604.521 259.837 605.969C261.248 607.418 262.282 609.19 262.849 611.131C262.849 611.131 261.026 605.198 254.758 602.822Z" fill="#E4E3E4"/>
</g>
<g id="Vector_47" style="mix-blend-mode:screen" opacity="0.6">
<path d="M255.013 604.542C255.013 604.542 259.932 606.829 261.231 611.531C261.231 611.531 260.741 608.218 255.013 604.542Z" fill="#E4E3E4"/>
</g>
</g>
<g id="Group_23">
<path id="Vector_48" style="mix-blend-mode:screen" opacity="0.5" d="M266.865 596.021C266.865 596.021 269.91 597.043 271.95 599.296C271.95 599.296 272.763 600.573 274.433 599.543C276.102 598.512 341.995 564.473 341.995 564.473C341.995 564.473 344.729 563.719 344.014 561.79C343.298 559.861 339.219 557.31 337.554 557.894C335.888 558.477 267.798 594.91 267.798 594.91C267.798 594.91 265.966 595.655 266.865 596.021Z" fill="url(#paint31_linear)"/>
</g>
<path id="Vector_49" style="mix-blend-mode:multiply" d="M277.954 606.395C278.306 608.654 278.294 610.954 277.92 613.209L345.858 577.172C346.248 574.725 346.178 572.227 345.654 569.805L277.954 606.395Z" fill="url(#paint32_linear)"/>
<g id="Vector_50" style="mix-blend-mode:screen" opacity="0.7">
<path d="M234.299 622.752C234.299 622.752 235.228 622.169 236.233 623.715C236.233 623.715 235.509 622.582 234.299 622.752Z" fill="#E4E3E4"/>
</g>
</g>
<g id="yellowcrayon">
<path id="Vector_51" d="M203.723 619.145C204.847 617.97 205.516 618.719 205.516 618.719C205.677 619.381 205.677 620.072 205.516 620.734C205.374 621.157 205.126 621.536 204.794 621.834C204.463 622.133 204.06 622.341 203.625 622.437C202.867 622.152 202.654 620.274 203.723 619.145Z" fill="url(#paint33_linear)"/>
<g id="Group_24" style="mix-blend-mode:multiply" opacity="0.5">
<g id="Vector_52" style="mix-blend-mode:multiply" opacity="0.5">
<path d="M205.516 620.717C205.374 621.14 205.126 621.519 204.794 621.817C204.463 622.116 204.06 622.324 203.625 622.42C203.046 622.224 202.773 621.075 203.178 620.044C203.457 620.375 203.828 620.616 204.244 620.736C204.661 620.856 205.103 620.849 205.516 620.717V620.717Z" fill="#E8C926"/>
</g>
</g>
<g id="Vector_53" style="mix-blend-mode:screen" opacity="0.6">
<path d="M205.443 618.643C205.443 618.643 204.634 618.013 203.548 619.358C203.535 619.358 204.332 618.366 205.443 618.643Z" fill="#E4E3E4"/>
</g>
<path id="Vector_54" d="M85.3774 546.746C85.6372 544.638 86.1525 542.598 87.4258 540.857C88.2264 539.762 89.5338 538.272 90.7858 537.684C90.7858 537.684 96.0197 535.222 99.0816 536.717L190.216 597.867C190.216 597.867 182.58 598.088 179.842 605.349C177.457 611.681 178.909 614.369 178.909 614.369L87.0425 553.045C85.1474 551.763 85.1474 548.709 85.3774 546.746Z" fill="url(#paint34_linear)"/>
<path id="Vector_55" d="M179.862 605.347C182.6 598.087 190.236 597.865 190.236 597.865C190.44 597.949 190.617 598.088 190.747 598.266C190.878 598.444 190.957 598.654 190.977 598.874C191.015 599.62 180.079 614.763 180.079 614.763C179.676 614.697 179.287 614.563 178.929 614.367C178.929 614.367 177.477 611.68 179.862 605.347Z" fill="url(#paint35_linear)"/>
<path id="Vector_56" opacity="0.4" d="M182.528 611.348C181.105 613.341 180.079 614.755 180.079 614.755C179.676 614.688 179.287 614.554 178.929 614.359C178.929 614.359 177.962 612.557 178.908 608.443C180.31 609.138 181.545 610.129 182.528 611.348Z" fill="#F2D71A"/>
<path id="Vector_57" d="M181.569 605.352C184.261 599.696 190.977 598.874 190.977 598.874L205.516 618.702C205.516 618.702 204.847 617.97 203.723 619.128C202.598 620.287 202.871 622.135 203.625 622.395C203.472 622.429 203.316 622.442 203.161 622.433C202.309 622.386 184.759 616.36 180.079 614.767C179.84 613.716 179.321 610.075 181.569 605.352Z" fill="url(#paint36_linear)"/>
<g id="Group_25">
<path id="Vector_58" opacity="0.5" d="M188.749 598.061L95.7414 536.286C96.8723 536.121 98.0268 536.268 99.0801 536.712L190.214 597.861C189.721 597.891 189.23 597.955 188.745 598.053L188.749 598.061Z" fill="url(#paint37_linear)"/>
</g>
<g id="Group_26">
<path id="Vector_59" style="mix-blend-mode:multiply" opacity="0.8" d="M178.644 609.836C178.184 612.966 178.925 614.363 178.925 614.363L87.0581 553.039C85.1545 551.762 85.1247 548.712 85.3547 546.749L178.644 609.836Z" fill="url(#paint38_linear)"/>
</g>
<g id="Group_27">
<path id="Vector_60" style="mix-blend-mode:multiply" opacity="0.8" d="M178.648 609.84C179.368 611.118 179.972 610.649 179.972 610.649C179.776 612.017 179.812 613.408 180.079 614.763C179.676 614.697 179.287 614.563 178.929 614.367C178.929 614.367 178.188 612.97 178.648 609.84Z" fill="url(#paint39_linear)"/>
</g>
<g id="Group_28">
<path id="Vector_61" style="mix-blend-mode:multiply" opacity="0.8" d="M179.972 610.649L203.152 620.104C202.794 621.121 203.058 622.233 203.625 622.42C203.472 622.454 203.316 622.467 203.161 622.459C202.309 622.412 184.759 616.386 180.079 614.793C179.809 613.428 179.773 612.027 179.972 610.649V610.649Z" fill="url(#paint40_linear)"/>
</g>
<g id="Group_29">
<path id="Vector_62" opacity="0.4" d="M189.605 599.164C189.605 599.164 189.507 597.912 188.754 598.057C189.238 597.959 189.729 597.895 190.223 597.865C190.427 597.949 190.604 598.088 190.735 598.266C190.865 598.444 190.945 598.654 190.964 598.874C190.502 598.945 190.044 599.042 189.593 599.164H189.605Z" fill="url(#paint41_radial)"/>
</g>
<g id="Group_30">
<path id="Vector_63" style="mix-blend-mode:overlay" opacity="0.5" d="M189.605 599.164C190.057 599.042 190.514 598.945 190.977 598.874L205.516 618.702C205.37 618.573 205.187 618.494 204.993 618.476C204.799 618.459 204.605 618.504 204.438 618.604L204.315 618.477L189.605 599.164Z" fill="url(#paint42_linear)"/>
</g>
<g id="Group_31">
<path id="Vector_64" style="mix-blend-mode:overlay" opacity="0.5" d="M185.032 601.281L184.265 599.845L89.724 538.364C90.049 538.097 90.4034 537.869 90.7801 537.682C91.3545 537.422 91.9432 537.195 92.5432 537.001L185.773 599.019L186.543 600.352L203.723 619.145C203.509 619.377 203.339 619.646 203.22 619.937V619.937L185.032 601.281Z" fill="url(#paint43_linear)"/>
</g>
<path id="Vector_65" d="M176.885 588.735L179.504 590.494C176.446 591.345 167.452 594.85 167.861 607.06L165.732 605.641C165.106 593.641 173.418 589.808 176.885 588.735Z" fill="black"/>
<path id="Vector_66" d="M117.665 549.015L176.885 588.735C173.418 589.808 165.106 593.641 165.74 605.641L105.894 565.687C105.362 553.069 115.114 549.683 117.665 549.015Z" fill="url(#paint44_linear)"/>
<path id="Vector_67" d="M115.071 547.281L117.665 549.023C115.11 549.692 105.362 553.077 105.894 565.696L103.765 564.26C103.032 551.906 111.975 548.18 115.071 547.281Z" fill="black"/>
<g id="Group_32" opacity="0.6">
<g id="Vector_68" style="mix-blend-mode:screen" opacity="0.6">
<path d="M188.277 598.163C186.424 598.555 184.696 599.395 183.244 600.609C181.792 601.824 180.66 603.376 179.947 605.13C179.947 605.13 182.212 599.76 188.277 598.163Z" fill="#E4E3E4"/>
</g>
<g id="Vector_69" style="mix-blend-mode:screen" opacity="0.6">
<path d="M187.876 599.739C187.876 599.739 183.085 601.4 181.429 605.654C181.429 605.654 182.195 602.618 187.876 599.739Z" fill="#E4E3E4"/>
</g>
</g>
<g id="Group_33">
<path id="Vector_70" style="mix-blend-mode:screen" opacity="0.5" d="M177.651 590.685C175.801 591.15 174.079 592.023 172.609 593.24C172.609 593.24 171.728 594.36 170.271 593.24C168.815 592.12 110.698 554.231 110.698 554.231C110.698 554.231 108.228 553.273 109.071 551.544C109.914 549.815 113.96 547.831 115.459 548.525C116.958 549.219 176.902 589.565 176.902 589.565C176.902 589.565 178.52 590.43 177.651 590.685Z" fill="url(#paint45_linear)"/>
</g>
<path id="Vector_71" style="mix-blend-mode:multiply" d="M166.349 599.296C165.806 601.365 165.6 603.507 165.74 605.641L105.894 565.687C105.763 563.372 106.063 561.053 106.78 558.848L166.349 599.296Z" fill="url(#paint46_linear)"/>
</g>
<g id="greencrayon">
<path id="Vector_72" d="M271.673 479.604C270.323 478.701 269.829 479.561 269.829 479.561C269.812 480.241 269.958 480.916 270.255 481.528C270.487 481.907 270.812 482.22 271.2 482.436C271.588 482.652 272.025 482.765 272.469 482.763C273.168 482.346 272.951 480.464 271.673 479.604Z" fill="url(#paint47_linear)"/>
<g id="Group_34" style="mix-blend-mode:multiply" opacity="0.5">
<g id="Vector_73" style="mix-blend-mode:multiply" opacity="0.5">
<path d="M270.272 481.529C270.504 481.907 270.829 482.22 271.217 482.436C271.605 482.652 272.042 482.765 272.486 482.764C273.01 482.444 273.006 481.269 272.401 480.349C272.203 480.734 271.895 481.052 271.516 481.262C271.137 481.472 270.704 481.565 270.272 481.529V481.529Z" fill="#E8C926"/>
</g>
</g>
<g id="Vector_74" style="mix-blend-mode:screen" opacity="0.6">
<path d="M269.889 479.484C269.889 479.484 270.536 478.692 271.894 479.77C271.894 479.77 270.911 478.973 269.889 479.484Z" fill="#E4E3E4"/>
</g>
<path id="Vector_75" d="M371.282 383.027C370.566 381.025 369.617 379.152 367.994 377.729C366.972 376.835 365.371 375.668 364.021 375.366C364.021 375.366 358.37 374.114 355.717 376.243L280.19 455.879C280.19 455.879 287.69 454.422 291.953 460.908C295.666 466.564 294.836 469.502 294.836 469.502C294.836 469.502 370.899 389.632 371.014 389.534C372.602 387.873 371.95 384.888 371.282 383.027Z" fill="url(#paint48_linear)"/>
<path id="Vector_76" d="M291.935 460.908C287.677 454.422 280.173 455.879 280.173 455.879C279.992 456.006 279.849 456.18 279.76 456.383C279.672 456.586 279.641 456.809 279.671 457.029C279.794 457.761 293.788 470.141 293.788 470.141C294.165 469.989 294.514 469.772 294.819 469.502C294.819 469.502 295.649 466.564 291.935 460.908Z" fill="url(#paint49_linear)"/>
<path id="Vector_77" opacity="0.4" d="M290.649 467.347C292.472 468.978 293.788 470.141 293.788 470.141C294.165 469.989 294.514 469.773 294.818 469.502C294.818 469.502 295.368 467.535 293.541 463.732C292.324 464.711 291.337 465.945 290.649 467.347V467.347Z" fill="#F2D71A"/>
<path id="Vector_78" d="M290.266 461.287C286.403 456.36 279.671 457.029 279.671 457.029L269.829 479.57C269.829 479.57 270.323 478.718 271.673 479.612C273.023 480.506 273.168 482.355 272.486 482.772C272.642 482.773 272.797 482.751 272.946 482.708C273.798 482.474 289.555 472.752 293.788 470.15C293.779 469.051 293.498 465.401 290.266 461.287Z" fill="url(#paint50_linear)"/>
<g id="Group_35">
<path id="Vector_79" d="M281.664 455.743L358.877 375.093C357.738 375.181 356.645 375.579 355.717 376.243L280.19 455.879C280.678 455.8 281.17 455.756 281.664 455.747V455.743Z" fill="url(#paint51_linear)"/>
</g>
<g id="Group_36">
<path id="Vector_80" style="mix-blend-mode:multiply" opacity="0.8" d="M294.103 465.022C295.244 467.973 294.823 469.498 294.823 469.498C294.823 469.498 370.899 389.632 371.014 389.534C372.593 387.873 371.95 384.888 371.282 383.027L294.103 465.022Z" fill="url(#paint52_linear)"/>
</g>
<g id="Group_37">
<path id="Vector_81" style="mix-blend-mode:multiply" opacity="0.8" d="M294.099 465.026C293.673 466.436 292.987 466.104 292.987 466.104C293.48 467.395 293.752 468.76 293.792 470.141C294.17 469.989 294.518 469.773 294.823 469.502C294.823 469.502 295.24 467.978 294.099 465.026Z" fill="url(#paint53_linear)"/>
</g>
<g id="Group_38">
<path id="Vector_82" style="mix-blend-mode:multiply" opacity="0.8" d="M292.966 466.104L272.444 480.421C273.015 481.333 272.997 482.47 272.486 482.781C272.642 482.781 272.797 482.76 272.946 482.717C273.798 482.482 289.555 472.76 293.788 470.158C293.744 468.77 293.466 467.399 292.966 466.104V466.104Z" fill="url(#paint54_linear)"/>
</g>
<g id="Group_39">
<path id="Vector_83" opacity="0.4" d="M281.072 456.999C281.072 456.999 280.893 455.755 281.647 455.721C281.153 455.731 280.661 455.775 280.173 455.853C279.992 455.98 279.849 456.155 279.76 456.358C279.672 456.561 279.641 456.784 279.671 457.003C280.137 456.975 280.605 456.975 281.072 457.003V456.999Z" fill="url(#paint55_radial)"/>
</g>
<g id="Group_40">
<path id="Vector_84" style="mix-blend-mode:overlay" opacity="0.5" d="M281.072 456.999C280.605 456.971 280.137 456.971 279.671 456.999L269.829 479.57C269.943 479.412 270.105 479.295 270.29 479.235C270.475 479.175 270.675 479.176 270.86 479.237L270.949 479.088L281.072 456.999Z" fill="url(#paint56_linear)"/>
</g>
<g id="Group_41">
<path id="Vector_85" style="mix-blend-mode:overlay" opacity="0.5" d="M285.995 458.072L286.421 456.505L365.183 375.804C364.808 375.62 364.414 375.477 364.008 375.378C363.39 375.252 362.766 375.16 362.139 375.102L284.781 456.028L284.317 457.497L271.673 479.604C271.934 479.778 272.159 480.001 272.337 480.259V480.259L285.995 458.072Z" fill="url(#paint57_linear)"/>
</g>
<path id="Vector_86" d="M291.199 444.048L289.027 446.34C292.195 446.484 301.739 447.949 304.017 459.946L305.776 458.098C303.766 446.25 294.814 444.334 291.199 444.048Z" fill="black"/>
<path id="Vector_87" d="M342.425 390.049L340.275 392.315C342.911 392.409 353.17 393.593 355.414 406.002L357.194 404.133C355.206 391.927 345.636 390.258 342.425 390.049Z" fill="black"/>
<g id="Group_42" opacity="0.6">
<g id="Vector_88" style="mix-blend-mode:screen" opacity="0.6">
<path d="M282.149 455.743C284.042 455.718 285.912 456.158 287.595 457.025C289.279 457.891 290.724 459.158 291.803 460.712C291.803 460.712 288.414 455.973 282.149 455.743Z" fill="#E4E3E4"/>
</g>
<g id="Vector_89" style="mix-blend-mode:screen" opacity="0.6">
<path d="M282.882 457.191C282.882 457.191 287.924 457.765 290.471 461.551C290.471 461.551 289.057 458.758 282.882 457.191Z" fill="#E4E3E4"/>
</g>
</g>
<g id="Group_43">
<path id="Vector_90" style="mix-blend-mode:screen" opacity="0.5" d="M290.879 446.118C292.788 446.17 294.661 446.649 296.36 447.519C296.36 447.519 297.467 448.418 298.638 447.008C299.81 445.599 348.226 395.875 348.226 395.875C348.226 395.875 350.427 394.402 349.226 392.894C348.026 391.387 343.643 390.339 342.336 391.348C341.029 392.358 291.382 444.853 291.382 444.853C291.382 444.853 289.985 446.059 290.879 446.118Z" fill="url(#paint58_linear)"/>
</g>
<path id="Vector_91" style="mix-blend-mode:multiply" d="M303.791 452.042C304.773 453.941 305.442 455.986 305.776 458.098L355.414 406.002C355.036 403.71 354.234 401.507 353.051 399.508L303.791 452.042Z" fill="url(#paint59_linear)"/>
</g>
<g id="pinkcrayon">
<path id="Vector_92" d="M178.469 520.878C180.173 520.486 180.326 521.534 180.326 521.534C180.08 522.216 179.676 522.831 179.146 523.327C178.772 523.618 178.329 523.808 177.859 523.878C177.39 523.948 176.911 523.896 176.468 523.727C175.944 523.075 176.855 521.27 178.469 520.878Z" fill="url(#paint60_linear)"/>
<g id="Group_44" style="mix-blend-mode:multiply">
<g id="Group_45" style="mix-blend-mode:multiply">
<path id="Vector_93" style="mix-blend-mode:multiply" d="M179.146 523.344C178.772 523.635 178.329 523.825 177.859 523.895C177.39 523.965 176.911 523.913 176.468 523.744C176.042 523.229 176.51 522.041 177.464 521.368C177.516 521.827 177.703 522.261 178.003 522.613C178.303 522.965 178.701 523.219 179.146 523.344V523.344Z" fill="url(#paint61_linear)"/>
</g>
</g>
<g id="Vector_94" style="mix-blend-mode:screen" opacity="0.6">
<path d="M180.296 521.449C180.296 521.449 179.943 520.414 178.188 520.98C178.188 520.98 179.466 520.559 180.296 521.449Z" fill="#F8F8F7"/>
</g>
<path id="Vector_95" d="M115.433 387.032C116.902 385.307 118.555 383.791 120.71 382.986C122.064 382.48 124.117 381.917 125.564 382.135C125.564 382.135 131.671 383.012 133.52 386.138L178.921 494.025C178.921 494.025 171.983 489.767 165.293 494.622C159.459 498.88 159.178 502.108 159.178 502.108C159.178 502.108 113.308 393.765 113.253 393.629C112.299 391.376 114.066 388.638 115.433 387.032Z" fill="url(#paint62_linear)"/>
<path id="Vector_96" d="M165.289 494.619C171.983 489.752 178.916 494.023 178.916 494.023C179.05 494.218 179.128 494.446 179.14 494.682C179.152 494.918 179.098 495.153 178.984 495.36C178.584 496.046 159.961 503.132 159.961 503.132C159.642 502.837 159.374 502.49 159.169 502.106C159.169 502.106 159.454 498.861 165.289 494.619Z" fill="url(#paint63_radial)"/>
<path id="Vector_97" d="M164.147 501.527C161.716 502.468 159.965 503.132 159.965 503.132C159.646 502.837 159.379 502.49 159.173 502.106C159.173 502.106 159.365 499.934 162.623 496.825C163.465 498.264 163.985 499.868 164.147 501.527V501.527Z" fill="url(#paint64_linear)"/>
<path id="Vector_98" d="M166.809 495.62C172.524 492.158 178.984 495.36 178.989 495.36L180.326 521.551C180.326 521.551 180.156 520.503 178.469 520.895C176.855 521.27 175.944 523.075 176.468 523.744C176.316 523.686 176.172 523.607 176.042 523.51C175.292 522.956 163.202 507.327 159.978 503.132C160.383 502.042 162.039 498.512 166.809 495.62Z" fill="url(#paint65_linear)"/>
<g id="Group_46">
<path id="Vector_99" opacity="0.4" d="M177.481 493.329L130.798 383.789C131.903 384.303 132.845 385.112 133.52 386.127L178.921 494.023C178.463 493.763 177.988 493.536 177.498 493.342L177.481 493.329Z" fill="url(#paint66_linear)"/>
</g>
<g id="Group_47">
<path id="Vector_100" style="mix-blend-mode:multiply" opacity="0.8" d="M161.579 497.903C159.339 500.42 159.178 502.102 159.178 502.102C159.178 502.102 113.308 393.763 113.253 393.627C112.299 391.374 114.066 388.636 115.433 387.03L161.579 497.903Z" fill="url(#paint67_linear)"/>
</g>
<g id="Group_48">
<path id="Vector_101" style="mix-blend-mode:multiply" opacity="0.6" d="M161.575 497.907C161.464 499.474 162.282 499.402 162.282 499.402C161.307 500.505 160.523 501.765 159.965 503.128C159.646 502.832 159.379 502.485 159.173 502.102C159.173 502.102 159.335 500.437 161.575 497.907Z" fill="url(#paint68_linear)"/>
</g>
<g id="Group_49">
<path id="Vector_102" style="mix-blend-mode:multiply" d="M162.282 499.406L177.4 521.406C176.489 522.1 176.072 523.242 176.468 523.744C176.316 523.686 176.172 523.607 176.042 523.51C175.292 522.956 163.202 507.327 159.978 503.132C160.532 501.77 161.311 500.511 162.282 499.406Z" fill="url(#paint69_linear)"/>
</g>
<g id="Group_50">
<path id="Vector_103" opacity="0.4" d="M177.596 494.811C177.596 494.811 178.243 493.644 177.498 493.342C177.988 493.536 178.463 493.763 178.921 494.023C179.054 494.218 179.132 494.446 179.144 494.682C179.156 494.918 179.102 495.153 178.989 495.36C178.535 495.153 178.07 494.971 177.596 494.815V494.811Z" fill="url(#paint70_radial)"/>
</g>
<g id="Group_51">
<path id="Vector_104" opacity="0.4" d="M177.596 494.815C178.07 494.971 178.535 495.153 178.989 495.36L180.326 521.551C180.272 521.35 180.155 521.172 179.992 521.043C179.83 520.914 179.631 520.839 179.423 520.831L179.389 520.644L177.596 494.815Z" fill="url(#paint71_linear)"/>
</g>
<g id="Group_52">
<path id="Vector_105" style="mix-blend-mode:overlay" opacity="0.5" d="M172.281 494.019L172.439 492.29L124.223 382.116C124.669 382.062 125.119 382.062 125.564 382.116C126.227 382.222 126.884 382.364 127.532 382.541L174.27 492.414L174.172 494.053L178.469 520.882C178.141 520.966 177.832 521.11 177.558 521.308V521.308L172.281 494.019Z" fill="url(#paint72_linear)"/>
</g>
<path id="Vector_106" d="M172.371 478.07L173.674 481.171C170.459 480.123 160.383 477.99 153.595 489.109L152.534 486.6C159.003 475.537 168.657 477.014 172.371 478.07Z" fill="black"/>
<path id="Vector_107" d="M142.876 407.974L172.371 478.071C168.657 476.993 159.003 475.515 152.534 486.588C144.728 468.144 131.667 437.243 122.617 415.92C129.538 404.38 140.21 407.071 142.876 407.974Z" fill="url(#paint73_linear)"/>
<g id="Group_53">
<path id="Vector_108" style="mix-blend-mode:screen" opacity="0.5" d="M172.447 480.255C172.447 480.255 169.466 479.144 166.485 479.591C166.485 479.591 165.042 480.068 164.403 478.22C163.764 476.371 134.167 408.536 134.167 408.536C134.167 408.536 132.527 406.232 134.29 405.184C136.053 404.137 140.823 404.759 141.747 406.236C142.671 407.714 172.447 478.807 172.447 478.807C172.447 478.807 173.389 480.536 172.447 480.255Z" fill="url(#paint74_linear)"/>
</g>
<path id="Vector_109" d="M141.585 404.903L142.863 407.974C140.197 407.071 129.525 404.38 122.605 415.933C122.238 415.081 121.881 414.23 121.532 413.378C128.124 401.965 138.298 403.903 141.585 404.903Z" fill="black"/>
<g id="Group_54" opacity="0.6">
<g id="Vector_110" style="mix-blend-mode:screen" opacity="0.6">
<path d="M177 493.142C175.121 492.407 173.09 492.144 171.086 492.376C169.081 492.607 167.164 493.326 165.502 494.47C165.502 494.47 170.659 491.012 177 493.142Z" fill="#F8F8F7"/>
</g>
<g id="Vector_111" style="mix-blend-mode:screen" opacity="0.6">
<path d="M175.722 494.313C175.722 494.313 170.471 492.988 166.507 495.808C166.507 495.808 168.972 493.551 175.722 494.313Z" fill="#F8F8F7"/>
</g>
</g>
</g>
</g>
</g>
<defs>
<linearGradient id="paint0_linear" x1="184.507" y1="666.993" x2="185.784" y2="664.607" gradientUnits="userSpaceOnUse">
<stop stop-color="#5C0000"/>
<stop offset="0.65" stop-color="#BD0000"/>
<stop offset="0.91" stop-color="#EF0000"/>
</linearGradient>
<linearGradient id="paint1_linear" x1="9000.52" y1="-3538.02" x2="8962.67" y2="-3606.67" gradientUnits="userSpaceOnUse">
<stop stop-color="#5C0000"/>
<stop offset="0.65" stop-color="#BD0000"/>
<stop offset="0.91" stop-color="#EF0000"/>
</linearGradient>
<linearGradient id="paint2_linear" x1="1022.96" y1="1836.27" x2="1025.13" y2="1836.27" gradientUnits="userSpaceOnUse">
<stop stop-color="#5C0000"/>
<stop offset="0.65" stop-color="#BD0000"/>
<stop offset="0.91" stop-color="#EF0000"/>
</linearGradient>
<linearGradient id="paint3_linear" x1="447951" y1="-53022" x2="447713" y2="-54450.5" gradientUnits="userSpaceOnUse">
<stop stop-color="#5C0000"/>
<stop offset="0.65" stop-color="#BD0000"/>
<stop offset="0.91" stop-color="#EF0000"/>
</linearGradient>
<linearGradient id="paint4_linear" x1="25032.8" y1="-33306.3" x2="25210.5" y2="-33306.3" gradientUnits="userSpaceOnUse">
<stop stop-color="#5C0000"/>
<stop offset="0.65" stop-color="#BD0000"/>
<stop offset="0.91" stop-color="#EF0000"/>
</linearGradient>
<linearGradient id="paint5_linear" x1="18314.3" y1="-7501.01" x2="18356.1" y2="-7501.01" gradientUnits="userSpaceOnUse">
<stop stop-color="#5C0000"/>
<stop offset="0.65" stop-color="#BD0000"/>
<stop offset="0.91" stop-color="#EF0000"/>
</linearGradient>
<linearGradient id="paint6_linear" x1="104317" y1="-31402.3" x2="103867" y2="-32174.4" gradientUnits="userSpaceOnUse">
<stop stop-color="#5C0000"/>
<stop offset="0.65" stop-color="#BD0000"/>
<stop offset="0.91" stop-color="#EF0000"/>
</linearGradient>
<linearGradient id="paint7_linear" x1="424857" y1="-21093.1" x2="424865" y2="-20988.3" gradientUnits="userSpaceOnUse">
<stop stop-color="#5C0000"/>
<stop offset="0.65" stop-color="#BD0000"/>
<stop offset="0.91" stop-color="#EF0000"/>
</linearGradient>
<linearGradient id="paint8_linear" x1="440284" y1="-23809.4" x2="440251" y2="-24203" gradientUnits="userSpaceOnUse">
<stop stop-color="#5C0000"/>
<stop offset="0.65" stop-color="#BD0000"/>
<stop offset="0.91" stop-color="#EF0000"/>
</linearGradient>
<linearGradient id="paint9_linear" x1="15872.8" y1="-5334.08" x2="15886.9" y2="-5334.08" gradientUnits="userSpaceOnUse">
<stop stop-color="#5C0000"/>
<stop offset="0.65" stop-color="#BD0000"/>
<stop offset="0.91" stop-color="#EF0000"/>
</linearGradient>
<linearGradient id="paint10_linear" x1="95226.3" y1="-16823.9" x2="95200.6" y2="-16986.6" gradientUnits="userSpaceOnUse">
<stop stop-color="#5C0000"/>
<stop offset="0.65" stop-color="#BD0000"/>
<stop offset="0.91" stop-color="#EF0000"/>
</linearGradient>
<linearGradient id="paint11_linear" x1="8369.21" y1="-1843.11" x2="8379.62" y2="-1843.11" gradientUnits="userSpaceOnUse">
<stop stop-color="#5C0000"/>
<stop offset="0.65" stop-color="#BD0000"/>
<stop offset="0.91" stop-color="#EF0000"/>
</linearGradient>
<linearGradient id="paint12_linear" x1="90975.9" y1="-10769.9" x2="90963.6" y2="-10801.5" gradientUnits="userSpaceOnUse">
<stop stop-color="#5C0000"/>
<stop offset="0.65" stop-color="#BD0000"/>
<stop offset="0.91" stop-color="#EF0000"/>
</linearGradient>
<linearGradient id="paint13_linear" x1="525074" y1="-24039.6" x2="525163" y2="-22893.5" gradientUnits="userSpaceOnUse">
<stop stop-color="#5C0000"/>
<stop offset="0.65" stop-color="#BD0000"/>
<stop offset="0.91" stop-color="#EF0000"/>
</linearGradient>
<linearGradient id="paint14_linear" x1="290615" y1="-46505.4" x2="290104" y2="-48568.8" gradientUnits="userSpaceOnUse">
<stop stop-color="#5C0000"/>
<stop offset="0.65" stop-color="#BD0000"/>
<stop offset="0.91" stop-color="#EF0000"/>
</linearGradient>
<linearGradient id="paint15_linear" x1="2130.91" y1="7783.21" x2="2144.72" y2="7783.21" gradientUnits="userSpaceOnUse">
<stop stop-color="#5C0000"/>
<stop offset="0.65" stop-color="#BD0000"/>
<stop offset="0.91" stop-color="#EF0000"/>
</linearGradient>
<linearGradient id="paint16_linear" x1="1440.19" y1="6461.55" x2="1445.97" y2="6461.55" gradientUnits="userSpaceOnUse">
<stop stop-color="#5C0000"/>
<stop offset="0.65" stop-color="#BD0000"/>
<stop offset="0.91" stop-color="#EF0000"/>
</linearGradient>
<linearGradient id="paint17_linear" x1="295085" y1="-25871.6" x2="295143" y2="-25429.7" gradientUnits="userSpaceOnUse">
<stop stop-color="#5C0000"/>
<stop offset="0.65" stop-color="#BD0000"/>
<stop offset="0.91" stop-color="#EF0000"/>
</linearGradient>
<linearGradient id="paint18_linear" x1="236.016" y1="629.755" x2="235.045" y2="622.621" gradientUnits="userSpaceOnUse">
<stop stop-color="#EB5B1E"/>
<stop offset="0.36" stop-color="#F59D17"/>
<stop offset="0.68" stop-color="#FCC40D"/>
<stop offset="0.93" stop-color="#FBBB10"/>
</linearGradient>
<linearGradient id="paint19_linear" x1="236.41" y1="627.531" x2="235.046" y2="624.06" gradientUnits="userSpaceOnUse">
<stop offset="0.37" stop-color="#C55E4A"/>
<stop offset="0.9" stop-color="white"/>
</linearGradient>
<linearGradient id="paint20_linear" x1="316.161" y1="588.701" x2="306.928" y2="570.458" gradientUnits="userSpaceOnUse">
<stop stop-color="#EB5B1E"/>
<stop offset="0.36" stop-color="#F59D17"/>
<stop offset="0.93" stop-color="#FBBB10"/>
</linearGradient>
<linearGradient id="paint21_linear" x1="30870.8" y1="-31455.5" x2="31068.9" y2="-31780.5" gradientUnits="userSpaceOnUse">
<stop stop-color="#EB5B1E"/>
<stop offset="0.36" stop-color="#F59D17"/>
<stop offset="0.68" stop-color="#FCC40D"/>
<stop offset="0.93" stop-color="#FBBB10"/>
</linearGradient>
<linearGradient id="paint22_linear" x1="71821" y1="-38670.6" x2="71230.5" y2="-39567.7" gradientUnits="userSpaceOnUse">
<stop stop-color="#EB5B1E"/>
<stop offset="0.36" stop-color="#F59D17"/>
<stop offset="0.68" stop-color="#FCC40D"/>
<stop offset="0.93" stop-color="#FBBB10"/>
</linearGradient>
<linearGradient id="paint23_linear" x1="305.661" y1="573.438" x2="307.392" y2="576.625" gradientUnits="userSpaceOnUse">
<stop stop-color="#EBEBEB"/>
<stop offset="0.9" stop-color="#EBEBEB"/>
</linearGradient>
<linearGradient id="paint24_linear" x1="288838" y1="-106737" x2="288154" y2="-108516" gradientUnits="userSpaceOnUse">
<stop offset="0.37" stop-color="#C55E4A"/>
<stop offset="0.9" stop-color="white"/>
</linearGradient>
<linearGradient id="paint25_linear" x1="5594.4" y1="-7797.57" x2="5580.59" y2="-7917.57" gradientUnits="userSpaceOnUse">
<stop offset="0.37" stop-color="#C55E4A"/>
<stop offset="0.9" stop-color="white"/>
</linearGradient>
<linearGradient id="paint26_linear" x1="67555.6" y1="-15974.4" x2="67540.8" y2="-16086.5" gradientUnits="userSpaceOnUse">
<stop offset="0.37" stop-color="#C55E4A"/>
<stop offset="0.9" stop-color="white"/>
</linearGradient>
<radialGradient id="paint27_radial" cx="0" cy="0" r="1" gradientUnits="userSpaceOnUse" gradientTransform="translate(253.981 605.163) rotate(5.73009) scale(3.77737)">
<stop offset="0.28" stop-color="#EBEBEB"/>
<stop offset="0.9" stop-color="#EBEBEB"/>
</radialGradient>
<linearGradient id="paint28_linear" x1="244.475" y1="613.869" x2="243.479" y2="613.007" gradientUnits="userSpaceOnUse">
<stop offset="0.1" stop-color="#EBEBEB"/>
<stop offset="0.91" stop-color="#EBEBEB"/>
</linearGradient>
<linearGradient id="paint29_linear" x1="342563" y1="-135380" x2="345421" y2="-129145" gradientUnits="userSpaceOnUse">
<stop stop-color="#EBEBEB"/>
<stop offset="0.9" stop-color="#EBEBEB"/>
</linearGradient>
<linearGradient id="paint30_linear" x1="313.89" y1="594.521" x2="299.638" y2="568.969" gradientUnits="userSpaceOnUse">
<stop stop-color="#B94B16"/>
<stop offset="0.45" stop-color="#F07E20"/>
<stop offset="0.8" stop-color="#FFE100"/>
<stop offset="0.93" stop-color="#FBBB10"/>
</linearGradient>
<linearGradient id="paint31_linear" x1="206104" y1="-74757.2" x2="206603" y2="-73427.9" gradientUnits="userSpaceOnUse">
<stop stop-color="#EBEBEB"/>
<stop offset="0.9" stop-color="#EBEBEB"/>
</linearGradient>
<linearGradient id="paint32_linear" x1="313.285" y1="594.071" x2="309.152" y2="586.718" gradientUnits="userSpaceOnUse">
<stop offset="0.03" stop-color="#FFDE54"/>
<stop offset="0.89" stop-color="white"/>
</linearGradient>
<linearGradient id="paint33_linear" x1="202.398" y1="621.79" x2="205.047" y2="620.691" gradientUnits="userSpaceOnUse">
<stop offset="0.01" stop-color="#F6E700"/>
<stop offset="0.77" stop-color="#E8C926"/>
</linearGradient>
<linearGradient id="paint34_linear" x1="131.494" y1="580.3" x2="141.795" y2="564.177" gradientUnits="userSpaceOnUse">
<stop offset="0.01" stop-color="#F6D600"/>
<stop offset="0.52" stop-color="#EBEA8F"/>
<stop offset="0.82" stop-color="#F6F7E0"/>
<stop offset="0.99" stop-color="#FFF59B"/>
</linearGradient>
<linearGradient id="paint35_linear" x1="183.648" y1="605.467" x2="182.749" y2="596.813" gradientUnits="userSpaceOnUse">
<stop offset="0.01" stop-color="#F2D71A"/>
<stop offset="0.8" stop-color="#EBEA8F"/>
</linearGradient>
<linearGradient id="paint36_linear" x1="187.902" y1="619.478" x2="198.348" y2="606.033" gradientUnits="userSpaceOnUse">
<stop stop-color="#F6D800"/>
<stop offset="0.52" stop-color="#FFF48F"/>
<stop offset="0.99" stop-color="#E7F0D6"/>
</linearGradient>
<linearGradient id="paint37_linear" x1="143.089" y1="566.483" x2="141.189" y2="569.277" gradientUnits="userSpaceOnUse">
<stop offset="0.1" stop-color="#EBEBEB"/>
<stop offset="0.72" stop-color="#EBEBEB"/>
</linearGradient>
<linearGradient id="paint38_linear" x1="127.847" y1="586.588" x2="133.92" y2="577.449" gradientUnits="userSpaceOnUse">
<stop offset="0.37" stop-color="#D0B861"/>
<stop offset="0.9" stop-color="white"/>
</linearGradient>
<linearGradient id="paint39_linear" x1="4163.24" y1="-11723.3" x2="4155.27" y2="-11776.6" gradientUnits="userSpaceOnUse">
<stop offset="0.37" stop-color="#D0B861"/>
<stop offset="0.9" stop-color="white"/>
</linearGradient>
<linearGradient id="paint40_linear" x1="59490.1" y1="-28823.7" x2="59451.3" y2="-29025.4" gradientUnits="userSpaceOnUse">
<stop offset="0.37" stop-color="#D0B861"/>
<stop offset="0.9" stop-color="white"/>
</linearGradient>
<radialGradient id="paint41_radial" cx="0" cy="0" r="1" gradientUnits="userSpaceOnUse" gradientTransform="translate(-4657.83 -1383.41) rotate(180) scale(18.3448 10.7806)">
<stop offset="0.28" stop-color="#EBEBEB"/>
<stop offset="0.9" stop-color="#EBEBEB"/>
</radialGradient>
<linearGradient id="paint42_linear" x1="-38568.7" y1="-48033.8" x2="-38517.8" y2="-48062.6" gradientUnits="userSpaceOnUse">
<stop stop-color="#EBEBEB"/>
<stop offset="0.9" stop-color="#EBEBEB"/>
</linearGradient>
<linearGradient id="paint43_linear" x1="-292545" y1="-215302" x2="-295839" y2="-209503" gradientUnits="userSpaceOnUse">
<stop stop-color="#EBEBEB"/>
<stop offset="0.9" stop-color="#EBEBEB"/>
</linearGradient>
<linearGradient id="paint44_linear" x1="133.392" y1="585.456" x2="151.35" y2="559.691" gradientUnits="userSpaceOnUse">
<stop offset="0.01" stop-color="#E0C600"/>
<stop offset="0.51" stop-color="#FFF591"/>
<stop offset="1" stop-color="#EDE65C"/>
</linearGradient>
<linearGradient id="paint45_linear" x1="-178060" y1="-117131" x2="-178635" y2="-115865" gradientUnits="userSpaceOnUse">
<stop stop-color="#EBEBEB"/>
<stop offset="0.9" stop-color="#EBEBEB"/>
</linearGradient>
<linearGradient id="paint46_linear" x1="-157791" y1="-118735" x2="-157347" y2="-119553" gradientUnits="userSpaceOnUse">
<stop offset="0.03" stop-color="#FFDE54"/>
<stop offset="0.89" stop-color="white"/>
</linearGradient>
<linearGradient id="paint47_linear" x1="272.385" y1="481.162" x2="269.56" y2="480.673" gradientUnits="userSpaceOnUse">
<stop offset="0.01" stop-color="#008800"/>
<stop offset="0.51" stop-color="#00B200"/>
<stop offset="1" stop-color="#00C900"/>
</linearGradient>
<linearGradient id="paint48_linear" x1="257159" y1="-255046" x2="254846" y2="-258564" gradientUnits="userSpaceOnUse">
<stop offset="0.01" stop-color="#008800"/>
<stop offset="0.51" stop-color="#00B200"/>
<stop offset="1" stop-color="#00C900"/>
</linearGradient>
<linearGradient id="paint49_linear" x1="41049.2" y1="-37618.8" x2="41077.9" y2="-37911.9" gradientUnits="userSpaceOnUse">
<stop offset="0.01" stop-color="#008800"/>
<stop offset="0.51" stop-color="#00B200"/>
<stop offset="1" stop-color="#00C900"/>
</linearGradient>
<linearGradient id="paint50_linear" x1="64132.1" y1="-66833.1" x2="63489.7" y2="-67601.5" gradientUnits="userSpaceOnUse">
<stop offset="0.01" stop-color="#008800"/>
<stop offset="0.51" stop-color="#00B200"/>
<stop offset="1" stop-color="#00C900"/>
</linearGradient>
<linearGradient id="paint51_linear" x1="163954" y1="-261807" x2="164423" y2="-261380" gradientUnits="userSpaceOnUse">
<stop offset="0.1" stop-color="#EBEBEB"/>
<stop offset="0.72" stop-color="#EBEBEB"/>
</linearGradient>
<linearGradient id="paint52_linear" x1="162022" y1="-273121" x2="160395" y2="-274530" gradientUnits="userSpaceOnUse">
<stop offset="0.37" stop-color="#D0B861"/>
<stop offset="0.9" stop-color="white"/>
</linearGradient>
<linearGradient id="paint53_linear" x1="1989.59" y1="-12393.3" x2="1970.36" y2="-12446" gradientUnits="userSpaceOnUse">
<stop offset="0.37" stop-color="#D0B861"/>
<stop offset="0.9" stop-color="white"/>
</linearGradient>
<linearGradient id="paint54_linear" x1="45789.8" y1="-53075.8" x2="45650.3" y2="-53321.6" gradientUnits="userSpaceOnUse">
<stop offset="0.37" stop-color="#D0B861"/>
<stop offset="0.9" stop-color="white"/>
</linearGradient>
<radialGradient id="paint55_radial" cx="0" cy="0" r="1" gradientUnits="userSpaceOnUse" gradientTransform="translate(4330.94 -2690.19) rotate(-12.7099) scale(16.4926 10.6393)">
<stop offset="0.28" stop-color="#EBEBEB"/>
<stop offset="0.9" stop-color="#EBEBEB"/>
</radialGradient>
<linearGradient id="paint56_linear" x1="15846.9" y1="-62757.2" x2="15802.4" y2="-62762.4" gradientUnits="userSpaceOnUse">
<stop stop-color="#EBEBEB"/>
<stop offset="0.9" stop-color="#EBEBEB"/>
</linearGradient>
<linearGradient id="paint57_linear" x1="186918" y1="-334896" x2="192829" y2="-330599" gradientUnits="userSpaceOnUse">
<stop stop-color="#EBEBEB"/>
<stop offset="0.9" stop-color="#EBEBEB"/>
</linearGradient>
<linearGradient id="paint58_linear" x1="124668" y1="-185901" x2="125820" y2="-184801" gradientUnits="userSpaceOnUse">
<stop stop-color="#EBEBEB"/>
<stop offset="0.9" stop-color="#EBEBEB"/>
</linearGradient>
<linearGradient id="paint59_linear" x1="105883" y1="-183758" x2="105074" y2="-184407" gradientUnits="userSpaceOnUse">
<stop offset="0.03" stop-color="#FFDE54"/>
<stop offset="0.89" stop-color="white"/>
</linearGradient>
<linearGradient id="paint60_linear" x1="185.936" y1="526.355" x2="188.923" y2="526.936" gradientUnits="userSpaceOnUse">
<stop stop-color="#7F0078"/>
<stop offset="0.65" stop-color="#C30078"/>
<stop offset="0.91" stop-color="#D40078"/>
</linearGradient>
<linearGradient id="paint61_linear" x1="12082.7" y1="-4041.21" x2="12041.6" y2="-4128.63" gradientUnits="userSpaceOnUse">
<stop stop-color="#7F0078"/>
<stop offset="0.65" stop-color="#C30078"/>
<stop offset="0.91" stop-color="#D40078"/>
</linearGradient>
<linearGradient id="paint62_linear" x1="288211" y1="-228038" x2="284837" y2="-230940" gradientUnits="userSpaceOnUse">
<stop stop-color="#7F0078"/>
<stop offset="0.65" stop-color="#C30078"/>
<stop offset="0.91" stop-color="#D40078"/>
</linearGradient>
<radialGradient id="paint63_radial" cx="0" cy="0" r="1" gradientUnits="userSpaceOnUse" gradientTransform="translate(-58364.9 -61030.4) rotate(-146.47) scale(370.079 200.909)">
<stop stop-color="#7F0078"/>
<stop offset="0.65" stop-color="#C30078"/>
<stop offset="0.91" stop-color="#D40078"/>
</radialGradient>
<linearGradient id="paint64_linear" x1="21254.4" y1="-11023.2" x2="21304.6" y2="-11023.2" gradientUnits="userSpaceOnUse">
<stop stop-color="#7F0078"/>
<stop offset="0.65" stop-color="#C30078"/>
<stop offset="0.91" stop-color="#D40078"/>
</linearGradient>
<linearGradient id="paint65_linear" x1="86238.2" y1="-53160.4" x2="85311.3" y2="-53902.4" gradientUnits="userSpaceOnUse">
<stop stop-color="#7F0078"/>
<stop offset="0.65" stop-color="#C30078"/>
<stop offset="0.91" stop-color="#D40078"/>
</linearGradient>
<linearGradient id="paint66_linear" x1="165.872" y1="442.609" x2="162.548" y2="443.972" gradientUnits="userSpaceOnUse">
<stop offset="0.1" stop-color="white"/>
<stop offset="0.72" stop-color="white"/>
</linearGradient>
<linearGradient id="paint67_linear" x1="212735" y1="-217431" x2="211028" y2="-218465" gradientUnits="userSpaceOnUse">
<stop stop-color="#7F0078"/>
<stop offset="0.65" stop-color="#C30078"/>
<stop offset="0.91" stop-color="#D40078"/>
</linearGradient>
<linearGradient id="paint68_linear" x1="13362.7" y1="-9029.58" x2="13375" y2="-9029.58" gradientUnits="userSpaceOnUse">
<stop stop-color="#7F0078"/>
<stop offset="0.65" stop-color="#C30078"/>
<stop offset="0.91" stop-color="#D40078"/>
</linearGradient>
<linearGradient id="paint69_linear" x1="73718.5" y1="-43382.9" x2="73526" y2="-43737.8" gradientUnits="userSpaceOnUse">
<stop stop-color="#7F0078"/>
<stop offset="0.65" stop-color="#C30078"/>
<stop offset="0.91" stop-color="#D40078"/>
</linearGradient>
<radialGradient id="paint70_radial" cx="0" cy="0" r="1" gradientUnits="userSpaceOnUse" gradientTransform="translate(184.98 499.794) rotate(-146.47) scale(3.7484)">
<stop offset="0.28" stop-color="white"/>
<stop offset="0.9" stop-color="white"/>
</radialGradient>
<linearGradient id="paint71_linear" x1="18270.7" y1="-44923.8" x2="18281.3" y2="-44917.8" gradientUnits="userSpaceOnUse">
<stop offset="0.28" stop-color="white"/>
<stop offset="0.9" stop-color="white"/>
</linearGradient>
<linearGradient id="paint72_linear" x1="175.292" y1="451.008" x2="144.015" y2="461.469" gradientUnits="userSpaceOnUse">
<stop stop-color="white"/>
<stop offset="0.9" stop-color="white"/>
</linearGradient>
<linearGradient id="paint73_linear" x1="217338" y1="-149808" x2="213547" y2="-153210" gradientUnits="userSpaceOnUse">
<stop stop-color="#7F0078"/>
<stop offset="0.65" stop-color="#C30078"/>
<stop offset="0.91" stop-color="#D40078"/>
</linearGradient>
<linearGradient id="paint74_linear" x1="170593" y1="-146624" x2="171899" y2="-145639" gradientUnits="userSpaceOnUse">
<stop stop-color="white"/>
<stop offset="0.9" stop-color="white"/>
</linearGradient>
</defs>
</svg>
