<svg width="1440" height="1024" viewBox="0 0 1440 1024" fill="none" xmlns="http://www.w3.org/2000/svg">
<g id="Ehandwithcrayondesktop">
<g id="hand">
<path id="Vector" d="M540.521 347.063C557.867 354.24 561.567 376.73 562.737 395.468C563.877 413.873 565.016 432.282 566.155 450.692C566.796 460.903 567.488 471.362 571.598 480.727C575.708 490.092 583.962 498.833 594.173 499.372C637.931 501.661 702.041 396.212 712.09 382.745C726.898 362.939 737.587 340.432 748.183 318.096L772.561 266.666C778.961 253.156 789.966 237.221 804.543 240.51C813.43 242.518 819.24 251.695 820.206 260.753C821.171 269.81 818.318 278.808 815.353 287.421C801.279 328.011 784.122 367.465 764.033 405.44C761.316 410.567 758.436 416.437 755.36 422.64C769.527 408.379 782.755 396.152 787.83 389.376C802.638 369.569 813.327 347.063 823.923 324.727L848.301 273.288C854.701 259.787 865.706 243.851 880.284 247.141C889.17 249.149 894.989 258.326 895.946 267.383C896.903 276.441 894.058 285.438 891.093 294.051C877.019 334.641 859.862 374.096 839.773 412.07C829.75 431.091 817.557 459.408 800.972 481.581C815.848 469.414 829.417 459.135 834.945 453.111C851.65 434.885 864.544 413.557 877.31 392.384L906.712 343.679C914.403 330.862 926.972 316.122 941.156 320.856C949.795 323.744 954.665 333.451 954.716 342.568C954.768 351.685 951.025 360.341 947.214 368.612C929.27 407.619 868.039 518.144 855.068 535.464C856.316 536.968 853.872 533.918 855.068 535.464C865.869 526.791 874.977 519.563 879.258 514.897C895.972 496.671 908.857 475.344 921.631 454.179L951.034 405.474C958.724 392.657 971.293 377.926 985.469 382.66C994.107 385.539 998.978 395.255 999.029 404.363C999.08 413.472 995.338 422.136 991.527 430.407C973.583 469.414 945.556 535.071 922.853 571.514C848.993 690.021 719.31 822.19 697.239 841.509C656.276 877.397 517.399 963.698 469.216 924.076C390.605 859.419 483.298 673.794 494.619 671.308C486.673 663.293 481.093 652.843 477.359 642.085C468.532 616.639 468.814 589.014 470.369 562.124C473.352 509.864 480.623 457.955 487.843 406.106C489.971 390.914 492.312 375.132 500.908 362.426C509.504 349.72 526.346 341.192 540.521 347.063Z" fill="#B59674"/>
<path id="Vector_2" d="M789.599 261.505L765.212 312.935C754.626 335.279 743.928 357.786 729.128 377.593C719.139 390.948 656.003 494.757 612.28 494.236C652.747 471.029 698.863 395.605 707.279 384.369C722.087 364.562 732.777 342.055 743.364 319.711L767.742 268.28C774.15 254.78 785.147 238.844 799.733 242.134C800.462 242.308 801.178 242.531 801.878 242.8C796.802 247.995 792.666 255.028 789.599 261.505Z" fill="#887157"/>
<path id="Vector_3" d="M923.75 338.501L894.348 387.205C881.573 408.356 867.418 428.643 851.975 447.933C812.763 496.953 801.561 489.528 794.538 484.888C801.006 476.224 805.646 480.812 835.552 448.514C849.694 431.732 861.186 412.797 872.508 393.973L901.91 345.268C909.6 332.451 922.153 317.729 936.32 322.437C931.364 326.983 927.091 332.921 923.75 338.501Z" fill="#887157"/>
<path id="Vector_4" d="M865.339 268.161C857.216 285.313 849.087 302.456 840.952 319.591C830.366 341.936 819.676 364.442 804.868 384.249C799.741 391.042 759.641 437.662 751.438 425.178C754.523 418.966 765.358 410.814 769.553 406.773C778.841 397.801 789.847 383.292 794.034 374.679C803.501 359.239 811.337 342.756 819.104 326.359C827.238 309.218 835.367 292.075 843.49 274.928C849.89 261.428 860.887 245.492 875.473 248.782C876.201 248.957 876.917 249.177 877.618 249.439C872.542 254.626 868.406 261.658 865.339 268.161Z" fill="#887157"/>
<path id="Vector_5" d="M872.116 530.262C871.499 529.516 871.807 529.885 872.116 530.262V530.262Z" fill="#27282D"/>
<path id="Vector_6" d="M968.106 400.262L938.704 448.966C925.938 470.132 913.07 491.459 896.331 509.685C892.058 514.35 882.958 521.571 872.166 530.192C867.27 534.952 850.3 536.977 850.292 536.977C855.615 529.876 890.862 500.388 906.054 473.379C909.711 467.517 913.292 461.596 916.855 455.691L946.257 406.986C953.947 394.169 966.499 379.455 980.675 384.164C975.702 388.744 971.43 394.691 968.106 400.262Z" fill="#887157"/>
<path id="Vector_7" d="M872.098 530.286C872.406 530.655 872.723 531.04 872.098 530.286V530.286Z" fill="#27282D"/>
<path id="Vector_8" d="M531.327 346.875C527.349 349.721 523.902 353.243 521.142 357.282C512.546 369.988 510.205 385.77 508.077 400.962C500.84 452.803 493.551 504.72 490.603 556.98C489.065 583.87 488.766 611.495 497.593 636.941C501.327 647.699 506.906 658.149 514.853 666.164C309.311 934.082 661.608 886.523 695.146 841.783C660.967 878.029 634.479 895.298 610.126 918.745C536.505 989.666 405.515 914.814 372.396 827.257C356.024 783.978 453.81 713.433 493.021 672.931C485.075 664.916 479.495 654.466 475.761 643.708C466.934 618.262 467.216 590.637 468.772 563.747C471.754 511.488 479.025 459.57 486.245 407.73C488.373 392.537 490.714 376.755 499.31 364.049C506.402 353.556 519.125 345.918 531.327 346.875Z" fill="#887157"/>
<path id="Vector_9" d="M691.591 779.338C676.724 790.446 655.422 792.258 638.913 783.747C614.57 771.204 604.299 741.203 581.954 725.37C574.093 719.799 565.019 716.201 556.842 711.117C548.664 706.033 541.043 698.856 538.821 689.482C536.531 679.81 540.35 669.881 541.666 660.029C544.23 640.598 537.018 621.398 531.045 602.728C525.073 584.058 520.339 563.422 527.627 545.239C529.798 539.831 533.122 534.687 538.018 531.568C549.664 524.023 565.95 530.423 574.854 541.061C585.74 554.075 589.106 571.719 597.617 586.348C605.231 599.397 616.703 609.765 630.454 616.024C648.697 624.261 669.666 626.337 682.953 643.076C691.25 653.526 690.788 665.224 692.694 677.759C698.017 712.937 730.632 750.081 691.591 779.338Z" fill="#C4A380"/>
<path id="Vector_10" d="M881.138 599.823C861.032 618.177 844.251 639.838 825.35 659.439C806.449 679.041 784.669 696.976 758.701 705.128C750.225 707.785 740.92 709.331 732.529 706.392C721.164 702.436 713.859 690.901 711.637 679.16C709.416 667.42 711.441 655.235 713.705 643.452C715.969 631.669 718.481 619.706 717.208 607.769C715.764 594.32 709.595 581.819 702.4 570.361C694.061 557.082 684.166 544.641 677.98 530.201C674.562 522.237 672.323 513.684 672.315 505.02C672.19 499.212 673.419 493.455 675.903 488.204C682.602 474.788 699.17 468.32 714.047 470.191C728.923 472.063 742.142 480.83 752.882 491.297C763.623 501.764 772.415 514.034 782.481 525.151C794.086 537.967 807.338 549.189 821.889 558.526C841.038 570.814 856.606 570.062 878.284 570.54C902.064 571.053 894.134 587.954 881.138 599.823Z" fill="#C4A380"/>
</g>
<g id="orangecrayon">
<path id="Vector_11" d="M788.226 599.689C786.079 597.238 784.675 598.649 784.675 598.649C784.288 599.958 784.22 601.342 784.478 602.683C784.731 603.537 785.2 604.312 785.839 604.933C786.479 605.554 787.267 605.999 788.129 606.226C789.699 605.78 790.256 602.019 788.226 599.689Z" fill="#F7A516"/>
<path id="Vector_12" d="M1031.43 464.243C1031.08 459.992 1030.21 455.867 1027.81 452.268C1026.29 450.004 1023.79 446.911 1021.34 445.624C1021.34 445.624 1011.03 440.263 1004.79 443.012L817.054 558.131C817.054 558.131 832.345 559.203 837.238 573.987C841.498 586.876 838.363 592.14 838.363 592.14C838.363 592.14 1027.26 476.845 1027.53 476.715C1031.47 474.321 1031.76 468.197 1031.43 464.243Z" fill="#F7A516"/>
<path id="Vector_13" d="M837.205 573.978C832.32 559.197 817.021 558.123 817.021 558.123C816.603 558.275 816.236 558.539 815.959 558.886C815.682 559.233 815.506 559.649 815.45 560.09C815.309 561.574 836.001 592.834 836.001 592.834C836.812 592.735 837.599 592.497 838.33 592.131C838.33 592.131 841.465 586.867 837.205 573.978Z" fill="#F7A516"/>
<path id="Vector_14" d="M833.773 573.846C828.846 562.291 815.45 560.09 815.45 560.09L784.67 598.665C784.67 598.665 786.07 597.271 788.222 599.705C790.374 602.14 789.695 605.797 788.157 606.252C788.458 606.334 788.77 606.372 789.082 606.367C790.854 606.355 826.441 595.695 835.996 592.85C836.55 590.717 837.901 583.497 833.773 573.846Z" fill="#F7A516"/>
<path id="Vector_15" style="mix-blend-mode:multiply" opacity="0.8" d="M839.27 583.077C839.949 589.389 838.34 592.125 838.34 592.125C838.34 592.125 1027.26 476.845 1027.53 476.715C1031.45 474.316 1031.76 468.197 1031.43 464.243L839.27 583.077Z" fill="#D8C3AD"/>
<path id="Vector_16" style="mix-blend-mode:multiply" opacity="0.8" d="M836.504 584.583L789.296 601.674C789.928 603.736 789.305 605.931 788.153 606.268C788.454 606.35 788.765 606.389 789.077 606.383C790.85 606.372 826.437 595.711 835.992 592.867C836.627 590.154 836.801 587.353 836.504 584.583Z" fill="#D8C3AD"/>
<path id="Vector_17" style="mix-blend-mode:overlay" opacity="0.5" d="M827.164 565.396L828.804 562.58L1023.36 447.078C1022.73 446.525 1022.04 446.044 1021.3 445.642C1020.17 445.077 1019.01 444.574 1017.82 444.135L825.874 560.804L824.211 563.411L788.226 599.689C788.641 600.163 788.962 600.711 789.173 601.305L827.164 565.396Z" fill="white"/>
<path id="Vector_18" d="M844.533 540.92L839.134 544.232C845.199 546.158 862.934 553.954 861.12 578.387L865.489 575.718C867.745 551.713 851.392 543.35 844.533 540.92Z" fill="black"/>
<path id="Vector_19" d="M971.857 462.868L966.512 466.142C971.572 467.692 990.84 475.314 988.745 500.53L993.166 497.832C995.65 473.144 977.971 464.939 971.857 462.868Z" fill="black"/>
</g>
<g id="greencrayon">
<path id="Vector_20" d="M908.735 295.122C905.79 293.727 905.062 295.58 905.062 295.58C905.228 296.935 905.716 298.231 906.486 299.359C907.058 300.043 907.796 300.568 908.63 300.883C909.463 301.198 910.364 301.293 911.245 301.159C912.508 300.126 911.523 296.454 908.735 295.122Z" fill="#008800"/>
<path id="Vector_21" d="M1078.03 74.1429C1076.02 70.3807 1073.59 66.941 1069.95 64.5951C1067.66 63.1207 1064.14 61.2756 1061.37 61.0726C1061.37 61.0726 1049.78 60.2496 1045.14 65.2561L918.662 245.529C918.662 245.529 933.118 240.432 943.487 252.052C952.52 262.184 951.736 268.261 951.736 268.261C951.736 268.261 1079.21 87.3653 1079.41 87.1371C1082.08 83.3735 1079.91 77.64 1078.03 74.1429Z" fill="#008800"/>
<path id="Vector_22" d="M943.453 252.057C933.093 240.436 918.628 245.534 918.628 245.534C918.306 245.839 918.074 246.227 917.957 246.656C917.841 247.085 917.845 247.537 917.969 247.964C918.429 249.381 949.845 269.837 949.845 269.837C950.549 269.423 951.178 268.892 951.703 268.266C951.703 268.266 952.487 262.189 943.453 252.057Z" fill="#008800"/>
<path id="Vector_23" d="M940.251 253.3C931.136 244.656 917.969 247.964 917.969 247.964L905.065 295.597C905.065 295.597 905.795 293.761 908.737 295.139C911.68 296.517 912.511 300.143 911.281 301.171C911.59 301.127 911.891 301.039 912.175 300.909C913.797 300.194 942.211 276.263 949.848 269.854C949.507 267.675 947.876 260.514 940.251 253.3Z" fill="#008800"/>
<path id="Vector_24" style="mix-blend-mode:multiply" opacity="0.8" d="M948.965 259.584C952.098 265.106 951.71 268.256 951.71 268.256C951.71 268.256 1079.21 87.3652 1079.41 87.137C1082.06 83.3759 1079.91 77.6399 1078.03 74.1429L948.965 259.584Z" fill="#D8C3AD"/>
<path id="Vector_25" style="mix-blend-mode:multiply" opacity="0.8" d="M947.026 262.065L910.505 296.518C911.906 298.159 912.206 300.421 911.284 301.188C911.592 301.144 911.893 301.055 912.178 300.926C913.799 300.211 942.214 276.28 949.85 269.87C949.354 267.128 948.4 264.49 947.026 262.065Z" fill="#D8C3AD"/>
<path id="Vector_26" style="mix-blend-mode:overlay" opacity="0.5" d="M930.828 248.175L931.212 244.939L1063.8 61.6013C1063.01 61.345 1062.18 61.1775 1061.35 61.1017C1060.08 61.0329 1058.82 61.033 1057.55 61.1022L927.817 244.474L927.328 247.527L908.735 295.122C909.304 295.392 909.817 295.768 910.246 296.228L930.828 248.175Z" fill="white"/>
<path id="Vector_27" d="M937.032 218.81L933.395 223.996C939.726 223.352 959.099 223.453 967.149 246.593L970.096 242.407C962.622 219.484 944.292 218.313 937.032 218.81Z" fill="black"/>
<path id="Vector_28" d="M1022.82 96.5678L1019.22 101.697C1024.48 101.108 1045.19 100.44 1053.3 124.41L1056.28 120.176C1048.74 96.5366 1029.26 96.0376 1022.82 96.5678Z" fill="black"/>
</g>
<g id="pinkcrayon">
<path id="Vector_29" d="M657.995 305.276C661.204 304.712 661.415 306.691 661.415 306.691C660.895 307.954 660.081 309.075 659.039 309.958C658.307 310.466 657.456 310.776 656.569 310.859C655.682 310.942 654.788 310.795 653.974 310.432C653.03 309.1 654.953 305.821 657.995 305.276Z" fill="#D40078"/>
<path id="Vector_30" d="M553.35 47.3171C556.285 44.2222 559.545 41.5514 563.676 40.2543C566.276 39.4403 570.161 38.595 572.884 39.1332C572.884 39.1332 584.272 41.4114 587.418 47.4689L661.573 254.826C661.573 254.826 648.985 246.079 635.907 254.533C624.51 261.907 623.655 267.974 623.655 267.974C623.655 267.974 548.705 59.7528 548.573 59.4799C547.002 55.1446 550.616 50.192 553.35 47.3171Z" fill="#D40078"/>
<path id="Vector_31" d="M635.938 254.547C649.009 246.089 661.604 254.84 661.604 254.84C661.834 255.22 661.955 255.656 661.953 256.1C661.952 256.544 661.828 256.979 661.595 257.357C660.776 258.602 625.061 269.995 625.061 269.995C624.491 269.41 624.026 268.731 623.686 267.988C623.686 267.988 624.541 261.921 635.938 254.547Z" fill="#D40078"/>
<path id="Vector_32" d="M638.696 256.594C649.777 250.677 661.595 257.357 661.595 257.357L661.408 306.707C661.408 306.707 661.191 304.743 657.988 305.292C654.786 305.84 653.023 309.116 653.936 310.434C653.65 310.309 653.383 310.144 653.143 309.944C651.769 308.824 630.717 278.216 625.054 270.011C625.959 268.001 629.431 261.529 638.696 256.594Z" fill="#D40078"/>
<path id="Vector_33" style="mix-blend-mode:multiply" opacity="0.8" d="M628.628 260.343C624.142 264.836 623.682 267.977 623.682 267.977C623.682 267.977 548.705 59.7527 548.573 59.4798C547.018 55.1514 550.616 50.1919 553.35 47.317L628.628 260.343Z" fill="#D8C3AD"/>
<path id="Vector_34" style="mix-blend-mode:multiply" opacity="0.8" d="M629.839 263.25L655.918 306.153C654.132 307.364 653.243 309.465 653.929 310.449C653.643 310.325 653.376 310.16 653.136 309.96C651.762 308.84 630.71 278.231 625.047 270.027C626.252 267.514 627.872 265.223 629.839 263.25Z" fill="#D8C3AD"/>
<path id="Vector_35" style="mix-blend-mode:overlay" opacity="0.5" d="M649.141 254.151L649.628 250.929L570.394 38.997C571.232 38.9617 572.072 39.0187 572.897 39.1671C574.133 39.4357 575.354 39.7714 576.553 40.173L653.025 251.382L652.687 254.455L657.995 305.276C657.375 305.386 656.781 305.612 656.244 305.942L649.141 254.151Z" fill="white"/>
<path id="Vector_36" d="M650.945 224.193L653.076 230.158C647.143 227.857 628.437 222.818 614.539 242.995L612.807 238.178C626.092 218.057 644.077 221.789 650.945 224.193Z" fill="black"/>
<path id="Vector_37" d="M600.636 83.5779L602.749 89.4786C597.834 87.5158 578.043 81.3809 563.873 102.344L562.119 97.4707C575.654 76.6756 594.573 81.3606 600.636 83.5779Z" fill="black"/>
</g>
<g id="yellowcrayon">
<path id="Vector_38" d="M658.214 482.635C660.463 480.276 661.806 481.745 661.806 481.745C662.138 483.07 662.147 484.455 661.833 485.784C661.545 486.627 661.044 487.382 660.379 487.975C659.714 488.568 658.907 488.98 658.037 489.171C656.487 488.659 656.089 484.878 658.214 482.635Z" fill="#EFE35E"/>
<path id="Vector_39" d="M420.917 337.089C421.443 332.857 422.483 328.772 425.038 325.277C426.648 323.079 429.273 320.093 431.785 318.911C431.785 318.911 442.303 313.987 448.43 316.996L631.158 439.903C631.158 439.903 615.836 440.331 610.326 454.896C605.528 467.595 608.439 472.986 608.439 472.986C608.439 472.986 424.557 349.855 424.289 349.714C420.452 347.156 420.422 341.026 420.917 337.089Z" fill="#EFE35E"/>
<path id="Vector_40" d="M610.359 454.889C615.861 440.326 631.192 439.895 631.192 439.895C631.602 440.065 631.958 440.344 632.221 440.703C632.483 441.061 632.641 441.485 632.679 441.927C632.757 443.416 610.77 473.779 610.77 473.779C609.964 473.645 609.187 473.375 608.472 472.978C608.472 472.978 605.561 467.588 610.359 454.889Z" fill="#EFE35E"/>
<path id="Vector_41" d="M613.794 454.901C619.202 443.563 632.679 441.927 632.679 441.927L661.81 481.762C661.81 481.762 660.47 480.31 658.218 482.652C655.966 484.993 656.491 488.676 658.007 489.195C657.703 489.264 657.39 489.29 657.079 489.271C655.309 489.185 620.201 477.039 610.774 473.795C610.31 471.64 609.264 464.371 613.794 454.901Z" fill="#EFE35E"/>
<path id="Vector_42" style="mix-blend-mode:multiply" opacity="0.8" d="M607.914 463.893C606.97 470.171 608.462 472.972 608.462 472.972C608.462 472.972 424.557 349.855 424.289 349.714C420.469 347.153 420.422 341.026 420.917 337.089L607.914 463.893Z" fill="#D8C3AD"/>
<path id="Vector_43" style="mix-blend-mode:multiply" opacity="0.8" d="M610.613 465.514L657.062 484.573C656.344 486.607 656.874 488.827 658.011 489.212C657.707 489.281 657.394 489.307 657.082 489.288C655.312 489.202 620.205 477.056 610.777 473.812C610.256 471.075 610.201 468.269 610.613 465.514Z" fill="#D8C3AD"/>
<path id="Vector_44" style="mix-blend-mode:overlay" opacity="0.5" d="M620.751 446.737L619.232 443.854L429.7 320.278C430.353 319.753 431.063 319.301 431.815 318.93C432.97 318.413 434.151 317.959 435.355 317.571L622.234 442.203L623.786 444.877L658.214 482.635C657.78 483.091 657.436 483.626 657.2 484.21L620.751 446.737Z" fill="white"/>
<path id="Vector_45" d="M604.427 421.552L609.682 425.088C603.541 426.758 585.494 433.801 586.28 458.289L582.027 455.439C580.781 431.36 597.472 423.692 604.427 421.552Z" fill="black"/>
<path id="Vector_46" d="M480.495 338.218L485.698 341.714C480.577 343.051 461.005 349.856 462.039 375.138L457.735 372.256C456.291 347.486 474.299 340.031 480.495 338.218Z" fill="black"/>
</g>
<g id="redcrayon">
<path id="Vector_47" d="M693.843 579.576C693.751 576.319 695.739 576.398 695.739 576.398C696.914 577.095 697.904 578.063 698.627 579.221C699.023 580.02 699.207 580.907 699.16 581.796C699.114 582.686 698.839 583.549 698.362 584.302C696.907 585.043 693.941 582.665 693.843 579.576Z" fill="#ED0000"/>
<path id="Vector_48" d="M423.436 645.708C420.8 642.356 418.63 638.742 417.946 634.467C417.517 631.776 417.244 627.81 418.172 625.194C418.172 625.194 422.077 614.257 428.527 612.022L644.445 568.72C644.445 568.72 633.965 579.906 640.434 594.072C646.078 606.418 651.956 608.144 651.956 608.144C651.956 608.144 435.067 652.108 434.778 652.199C430.261 653.124 425.884 648.831 423.436 645.708Z" fill="#ED0000"/>
<path id="Vector_49" d="M640.452 594.043C633.979 579.884 644.463 568.691 644.463 568.691C644.873 568.519 645.322 568.462 645.761 568.528C646.2 568.594 646.613 568.78 646.953 569.065C648.066 570.056 654.16 607.046 654.16 607.046C653.498 607.525 652.759 607.886 651.974 608.115C651.974 608.115 646.096 606.389 640.452 594.043Z" fill="#ED0000"/>
<path id="Vector_50" d="M642.878 591.612C638.63 579.79 646.953 569.065 646.953 569.065L695.754 576.407C695.754 576.407 693.78 576.337 693.858 579.585C693.936 582.833 696.922 585.052 698.358 584.34C698.193 584.605 697.991 584.845 697.759 585.053C696.451 586.25 663.114 602.641 654.174 607.055C652.317 605.868 646.416 601.494 642.878 591.612Z" fill="#ED0000"/>
<path id="Vector_51" style="mix-blend-mode:multiply" opacity="0.8" d="M645.127 602.117C648.922 607.206 651.963 608.118 651.963 608.118C651.963 608.118 435.067 652.108 434.778 652.199C430.27 653.11 425.884 648.831 423.436 645.708L645.127 602.117Z" fill="#D8C3AD"/>
<path id="Vector_52" style="mix-blend-mode:multiply" opacity="0.8" d="M648.178 601.34L694.41 581.758C695.349 583.701 697.299 584.885 698.372 584.349C698.207 584.614 698.006 584.854 697.773 585.062C696.466 586.259 663.128 602.65 654.189 607.064C651.878 605.508 649.846 603.572 648.178 601.34Z" fill="#D8C3AD"/>
<path id="Vector_53" style="mix-blend-mode:overlay" opacity="0.5" d="M641.975 580.923L638.858 579.973L417.676 627.638C417.762 626.803 417.941 625.981 418.207 625.186C418.652 624.002 419.161 622.843 419.732 621.714L639.798 576.678L642.789 577.458L693.843 579.576C693.862 580.205 694 580.826 694.248 581.405L641.975 580.923Z" fill="white"/>
<path id="Vector_54" d="M612.595 574.794L618.806 573.55C615.669 579.087 607.971 596.864 625.92 613.541L620.902 614.556C602.92 598.494 609.22 581.241 612.595 574.794Z" fill="black"/>
<path id="Vector_55" d="M466.171 604.18L472.316 602.945C469.661 607.523 460.721 626.216 479.408 643.276L474.332 644.305C455.719 627.897 463.098 609.858 466.171 604.18Z" fill="black"/>
</g>
</g>
</svg>
