<svg width="834" height="1194" viewBox="0 0 834 1194" fill="none" xmlns="http://www.w3.org/2000/svg">
<g id="Heartstablet">
<g id="Heart13">
<path id="Vector 7" d="M788.309 679.342C788.309 679.235 788.309 679.128 788.309 679.013C788.309 658.649 773.539 640 751.432 640C733.838 640 723.639 652.649 720.159 664.485C716.68 652.649 706.472 640 688.878 640C666.722 640 652.009 658.649 652.009 679.013C652.009 679.128 652.009 679.235 652.009 679.342C651.886 683.774 652.009 728.861 720.118 765.618H720.159C788.317 728.878 788.424 683.79 788.309 679.342Z" fill="#BF6B61"/>
<path id="Vector 8" d="M695.607 750.038C703.382 755.847 711.584 761.06 720.143 765.634H720.184C788.293 728.878 788.424 683.79 788.293 679.358C788.293 679.251 788.293 679.145 788.293 679.03C788.293 676.478 788.059 673.931 787.595 671.421C766.145 723.214 723.516 742.709 695.607 750.038Z" fill="#AF463A"/>
<path id="Vector 9" d="M655.792 683.676C655.792 683.676 655.316 644.867 695.607 644.408C695.607 644.408 668.183 651.065 655.792 683.676Z" fill="#CF9089"/>
</g>
<g id="Heart12">
<path id="Vector 10" d="M485.309 872.342C485.309 872.235 485.309 872.128 485.309 872.013C485.309 851.649 470.539 833 448.432 833C430.839 833 420.639 845.649 417.159 857.485C413.68 845.649 403.472 833 385.878 833C363.722 833 349.009 851.649 349.009 872.013C349.009 872.128 349.009 872.235 349.009 872.342C348.886 876.774 349.009 921.861 417.118 958.618H417.159C485.317 921.878 485.424 876.791 485.309 872.342Z" fill="#D4145A"/>
<path id="Vector 11" d="M392.607 943.039C400.382 948.847 408.584 954.06 417.143 958.634H417.184C485.293 921.878 485.424 876.791 485.293 872.358C485.293 872.252 485.293 872.145 485.293 872.03C485.293 869.478 485.059 866.931 484.595 864.421C463.145 916.214 420.515 935.709 392.607 943.039Z" fill="#9F0F44"/>
<path id="Vector 12" d="M352.792 876.675C352.792 876.675 352.316 837.867 392.607 837.408C392.607 837.408 365.183 844.064 352.792 876.675Z" fill="#DD437B"/>
</g>
<g id="Heart11">
<path id="Vector 13" d="M182.309 1046.34C182.309 1046.23 182.309 1046.13 182.309 1046.01C182.309 1025.65 167.58 1007 145.432 1007C127.839 1007 117.639 1019.65 114.159 1031.48C110.68 1019.65 100.472 1007 82.8784 1007C60.7224 1007 46.0093 1025.65 46.0093 1046.01C46.0093 1046.13 46.0093 1046.23 46.0093 1046.34C45.8862 1050.77 46.0093 1095.86 114.118 1132.62C182.317 1095.88 182.424 1050.79 182.309 1046.34Z" fill="#FDF14D"/>
<path id="Vector 14" d="M89.6072 1117.04C97.3823 1122.85 105.584 1128.06 114.143 1132.63C182.252 1095.88 182.383 1050.79 182.252 1046.36C182.252 1046.25 182.252 1046.14 182.252 1046.03C182.252 1043.48 182.018 1040.93 181.554 1038.42C160.145 1090.21 117.515 1109.71 89.6072 1117.04Z" fill="#DBC70E"/>
<path id="Vector 15" d="M49.7922 1050.68C49.7922 1050.68 49.3162 1011.87 89.6072 1011.41C89.6072 1011.41 62.1831 1018.06 49.7922 1050.68Z" fill="#FFF9C2"/>
</g>
<g id="Heart7">
<path id="Vector 25" d="M788.326 1046.34C788.326 1046.23 788.326 1046.13 788.326 1046.02C788.326 1025.65 773.555 1007 751.448 1007C733.855 1007 723.655 1019.65 720.176 1031.49C716.696 1019.65 706.488 1007 688.895 1007C666.78 1007 652.009 1025.68 652.009 1046.02C652.009 1046.13 652.009 1046.23 652.009 1046.34C651.886 1050.77 652.009 1095.87 720.118 1132.62H720.159C788.334 1095.87 788.441 1050.77 788.326 1046.34Z" fill="#B2AD76"/>
<path id="Vector 26" d="M695.624 1117.02C703.399 1122.83 711.6 1128.04 720.159 1132.62H720.2C788.309 1095.87 788.441 1050.77 788.309 1046.34C788.309 1046.23 788.309 1046.13 788.309 1046.02C788.309 1043.47 788.075 1040.92 787.612 1038.4C766.162 1090.2 723.532 1109.7 695.624 1117.02Z" fill="#868158"/>
<path id="Vector 27" d="M655.809 1050.66C655.809 1050.66 655.333 1011.85 695.624 1011.39C695.624 1011.39 668.199 1018.05 655.809 1050.66Z" fill="#C2BD91"/>
</g>
<g id="Heart6">
<path id="Vector 28" d="M182.309 679.342C182.309 679.235 182.309 679.128 182.309 679.013C182.309 658.649 167.58 640 145.432 640C127.838 640 117.639 652.649 114.159 664.485C110.68 652.649 100.472 640 82.8784 640C60.7224 640 46.0093 658.649 46.0093 679.013C46.0093 679.128 46.0093 679.235 46.0093 679.342C45.8862 683.774 46.0093 728.861 114.118 765.618H114.159C182.317 728.878 182.424 683.791 182.309 679.342Z" fill="#1E4F95"/>
<path id="Vector 29" d="M89.6072 750.039C97.3823 755.847 105.584 761.06 114.143 765.634H114.184C182.293 728.878 182.424 683.79 182.293 679.358C182.293 679.251 182.293 679.145 182.293 679.03C182.293 676.478 182.059 673.931 181.595 671.421C160.145 723.214 117.515 742.709 89.6072 750.039Z" fill="#143564"/>
<path id="Vector 30" d="M49.7922 683.676C49.7922 683.676 49.3162 644.867 89.6072 644.408C89.6072 644.408 62.1831 651.065 49.7922 683.676Z" fill="#2869C7"/>
</g>
<g id="Heart4">
<path id="Vector 34" d="M485.309 489.342C485.309 489.235 485.309 489.128 485.309 489.013C485.309 468.649 470.539 450 448.432 450C430.838 450 420.639 462.649 417.159 474.485C413.68 462.649 403.472 450 385.878 450C363.722 450 349.009 468.649 349.009 489.013C349.009 489.128 349.009 489.235 349.009 489.342C348.886 493.774 349.009 538.861 417.118 575.618H417.159C485.317 538.878 485.424 493.791 485.309 489.342Z" fill="#C66C00"/>
<path id="Vector 35" d="M392.607 560.039C400.382 565.847 408.584 571.06 417.143 575.634H417.184C485.293 538.878 485.424 493.791 485.293 489.358C485.293 489.251 485.293 489.145 485.293 489.03C485.293 486.478 485.059 483.931 484.595 481.421C463.145 533.214 420.515 552.709 392.607 560.039Z" fill="#AD5804"/>
<path id="Vector 36" d="M352.792 493.676C352.792 493.676 352.316 454.867 392.607 454.408C392.607 454.408 365.183 461.065 352.792 493.676Z" fill="#D18933"/>
</g>
<g id="Heart2">
<path id="Vector 40" d="M788.268 301.342C788.268 301.235 788.268 301.128 788.268 301.013C788.268 280.649 773.498 262 751.391 262C733.797 262 723.598 274.649 720.118 286.485C716.647 274.665 706.439 262.016 688.878 262.016C666.722 262.016 652.009 280.665 652.009 301.03C652.009 301.145 652.009 301.251 652.009 301.358C651.886 305.79 652.009 350.878 720.118 387.634H720.159C788.276 350.878 788.383 305.79 788.268 301.342Z" fill="#C698FE"/>
<path id="Vector 41" d="M695.566 372.038C703.341 377.847 711.543 383.06 720.102 387.634H720.143C788.252 350.878 788.383 305.79 788.252 301.358C788.252 301.251 788.252 301.145 788.252 301.03C788.252 298.477 788.018 295.931 787.554 293.421C766.104 345.214 723.474 364.709 695.566 372.038Z" fill="#B376FD"/>
<path id="Vector 42" d="M655.751 305.676C655.751 305.676 655.275 266.867 695.566 266.408C695.566 266.408 668.142 273.065 655.751 305.676Z" fill="#D9BAFE"/>
</g>
<g id="Heart1">
<path id="Vector 43" d="M182.301 301.342C182.301 301.235 182.301 301.128 182.301 301.022C182.301 280.649 167.58 262 145.432 262C127.839 262 117.639 274.649 114.159 286.485C110.68 274.649 100.48 262 82.8784 262C60.7225 262 46.0093 280.649 46.0093 301.022C46.0093 301.128 46.0093 301.235 46.0093 301.342C45.8862 305.774 46.0093 350.861 114.118 387.618H114.159C182.309 350.861 182.424 305.774 182.301 301.342Z" fill="#AA351A"/>
<path id="Vector 44" d="M89.6072 371.989C97.3823 377.797 105.584 383.01 114.143 387.585H114.184C182.293 350.829 182.424 305.741 182.293 301.309C182.293 301.202 182.293 301.095 182.293 300.989C182.292 298.434 182.061 295.885 181.604 293.372C160.145 345.198 117.515 364.692 89.6072 371.989Z" fill="#932F1F"/>
<path id="Vector 45" d="M49.7922 305.659C49.7922 305.659 49.308 266.851 89.6072 266.391C89.6072 266.391 62.1831 273.048 49.7922 305.659Z" fill="#E15A33"/>
</g>
<g id="Heart15">
<path id="Vector" d="M485.309 91.3417C485.309 91.235 485.309 91.1283 485.309 91.0133C485.309 70.6489 470.539 52 448.432 52C430.839 52 420.639 64.6487 417.159 76.4849C413.68 64.6487 403.472 52 385.878 52C363.722 52 349.009 70.6489 349.009 91.0133C349.009 91.1283 349.009 91.235 349.009 91.3417C348.886 95.7741 349.009 140.861 417.118 177.618C485.317 140.878 485.424 95.7905 485.309 91.3417Z" fill="#FF7BAC"/>
<path id="Vector 2" d="M392.607 162.038C400.386 167.847 408.584 173.06 417.143 177.634C485.252 140.878 485.383 95.7905 485.252 91.3581C485.252 91.2514 485.252 91.1447 485.252 91.0297C485.252 88.4778 485.022 85.9308 484.554 83.4208C463.145 135.214 420.515 154.709 392.607 162.038Z" fill="#BF5C81"/>
<path id="Vector 3" d="M352.792 95.6755C352.792 95.6755 352.316 56.8674 392.607 56.4078C392.607 56.4078 365.183 63.0646 352.792 95.6755Z" fill="#FF95BD"/>
</g>
</g>
</svg>
