<svg width="1440" height="1024" viewBox="0 0 1440 1024" fill="none" xmlns="http://www.w3.org/2000/svg">
<g id="Hearts1">
<g id="Heart15">
<path id="Vector" d="M1376.31 855.342C1376.31 855.235 1376.31 855.128 1376.31 855.013C1376.31 834.649 1361.54 816 1339.43 816C1321.84 816 1311.64 828.649 1308.16 840.485C1304.68 828.649 1294.47 816 1276.88 816C1254.72 816 1240.01 834.649 1240.01 855.013C1240.01 855.128 1240.01 855.235 1240.01 855.342C1239.89 859.774 1240.01 904.861 1308.12 941.618C1376.32 904.878 1376.42 859.791 1376.31 855.342Z" fill="#FF7BAC"/>
<path id="Vector 2" d="M1283.61 926.038C1291.39 931.847 1299.58 937.06 1308.14 941.634C1376.25 904.878 1376.38 859.79 1376.25 855.358C1376.25 855.251 1376.25 855.145 1376.25 855.03C1376.25 852.478 1376.02 849.931 1375.55 847.421C1354.15 899.214 1311.52 918.709 1283.61 926.038Z" fill="#BF5C81"/>
<path id="Vector 3" d="M1243.79 859.676C1243.79 859.676 1243.32 820.867 1283.61 820.408C1283.61 820.408 1256.18 827.065 1243.79 859.676Z" fill="#FF95BD"/>
</g>
<g id="Heart14">
<path id="Vector 4" d="M1110.31 729.342C1110.31 729.235 1110.31 729.128 1110.31 729.013C1110.31 708.649 1095.54 690 1073.43 690C1055.84 690 1045.64 702.649 1042.16 714.485C1038.68 702.649 1028.47 690 1010.88 690C988.722 690 974.009 708.649 974.009 729.013C974.009 729.128 974.009 729.235 974.009 729.342C973.886 733.774 974.009 778.861 1042.12 815.618C1110.32 778.878 1110.42 733.79 1110.31 729.342Z" fill="#ED1C24"/>
<path id="Vector 5" d="M1017.61 800.038C1025.39 805.847 1033.58 811.06 1042.14 815.634C1110.25 778.878 1110.38 733.79 1110.25 729.358C1110.25 729.251 1110.25 729.145 1110.25 729.03C1110.25 726.478 1110.02 723.931 1109.55 721.421C1088.15 773.214 1045.52 792.709 1017.61 800.038Z" fill="#B2151B"/>
<path id="Vector 6" d="M977.792 733.676C977.792 733.676 977.316 694.867 1017.61 694.408C1017.61 694.408 990.183 701.065 977.792 733.676Z" fill="#F14950"/>
</g>
<g id="Heart13">
<path id="Vector 7" d="M788.309 488.342C788.309 488.235 788.309 488.128 788.309 488.013C788.309 467.649 773.539 449 751.432 449C733.838 449 723.639 461.649 720.159 473.485C716.68 461.649 706.472 449 688.878 449C666.722 449 652.009 467.649 652.009 488.013C652.009 488.128 652.009 488.235 652.009 488.342C651.886 492.774 652.009 537.861 720.118 574.618H720.159C788.317 537.878 788.424 492.79 788.309 488.342Z" fill="#BF6B61"/>
<path id="Vector 8" d="M695.607 559.038C703.382 564.847 711.584 570.06 720.143 574.634H720.184C788.293 537.878 788.424 492.79 788.293 488.358C788.293 488.251 788.293 488.145 788.293 488.03C788.293 485.478 788.059 482.931 787.595 480.421C766.145 532.214 723.516 551.709 695.607 559.038Z" fill="#AF463A"/>
<path id="Vector 9" d="M655.792 492.676C655.792 492.676 655.316 453.867 695.607 453.408C695.607 453.408 668.183 460.065 655.792 492.676Z" fill="#CF9089"/>
</g>
<g id="Heart12">
<path id="Vector 10" d="M475.309 733.342C475.309 733.235 475.309 733.128 475.309 733.013C475.309 712.649 460.539 694 438.432 694C420.839 694 410.639 706.649 407.159 718.485C403.68 706.649 393.472 694 375.878 694C353.722 694 339.009 712.649 339.009 733.013C339.009 733.128 339.009 733.235 339.009 733.342C338.886 737.774 339.009 782.861 407.118 819.618H407.159C475.317 782.878 475.424 737.791 475.309 733.342Z" fill="#D4145A"/>
<path id="Vector 11" d="M382.607 804.039C390.382 809.847 398.584 815.06 407.143 819.634H407.184C475.293 782.878 475.424 737.791 475.293 733.358C475.293 733.251 475.293 733.145 475.293 733.03C475.293 730.478 475.059 727.931 474.595 725.421C453.145 777.214 410.515 796.709 382.607 804.039Z" fill="#9F0F44"/>
<path id="Vector 12" d="M342.792 737.676C342.792 737.676 342.316 698.867 382.607 698.408C382.607 698.408 355.183 705.065 342.792 737.676Z" fill="#DD437B"/>
</g>
<g id="Heart11">
<path id="Vector 13" d="M182.309 855.342C182.309 855.235 182.309 855.128 182.309 855.013C182.309 834.649 167.58 816 145.432 816C127.839 816 117.639 828.649 114.159 840.485C110.68 828.649 100.472 816 82.8784 816C60.7224 816 46.0093 834.649 46.0093 855.013C46.0093 855.128 46.0093 855.235 46.0093 855.342C45.8862 859.774 46.0093 904.861 114.118 941.618C182.317 904.878 182.424 859.79 182.309 855.342Z" fill="#FDF14D"/>
<path id="Vector 14" d="M89.6072 926.038C97.3823 931.847 105.584 937.06 114.143 941.634C182.252 904.878 182.383 859.79 182.252 855.358C182.252 855.251 182.252 855.145 182.252 855.03C182.252 852.478 182.018 849.931 181.554 847.421C160.145 899.214 117.515 918.709 89.6072 926.038Z" fill="#DBC70E"/>
<path id="Vector 15" d="M49.7922 859.675C49.7922 859.675 49.3162 820.867 89.6072 820.408C89.6072 820.408 62.1831 827.064 49.7922 859.675Z" fill="#FFF9C2"/>
</g>
<g id="Heart10">
<path id="Vector 16" d="M1376.31 488.342C1376.31 488.235 1376.31 488.128 1376.31 488.022C1376.31 467.649 1361.54 449 1339.43 449C1321.84 449 1311.64 461.649 1308.16 473.493C1304.68 461.649 1294.47 449 1276.88 449C1254.72 449 1240.01 467.649 1240.01 488.022C1240.01 488.128 1240.01 488.235 1240.01 488.342C1239.89 492.774 1240.01 537.87 1308.12 574.618C1376.32 537.87 1376.42 492.774 1376.31 488.342Z" fill="#646F16"/>
<path id="Vector 17" d="M1283.61 559.022C1291.39 564.83 1299.58 570.043 1308.14 574.618C1376.25 537.87 1376.38 492.774 1376.25 488.342C1376.25 488.235 1376.25 488.128 1376.25 488.022C1376.25 485.466 1376.02 482.917 1375.55 480.404C1354.15 532.198 1311.52 551.7 1283.61 559.022Z" fill="#4B5411"/>
<path id="Vector 18" d="M1243.79 492.659C1243.79 492.659 1243.32 453.851 1283.61 453.391C1283.61 453.391 1256.18 460.048 1243.79 492.659Z" fill="#838C45"/>
</g>
<g id="Heart7">
<path id="Vector 25" d="M788.326 855.342C788.326 855.235 788.326 855.128 788.326 855.022C788.326 834.649 773.555 816 751.448 816C733.855 816 723.655 828.649 720.176 840.493C716.696 828.649 706.488 816 688.895 816C666.78 816 652.009 834.682 652.009 855.022C652.009 855.128 652.009 855.235 652.009 855.342C651.886 859.774 652.009 904.87 720.118 941.618H720.159C788.334 904.87 788.441 859.774 788.326 855.342Z" fill="#B2AD76"/>
<path id="Vector 26" d="M695.624 926.022C703.399 931.83 711.6 937.043 720.159 941.618H720.2C788.309 904.87 788.441 859.774 788.309 855.342C788.309 855.235 788.309 855.128 788.309 855.022C788.309 852.466 788.075 849.917 787.612 847.404C766.162 899.198 723.532 918.7 695.624 926.022Z" fill="#868158"/>
<path id="Vector 27" d="M655.809 859.659C655.809 859.659 655.333 820.851 695.624 820.391C695.624 820.391 668.199 827.048 655.809 859.659Z" fill="#C2BD91"/>
</g>
<g id="Heart6">
<path id="Vector 28" d="M182.309 488.342C182.309 488.235 182.309 488.128 182.309 488.013C182.309 467.649 167.58 449 145.432 449C127.839 449 117.639 461.649 114.159 473.485C110.68 461.649 100.472 449 82.8784 449C60.7224 449 46.0093 467.649 46.0093 488.013C46.0093 488.128 46.0093 488.235 46.0093 488.342C45.8862 492.774 46.0093 537.861 114.118 574.618H114.159C182.317 537.878 182.424 492.791 182.309 488.342Z" fill="#1E4F95"/>
<path id="Vector 29" d="M89.6072 559.039C97.3823 564.847 105.584 570.06 114.143 574.634H114.184C182.293 537.878 182.424 492.791 182.293 488.358C182.293 488.251 182.293 488.145 182.293 488.03C182.293 485.478 182.059 482.931 181.595 480.421C160.145 532.214 117.515 551.709 89.6072 559.039Z" fill="#143564"/>
<path id="Vector 30" d="M49.7922 492.676C49.7922 492.676 49.3162 453.867 89.6072 453.408C89.6072 453.408 62.1831 460.065 49.7922 492.676Z" fill="#2869C7"/>
</g>
<g id="Heart5">
<path id="Vector 31" d="M1110.31 236.342C1110.31 236.235 1110.31 236.128 1110.31 236.022C1110.31 215.649 1095.54 197 1073.43 197C1055.84 197 1045.64 209.649 1042.16 221.493C1038.68 209.649 1028.47 197 1010.88 197C988.722 197 974.009 215.649 974.009 236.022C974.009 236.128 974.009 236.235 974.009 236.342C973.886 240.774 974.009 285.87 1042.12 322.618C1110.32 285.87 1110.42 240.774 1110.31 236.342Z" fill="#0071BC"/>
<path id="Vector 32" d="M1017.61 307.022C1025.39 312.83 1033.58 318.043 1042.14 322.618C1110.25 285.87 1110.38 240.774 1110.25 236.342C1110.25 236.235 1110.25 236.128 1110.25 236.022C1110.25 233.466 1110.02 230.917 1109.55 228.404C1088.15 280.198 1045.52 299.7 1017.61 307.022Z" fill="#00558D"/>
<path id="Vector 33" d="M977.792 240.659C977.792 240.659 977.316 201.851 1017.61 201.391C1017.61 201.391 990.183 208.048 977.792 240.659Z" fill="#338DC9"/>
</g>
<g id="Heart4">
<path id="Vector 34" d="M475.309 236.342C475.309 236.235 475.309 236.128 475.309 236.013C475.309 215.649 460.539 197 438.432 197C420.839 197 410.639 209.649 407.159 221.485C403.68 209.649 393.472 197 375.878 197C353.722 197 339.009 215.649 339.009 236.013C339.009 236.128 339.009 236.235 339.009 236.342C338.886 240.774 339.009 285.861 407.118 322.618H407.159C475.317 285.878 475.424 240.791 475.309 236.342Z" fill="#C66C00"/>
<path id="Vector 35" d="M382.607 307.039C390.382 312.847 398.584 318.06 407.143 322.634H407.184C475.293 285.878 475.424 240.791 475.293 236.358C475.293 236.251 475.293 236.145 475.293 236.03C475.293 233.478 475.059 230.931 474.595 228.421C453.145 280.214 410.515 299.709 382.607 307.039Z" fill="#AD5804"/>
<path id="Vector 36" d="M342.792 240.676C342.792 240.676 342.316 201.867 382.607 201.408C382.607 201.408 355.183 208.065 342.792 240.676Z" fill="#D18933"/>
</g>
<g id="Heart3">
<path id="Vector 37" d="M1376.31 110.342C1376.31 110.235 1376.31 110.128 1376.31 110.022C1376.31 89.6489 1361.54 71 1339.43 71C1321.84 71 1311.64 83.6488 1308.16 95.4931C1304.68 83.6488 1294.47 71 1276.88 71C1254.72 71 1240.01 89.6489 1240.01 110.022C1240.01 110.128 1240.01 110.235 1240.01 110.342C1239.89 114.774 1240.01 159.87 1308.12 196.618C1376.32 159.87 1376.42 114.774 1376.31 110.342Z" fill="#D28C53"/>
<path id="Vector 38" d="M1283.61 181.022C1291.39 186.83 1299.58 192.043 1308.14 196.618C1376.25 159.87 1376.38 114.774 1376.25 110.342C1376.25 110.235 1376.25 110.128 1376.25 110.022C1376.25 107.467 1376.02 104.917 1375.55 102.404C1354.15 154.198 1311.52 173.7 1283.61 181.022Z" fill="#C76F28"/>
<path id="Vector 39" d="M1243.79 114.659C1243.79 114.659 1243.32 75.851 1283.61 75.3914C1283.61 75.3914 1256.18 82.0482 1243.79 114.659Z" fill="#DEA97E"/>
</g>
<g id="Heart2">
<path id="Vector 40" d="M788.268 110.342C788.268 110.235 788.268 110.128 788.268 110.013C788.268 89.6489 773.498 71 751.391 71C733.797 71 723.598 83.6487 720.118 95.4849C716.647 83.6652 706.439 71.0164 688.878 71.0164C666.722 71.0164 652.009 89.6653 652.009 110.03C652.009 110.145 652.009 110.251 652.009 110.358C651.886 114.79 652.009 159.878 720.118 196.634H720.159C788.276 159.878 788.383 114.79 788.268 110.342Z" fill="#C698FE"/>
<path id="Vector 41" d="M695.566 181.038C703.341 186.847 711.543 192.06 720.102 196.634H720.143C788.252 159.878 788.383 114.79 788.252 110.358C788.252 110.251 788.252 110.145 788.252 110.03C788.252 107.477 788.018 104.931 787.554 102.421C766.104 154.214 723.474 173.709 695.566 181.038Z" fill="#B376FD"/>
<path id="Vector 42" d="M655.751 114.676C655.751 114.676 655.275 75.8674 695.566 75.4078C695.566 75.4078 668.142 82.0646 655.751 114.676Z" fill="#D9BAFE"/>
</g>
<g id="Heart1">
<path id="Vector 43" d="M182.301 110.342C182.301 110.235 182.301 110.128 182.301 110.022C182.301 89.6489 167.58 71 145.432 71C127.839 71 117.639 83.6488 114.159 95.4849C110.68 83.6488 100.48 71 82.8784 71C60.7225 71 46.0093 89.6489 46.0093 110.022C46.0093 110.128 46.0093 110.235 46.0093 110.342C45.8862 114.774 46.0093 159.861 114.118 196.618H114.159C182.309 159.861 182.424 114.774 182.301 110.342Z" fill="#AA351A"/>
<path id="Vector 44" d="M89.6072 180.989C97.3823 186.797 105.584 192.01 114.143 196.585H114.184C182.293 159.829 182.424 114.741 182.293 110.309C182.293 110.202 182.293 110.095 182.293 109.989C182.292 107.434 182.061 104.885 181.604 102.372C160.145 154.198 117.515 173.692 89.6072 180.989Z" fill="#932F1F"/>
<path id="Vector 45" d="M49.7922 114.659C49.7922 114.659 49.308 75.851 89.6072 75.3914C89.6072 75.3914 62.1831 82.0482 49.7922 114.659Z" fill="#E15A33"/>
</g>
</g>
</svg>
