<svg width="1661" height="932" viewBox="0 0 1661 932" fill="none" xmlns="http://www.w3.org/2000/svg">
<g id="hearts 1" clip-path="url(#clip0)">
<g id="Heart15">
<path id="Vector" d="M1660.04 800.76C1660.04 800.63 1660.04 800.5 1660.04 800.36C1660.04 775.55 1642.04 752.83 1615.1 752.83C1593.66 752.83 1581.23 768.24 1576.99 782.66C1572.75 768.24 1560.31 752.83 1538.87 752.83C1511.87 752.83 1493.94 775.55 1493.94 800.36C1493.94 800.5 1493.94 800.63 1493.94 800.76C1493.79 806.16 1493.94 861.09 1576.94 905.87C1660.05 861.11 1660.18 806.18 1660.04 800.76Z" fill="#FF7BAC"/>
<path id="Vector_2" d="M1547.07 886.89C1556.55 893.966 1566.54 900.317 1576.97 905.89C1659.97 861.11 1660.13 806.18 1659.97 800.78C1659.97 800.65 1659.97 800.52 1659.97 800.38C1659.97 797.271 1659.69 794.168 1659.12 791.11C1633.03 854.21 1581.08 877.96 1547.07 886.89Z" fill="#BF5C81"/>
<path id="Vector_3" d="M1498.55 806.04C1498.55 806.04 1497.97 758.76 1547.07 758.2C1547.07 758.2 1513.65 766.31 1498.55 806.04Z" fill="#FF95BD"/>
</g>
<g id="Heart14">
<path id="Vector_4" d="M1239.04 807.76C1239.04 807.63 1239.04 807.5 1239.04 807.36C1239.04 782.55 1221.04 759.83 1194.1 759.83C1172.66 759.83 1160.23 775.24 1155.99 789.66C1151.75 775.24 1139.31 759.83 1117.87 759.83C1090.87 759.83 1072.94 782.55 1072.94 807.36C1072.94 807.5 1072.94 807.63 1072.94 807.76C1072.79 813.16 1072.94 868.09 1155.94 912.87C1239.05 868.11 1239.18 813.18 1239.04 807.76Z" fill="#ED1C24"/>
<path id="Vector_5" d="M1126.07 893.89C1135.55 900.966 1145.54 907.317 1155.97 912.89C1238.97 868.11 1239.13 813.18 1238.97 807.78C1238.97 807.65 1238.97 807.52 1238.97 807.38C1238.97 804.271 1238.69 801.168 1238.12 798.11C1212.03 861.21 1160.08 884.96 1126.07 893.89Z" fill="#B2151B"/>
<path id="Vector_6" d="M1077.55 813.04C1077.55 813.04 1076.97 765.76 1126.07 765.2C1126.07 765.2 1092.65 773.31 1077.55 813.04Z" fill="#F14950"/>
</g>
<g id="Heart13">
<path id="Vector_7" d="M844.04 741.76C844.04 741.63 844.04 741.5 844.04 741.36C844.04 716.55 826.04 693.83 799.1 693.83C777.66 693.83 765.23 709.24 760.99 723.66C756.75 709.24 744.31 693.83 722.87 693.83C695.87 693.83 677.94 716.55 677.94 741.36C677.94 741.5 677.94 741.63 677.94 741.76C677.79 747.16 677.94 802.09 760.94 846.87H760.99C844.05 802.11 844.18 747.18 844.04 741.76Z" fill="#BF6B61"/>
<path id="Vector_8" d="M731.07 827.89C740.545 834.966 750.54 841.317 760.97 846.89H761.02C844.02 802.11 844.18 747.18 844.02 741.78C844.02 741.65 844.02 741.52 844.02 741.38C844.02 738.271 843.735 735.168 843.17 732.11C817.03 795.21 765.08 818.96 731.07 827.89Z" fill="#AF463A"/>
<path id="Vector_9" d="M682.55 747.04C682.55 747.04 681.97 699.76 731.07 699.2C731.07 699.2 697.65 707.31 682.55 747.04Z" fill="#CF9089"/>
</g>
<g id="Heart12">
<path id="Vector_10" d="M552.04 826.76C552.04 826.63 552.04 826.5 552.04 826.36C552.04 801.55 534.04 778.83 507.1 778.83C485.66 778.83 473.23 794.24 468.99 808.66C464.75 794.24 452.31 778.83 430.87 778.83C403.87 778.83 385.94 801.55 385.94 826.36C385.94 826.5 385.94 826.63 385.94 826.76C385.79 832.16 385.94 887.09 468.94 931.87H468.99C552.05 887.11 552.18 832.18 552.04 826.76Z" fill="#D4145A"/>
<path id="Vector_11" d="M439.07 912.89C448.545 919.966 458.54 926.317 468.97 931.89H469.02C552.02 887.11 552.18 832.18 552.02 826.78C552.02 826.65 552.02 826.52 552.02 826.38C552.02 823.271 551.735 820.168 551.17 817.11C525.03 880.21 473.08 903.96 439.07 912.89Z" fill="#9F0F44"/>
<path id="Vector_12" d="M390.55 832.04C390.55 832.04 389.97 784.76 439.07 784.2C439.07 784.2 405.65 792.31 390.55 832.04Z" fill="#DD437B"/>
</g>
<g id="Heart11">
<path id="Vector_13" d="M206.04 813.76C206.04 813.63 206.04 813.5 206.04 813.36C206.04 788.55 188.09 765.83 161.1 765.83C139.66 765.83 127.23 781.24 122.99 795.66C118.75 781.24 106.31 765.83 84.87 765.83C57.87 765.83 39.94 788.55 39.94 813.36C39.94 813.5 39.94 813.63 39.94 813.76C39.79 819.16 39.94 874.09 122.94 918.87C206.05 874.11 206.18 819.18 206.04 813.76Z" fill="#FDF14D"/>
<path id="Vector_14" d="M93.07 899.89C102.545 906.966 112.54 913.317 122.97 918.89C205.97 874.11 206.13 819.18 205.97 813.78C205.97 813.65 205.97 813.52 205.97 813.38C205.97 810.271 205.685 807.168 205.12 804.11C179.03 867.21 127.08 890.96 93.07 899.89Z" fill="#DBC70E"/>
<path id="Vector_15" d="M44.55 819.04C44.55 819.04 43.97 771.76 93.07 771.2C93.07 771.2 59.65 779.31 44.55 819.04Z" fill="#FFF9C2"/>
</g>
<g id="Heart10">
<path id="Vector_16" d="M1609.04 381.93C1609.04 381.8 1609.04 381.67 1609.04 381.54C1609.04 356.72 1591.04 334 1564.1 334C1542.66 334 1530.23 349.41 1525.99 363.84C1521.75 349.41 1509.31 334 1487.87 334C1460.87 334 1442.94 356.72 1442.94 381.54C1442.94 381.67 1442.94 381.8 1442.94 381.93C1442.79 387.33 1442.94 442.27 1525.94 487.04C1609.05 442.27 1609.18 387.33 1609.04 381.93Z" fill="#646F16"/>
<path id="Vector_17" d="M1496.07 468.04C1505.55 475.116 1515.54 481.467 1525.97 487.04C1608.97 442.27 1609.13 387.33 1608.97 381.93C1608.97 381.8 1608.97 381.67 1608.97 381.54C1608.97 378.427 1608.69 375.321 1608.12 372.26C1582.03 435.36 1530.08 459.12 1496.07 468.04Z" fill="#4B5411"/>
<path id="Vector_18" d="M1447.55 387.19C1447.55 387.19 1446.97 339.91 1496.07 339.35C1496.07 339.35 1462.65 347.46 1447.55 387.19Z" fill="#838C45"/>
</g>
<g id="Heart9">
<path id="Vector_19" d="M1419.04 555.76C1419.04 555.63 1419.04 555.5 1419.04 555.36C1419.04 530.55 1401.04 507.83 1374.1 507.83C1352.66 507.83 1340.23 523.24 1335.99 537.66C1331.75 523.24 1319.31 507.83 1297.87 507.83C1270.87 507.83 1252.94 530.55 1252.94 555.36C1252.94 555.5 1252.94 555.63 1252.94 555.76C1252.79 561.16 1252.94 616.09 1335.94 660.87C1419.05 616.11 1419.18 561.18 1419.04 555.76Z" fill="#977E68"/>
<path id="Vector_20" d="M1306.07 641.89C1315.55 648.966 1325.54 655.317 1335.97 660.89C1418.97 616.11 1419.13 561.18 1418.97 555.78C1418.97 555.65 1418.97 555.52 1418.97 555.38C1418.97 552.271 1418.69 549.168 1418.12 546.11C1392.03 609.21 1340.08 632.96 1306.07 641.89Z" fill="#7C5E42"/>
<path id="Vector_21" d="M1257.55 561.04C1257.55 561.04 1256.97 513.76 1306.07 513.2C1306.07 513.2 1272.65 521.31 1257.55 561.04Z" fill="#B19E8E"/>
</g>
<g id="Heart8">
<path id="Vector_22" d="M1072.04 454.93C1072.04 454.8 1072.04 454.67 1072.04 454.54C1072.04 429.72 1054.04 407 1027.1 407C1005.66 407 993.23 422.41 988.99 436.84C984.75 422.41 972.31 407 950.87 407C923.87 407 905.94 429.72 905.94 454.54C905.94 454.67 905.94 454.8 905.94 454.93C905.79 460.33 905.94 515.27 988.94 560.04C1072.05 515.27 1072.18 460.33 1072.04 454.93Z" fill="#8C3C7C"/>
<path id="Vector_23" d="M959.07 541.04C968.545 548.116 978.54 554.467 988.97 560.04C1071.97 515.27 1072.13 460.33 1071.97 454.93C1071.97 454.8 1071.97 454.67 1071.97 454.54C1071.97 451.427 1071.69 448.321 1071.12 445.26C1045.03 508.36 993.08 532.12 959.07 541.04Z" fill="#6F0B5C"/>
<path id="Vector_24" d="M910.55 460.19C910.55 460.19 909.97 412.91 959.07 412.35C959.07 412.35 925.65 420.46 910.55 460.19Z" fill="#C69DBE"/>
</g>
<g id="Heart7">
<path id="Vector_25" d="M670.04 439.93C670.04 439.8 670.04 439.67 670.04 439.54C670.04 414.72 652.04 392 625.1 392C603.66 392 591.23 407.41 586.99 421.84C582.75 407.41 570.31 392 548.87 392C521.92 392 503.92 414.76 503.92 439.54C503.92 439.67 503.92 439.8 503.92 439.93C503.77 445.33 503.92 500.27 586.92 545.04H586.97C670.05 500.27 670.18 445.33 670.04 439.93Z" fill="#B2AD76"/>
<path id="Vector_26" d="M557.07 526.04C566.545 533.116 576.54 539.467 586.97 545.04H587.02C670.02 500.27 670.18 445.33 670.02 439.93C670.02 439.8 670.02 439.67 670.02 439.54C670.02 436.427 669.735 433.321 669.17 430.26C643.03 493.36 591.08 517.12 557.07 526.04Z" fill="#868158"/>
<path id="Vector_27" d="M508.55 445.19C508.55 445.19 507.97 397.91 557.07 397.35C557.07 397.35 523.65 405.46 508.55 445.19Z" fill="#C2BD91"/>
</g>
<g id="Heart6">
<path id="Vector_28" d="M268.04 492.76C268.04 492.63 268.04 492.5 268.04 492.36C268.04 467.55 250.09 444.83 223.1 444.83C201.66 444.83 189.23 460.24 184.99 474.66C180.75 460.24 168.31 444.83 146.87 444.83C119.87 444.83 101.94 467.55 101.94 492.36C101.94 492.5 101.94 492.63 101.94 492.76C101.79 498.16 101.94 553.09 184.94 597.87H184.99C268.05 553.11 268.18 498.18 268.04 492.76Z" fill="#1E4F95"/>
<path id="Vector_29" d="M155.07 578.89C164.545 585.966 174.54 592.317 184.97 597.89H185.02C268.02 553.11 268.18 498.18 268.02 492.78C268.02 492.65 268.02 492.52 268.02 492.38C268.02 489.271 267.735 486.168 267.17 483.11C241.03 546.21 189.08 569.96 155.07 578.89Z" fill="#143564"/>
<path id="Vector_30" d="M106.55 498.04C106.55 498.04 105.97 450.76 155.07 450.2C155.07 450.2 121.65 458.31 106.55 498.04Z" fill="#2869C7"/>
</g>
<g id="Heart5">
<path id="Vector_31" d="M1199.04 147.93C1199.04 147.8 1199.04 147.67 1199.04 147.54C1199.04 122.72 1181.04 100 1154.1 100C1132.66 100 1120.23 115.41 1115.99 129.84C1111.75 115.41 1099.31 100 1077.87 100C1050.87 100 1032.94 122.72 1032.94 147.54C1032.94 147.67 1032.94 147.8 1032.94 147.93C1032.79 153.33 1032.94 208.27 1115.94 253.04C1199.05 208.27 1199.18 153.33 1199.04 147.93Z" fill="#0071BC"/>
<path id="Vector_32" d="M1086.07 234.04C1095.55 241.116 1105.54 247.467 1115.97 253.04C1198.97 208.27 1199.13 153.33 1198.97 147.93C1198.97 147.8 1198.97 147.67 1198.97 147.54C1198.97 144.427 1198.69 141.321 1198.12 138.26C1172.03 201.36 1120.08 225.12 1086.07 234.04Z" fill="#00558D"/>
<path id="Vector_33" d="M1037.55 153.19C1037.55 153.19 1036.97 105.91 1086.07 105.35C1086.07 105.35 1052.65 113.46 1037.55 153.19Z" fill="#338DC9"/>
</g>
<g id="Heart4">
<path id="Vector_34" d="M453.04 232.76C453.04 232.63 453.04 232.5 453.04 232.36C453.04 207.55 435.04 184.83 408.1 184.83C386.66 184.83 374.23 200.24 369.99 214.66C365.75 200.24 353.31 184.83 331.87 184.83C304.87 184.83 286.94 207.55 286.94 232.36C286.94 232.5 286.94 232.63 286.94 232.76C286.79 238.16 286.94 293.09 369.94 337.87H369.99C453.05 293.11 453.18 238.18 453.04 232.76Z" fill="#C66C00"/>
<path id="Vector_35" d="M340.07 318.89C349.545 325.966 359.54 332.317 369.97 337.89H370.02C453.02 293.11 453.18 238.18 453.02 232.78C453.02 232.65 453.02 232.52 453.02 232.38C453.02 229.271 452.735 226.168 452.17 223.11C426.03 286.21 374.08 309.96 340.07 318.89Z" fill="#AD5804"/>
<path id="Vector_36" d="M291.55 238.04C291.55 238.04 290.97 190.76 340.07 190.2C340.07 190.2 306.65 198.31 291.55 238.04Z" fill="#D18933"/>
</g>
<g id="Heart3">
<path id="Vector_37" d="M1595.04 47.93C1595.04 47.8 1595.04 47.67 1595.04 47.54C1595.04 22.72 1577.04 0 1550.1 0C1528.66 0 1516.23 15.41 1511.99 29.84C1507.75 15.41 1495.31 0 1473.87 0C1446.87 0 1428.94 22.72 1428.94 47.54C1428.94 47.67 1428.94 47.8 1428.94 47.93C1428.79 53.33 1428.94 108.27 1511.94 153.04C1595.05 108.27 1595.18 53.33 1595.04 47.93Z" fill="#D28C53"/>
<path id="Vector_38" d="M1482.07 134.04C1491.55 141.116 1501.54 147.467 1511.97 153.04C1594.97 108.27 1595.13 53.33 1594.97 47.93C1594.97 47.8 1594.97 47.67 1594.97 47.54C1594.97 44.4272 1594.69 41.321 1594.12 38.26C1568.03 101.36 1516.08 125.12 1482.07 134.04Z" fill="#C76F28"/>
<path id="Vector_39" d="M1433.55 53.19C1433.55 53.19 1432.97 5.90998 1482.07 5.34998C1482.07 5.34998 1448.65 13.46 1433.55 53.19Z" fill="#DEA97E"/>
</g>
<g id="Heart2">
<path id="Vector_40" d="M761.04 56.76C761.04 56.63 761.04 56.5 761.04 56.36C761.04 31.55 743.04 8.83002 716.1 8.83002C694.66 8.83002 682.23 24.24 677.99 38.66C673.76 24.26 661.32 8.85001 639.92 8.85001C612.92 8.85001 594.99 31.57 594.99 56.38C594.99 56.52 594.99 56.65 594.99 56.78C594.84 62.18 594.99 117.11 677.99 161.89H678.04C761.05 117.11 761.18 62.18 761.04 56.76Z" fill="#C698FE"/>
<path id="Vector_41" d="M648.07 142.89C657.545 149.966 667.54 156.317 677.97 161.89H678.02C761.02 117.11 761.18 62.18 761.02 56.78C761.02 56.65 761.02 56.52 761.02 56.38C761.02 53.2706 760.735 50.1676 760.17 47.11C734.03 110.21 682.08 133.96 648.07 142.89Z" fill="#B376FD"/>
<path id="Vector_42" d="M599.55 62.04C599.55 62.04 598.97 14.76 648.07 14.2C648.07 14.2 614.65 22.31 599.55 62.04Z" fill="#D9BAFE"/>
</g>
<g id="Heart1">
<path id="Vector_43" d="M166.08 62.69C166.08 62.56 166.08 62.43 166.08 62.3C166.08 37.48 148.14 14.76 121.15 14.76C99.71 14.76 87.28 30.17 83.04 44.59C78.8 30.17 66.37 14.76 44.92 14.76C17.92 14.76 -0.0100168 37.48 -0.0100168 62.3C-0.0100168 62.43 -0.0100168 62.56 -0.0100168 62.69C-0.160017 68.09 -0.0100098 123.02 82.99 167.8H83.04C166.09 123.02 166.23 68.09 166.08 62.69Z" fill="#AA351A"/>
<path id="Vector_44" d="M53.12 148.76C62.595 155.836 72.59 162.187 83.02 167.76H83.07C166.07 122.98 166.23 68.05 166.07 62.65C166.07 62.52 166.07 62.39 166.07 62.26C166.069 59.1478 165.788 56.0419 165.23 52.98C139.08 116.12 87.13 139.87 53.12 148.76Z" fill="#932F1F"/>
<path id="Vector_45" d="M4.6 67.95C4.6 67.95 4.00999 20.67 53.12 20.11C53.12 20.11 19.7 28.22 4.6 67.95Z" fill="#E15A33"/>
</g>
</g>
<defs>
<clipPath id="clip0">
<rect width="1660.05" height="931.9" fill="white"/>
</clipPath>
</defs>
</svg>
