<svg id="Layer_1" data-name="Layer 1" xmlns="http://www.w3.org/2000/svg" viewBox="0 0 1660.05 931.9"><defs><style>.cls-1{fill:#aa351a;}.cls-2{fill:#932f1f;}.cls-3{fill:#e15a33;}.cls-4{fill:#c66c00;}.cls-5{fill:#ad5804;}.cls-6{fill:#d18933;}.cls-7{fill:#1e4f95;}.cls-8{fill:#143564;}.cls-9{fill:#2869c7;}.cls-10{fill:#fdf14d;}.cls-11{fill:#dbc70e;}.cls-12{fill:#fff9c2;}.cls-13{fill:#d4145a;}.cls-14{fill:#9f0f44;}.cls-15{fill:#dd437b;}.cls-16{fill:#ed1c24;}.cls-17{fill:#b2151b;}.cls-18{fill:#f14950;}.cls-19{fill:#bf6b61;}.cls-20{fill:#af463a;}.cls-21{fill:#cf9089;}.cls-22{fill:#c698fe;}.cls-23{fill:#b376fd;}.cls-24{fill:#d9bafe;}.cls-25{fill:#977e68;}.cls-26{fill:#7c5e42;}.cls-27{fill:#b19e8e;}.cls-28{fill:#ff7bac;}.cls-29{fill:#bf5c81;}.cls-30{fill:#ff95bd;}.cls-31{fill:#d28c53;}.cls-32{fill:#c76f28;}.cls-33{fill:#dea97e;}.cls-34{fill:#0071bc;}.cls-35{fill:#00558d;}.cls-36{fill:#338dc9;}.cls-37{fill:#646f16;}.cls-38{fill:#4b5411;}.cls-39{fill:#838c45;}.cls-40{fill:#b2ad76;}.cls-41{fill:#868158;}.cls-42{fill:#c2bd91;}.cls-43{fill:#8c3c7c;}.cls-44{fill:#6f0b5c;}.cls-45{fill:#c69dbe;}</style></defs><path class="cls-1" d="M260.16,149.93c0-.13,0-.26,0-.39,0-24.82-17.94-47.54-44.93-47.54-21.44,0-33.87,15.41-38.11,29.83h0C172.88,117.41,160.45,102,139,102c-27,0-44.93,22.72-44.93,47.54,0,.13,0,.26,0,.39-.15,5.4,0,60.33,83,105.11h.05C260.17,210.26,260.31,155.33,260.16,149.93Z" transform="translate(-94.08 -87.24)"/><path class="cls-2" d="M147.2,236a235.26,235.26,0,0,0,29.9,19h.05c83-44.78,83.16-99.71,83-105.11,0-.13,0-.26,0-.39a51.92,51.92,0,0,0-.84-9.28C233.16,203.36,181.21,227.11,147.2,236Z" transform="translate(-94.08 -87.24)"/><path class="cls-3" d="M98.68,155.19s-.59-47.28,48.52-47.84C147.2,107.35,113.78,115.46,98.68,155.19Z" transform="translate(-94.08 -87.24)"/><path class="cls-4" d="M547.12,320c0-.13,0-.26,0-.4,0-24.81-18-47.53-44.94-47.53-21.44,0-33.87,15.41-38.11,29.83h0c-4.24-14.42-16.68-29.83-38.12-29.83-27,0-44.93,22.72-44.93,47.53,0,.14,0,.27,0,.4-.15,5.4,0,60.33,83,105.11h.05C547.13,380.35,547.26,325.42,547.12,320Z" transform="translate(-94.08 -87.24)"/><path class="cls-5" d="M434.15,406.13a235.26,235.26,0,0,0,29.9,19h.05c83-44.78,83.16-99.71,83-105.11,0-.13,0-.26,0-.4a51,51,0,0,0-.85-9.27C520.11,373.45,468.16,397.2,434.15,406.13Z" transform="translate(-94.08 -87.24)"/><path class="cls-6" d="M385.63,325.28s-.58-47.28,48.52-47.84C434.15,277.44,400.73,285.55,385.63,325.28Z" transform="translate(-94.08 -87.24)"/><path class="cls-7" d="M362.12,580c0-.13,0-.26,0-.4,0-24.81-17.95-47.53-44.94-47.53-21.44,0-33.87,15.41-38.11,29.83h0c-4.24-14.42-16.68-29.83-38.12-29.83-27,0-44.93,22.72-44.93,47.53,0,.14,0,.27,0,.4-.15,5.4,0,60.33,83,105.11h.05C362.13,640.35,362.26,585.42,362.12,580Z" transform="translate(-94.08 -87.24)"/><path class="cls-8" d="M249.15,666.13a235.26,235.26,0,0,0,29.9,19h.05c83-44.78,83.16-99.71,83-105.11,0-.13,0-.26,0-.4a51,51,0,0,0-.85-9.27C335.11,633.45,283.16,657.2,249.15,666.13Z" transform="translate(-94.08 -87.24)"/><path class="cls-9" d="M200.63,585.28s-.58-47.28,48.52-47.84C249.15,537.44,215.73,545.55,200.63,585.28Z" transform="translate(-94.08 -87.24)"/><path class="cls-10" d="M300.12,901c0-.13,0-.26,0-.4,0-24.81-17.95-47.53-44.94-47.53-21.44,0-33.87,15.41-38.11,29.83h0c-4.24-14.42-16.68-29.83-38.12-29.83-27,0-44.93,22.72-44.93,47.53,0,.14,0,.27,0,.4-.15,5.4,0,60.33,83,105.11h0C300.13,961.35,300.26,906.42,300.12,901Z" transform="translate(-94.08 -87.24)"/><path class="cls-11" d="M187.15,987.13a235.26,235.26,0,0,0,29.9,19h0c83-44.78,83.16-99.71,83-105.11,0-.13,0-.26,0-.4a51,51,0,0,0-.85-9.27C273.11,954.45,221.16,978.2,187.15,987.13Z" transform="translate(-94.08 -87.24)"/><path class="cls-12" d="M138.63,906.28s-.58-47.28,48.52-47.84C187.15,858.44,153.73,866.55,138.63,906.28Z" transform="translate(-94.08 -87.24)"/><path class="cls-13" d="M646.12,914c0-.13,0-.26,0-.4,0-24.81-18-47.53-44.94-47.53-21.44,0-33.87,15.41-38.11,29.83h0c-4.24-14.42-16.68-29.83-38.12-29.83-27,0-44.93,22.72-44.93,47.53,0,.14,0,.27,0,.4-.15,5.4,0,60.33,83,105.11h.05C646.13,974.35,646.26,919.42,646.12,914Z" transform="translate(-94.08 -87.24)"/><path class="cls-14" d="M533.15,1000.13a235.26,235.26,0,0,0,29.9,19h.05c83-44.78,83.16-99.71,83-105.11,0-.13,0-.26,0-.4a51,51,0,0,0-.85-9.27C619.11,967.45,567.16,991.2,533.15,1000.13Z" transform="translate(-94.08 -87.24)"/><path class="cls-15" d="M484.63,919.28s-.58-47.28,48.52-47.84C533.15,871.44,499.73,879.55,484.63,919.28Z" transform="translate(-94.08 -87.24)"/><path class="cls-16" d="M1333.12,895c0-.13,0-.26,0-.4,0-24.81-18-47.53-44.94-47.53-21.44,0-33.87,15.41-38.11,29.83h0c-4.24-14.42-16.68-29.83-38.12-29.83-27,0-44.93,22.72-44.93,47.53,0,.14,0,.27,0,.4-.15,5.4,0,60.33,83,105.11h0C1333.13,955.35,1333.26,900.42,1333.12,895Z" transform="translate(-94.08 -87.24)"/><path class="cls-17" d="M1220.15,981.13a235.26,235.26,0,0,0,29.9,19h0c83-44.78,83.16-99.71,83-105.11,0-.13,0-.26,0-.4a51,51,0,0,0-.85-9.27C1306.11,948.45,1254.16,972.2,1220.15,981.13Z" transform="translate(-94.08 -87.24)"/><path class="cls-18" d="M1171.63,900.28s-.58-47.28,48.52-47.84C1220.15,852.44,1186.73,860.55,1171.63,900.28Z" transform="translate(-94.08 -87.24)"/><path class="cls-19" d="M938.12,829c0-.13,0-.26,0-.4,0-24.81-18-47.53-44.94-47.53-21.44,0-33.87,15.41-38.11,29.83h0c-4.24-14.42-16.68-29.83-38.12-29.83-27,0-44.93,22.72-44.93,47.53,0,.14,0,.27,0,.4-.15,5.4,0,60.33,83,105.11h.05C938.13,889.35,938.26,834.42,938.12,829Z" transform="translate(-94.08 -87.24)"/><path class="cls-20" d="M825.15,915.13a235.26,235.26,0,0,0,29.9,19h.05c83-44.78,83.16-99.71,83-105.11,0-.13,0-.26,0-.4a51,51,0,0,0-.85-9.27C911.11,882.45,859.16,906.2,825.15,915.13Z" transform="translate(-94.08 -87.24)"/><path class="cls-21" d="M776.63,834.28s-.58-47.28,48.52-47.84C825.15,786.44,791.73,794.55,776.63,834.28Z" transform="translate(-94.08 -87.24)"/><path class="cls-22" d="M855.12,144c0-.13,0-.26,0-.4,0-24.81-18-47.53-44.94-47.53-21.44,0-33.87,15.41-38.11,29.83h0C767.84,111.5,755.4,96.09,734,96.09c-27,0-44.93,22.72-44.93,47.53,0,.14,0,.27,0,.4-.15,5.4,0,60.33,83,105.11h.05C855.13,204.35,855.26,149.42,855.12,144Z" transform="translate(-94.08 -87.24)"/><path class="cls-23" d="M742.15,230.13a235.26,235.26,0,0,0,29.9,19h.05c83-44.78,83.16-99.71,83-105.11,0-.13,0-.26,0-.4a51,51,0,0,0-.85-9.27C828.11,197.45,776.16,221.2,742.15,230.13Z" transform="translate(-94.08 -87.24)"/><path class="cls-24" d="M693.63,149.28s-.58-47.28,48.52-47.84C742.15,101.44,708.73,109.55,693.63,149.28Z" transform="translate(-94.08 -87.24)"/><path class="cls-25" d="M1513.12,643c0-.13,0-.26,0-.4,0-24.81-18-47.53-44.94-47.53-21.44,0-33.87,15.41-38.11,29.83h0c-4.24-14.42-16.68-29.83-38.12-29.83-27,0-44.93,22.72-44.93,47.53,0,.14,0,.27,0,.4-.15,5.4,0,60.33,83,105.11h0C1513.13,703.35,1513.26,648.42,1513.12,643Z" transform="translate(-94.08 -87.24)"/><path class="cls-26" d="M1400.15,729.13a235.26,235.26,0,0,0,29.9,19h0c83-44.78,83.16-99.71,83-105.11,0-.13,0-.26,0-.4a51,51,0,0,0-.85-9.27C1486.11,696.45,1434.16,720.2,1400.15,729.13Z" transform="translate(-94.08 -87.24)"/><path class="cls-27" d="M1351.63,648.28s-.58-47.28,48.52-47.84C1400.15,600.44,1366.73,608.55,1351.63,648.28Z" transform="translate(-94.08 -87.24)"/><path class="cls-28" d="M1754.12,888c0-.13,0-.26,0-.4,0-24.81-18-47.53-44.94-47.53-21.44,0-33.87,15.41-38.11,29.83h0c-4.24-14.42-16.68-29.83-38.12-29.83-27,0-44.93,22.72-44.93,47.53,0,.14,0,.27,0,.4-.15,5.4,0,60.33,83,105.11h0C1754.13,948.35,1754.26,893.42,1754.12,888Z" transform="translate(-94.08 -87.24)"/><path class="cls-29" d="M1641.15,974.13a235.26,235.26,0,0,0,29.9,19h0c83-44.78,83.16-99.71,83-105.11,0-.13,0-.26,0-.4a51,51,0,0,0-.85-9.27C1727.11,941.45,1675.16,965.2,1641.15,974.13Z" transform="translate(-94.08 -87.24)"/><path class="cls-30" d="M1592.63,893.28s-.58-47.28,48.52-47.84C1641.15,845.44,1607.73,853.55,1592.63,893.28Z" transform="translate(-94.08 -87.24)"/><path class="cls-31" d="M1689.12,135.17c0-.13,0-.26,0-.39,0-24.82-18-47.54-44.94-47.54-21.44,0-33.87,15.41-38.11,29.84h0c-4.24-14.43-16.68-29.84-38.12-29.84-27,0-44.93,22.72-44.93,47.54,0,.13,0,.26,0,.39-.15,5.4,0,60.34,83,105.11v0h0v0C1689.13,195.51,1689.26,140.57,1689.12,135.17Z" transform="translate(-94.08 -87.24)"/><path class="cls-32" d="M1576.15,221.28a235.26,235.26,0,0,0,29.9,19v0h0v0c83-44.77,83.16-99.71,83-105.11,0-.13,0-.26,0-.39a51.1,51.1,0,0,0-.85-9.28C1662.11,188.6,1610.16,212.36,1576.15,221.28Z" transform="translate(-94.08 -87.24)"/><path class="cls-33" d="M1527.63,140.43s-.58-47.28,48.52-47.84C1576.15,92.59,1542.73,100.7,1527.63,140.43Z" transform="translate(-94.08 -87.24)"/><path class="cls-34" d="M1293.12,235.17c0-.13,0-.26,0-.39,0-24.82-18-47.54-44.94-47.54-21.44,0-33.87,15.41-38.11,29.84h0c-4.24-14.43-16.68-29.84-38.12-29.84-27,0-44.93,22.72-44.93,47.54,0,.13,0,.26,0,.39-.15,5.4,0,60.34,83,105.11v0h0v0C1293.13,295.51,1293.26,240.57,1293.12,235.17Z" transform="translate(-94.08 -87.24)"/><path class="cls-35" d="M1180.15,321.28a235.26,235.26,0,0,0,29.9,19v0h0v0c83-44.77,83.16-99.71,83-105.11,0-.13,0-.26,0-.39a51.1,51.1,0,0,0-.85-9.28C1266.11,288.6,1214.16,312.36,1180.15,321.28Z" transform="translate(-94.08 -87.24)"/><path class="cls-36" d="M1131.63,240.43s-.58-47.28,48.52-47.84C1180.15,192.59,1146.73,200.7,1131.63,240.43Z" transform="translate(-94.08 -87.24)"/><path class="cls-37" d="M1703.12,469.17c0-.13,0-.26,0-.39,0-24.82-18-47.54-44.94-47.54-21.44,0-33.87,15.41-38.11,29.84h0c-4.24-14.43-16.68-29.84-38.12-29.84-27,0-44.93,22.72-44.93,47.54,0,.13,0,.26,0,.39-.15,5.4,0,60.34,83,105.11v0h0v0C1703.13,529.51,1703.26,474.57,1703.12,469.17Z" transform="translate(-94.08 -87.24)"/><path class="cls-38" d="M1590.15,555.28a235.26,235.26,0,0,0,29.9,19v0h0v0c83-44.77,83.16-99.71,83-105.11,0-.13,0-.26,0-.39a51.1,51.1,0,0,0-.85-9.28C1676.11,522.6,1624.16,546.36,1590.15,555.28Z" transform="translate(-94.08 -87.24)"/><path class="cls-39" d="M1541.63,474.43s-.58-47.28,48.52-47.84C1590.15,426.59,1556.73,434.7,1541.63,474.43Z" transform="translate(-94.08 -87.24)"/><path class="cls-40" d="M764.12,527.17c0-.13,0-.26,0-.39,0-24.82-18-47.54-44.94-47.54-21.44,0-33.87,15.41-38.11,29.84h0c-4.24-14.43-16.68-29.84-38.12-29.84C616,479.24,598,502,598,526.78c0,.13,0,.26,0,.39-.15,5.4,0,60.34,83,105.11v0h.05v0C764.13,587.51,764.26,532.57,764.12,527.17Z" transform="translate(-94.08 -87.24)"/><path class="cls-41" d="M651.15,613.28a235.26,235.26,0,0,0,29.9,19v0h.05v0c83-44.77,83.16-99.71,83-105.11,0-.13,0-.26,0-.39a51.1,51.1,0,0,0-.85-9.28C737.11,580.6,685.16,604.36,651.15,613.28Z" transform="translate(-94.08 -87.24)"/><path class="cls-42" d="M602.63,532.43s-.58-47.28,48.52-47.84C651.15,484.59,617.73,492.7,602.63,532.43Z" transform="translate(-94.08 -87.24)"/><path class="cls-43" d="M1166.12,542.17c0-.13,0-.26,0-.39,0-24.82-18-47.54-44.94-47.54-21.44,0-33.87,15.41-38.11,29.84h0c-4.24-14.43-16.68-29.84-38.12-29.84-27,0-44.93,22.72-44.93,47.54,0,.13,0,.26,0,.39-.15,5.4,0,60.34,83,105.11v0h0v0C1166.13,602.51,1166.26,547.57,1166.12,542.17Z" transform="translate(-94.08 -87.24)"/><path class="cls-44" d="M1053.15,628.28a235.26,235.26,0,0,0,29.9,19v0h0v0c83-44.77,83.16-99.71,83-105.11,0-.13,0-.26,0-.39a51.1,51.1,0,0,0-.85-9.28C1139.11,595.6,1087.16,619.36,1053.15,628.28Z" transform="translate(-94.08 -87.24)"/><path class="cls-45" d="M1004.63,547.43s-.58-47.28,48.52-47.84C1053.15,499.59,1019.73,507.7,1004.63,547.43Z" transform="translate(-94.08 -87.24)"/></svg>