<svg width="414" height="896" viewBox="0 0 414 896" fill="none" xmlns="http://www.w3.org/2000/svg">
<g id="Heartsmobile">
<g id="Heart15">
<path id="Vector" d="M233.281 557.398C233.281 557.351 233.281 557.304 233.281 557.253C233.281 548.247 226.749 540 216.973 540C209.192 540 204.681 545.594 203.143 550.828C201.604 545.594 197.09 540 189.309 540C179.511 540 173.004 548.247 173.004 557.253C173.004 557.304 173.004 557.351 173.004 557.398C172.95 559.359 173.004 579.298 203.125 595.553C233.285 579.305 233.332 559.366 233.281 557.398Z" fill="#FF7BAC"/>
<path id="Vector 2" d="M192.285 588.663C195.725 591.232 199.35 593.537 203.135 595.56C233.256 579.305 233.314 559.366 233.256 557.406C233.256 557.359 233.256 557.311 233.256 557.26C233.256 556.132 233.154 555.006 232.947 553.896C223.479 576.801 204.627 585.422 192.285 588.663Z" fill="#BF5C81"/>
<path id="Vector 3" d="M174.677 559.315C174.677 559.315 174.467 542.153 192.285 541.949C192.285 541.949 180.157 544.893 174.677 559.315Z" fill="#FF95BD"/>
</g>
<g id="Heart14">
<path id="Vector 4" d="M103.281 635.398C103.281 635.351 103.281 635.304 103.281 635.253C103.281 626.247 96.7491 618 86.9727 618C79.1922 618 74.6814 623.594 73.1427 628.828C71.604 623.594 67.0896 618 59.3091 618C49.5109 618 43.0041 626.247 43.0041 635.253C43.0041 635.304 43.0041 635.351 43.0041 635.398C42.9497 637.359 43.0041 657.298 73.1245 673.553C103.285 657.305 103.332 637.366 103.281 635.398Z" fill="#ED1C24"/>
<path id="Vector 5" d="M62.2847 666.663C65.725 669.232 69.3503 671.537 73.1354 673.56C103.256 657.305 103.314 637.366 103.256 635.406C103.256 635.359 103.256 635.311 103.256 635.26C103.256 634.132 103.154 633.006 102.947 631.896C93.4794 654.801 74.6268 663.422 62.2847 666.663Z" fill="#B2151B"/>
<path id="Vector 6" d="M44.6771 637.315C44.6771 637.315 44.4665 620.153 62.2848 619.949C62.2848 619.949 50.1568 622.893 44.6771 637.315Z" fill="#F14950"/>
</g>
<g id="Heart13">
<path id="Vector 7" d="M371.278 299.565C371.278 299.517 371.278 299.47 371.278 299.419C371.278 290.413 364.746 282.166 354.969 282.166C347.189 282.166 342.678 287.76 341.139 292.994C339.601 287.76 335.086 282.166 327.306 282.166C317.507 282.166 311.001 290.413 311.001 299.419C311.001 299.47 311.001 299.517 311.001 299.565C310.946 301.525 311.001 321.464 341.121 337.719H341.139C371.281 321.471 371.329 301.532 371.278 299.565Z" fill="#BF6B61"/>
<path id="Vector 8" d="M330.281 330.829C333.72 333.398 337.347 335.703 341.132 337.726H341.15C371.271 321.471 371.329 301.532 371.271 299.572C371.271 299.525 371.271 299.477 371.271 299.427C371.271 298.298 371.167 297.172 370.962 296.062C361.476 318.967 342.623 327.588 330.281 330.829Z" fill="#AF463A"/>
<path id="Vector 9" d="M312.674 301.481C312.674 301.481 312.463 284.319 330.281 284.115C330.281 284.115 318.153 287.059 312.674 301.481Z" fill="#CF9089"/>
</g>
<g id="Heart12">
<path id="Vector 10" d="M233.281 372.398C233.281 372.351 233.281 372.304 233.281 372.253C233.281 363.247 226.749 355 216.973 355C209.192 355 204.681 360.594 203.143 365.828C201.604 360.594 197.09 355 189.309 355C179.511 355 173.004 363.247 173.004 372.253C173.004 372.304 173.004 372.351 173.004 372.398C172.95 374.359 173.004 394.298 203.125 410.553H203.143C233.285 394.305 233.332 374.366 233.281 372.398Z" fill="#D4145A"/>
<path id="Vector 11" d="M192.285 403.663C195.723 406.232 199.35 408.537 203.135 410.56H203.154C233.274 394.305 233.332 374.366 233.274 372.406C233.274 372.359 233.274 372.311 233.274 372.261C233.274 371.132 233.171 370.006 232.965 368.896C223.479 391.801 204.627 400.422 192.285 403.663Z" fill="#9F0F44"/>
<path id="Vector 12" d="M174.677 374.315C174.677 374.315 174.467 357.153 192.285 356.949C192.285 356.949 180.157 359.893 174.677 374.315Z" fill="#DD437B"/>
</g>
<g id="Heart11">
<path id="Vector 13" d="M103.281 461.866C103.281 461.819 103.281 461.772 103.281 461.721C103.281 452.715 96.7672 444.468 86.9726 444.468C79.1921 444.468 74.6813 450.061 73.1427 455.296C71.604 450.061 67.0895 444.468 59.309 444.468C49.5108 444.468 43.0041 452.715 43.0041 461.721C43.0041 461.772 43.0041 461.819 43.0041 461.866C42.9497 463.826 43.0041 483.766 73.1245 500.021C103.285 483.773 103.332 463.833 103.281 461.866Z" fill="#FDF14D"/>
<path id="Vector 14" d="M62.2848 493.131C65.7232 495.699 69.3504 498.005 73.1354 500.028C103.256 483.773 103.314 463.833 103.256 461.873C103.256 461.826 103.256 461.779 103.256 461.728C103.256 460.599 103.152 459.473 102.947 458.363C93.4794 481.268 74.6269 489.889 62.2848 493.131Z" fill="#DBC70E"/>
<path id="Vector 15" d="M44.6771 463.783C44.6771 463.783 44.4666 446.62 62.2848 446.417C62.2848 446.417 50.1568 449.361 44.6771 463.783Z" fill="#FFF9C2"/>
</g>
<g id="Heart10">
<path id="Vector 16" d="M371.281 635.398C371.281 635.351 371.281 635.304 371.281 635.257C371.281 626.247 364.749 618 354.973 618C347.192 618 342.681 623.594 341.143 628.832C339.604 623.594 335.09 618 327.309 618C317.511 618 311.004 626.247 311.004 635.257C311.004 635.304 311.004 635.351 311.004 635.398C310.95 637.359 311.004 657.302 341.125 673.553C371.285 657.302 371.332 637.359 371.281 635.398Z" fill="#646F16"/>
<path id="Vector 17" d="M330.285 666.656C333.725 669.225 337.35 671.53 341.135 673.553C371.256 657.302 371.314 637.359 371.256 635.398C371.256 635.351 371.256 635.304 371.256 635.257C371.256 634.127 371.154 632.999 370.947 631.888C361.479 654.793 342.627 663.418 330.285 666.656Z" fill="#4B5411"/>
<path id="Vector 18" d="M312.677 637.308C312.677 637.308 312.467 620.145 330.285 619.942C330.285 619.942 318.157 622.886 312.677 637.308Z" fill="#838C45"/>
</g>
<g id="Heart7">
<path id="Vector 25" d="M371.285 461.866C371.285 461.819 371.285 461.772 371.285 461.724C371.285 452.715 364.753 444.468 354.976 444.468C347.196 444.468 342.685 450.061 341.146 455.299C339.608 450.061 335.093 444.468 327.313 444.468C317.533 444.468 311.001 452.729 311.001 461.724C311.001 461.772 311.001 461.819 311.001 461.866C310.946 463.826 311.001 483.769 341.121 500.021H341.139C371.289 483.769 371.336 463.826 371.285 461.866Z" fill="#B2AD76"/>
<path id="Vector 26" d="M330.289 493.124C333.727 495.692 337.354 497.998 341.139 500.021H341.157C371.278 483.769 371.336 463.826 371.278 461.866C371.278 461.819 371.278 461.772 371.278 461.725C371.278 460.594 371.174 459.467 370.969 458.356C361.483 481.261 342.631 489.886 330.289 493.124Z" fill="#868158"/>
<path id="Vector 27" d="M312.681 463.775C312.681 463.775 312.47 446.613 330.289 446.41C330.289 446.41 318.161 449.354 312.681 463.775Z" fill="#C2BD91"/>
</g>
<g id="Heart6">
<path id="Vector 28" d="M103.281 299.565C103.281 299.517 103.281 299.47 103.281 299.419C103.281 290.413 96.7672 282.166 86.9726 282.166C79.1921 282.166 74.6813 287.76 73.1427 292.994C71.604 287.76 67.0895 282.166 59.309 282.166C49.5108 282.166 43.0041 290.413 43.0041 299.419C43.0041 299.47 43.0041 299.517 43.0041 299.565C42.9497 301.525 43.0041 321.464 73.1245 337.719H73.1427C103.285 321.471 103.332 301.532 103.281 299.565Z" fill="#1E4F95"/>
<path id="Vector 29" d="M62.2848 330.829C65.7232 333.398 69.3504 335.703 73.1354 337.726H73.1535C103.274 321.471 103.332 301.532 103.274 299.572C103.274 299.525 103.274 299.477 103.274 299.427C103.274 298.298 103.171 297.172 102.965 296.062C93.4794 318.967 74.6269 327.588 62.2848 330.829Z" fill="#143564"/>
<path id="Vector 30" d="M44.6771 301.481C44.6771 301.481 44.4666 284.319 62.2848 284.115C62.2848 284.115 50.1568 287.059 44.6771 301.481Z" fill="#2869C7"/>
</g>
<g id="Heart5">
<path id="Vector 31" d="M233.281 742.398C233.281 742.351 233.281 742.304 233.281 742.257C233.281 733.247 226.749 725 216.973 725C209.192 725 204.681 730.594 203.143 735.832C201.604 730.594 197.09 725 189.309 725C179.511 725 173.004 733.247 173.004 742.257C173.004 742.304 173.004 742.351 173.004 742.398C172.95 744.359 173.004 764.302 203.125 780.553C233.285 764.302 233.332 744.359 233.281 742.398Z" fill="#0071BC"/>
<path id="Vector 32" d="M192.285 773.656C195.725 776.225 199.35 778.53 203.135 780.553C233.256 764.302 233.314 744.359 233.256 742.398C233.256 742.351 233.256 742.304 233.256 742.257C233.256 741.127 233.154 739.999 232.947 738.888C223.479 761.793 204.627 770.418 192.285 773.656Z" fill="#00558D"/>
<path id="Vector 33" d="M174.677 744.308C174.677 744.308 174.467 727.145 192.285 726.942C192.285 726.942 180.157 729.886 174.677 744.308Z" fill="#338DC9"/>
</g>
<g id="Heart4">
<path id="Vector 34" d="M233.281 207.398C233.281 207.351 233.281 207.304 233.281 207.253C233.281 198.247 226.749 190 216.973 190C209.192 190 204.681 195.594 203.143 200.828C201.604 195.594 197.09 190 189.309 190C179.511 190 173.004 198.247 173.004 207.253C173.004 207.304 173.004 207.351 173.004 207.398C172.95 209.359 173.004 229.298 203.125 245.553H203.143C233.285 229.305 233.332 209.366 233.281 207.398Z" fill="#C66C00"/>
<path id="Vector 35" d="M192.285 238.663C195.723 241.232 199.35 243.537 203.135 245.56H203.154C233.274 229.305 233.332 209.366 233.274 207.406C233.274 207.359 233.274 207.311 233.274 207.261C233.274 206.132 233.171 205.006 232.966 203.896C223.479 226.801 204.627 235.422 192.285 238.663Z" fill="#AD5804"/>
<path id="Vector 36" d="M174.677 209.315C174.677 209.315 174.467 192.153 192.285 191.949C192.285 191.949 180.157 194.893 174.677 209.315Z" fill="#D18933"/>
</g>
<g id="Heart2">
<path id="Vector 40" d="M371.26 132.398C371.26 132.351 371.26 132.304 371.26 132.253C371.26 123.247 364.728 115 354.951 115C347.171 115 342.66 120.594 341.121 125.828C339.586 120.601 335.072 115.007 327.306 115.007C317.507 115.007 311.001 123.255 311.001 132.26C311.001 132.311 311.001 132.358 311.001 132.406C310.946 134.366 311.001 154.305 341.121 170.56H341.139C371.263 154.305 371.31 134.366 371.26 132.398Z" fill="#C698FE"/>
<path id="Vector 41" d="M330.263 163.663C333.702 166.232 337.329 168.537 341.114 170.56H341.132C371.252 154.305 371.311 134.366 371.252 132.406C371.252 132.358 371.252 132.311 371.252 132.26C371.252 131.132 371.149 130.005 370.944 128.895C361.458 151.801 342.605 160.422 330.263 163.663Z" fill="#B376FD"/>
<path id="Vector 42" d="M312.655 134.315C312.655 134.315 312.445 117.153 330.263 116.949C330.263 116.949 318.135 119.893 312.655 134.315Z" fill="#D9BAFE"/>
</g>
<g id="Heart1">
<path id="Vector 43" d="M103.278 132.398C103.278 132.351 103.278 132.304 103.278 132.257C103.278 123.247 96.7672 115 86.9726 115C79.1921 115 74.6813 120.594 73.1427 125.828C71.604 120.594 67.0932 115 59.309 115C49.5108 115 43.0041 123.247 43.0041 132.257C43.0041 132.304 43.0041 132.351 43.0041 132.398C42.9497 134.359 43.0041 154.298 73.1245 170.553H73.1427C103.281 154.298 103.332 134.359 103.278 132.398Z" fill="#AA351A"/>
<path id="Vector 44" d="M62.2848 163.642C65.7232 166.21 69.3504 168.515 73.1354 170.538H73.1535C103.274 154.283 103.332 134.344 103.274 132.384C103.274 132.337 103.274 132.29 103.274 132.242C103.274 131.113 103.172 129.985 102.969 128.874C93.4794 151.793 74.6269 160.414 62.2848 163.642Z" fill="#932F1F"/>
<path id="Vector 45" d="M44.6771 134.308C44.6771 134.308 44.4629 117.145 62.2848 116.942C62.2848 116.942 50.1568 119.886 44.6771 134.308Z" fill="#E15A33"/>
</g>
</g>
</svg>
