<svg width="834" height="1194" viewBox="0 0 834 1194" fill="none" xmlns="http://www.w3.org/2000/svg">
<g id="sandtablet" clip-path="url(#clip0)">
<g id="sand2 1" clip-path="url(#clip1)">
<path id="sand" fill-rule="evenodd" clip-rule="evenodd" d="M1325 1194H-119.729V619.286C-119.729 619.286 11.4252 781.943 249.843 619.286C488.261 456.629 989.401 794.316 989.401 794.316C989.401 794.316 1176.76 924.946 1325 890.637V1194Z" fill="#D3D1C9"/>
<path id="line1" d="M763.449 1120.22C752.11 1120.22 738.415 1119.68 722.41 1118.11C674.711 1113.44 596.749 1098.37 496.144 1053.03C397.158 1008.41 318.285 1010.67 269.548 1020.46C226.183 1029.12 198.297 1045.09 189.591 1050.65C187.875 1051.74 185.829 1050.97 184.768 1048.82L184.662 1048.62C183.33 1045.92 184.083 1042.22 186.242 1040.86C196.213 1034.54 224.091 1018.93 267.636 1010.14C299.398 1003.72 332.935 1002.33 367.323 1005.99C410.213 1010.56 454.608 1023.06 499.162 1043.15C598.818 1088.06 675.991 1102.99 723.11 1107.6C763.622 1111.56 789.327 1108.81 798.251 1107.49C800.245 1107.2 802.066 1109.05 802.45 1111.74C802.878 1114.75 801.321 1117.67 799.079 1118C793.209 1118.87 781.245 1120.22 763.449 1120.22Z" fill="#CAC3BA"/>
<path id="line2" d="M84.0661 910.222C95.4057 910.222 109.108 909.672 125.113 908.106C172.812 903.445 250.774 888.369 351.371 843.036C450.358 798.441 529.238 800.7 577.975 810.437C621.34 819.119 649.189 835.091 657.925 840.649C659.648 841.74 661.687 840.972 662.755 838.819L662.853 838.615C664.193 835.912 663.44 832.222 661.273 830.851C651.31 824.548 623.424 808.93 579.879 800.135C548.118 793.727 514.58 792.326 480.2 795.993C437.31 800.557 392.915 813.065 348.354 833.148C248.697 878.067 171.57 892.992 124.413 897.601C83.893 901.562 58.1964 898.806 49.2722 897.496C47.2782 897.202 45.4572 899.047 45.0734 901.743C44.637 904.755 46.1946 907.669 48.4445 908.008C54.3062 908.874 66.2779 910.222 84.0661 910.222Z" fill="#CAC3BA"/>
</g>
</g>
<defs>
<clipPath id="clip0">
<rect width="834" height="1194" fill="white"/>
</clipPath>
<clipPath id="clip1">
<rect width="1445" height="619" fill="white" transform="translate(-120 575)"/>
</clipPath>
</defs>
</svg>
