<svg width="1440" height="1024" viewBox="0 0 1440 1024" fill="none" xmlns="http://www.w3.org/2000/svg">
<g id="sanddesktop" clip-path="url(#clip0)">
<g id="sand2 1" clip-path="url(#clip1)">
<path id="sand" fill-rule="evenodd" clip-rule="evenodd" d="M1445 1024H0.270874V449.286C0.270874 449.286 131.425 611.943 369.843 449.286C608.261 286.629 1109.4 624.316 1109.4 624.316C1109.4 624.316 1296.76 754.946 1445 720.637V1024Z" fill="#D3D1C9"/>
<g id="lines">
<path id="line1" d="M1186.96 950.563C1175.62 950.563 1161.92 950.021 1145.92 948.455C1098.22 943.786 1020.26 928.71 919.653 883.377C820.666 838.752 741.793 841.011 693.056 850.8C649.692 859.46 621.805 875.44 613.099 880.997C611.384 882.089 609.337 881.314 608.276 879.168L608.171 878.964C606.839 876.261 607.591 872.563 609.751 871.2C619.721 864.89 647.6 849.272 691.145 840.484C722.906 834.068 756.444 832.675 790.831 836.335C833.722 840.905 878.117 853.406 922.67 873.497C1022.33 918.409 1099.5 933.334 1146.62 937.942C1187.13 941.903 1212.83 939.155 1221.76 937.837C1223.75 937.543 1225.57 939.396 1225.96 942.084C1226.39 945.096 1224.83 948.018 1222.59 948.349C1216.72 949.215 1204.75 950.563 1186.96 950.563Z" fill="#CAC3BA"/>
<path id="line2" d="M323.649 848.12C334.989 848.12 348.691 847.57 364.696 846.004C412.395 841.342 490.358 826.266 590.954 780.933C689.941 736.338 768.822 738.597 817.559 748.334C860.923 757.017 888.772 772.989 897.508 778.546C899.231 779.638 901.27 778.87 902.339 776.716L902.437 776.513C903.776 773.81 903.023 770.12 900.856 768.749C890.894 762.446 863.008 746.828 819.463 738.033C787.701 731.624 754.164 730.224 719.784 733.891C676.893 738.454 632.498 750.962 587.937 771.046C488.281 815.965 411.153 830.89 363.996 835.499C323.476 839.46 297.78 836.704 288.855 835.393C286.861 835.1 285.041 836.945 284.657 839.64C284.22 842.653 285.778 845.567 288.028 845.906C293.889 846.772 305.861 848.12 323.649 848.12Z" fill="#CAC3BA"/>
<path id="line3" d="M54.2676 627.328C60.9823 632.48 68.0059 637.215 75.299 641.508C119.237 667.846 168.152 684.787 218.959 691.261C255.168 695.763 291.863 694.457 327.66 687.391C371.626 678.746 413.621 661.396 451.937 638.307C457.42 634.999 462.835 631.578 468.183 628.043C473.013 624.858 468.499 617.034 463.623 620.242C425.706 645.22 384.23 664.716 340.016 675.44C304.332 684.081 267.474 686.81 230.908 683.52C201.199 680.742 171.963 674.198 143.901 664.046C123.5 656.751 103.803 647.62 85.0509 636.764C76.4322 631.837 68.1083 626.411 60.1218 620.513L60.6485 620.92C56.1337 617.365 49.7002 623.713 54.2676 627.305V627.328Z" fill="#CAC3BA"/>
</g>
</g>
</g>
<defs>
<clipPath id="clip0">
<rect width="1440" height="1024" fill="white"/>
</clipPath>
<clipPath id="clip1">
<rect width="1445" height="619" fill="white" transform="translate(0 405)"/>
</clipPath>
</defs>
</svg>
