<svg width="414" height="896" viewBox="0 0 414 896" fill="none" xmlns="http://www.w3.org/2000/svg">
<g id="sandphone" clip-path="url(#clip0)">
<g id="sand2 1" clip-path="url(#clip1)">
<path id="sand" fill-rule="evenodd" clip-rule="evenodd" d="M1305 974H-139.729V399.286C-139.729 399.286 -8.57482 561.943 229.843 399.286C468.261 236.629 969.401 574.316 969.401 574.316C969.401 574.316 1156.76 704.946 1305 670.637V974Z" fill="#D3D1C9"/>
<path id="line1" d="M370.271 763C365.706 763 360.193 762.781 353.75 762.147C334.547 760.259 303.162 754.162 262.661 735.829C222.812 717.782 191.059 718.696 171.439 722.655C153.982 726.157 142.756 732.619 139.251 734.867C138.56 735.308 137.736 734.995 137.309 734.127L137.267 734.045C136.73 732.951 137.033 731.456 137.903 730.905C141.916 728.353 153.14 722.037 170.67 718.483C183.456 715.888 196.957 715.325 210.801 716.805C228.067 718.653 245.94 723.708 263.876 731.834C303.995 749.996 335.062 756.032 354.031 757.896C370.341 759.498 380.688 758.386 384.281 757.853C385.084 757.735 385.817 758.484 385.971 759.571C386.144 760.789 385.517 761.971 384.614 762.105C382.251 762.455 377.435 763 370.271 763Z" fill="#CAC3BA"/>
<path id="line2" d="M43.7164 605C47.9881 605 53.1498 604.792 59.179 604.199C77.1473 602.434 106.516 596.727 144.412 579.564C181.7 562.681 211.415 563.536 229.775 567.223C246.11 570.51 256.601 576.556 259.892 578.66C260.541 579.074 261.309 578.783 261.712 577.968L261.749 577.891C262.253 576.867 261.97 575.47 261.153 574.951C257.4 572.565 246.895 566.652 230.492 563.323C218.527 560.896 205.893 560.366 192.942 561.755C176.785 563.482 160.061 568.218 143.275 575.821C105.734 592.827 76.6796 598.477 58.9154 600.222C43.6512 601.721 33.9712 600.678 30.6094 600.182C29.8582 600.071 29.1722 600.769 29.0277 601.79C28.8633 602.93 29.45 604.034 30.2976 604.162C32.5057 604.49 37.0155 605 43.7164 605Z" fill="#CAC3BA"/>
</g>
</g>
<defs>
<clipPath id="clip0">
<rect width="414" height="896" fill="white"/>
</clipPath>
<clipPath id="clip1">
<rect width="1445" height="619" fill="white" transform="translate(-140 355)"/>
</clipPath>
</defs>
</svg>
