<svg width="1920" height="822" viewBox="0 0 1920 822" fill="none" xmlns="http://www.w3.org/2000/svg">
<g id="skies">
<path id="Vector" fill-rule="evenodd" clip-rule="evenodd" d="M1920 402.85C1723 357.29 1474 530.76 1474 530.76C1474 530.76 808 979.16 491.15 763.19C174.3 547.22 0 763.19 0 763.19V0H1920V402.85Z" fill="#EBF3F7"/>
</g>
<g id="cloud">
<path id="Vector_2" d="M125.82 364.17C149.98 351.52 213.26 353.24 213.26 353.24C219.9 346.66 221.26 330.34 223.89 321.38C232.64 292.02 268.83 274.3 297.38 285.38C296.94 237.91 348.61 197.59 394.55 209.54C397.21 196.83 409.71 188.08 422.49 185.73C435.27 183.38 448.35 186.14 461.04 188.89C461.27 149.8 502.15 123.19 540.45 115.41C580.32 107.31 623.23 111.67 659.03 131.01C694.83 150.35 722.67 185.26 730.03 225.27C772.696 206.361 820.812 203.739 865.28 217.9C896.44 227.95 927.59 250.3 932.01 282.74C964.68 274.02 1002.14 298.65 1007.09 332.09C1027.98 325.45 1049.8 319.82 1071.6 322.14C1093.4 324.46 1115.35 336.19 1124.43 356.14C1145.62 353.14 1168.04 365.96 1176.23 385.73C1183.97 411.88 1176.23 432.99 1115.23 411.86C1105.87 408.62 1097.02 419.67 1087.91 423.58C1060.31 435.41 1032.54 447.31 1003.33 454.28C948.534 467.211 891.048 462.418 839.15 440.59C832.01 437.59 824.92 434.2 817.29 432.78C802.98 430.12 788.43 434.55 773.96 436.09C759.49 437.63 742.66 435.09 734.61 422.94C718.719 433.883 700.648 441.256 681.638 444.555C662.628 447.854 643.129 446.999 624.48 442.05C537.69 497.73 417.86 496.46 332.28 438.94C326.91 435.34 321.04 431.36 314.61 431.94C309.66 432.43 305.45 435.58 301.21 438.19C270.13 457.33 224.64 447.19 204.6 416.7C183.726 431.228 158.448 438.041 133.1 435.97C121.1 434.97 107.89 432.18 100.15 422.92C81.82 401 104.61 375.28 125.82 364.17Z" fill="white"/>
<path id="Vector_3" d="M1123.62 355.06C1120.52 348.367 1116.02 342.418 1110.42 337.62C1112.78 344.589 1113.09 352.086 1111.34 359.23C1106.8 376.72 1084.34 388.69 1069.25 378.72C1064.32 375.45 1060.25 370.21 1054.41 369.41C1050.29 368.86 1046.26 370.69 1042.54 372.52C1031.54 377.93 1020.24 383.86 1007.99 384.16C995.74 384.46 982.27 377.05 980.36 364.94C977.93 349.51 992.62 340.76 1006.23 330.66C1001.07 297.4 963.76 272.98 931.23 281.66C926.81 249.22 895.65 226.87 864.5 216.82C845.059 210.585 824.735 207.545 804.32 207.82C803.73 208.63 803.16 209.46 802.63 210.36C832.52 210.9 861.31 229.88 873.58 257.14C885.85 284.4 880.98 318.54 861.58 341.28C835.22 309.76 783.07 304.28 750.74 329.63C755.74 315.47 742.08 301.48 728.29 295.51C714.5 289.54 698.36 286.58 688.73 275.05C711.45 268.15 723.73 246.98 729.01 222.93C721.28 183.45 693.65 149.04 658.23 129.93C642.078 121.303 624.58 115.477 606.48 112.7C629.02 133.56 645.48 161.03 652.18 191.03C656.97 212.53 656.83 235.77 647.61 255.76C638.39 275.75 618.95 291.76 596.97 293.03C621.97 312.76 631.87 349.51 620.15 379.13C608.43 408.75 576 428.77 544.29 426C533.63 425.08 520.87 418.77 521.68 408.1C500.68 426.86 471.19 437.77 443.68 431.51C416.17 425.25 393 399.18 395 371.06C385.76 381.36 369.6 384.71 357 378.92C344.4 373.13 336.48 358.66 338.31 344.92C325.43 368.77 311.31 393.86 287.55 406.92C263.79 419.98 227.74 414.3 218.17 388.92C212.506 391.758 206.143 392.898 199.846 392.203C193.549 391.507 187.588 389.006 182.68 385C161 406 135.13 407.94 106.9 411.42C102.57 411.96 98.36 412.55 94.29 413.37C95.5071 416.473 97.2305 419.352 99.39 421.89C107.13 431.15 120.32 433.89 132.39 434.94C157.738 437.012 183.017 430.2 203.89 415.67C223.89 446.18 269.43 456.3 300.51 437.16C304.74 434.55 308.95 431.4 313.9 430.91C320.34 430.28 326.2 434.26 331.57 437.91C417.15 495.42 536.99 496.69 623.77 441.01C642.42 445.959 661.921 446.814 680.933 443.515C699.944 440.217 718.017 432.843 733.91 421.9C741.91 434.04 758.78 436.58 773.25 435.05C787.72 433.52 802.25 429.05 816.58 431.75C824.21 433.16 831.31 436.53 838.45 439.56C890.347 461.378 947.828 466.167 1002.62 453.24C1031.84 446.24 1059.62 434.38 1087.21 422.54C1096.31 418.64 1105.21 407.54 1114.53 410.83C1175.53 431.95 1183.21 410.83 1175.53 384.69C1167.23 364.88 1144.82 352.08 1123.62 355.06Z" fill="#CEE2EA"/>
</g>
</svg>
