<svg width="1440" height="1024" viewBox="0 0 1440 1024" fill="none" xmlns="http://www.w3.org/2000/svg">
<g id="skydesktop" clip-path="url(#clip0)">
<g id="skies">
<path id="Vector" fill-rule="evenodd" clip-rule="evenodd" d="M1898 374.85C1701 329.29 1452 502.76 1452 502.76C1452 502.76 786 951.16 469.15 735.19C152.3 519.22 -22 735.19 -22 735.19V-28H1898V374.85Z" fill="#EBF3F7"/>
</g>
<g id="cloud">
<path id="Vector_2" d="M133.733 367.972C152.188 358.309 200.526 359.623 200.526 359.623C205.598 354.597 206.636 342.131 208.645 335.286C215.329 312.859 242.973 299.324 264.782 307.787C264.446 271.527 303.914 240.728 339.006 249.856C341.038 240.147 350.586 233.464 360.349 231.668C370.111 229.873 380.102 231.982 389.795 234.082C389.971 204.223 421.198 183.896 450.454 177.954C480.909 171.766 513.686 175.097 541.033 189.87C568.379 204.643 589.645 231.309 595.267 261.872C627.858 247.428 664.612 245.425 698.579 256.242C722.381 263.919 746.176 280.991 749.552 305.771C774.507 299.11 803.122 317.924 806.903 343.467C822.86 338.395 839.527 334.095 856.179 335.867C872.832 337.639 889.598 346.599 896.534 361.838C912.721 359.547 929.846 369.339 936.102 384.441C942.015 404.416 936.102 420.541 889.507 404.401C882.357 401.926 875.597 410.366 868.638 413.353C847.555 422.39 826.343 431.48 804.031 436.804C762.174 446.682 718.262 443.02 678.62 426.346C673.166 424.055 667.75 421.465 661.922 420.381C650.991 418.349 639.876 421.733 628.823 422.909C617.77 424.085 604.914 422.145 598.765 412.864C586.627 421.223 572.823 426.855 558.302 429.375C543.781 431.895 528.886 431.242 514.641 427.462C448.346 469.994 356.812 469.023 291.441 425.086C287.339 422.336 282.855 419.296 277.943 419.739C274.162 420.113 270.946 422.52 267.707 424.513C243.966 439.134 209.218 431.388 193.911 408.098C177.966 419.195 158.656 424.399 139.294 422.817C130.128 422.054 120.037 419.922 114.125 412.849C100.123 396.105 117.532 376.459 133.733 367.972Z" fill="white"/>
<path id="Vector_3" d="M895.916 361.013C893.55 355.9 890.111 351.357 885.833 347.692C887.632 353.015 887.876 358.741 886.535 364.199C883.067 377.559 865.911 386.702 854.384 379.086C850.619 376.588 847.51 372.586 843.049 371.975C839.902 371.555 836.823 372.952 833.982 374.35C825.579 378.483 816.948 383.013 807.59 383.242C798.233 383.471 787.944 377.811 786.485 368.56C784.628 356.774 795.85 350.09 806.246 342.375C802.304 316.969 773.805 298.315 748.956 304.946C745.58 280.166 721.778 263.094 697.984 255.417C683.133 250.654 667.608 248.332 652.014 248.542C651.564 249.161 651.128 249.795 650.723 250.482C673.555 250.895 695.547 265.393 704.919 286.216C714.292 307.039 710.572 333.117 695.753 350.487C675.618 326.41 635.782 322.224 611.087 341.588C614.906 330.772 604.471 320.086 593.938 315.525C583.404 310.965 571.075 308.704 563.719 299.897C581.074 294.626 590.455 278.455 594.488 260.084C588.583 229.927 567.478 203.642 540.422 189.045C528.084 182.455 514.717 178.005 500.892 175.884C518.109 191.818 530.682 212.801 535.8 235.717C539.459 252.14 539.352 269.892 532.309 285.162C525.267 300.431 510.417 312.661 493.627 313.631C512.724 328.702 520.286 356.774 511.334 379.399C502.381 402.025 477.609 417.318 453.387 415.202C445.244 414.499 435.497 409.679 436.116 401.529C420.075 415.859 397.549 424.192 376.535 419.411C355.521 414.629 337.822 394.715 339.35 373.235C332.292 381.103 319.948 383.662 310.323 379.239C300.699 374.816 294.649 363.763 296.047 353.268C286.208 371.486 275.422 390.651 257.273 400.627C239.124 410.603 211.586 406.265 204.276 386.878C199.95 389.046 195.089 389.917 190.279 389.385C185.469 388.854 180.916 386.943 177.167 383.883C160.606 399.924 140.845 401.406 119.281 404.065C115.974 404.477 112.758 404.928 109.649 405.554C110.579 407.924 111.895 410.123 113.545 412.062C119.457 419.136 129.532 421.229 138.752 422.031C158.114 423.614 177.424 418.41 193.368 407.311C208.646 430.616 243.432 438.347 267.173 423.726C270.404 421.733 273.62 419.327 277.401 418.952C282.32 418.471 286.796 421.511 290.898 424.299C356.27 468.229 447.811 469.199 514.099 426.667C528.345 430.448 543.241 431.101 557.763 428.581C572.286 426.061 586.091 420.429 598.231 412.07C604.342 421.343 617.228 423.283 628.281 422.115C639.334 420.946 650.433 417.531 661.379 419.594C667.208 420.671 672.631 423.245 678.085 425.56C717.727 442.225 761.635 445.884 803.488 436.009C825.808 430.662 847.028 421.603 868.103 412.559C875.055 409.58 881.853 401.101 888.972 403.614C935.568 419.747 941.434 403.614 935.568 383.647C929.228 368.514 912.109 358.737 895.916 361.013Z" fill="#CEE2EA"/>
</g>
</g>
<defs>
<clipPath id="clip0">
<rect width="1440" height="1024" fill="white"/>
</clipPath>
</defs>
</svg>
