<svg width="414" height="896" viewBox="0 0 414 896" fill="none" xmlns="http://www.w3.org/2000/svg">
<g id="skymobile" clip-path="url(#clip0)">
<g id="skies">
<path id="Vector" fill-rule="evenodd" clip-rule="evenodd" d="M682 268.078C609.459 237.76 517.77 353.196 517.77 353.196C517.77 353.196 272.529 651.585 155.856 507.867C39.1823 364.149 -25 507.867 -25 507.867V0H682V268.078Z" fill="#EBF3F7"/>
</g>
<g id="cloud">
<path id="Vector_2" d="M33.0697 291.762C39.837 288.219 57.5621 288.701 57.5621 288.701C59.422 286.857 59.8029 282.286 60.5396 279.776C62.9905 271.553 73.1276 266.589 81.1246 269.693C81.0013 256.396 95.4744 245.102 108.342 248.449C109.087 244.889 112.589 242.438 116.169 241.78C119.748 241.122 123.412 241.895 126.967 242.665C127.031 231.716 138.482 224.262 149.21 222.083C160.378 219.814 172.397 221.035 182.425 226.453C192.453 231.87 200.251 241.648 202.312 252.855C214.263 247.559 227.741 246.825 240.197 250.791C248.925 253.606 257.65 259.867 258.888 268.953C268.039 266.511 278.532 273.41 279.918 282.776C285.77 280.916 291.882 279.339 297.988 279.989C304.094 280.639 310.243 283.925 312.786 289.513C318.721 288.673 325.001 292.264 327.295 297.801C329.463 305.126 327.295 311.039 310.209 305.12C307.587 304.213 305.108 307.308 302.556 308.403C294.825 311.717 287.047 315.05 278.865 317.002C263.516 320.625 247.414 319.282 232.877 313.168C230.877 312.327 228.891 311.378 226.754 310.98C222.746 310.235 218.67 311.476 214.617 311.907C210.564 312.339 205.85 311.627 203.595 308.224C199.144 311.289 194.082 313.354 188.757 314.278C183.432 315.202 177.971 314.963 172.747 313.577C148.437 329.173 114.872 328.817 90.9003 312.706C89.3961 311.697 87.7519 310.582 85.9508 310.745C84.5643 310.882 83.385 311.764 82.1974 312.496C73.4917 317.857 60.7497 315.016 55.1364 306.476C49.2894 310.545 42.2088 312.454 35.1088 311.874C31.7476 311.594 28.0474 310.812 25.8794 308.218C20.745 302.078 27.1286 294.874 33.0697 291.762Z" fill="white"/>
<path id="Vector_3" d="M312.559 289.21C311.691 287.336 310.43 285.669 308.862 284.325C309.521 286.277 309.611 288.377 309.119 290.378C307.848 295.277 301.556 298.63 297.33 295.838C295.949 294.922 294.809 293.454 293.173 293.23C292.019 293.076 290.89 293.588 289.848 294.101C286.767 295.616 283.602 297.277 280.17 297.361C276.739 297.446 272.966 295.37 272.431 291.978C271.75 287.656 275.865 285.205 279.677 282.376C278.232 273.06 267.781 266.219 258.67 268.651C257.431 259.564 248.703 253.304 239.978 250.489C234.532 248.742 228.84 247.891 223.121 247.968C222.956 248.195 222.796 248.427 222.648 248.679C231.02 248.83 239.085 254.147 242.521 261.782C245.958 269.418 244.594 278.981 239.16 285.351C231.777 276.522 217.169 274.987 208.113 282.087C209.514 278.121 205.688 274.202 201.825 272.53C197.962 270.858 193.441 270.029 190.744 266.799C197.108 264.866 200.548 258.937 202.027 252.2C199.861 241.141 192.122 231.503 182.201 226.15C177.676 223.734 172.775 222.102 167.705 221.324C174.019 227.167 178.629 234.862 180.506 243.265C181.848 249.287 181.809 255.797 179.226 261.396C176.643 266.995 171.198 271.48 165.041 271.835C172.044 277.362 174.817 287.656 171.534 295.953C168.251 304.249 159.168 309.857 150.285 309.081C147.3 308.823 143.725 307.056 143.952 304.067C138.07 309.322 129.81 312.378 122.104 310.624C114.398 308.871 107.908 301.569 108.469 293.692C105.88 296.577 101.354 297.516 97.8245 295.894C94.2952 294.272 92.0767 290.219 92.5893 286.37C88.9816 293.051 85.0265 300.079 78.3712 303.737C71.7159 307.395 61.6181 305.804 58.9374 298.695C57.351 299.49 55.5685 299.809 53.8048 299.614C52.041 299.42 50.3712 298.719 48.9965 297.597C42.9238 303.479 35.6775 304.022 27.7701 304.997C26.5573 305.148 25.378 305.314 24.238 305.543C24.5789 306.412 25.0616 307.219 25.6665 307.93C27.8345 310.524 31.5291 311.291 34.91 311.585C42.01 312.166 49.0908 310.257 54.9375 306.188C60.5397 314.734 73.2957 317.568 82.0013 312.207C83.1862 311.476 84.3654 310.594 85.7519 310.456C87.5558 310.28 89.1972 311.395 90.7014 312.417C114.673 328.526 148.241 328.882 172.548 313.285C177.772 314.672 183.235 314.911 188.56 313.987C193.885 313.063 198.947 310.998 203.399 307.933C205.64 311.333 210.365 312.045 214.418 311.616C218.472 311.187 222.541 309.935 226.555 310.692C228.693 311.087 230.681 312.031 232.681 312.879C247.218 318.991 263.319 320.332 278.666 316.711C286.851 314.75 294.632 311.428 302.36 308.112C304.909 307.02 307.402 303.91 310.013 304.832C327.099 310.748 329.25 304.832 327.099 297.51C324.774 291.961 318.497 288.376 312.559 289.21Z" fill="#CEE2EA"/>
</g>
</g>
<defs>
<clipPath id="clip0">
<rect width="414" height="896" fill="white"/>
</clipPath>
</defs>
</svg>
