<svg width="834" height="1194" viewBox="0 0 834 1194" fill="none" xmlns="http://www.w3.org/2000/svg">
<g id="skytablet" clip-path="url(#clip0)">
<g id="skies">
<path id="Vector" fill-rule="evenodd" clip-rule="evenodd" d="M1359 401.87C1210.84 356.421 1023.57 529.469 1023.57 529.469C1023.57 529.469 522.683 976.778 284.386 761.333C46.0881 545.889 -85 761.333 -85 761.333V0H1359V401.87Z" fill="#EBF3F7"/>
</g>
<g id="cloud">
<path id="Vector_2" d="M52.5242 448.527C66.346 441.29 102.548 442.274 102.548 442.274C106.347 438.509 107.125 429.173 108.63 424.047C113.636 407.25 134.34 397.113 150.673 403.451C150.421 376.294 179.982 353.227 206.264 360.064C207.785 352.792 214.937 347.786 222.248 346.442C229.559 345.098 237.043 346.677 244.302 348.25C244.434 325.887 267.821 310.663 289.733 306.212C312.542 301.578 337.091 304.072 357.572 315.137C378.053 326.201 393.98 346.173 398.191 369.063C422.6 358.245 450.127 356.745 475.567 364.846C493.393 370.596 511.214 383.382 513.743 401.941C532.433 396.952 553.864 411.043 556.696 430.174C568.647 426.375 581.13 423.154 593.602 424.482C606.073 425.809 618.631 432.52 623.826 443.933C635.948 442.217 648.775 449.551 653.46 460.861C657.888 475.822 653.46 487.899 618.562 475.81C613.208 473.957 608.145 480.278 602.933 482.515C587.143 489.283 571.256 496.091 554.545 500.079C523.196 507.476 490.308 504.734 460.618 492.247C456.533 490.53 452.477 488.591 448.112 487.778C439.925 486.257 431.601 488.791 423.323 489.672C415.045 490.553 405.416 489.1 400.811 482.149C391.72 488.409 381.381 492.628 370.506 494.515C359.63 496.402 348.475 495.913 337.806 493.082C288.154 524.936 219.599 524.21 170.639 491.303C167.567 489.243 164.209 486.966 160.53 487.298C157.698 487.578 155.29 489.38 152.864 490.873C135.083 501.823 109.059 496.022 97.594 478.579C85.652 486.891 71.1903 490.788 56.689 489.603C49.8239 489.031 42.2665 487.435 37.8385 482.138C27.3519 469.597 40.39 454.883 52.5242 448.527Z" fill="white"/>
<path id="Vector_3" d="M623.362 443.315C621.591 439.486 619.015 436.083 615.811 433.338C617.158 437.325 617.341 441.614 616.337 445.701C613.74 455.707 600.89 462.555 592.258 456.851C589.437 454.98 587.109 451.982 583.768 451.525C581.411 451.21 579.105 452.257 576.977 453.304C570.684 456.399 564.219 459.792 557.211 459.963C550.203 460.135 542.497 455.896 541.404 448.968C540.014 440.14 548.418 435.134 556.204 429.356C553.252 410.328 531.907 396.358 513.297 401.323C510.768 382.765 492.942 369.978 475.121 364.229C463.998 360.661 452.371 358.922 440.692 359.08C440.354 359.543 440.028 360.018 439.725 360.533C456.825 360.842 473.296 371.7 480.315 387.296C487.335 402.891 484.549 422.422 473.45 435.432C458.37 417.399 428.535 414.264 410.039 428.767C412.899 420.666 405.085 412.662 397.195 409.247C389.306 405.831 380.073 404.138 374.563 397.542C387.561 393.594 394.587 381.483 397.607 367.724C393.185 345.138 377.378 325.452 357.114 314.519C347.874 309.584 337.863 306.251 327.508 304.662C340.403 316.596 349.82 332.311 353.653 349.474C356.393 361.774 356.313 375.07 351.039 386.506C345.764 397.942 334.642 407.101 322.068 407.828C336.37 419.116 342.034 440.14 335.329 457.086C328.624 474.031 310.071 485.484 291.93 483.9C285.831 483.373 278.531 479.763 278.994 473.659C266.98 484.392 250.109 490.633 234.371 487.052C218.633 483.471 205.377 468.556 206.521 452.469C201.235 458.361 191.99 460.278 184.782 456.965C177.573 453.653 173.042 445.375 174.089 437.514C166.721 451.159 158.642 465.513 145.049 472.984C131.456 480.456 110.832 477.206 105.357 462.686C102.117 464.31 98.4767 464.962 94.8743 464.565C91.2719 464.167 87.8614 462.736 85.0537 460.444C72.6507 472.458 57.8505 473.568 41.7002 475.559C39.223 475.868 36.8145 476.205 34.4861 476.674C35.1824 478.449 36.1683 480.096 37.4038 481.548C41.8318 486.846 49.3778 488.414 56.283 489.014C70.7843 490.2 85.2463 486.302 97.1879 477.99C108.63 495.445 134.683 501.234 152.464 490.284C154.884 488.791 157.292 486.989 160.124 486.709C163.809 486.348 167.161 488.625 170.233 490.713C219.193 523.615 287.753 524.341 337.4 492.487C348.07 495.318 359.226 495.807 370.102 493.92C380.979 492.033 391.318 487.814 400.411 481.554C404.987 488.499 414.639 489.953 422.917 489.077C431.195 488.202 439.508 485.645 447.706 487.189C452.071 487.996 456.133 489.924 460.218 491.657C489.908 504.139 522.792 506.879 554.139 499.484C570.855 495.479 586.748 488.694 602.532 481.92C607.738 479.689 612.83 473.339 618.162 475.221C653.06 487.304 657.454 475.221 653.06 460.266C648.312 448.933 635.491 441.61 623.362 443.315Z" fill="#CEE2EA"/>
</g>
<g id="skies_2">
<path id="Vector_4" fill-rule="evenodd" clip-rule="evenodd" d="M1359 401.87C1210.84 356.421 1023.57 529.469 1023.57 529.469C1023.57 529.469 522.683 976.778 284.386 761.333C46.0881 545.889 -85 761.333 -85 761.333V0H1359V401.87Z" fill="#EBF3F7"/>
</g>
<g id="cloud_2">
<path id="Vector_5" d="M52.5242 448.527C66.346 441.29 102.548 442.274 102.548 442.274C106.347 438.509 107.125 429.173 108.63 424.047C113.636 407.25 134.34 397.113 150.673 403.451C150.421 376.294 179.982 353.227 206.264 360.064C207.785 352.792 214.937 347.786 222.248 346.442C229.559 345.098 237.043 346.677 244.302 348.25C244.434 325.887 267.821 310.663 289.733 306.212C312.542 301.578 337.091 304.072 357.572 315.137C378.053 326.201 393.98 346.173 398.191 369.063C422.6 358.245 450.127 356.745 475.567 364.846C493.393 370.596 511.214 383.382 513.743 401.941C532.433 396.952 553.864 411.043 556.696 430.174C568.647 426.375 581.13 423.154 593.602 424.482C606.073 425.809 618.631 432.52 623.826 443.933C635.948 442.217 648.775 449.551 653.46 460.861C657.888 475.822 653.46 487.899 618.562 475.81C613.208 473.957 608.145 480.278 602.933 482.515C587.143 489.283 571.256 496.091 554.545 500.079C523.196 507.476 490.308 504.734 460.618 492.247C456.533 490.53 452.477 488.591 448.112 487.778C439.925 486.257 431.601 488.791 423.323 489.672C415.045 490.553 405.416 489.1 400.811 482.149C391.72 488.409 381.381 492.628 370.506 494.515C359.63 496.402 348.475 495.913 337.806 493.082C288.154 524.936 219.599 524.21 170.639 491.303C167.567 489.243 164.209 486.966 160.53 487.298C157.698 487.578 155.29 489.38 152.864 490.873C135.083 501.823 109.059 496.022 97.594 478.579C85.652 486.891 71.1903 490.788 56.689 489.603C49.8239 489.031 42.2665 487.435 37.8385 482.138C27.3519 469.597 40.39 454.883 52.5242 448.527Z" fill="white"/>
<path id="Vector_6" d="M623.362 443.315C621.591 439.486 619.015 436.083 615.811 433.338C617.158 437.325 617.341 441.614 616.337 445.701C613.74 455.707 600.89 462.555 592.258 456.851C589.437 454.98 587.109 451.982 583.768 451.525C581.411 451.21 579.105 452.257 576.977 453.304C570.684 456.399 564.219 459.792 557.211 459.963C550.203 460.135 542.497 455.896 541.404 448.968C540.014 440.14 548.418 435.134 556.204 429.356C553.252 410.328 531.907 396.358 513.297 401.323C510.768 382.765 492.942 369.978 475.121 364.229C463.998 360.661 452.371 358.922 440.692 359.08C440.354 359.543 440.028 360.018 439.725 360.533C456.825 360.842 473.296 371.7 480.315 387.296C487.335 402.891 484.549 422.422 473.45 435.432C458.37 417.399 428.535 414.264 410.039 428.767C412.899 420.666 405.085 412.662 397.195 409.247C389.306 405.831 380.073 404.138 374.563 397.542C387.561 393.594 394.587 381.483 397.607 367.724C393.185 345.138 377.378 325.452 357.114 314.519C347.874 309.584 337.863 306.251 327.508 304.662C340.403 316.596 349.82 332.311 353.653 349.474C356.393 361.774 356.313 375.07 351.039 386.506C345.764 397.942 334.642 407.101 322.068 407.828C336.37 419.116 342.034 440.14 335.329 457.086C328.624 474.031 310.071 485.484 291.93 483.9C285.831 483.373 278.531 479.763 278.994 473.659C266.98 484.392 250.109 490.633 234.371 487.052C218.633 483.471 205.377 468.556 206.521 452.469C201.235 458.361 191.99 460.278 184.782 456.965C177.573 453.653 173.042 445.375 174.089 437.514C166.721 451.159 158.642 465.513 145.049 472.984C131.456 480.456 110.832 477.206 105.357 462.686C102.117 464.31 98.4767 464.962 94.8743 464.565C91.2719 464.167 87.8614 462.736 85.0537 460.444C72.6507 472.458 57.8505 473.568 41.7002 475.559C39.223 475.868 36.8145 476.205 34.4861 476.674C35.1824 478.449 36.1683 480.096 37.4038 481.548C41.8318 486.846 49.3778 488.414 56.283 489.014C70.7843 490.2 85.2463 486.302 97.1879 477.99C108.63 495.445 134.683 501.234 152.464 490.284C154.884 488.791 157.292 486.989 160.124 486.709C163.809 486.348 167.161 488.625 170.233 490.713C219.193 523.615 287.753 524.341 337.4 492.487C348.07 495.318 359.226 495.807 370.102 493.92C380.979 492.033 391.318 487.814 400.411 481.554C404.987 488.499 414.639 489.953 422.917 489.077C431.195 488.202 439.508 485.645 447.706 487.189C452.071 487.996 456.133 489.924 460.218 491.657C489.908 504.139 522.792 506.879 554.139 499.484C570.855 495.479 586.748 488.694 602.532 481.92C607.738 479.689 612.83 473.339 618.162 475.221C653.06 487.304 657.454 475.221 653.06 460.266C648.312 448.933 635.491 441.61 623.362 443.315Z" fill="#CEE2EA"/>
</g>
</g>
<defs>
<clipPath id="clip0">
<rect width="834" height="1194" fill="white"/>
</clipPath>
</defs>
</svg>
