<svg xmlns="http://www.w3.org/2000/svg" xmlns:xlink="http://www.w3.org/1999/xlink" viewBox="0 0 486.62 797.27"><defs><style>.cls-1{fill:url(#linear-gradient);}.cls-2{fill:url(#radial-gradient);}</style><linearGradient id="linear-gradient" x1="60.59" y1="382.24" x2="440.99" y2="601.86" gradientUnits="userSpaceOnUse"><stop offset="0" stop-color="#754c29"/><stop offset="1" stop-color="#8b5e3c"/></linearGradient><radialGradient id="radial-gradient" cx="243.31" cy="224.24" r="233.97" gradientUnits="userSpaceOnUse"><stop offset="0" stop-color="#00a651"/><stop offset="1" stop-color="#009444"/></radialGradient></defs><g id="Layer_2" data-name="Layer 2"><g id="Desktop"><g id="Background"><path id="root" class="cls-1" d="M186.86,797.27c20.57-80.71,37.92-196.9,10.26-328.42C170.31,341.33,116.81,273.69,152,224.59c39.93-55.78,172.09-56.73,215.62,0,36.67,47.79-5.53,115.7-30.88,244.26-26.55,134.69-17.55,249.44-6.16,324.31"/><path id="leaf" class="cls-2" d="M96.54,93.22C52.8,142.22-12.63,215.51,2.12,306.69c10.39,64.25,60.63,137.68,117,141.63,56,3.94,77.15-63.69,147.79-61.58,49.49,1.49,57.45,35.23,100.58,30.79,55-5.66,98.28-66.35,112.89-117,12.43-43,4.13-78.81-6.15-123.15S454.55,92.53,418.81,56.27C377.85,14.72,328.5,5.41,314.12,2.9c-59-10.28-104.75,9.37-125.21,18.48C180,25.34,141.07,43.34,96.54,93.22Z"/></g></g></g></svg>