<svg xmlns="http://www.w3.org/2000/svg" xmlns:xlink="http://www.w3.org/1999/xlink" viewBox="0 0 367.79 623.19"><defs><style>.cls-1{fill:url(#linear-gradient);}.cls-2{fill:url(#linear-gradient-2);}</style><linearGradient id="linear-gradient" x1="122.13" y1="623.19" x2="122.13" gradientUnits="userSpaceOnUse"><stop offset="0" stop-color="#231f20"/><stop offset="1" stop-color="#414042"/></linearGradient><linearGradient id="linear-gradient-2" x1="296.62" y1="619.73" x2="296.62" y2="315.27" xlink:href="#linear-gradient"/></defs><g id="Layer_2" data-name="Layer 2"><g id="People"><path id="Person1" class="cls-1" d="M185.74,20.17C181,8.45,166.57.5,153.6,0c-25.79-.95-40.47,27.84-41.07,29.07-9.44,19.21-4,39.62-1.79,46.43,1.3,3.91,5.49,9,7.14,17.86.5,2.68.63,7,.85,15.59.41,15.32,0,16.81-.85,18.34-3.29,5.68-10.43,6.16-19.44,8.27a136,136,0,0,0-34.24,14c-3.82,2.27-12.51,8.37-26.71,52.1-11.55,35.59-7,35.4-19,72.6-3.08,9.63-7.77,23.37-11.25,43.13-1.1,6.27-.39,3.55-3.12,23.66-3.93,29.07-6.8,45-.42,49.89a10,10,0,0,0,5.92,2.11c3.77-.16,6.42-3.21,7.39-4.33,7.13-8.21,5.13-27.3,7-43.44.65-5.66,3.11-13.49,8-29.17,7.28-23.16,14.4-39.6,27.06-74A149.14,149.14,0,0,0,64.62,224c2.91-12.45,3.14-21.16,3.38-21.14.44,0-.54,27.61-4.22,65.95-2.35,24.38-3.1,25.09-5.08,47.76-2.84,32.56-1.57,34.23-3.94,39.34-.61,1.31-3.26,6.72-1.13,9.28,1.22,1.47,3.28,1.12,4.65,1.53,8.5,2.56,5.07,33.56,5.07,33.56-.64,5.78.42,24.29,2.54,61.29,1.85,32.29-1.29,65.06,4.17,96.94.21,1.19,1,5.75-1.21,7.48-2.57,2-6.6-1.87-9.72-.43-5.07,2.35-4.77,14.45-3.39,22.41.36,2,5.92,32.43,24.52,35.08A19.63,19.63,0,0,0,92.1,620.9c11.29-6.16,10.57-24.86,11-44,.48-21.6,3.43-43.08,4.73-64.64,2.87-47.78,4.88-45.29,5.26-71.46.26-17.9,3.66-35.94,1.42-53.71-.3-2.46-1.12-8.32.43-8.88,2.21-.78,9.07,9.33,12.68,20.29,3.81,11.57,1.76,18.21,3.38,36.36,1,11.14,2.3,14.68,3.81,24.52,2.13,13.94,5.66,47.16-.43,84.12-2.58,15.66-6.49,29.62,1.27,37.2a15.93,15.93,0,0,0,9.72,4.23c15.61,1.38,32.28-20,30.86-37.2-.41-5.1-2.64-12.64-6.76-13.53-3.91-.84-7.47,4.75-8.88,3.81-1.79-1.21,4.43-10.11,7.19-23.25,1.77-8.44-.15-7.85,1.69-22.41,1.2-9.54,2.18-11,3.38-21.56.82-7.16.54-8,1.27-16.48,1.42-16.51,2.72-16.07,3.38-27.06a177.63,177.63,0,0,0-.84-28.32c-.7-7.54-1.05-11.3-1.69-14-1.69-6.9-3.74-9.74-2.12-12.26,1.93-3,6.27-1.28,10.15-5.07,2-1.93,2.61-4.1,3.38-6.77a37.65,37.65,0,0,0,.07-18.76c0-.13-.06-.22-.07-.26-3.16-11.68-.42-31.71-.42-31.71,2.18-16-.85-13.14,1.26-40.58.45-5.82,1.7-20.29,1.7-20.29h0c4.42,18.33,6.76,26.63,6.76,26.63a71.62,71.62,0,0,0,4.65,14.38c3.27,7.21,4.92,7.38,8.45,14.79.49,1,2.45,6.47,6.34,17.33,3,8.3,3.91,11,6.77,13.95,2.14,2.24,3.47,2.68,4.65,5.08,2.26,4.59-.37,7.57,1.27,11,2.32,4.86,11.67,7.3,15.21,4.22,3.36-2.9-.72-11.08-4.22-20.29-3.43-9-6.65-26.29-13.11-60.87-1.84-9.9-1.9-11.6-6.34-42.27-2.88-19.88-6.65-39.64-8.88-59.61a31.77,31.77,0,0,0-6.34-16.49c-1.64-2.06-5.39-6.64-11.83-8-3.41-.73-5.3,0-7.61,0-8.51,0-16.55-7.86-19.45-15.64a35.84,35.84,0,0,1-1.69-8c-.5-3.81-.24-5-.42-10.57-.32-9.78-1.28-10.76,0-12.68,2.23-3.37,6.08-1.79,10.57-4.65,2.13-1.36,4.93-4.06,8-16.49,2.63-10.55,1.41-11.82,3.8-26.63,1.75-10.85,3.08-14.36,2.54-22C187.81,29,187.49,24.47,185.74,20.17Z"/><path class="cls-2" d="M318.26,395.59c-.53-1.11-1.27-3.46.85-9.3,2.31-6.37,4.8-8,8.45-14a66.2,66.2,0,0,0,7.61-18.6,50.09,50.09,0,0,0,2.11-13.11c.08-4.41.1-8.5-2.11-13.1a20.42,20.42,0,0,0-7.19-8.46,22.26,22.26,0,0,0-7.61-3c-1.26-.3-4-.87-10.56-.84-7,0-10.45,0-14.8,1.26-3.22.91-6.5,1.84-9.72,4.65a23,23,0,0,0-5.92,8.88,33,33,0,0,0-2.54,10.57,73.83,73.83,0,0,0,0,7.61c.1,3.83.23,4.09.43,8.88.21,5.16.12,6.27.42,9.72.34,4,.53,6,1.27,7.19,1.11,1.78,2.09,1.75,7.18,5.49,3.86,2.83,4.36,3.63,4.65,4.23a7.83,7.83,0,0,1-.42,7.61c-1.64,2.4-4.34,2.92-6.76,3.38a20.26,20.26,0,0,1-8.46-.42c-4.16-.86-4.4-1.64-10.14-3.38-5.3-1.61-5.72-1.14-8.88-2.54a22.83,22.83,0,0,1-7.19-4.65,22.47,22.47,0,0,1-4.65-6.76c-3-6.86.28-10.71,0-23.25-.15-7.06-.29-10.64-3-12.69-4.19-3.22-13-1.4-15.21,3.38-1.3,2.76-.32,6.23,0,7.19.75,2.32,1.74,2.68,2.95,5.92a23.3,23.3,0,0,1,1.27,5.07c.44,2.95.18,4.65,0,8-.33,6.42.35,5.66,0,11-.37,5.68-1.17,7.06,0,9.3.91,1.72,1.71,1.53,4.65,4.22,1.73,1.58,1.74,1.91,6.77,8a65.88,65.88,0,0,0,5.91,6.77c3.19,2.68,4.19,2.26,6.77,4.65a21,21,0,0,1,5.07,7.61c1,2.77,1.05,5.12,0,13.1-1.23,9.4-1.85,14.1-3.38,19.45-1.28,4.47-1.37,3.49-4.65,13.1-2.76,8.1-2.61,8.54-5.07,15.64-1.55,4.48-3.1,8.95-5.5,14.8a110.82,110.82,0,0,0-4.65,12.26l-1.69,5.92c-.53.67-2.62,3.43-1.69,5.49.16.36.69,1.31,5.92,3a42.18,42.18,0,0,0,4.65,1.27c6.54,1.39,8.42.53,10.14,2.11,1.1,1,1.4,2.36,1.69,5.92.78,9.42-.29,12.15.43,17.76s2,4.72,3,11c.89,5.78-.19,6.49,0,14.37.07,3.23.26,3.47,1.69,19.87.32,3.69.75,9-.43,9.3s-2.48-4.51-5.49-4.65c-1.52-.08-2.72,1.08-3.81,2.11-.46.45-3.77,3.61-3,6.34.48,1.59,1.9,1.53,6.35,4.23,4.08,2.48,4.18,3.32,6.76,4.23a19.12,19.12,0,0,0,6.34.84c5.84.19,8.76.28,10.57-1.27,1.62-1.38,1.77-3.35,1.69-11.83-.08-8.73-.12-13.1-.42-17.33-.8-11.14-1.39-10.23-1.27-14.8.21-8.36,2.07-7.83,2.54-17.33.12-2.56.22-7.44.84-14.8.37-4.38.63-6.17,2.11-7.61,2.82-2.72,8.55-2.68,11.42,0,.61.58,1.16,1.33,2.53,6.77,1.71,6.74,1.42,7.75,2.54,11,1.58,4.56,2.61,3.85,4.65,8.88,1,2.39.92,3,3,11.83.25,1.11,1.32,5.7,2.54,10.57.58,2.32.4,1.54,3.38,12.26,2.05,7.39,2.7,9.8,5.07,11a6.85,6.85,0,0,0,4.65.42c3.8-1,3.58-4.85,8.46-10.56,3.63-4.27,6.05-4.85,5.91-7.19s-3-4.71-5.49-5.5c-2.8-.87-3.9.48-5.5-.42-2.3-1.3-1.91-5.21-2.11-13.1-.06-2.2-.2-8-.85-13.53-.82-7.09-1.69-7.2-2.53-14.37-1-8.2-1.39-12.43,1.27-15.65a18.35,18.35,0,0,1,6.34-4.65c2-.9,2.83-.77,4.22-1.69,3.21-2.1,4.08-6.07,4.23-6.76,1.05-4.8-1.8-6.7-4.23-15.22a62.6,62.6,0,0,1-2.11-13.1c-.64-8.26.76-7,0-13.95-.24-2.26-.61-4.46.42-5.08s3.38.89,4.65,2.12c2.44,2.35,2.63,4.74,3.81,8,1.51,4.21,2.2,3.05,8,13.1a85.37,85.37,0,0,1,4.23,8c1.9,4.22,2.85,6.33,3,8.45.25,5.21-2.93,6.85-1.69,10.57a8.15,8.15,0,0,0,4.65,4.65c3.58,1.3,8-.18,9.72-3,.83-1.36,1-3-2.54-14-1.71-5.35-2.52-7.35-3.8-11.41-1.13-3.57-1.74-5.91-3.38-12.26-6-23.11-5.94-23.25-6.77-25.37-3-7.76-4.52-8.37-6.34-15.22-1.16-4.35-1.16-6.39-3-11.41a66,66,0,0,0-4.65-10.14c-1.51-2.7-1.54-2.31-5.49-8.46-4.54-7.06-4.38-7.35-5.92-8.88C321.76,397.88,319.6,398.38,318.26,395.59Z"/></g></g></svg>