<svg xmlns="http://www.w3.org/2000/svg" viewBox="0 0 301.01 74.15"><g id="Layer_2" data-name="Layer 2"><g id="Eyes"><path d="M107.31,62.5s-4,8-28,11-37.24-5-44.12-11-6.88-10-6.88-10h3.38s11.62,15,20.62,16,21,1,28,0,16-8,23-8S107.31,62.5,107.31,62.5Z"/><path d="M28.31,49.58s-1-3.08,3-6.08,7.57-9,16.29-11.51c3.36-1,9.15-1,15.28-.36,9.75.95,20.36,3.41,23.43,5.87,5,4,16,18,17,23s3.61,0,3.61,0a50.22,50.22,0,0,0-15.61-24c-7-6-31-10-53-8-5,.45-18.21,12.7-16.6,16.85S24.31,51.66,28.31,49.58Z"/><path d="M109.31,55.5s-8-44-66-41c9-2,28-3,49,12S109.31,55.5,109.31,55.5Z"/><path d="M78.31,15.5a74.4,74.4,0,0,1,25,18.94S96.31,18.5,78.31,15.5Z"/><path d="M68.13,21.13s1.71,8.37,5,10.37S68,23.76,68.13,21.13Z"/><path d="M54.61,21.13s2.7,5.37,5.7,7.37C67.31,30.5,57.9,25.76,54.61,21.13Z"/><path d="M56.76,28.14s-7.45-4.64-9.45-8.64c2,5,2.45,7.28,4.73,8.64A5.08,5.08,0,0,0,56.76,28.14Z"/><path d="M50,28S40.85,17.5,40.58,15.5,46.31,29,47.31,28.74,50,28,50,28Z"/><path d="M45.3,28.06s-10.24-9.74-10-12.56,2,12.94,8,13.47S45.3,28.06,45.3,28.06Z"/><path d="M38.31,28.5s-10-7-11-11a21.39,21.39,0,0,0,8.18,12Z"/><path d="M32.81,31.14S15.31,16.5,15.31,11.5c2,7,12.44,20.56,14.72,21.78S32.81,31.14,32.81,31.14Z"/><path d="M28.72,34.44S12.31,20.5,11.31,16.5c2,7,16,20.13,16,20.13Z"/><path d="M25.78,37.36S12.31,30.63,11.31,26.57c3,3.93,9.78,13.71,12.39,13.32S25.78,37.36,25.78,37.36Z"/><path d="M21.82,43.27s-16.43-6.3-17-10C6.31,37.5,21.71,45.35,21.71,45.35Z"/><path d="M22.15,46.46s-3.84,1.74-10.84-1.11A56,56,0,0,1,0,39.29s7.36,9.9,13.34,10.56,15-.27,15-.27-10,4.64-13,7.28S3,56.86,3,56.86s10.34.64,13.34-2.36,5.26-3.44,5.26-3.44l3.1-2.4Z"/><path d="M20,7.85S34.31.91,43.31,4.21s16.06-1.07,19.53-.89,13.62-1.66,23,2.26,34.85,22.09,39.64,23.51,6.32-5.52,5.05-7.06S113.16,4.59,99.24,3,62.31-.5,59.31.5s-8,.46-12-.27-21,.27-25,3.27S20,7.85,20,7.85Z"/><path d="M51.51,33.23s-5.6,7.84-4.9,14.05,9.7,21.22,19.7,21.22S81.37,58.23,81.84,50.87,79.43,31.5,61.37,31.5,52,38.12,52,38.12s1.15-4.75,9.71-3.68,10.6-.36,13.58,4.85,4,12.21,2,17.21-6,9-10,9-9.41-3.82-12.7-8.91-5.8-12.29-4-16.69l1.75-4.4"/><path d="M66.31,45.5s1-6-4-5-3,7-1,10,4.17,4,5.09,0S66.31,45.5,66.31,45.5Z"/><path d="M193.7,62.5s4,8,28,11,37.24-5,44.12-11,6.88-10,6.88-10h-3.38s-11.62,15-20.62,16-21,1-28,0-16-8-23-8S193.7,62.5,193.7,62.5Z"/><path d="M272.7,49.58s1-3.08-3-6.08-7.57-9-16.29-11.51c-3.36-1-9.15-1-15.28-.36-9.75.95-20.36,3.41-23.43,5.87-5,4-16,18-17,23s-3.61,0-3.61,0a50.22,50.22,0,0,1,15.61-24c7-6,31-10,53-8,5,.45,18.21,12.7,16.6,16.85S276.7,51.66,272.7,49.58Z"/><path d="M191.7,55.5s8-44,66-41c-9-2-28-3-49,12S191.7,55.5,191.7,55.5Z"/><path d="M222.7,15.5a74.4,74.4,0,0,0-25,18.94S204.7,18.5,222.7,15.5Z"/><path d="M232.88,21.13s-1.71,8.37-4.95,10.37S233.06,23.76,232.88,21.13Z"/><path d="M246.4,21.13s-2.7,5.37-5.7,7.37C233.7,30.5,243.11,25.76,246.4,21.13Z"/><path d="M244.25,28.14s7.45-4.64,9.45-8.64c-2,5-2.45,7.28-4.73,8.64A5.08,5.08,0,0,1,244.25,28.14Z"/><path d="M251,28s9.17-10.48,9.44-12.48S254.7,29,253.7,28.74,251,28,251,28Z"/><path d="M255.71,28.06s10.24-9.74,10-12.56-2,12.94-8,13.47S255.71,28.06,255.71,28.06Z"/><path d="M262.7,28.5s10-7,11-11a21.39,21.39,0,0,1-8.18,12Z"/><path d="M268.2,31.14S285.7,16.5,285.7,11.5c-2,7-12.44,20.56-14.72,21.78S268.2,31.14,268.2,31.14Z"/><path d="M272.29,34.44S288.7,20.5,289.7,16.5c-2,7-16,20.13-16,20.13Z"/><path d="M275.23,37.36s13.47-6.73,14.47-10.79c-3,3.93-9.78,13.71-12.39,13.32S275.23,37.36,275.23,37.36Z"/><path d="M279.19,43.27s16.43-6.3,17-10C294.7,37.5,279.3,45.35,279.3,45.35Z"/><path d="M278.86,46.46s3.84,1.74,10.84-1.11A56,56,0,0,0,301,39.29s-7.36,9.9-13.34,10.56-15-.27-15-.27,10,4.64,13,7.28,12.34,0,12.34,0-10.34.64-13.34-2.36-5.26-3.44-5.26-3.44l-3.1-2.4Z"/><path d="M281,7.85S266.7.91,257.7,4.21s-16.06-1.07-19.53-.89-13.62-1.66-23,2.26-34.85,22.09-39.64,23.51-6.32-5.52-5-7.06S187.85,4.59,201.77,3,238.7-.5,241.7.5s8,.46,12-.27,21,.27,25,3.27S281,7.85,281,7.85Z"/><path d="M249.5,33.23s5.6,7.84,4.9,14.05S244.7,68.5,234.7,68.5s-15.06-10.27-15.53-17.63,2.41-19.37,20.47-19.37S249,38.12,249,38.12s-1.15-4.75-9.71-3.68-10.6-.36-13.58,4.85-4,12.21-2,17.21,6,9,10,9,9.41-3.82,12.7-8.91,5.8-12.29,4-16.69l-1.75-4.4"/><path d="M234.7,45.5s-1-6,4-5,3,7,1,10-4.17,4-5.09,0S234.7,45.5,234.7,45.5Z"/></g></g></svg>