<svg id="Layer_1" data-name="Layer 1" xmlns="http://www.w3.org/2000/svg" viewBox="0 0 968.74 321.86"><defs><style>.cls-1{fill:#fff;}</style></defs><path class="cls-1" d="M522.87,668.19A310,310,0,0,0,567.21,762a338.92,338.92,0,0,0,70.22,73.06A420,420,0,0,0,727.8,888a526.66,526.66,0,0,0,103.59,32.41A608.76,608.76,0,0,0,942.3,932.6a625.84,625.84,0,0,0,112-7.94,566.2,566.2,0,0,0,107.42-28.2,469.68,469.68,0,0,0,95.32-48c28.86-19.13,55.42-41.88,77.94-68.21a323.27,323.27,0,0,0,53.64-87.59q4.91-12,8.82-24.43c1-3.07-3.86-4.39-4.83-1.32a314.32,314.32,0,0,1-46.72,91.64,351.16,351.16,0,0,1-71.83,71.8,443.62,443.62,0,0,1-90.84,52.17,541.74,541.74,0,0,1-103.41,32.37A619.34,619.34,0,0,1,859,920.35a547.84,547.84,0,0,1-104.91-27.14,441.39,441.39,0,0,1-92.84-47.07,350.54,350.54,0,0,1-74.8-67.1,304.14,304.14,0,0,1-50.81-87.82c-3-8-5.6-16.13-7.92-24.35-.87-3.1-5.69-1.78-4.82,1.32Z" transform="translate(-475.75 -613.31)"/><path class="cls-1" d="M525.28,667.53l5.39,16.13,6.26,15.78c2.37,5.14,4.67,10.31,7.07,15.42l3.93,7.51,2,3.75c.67,1.24,1.26,2.52,2,3.72a312.67,312.67,0,0,0,39.32,54.85,344.31,344.31,0,0,0,49.55,45.63,404.9,404.9,0,0,0,56.91,36c39.88,20.77,82.73,35.65,126.68,45.14a623.25,623.25,0,0,0,267.81-1.69,549.2,549.2,0,0,0,64.72-18.93l4-1.42c1.33-.46,2.65-.95,3.95-1.48l7.84-3.1c2.61-1.06,5.25-2,7.82-3.15l7.74-3.36c2.57-1.14,5.18-2.18,7.72-3.39l7.61-3.62c2.53-1.22,5.11-2.36,7.6-3.65l7.48-3.9A427.1,427.1,0,0,0,1275.71,828a363.1,363.1,0,0,0,50.18-45,327.39,327.39,0,0,0,40.6-54c2.86-4.86,5.55-9.83,8.34-14.75,2.55-5,5-10.13,7.53-15.19l6.75-15.58,5.91-16-5.2,16.21-6.08,15.92c-2.32,5.19-4.61,10.4-7,15.56-2.62,5-5.15,10.15-7.85,15.17a324.16,324.16,0,0,1-39.35,55.84,365.93,365.93,0,0,1-49.85,46.93,419.14,419.14,0,0,1-57.37,37.49l-7.54,4.09c-2.52,1.36-5.11,2.57-7.66,3.86l-7.69,3.81c-2.56,1.27-5.19,2.38-7.79,3.58l-7.82,3.52c-2.61,1.18-5.28,2.18-7.92,3.29L1168,896c-1.32.56-2.66,1.06-4,1.55l-4,1.48A559.43,559.43,0,0,1,1094.34,919a593.54,593.54,0,0,1-67.5,11.89,615.81,615.81,0,0,1-68.4,4.29A628.59,628.59,0,0,1,890,931.75a581.82,581.82,0,0,1-67.65-11.07,542.2,542.2,0,0,1-65.78-19.33l-8-3c-2.68-1-5.3-2.14-8-3.2l-7.94-3.24c-2.65-1.07-5.22-2.33-7.83-3.5L717,884.89c-2.61-1.18-5.13-2.53-7.7-3.79l-7.67-3.84c-2.56-1.28-5-2.73-7.55-4.08a398.22,398.22,0,0,1-57.25-37.71,347.33,347.33,0,0,1-49.25-47.58,310.18,310.18,0,0,1-38-56.74c-.71-1.24-1.27-2.55-1.9-3.83l-1.84-3.85-3.68-7.71c-2.23-5.23-4.36-10.51-6.53-15.76L530,683.9Z" transform="translate(-475.75 -613.31)"/><path class="cls-1" d="M480,711.61a452.77,452.77,0,0,0,36.08-33.86,210.32,210.32,0,0,0,28.38-37.28,158.64,158.64,0,0,0,11.4-24,2.51,2.51,0,0,0-1.74-3.07,2.55,2.55,0,0,0-3.08,1.74,162.25,162.25,0,0,1-22.12,39.68c-9.38,12.55-20.28,23.94-31.67,34.67-6.76,6.37-13.73,12.52-20.78,18.57a2.52,2.52,0,0,0,0,3.54,2.54,2.54,0,0,0,3.53,0Z" transform="translate(-475.75 -613.31)"/><path class="cls-1" d="M1443.77,708.07a454,454,0,0,1-35.52-33.26,205.7,205.7,0,0,1-28-36.53,151.21,151.21,0,0,1-11.1-23.13,2.56,2.56,0,0,0-3.07-1.74,2.51,2.51,0,0,0-1.75,3.07A166.68,166.68,0,0,0,1387,657.35a277.91,277.91,0,0,0,32.14,35.4c6.86,6.47,13.93,12.72,21.09,18.86a2.57,2.57,0,0,0,3.54,0,2.53,2.53,0,0,0,0-3.54Z" transform="translate(-475.75 -613.31)"/></svg>