<svg width="1440" height="1024" viewBox="0 0 1440 1024" fill="none" xmlns="http://www.w3.org/2000/svg">
<g id="smiledesktop">
<g id="smile 1" clip-path="url(#clip0)">
<path id="Vector" d="M430.179 716.318C436.401 738.514 446.32 759.502 459.518 778.4C472.495 796.754 488.158 813.053 505.981 826.749C524.374 840.877 544.462 852.647 565.778 861.784C587.826 871.275 610.796 878.463 634.321 883.232C658.485 888.162 683.051 890.863 707.709 891.299C732.519 891.772 757.322 890.013 781.817 886.045C806.064 882.169 829.872 875.918 852.896 867.383C875.058 859.225 896.218 848.568 915.967 835.617C935.064 822.957 952.638 807.902 967.539 790.477C982.383 773.171 994.365 753.602 1003.03 732.512C1005.2 727.218 1007.14 721.829 1008.87 716.345C1009.53 714.313 1006.31 713.44 1005.67 715.471C998.767 737.247 988.322 757.737 974.758 776.117C961.301 794.175 945.291 810.181 927.229 823.632C908.627 837.475 888.451 849.064 867.122 858.157C845.087 867.567 822.164 874.744 798.697 879.579C750.605 889.53 701.116 890.754 652.591 883.192C628.915 879.515 605.662 873.498 583.173 865.232C561.54 857.308 540.919 846.852 521.742 834.082C503.198 821.734 486.529 806.779 472.248 789.677C457.867 772.323 446.502 752.678 438.628 731.559C436.643 726.265 434.923 720.885 433.388 715.445C432.812 713.393 429.623 714.267 430.198 716.318H430.179Z" fill="white"/>
<path id="Vector_2" d="M431.773 715.882L435.34 726.556L439.482 736.999C441.05 740.401 442.572 743.822 444.16 747.204L446.76 752.174L448.084 754.655C448.527 755.476 448.917 756.323 449.407 757.117C456.745 770.12 465.468 782.29 475.425 793.416C485.34 804.529 496.322 814.643 508.211 823.613C520.08 832.586 532.676 840.555 545.867 847.437C572.255 861.182 600.609 871.029 629.69 877.309C688.141 889.784 748.606 889.402 806.895 876.191C821.413 872.896 835.715 868.713 849.72 863.663L852.366 862.724C853.246 862.419 854.12 862.095 854.98 861.744L860.167 859.693C861.894 858.991 863.641 858.369 865.342 857.608L870.463 855.385C872.164 854.63 873.891 853.942 875.571 853.141L880.607 850.745C882.281 849.938 883.988 849.184 885.636 848.33L890.585 845.749C903.767 838.864 916.385 830.949 928.321 822.077C940.288 813.202 951.404 803.232 961.524 792.297C971.687 781.344 980.69 769.368 988.389 756.561C990.281 753.345 992.061 750.056 993.907 746.8C995.594 743.491 997.216 740.096 998.89 736.747L1003.36 726.437L1007.27 715.849L1003.83 726.576L999.803 737.111C998.268 740.546 996.752 743.994 995.171 747.409C993.437 750.718 991.763 754.126 989.977 757.448C982.623 770.649 973.896 783.035 963.939 794.402C953.939 805.762 942.896 816.16 930.954 825.459C918.999 834.751 906.303 843.049 892.994 850.269L888.005 852.976C886.337 853.876 884.623 854.676 882.936 855.53L877.848 858.051C876.154 858.892 874.414 859.627 872.693 860.421L867.519 862.75C865.792 863.531 864.025 864.193 862.278 864.927L857.051 867.078C856.178 867.449 855.291 867.78 854.404 868.104L851.757 869.083C837.559 874.374 823.05 878.787 808.311 882.299C793.587 885.78 778.675 888.407 763.648 890.168C748.626 891.953 733.516 892.901 718.388 893.007C703.263 893.074 688.145 892.316 673.103 890.737C658.051 889.177 643.104 886.731 628.34 883.411C613.576 880.069 599.038 875.797 584.814 870.619L579.521 868.633C577.747 867.972 576.014 867.217 574.227 866.516L568.973 864.371C567.22 863.663 565.519 862.829 563.792 862.055L558.631 859.726C556.904 858.945 555.237 858.051 553.536 857.218L548.461 854.676C546.767 853.829 545.153 852.87 543.466 851.976C530.145 844.762 517.471 836.413 505.584 827.021C493.711 817.624 482.795 807.077 472.996 795.533C463.259 783.981 454.826 771.388 447.852 757.984C447.382 757.163 447.012 756.296 446.595 755.449L445.377 752.901L442.942 747.799C441.467 744.338 440.058 740.844 438.622 737.37L434.896 726.715L431.773 715.882Z" fill="white"/>
<path id="Vector_3" d="M401.812 745.053C410.172 738.024 418.142 730.544 425.686 722.645C432.844 715.147 439.143 706.871 444.464 697.974C447.418 692.9 449.942 687.587 452.007 682.091C452.121 681.669 452.065 681.219 451.849 680.839C451.633 680.459 451.277 680.179 450.856 680.06C450.433 679.951 449.985 680.01 449.605 680.224C449.225 680.439 448.943 680.793 448.818 681.211C445.195 690.607 440.268 699.447 434.182 707.47C427.975 715.776 420.763 723.313 413.226 730.414C408.753 734.63 404.141 738.7 399.476 742.704C399.168 743.016 398.996 743.436 398.996 743.875C398.996 744.313 399.168 744.734 399.476 745.046C399.79 745.349 400.208 745.518 400.644 745.518C401.08 745.518 401.499 745.349 401.812 745.046V745.053Z" fill="white"/>
<path id="Vector_4" d="M1039.52 742.71C1031.3 735.799 1023.46 728.451 1016.02 720.699C1008.96 713.36 1002.75 705.251 997.493 696.525C994.616 691.64 992.159 686.519 990.149 681.218C990.022 680.802 989.741 680.45 989.363 680.236C988.985 680.022 988.539 679.961 988.117 680.066C987.695 680.184 987.337 680.463 987.12 680.844C986.903 681.224 986.846 681.675 986.959 682.098C990.665 691.773 995.714 700.878 1001.96 709.145C1008.36 717.55 1015.48 725.388 1023.23 732.572C1027.77 736.853 1032.44 740.99 1037.18 745.053C1037.5 745.353 1037.92 745.52 1038.35 745.52C1038.79 745.52 1039.21 745.353 1039.52 745.053C1039.83 744.74 1040 744.319 1040 743.882C1040 743.444 1039.83 743.023 1039.52 742.71V742.71Z" fill="white"/>
</g>
</g>
<defs>
<clipPath id="clip0">
<rect width="641" height="213" fill="white" transform="translate(399 680)"/>
</clipPath>
</defs>
</svg>
