<svg width="969" height="322" viewBox="0 0 969 322" fill="none" xmlns="http://www.w3.org/2000/svg">
<g id="smile 1" clip-path="url(#clip0)">
<path id="Vector" d="M47.12 54.88C56.5246 88.419 71.5146 120.133 91.46 148.69C111.073 176.425 134.744 201.053 161.68 221.75C189.476 243.098 219.836 260.883 252.05 274.69C285.372 289.032 320.086 299.893 355.64 307.1C392.159 314.55 429.285 318.63 466.55 319.29C504.046 320.004 541.53 317.347 578.55 311.35C615.194 305.493 651.174 296.048 685.97 283.15C719.464 270.824 751.444 254.72 781.29 235.15C810.15 216.02 836.71 193.27 859.23 166.94C881.664 140.788 899.772 111.219 912.87 79.35C916.143 71.35 919.083 63.2066 921.69 54.92C922.69 51.85 917.83 50.53 916.86 53.6C906.424 86.5049 890.64 117.466 870.14 145.24C849.802 172.528 825.606 196.714 798.31 217.04C770.197 237.957 739.704 255.469 707.47 269.21C674.168 283.429 639.525 294.273 604.06 301.58C531.378 316.616 456.586 318.465 383.25 307.04C347.469 301.483 312.327 292.392 278.34 279.9C245.645 267.927 214.482 252.127 185.5 232.83C157.474 214.172 132.282 191.573 110.7 165.73C88.9657 139.508 71.7901 109.822 59.89 77.91C56.89 69.91 54.29 61.78 51.97 53.56C51.1 50.46 46.28 51.78 47.15 54.88H47.12Z" fill="#4A3B32"/>
<path id="Vector_2" d="M49.53 54.22L54.92 70.35L61.18 86.13C63.55 91.27 65.85 96.44 68.25 101.55L72.18 109.06L74.18 112.81C74.85 114.05 75.44 115.33 76.18 116.53C87.2693 136.178 100.453 154.569 115.5 171.38C130.486 188.173 147.082 203.456 165.05 217.01C182.987 230.569 202.023 242.611 221.96 253.01C261.84 273.78 304.69 288.66 348.64 298.15C436.978 317 528.357 316.423 616.45 296.46C638.391 291.482 660.005 285.16 681.17 277.53L685.17 276.11C686.5 275.65 687.82 275.16 689.12 274.63L696.96 271.53C699.57 270.47 702.21 269.53 704.78 268.38L712.52 265.02C715.09 263.88 717.7 262.84 720.24 261.63L727.85 258.01C730.38 256.79 732.96 255.65 735.45 254.36L742.93 250.46C762.852 240.056 781.921 228.095 799.96 214.69C818.046 201.278 834.845 186.213 850.14 169.69C865.499 153.138 879.105 135.042 890.74 115.69C893.6 110.83 896.29 105.86 899.08 100.94C901.63 95.94 904.08 90.81 906.61 85.75L913.36 70.17L919.27 54.17L914.07 70.38L907.99 86.3C905.67 91.49 903.38 96.7 900.99 101.86C898.37 106.86 895.84 112.01 893.14 117.03C882.027 136.977 868.837 155.695 853.79 172.87C838.677 190.037 821.987 205.749 803.94 219.8C785.872 233.842 766.685 246.38 746.57 257.29L739.03 261.38C736.51 262.74 733.92 263.95 731.37 265.24L723.68 269.05C721.12 270.32 718.49 271.43 715.89 272.63L708.07 276.15C705.46 277.33 702.79 278.33 700.15 279.44L692.25 282.69C690.93 283.25 689.59 283.75 688.25 284.24L684.25 285.72C662.793 293.714 640.865 300.383 618.59 305.69C596.338 310.95 573.8 314.92 551.09 317.58C528.387 320.279 505.552 321.711 482.69 321.87C459.831 321.972 436.984 320.827 414.25 318.44C391.502 316.083 368.913 312.386 346.6 307.37C324.287 302.321 302.317 295.865 280.82 288.04L272.82 285.04C270.14 284.04 267.52 282.9 264.82 281.84L256.88 278.6C254.23 277.53 251.66 276.27 249.05 275.1L241.25 271.58C238.64 270.4 236.12 269.05 233.55 267.79L225.88 263.95C223.32 262.67 220.88 261.22 218.33 259.87C198.198 248.969 179.044 236.352 161.08 222.16C143.136 207.961 126.639 192.024 111.83 174.58C97.1136 157.123 84.3698 138.094 73.83 117.84C73.12 116.6 72.56 115.29 71.93 114.01L70.09 110.16L66.41 102.45C64.18 97.22 62.05 91.94 59.88 86.69L54.25 70.59L49.53 54.22Z" fill="#4A3B32"/>
<path id="Vector_3" d="M4.25 98.3C16.8849 87.6794 28.9295 76.3758 40.33 64.44C51.149 53.1091 60.668 40.6048 68.71 27.1599C73.1745 19.4928 76.9878 11.4647 80.11 3.15995C80.2823 2.52222 80.1963 1.84232 79.8705 1.26761C79.5448 0.692904 79.0057 0.269782 78.37 0.0899992C77.7312 -0.0746527 77.0536 0.0146294 76.4792 0.339084C75.9049 0.663538 75.4786 1.19791 75.29 1.82999C69.814 16.0286 62.3677 29.3861 53.17 41.51C43.79 54.06 32.89 65.45 21.5 76.18C14.74 82.55 7.77 88.7 0.720001 94.75C0.254652 95.2216 -0.0062561 95.8575 -0.0062561 96.52C-0.0062561 97.1825 0.254652 97.8184 0.720001 98.2899C1.1936 98.7476 1.82641 99.0034 2.48499 99.0034C3.14356 99.0034 3.7764 98.7476 4.25 98.2899V98.3Z" fill="#4A3B32"/>
<path id="Vector_4" d="M968.02 94.76C955.594 84.3163 943.737 73.2137 932.5 61.5C921.829 50.4092 912.437 38.1559 904.5 24.9701C900.151 17.5884 896.438 9.85058 893.4 1.84005C893.209 1.21156 892.784 0.680398 892.213 0.356532C891.641 0.032666 890.967 -0.0591748 890.33 0.100001C889.692 0.27766 889.151 0.699917 888.823 1.27487C888.496 1.84982 888.408 2.53093 888.58 3.17001C894.18 17.7904 901.811 31.549 911.25 44.04C920.926 56.7414 931.68 68.5852 943.39 79.44C950.25 85.91 957.32 92.16 964.48 98.3C964.958 98.7537 965.591 99.0067 966.25 99.0067C966.909 99.0067 967.542 98.7537 968.02 98.3C968.483 97.8272 968.742 97.1918 968.742 96.5301C968.742 95.8683 968.483 95.2329 968.02 94.76V94.76Z" fill="#4A3B32"/>
</g>
<defs>
<clipPath id="clip0">
<rect width="968.74" height="321.86" fill="white"/>
</clipPath>
</defs>
</svg>
