<svg width="414" height="896" viewBox="0 0 414 896" fill="none" xmlns="http://www.w3.org/2000/svg">
<g id="smilemobile">
<g id="smile 1" clip-path="url(#clip0)">
<path id="Vector" d="M61.6136 553.244C64.7299 564.394 69.6969 574.937 76.306 584.431C82.805 593.651 90.6486 601.839 99.574 608.719C108.785 615.816 118.844 621.729 129.519 626.319C140.56 631.087 152.063 634.697 163.844 637.093C175.945 639.57 188.247 640.926 200.595 641.146C213.02 641.383 225.44 640.5 237.707 638.506C249.85 636.559 261.772 633.419 273.302 629.131C284.4 625.033 294.997 619.68 304.887 613.174C314.45 606.814 323.251 599.251 330.713 590.498C338.146 581.804 344.147 571.974 348.487 561.379C349.572 558.72 350.546 556.013 351.41 553.258C351.741 552.237 350.13 551.798 349.809 552.819C346.351 563.758 341.121 574.051 334.328 583.284C327.589 592.355 319.571 600.396 310.527 607.153C301.211 614.107 291.107 619.929 280.426 624.497C269.391 629.224 257.912 632.829 246.16 635.258C222.077 640.257 197.293 640.871 172.993 637.073C161.137 635.226 149.492 632.203 138.23 628.051C127.397 624.07 117.07 618.818 107.467 612.403C98.1801 606.2 89.8325 598.687 82.6813 590.096C75.4795 581.378 69.7882 571.509 65.845 560.901C64.8509 558.241 63.9894 555.538 63.2206 552.806C62.9324 551.775 61.3352 552.214 61.6235 553.244H61.6136Z" fill="white"/>
<path id="Vector_2" d="M62.4122 553.025L64.1982 558.387L66.2725 563.633C67.0579 565.342 67.82 567.061 68.6152 568.76L69.9175 571.256L70.5802 572.503C70.8022 572.915 70.9977 573.341 71.2429 573.74C74.9175 580.272 79.2859 586.385 84.2719 591.974C89.2375 597.557 94.7368 602.637 100.691 607.143C106.634 611.651 112.942 615.654 119.548 619.111C132.763 626.016 146.962 630.963 161.525 634.118C190.796 640.384 221.076 640.193 250.266 633.556C257.536 631.901 264.698 629.799 271.711 627.263L273.037 626.791C273.478 626.638 273.915 626.475 274.346 626.299L276.944 625.268C277.808 624.916 278.683 624.603 279.535 624.221L282.099 623.104C282.951 622.725 283.816 622.379 284.658 621.977L287.179 620.774C288.018 620.368 288.872 619.989 289.697 619.56L292.176 618.264C298.777 614.805 305.096 610.829 311.073 606.372C317.066 601.913 322.633 596.905 327.701 591.412C332.79 585.91 337.299 579.894 341.154 573.46C342.102 571.845 342.993 570.192 343.918 568.557C344.763 566.895 345.574 565.189 346.413 563.507L348.649 558.328L350.608 553.008L348.885 558.397L346.87 563.69C346.101 565.415 345.342 567.147 344.551 568.863C343.682 570.525 342.844 572.237 341.949 573.906C338.267 580.537 333.896 586.76 328.91 592.469C323.902 598.176 318.372 603.4 312.392 608.071C306.405 612.739 300.047 616.907 293.382 620.534L290.884 621.894C290.049 622.346 289.191 622.748 288.346 623.177L285.797 624.444C284.949 624.866 284.078 625.235 283.216 625.634L280.625 626.804C279.76 627.196 278.875 627.529 278.001 627.898L275.383 628.978C274.945 629.164 274.501 629.331 274.057 629.494L272.732 629.986C265.622 632.643 258.356 634.86 250.975 636.624C243.602 638.373 236.133 639.693 228.608 640.577C221.086 641.474 213.519 641.95 205.943 642.003C198.369 642.037 190.798 641.657 183.265 640.863C175.727 640.079 168.242 638.851 160.849 637.183C153.455 635.504 146.175 633.358 139.052 630.757L136.401 629.759C135.513 629.427 134.645 629.048 133.75 628.696L131.119 627.619C130.241 627.263 129.39 626.844 128.525 626.455L125.94 625.285C125.075 624.893 124.24 624.444 123.389 624.025L120.847 622.748C119.999 622.323 119.19 621.841 118.346 621.392C111.675 617.768 105.328 613.574 99.3752 608.855C93.4294 604.135 87.963 598.837 83.0558 593.038C78.1795 587.234 73.9567 580.908 70.4642 574.175C70.229 573.763 70.0434 573.327 69.8346 572.902L69.225 571.622L68.0055 569.059C67.2666 567.32 66.5608 565.565 65.8418 563.819L63.9762 558.467L62.4122 553.025Z" fill="white"/>
<path id="Vector_3" d="M47.4075 567.68C51.5942 564.149 55.5853 560.392 59.363 556.424C62.9479 552.657 66.1021 548.5 68.7669 544.03C70.2462 541.481 71.5098 538.812 72.5444 536.051C72.6015 535.839 72.573 535.613 72.465 535.422C72.3571 535.231 72.1784 535.091 71.9678 535.031C71.7562 534.976 71.5316 535.006 71.3413 535.114C71.151 535.222 71.0097 535.399 70.9472 535.609C69.1327 540.33 66.6653 544.77 63.6176 548.801C60.5094 552.973 56.8976 556.759 53.1235 560.326C50.8835 562.444 48.5739 564.489 46.2378 566.5C46.0836 566.657 45.9972 566.868 45.9972 567.088C45.9972 567.309 46.0836 567.52 46.2378 567.677C46.3948 567.829 46.6045 567.914 46.8227 567.914C47.0409 567.914 47.2506 567.829 47.4075 567.677V567.68Z" fill="white"/>
<path id="Vector_4" d="M366.761 566.502C362.644 563.03 358.715 559.339 354.992 555.445C351.456 551.758 348.344 547.685 345.714 543.301C344.273 540.847 343.042 538.275 342.036 535.612C341.972 535.403 341.831 535.226 341.642 535.119C341.453 535.011 341.229 534.98 341.018 535.033C340.807 535.092 340.628 535.233 340.519 535.424C340.41 535.615 340.381 535.841 340.438 536.054C342.294 540.914 344.823 545.488 347.95 549.641C351.157 553.863 354.72 557.801 358.6 561.409C360.873 563.56 363.216 565.638 365.588 567.679C365.747 567.83 365.957 567.914 366.175 567.914C366.393 567.914 366.603 567.83 366.761 567.679C366.915 567.522 367.001 567.311 367.001 567.091C367.001 566.871 366.915 566.66 366.761 566.502V566.502Z" fill="white"/>
</g>
</g>
<defs>
<clipPath id="clip0">
<rect width="321" height="107" fill="white" transform="translate(46 535)"/>
</clipPath>
</defs>
</svg>
