<svg width="834" height="1194" viewBox="0 0 834 1194" fill="none" xmlns="http://www.w3.org/2000/svg">
<g id="smiletablet">
<g id="smile 1" clip-path="url(#clip0)">
<path id="Vector" d="M127.179 817.318C133.401 839.514 143.32 860.502 156.518 879.4C169.495 897.754 185.158 914.053 202.981 927.749C221.374 941.877 241.462 953.647 262.778 962.784C284.826 972.275 307.796 979.463 331.321 984.232C355.485 989.162 380.051 991.863 404.709 992.299C429.519 992.772 454.322 991.013 478.817 987.045C503.064 983.169 526.872 976.918 549.896 968.383C572.058 960.225 593.218 949.568 612.967 936.617C632.064 923.957 649.638 908.902 664.539 891.477C679.383 874.171 691.365 854.602 700.032 833.512C702.198 828.218 704.143 822.829 705.868 817.345C706.529 815.313 703.314 814.44 702.672 816.471C695.767 838.247 685.322 858.737 671.758 877.117C658.301 895.175 642.291 911.181 624.229 924.632C605.627 938.475 585.451 950.064 564.122 959.157C542.087 968.567 519.164 975.744 495.697 980.579C447.605 990.53 398.116 991.754 349.591 984.192C325.915 980.515 302.662 974.498 280.173 966.232C258.54 958.308 237.919 947.852 218.742 935.082C200.198 922.734 183.529 907.779 169.248 890.677C154.867 873.323 143.502 853.678 135.628 832.559C133.643 827.265 131.923 821.885 130.388 816.445C129.812 814.393 126.623 815.267 127.198 817.318H127.179Z" fill="white"/>
<path id="Vector_2" d="M128.773 816.882L132.34 827.556L136.482 837.999C138.05 841.401 139.572 844.822 141.16 848.204L143.76 853.174L145.084 855.655C145.527 856.476 145.917 857.323 146.407 858.117C153.745 871.12 162.468 883.29 172.425 894.416C182.34 905.529 193.322 915.643 205.211 924.613C217.08 933.586 229.676 941.555 242.867 948.437C269.255 962.182 297.609 972.029 326.69 978.309C385.141 990.784 445.606 990.402 503.895 977.191C518.413 973.896 532.715 969.713 546.72 964.663L549.366 963.724C550.246 963.419 551.12 963.095 551.98 962.744L557.167 960.693C558.894 959.991 560.641 959.369 562.342 958.608L567.463 956.385C569.164 955.63 570.891 954.942 572.571 954.141L577.607 951.745C579.281 950.938 580.988 950.184 582.636 949.33L587.585 946.749C600.767 939.864 613.385 931.949 625.321 923.077C637.288 914.202 648.404 904.232 658.524 893.297C668.687 882.344 677.69 870.368 685.389 857.561C687.281 854.345 689.061 851.056 690.907 847.8C692.594 844.491 694.216 841.096 695.89 837.747L700.356 827.437L704.267 816.849L700.826 827.576L696.803 838.111C695.268 841.546 693.752 844.994 692.171 848.409C690.437 851.718 688.763 855.126 686.977 858.448C679.623 871.649 670.896 884.035 660.939 895.402C650.939 906.762 639.896 917.16 627.954 926.459C615.999 935.751 603.303 944.049 589.994 951.269L585.005 953.976C583.337 954.876 581.623 955.676 579.936 956.53L574.848 959.051C573.154 959.892 571.414 960.627 569.693 961.421L564.519 963.75C562.792 964.531 561.025 965.193 559.278 965.927L554.051 968.078C553.178 968.449 552.291 968.78 551.404 969.104L548.757 970.083C534.559 975.374 520.05 979.787 505.311 983.299C490.587 986.78 475.675 989.407 460.648 991.168C445.626 992.953 430.516 993.901 415.388 994.007C400.263 994.074 385.145 993.316 370.103 991.737C355.051 990.177 340.104 987.731 325.34 984.411C310.576 981.069 296.038 976.797 281.814 971.619L276.521 969.633C274.747 968.972 273.014 968.217 271.227 967.516L265.973 965.371C264.22 964.663 262.519 963.829 260.792 963.055L255.631 960.726C253.904 959.945 252.237 959.051 250.536 958.218L245.461 955.676C243.767 954.829 242.153 953.87 240.466 952.976C227.145 945.762 214.471 937.413 202.584 928.021C190.711 918.624 179.795 908.077 169.996 896.533C160.259 884.981 151.826 872.388 144.852 858.984C144.382 858.163 144.012 857.296 143.595 856.449L142.377 853.901L139.942 848.799C138.467 845.338 137.058 841.844 135.622 838.37L131.896 827.715L128.773 816.882Z" fill="white"/>
<path id="Vector_3" d="M98.8121 846.053C107.172 839.024 115.142 831.544 122.686 823.645C129.844 816.147 136.143 807.871 141.464 798.974C144.418 793.9 146.942 788.587 149.007 783.091C149.121 782.669 149.065 782.219 148.849 781.839C148.633 781.459 148.277 781.179 147.856 781.06C147.433 780.951 146.985 781.01 146.605 781.224C146.225 781.439 145.943 781.793 145.818 782.211C142.195 791.607 137.268 800.447 131.182 808.471C124.975 816.776 117.763 824.313 110.226 831.414C105.753 835.63 101.141 839.7 96.4763 843.704C96.1684 844.016 95.9958 844.436 95.9958 844.875C95.9958 845.313 96.1684 845.734 96.4763 846.046C96.7897 846.349 97.2084 846.518 97.6442 846.518C98.08 846.518 98.4987 846.349 98.8121 846.046V846.053Z" fill="white"/>
<path id="Vector_4" d="M736.524 843.71C728.301 836.799 720.456 829.451 713.021 821.699C705.96 814.36 699.745 806.251 694.493 797.525C691.616 792.64 689.159 787.519 687.149 782.218C687.022 781.802 686.741 781.45 686.363 781.236C685.985 781.022 685.539 780.961 685.117 781.066C684.695 781.184 684.337 781.463 684.12 781.844C683.903 782.224 683.846 782.675 683.959 783.098C687.665 792.773 692.714 801.878 698.96 810.145C705.363 818.55 712.478 826.388 720.226 833.572C724.765 837.853 729.444 841.989 734.181 846.053C734.497 846.353 734.917 846.52 735.352 846.52C735.788 846.52 736.208 846.353 736.524 846.053C736.83 845.74 737.001 845.319 737.001 844.881C737.001 844.444 736.83 844.023 736.524 843.71V843.71Z" fill="white"/>
</g>
</g>
<defs>
<clipPath id="clip0">
<rect width="641" height="213" fill="white" transform="translate(96 781)"/>
</clipPath>
</defs>
</svg>
