<svg id="Snowflake" xmlns="http://www.w3.org/2000/svg" viewBox="0 0 628 628"><defs><style>.cls-1,.cls-3{fill:#fff;}.cls-1{stroke:#000;}.cls-1,.cls-2{stroke-miterlimit:10;}.cls-2{fill:none;stroke:#fff;stroke-width:15px;}</style></defs><circle class="cls-1" cx="314" cy="314" r="56.58"/><line class="cls-2" x1="314" y1="314" x2="314" y2="21.43"/><path class="cls-3" d="M336.56,22.56A22.56,22.56,0,1,0,314,45.12a22.56,22.56,0,0,0,22.56-22.56Z" transform="translate(0 0)"/><line class="cls-2" x1="314" y1="107" x2="358.83" y2="62.17"/><line class="cls-2" x1="314.5" y1="152.17" x2="359.33" y2="107.33"/><line class="cls-2" x1="314.5" y1="196.83" x2="359.33" y2="152"/><line class="cls-2" x1="316.25" y1="107.25" x2="271.41" y2="62.42"/><line class="cls-2" x1="315.75" y1="152.42" x2="270.91" y2="107.58"/><line class="cls-2" x1="315.75" y1="197.08" x2="270.91" y2="152.25"/><line class="cls-2" x1="314" y1="314" x2="520.88" y2="107.12"/><path class="cls-3" d="M536,123.87a22.56,22.56,0,1,0-31.91,0h0a22.55,22.55,0,0,0,31.89,0Z" transform="translate(0 0)"/><line class="cls-2" x1="460.37" y1="167.63" x2="523.78" y2="167.63"/><line class="cls-2" x1="428.79" y1="199.92" x2="492.19" y2="199.92"/><line class="cls-2" x1="397.2" y1="231.5" x2="460.61" y2="231.5"/><line class="cls-2" x1="461.78" y1="169.39" x2="461.78" y2="105.99"/><line class="cls-2" x1="429.49" y1="200.98" x2="429.49" y2="137.57"/><line class="cls-2" x1="397.91" y1="232.56" x2="397.91" y2="169.16"/><line class="cls-2" x1="314" y1="314" x2="606.57" y2="314"/><path class="cls-3" d="M605.44,336.56A22.56,22.56,0,1,0,582.88,314a22.56,22.56,0,0,0,22.56,22.56Z" transform="translate(0 0)"/><line class="cls-2" x1="521" y1="314" x2="565.83" y2="358.83"/><line class="cls-2" x1="475.83" y1="314.5" x2="520.67" y2="359.33"/><line class="cls-2" x1="431.17" y1="314.5" x2="476" y2="359.33"/><line class="cls-2" x1="520.75" y1="316.25" x2="565.58" y2="271.41"/><line class="cls-2" x1="475.58" y1="315.75" x2="520.42" y2="270.91"/><line class="cls-2" x1="430.92" y1="315.75" x2="475.75" y2="270.91"/><line class="cls-2" x1="314" y1="314" x2="520.88" y2="520.88"/><path class="cls-3" d="M504.13,536a22.56,22.56,0,1,0,0-31.9h0a22.55,22.55,0,0,0,0,31.89Z" transform="translate(0 0)"/><line class="cls-2" x1="460.37" y1="460.37" x2="460.37" y2="523.78"/><line class="cls-2" x1="428.08" y1="428.79" x2="428.08" y2="492.19"/><line class="cls-2" x1="396.5" y1="397.2" x2="396.5" y2="460.61"/><line class="cls-2" x1="458.61" y1="461.78" x2="522.01" y2="461.78"/><line class="cls-2" x1="427.02" y1="429.49" x2="490.43" y2="429.49"/><line class="cls-2" x1="395.44" y1="397.91" x2="458.84" y2="397.91"/><line class="cls-2" x1="314" y1="314" x2="314" y2="606.57"/><path class="cls-3" d="M291.44,605.44A22.56,22.56,0,1,0,314,582.88a22.56,22.56,0,0,0-22.56,22.56Z" transform="translate(0 0)"/><line class="cls-2" x1="314" y1="521" x2="269.17" y2="565.83"/><line class="cls-2" x1="313.5" y1="475.83" x2="268.67" y2="520.67"/><line class="cls-2" x1="313.5" y1="431.17" x2="268.67" y2="476"/><line class="cls-2" x1="311.75" y1="520.75" x2="356.59" y2="565.58"/><line class="cls-2" x1="312.25" y1="475.58" x2="357.09" y2="520.42"/><line class="cls-2" x1="312.25" y1="430.92" x2="357.09" y2="475.75"/><line class="cls-2" x1="314" y1="314" x2="107.12" y2="520.88"/><path class="cls-3" d="M92,504.13a22.56,22.56,0,1,0,31.91,0h0a22.55,22.55,0,0,0-31.89,0Z" transform="translate(0 0)"/><line class="cls-2" x1="167.63" y1="460.37" x2="104.22" y2="460.37"/><line class="cls-2" x1="199.21" y1="428.08" x2="135.81" y2="428.08"/><line class="cls-2" x1="230.8" y1="396.5" x2="167.39" y2="396.5"/><line class="cls-2" x1="166.22" y1="458.61" x2="166.22" y2="522.01"/><line class="cls-2" x1="198.51" y1="427.02" x2="198.51" y2="490.43"/><line class="cls-2" x1="230.09" y1="395.44" x2="230.09" y2="458.84"/><line class="cls-2" x1="314" y1="314" x2="21.43" y2="314"/><path class="cls-3" d="M22.56,291.44A22.56,22.56,0,1,0,45.12,314a22.56,22.56,0,0,0-22.56-22.56Z" transform="translate(0 0)"/><line class="cls-2" x1="107" y1="314" x2="62.17" y2="269.17"/><line class="cls-2" x1="152.17" y1="313.5" x2="107.33" y2="268.67"/><line class="cls-2" x1="196.83" y1="313.5" x2="152" y2="268.67"/><line class="cls-2" x1="107.25" y1="311.75" x2="62.42" y2="356.59"/><line class="cls-2" x1="152.42" y1="312.25" x2="107.58" y2="357.09"/><line class="cls-2" x1="197.08" y1="312.25" x2="152.25" y2="357.09"/><line class="cls-2" x1="314" y1="314" x2="107.12" y2="107.12"/><path class="cls-3" d="M123.87,92a22.56,22.56,0,1,0,0,31.91h0a22.55,22.55,0,0,0,0-31.89Z" transform="translate(0 0)"/><line class="cls-2" x1="167.63" y1="167.63" x2="167.63" y2="104.22"/><line class="cls-2" x1="199.92" y1="199.21" x2="199.92" y2="135.81"/><line class="cls-2" x1="231.5" y1="230.8" x2="231.5" y2="167.39"/><line class="cls-2" x1="169.39" y1="166.22" x2="105.99" y2="166.22"/><line class="cls-2" x1="200.98" y1="198.51" x2="137.57" y2="198.51"/><line class="cls-2" x1="232.56" y1="230.09" x2="169.16" y2="230.09"/></svg>