<svg xmlns="http://www.w3.org/2000/svg" viewBox="0 0 843.72 776.76"><g id="leafs"><g id="leafs-2" data-name="leafs"><g id="Leaves"><ellipse cx="389.41" cy="521.05" rx="50.08" ry="49.58" style="fill:#999"/><ellipse cx="512.6" cy="458.58" rx="50.08" ry="49.58" style="fill:#999"/><ellipse cx="430.47" cy="472.46" rx="50.08" ry="49.58" style="fill:#999"/><ellipse cx="512.61" cy="522.1" rx="50.08" ry="49.58" style="fill:#999"/><ellipse cx="298.27" cy="501.22" rx="50.08" ry="49.58" style="fill:#999"/><ellipse cx="84.93" cy="235.45" rx="50.08" ry="49.58" style="fill:#999"/><ellipse cx="151.04" cy="501.22" rx="50.08" ry="49.58" style="fill:#999"/><ellipse cx="84.93" cy="402.05" rx="50.08" ry="49.58" style="fill:#999"/><ellipse cx="430.47" cy="536.92" rx="50.08" ry="49.58" style="fill:#999"/><ellipse cx="251.19" cy="530.97" rx="50.08" ry="49.58" style="fill:#999"/><ellipse cx="314.79" cy="542.37" rx="34.55" ry="34.21" style="fill:#999"/><ellipse cx="563.18" cy="522.54" rx="34.55" ry="34.21" style="fill:#999"/><path d="M842.4,335a24.81,24.81,0,0,0-24.94-24.69h0a25,25,0,0,0-7.71,1.19v-1.19A20.32,20.32,0,0,0,801.94,294a32.8,32.8,0,0,0-1.08-46.69,33.57,33.57,0,0,0-23-9.14,61,61,0,0,0-8.31,1v-.79a25.57,25.57,0,0,0-2.6-11.3,27.63,27.63,0,0,0,.23-39.34,28.19,28.19,0,0,0-20.06-8.26,21.49,21.49,0,0,0-4.31.49,28.66,28.66,0,0,0,1.2-8.23,31.49,31.49,0,0,0-31.63-31.36h0a26.88,26.88,0,0,0-11.72,2.38,17.93,17.93,0,0,0-14.82-8,17.51,17.51,0,0,0-5.51.89v-.89a27.58,27.58,0,0,0-27.78-27.37,27.88,27.88,0,0,0-14.28,4v-4.07c0-9.82-8-16.76-17.93-16.06a20.57,20.57,0,0,0-3.41.29,25.67,25.67,0,0,0-21.63-39.76,25.48,25.48,0,0,0-9,1.59l-1.2-.9a32.81,32.81,0,0,0-64-10.61,20.61,20.61,0,0,0-25.84-6.34,33.57,33.57,0,0,0-64.9-5.16,23.53,23.53,0,0,0-5.91-.69A24.71,24.71,0,0,0,407.93,36,26,26,0,0,0,374.46,21.2,25.69,25.69,0,0,0,358,42.62a36.85,36.85,0,0,0-7.31-1,33.52,33.52,0,0,0-22.24,8.53,25.53,25.53,0,0,0-35.37-6,25.1,25.1,0,0,0-10.3,15.92,27.61,27.61,0,0,0-6.41-.69,25.55,25.55,0,0,0-26.24,24.83v.17a22,22,0,0,0-10.42,4.27,27.26,27.26,0,0,0-17.32-5.85,27.7,27.7,0,0,0-27.05,21.91,30.4,30.4,0,0,0-32.35,6A41.14,41.14,0,0,0,108.76,131a40.17,40.17,0,0,0-3.61,17.06v.06a39.71,39.71,0,0,0,6.91,22.31,28.26,28.26,0,0,0-15,18.15h-3.7a18.93,18.93,0,0,0-18.7,19.17,18.67,18.67,0,0,0,2.27,8.6,30.64,30.64,0,0,0-25,35.47h0a30.9,30.9,0,0,0,9.42,17,8.65,8.65,0,0,0-1.61,1,41.77,41.77,0,0,0-20.13-5.46,40.62,40.62,0,0,0-40.86,41,41.29,41.29,0,0,0,28.54,39.37,23,23,0,0,0-1.6,8.52l-.9,1.59A30.41,30.41,0,0,0,8.1,382.25,30.86,30.86,0,0,0,38.75,413.1a34.44,34.44,0,0,0,10-1.68,24.33,24.33,0,0,0-4,13.38,26.25,26.25,0,0,0,.5,4.76,22.95,22.95,0,0,0-5.61,43.83v1.19a31.52,31.52,0,0,0,22.64,30.15A34.39,34.39,0,0,0,82,549.45a34.91,34.91,0,0,0,12.62,2.38A33.19,33.19,0,0,0,112,547.07a40.22,40.22,0,0,0-.5,4.76,27.1,27.1,0,0,0,54.19.5h0V551a25.1,25.1,0,0,0-1.9-8.92,23.92,23.92,0,0,0,5.9.69,34.21,34.21,0,0,0,7.12-1h0a31.41,31.41,0,0,0,62.79,1.49v-.6c0-1.39-.2-2.78-.2-4.26a34.73,34.73,0,0,0,48.37-6.37,34.2,34.2,0,0,0,4.62-8,38.11,38.11,0,0,0,14-5.85,21.31,21.31,0,0,0,15.22,6.64,20.48,20.48,0,0,0,19.63-13.09h1.4s25.94-11.9,26.65-25.78a33.72,33.72,0,0,0,13.32-6.65,36.43,36.43,0,0,0,51-3.61l.05-.06a37.14,37.14,0,0,0,7.91-15.37,22.53,22.53,0,0,0,17.83,8.43A23,23,0,0,0,482,449.4a31.34,31.34,0,0,0,39.46,13,27.76,27.76,0,0,0,24,6.84,25.78,25.78,0,0,0,0,18.15,31.17,31.17,0,0,0,12.32,60,32.15,32.15,0,0,0,16.23-4.46,28.71,28.71,0,0,0,46.17-.69,32.42,32.42,0,0,0,16.22,5.25h.7a35.66,35.66,0,0,0,47.24,16.82,35.13,35.13,0,0,0,20.37-31.69,37,37,0,0,0-.5-5.85,31.07,31.07,0,0,0,4.31.49,27.75,27.75,0,0,0,11.21-2.38,28.89,28.89,0,0,0,40.4,3.91,28.29,28.29,0,0,0,10.48-22.06,23.13,23.13,0,0,0-.7-5.85,32.86,32.86,0,0,0,22.84-31.33,31.72,31.72,0,0,0-5.51-18.15,22.71,22.71,0,0,0,11.62-19.83,22.08,22.08,0,0,0-1.91-8.73,25.88,25.88,0,0,0,22.64-25.68,41.84,41.84,0,0,0-.9-7.05,30.61,30.61,0,0,0,11.61-24.29,32.35,32.35,0,0,0-1.4-9.22A23.32,23.32,0,0,0,842.4,335Zm-49.67.49-1-4.46a2.62,2.62,0,0,0,1.21-.2,17,17,0,0,0-.2,4c-.2.4-.2.4,0,.69Z" transform="translate(1.31 -7.5)" style="fill:#999"/></g></g></g><g id="root"><g id="root-2" data-name="root"><g id="Tree_root" data-name="Tree root"><path d="M364.71,784s8.3-83.1,13.1-104.5,24.7-92.6,24.7-92.6l12.1-30.9s-19.9-34.2-25.2-42.3c-5.2-7.8-25.2-44.6-25.2-44.6s-25.9-37.8-25.2-55.3c.7-17.8,0-49.4,0-49.4s7.4,19.7,9.7,37.3,18.8,56.48,18.8,56.48l25.1-2.4s34.2-21.6,41.8-30.4,29.2-29.2,30.4-33,21.9-30.4,21.9-30.4l37.8-35.4a115.44,115.44,0,0,1-24,40.6c-17.8,19-39.2,52-39.2,52s-22.5,31.8-29.6,34.9-26.8,19-29.7,25.6,10.5,23,9.7,32.1,21.6,26.1,21.6,26.1l26.6-19s28.3-32.3,27.3-40.6,17.8-40.1,19.7-45.4,7.8-24.5,17.6-32.3,20.2-24.5,25.4-27.1-10.2,26.6-12.6,30.4c-2.6,3.8-14,26.6-14,26.6l5,15.4,52.5-20.4s10.2-14,12.3-21.4,30.4-35.6,30.4-35.6l33.2-9.7s-30.6,23.8-33.2,28.7,1,21.1,1,21.1l32.3-3.6,27.8-17.6s-9.7,17.8-27.8,26.6-54.6,11.4-54.6,11.4l-25.6,16.4-40.4,19.5s-17.1,9-24.5,14.7c-7.4,5.5-27.5,35.4-27.5,39.2s-46.5,45.1-47,60.3c-.5,15.4-12.3,62.2-12.3,62.5s-3.8,25.2-2.4,36.8,8.3,38.2,10.9,54.6,8.8,54.9,8.8,54.9h-77.6V784Z" transform="translate(1.31 -7.5)" style="fill:#333"/></g></g></g></svg>