<svg xmlns="http://www.w3.org/2000/svg" viewBox="0 0 842.41 784.27"><g id="leafs"><g id="leafs-2" data-name="leafs"><g id="Leaves"><circle cx="388.8" cy="525.42" r="50" style="fill:#78bb3e"/><circle cx="511.8" cy="462.42" r="50" style="fill:#78bb3e"/><circle cx="429.8" cy="476.42" r="50" style="fill:#78bb3e"/><circle cx="511.81" cy="526.48" r="50" style="fill:#78bb3e"/><circle cx="297.8" cy="505.42" r="50" style="fill:#78bb3e"/><circle cx="84.8" cy="237.42" r="50" style="fill:#78bb3e"/><circle cx="150.8" cy="505.42" r="50" style="fill:#78bb3e"/><circle cx="84.8" cy="405.42" r="50" style="fill:#78bb3e"/><circle cx="429.8" cy="541.42" r="50" style="fill:#78bb3e"/><circle cx="250.8" cy="535.42" r="50" style="fill:#78bb3e"/><circle cx="314.3" cy="546.92" r="34.5" style="fill:#78bb3e"/><circle cx="562.3" cy="526.92" r="34.5" style="fill:#78bb3e"/><path d="M842.4,330.6a24.9,24.9,0,0,0-24.9-24.9h0a25.27,25.27,0,0,0-7.7,1.2v-1.2a20.56,20.56,0,0,0-7.8-16.4A33.3,33.3,0,0,0,778,233a58.74,58.74,0,0,0-8.3,1v-.8a26.1,26.1,0,0,0-2.6-11.4,28.05,28.05,0,0,0-19.8-48,21,21,0,0,0-4.3.5,29.23,29.23,0,0,0,1.2-8.3,31.6,31.6,0,0,0-31.6-31.6h0a26.42,26.42,0,0,0-11.7,2.4,17.87,17.87,0,0,0-14.8-8.1,17.13,17.13,0,0,0-5.5.9v-.9a27.67,27.67,0,0,0-42-23.6V101c0-9.9-8-16.9-17.9-16.2a19.53,19.53,0,0,0-3.4.3,26.48,26.48,0,0,0,4.2-14.2A25.88,25.88,0,0,0,595.7,45a25.12,25.12,0,0,0-9,1.6l-1.2-.9A32.72,32.72,0,0,0,521.6,35a20.47,20.47,0,0,0-25.8-6.4A33.44,33.44,0,0,0,431,23.4a23.24,23.24,0,0,0-5.9-.7,24.55,24.55,0,0,0-16.5,6.4,25.87,25.87,0,0,0-49.9,6.7,36.62,36.62,0,0,0-7.3-1,33.2,33.2,0,0,0-22.2,8.6,25.34,25.34,0,0,0-45.6,10,27.3,27.3,0,0,0-6.4-.7A25.63,25.63,0,0,0,251,77.9a21.81,21.81,0,0,0-10.4,4.3,27.07,27.07,0,0,0-17.3-5.9,27.72,27.72,0,0,0-27,22.1,30.11,30.11,0,0,0-32.3,6,40.6,40.6,0,0,0-16.8-3.6,41.12,41.12,0,0,0-40.9,41.4,40.3,40.3,0,0,0,6.9,22.5,28.39,28.39,0,0,0-15,18.3H94.5a19,19,0,0,0-16.4,28,30.86,30.86,0,0,0-25,35.8A31.24,31.24,0,0,0,62.5,264a8.64,8.64,0,0,0-1.6,1,41.52,41.52,0,0,0-20.1-5.5C18.2,259.3,0,277.8,0,300.8a41.61,41.61,0,0,0,28.5,39.7,23.4,23.4,0,0,0-1.6,8.6l-.9,1.6A30.72,30.72,0,0,0,9.4,378.3c0,17.1,13.8,31.1,30.6,31.1a33.84,33.84,0,0,0,10-1.7,24.8,24.8,0,0,0-4,13.5,26.07,26.07,0,0,0,.5,4.8,23.2,23.2,0,0,0-5.6,44.2v1.2a31.74,31.74,0,0,0,22.6,30.4,34.8,34.8,0,0,0,32.3,47.5,33,33,0,0,0,17.3-4.8,39.06,39.06,0,0,0-.5,4.8,27.05,27.05,0,0,0,54.1.5v-1.3a25.45,25.45,0,0,0-1.9-9,23.24,23.24,0,0,0,5.9.7,33.76,33.76,0,0,0,7.1-1h0a31.36,31.36,0,0,0,62.7,1.5v-.6c0-1.4-.2-2.8-.2-4.3a34.44,34.44,0,0,0,52.9-14.5,37.71,37.71,0,0,0,14-5.9,21.2,21.2,0,0,0,15.2,6.7A20.47,20.47,0,0,0,342,508.9h1.4s25.9-12,26.6-26a33.48,33.48,0,0,0,13.3-6.7,36.12,36.12,0,0,0,51-3.7,37.48,37.48,0,0,0,7.9-15.5,22.46,22.46,0,0,0,17.8,8.5A23.07,23.07,0,0,0,482.6,446,31.13,31.13,0,0,0,522,459.1a27.51,27.51,0,0,0,24,6.9,26.2,26.2,0,0,0,0,18.3,31.65,31.65,0,0,0-16.8,41.3,31.29,31.29,0,0,0,29.1,19.2,31.89,31.89,0,0,0,16.2-4.5,28.42,28.42,0,0,0,22.8,11.4,28.11,28.11,0,0,0,23.3-12.1,32.15,32.15,0,0,0,16.2,5.3h.7a35.44,35.44,0,0,0,67.5-15,38.08,38.08,0,0,0-.5-5.9,29.75,29.75,0,0,0,4.3.5,27.52,27.52,0,0,0,11.2-2.4,28.66,28.66,0,0,0,50.8-18.3,23.24,23.24,0,0,0-.7-5.9,33.11,33.11,0,0,0,22.8-31.6,32.26,32.26,0,0,0-5.5-18.3A22.94,22.94,0,0,0,799,428a22.46,22.46,0,0,0-1.9-8.8,26,26,0,0,0,22.6-25.9,41.78,41.78,0,0,0-.9-7.1,31,31,0,0,0,11.6-24.5,32.75,32.75,0,0,0-1.4-9.3A23.52,23.52,0,0,0,842.4,330.6Zm-49.6.5-1-4.5a2.54,2.54,0,0,0,1.2-.2,17.9,17.9,0,0,0-.2,4c-.2.4-.2.4,0,.7Z" transform="translate(0 -0.38)" style="fill:#78bb3e"/></g></g></g><g id="root"><g id="root-2" data-name="root"><g id="Tree_root" data-name="Tree root"><path d="M364.72,784.35s8.3-83.1,13.1-104.5,24.7-92.6,24.7-92.6l12.1-30.9s-19.9-34.2-25.2-42.3c-5.2-7.8-25.2-44.6-25.2-44.6s-25.9-37.8-25.2-55.3c.7-17.8,0-49.4,0-49.4s7.4,19.7,9.7,37.3,18.8,56.5,18.8,56.5l25.1-2.4s34.2-21.6,41.8-30.4,29.2-29.2,30.4-33,21.9-30.4,21.9-30.4l37.8-35.4a115.29,115.29,0,0,1-24,40.6c-17.8,19-39.2,52-39.2,52s-22.5,31.8-29.6,34.9-26.8,19-29.7,25.6,10.5,23,9.7,32.1,21.6,26.1,21.6,26.1l26.6-19s28.3-32.3,27.3-40.6,17.8-40.1,19.7-45.4,7.8-24.5,17.6-32.3,20.2-24.5,25.4-27.1-10.2,26.6-12.6,30.4c-2.6,3.8-14,26.6-14,26.6l5,15.4,52.5-20.4s10.2-14,12.3-21.4,30.4-35.6,30.4-35.6l33.2-9.7s-30.6,23.8-33.2,28.7,1,21.1,1,21.1l32.3-3.6,27.8-17.6s-9.7,17.8-27.8,26.6-54.6,11.4-54.6,11.4l-25.6,16.4-40.4,19.5s-17.1,9-24.5,14.7c-7.4,5.5-27.5,35.4-27.5,39.2s-46.5,45.1-47,60.3c-.5,15.4-12.3,62.2-12.3,62.5s-3.8,25.2-2.4,36.8,8.3,38.2,10.9,54.6,8.8,54.9,8.8,54.9h-77.6v-.3Z" transform="translate(0 -0.38)" style="fill:#84603b"/></g></g></g></svg>