<svg xmlns="http://www.w3.org/2000/svg" xmlns:xlink="http://www.w3.org/1999/xlink" viewBox="0 0 842.41 784.26"><defs><linearGradient id="linear-gradient" x1="511.81" y1="357.42" x2="511.81" y2="649.19" gradientUnits="userSpaceOnUse"><stop offset="0" stop-color="#fff"/><stop offset="1" stop-color="#630"/></linearGradient></defs><g id="Layer_1" data-name="Layer 1"><g id="leafs"><path d="M842.4,330.22a24.9,24.9,0,0,0-24.9-24.9h0a25.18,25.18,0,0,0-7.7,1.2v-1.2a20.56,20.56,0,0,0-7.8-16.4,33.3,33.3,0,0,0-24-56.3,59.33,59.33,0,0,0-8.3,1v-.8a26,26,0,0,0-2.6-11.4,28.05,28.05,0,0,0-19.8-48,21.4,21.4,0,0,0-4.3.5,29.13,29.13,0,0,0,1.2-8.3A31.6,31.6,0,0,0,712.6,134a26.52,26.52,0,0,0-11.7,2.4,17.85,17.85,0,0,0-14.8-8.1,17.13,17.13,0,0,0-5.5.9v-.9a27.67,27.67,0,0,0-42-23.6v-4.1c0-9.9-8-16.9-17.9-16.2a19.36,19.36,0,0,0-3.4.3,26.48,26.48,0,0,0,4.2-14.2,25.88,25.88,0,0,0-25.8-25.9,25.16,25.16,0,0,0-9,1.6l-1.2-.9a32.72,32.72,0,0,0-63.9-10.7,20.47,20.47,0,0,0-25.8-6.4A33.44,33.44,0,0,0,431,23a23.46,23.46,0,0,0-5.9-.7,24.57,24.57,0,0,0-16.5,6.4,25.87,25.87,0,0,0-49.9,6.7,36.65,36.65,0,0,0-7.3-1A33.19,33.19,0,0,0,329.2,43a25.34,25.34,0,0,0-45.6,10,27.59,27.59,0,0,0-6.4-.7A25.63,25.63,0,0,0,251,77.37v.15a21.82,21.82,0,0,0-10.4,4.3,27.08,27.08,0,0,0-17.3-5.9,27.72,27.72,0,0,0-27,22.1,30.11,30.11,0,0,0-32.3,6,40.92,40.92,0,0,0-57.7,37.74v.06a40.29,40.29,0,0,0,6.9,22.5,28.42,28.42,0,0,0-15,18.3H94.5a18.7,18.7,0,0,0-12.43,4.88,50,50,0,0,0-42.32,71.64C17.64,259.51,0,277.78,0,300.42a41.6,41.6,0,0,0,28.5,39.7,23.43,23.43,0,0,0-1.6,8.6l-.9,1.6a30.71,30.71,0,0,0-16.6,27.6,31.11,31.11,0,0,0,25.51,30.7,49.72,49.72,0,0,0,5.09,19,23.2,23.2,0,0,0,.89,42.17V471a31.74,31.74,0,0,0,22.6,30.4,34.8,34.8,0,0,0,32.3,47.5,33,33,0,0,0,17.3-4.8,38.66,38.66,0,0,0-.5,4.8,27,27,0,0,0,53.84,4,49.81,49.81,0,0,0,12.23-6A31.31,31.31,0,0,0,215,570.33a50,50,0,0,0,70.71.81c.71-.69,1.39-1.41,2.06-2.14A34.5,34.5,0,0,0,348,554.3a49.93,49.93,0,0,0,40.8,21.12c1.41,0,2.8-.07,4.17-.19a50,50,0,0,0,82.79-14.11,50,50,0,0,0,70.7,1.42c1.15-1.11,2.26-2.27,3.3-3.49a34.46,34.46,0,0,0,38.36-9.25,28.43,28.43,0,0,0,9.19,1.52,28.11,28.11,0,0,0,23.3-12.1,32.18,32.18,0,0,0,16.2,5.3h.7a35.44,35.44,0,0,0,67.5-15,37.58,37.58,0,0,0-.5-5.9,29.66,29.66,0,0,0,4.3.5,27.53,27.53,0,0,0,11.2-2.4,28.66,28.66,0,0,0,50.8-18.3,23.46,23.46,0,0,0-.7-5.9,33.11,33.11,0,0,0,22.8-31.6,32.21,32.21,0,0,0-5.5-18.3,22.93,22.93,0,0,0,11.59-20,22.45,22.45,0,0,0-1.9-8.8,26,26,0,0,0,22.6-25.9,42.43,42.43,0,0,0-.9-7.1,31,31,0,0,0,11.6-24.5A33,33,0,0,0,829,352,23.54,23.54,0,0,0,842.4,330.22Zm-49.6-.2-.11.22-.89-4a2.6,2.6,0,0,0,1.2-.2,18.3,18.3,0,0,0-.2,4Z" transform="translate(0 -0.01)"/></g><g id="root"><g id="root-2"><g id="Tree_root" data-name="Tree root"><path d="M364.72,784s8.3-83.1,13.1-104.5,24.7-92.6,24.7-92.6l12.1-30.9s-19.9-34.2-25.2-42.3c-5.2-7.8-25.2-44.6-25.2-44.6s-25.9-37.8-25.2-55.3c.7-17.8,0-49.4,0-49.4s7.4,19.7,9.7,37.3,18.8,56.5,18.8,56.5l25.1-2.4s34.2-21.6,41.8-30.4,29.2-29.2,30.4-33,21.9-30.4,21.9-30.4l37.8-35.4a115.35,115.35,0,0,1-24,40.6c-17.8,19-39.2,52-39.2,52s-22.5,31.8-29.6,34.9-26.8,19-29.7,25.6,10.5,23,9.7,32.1,21.6,26.1,21.6,26.1l26.6-19s28.3-32.3,27.3-40.6,17.8-40.1,19.7-45.4,7.8-24.5,17.6-32.3,20.2-24.5,25.4-27.1-10.2,26.6-12.6,30.4c-2.6,3.8-14,26.6-14,26.6l5,15.4,52.5-20.4s10.2-14,12.3-21.4,30.4-35.6,30.4-35.6l33.2-9.7s-30.6,23.8-33.2,28.7,1,21.1,1,21.1l32.3-3.6,27.8-17.6s-9.7,17.8-27.8,26.6-54.6,11.4-54.6,11.4l-25.6,16.4-40.4,19.5s-17.1,9-24.5,14.7c-7.4,5.5-27.5,35.4-27.5,39.2s-46.5,45.1-47,60.3c-.5,15.4-12.3,62.2-12.3,62.5s-3.8,25.2-2.4,36.8,8.3,38.2,10.9,54.6,8.8,54.9,8.8,54.9h-77.6V784Z" transform="translate(0 -0.01)"/></g></g></g></g><g id="Layer_2" data-name="Layer 2"><g id="root-2-2" data-name="root"><g id="Tree_root-2" data-name="Tree root"><path d="M364.72,784s8.3-83.1,13.1-104.5,24.7-92.6,24.7-92.6l12.1-30.9s-19.9-34.2-25.2-42.3c-5.2-7.8-25.2-44.6-25.2-44.6s-25.9-37.8-25.2-55.3c.7-17.8,0-49.4,0-49.4s7.4,19.7,9.7,37.3,18.8,56.5,18.8,56.5l25.1-2.4s34.2-21.6,41.8-30.4,29.2-29.2,30.4-33,21.9-30.4,21.9-30.4l37.8-35.4a115.29,115.29,0,0,1-24,40.6c-17.8,19-39.2,52-39.2,52s-22.5,31.8-29.6,34.9-26.8,19-29.7,25.6,10.5,23,9.7,32.1,21.6,26.1,21.6,26.1l26.6-19s28.3-32.3,27.3-40.6,17.8-40.1,19.7-45.4,7.8-24.5,17.6-32.3,20.2-24.5,25.4-27.1-10.2,26.6-12.6,30.4c-2.6,3.8-14,26.6-14,26.6l5,15.4,52.5-20.4s10.2-14,12.3-21.4,30.4-35.6,30.4-35.6l33.2-9.7s-30.6,23.8-33.2,28.7,1,21.1,1,21.1l32.3-3.6,27.8-17.6s-9.7,17.8-27.8,26.6-54.6,11.4-54.6,11.4l-25.6,16.4-40.4,19.5s-17.1,9-24.5,14.7c-7.4,5.5-27.5,35.4-27.5,39.2s-46.5,45.1-47,60.3c-.5,15.4-12.3,62.2-12.3,62.5s-3.8,25.2-2.4,36.8,8.3,38.2,10.9,54.6,8.8,54.9,8.8,54.9h-77.6V784Z" transform="translate(0 -0.01)" style="fill:url(#linear-gradient)"/></g></g></g></svg>